<?xml version="1.0" standalone="no"?>
<!DOCTYPE svg PUBLIC "-//W3C//DTD SVG 1.1//EN" "http://www.w3.org/Graphics/SVG/1.1/DTD/svg11.dtd" >
<svg xmlns="http://www.w3.org/2000/svg" xmlns:xlink="http://www.w3.org/1999/xlink" version="1.1">
<metadata>
Created by FontForge 20170731 at Wed Apr 25 19:16:02 2012
 By Aleksey,,,
(C) 2012. Olivier Gourvat - Mostardesign Studio. wf-rip
</metadata>
<defs>
<font id="SofiaPro-Bold" horiz-adv-x="1163" >
  <font-face 
    font-family="Sofia Pro"
    font-weight="700"
    font-stretch="normal"
    units-per-em="2048"
    panose-1="2 11 0 0 0 0 0 0 0 0"
    ascent="1536"
    descent="-512"
    x-height="956"
    cap-height="1411"
    bbox="-369 -588 2370 2279"
    underline-thickness="102"
    underline-position="-306"
    unicode-range="U+0020-FB04"
  />
<missing-glyph horiz-adv-x="1300" 
d="M164 0v1362h973v-1362h-973zM379 883h127q0 76 43 123t108 47t114.5 -42t49.5 -108q0 -60 -49 -102q-32 -35 -67 -43q-92 -28 -141.5 -79t-49.5 -147v-77h127v77q0 46 25.5 67.5t76.5 35.5q88 28 145.5 99t57.5 169q0 123 -85 200t-204 77q-117 0 -197.5 -82t-80.5 -215z
M485 268q0 -38 28 -63t67 -25q38 0 65 25t27 63t-27 63t-65 25q-39 0 -67 -25t-28 -63z" />
    <glyph glyph-name="uniFB00" unicode="ff" horiz-adv-x="1558" 
d="M47 731v225h180v66q0 219 113 337t319 118h105v-273h-105q-72 0 -108.5 -47.5t-36.5 -134.5v-66h520v66q0 219 113 337t319 118h105v-273h-105q-72 0 -108.5 -47.5t-36.5 -134.5v-66h192v-225h-192v-731h-287v731h-520v-731h-287v731h-180z" />
    <glyph glyph-name="uniFB01" unicode="fi" horiz-adv-x="1423" 
d="M47 731v225h180v66q0 219 113 337t319 118h105v-273h-105q-72 0 -108.5 -47.5t-36.5 -134.5v-66h778v-956h-282v731h-496v-731h-287v731h-180zM973 1311q0 70 52.5 118t125.5 48q72 0 123 -48t51 -118t-51 -119t-123 -49q-73 0 -125.5 49t-52.5 119z" />
    <glyph glyph-name="uniFB02" unicode="fl" horiz-adv-x="1388" 
d="M47 731v225h180v66q0 219 113 337t319 118h598v-1477h-284v1204h-314q-72 0 -108.5 -47.5t-36.5 -134.5v-66h193v-225h-193v-731h-287v731h-180z" />
    <glyph glyph-name="uniFB03" unicode="ffi" horiz-adv-x="2230" 
d="M47 731v225h180v66q0 219 113 337t319 118h105v-273h-105q-72 0 -108.5 -47.5t-36.5 -134.5v-66h520v66q0 219 113 337t319 118h105v-273h-105q-72 0 -108.5 -47.5t-36.5 -134.5v-66h778v-956h-282v731h-496v-731h-287v731h-520v-731h-287v731h-180zM1780 1311
q0 70 52.5 118t125.5 48q72 0 123 -48t51 -118t-51 -119t-123 -49q-73 0 -125.5 49t-52.5 119z" />
    <glyph glyph-name="uniFB04" unicode="ffl" horiz-adv-x="2195" 
d="M47 731v225h180v66q0 219 113 337t319 118h105v-273h-105q-72 0 -108.5 -47.5t-36.5 -134.5v-66h520v66q0 219 113 337t319 118h598v-1477h-284v1204h-314q-72 0 -108.5 -47.5t-36.5 -134.5v-66h192v-225h-192v-731h-287v731h-520v-731h-287v731h-180z" />
    <glyph glyph-name="f_f_j" unicode="ffj" horiz-adv-x="2181" 
d="M47 731v225h180v66q0 219 113 337t319 118h105v-273h-105q-72 0 -108.5 -47.5t-36.5 -134.5v-66h520v66q0 219 113 337t319 118h105v-273h-105q-72 0 -108.5 -47.5t-36.5 -134.5v-66h729v-1022q0 -202 -84 -308.5t-278 -106.5h-175v258h125q37 0 63.5 13.5t39 37t18 48
t4.5 52.5v803h-442v-731h-287v731h-520v-731h-287v731h-180zM1729 1311q0 70 52.5 118t125.5 48q74 0 125 -48t51 -118t-51 -119t-125 -49q-73 0 -125.5 49t-52.5 119z" />
    <glyph glyph-name="f_j" unicode="fj" horiz-adv-x="1374" 
d="M47 731v225h180v66q0 219 113 337t319 118h105v-273h-105q-72 0 -108.5 -47.5t-36.5 -134.5v-66h729v-1022q0 -202 -84 -308.5t-278 -106.5h-174v258h124q37 0 63.5 13.5t39 37t18 48t4.5 52.5v803h-442v-731h-287v731h-180zM922 1311q0 70 52.5 118t125.5 48
q74 0 125 -48t51 -118t-51 -119t-125 -49q-73 0 -125.5 49t-52.5 119z" />
    <glyph glyph-name=".notdef" horiz-adv-x="1300" 
d="M164 0v1362h973v-1362h-973zM379 883h127q0 76 43 123t108 47t114.5 -42t49.5 -108q0 -60 -49 -102q-32 -35 -67 -43q-92 -28 -141.5 -79t-49.5 -147v-77h127v77q0 46 25.5 67.5t76.5 35.5q88 28 145.5 99t57.5 169q0 123 -85 200t-204 77q-117 0 -197.5 -82t-80.5 -215z
M485 268q0 -38 28 -63t67 -25q38 0 65 25t27 63t-27 63t-65 25q-39 0 -67 -25t-28 -63z" />
    <glyph glyph-name=".null" horiz-adv-x="0" 
 />
    <glyph glyph-name="nonmarkingreturn" horiz-adv-x="682" 
 />
    <glyph glyph-name="space" unicode=" " horiz-adv-x="499" 
 />
    <glyph glyph-name="exclam" unicode="!" horiz-adv-x="579" 
d="M113 152q0 73 51.5 121.5t124.5 48.5t125.5 -49t52.5 -121q0 -74 -52.5 -123t-125.5 -49t-124.5 49t-51.5 123zM133 1411h316l-41 -985h-234z" />
    <glyph glyph-name="quotedbl" unicode="&#x22;" horiz-adv-x="747" 
d="M129 1411h201l-23 -608h-155zM418 1411h200l-22 -608h-156z" />
    <glyph glyph-name="numbersign" unicode="#" horiz-adv-x="1480" 
d="M72 334l53 188h231l105 344h-230l54 189h231l107 356h227l-107 -356h207l109 356h225l-108 -356h235l-53 -189h-236l-106 -344h235l-55 -188h-233l-109 -334h-223l104 334h-209l-106 -334h-221l106 334h-233zM582 522h206l107 344h-209z" />
    <glyph glyph-name="dollar" unicode="$" horiz-adv-x="1177" 
d="M82 414h301q3 -72 58.5 -121t152.5 -49q92 0 149 40.5t58 108.5q2 53 -34 92t-136 68l-170 47q-365 113 -365 406q0 170 119 284t303 133v219h150v-221q175 -24 283 -137t108 -289h-299q0 72 -47.5 116t-134.5 44q-79 0 -131 -39.5t-52 -101.5q0 -101 152 -144l168 -53
q396 -114 387 -426q-1 -92 -37.5 -167t-98 -124.5t-137 -79t-161.5 -38.5v-236h-150v236q-199 20 -317.5 138.5t-118.5 293.5z" />
    <glyph glyph-name="percent" unicode="%" horiz-adv-x="1417" 
d="M74 1081q0 115 78.5 195t193.5 80q114 0 194.5 -80.5t80.5 -194.5q0 -115 -80 -193.5t-195 -78.5q-116 0 -194 78.5t-78 193.5zM240 1081q0 -46 30 -76t76 -30q45 0 77 30.5t32 75.5q0 44 -32.5 76.5t-76.5 32.5q-45 0 -75.5 -32t-30.5 -77zM303 0l660 1341h141
l-660 -1341h-141zM799 252q0 115 78.5 194.5t193.5 79.5q114 0 194.5 -80t80.5 -194q0 -115 -80 -193.5t-195 -78.5t-193.5 78t-78.5 194zM965 252q0 -46 30 -76.5t76 -30.5q45 0 77 31t32 76q0 44 -32.5 76t-76.5 32q-45 0 -75.5 -31.5t-30.5 -76.5z" />
    <glyph glyph-name="ampersand" unicode="&#x26;" horiz-adv-x="1421" 
d="M104 391q0 134 59.5 227t174.5 134q-78 26 -128 101t-50 179q0 154 116.5 270t294.5 125q127 6 231.5 -43.5t172.5 -138.5l-242 -147q-53 53 -115 53q-72 0 -108.5 -43t-36.5 -96q0 -8 1 -19.5t10 -39t24.5 -48t49 -37t79.5 -16.5h233v160h265v-160h163v-229h-163v-209
q0 -63 7 -98t29.5 -56t56.5 -27t97 -6v-247q-73 1 -121.5 4t-98 13.5t-80.5 29.5t-57 51t-40 78q-25 -55 -85.5 -96t-127.5 -60.5t-129 -19.5q-206 0 -344 115.5t-138 295.5zM416 414q15 -76 69 -116t144 -40q26 0 55 7t63 25t60.5 45t44.5 72.5t18 102.5v113h-241
q-47 0 -85 -11.5t-60.5 -29.5t-39.5 -41t-22 -46.5t-8 -44.5t2 -36z" />
    <glyph glyph-name="quotesingle" unicode="'" horiz-adv-x="458" 
d="M129 1411h201l-23 -608h-155z" />
    <glyph glyph-name="parenleft" unicode="(" horiz-adv-x="794" 
d="M80 467q0 273 85 493t233.5 343.5t330.5 123.5v-223q-100 0 -195 -104.5t-155 -276.5t-60 -356q0 -183 60 -352t155 -270t195 -101v-221q-137 0 -257 70t-206 193t-136 299.5t-50 381.5z" />
    <glyph glyph-name="parenright" unicode=")" horiz-adv-x="794" 
d="M66 -256q100 0 195 101t154.5 270t59.5 352q0 184 -59.5 356t-154.5 276.5t-195 104.5v223q182 0 330.5 -123.5t233.5 -343.5t85 -493q0 -205 -50 -381.5t-136 -299.5t-206 -193t-257 -70v221z" />
    <glyph glyph-name="asterisk" unicode="*" horiz-adv-x="974" 
d="M90 1087l64 191l247 -98l-16 268h205l-19 -266l252 96l60 -191l-256 -69l170 -213l-160 -113l-145 221l-156 -225l-156 119l168 207z" />
    <glyph glyph-name="plus" unicode="+" horiz-adv-x="1042" 
d="M100 430v209h316v315h209v-315h317v-209h-317v-317h-209v317h-316z" />
    <glyph glyph-name="comma" unicode="," horiz-adv-x="579" 
d="M2 -207q71 98 116 242t44 289h289q-1 -114 -27.5 -216t-70 -176t-84 -123t-83.5 -85z" />
    <glyph glyph-name="hyphen" unicode="-" horiz-adv-x="972" 
d="M125 391v225h723v-225h-723z" />
    <glyph glyph-name="period" unicode="." horiz-adv-x="571" 
d="M109 152q0 73 51.5 121.5t124.5 48.5t125.5 -49t52.5 -121q0 -74 -52.5 -123t-125.5 -49t-124.5 49t-51.5 123z" />
    <glyph glyph-name="slash" unicode="/" horiz-adv-x="1024" 
d="M59 0l678 1411h228l-678 -1411h-228z" />
    <glyph glyph-name="zero" unicode="0" horiz-adv-x="1236" 
d="M119 672q0 122 14.5 222t50 190t91.5 151t144 97t202 36t201.5 -36t142.5 -97t90 -151.5t49 -190t14 -221.5q0 -121 -14 -220t-49 -188.5t-90 -150.5t-142.5 -97t-201.5 -36t-202 36t-144 97t-91.5 150.5t-50 189t-14.5 219.5zM406 672q0 -89 11 -160.5t35 -130t67 -91
t102 -32.5q210 0 210 414q0 418 -210 418q-59 0 -102 -32.5t-67 -92t-35 -131.5t-11 -162z" />
    <glyph glyph-name="one" unicode="1" horiz-adv-x="772" 
d="M80 862v252l516 246v-1360h-287v961z" />
    <glyph glyph-name="two" unicode="2" horiz-adv-x="1122" 
d="M104 0v156l551 653q72 83 72 152q0 56 -45.5 94.5t-122.5 38.5q-75 0 -126.5 -52.5t-63.5 -134.5l-263 45q31 193 155.5 304.5t313.5 111.5q119 0 219 -50.5t160 -144.5t60 -212q0 -181 -142 -340l-309 -351h414v-270h-873z" />
    <glyph glyph-name="three" unicode="3" horiz-adv-x="1130" 
d="M68 264l251 125q22 -48 82 -87t117 -42q73 -4 130 41.5t63 101.5q1 12 1.5 18.5t-1.5 28.5t-7 37t-18 35.5t-32.5 32.5t-51.5 20.5t-74 6.5h-141v245h141q38 0 65.5 14.5t40 31.5t18.5 42t6.5 35.5t0.5 21.5v1q0 24 -12 52t-44.5 52.5t-78.5 24.5q-96 0 -141 -74
l-231 141q61 97 172.5 151.5t244.5 47.5q173 -9 288 -120t110 -257q0 -80 -47.5 -149.5t-124.5 -112.5q108 -39 173 -146.5t56 -217.5q-11 -113 -86 -203.5t-192.5 -138.5t-249.5 -39q-140 9 -256 85.5t-172 194.5z" />
    <glyph glyph-name="four" unicode="4" horiz-adv-x="1232" 
d="M39 301l627 1040h303v-798h170v-242h-170v-301h-289v301h-641zM430 543h250v418z" />
    <glyph glyph-name="five" unicode="5" horiz-adv-x="1212" 
d="M88 250l242 156q40 -62 105 -101t128 -39q114 0 190 61.5t76 145.5q0 108 -68.5 163.5t-178.5 55.5q-47 0 -95.5 -11t-106.5 -46t-93 -90l-158 82l111 714h786v-262h-559l-35 -217q38 34 106.5 52t139.5 18q190 0 314 -121.5t124 -337.5q0 -217 -151.5 -355t-401.5 -138
q-138 0 -268 74.5t-207 195.5z" />
    <glyph glyph-name="six" unicode="6" horiz-adv-x="1200" 
d="M123 446q-7 82 -7 159.5t7 161t25 157.5t45 144t71 125t100 96t133 61.5t169 17.5q65 -2 119 -14.5t109.5 -40.5t102.5 -79.5t82 -125.5l-268 -115q-51 107 -156 107q-71 0 -122 -34.5t-77 -92.5t-37 -123t-9 -137q17 49 88 100t182 51q74 0 145 -28t132 -81.5t98 -142.5
t37 -200q0 -194 -134.5 -313t-353.5 -119q-193 0 -327.5 127.5t-153.5 338.5zM442 428q0 -72 52 -124t124 -52t124.5 52t52.5 124t-52.5 124t-124.5 52t-124 -52t-52 -124z" />
    <glyph glyph-name="seven" unicode="7" horiz-adv-x="1126" 
d="M88 1077v264h1012l-592 -1341h-326l473 1077h-567z" />
    <glyph glyph-name="eight" unicode="8" horiz-adv-x="1220" 
d="M100 430q0 108 52 197t141 141q-96 93 -96 225q0 155 121.5 265t291.5 110q171 0 293.5 -110t122.5 -265q0 -137 -98 -225q89 -52 140.5 -141.5t51.5 -196.5q0 -126 -68.5 -229.5t-185.5 -162t-256 -58.5t-256 58.5t-185.5 162t-68.5 229.5zM387 444q0 -83 66 -140.5
t157 -57.5t157.5 57.5t66.5 140.5q0 82 -59.5 141.5t-166.5 59.5q-103 0 -162 -59.5t-59 -141.5zM473 985q0 -55 35.5 -92t101.5 -37t102 37.5t36 91.5q0 52 -37.5 88.5t-100.5 36.5t-100 -36.5t-37 -88.5z" />
    <glyph glyph-name="nine" unicode="9" horiz-adv-x="1198" 
d="M106 936q0 194 134.5 313t353.5 119q193 0 327.5 -128t153.5 -339q7 -82 7 -159.5t-7 -161t-25 -157.5t-45 -143.5t-71 -124.5t-100 -96t-133 -61.5t-169 -17.5q-65 2 -119 14.5t-109.5 40.5t-102.5 79.5t-82 125.5l268 114q50 -106 156 -106q71 0 122 34.5t77 92.5
t37 123t9 137q-6 -18 -14.5 -34.5t-29.5 -39t-48.5 -39t-74 -28t-103.5 -11.5q-74 0 -145 28t-131.5 81.5t-98 143t-37.5 200.5zM403 920q0 -72 52.5 -124.5t124.5 -52.5t124 52.5t52 124.5t-52 124t-124 52t-124.5 -52t-52.5 -124z" />
    <glyph glyph-name="colon" unicode=":" horiz-adv-x="630" 
d="M139 152q0 73 51.5 121.5t124.5 48.5t125 -48.5t52 -121.5q0 -74 -52 -123t-125 -49t-124.5 49t-51.5 123zM139 805q0 74 51.5 123t124.5 49t125 -49t52 -123q0 -73 -52 -121.5t-125 -48.5t-124.5 48.5t-51.5 121.5z" />
    <glyph glyph-name="semicolon" unicode=";" horiz-adv-x="626" 
d="M20 -207q71 98 116 242t44 289h289q-1 -114 -27.5 -216t-69.5 -176t-83.5 -123t-83.5 -85zM156 805q0 74 51.5 123t124.5 49t124.5 -49t51.5 -123q0 -73 -51.5 -121.5t-124.5 -48.5t-124.5 48.5t-51.5 121.5z" />
    <glyph glyph-name="less" unicode="&#x3c;" horiz-adv-x="1277" 
d="M94 500v229l1028 393l2 -225l-741 -283l741 -282l-2 -226z" />
    <glyph glyph-name="equal" unicode="=" horiz-adv-x="1220" 
d="M139 305v201h942v-201h-942zM139 717v201h942v-201h-942z" />
    <glyph glyph-name="greater" unicode="&#x3e;" horiz-adv-x="1277" 
d="M154 332l741 282l-741 283l2 225l1028 -393v-229l-1028 -394z" />
    <glyph glyph-name="question" unicode="?" horiz-adv-x="1015" 
d="M78 999q0 195 119 311.5t313 116.5t313 -108t119 -291q0 -145 -75 -247t-199 -140q-61 -18 -84 -56.5t-23 -113.5l-4 -45h-278l-5 45q0 57 1 88t5 72.5t13 65t25 53t40 50t58.5 42t81.5 41.5l82 35q26 14 42 27t23 27.5t8.5 26t1.5 31.5q0 47 -41 79t-104 32
q-65 0 -105 -39t-40 -103h-287zM246 152q0 73 51.5 121.5t124.5 48.5t125.5 -49t52.5 -121q0 -74 -52.5 -123t-125.5 -49t-124.5 49t-51.5 123z" />
    <glyph glyph-name="at" unicode="@" horiz-adv-x="1974" 
d="M92 526q0 184 69 350.5t186.5 287.5t282 192t347.5 71q185 0 354.5 -66t295 -179.5t200 -275t74.5 -343.5q0 -77 -12.5 -156t-43 -160t-75 -143t-114.5 -101.5t-155 -39.5q-62 0 -114.5 17t-97 52t-70 98.5t-25.5 148.5v258q0 101 -69.5 170t-168.5 69
q-98 0 -167.5 -69.5t-69.5 -169.5q0 -97 70 -166.5t167 -69.5q92 0 162 51v-192q-92 -39 -162 -39q-174 0 -296.5 121.5t-122.5 294.5q0 176 122.5 297.5t296.5 121.5q171 0 291 -114q60 -54 94 -128t37 -157v-291q0 -66 36 -94.5t87 -28.5t90.5 29t62.5 73t37.5 103
t19.5 111t5 104q0 192 -101.5 349.5t-270.5 245t-367 87.5q-194 0 -356 -97t-254.5 -262t-92.5 -360q0 -146 54.5 -277t148 -225.5t224 -150t276.5 -55.5h67v-183h-67q-184 0 -348 69.5t-281.5 188.5t-186.5 284t-69 349z" />
    <glyph glyph-name="A" unicode="A" horiz-adv-x="1349" 
d="M-12 0l524 1411h326l522 -1411h-316l-124 334h-488l-125 -334h-319zM530 594h293l-149 491z" />
    <glyph glyph-name="B" unicode="B" horiz-adv-x="1304" 
d="M166 0v1411h565q191 0 304.5 -106t113.5 -287q0 -79 -46.5 -152.5t-146.5 -111.5q129 -33 198 -128.5t69 -193.5q0 -181 -123.5 -306.5t-327.5 -125.5h-606zM467 264h289q71 0 111 52.5t40 121.5q0 66 -41.5 117t-115.5 51h-283v-342zM467 854h235q58 0 95 41t37 104
q0 68 -34.5 108t-99.5 40h-233v-293z" />
    <glyph glyph-name="C" unicode="C" horiz-adv-x="1431" 
d="M84 702q0 198 92.5 364.5t255.5 263.5t361 97q185 0 339 -80.5t248 -218.5l-243 -167q-58 85 -148 134.5t-196 49.5q-175 0 -291.5 -128.5t-116.5 -314.5q0 -185 116.5 -312.5t291.5 -127.5q108 0 200.5 53t151.5 142l241 -168q-94 -143 -249.5 -226t-343.5 -83
q-148 0 -280 57.5t-226 154.5t-148.5 230t-54.5 280z" />
    <glyph glyph-name="D" unicode="D" horiz-adv-x="1447" 
d="M166 0v1411h553q198 0 344 -94t219.5 -253.5t73.5 -361.5q0 -201 -73.5 -358.5t-219.5 -250.5t-344 -93h-553zM465 272h254q108 0 186.5 60t115 155.5t36.5 214.5q0 120 -36.5 217t-115 158.5t-186.5 61.5h-254v-867z" />
    <glyph glyph-name="E" unicode="E" horiz-adv-x="1179" 
d="M166 0v1411h893v-264h-594v-322h520v-260h-520v-301h612v-264h-911z" />
    <glyph glyph-name="F" unicode="F" horiz-adv-x="1101" 
d="M166 0v1411h883v-264h-582v-322h461v-262h-461v-563h-301z" />
    <glyph glyph-name="G" unicode="G" horiz-adv-x="1548" 
d="M84 702q0 198 95.5 364.5t262 263.5t365.5 97q160 0 298 -61.5t232 -169.5l-221 -190q-127 143 -309 143q-117 0 -214 -60t-152.5 -163t-55.5 -224t55.5 -223.5t152.5 -163.5t214 -61q78 0 155 29t131.5 86.5t55.5 128.5h-379v243h725q0 -194 -50 -341t-142 -238
t-216.5 -136.5t-279.5 -45.5q-149 0 -283.5 57.5t-230.5 154.5t-152.5 230t-56.5 280z" />
    <glyph glyph-name="H" unicode="H" horiz-adv-x="1435" 
d="M166 0v1411h299v-575h502v575h303v-1411h-303v567h-502v-567h-299z" />
    <glyph glyph-name="I" unicode="I" horiz-adv-x="630" 
d="M166 0v1411h299v-1411h-299z" />
    <glyph glyph-name="J" unicode="J" horiz-adv-x="632" 
d="M-203 -449l27 271q68 -23 180 -23q83 0 122.5 54.5t39.5 140.5v1417h301v-1417q0 -80 -15.5 -149t-50.5 -130t-87.5 -104.5t-131.5 -68.5t-178 -25q-63 0 -207 34z" />
    <glyph glyph-name="K" unicode="K" horiz-adv-x="1247" 
d="M166 0v1411h303v-463l334 463h352l-534 -698l661 -713h-389l-424 479v-479h-303z" />
    <glyph glyph-name="L" unicode="L" horiz-adv-x="1046" 
d="M166 0v1411h301v-1147h528v-264h-829z" />
    <glyph glyph-name="M" unicode="M" horiz-adv-x="1869" 
d="M88 0l174 1411h248l426 -909l422 909h252l172 -1411h-301l-99 846l-329 -684h-232l-332 684l-100 -846h-301z" />
    <glyph glyph-name="N" unicode="N" horiz-adv-x="1390" 
d="M166 0v1411h274l484 -844v844h301v-1411h-269l-491 854v-854h-299z" />
    <glyph glyph-name="O" unicode="O" horiz-adv-x="1599" 
d="M84 702q0 198 95 364.5t259.5 263.5t360.5 97q197 0 362 -97t260 -263.5t95 -364.5q0 -196 -95 -362t-260 -263t-362 -97q-147 0 -279.5 57.5t-228 154.5t-151.5 230.5t-56 279.5zM383 702q0 -177 121 -301.5t295 -124.5q175 0 296.5 124.5t121.5 301.5t-122 302.5
t-296 125.5t-295 -125t-121 -303z" />
    <glyph glyph-name="P" unicode="P" horiz-adv-x="1257" 
d="M166 0v1411h579q116 0 207.5 -39.5t146.5 -106t83 -147.5t28 -170q0 -90 -28 -171t-83 -146.5t-146.5 -104.5t-207.5 -39h-278v-487h-301zM467 750h264q82 0 130 61t48 137q0 74 -45.5 136.5t-124.5 62.5h-272v-397z" />
    <glyph glyph-name="Q" unicode="Q" horiz-adv-x="1613" 
d="M84 702q0 198 95.5 364.5t262 263.5t365.5 97q200 0 367 -97t262.5 -263.5t95.5 -364.5q0 -178 -82.5 -333.5t-224.5 -257.5l135 -226l-211 -127l-152 246q-91 -24 -190 -24q-149 0 -283.5 57.5t-230.5 154.5t-152.5 230t-56.5 280zM385 702q0 -156 92.5 -273t239.5 -148
q51 -13 121 -13l-113 189l211 125l135 -220q75 60 117.5 148t42.5 192q0 185 -123.5 314t-300.5 129q-178 0 -300 -129t-122 -314z" />
    <glyph glyph-name="R" unicode="R" horiz-adv-x="1304" 
d="M166 0v1411h577q115 0 207 -39.5t148 -106t85 -147.5t29 -170q0 -161 -90 -286.5t-262 -161.5l350 -500h-360l-315 487h-68v-487h-301zM467 750h254q82 0 130 61t48 137q0 74 -45.5 136.5t-124.5 62.5h-262v-397z" />
    <glyph glyph-name="S" unicode="S" horiz-adv-x="1191" 
d="M90 414h301q3 -72 58.5 -121t152.5 -49q92 0 149 40.5t58 108.5q2 53 -34 92t-136 68l-170 47q-365 113 -365 406q0 186 140 303.5t346 117.5q209 0 343 -117t134 -315h-299q0 72 -47.5 116t-134.5 44q-79 0 -131 -39.5t-52 -101.5q0 -101 152 -144l168 -53
q396 -114 387 -426q-1 -102 -45.5 -183t-117 -130t-161 -75t-184.5 -26q-229 0 -370.5 122.5t-141.5 314.5z" />
    <glyph glyph-name="T" unicode="T" horiz-adv-x="1179" 
d="M57 1141v270h1065v-270h-381v-1141h-303v1141h-381z" />
    <glyph glyph-name="U" unicode="U" horiz-adv-x="1396" 
d="M152 504v907h305v-907q0 -106 72 -174t171 -68q98 0 171 68.5t73 173.5v907h301v-907q0 -155 -76.5 -276t-200 -184.5t-268.5 -63.5q-146 0 -270.5 63.5t-201 184.5t-76.5 276z" />
    <glyph glyph-name="V" unicode="V" horiz-adv-x="1191" 
d="M33 1411h311l252 -926l250 926h313l-430 -1411h-266z" />
    <glyph glyph-name="W" unicode="W" horiz-adv-x="1814" 
d="M-2 1411h324l274 -889q53 187 188 690h246l187 -690l276 889h326l-480 -1411h-235l-199 741l-194 -741h-238z" />
    <glyph glyph-name="X" unicode="X" horiz-adv-x="1347" 
d="M8 0l488 752l-445 659h361l262 -422l264 422h358l-444 -659l489 -752h-354l-313 512l-314 -512h-352z" />
    <glyph glyph-name="Y" unicode="Y" horiz-adv-x="1333" 
d="M-31 1411h357l340 -528l344 528h356l-547 -776v-635h-305v639z" />
    <glyph glyph-name="Z" unicode="Z" horiz-adv-x="1218" 
d="M86 0v227l645 920h-618v264h1007v-227l-651 -920h651v-264h-1034z" />
    <glyph glyph-name="bracketleft" unicode="[" horiz-adv-x="692" 
d="M150 -469v1880h473v-207h-232v-1462h232v-211h-473z" />
    <glyph glyph-name="backslash" unicode="\" horiz-adv-x="1024" 
d="M59 1411h228l678 -1411h-228z" />
    <glyph glyph-name="bracketright" unicode="]" horiz-adv-x="692" 
d="M70 -258h231v1462h-231v207h473v-1880h-473v211z" />
    <glyph glyph-name="underscore" unicode="_" horiz-adv-x="1521" 
d="M123 -66h1276v-204h-1276v204z" />
    <glyph glyph-name="grave" unicode="`" horiz-adv-x="1134" 
d="M264 1448h283l225 -344h-205z" />
    <glyph glyph-name="a" unicode="a" horiz-adv-x="1253" 
d="M74 479q0 111 41.5 206.5t110.5 158t156 98t179 35.5q39 0 83.5 -8.5t103 -39t92.5 -79.5v106h282v-956h-282v109q-41 -62 -125.5 -94.5t-153.5 -32.5q-124 0 -234 59t-181.5 174.5t-71.5 263.5zM369 479q0 -99 72.5 -163t166.5 -64q93 0 162.5 62.5t69.5 164.5
q0 103 -69.5 165.5t-162.5 62.5q-94 0 -166.5 -64.5t-72.5 -163.5z" />
    <glyph glyph-name="b" unicode="b" horiz-adv-x="1232" 
d="M131 0v1477h283v-637q34 64 111 100.5t169 36.5t176 -36t147.5 -99.5t101.5 -159t38 -207.5q0 -110 -38 -204t-101.5 -157t-147.5 -98.5t-176 -35.5q-91 0 -168 37t-112 102v-119h-283zM420 481q0 -101 65 -166t156 -65q93 0 157 64t64 167q0 101 -64 164.5t-157 63.5
q-92 0 -156.5 -62.5t-64.5 -165.5z" />
    <glyph glyph-name="c" unicode="c" horiz-adv-x="1075" 
d="M74 481q0 110 42.5 204t114.5 157.5t166 99t197 35.5q128 0 237.5 -53.5t178.5 -149.5l-232 -166q-29 45 -78.5 71t-105.5 26q-95 0 -166.5 -62.5t-71.5 -161.5t71.5 -164t166.5 -65q56 0 105.5 25.5t78.5 70.5l232 -164q-67 -97 -177 -150.5t-239 -53.5
q-138 0 -256 61.5t-191 177.5t-73 262z" />
    <glyph glyph-name="d" unicode="d" horiz-adv-x="1232" 
d="M76 475q0 112 38 207.5t101.5 159t147.5 99.5t176 36t169 -36.5t111 -100.5v637h283v-1477h-283v119q-35 -65 -112 -102t-168 -37q-92 0 -176 35.5t-147.5 98.5t-101.5 157t-38 204zM371 481q0 -103 64 -167t157 -64q91 0 156 65t65 166q0 103 -64.5 165.5t-156.5 62.5
q-93 0 -157 -63.5t-64 -164.5z" />
    <glyph glyph-name="e" unicode="e" horiz-adv-x="1126" 
d="M74 481q0 147 67.5 261t181 174.5t250.5 60.5q101 0 191 -37t156 -102t104.5 -159.5t38.5 -205.5q0 -38 -4 -88h-701q10 -77 80.5 -118.5t155.5 -41.5q62 0 118.5 23t90.5 67l207 -141q-67 -100 -185 -147t-252 -47q-137 0 -250.5 61.5t-181 177t-67.5 262.5zM362 563
h414q-10 81 -70.5 122.5t-130.5 41.5t-133 -40.5t-80 -123.5z" />
    <glyph glyph-name="f" unicode="f" horiz-adv-x="751" 
d="M47 731v225h180v66q0 219 113 337t319 118h105v-273h-105q-72 0 -108.5 -47.5t-36.5 -134.5v-66h193v-225h-193v-731h-287v731h-180z" />
    <glyph glyph-name="g" unicode="g" horiz-adv-x="1245" 
d="M74 475q0 112 40 207.5t106.5 159t152.5 99.5t178 36t172.5 -37.5t114.5 -101.5v118h276v-823q0 -304 -140.5 -457t-400.5 -153q-157 0 -283.5 81t-187.5 216q36 18 115 56.5t115 55.5q24 -65 95.5 -109t145.5 -44q286 0 265 340q-33 -64 -114 -101.5t-173 -37.5
q-124 0 -232 60t-176.5 175t-68.5 260zM371 481q0 -104 67.5 -168.5t161.5 -64.5q91 0 161 66t70 167q0 103 -68.5 164.5t-162.5 61.5t-161.5 -63.5t-67.5 -162.5z" />
    <glyph glyph-name="h" unicode="h" horiz-adv-x="1185" 
d="M131 0v1477h285v-670q18 56 66.5 96t100.5 57t101 17q187 0 285 -119t98 -338v-520h-285v510q0 88 -53 139t-123 51q-78 0 -134 -47t-56 -147v-506h-285z" />
    <glyph glyph-name="i" unicode="i" horiz-adv-x="544" 
d="M94 1311q0 70 52.5 118t125.5 48q72 0 123 -48t51 -118t-51 -119t-123 -49q-73 0 -125.5 49t-52.5 119zM131 0v956h283v-956h-283z" />
    <glyph glyph-name="j" unicode="j" horiz-adv-x="548" 
d="M-119 -223h125q37 0 63.5 13.5t39 37t18 48t4.5 52.5v1028h287v-1022q0 -201 -84.5 -308t-278.5 -107h-174v258zM96 1311q0 70 52.5 118t125.5 48q74 0 125.5 -48t51.5 -118t-51.5 -119t-125.5 -49q-73 0 -125.5 49t-52.5 119z" />
    <glyph glyph-name="k" unicode="k" horiz-adv-x="1077" 
d="M131 0v1477h283v-783l227 262h363l-398 -421l477 -535h-350l-319 379v-379h-283z" />
    <glyph glyph-name="l" unicode="l" horiz-adv-x="546" 
d="M131 0v1477h285v-1477h-285z" />
    <glyph glyph-name="m" unicode="m" horiz-adv-x="1748" 
d="M131 0v956h285v-139q33 73 102 115.5t148 42.5q227 0 307 -168q104 170 287 170q174 0 271 -110.5t97 -323.5v-543h-282v510q0 90 -45.5 140t-112.5 50q-73 0 -118.5 -47.5t-45.5 -146.5v-506h-285v516q-1 87 -46.5 135.5t-110.5 48.5q-72 0 -119 -46.5t-47 -147.5v-506
h-285z" />
    <glyph glyph-name="n" unicode="n" 
d="M131 0v956h285v-139q38 72 114.5 116t161.5 44q165 0 257.5 -103t92.5 -303v-571h-284v510q0 92 -45.5 141t-120.5 49q-176 0 -176 -194v-506h-285z" />
    <glyph glyph-name="o" unicode="o" horiz-adv-x="1140" 
d="M74 481q0 146 67.5 260.5t180 175t247.5 60.5t248 -60.5t181.5 -175t68.5 -260.5t-68.5 -261t-181.5 -175.5t-248 -60.5t-247.5 60.5t-180 175t-67.5 261.5zM354 481q0 -97 62.5 -158t152.5 -61q92 0 154.5 60.5t62.5 158.5q0 95 -63 156t-154 61q-90 0 -152.5 -61
t-62.5 -156z" />
    <glyph glyph-name="p" unicode="p" horiz-adv-x="1232" 
d="M131 -469v1425h283v-118q35 65 112 102t168 37q92 0 176 -35.5t147.5 -99t101.5 -157.5t38 -204q0 -112 -38 -207.5t-101.5 -159t-147.5 -99t-176 -35.5t-169 36.5t-111 100.5v-586h-283zM420 475q0 -103 64.5 -165t156.5 -62q93 0 157 63t64 164q0 103 -64 167.5
t-157 64.5q-91 0 -156 -65.5t-65 -166.5z" />
    <glyph glyph-name="q" unicode="q" horiz-adv-x="1232" 
d="M76 481q0 110 37.5 204t101 157.5t147.5 99t175 35.5q93 0 170 -37t110 -102v118h285v-1425h-285v586q-33 -64 -110 -100.5t-170 -36.5q-91 0 -174.5 35.5t-147.5 99t-101.5 159t-37.5 207.5zM371 475q0 -100 63.5 -163.5t155.5 -63.5t156.5 62t64.5 165q0 101 -65 166.5
t-156 65.5q-92 0 -155.5 -64.5t-63.5 -167.5z" />
    <glyph glyph-name="r" unicode="r" horiz-adv-x="866" 
d="M131 0v956h285v-231q34 124 111 188t159 64q96 0 164 -35l-51 -256q-59 29 -146 29q-122 0 -179.5 -95t-57.5 -286v-334h-285z" />
    <glyph glyph-name="s" unicode="s" horiz-adv-x="956" 
d="M74 309h266q2 -43 43 -76.5t98 -33.5q49 2 83 23.5t34 56.5q0 31 -21 49.5t-73 31.5l-125 33q-82 22 -140 55t-86 62.5t-43 70t-17 64.5t-1 60q2 107 113 189.5t260 82.5q59 0 113.5 -10.5t106 -34.5t89 -60t60.5 -90.5t24 -122.5h-268q-2 84 -109 84q-46 0 -73.5 -19.5
t-26.5 -51.5q4 -52 84 -72l162 -43q66 -18 115.5 -47.5t76 -59.5t43 -65t21 -59.5t4.5 -46.5q0 -73 -36 -132t-96 -94.5t-132.5 -54t-149.5 -18.5q-59 0 -116 13.5t-108 41t-90 66t-61.5 92.5t-23.5 116z" />
    <glyph glyph-name="t" unicode="t" horiz-adv-x="747" 
d="M47 731v225h174v367h283v-367h201v-225h-201v-731h-283v731h-174z" />
    <glyph glyph-name="u" unicode="u" 
d="M121 385v571h285v-510q0 -54 16.5 -93.5t43.5 -59t54 -28.5t55 -9q74 0 123.5 47t49.5 148v505h284v-956h-284v131q-37 -70 -106.5 -110.5t-141.5 -40.5q-169 0 -274 104t-105 301z" />
    <glyph glyph-name="v" unicode="v" horiz-adv-x="1064" 
d="M6 956h303l223 -594l222 594h305l-406 -956h-243z" />
    <glyph glyph-name="w" unicode="w" horiz-adv-x="1562" 
d="M16 956h303l170 -569l168 569h244l168 -569l170 569h303l-336 -956h-237l-189 608l-180 -608h-238z" />
    <glyph glyph-name="x" unicode="x" horiz-adv-x="1085" 
d="M8 0l377 518l-315 438h331l144 -211l141 211h330l-316 -438l375 -518h-330l-202 293l-205 -293h-330z" />
    <glyph glyph-name="y" unicode="y" horiz-adv-x="1044" 
d="M6 956h303l211 -542l213 542h303l-590 -1425h-301l230 567z" />
    <glyph glyph-name="z" unicode="z" horiz-adv-x="1044" 
d="M84 0v211l451 483h-422v262h833v-213l-459 -481h459v-262h-862z" />
    <glyph glyph-name="braceleft" unicode="{" horiz-adv-x="843" 
d="M63 385v172q48 0 86.5 32.5t38.5 86.5v325q-1 183 119 296.5t295 113.5h174v-207h-180q-70 0 -119 -51t-49 -125v-336q0 -87 -51 -146t-111 -75q60 -16 111 -75t51 -146v-313q0 -76 50 -133.5t118 -57.5h180v-215h-174q-175 0 -295 113.5t-119 296.5v325q0 54 -38.5 86.5
t-86.5 32.5z" />
    <glyph glyph-name="bar" unicode="|" horiz-adv-x="448" 
d="M150 -254v1896h149v-1896h-149z" />
    <glyph glyph-name="braceright" unicode="}" horiz-adv-x="843" 
d="M68 -254h180q68 0 118 57.5t50 133.5v313q0 87 51 146t111 75q-60 16 -111 75t-51 146v336q0 74 -49 125t-119 51h-180v207h174q175 0 294.5 -113.5t118.5 -296.5v-325q0 -54 38.5 -86.5t86.5 -32.5v-172q-48 0 -86.5 -32.5t-38.5 -86.5v-325q1 -183 -118.5 -296.5
t-294.5 -113.5h-174v215z" />
    <glyph glyph-name="exclamdown" unicode="&#xa1;" horiz-adv-x="546" 
d="M96 805q0 74 51.5 123t124.5 49t126 -49t53 -123q0 -72 -53 -121t-126 -49t-124.5 48.5t-51.5 121.5zM117 -469l41 999h233l41 -999h-315z" />
    <glyph glyph-name="cent" unicode="&#xa2;" horiz-adv-x="1101" 
d="M80 481q0 192 121 324t303 164v221h149v-215q111 -11 206.5 -63t156.5 -138l-232 -166q-29 45 -78.5 71t-105.5 26q-95 0 -166.5 -62.5t-71.5 -161.5t71.5 -164t166.5 -65q56 0 105.5 25.5t78.5 70.5l232 -164q-61 -87 -155.5 -139t-207.5 -63v-236h-149v242
q-181 32 -302.5 166t-121.5 327z" />
    <glyph glyph-name="sterling" unicode="&#xa3;" horiz-adv-x="1392" 
d="M84 0v254h217v317h-170v129h170v269q0 208 122 333t314 125q97 0 179.5 -28.5t147 -85t101.5 -148t37 -209.5h-297q0 168 -162 168q-71 0 -113 -42t-42 -113v-269h235v-129h-235v-317h377q27 0 44 21.5t17 52.5v59h281v-115q0 -116 -74.5 -194t-183.5 -78h-965z" />
    <glyph glyph-name="currency" unicode="&#xa4;" horiz-adv-x="1271" 
d="M129 330l145 147q-59 95 -59 217q0 121 61 219l-147 148l141 141l148 -147q101 61 217 61q121 0 219 -61l145 147l142 -141l-148 -150q64 -108 64 -217q0 -122 -62 -217l146 -147l-142 -142l-145 148q-100 -62 -219 -62t-219 62l-146 -148zM465 694q0 -70 49.5 -120
t120.5 -50q72 0 122 49.5t50 120.5q0 72 -50 122t-122 50q-71 0 -120.5 -50t-49.5 -122z" />
    <glyph glyph-name="yen" unicode="&#xa5;" horiz-adv-x="1519" 
d="M61 1411h357l340 -528l344 528h356l-526 -747h299v-140h-320v-190h320v-139h-320v-195h-305v195h-317v139h317v190h-317v140h299z" />
    <glyph glyph-name="brokenbar" unicode="&#xa6;" horiz-adv-x="452" 
d="M152 -254v786h149v-786h-149zM152 860v782h149v-782h-149z" />
    <glyph glyph-name="section" unicode="&#xa7;" horiz-adv-x="1107" 
d="M121 -4l239 72q23 -82 76 -120t115 -38q76 0 129 49t53 129v361q0 80 -52.5 128t-129.5 48h-12q-42 0 -90 -9v250q56 13 102 13q183 0 309.5 -119t126.5 -311v-361q0 -192 -126.5 -311t-309.5 -119q-96 0 -183 35t-156.5 114t-90.5 189zM121 635v360q0 192 126.5 311
t309.5 119q96 0 183 -35t156.5 -114t90.5 -189l-239 -71q-23 82 -76 120t-115 38q-76 0 -129 -49.5t-53 -129.5v-360q0 -80 52.5 -128t129.5 -48h12q47 0 90 8v-250q-52 -12 -102 -12q-183 0 -309.5 119t-126.5 311z" />
    <glyph glyph-name="dieresis" unicode="&#xa8;" horiz-adv-x="1148" 
d="M246 1307q0 58 43.5 98.5t105.5 40.5q60 0 103 -40.5t43 -98.5q0 -60 -43 -101t-103 -41q-62 0 -105.5 41t-43.5 101zM608 1307q0 58 44 98.5t106 40.5q60 0 102.5 -40.5t42.5 -98.5q0 -60 -42.5 -101t-102.5 -41q-62 0 -106 41t-44 101z" />
    <glyph glyph-name="copyright" unicode="&#xa9;" horiz-adv-x="1632" 
d="M100 702q0 147 56 281t151.5 231.5t228 155t279.5 57.5t280 -57.5t228.5 -155t152 -231.5t56.5 -281q0 -196 -95.5 -362.5t-260.5 -263t-361 -96.5q-147 0 -279.5 57t-228 154t-151.5 230.5t-56 280.5zM260 702q0 -152 73.5 -281t201.5 -204.5t280 -75.5t280 75.5
t201.5 204.5t73.5 281q0 114 -43.5 218t-117.5 180t-177 121t-217 45t-217 -45t-177 -121t-117.5 -180t-43.5 -218zM459 696q0 152 102 257.5t252 105.5q91 0 170 -43.5t129 -118.5l-135 -94q-73 94 -164 94q-79 0 -130.5 -57t-51.5 -144q0 -83 51.5 -139.5t130.5 -56.5
q96 0 166 94l137 -92q-50 -76 -131 -122t-172 -46q-149 0 -251.5 106.5t-102.5 255.5z" />
    <glyph glyph-name="ordfeminine" unicode="&#xaa;" horiz-adv-x="958" 
d="M94 1001q0 158 100 256.5t244 98.5q135 0 211 -103v88h156v-679h-156v92q-35 -49 -93.5 -78t-117.5 -29q-144 0 -244 98.5t-100 255.5zM158 434v109h645v-109h-645zM254 1004q0 -88 56 -144.5t139 -56.5t141.5 54.5t58.5 146.5q0 91 -60.5 143.5t-139.5 52.5
q-83 0 -139 -54t-56 -142z" />
    <glyph glyph-name="guillemotleft" unicode="&#xab;" horiz-adv-x="1034" 
d="M80 477l282 424h222l-283 -424l283 -424h-222zM442 477l283 424h221l-282 -424l282 -424h-221z" />
    <glyph glyph-name="logicalnot" unicode="&#xac;" horiz-adv-x="1286" 
d="M139 518v246h996v-551h-248v305h-748z" />
    <glyph glyph-name="registered" unicode="&#xae;" horiz-adv-x="1632" 
d="M100 702q0 147 56 281t151.5 231.5t228 155t279.5 57.5t280 -57.5t228.5 -155t152 -231.5t56.5 -281q0 -196 -95.5 -362.5t-260.5 -263t-361 -96.5q-147 0 -279.5 57t-228 154t-151.5 230.5t-56 280.5zM260 702q0 -152 73.5 -281t201.5 -204.5t280 -75.5t280 75.5
t201.5 204.5t73.5 281q0 114 -43.5 218t-117.5 180t-177 121t-217 45t-217 -45t-177 -121t-117.5 -180t-43.5 -218zM565 356v695h291q116 0 178 -69t62 -165q0 -79 -42 -141t-118 -88l172 -232h-207l-149 224h-15v-224h-172zM737 731h109q33 0 53.5 26.5t20.5 59.5
q0 27 -19.5 53.5t-48.5 26.5h-115v-166z" />
    <glyph glyph-name="macron" unicode="&#xaf;" horiz-adv-x="1060" 
d="M246 1202v174h569v-174h-569z" />
    <glyph glyph-name="degree" unicode="&#xb0;" horiz-adv-x="770" 
d="M90 1083q0 121 86.5 208t206.5 87q123 0 210 -86.5t87 -208.5q0 -123 -87 -210t-210 -87q-120 0 -206.5 87t-86.5 210zM238 1083q0 -63 42.5 -106t102.5 -43q63 0 106 43t43 106q0 62 -43 105t-106 43q-60 0 -102.5 -43.5t-42.5 -104.5z" />
    <glyph glyph-name="plusminus" unicode="&#xb1;" horiz-adv-x="1120" 
d="M139 -2v209h842v-209h-842zM139 598v209h316v289h209v-289h317v-209h-317v-293h-209v293h-316z" />
    <glyph glyph-name="uni00B2" unicode="&#xb2;" horiz-adv-x="649" 
d="M59 889v88l320 379q41 48 41 90q0 34 -26 56t-72 22q-44 0 -74.5 -30.5t-36.5 -78.5l-152 27q19 111 91 175t182 64q105 0 179.5 -66.5t74.5 -168.5q0 -105 -82 -197q-76 -85 -180 -205h241v-155h-506z" />
    <glyph glyph-name="uni00B3" unicode="&#xb3;" horiz-adv-x="649" 
d="M33 1042l143 72q17 -31 48.5 -51t68.5 -25q42 -3 75 23t38 59q0 42 -7 60q-22 50 -100 47h-82v141h82q78 0 78 86q0 26 -21.5 51t-58.5 25q-55 0 -84 -45l-131 82q34 56 99.5 87t142.5 27q100 -6 166 -69.5t63 -147.5q0 -97 -100 -153q63 -23 101 -85t32 -126
q-9 -100 -98.5 -164.5t-206.5 -56.5q-81 6 -148.5 50.5t-99.5 112.5z" />
    <glyph glyph-name="acute" unicode="&#xb4;" horiz-adv-x="1134" 
d="M264 1104l225 344h283l-303 -344h-205z" />
    <glyph glyph-name="uni00B5" unicode="&#xb5;" horiz-adv-x="1175" 
d="M147 -391v1347h285v-510q0 -54 17 -93.5t44 -59t54 -28.5t55 -9q74 0 123 47t49 148v505h285v-956h-285v131q-37 -70 -106.5 -110.5t-141.5 -40.5q-83 0 -147 55l29 -271v-155h-261z" />
    <glyph glyph-name="paragraph" unicode="&#xb6;" horiz-adv-x="1460" 
d="M68 967q0 185 129 314.5t315 129.5h190v-1440q0 -26 -11 -37.5t-38 -11.5h-161v600q-176 11 -300 139.5t-124 305.5zM489 -195h248q40 0 66 28t26 67v1511h279q118 0 199.5 -84t81.5 -197v-174h-191v156q0 40 -27.5 66t-66.5 26h-70v-1304q0 -107 -85.5 -194t-194.5 -87
h-265v186z" />
    <glyph glyph-name="periodcentered" unicode="&#xb7;" horiz-adv-x="575" 
d="M111 711q0 73 51.5 121.5t124.5 48.5t125.5 -49t52.5 -121q0 -74 -52.5 -123t-125.5 -49t-124.5 49t-51.5 123z" />
    <glyph glyph-name="cedilla" unicode="&#xb8;" horiz-adv-x="1087" 
d="M330 -193l157 -8q-4 -26 2 -53q9 -24 31.5 -34.5t48.5 -4.5q24 10 33 35t-2 51l-96 262h133l102 -190q21 -35 21 -101q0 -86 -65 -148t-154 -62q-61 0 -114.5 35.5t-80.5 97.5q-11 26 -14 48.5t-2 71.5z" />
    <glyph glyph-name="uni00B9" unicode="&#xb9;" horiz-adv-x="440" 
d="M43 1393v143l297 141v-788h-164v559z" />
    <glyph glyph-name="ordmasculine" unicode="&#xba;" horiz-adv-x="929" 
d="M102 1006q0 156 103 253t252 97t252.5 -97t103.5 -253q0 -159 -103.5 -259t-252.5 -100t-252 100t-103 259zM147 434v109h646v-109h-646zM258 1006q0 -90 57.5 -146.5t141.5 -56.5t141 56.5t57 146.5q0 87 -57 140.5t-141 53.5t-141.5 -53.5t-57.5 -140.5z" />
    <glyph glyph-name="guillemotright" unicode="&#xbb;" horiz-adv-x="1034" 
d="M88 53l283 424l-283 424h221l283 -424l-283 -424h-221zM451 53l282 424l-282 424h221l282 -424l-282 -424h-221z" />
    <glyph glyph-name="onequarter" unicode="&#xbc;" horiz-adv-x="1603" 
d="M80 1067v143l297 142v-789h-164v559zM190 -20l926 1388h168l-924 -1388h-170zM891 174l366 604h173v-465h98v-139h-98v-174h-166v174h-373zM1116 313h148v244z" />
    <glyph glyph-name="onehalf" unicode="&#xbd;" horiz-adv-x="1619" 
d="M80 1067v143l297 142v-789h-164v559zM178 -20l926 1388h168l-924 -1388h-170zM1010 0v88l319 379q41 48 41 90q0 34 -26 56t-72 22q-44 0 -74.5 -30.5t-36.5 -78.5l-151 27q19 111 91 175.5t181 64.5q105 0 179.5 -67t74.5 -169q0 -105 -82 -197q-102 -114 -180 -204h242
v-156h-506z" />
    <glyph glyph-name="threequarters" unicode="&#xbe;" horiz-adv-x="1699" 
d="M74 717l143 71q37 -65 117 -75q42 -3 74.5 23t37.5 59q0 44 -6 59q-22 50 -100 47h-82v141h82q78 0 78 86q0 26 -21.5 51t-58.5 25q-55 0 -84 -45l-131 82q34 56 99.5 87.5t142.5 27.5q100 -6 166 -69.5t63 -147.5q0 -48 -27 -88t-73 -66q63 -23 101 -85t32 -126
q-9 -100 -98.5 -164.5t-206.5 -56.5q-81 6 -148 51t-100 113zM322 -20l925 1388h168l-923 -1388h-170zM985 174l367 604h172v-465h98v-139h-98v-174h-166v174h-373zM1210 313h148v244z" />
    <glyph glyph-name="questiondown" unicode="&#xbf;" horiz-adv-x="997" 
d="M66 -72q0 145 75 247t199 140q61 18 83.5 56.5t22.5 113.5l5 45h278l4 -45q0 -50 -0.5 -77.5t-3.5 -65.5t-9 -59t-16.5 -49.5t-26.5 -46.5t-39.5 -39.5t-55 -38.5t-72.5 -35l-82 -35q-50 -27 -63 -50.5t-13 -62.5q0 -46 41 -78t105 -32q65 0 105 38.5t40 102.5h287
q0 -195 -119 -311.5t-313 -116.5t-313 108t-119 291zM408 805q0 74 52.5 123t125.5 49t124.5 -49t51.5 -123q0 -73 -51.5 -121.5t-124.5 -48.5t-125.5 49t-52.5 121z" />
    <glyph glyph-name="Agrave" unicode="&#xc0;" horiz-adv-x="1349" 
d="M-12 0l524 1411h326l522 -1411h-316l-124 334h-488l-125 -334h-319zM317 1903h283l225 -344h-204zM530 594h293l-149 491z" />
    <glyph glyph-name="Aacute" unicode="&#xc1;" horiz-adv-x="1349" 
d="M-12 0l524 1411h326l522 -1411h-316l-124 334h-488l-125 -334h-319zM530 594h293l-149 491zM535 1559l225 344h282l-303 -344h-204z" />
    <glyph glyph-name="Acircumflex" unicode="&#xc2;" horiz-adv-x="1349" 
d="M-12 0l524 1411h326l522 -1411h-316l-124 334h-488l-125 -334h-319zM307 1567l223 344h283l225 -344h-204l-162 182l-160 -182h-205zM530 594h293l-149 491z" />
    <glyph glyph-name="Atilde" unicode="&#xc3;" horiz-adv-x="1349" 
d="M-12 0l524 1411h326l522 -1411h-316l-124 334h-488l-125 -334h-319zM377 1608q7 137 68.5 201.5t138.5 64.5q37 0 71 -21t61 -42t46 -21q16 0 34 20.5t19 63.5h154q-3 -72 -24 -125.5t-52.5 -81.5t-64.5 -41.5t-66 -13.5q-34 0 -68.5 21t-62.5 42t-47 21q-15 0 -34 -22.5
t-20 -65.5h-153zM530 594h293l-149 491z" />
    <glyph glyph-name="Adieresis" unicode="&#xc4;" horiz-adv-x="1349" 
d="M-12 0l524 1411h326l522 -1411h-316l-124 334h-488l-125 -334h-319zM319 1761q0 58 44 99t106 41q60 0 102.5 -41t42.5 -99q0 -60 -42.5 -100.5t-102.5 -40.5q-62 0 -106 41t-44 100zM530 594h293l-149 491zM682 1761q0 58 43.5 99t105.5 41q60 0 103 -41t43 -99
q0 -60 -43 -100.5t-103 -40.5q-62 0 -105.5 40.5t-43.5 100.5z" />
    <glyph glyph-name="Aring" unicode="&#xc5;" horiz-adv-x="1349" 
d="M-12 0l524 1411h326l522 -1411h-316l-124 334h-488l-125 -334h-319zM426 1804q0 106 71.5 179t174.5 73q104 0 177 -73t73 -179q0 -103 -73 -174t-177 -71q-103 0 -174.5 71t-71.5 174zM530 594h293l-149 491zM559 1804q0 -47 33 -79.5t80 -32.5q49 0 82.5 32.5
t33.5 79.5q0 51 -33 85t-83 34q-48 0 -80.5 -34t-32.5 -85z" />
    <glyph glyph-name="AE" unicode="&#xc6;" horiz-adv-x="1912" 
d="M-43 0l891 1411h944v-264h-594v-322h520v-260h-520v-301h612v-264h-911v2l-2 -2v324h-377l-205 -324h-358zM690 612h207v398z" />
    <glyph glyph-name="Ccedilla" unicode="&#xc7;" horiz-adv-x="1435" 
d="M86 702q0 198 92.5 364.5t255.5 263.5t361 97q185 0 339 -80.5t248 -218.5l-243 -167q-58 85 -148 134.5t-196 49.5q-175 0 -291.5 -128.5t-116.5 -314.5q0 -185 116.5 -312.5t291.5 -127.5q108 0 200.5 53t151.5 142l242 -168q-86 -130 -222.5 -211t-302.5 -94l64 -119
q20 -39 20 -101q0 -86 -65 -148t-154 -62q-61 0 -114 35.5t-80 97.5q-11 27 -14.5 49.5t-2.5 70.5l158 -8q-4 -26 2 -53q9 -24 31.5 -34.5t48.5 -4.5q24 10 32.5 35t-2.5 51l-69 191q-181 18 -326 118t-226 258t-81 342z" />
    <glyph glyph-name="Egrave" unicode="&#xc8;" horiz-adv-x="1179" 
d="M166 0v1411h893v-264h-594v-322h520v-260h-520v-301h612v-264h-911zM274 1903h283l225 -344h-204z" />
    <glyph glyph-name="Eacute" unicode="&#xc9;" horiz-adv-x="1179" 
d="M166 0v1411h893v-264h-594v-322h520v-260h-520v-301h612v-264h-911zM436 1559l226 344h282l-303 -344h-205z" />
    <glyph glyph-name="Ecircumflex" unicode="&#xca;" horiz-adv-x="1179" 
d="M166 0v1411h893v-264h-594v-322h520v-260h-520v-301h612v-264h-911zM215 1567l223 344h283l225 -344h-205l-161 182l-160 -182h-205z" />
    <glyph glyph-name="Edieresis" unicode="&#xcb;" horiz-adv-x="1179" 
d="M166 0v1411h893v-264h-594v-322h520v-260h-520v-301h612v-264h-911zM252 1761q0 58 43.5 99t105.5 41q60 0 103 -41t43 -99q0 -60 -43 -100.5t-103 -40.5q-62 0 -105.5 40.5t-43.5 100.5zM614 1761q0 58 44 99t106 41q60 0 102.5 -41t42.5 -99q0 -60 -42.5 -100.5
t-102.5 -40.5q-62 0 -106 41t-44 100z" />
    <glyph glyph-name="Igrave" unicode="&#xcc;" horiz-adv-x="630" 
d="M-45 1903h283l225 -344h-205zM166 0v1411h299v-1411h-299z" />
    <glyph glyph-name="Iacute" unicode="&#xcd;" horiz-adv-x="630" 
d="M164 1559l225 344h283l-303 -344h-205zM166 0v1411h299v-1411h-299z" />
    <glyph glyph-name="Icircumflex" unicode="&#xce;" horiz-adv-x="630" 
d="M-49 1567l223 344h283l225 -344h-205l-162 182l-159 -182h-205zM166 0v1411h299v-1411h-299z" />
    <glyph glyph-name="Idieresis" unicode="&#xcf;" horiz-adv-x="630" 
d="M-12 1761q0 58 43.5 99t105.5 41q60 0 103 -41t43 -99q0 -60 -43 -100.5t-103 -40.5q-62 0 -105.5 40.5t-43.5 100.5zM166 0v1411h299v-1411h-299zM350 1761q0 58 44 99t106 41q60 0 102.5 -41t42.5 -99q0 -60 -42.5 -100.5t-102.5 -40.5q-62 0 -106 41t-44 100z" />
    <glyph glyph-name="Eth" unicode="&#xd0;" horiz-adv-x="1478" 
d="M4 582v200h193v629h553q149 0 270 -54.5t200.5 -150t122.5 -224.5t43 -280q0 -201 -73 -358.5t-219 -250.5t-344 -93h-553v582h-193zM496 272h254q108 0 186 60t114.5 155.5t36.5 214.5q0 120 -36.5 217t-114.5 158.5t-186 61.5h-254v-357h252v-200h-252v-310z" />
    <glyph glyph-name="Ntilde" unicode="&#xd1;" horiz-adv-x="1390" 
d="M166 0v1411h274l484 -844v844h301v-1411h-269l-491 854v-854h-299zM399 1608q7 137 68.5 201.5t138.5 64.5q37 0 71 -21t61 -42t46 -21q16 0 34.5 20.5t19.5 63.5h153q-3 -72 -24 -125.5t-52.5 -81.5t-64.5 -41.5t-66 -13.5q-34 0 -68.5 21t-62.5 42t-47 21
q-15 0 -33.5 -22.5t-19.5 -65.5h-154z" />
    <glyph glyph-name="Ograve" unicode="&#xd2;" horiz-adv-x="1599" 
d="M84 702q0 198 95 364.5t259.5 263.5t360.5 97q197 0 362 -97t260 -263.5t95 -364.5q0 -196 -95 -362t-260 -263t-362 -97q-147 0 -279.5 57.5t-228 154.5t-151.5 230.5t-56 279.5zM383 702q0 -177 121 -301.5t295 -124.5q175 0 296.5 124.5t121.5 301.5t-122 302.5
t-296 125.5t-295 -125t-121 -303zM436 1903h283l225 -344h-205z" />
    <glyph glyph-name="Oacute" unicode="&#xd3;" horiz-adv-x="1599" 
d="M84 702q0 198 95 364.5t259.5 263.5t360.5 97q197 0 362 -97t260 -263.5t95 -364.5q0 -196 -95 -362t-260 -263t-362 -97q-147 0 -279.5 57.5t-228 154.5t-151.5 230.5t-56 279.5zM383 702q0 -177 121 -301.5t295 -124.5q175 0 296.5 124.5t121.5 301.5t-122 302.5
t-296 125.5t-295 -125t-121 -303zM666 1559l225 344h283l-304 -344h-204z" />
    <glyph glyph-name="Ocircumflex" unicode="&#xd4;" horiz-adv-x="1599" 
d="M84 702q0 198 95 364.5t259.5 263.5t360.5 97q197 0 362 -97t260 -263.5t95 -364.5q0 -196 -95 -362t-260 -263t-362 -97q-147 0 -279.5 57.5t-228 154.5t-151.5 230.5t-56 279.5zM383 702q0 -177 121 -301.5t295 -124.5q175 0 296.5 124.5t121.5 301.5t-122 302.5
t-296 125.5t-295 -125t-121 -303zM434 1567l223 344h283l225 -344h-204l-162 182l-160 -182h-205z" />
    <glyph glyph-name="Otilde" unicode="&#xd5;" horiz-adv-x="1599" 
d="M84 702q0 198 95 364.5t259.5 263.5t360.5 97q197 0 362 -97t260 -263.5t95 -364.5q0 -196 -95 -362t-260 -263t-362 -97q-147 0 -279.5 57.5t-228 154.5t-151.5 230.5t-56 279.5zM383 702q0 -177 121 -301.5t295 -124.5q175 0 296.5 124.5t121.5 301.5t-122 302.5
t-296 125.5t-295 -125t-121 -303zM504 1608q7 137 68.5 201.5t138.5 64.5q37 0 71 -21t61 -42t46 -21q16 0 34 20.5t19 63.5h154q-3 -72 -24 -125.5t-52.5 -81.5t-64.5 -41.5t-66 -13.5q-34 0 -68.5 21t-62.5 42t-47 21q-15 0 -34 -22.5t-20 -65.5h-153z" />
    <glyph glyph-name="Odieresis" unicode="&#xd6;" horiz-adv-x="1599" 
d="M84 702q0 198 95 364.5t259.5 263.5t360.5 97q197 0 362 -97t260 -263.5t95 -364.5q0 -196 -95 -362t-260 -263t-362 -97q-147 0 -279.5 57.5t-228 154.5t-151.5 230.5t-56 279.5zM383 702q0 -177 121 -301.5t295 -124.5q175 0 296.5 124.5t121.5 301.5t-122 302.5
t-296 125.5t-295 -125t-121 -303zM471 1761q0 58 44 99t106 41q60 0 102.5 -41t42.5 -99q0 -60 -42.5 -100.5t-102.5 -40.5q-62 0 -106 41t-44 100zM834 1761q0 58 43.5 99t105.5 41q60 0 102.5 -41t42.5 -99q0 -60 -42.5 -100.5t-102.5 -40.5q-62 0 -105.5 40.5
t-43.5 100.5z" />
    <glyph glyph-name="multiply" unicode="&#xd7;" horiz-adv-x="1005" 
d="M115 768l147 147l238 -237l239 240l148 -148l-240 -240l240 -237l-148 -150l-239 240l-236 -233l-147 147l235 233z" />
    <glyph glyph-name="Oslash" unicode="&#xd8;" horiz-adv-x="1595" 
d="M82 702q0 198 95 364.5t259.5 263.5t360.5 97q261 0 456 -165l162 165l96 -94l-163 -168q165 -202 165 -463q0 -147 -56 -280t-151 -230t-228 -154.5t-281 -57.5q-253 0 -447 157l-2 -2l-164 -168l-96 96l164 168q-170 204 -170 471zM381 702q0 -143 80 -256l583 601
q-106 83 -247 83q-174 0 -295 -125t-121 -303zM557 352q105 -76 240 -76q174 0 295.5 124.5t121.5 301.5q0 136 -77 246z" />
    <glyph glyph-name="Ugrave" unicode="&#xd9;" horiz-adv-x="1396" 
d="M152 504v907h305v-907q0 -106 72 -174t171 -68q98 0 171 68.5t73 173.5v907h301v-907q0 -155 -76.5 -276t-200 -184.5t-268.5 -63.5q-146 0 -270.5 63.5t-201 184.5t-76.5 276zM352 1903h283l225 -344h-205z" />
    <glyph glyph-name="Uacute" unicode="&#xda;" horiz-adv-x="1396" 
d="M152 504v907h305v-907q0 -106 72 -174t171 -68q98 0 171 68.5t73 173.5v907h301v-907q0 -155 -76.5 -276t-200 -184.5t-268.5 -63.5q-146 0 -270.5 63.5t-201 184.5t-76.5 276zM535 1559l225 344h282l-303 -344h-204z" />
    <glyph glyph-name="Ucircumflex" unicode="&#xdb;" horiz-adv-x="1396" 
d="M152 504v907h305v-907q0 -106 72 -174t171 -68q98 0 171 68.5t73 173.5v907h301v-907q0 -155 -76.5 -276t-200 -184.5t-268.5 -63.5q-146 0 -270.5 63.5t-201 184.5t-76.5 276zM332 1567l223 344h283l225 -344h-205l-162 182l-159 -182h-205z" />
    <glyph glyph-name="Udieresis" unicode="&#xdc;" horiz-adv-x="1396" 
d="M152 504v907h305v-907q0 -106 72 -174t171 -68q98 0 171 68.5t73 173.5v907h301v-907q0 -155 -76.5 -276t-200 -184.5t-268.5 -63.5q-146 0 -270.5 63.5t-201 184.5t-76.5 276zM369 1761q0 58 43.5 99t105.5 41q60 0 103 -41t43 -99q0 -60 -43 -100.5t-103 -40.5
q-62 0 -105.5 40.5t-43.5 100.5zM731 1761q0 58 44 99t106 41q60 0 102.5 -41t42.5 -99q0 -60 -42.5 -100.5t-102.5 -40.5q-62 0 -106 41t-44 100z" />
    <glyph glyph-name="Yacute" unicode="&#xdd;" horiz-adv-x="1333" 
d="M-31 1411h357l340 -528l344 528h356l-547 -776v-635h-305v639zM512 1559l225 344h283l-303 -344h-205z" />
    <glyph glyph-name="Thorn" unicode="&#xde;" horiz-adv-x="1171" 
d="M166 0v1411h299v-229h199q195 0 325.5 -126.5t130.5 -332.5q0 -207 -131 -336t-325 -129h-199v-258h-299zM465 512h184q70 0 122 56t52 147q0 96 -52 154.5t-122 58.5h-184v-416z" />
    <glyph glyph-name="germandbls" unicode="&#xdf;" horiz-adv-x="1159" 
d="M131 0v1004q0 197 116 310t298 113q191 0 309.5 -99t118.5 -241q0 -90 -30.5 -150t-98.5 -103q108 -53 173.5 -151.5t65.5 -236.5q0 -133 -48.5 -236.5t-154 -166.5t-255.5 -63q-77 0 -152 22l55 268q49 -8 97 -8q85 0 137.5 62t52.5 143q0 23 -5.5 48t-20 53.5
t-36.5 50.5t-59 36.5t-84 14.5h-55v248h35q52 0 79 35.5t27 90.5q0 56 -39 88.5t-106 32.5q-56 0 -96.5 -37.5t-40.5 -101.5v-1026h-283z" />
    <glyph glyph-name="agrave" unicode="&#xe0;" horiz-adv-x="1253" 
d="M74 479q0 111 41.5 206.5t110.5 158t156 98t179 35.5q39 0 83.5 -8.5t103 -39t92.5 -79.5v106h282v-956h-282v109q-41 -62 -125.5 -94.5t-153.5 -32.5q-124 0 -234 59t-181.5 174.5t-71.5 263.5zM276 1448h283l225 -344h-204zM369 479q0 -99 72.5 -163t166.5 -64
q93 0 162.5 62.5t69.5 164.5q0 103 -69.5 165.5t-162.5 62.5q-94 0 -166.5 -64.5t-72.5 -163.5z" />
    <glyph glyph-name="aacute" unicode="&#xe1;" horiz-adv-x="1253" 
d="M74 479q0 111 41.5 206.5t110.5 158t156 98t179 35.5q39 0 83.5 -8.5t103 -39t92.5 -79.5v106h282v-956h-282v109q-41 -62 -125.5 -94.5t-153.5 -32.5q-124 0 -234 59t-181.5 174.5t-71.5 263.5zM369 479q0 -99 72.5 -163t166.5 -64q93 0 162.5 62.5t69.5 164.5
q0 103 -69.5 165.5t-162.5 62.5q-94 0 -166.5 -64.5t-72.5 -163.5zM432 1104l225 344h283l-303 -344h-205z" />
    <glyph glyph-name="acircumflex" unicode="&#xe2;" horiz-adv-x="1253" 
d="M74 479q0 111 41.5 206.5t110.5 158t156 98t179 35.5q39 0 83.5 -8.5t103 -39t92.5 -79.5v106h282v-956h-282v109q-41 -62 -125.5 -94.5t-153.5 -32.5q-124 0 -234 59t-181.5 174.5t-71.5 263.5zM262 1112l223 344h283l225 -344h-205l-161 182l-160 -182h-205zM369 479
q0 -99 72.5 -163t166.5 -64q93 0 162.5 62.5t69.5 164.5q0 103 -69.5 165.5t-162.5 62.5q-94 0 -166.5 -64.5t-72.5 -163.5z" />
    <glyph glyph-name="atilde" unicode="&#xe3;" horiz-adv-x="1253" 
d="M74 479q0 111 41.5 206.5t110.5 158t156 98t179 35.5q39 0 83.5 -8.5t103 -39t92.5 -79.5v106h282v-956h-282v109q-41 -62 -125.5 -94.5t-153.5 -32.5q-124 0 -234 59t-181.5 174.5t-71.5 263.5zM332 1153q7 137 68.5 201.5t138.5 64.5q37 0 71 -21t61 -42t46 -21
q16 0 34 20.5t19 63.5h154q-3 -72 -24 -125.5t-52.5 -81.5t-64.5 -41.5t-66 -13.5q-34 0 -68.5 21t-62.5 42t-47 21q-15 0 -34 -22.5t-20 -65.5h-153zM369 479q0 -99 72.5 -163t166.5 -64q93 0 162.5 62.5t69.5 164.5q0 103 -69.5 165.5t-162.5 62.5q-94 0 -166.5 -64.5
t-72.5 -163.5z" />
    <glyph glyph-name="adieresis" unicode="&#xe4;" horiz-adv-x="1253" 
d="M74 479q0 111 41.5 206.5t110.5 158t156 98t179 35.5q39 0 83.5 -8.5t103 -39t92.5 -79.5v106h282v-956h-282v109q-41 -62 -125.5 -94.5t-153.5 -32.5q-124 0 -234 59t-181.5 174.5t-71.5 263.5zM299 1307q0 58 44 98.5t106 40.5q60 0 102.5 -40.5t42.5 -98.5
q0 -60 -42.5 -101t-102.5 -41q-62 0 -106 41t-44 101zM369 479q0 -99 72.5 -163t166.5 -64q93 0 162.5 62.5t69.5 164.5q0 103 -69.5 165.5t-162.5 62.5q-94 0 -166.5 -64.5t-72.5 -163.5zM662 1307q0 58 43.5 98.5t105.5 40.5q60 0 102.5 -40.5t42.5 -98.5
q0 -60 -42.5 -101t-102.5 -41q-62 0 -105.5 41t-43.5 101z" />
    <glyph glyph-name="aring" unicode="&#xe5;" horiz-adv-x="1253" 
d="M74 479q0 111 41.5 206.5t110.5 158t156 98t179 35.5q39 0 83.5 -8.5t103 -39t92.5 -79.5v106h282v-956h-282v109q-41 -62 -125.5 -94.5t-153.5 -32.5q-124 0 -234 59t-181.5 174.5t-71.5 263.5zM369 479q0 -99 72.5 -163t166.5 -64q93 0 162.5 62.5t69.5 164.5
q0 103 -69.5 165.5t-162.5 62.5q-94 0 -166.5 -64.5t-72.5 -163.5zM381 1350q0 106 71.5 179t174.5 73q104 0 177 -73t73 -179q0 -103 -73 -174.5t-177 -71.5q-103 0 -174.5 71.5t-71.5 174.5zM514 1350q0 -47 33 -80t80 -33q49 0 82.5 33t33.5 80q0 51 -33 84.5t-83 33.5
q-48 0 -80.5 -33.5t-32.5 -84.5z" />
    <glyph glyph-name="ae" unicode="&#xe6;" horiz-adv-x="1986" 
d="M74 479q0 111 41.5 206.5t110.5 158t156 98t179 35.5q39 0 83.5 -8.5t103 -39t92.5 -79.5v106h282v-79q137 100 312 100q101 0 191 -37t155.5 -102t104 -159.5t38.5 -205.5q0 -38 -4 -88h-700q10 -77 80.5 -118.5t154.5 -41.5q62 0 118.5 23t90.5 67l207 -141
q-67 -100 -184.5 -147t-251.5 -47q-179 0 -312 102v-82h-282v109q-41 -62 -125.5 -94.5t-153.5 -32.5q-124 0 -234 59t-181.5 174.5t-71.5 263.5zM369 479q0 -99 72.5 -163t166.5 -64q93 0 162.5 62.5t69.5 164.5q0 103 -69.5 165.5t-162.5 62.5q-94 0 -166.5 -64.5
t-72.5 -163.5zM1223 563h413q-10 81 -70.5 122.5t-129.5 41.5q-70 0 -133 -40.5t-80 -123.5z" />
    <glyph glyph-name="ccedilla" unicode="&#xe7;" horiz-adv-x="1075" 
d="M74 481q0 110 42.5 204t114.5 157.5t166 99t197 35.5q128 0 237.5 -53.5t178.5 -149.5l-232 -166q-29 45 -78.5 71t-105.5 26q-95 0 -166.5 -62.5t-71.5 -161.5t71.5 -164t166.5 -65q56 0 105.5 25.5t78.5 70.5l232 -164q-60 -85 -151 -136.5t-200 -63.5l64 -119
q20 -37 20 -101q0 -86 -65 -148t-154 -62q-61 0 -114 35.5t-80 97.5q-11 27 -14.5 49.5t-2.5 70.5l158 -8q-4 -26 2 -53q9 -24 31.5 -34.5t48.5 -4.5q24 10 32.5 35t-1.5 51l-72 193q-121 18 -219.5 82.5t-158.5 172.5t-60 240z" />
    <glyph glyph-name="egrave" unicode="&#xe8;" horiz-adv-x="1126" 
d="M74 481q0 147 67.5 261t181 174.5t250.5 60.5q101 0 191 -37t156 -102t104.5 -159.5t38.5 -205.5q0 -38 -4 -88h-701q10 -77 80.5 -118.5t155.5 -41.5q62 0 118.5 23t90.5 67l207 -141q-67 -100 -185 -147t-252 -47q-137 0 -250.5 61.5t-181 177t-67.5 262.5zM205 1448
h282l226 -344h-205zM362 563h414q-10 81 -70.5 122.5t-130.5 41.5t-133 -40.5t-80 -123.5z" />
    <glyph glyph-name="eacute" unicode="&#xe9;" horiz-adv-x="1126" 
d="M74 481q0 147 67.5 261t181 174.5t250.5 60.5q101 0 191 -37t156 -102t104.5 -159.5t38.5 -205.5q0 -38 -4 -88h-701q10 -77 80.5 -118.5t155.5 -41.5q62 0 118.5 23t90.5 67l207 -141q-67 -100 -185 -147t-252 -47q-137 0 -250.5 61.5t-181 177t-67.5 262.5zM362 563
h414q-10 81 -70.5 122.5t-130.5 41.5t-133 -40.5t-80 -123.5zM436 1104l226 344h282l-303 -344h-205z" />
    <glyph glyph-name="ecircumflex" unicode="&#xea;" horiz-adv-x="1126" 
d="M74 481q0 147 67.5 261t181 174.5t250.5 60.5q101 0 191 -37t156 -102t104.5 -159.5t38.5 -205.5q0 -38 -4 -88h-701q10 -77 80.5 -118.5t155.5 -41.5q62 0 118.5 23t90.5 67l207 -141q-67 -100 -185 -147t-252 -47q-137 0 -250.5 61.5t-181 177t-67.5 262.5zM203 1112
l223 344h283l225 -344h-205l-162 182l-159 -182h-205zM362 563h414q-10 81 -70.5 122.5t-130.5 41.5t-133 -40.5t-80 -123.5z" />
    <glyph glyph-name="edieresis" unicode="&#xeb;" horiz-adv-x="1126" 
d="M74 481q0 147 67.5 261t181 174.5t250.5 60.5q101 0 191 -37t156 -102t104.5 -159.5t38.5 -205.5q0 -38 -4 -88h-701q10 -77 80.5 -118.5t155.5 -41.5q62 0 118.5 23t90.5 67l207 -141q-67 -100 -185 -147t-252 -47q-137 0 -250.5 61.5t-181 177t-67.5 262.5zM240 1307
q0 58 43.5 98.5t105.5 40.5q60 0 103 -40.5t43 -98.5q0 -60 -43 -101t-103 -41q-62 0 -105.5 41t-43.5 101zM362 563h414q-10 81 -70.5 122.5t-130.5 41.5t-133 -40.5t-80 -123.5zM602 1307q0 58 44 98.5t106 40.5q60 0 102.5 -40.5t42.5 -98.5q0 -60 -42.5 -101t-102.5 -41
q-62 0 -106 41t-44 101z" />
    <glyph glyph-name="igrave" unicode="&#xec;" horiz-adv-x="542" 
d="M-92 1448h282l226 -344h-205zM131 0v956h281v-956h-281z" />
    <glyph glyph-name="iacute" unicode="&#xed;" horiz-adv-x="542" 
d="M131 0v956h281v-956h-281zM131 1104l225 344h283l-303 -344h-205z" />
    <glyph glyph-name="icircumflex" unicode="&#xee;" horiz-adv-x="542" 
d="M-94 1112l223 344h283l225 -344h-205l-162 182l-159 -182h-205zM131 0v956h281v-956h-281z" />
    <glyph glyph-name="idieresis" unicode="&#xef;" horiz-adv-x="542" 
d="M-61 1307q0 58 43.5 98.5t105.5 40.5q60 0 102.5 -40.5t42.5 -98.5q0 -60 -42.5 -101t-102.5 -41q-62 0 -105.5 41t-43.5 101zM131 0v956h281v-956h-281zM301 1307q0 58 44 98.5t106 40.5q60 0 102.5 -40.5t42.5 -98.5q0 -60 -42.5 -101t-102.5 -41q-62 0 -106 41
t-44 101z" />
    <glyph glyph-name="eth" unicode="&#xf0;" horiz-adv-x="1144" 
d="M76 481q0 145 69 258t184.5 169.5t252.5 47.5l-119 150l-174 -80l-60 100l166 74l-151 211h272l86 -119l176 80l72 -92l-180 -82l305 -420q94 -127 94 -297q0 -146 -68.5 -261t-181.5 -175.5t-248 -60.5t-247.5 60.5t-180 175t-67.5 261.5zM356 481q0 -97 62.5 -158
t152.5 -61q92 0 154.5 60.5t62.5 158.5q0 95 -63 154t-154 59q-90 0 -152.5 -59t-62.5 -154z" />
    <glyph glyph-name="ntilde" unicode="&#xf1;" 
d="M131 0v956h285v-139q38 72 114.5 116t161.5 44q165 0 257.5 -103t92.5 -303v-571h-284v510q0 92 -45.5 141t-120.5 49q-176 0 -176 -194v-506h-285zM285 1153q7 137 68.5 201.5t138.5 64.5q37 0 71 -21t61 -42t46 -21q16 0 34 20.5t19 63.5h154q-3 -72 -24 -125.5
t-52.5 -81.5t-64.5 -41.5t-66 -13.5q-34 0 -68.5 21t-62.5 42t-47 21q-15 0 -34 -22.5t-20 -65.5h-153z" />
    <glyph glyph-name="ograve" unicode="&#xf2;" horiz-adv-x="1140" 
d="M74 481q0 146 67.5 259.5t179.5 173t248 59.5q101 0 191.5 -35t158.5 -97.5t108 -156t40 -203.5q0 -146 -68.5 -261t-181.5 -175.5t-248 -60.5t-247.5 60.5t-180 175t-67.5 261.5zM160 1448h282l226 -344h-205zM354 481q0 -97 62.5 -158t152.5 -61q92 0 154.5 60.5
t62.5 158.5q0 95 -63 154t-154 59q-90 0 -152.5 -59t-62.5 -154z" />
    <glyph glyph-name="oacute" unicode="&#xf3;" horiz-adv-x="1140" 
d="M74 481q0 146 67.5 259.5t179.5 173t248 59.5q101 0 191.5 -35t158.5 -97.5t108 -156t40 -203.5q0 -146 -68.5 -261t-181.5 -175.5t-248 -60.5t-247.5 60.5t-180 175t-67.5 261.5zM354 481q0 -97 62.5 -158t152.5 -61q92 0 154.5 60.5t62.5 158.5q0 95 -63 154t-154 59
q-90 0 -152.5 -59t-62.5 -154zM449 1104l225 344h282l-303 -344h-204z" />
    <glyph glyph-name="ocircumflex" unicode="&#xf4;" horiz-adv-x="1140" 
d="M74 481q0 146 67.5 259.5t179.5 173t248 59.5q101 0 191.5 -35t158.5 -97.5t108 -156t40 -203.5q0 -146 -68.5 -261t-181.5 -175.5t-248 -60.5t-247.5 60.5t-180 175t-67.5 261.5zM205 1112l223 344h283l225 -344h-205l-162 182l-159 -182h-205zM354 481q0 -97 62.5 -158
t152.5 -61q92 0 154.5 60.5t62.5 158.5q0 95 -63 154t-154 59q-90 0 -152.5 -59t-62.5 -154z" />
    <glyph glyph-name="otilde" unicode="&#xf5;" horiz-adv-x="1140" 
d="M74 481q0 146 67.5 259.5t179.5 173t248 59.5q101 0 191.5 -35t158.5 -97.5t108 -156t40 -203.5q0 -146 -68.5 -261t-181.5 -175.5t-248 -60.5t-247.5 60.5t-180 175t-67.5 261.5zM274 1153q7 137 68.5 201.5t138.5 64.5q37 0 71 -21t61 -42t46 -21q16 0 34.5 20.5
t19.5 63.5h153q-3 -72 -24 -125.5t-52.5 -81.5t-64.5 -41.5t-66 -13.5q-34 0 -68.5 21t-62.5 42t-47 21q-15 0 -33.5 -22.5t-19.5 -65.5h-154zM354 481q0 -97 62.5 -158t152.5 -61q92 0 154.5 60.5t62.5 158.5q0 95 -63 154t-154 59q-90 0 -152.5 -59t-62.5 -154z" />
    <glyph glyph-name="odieresis" unicode="&#xf6;" horiz-adv-x="1140" 
d="M74 481q0 146 67.5 259.5t179.5 173t248 59.5q101 0 191.5 -35t158.5 -97.5t108 -156t40 -203.5q0 -146 -68.5 -261t-181.5 -175.5t-248 -60.5t-247.5 60.5t-180 175t-67.5 261.5zM242 1307q0 58 43.5 98.5t105.5 40.5q60 0 103 -40.5t43 -98.5q0 -60 -43 -101t-103 -41
q-62 0 -105.5 41t-43.5 101zM354 481q0 -97 62.5 -158t152.5 -61q92 0 154.5 60.5t62.5 158.5q0 95 -63 154t-154 59q-90 0 -152.5 -59t-62.5 -154zM604 1307q0 58 44 98.5t106 40.5q60 0 102.5 -40.5t42.5 -98.5q0 -60 -42.5 -101t-102.5 -41q-62 0 -106 41t-44 101z" />
    <glyph glyph-name="divide" unicode="&#xf7;" horiz-adv-x="1193" 
d="M106 399v197h981v-197h-981zM438 133q0 67 46.5 110.5t113.5 43.5t114.5 -44t47.5 -110q0 -67 -47.5 -111.5t-114.5 -44.5t-113.5 44.5t-46.5 111.5zM438 868q0 65 46.5 109.5t113.5 44.5t114.5 -44.5t47.5 -109.5q0 -68 -47.5 -111.5t-114.5 -43.5t-113.5 43.5
t-46.5 111.5z" />
    <glyph glyph-name="oslash" unicode="&#xf8;" horiz-adv-x="1140" 
d="M66 45l114 119q-106 128 -106 317q0 146 67.5 260.5t180 175t247.5 60.5q167 0 308 -103l106 111l96 -94l-108 -111q96 -130 96 -299q0 -146 -68.5 -261t-181.5 -175.5t-248 -60.5q-160 0 -288 86l-119 -121zM354 481q0 -63 27 -110l293 299q-54 28 -105 28
q-90 0 -152.5 -61t-62.5 -156zM483 279q38 -17 86 -17q92 0 154.5 60.5t62.5 158.5q0 41 -18 90z" />
    <glyph glyph-name="ugrave" unicode="&#xf9;" 
d="M121 385v571h285v-510q0 -54 16.5 -93.5t43.5 -59t54 -28.5t55 -9q74 0 123.5 47t49.5 148v505h284v-956h-284v131q-37 -70 -106.5 -110.5t-141.5 -40.5q-169 0 -274 104t-105 301zM268 1448h283l225 -344h-205z" />
    <glyph glyph-name="uacute" unicode="&#xfa;" 
d="M121 385v571h285v-510q0 -54 16.5 -93.5t43.5 -59t54 -28.5t55 -9q74 0 123.5 47t49.5 148v505h284v-956h-284v131q-37 -70 -106.5 -110.5t-141.5 -40.5q-169 0 -274 104t-105 301zM397 1104l226 344h282l-303 -344h-205z" />
    <glyph glyph-name="ucircumflex" unicode="&#xfb;" 
d="M121 385v571h285v-510q0 -54 16.5 -93.5t43.5 -59t54 -28.5t55 -9q74 0 123.5 47t49.5 148v505h284v-956h-284v131q-37 -70 -106.5 -110.5t-141.5 -40.5q-169 0 -274 104t-105 301zM209 1112l223 344h283l225 -344h-205l-162 182l-159 -182h-205z" />
    <glyph glyph-name="udieresis" unicode="&#xfc;" 
d="M121 385v571h285v-510q0 -54 16.5 -93.5t43.5 -59t54 -28.5t55 -9q74 0 123.5 47t49.5 148v505h284v-956h-284v131q-37 -70 -106.5 -110.5t-141.5 -40.5q-169 0 -274 104t-105 301zM236 1307q0 58 43.5 98.5t105.5 40.5q60 0 102.5 -40.5t42.5 -98.5q0 -60 -42.5 -101
t-102.5 -41q-62 0 -105.5 41t-43.5 101zM598 1307q0 58 44 98.5t106 40.5q60 0 102.5 -40.5t42.5 -98.5q0 -60 -42.5 -101t-102.5 -41q-62 0 -106 41t-44 101z" />
    <glyph glyph-name="yacute" unicode="&#xfd;" horiz-adv-x="1044" 
d="M6 956h303l211 -542l213 542h303l-590 -1425h-301l230 567zM342 1104l225 344h283l-303 -344h-205z" />
    <glyph glyph-name="thorn" unicode="&#xfe;" horiz-adv-x="1232" 
d="M131 -469v1946h283v-637q34 64 111 100.5t169 36.5t176 -36t147.5 -99.5t101.5 -159t38 -207.5q0 -110 -38 -204t-101.5 -157t-147.5 -98.5t-176 -35.5q-91 0 -168 37t-112 102v-588h-283zM420 481q0 -101 65 -166t156 -65q93 0 157 64t64 167q0 101 -64 164.5t-157 63.5
q-92 0 -156.5 -62.5t-64.5 -165.5z" />
    <glyph glyph-name="ydieresis" unicode="&#xff;" horiz-adv-x="1044" 
d="M6 956h303l211 -542l213 542h303l-590 -1425h-301l230 567zM199 1307q0 58 43.5 98.5t105.5 40.5q60 0 103 -40.5t43 -98.5q0 -60 -43 -101t-103 -41q-62 0 -105.5 41t-43.5 101zM561 1307q0 58 44 98.5t106 40.5q60 0 102.5 -40.5t42.5 -98.5q0 -60 -42.5 -101
t-102.5 -41q-62 0 -106 41t-44 101z" />
    <glyph glyph-name="Amacron" unicode="&#x100;" horiz-adv-x="1349" 
d="M-12 0l524 1411h326l522 -1411h-316l-124 334h-488l-125 -334h-319zM389 1657v174h569v-174h-569zM530 594h293l-149 491z" />
    <glyph glyph-name="amacron" unicode="&#x101;" horiz-adv-x="1253" 
d="M74 479q0 111 41.5 206.5t110.5 158t156 98t179 35.5q39 0 83.5 -8.5t103 -39t92.5 -79.5v106h282v-956h-282v109q-41 -62 -125.5 -94.5t-153.5 -32.5q-124 0 -234 59t-181.5 174.5t-71.5 263.5zM344 1202v174h569v-174h-569zM369 479q0 -99 72.5 -163t166.5 -64
q93 0 162.5 62.5t69.5 164.5q0 103 -69.5 165.5t-162.5 62.5q-94 0 -166.5 -64.5t-72.5 -163.5z" />
    <glyph glyph-name="Abreve" unicode="&#x102;" horiz-adv-x="1349" 
d="M-12 0l524 1411h326l522 -1411h-316l-124 334h-488l-125 -334h-319zM397 1866h174q0 -109 101 -109q50 0 74 31t24 78h178q0 -121 -77 -195t-199 -74q-90 0 -154 40t-92.5 99.5t-28.5 129.5zM530 594h293l-149 491z" />
    <glyph glyph-name="abreve" unicode="&#x103;" horiz-adv-x="1253" 
d="M74 479q0 111 41.5 206.5t110.5 158t156 98t179 35.5q39 0 83.5 -8.5t103 -39t92.5 -79.5v106h282v-956h-282v109q-41 -62 -125.5 -94.5t-153.5 -32.5q-124 0 -234 59t-181.5 174.5t-71.5 263.5zM352 1411h174q0 -108 101 -108q51 0 74.5 30.5t23.5 77.5h178
q0 -121 -77 -194.5t-199 -73.5q-133 0 -204 79t-71 189zM369 479q0 -99 72.5 -163t166.5 -64q93 0 162.5 62.5t69.5 164.5q0 103 -69.5 165.5t-162.5 62.5q-94 0 -166.5 -64.5t-72.5 -163.5z" />
    <glyph glyph-name="Aogonek" unicode="&#x104;" horiz-adv-x="1349" 
d="M-12 0l524 1411h326l522 -1411h-172l-76 -207q-10 -26 -1.5 -51t32.5 -35q26 -6 48.5 4.5t31.5 34.5q3 12 3.5 25t-0.5 21l-1 7l157 8q1 -49 -2 -71.5t-14 -48.5q-27 -62 -80.5 -97.5t-114.5 -35.5q-89 0 -154 62t-65 148q0 60 21 101l71 135l-124 334h-488l-125 -334
h-319zM530 594h293l-149 491z" />
    <glyph glyph-name="aogonek" unicode="&#x105;" horiz-adv-x="1253" 
d="M74 479q0 111 41.5 206.5t110.5 158t156 98t179 35.5q39 0 83.5 -8.5t103 -39t92.5 -79.5v106h282v-956h-139l-76 -207q-10 -26 -1.5 -51t32.5 -35q26 -6 48.5 4.5t31.5 34.5q3 12 3.5 25t-0.5 21l-1 7l158 8q1 -48 -2.5 -70.5t-14.5 -49.5q-27 -62 -80 -97.5t-114 -35.5
q-89 0 -154 62t-65 148q0 62 20 101l72 135v109q-41 -62 -125.5 -94.5t-153.5 -32.5q-124 0 -234 59t-181.5 174.5t-71.5 263.5zM369 479q0 -99 72.5 -163t166.5 -64q93 0 162.5 62.5t69.5 164.5q0 103 -69.5 165.5t-162.5 62.5q-94 0 -166.5 -64.5t-72.5 -163.5z" />
    <glyph glyph-name="Cacute" unicode="&#x106;" horiz-adv-x="1431" 
d="M84 702q0 198 92.5 364.5t255.5 263.5t361 97q185 0 339 -80.5t248 -218.5l-243 -167q-58 85 -148 134.5t-196 49.5q-175 0 -291.5 -128.5t-116.5 -314.5q0 -185 116.5 -312.5t291.5 -127.5q108 0 200.5 53t151.5 142l241 -168q-94 -143 -249.5 -226t-343.5 -83
q-148 0 -280 57.5t-226 154.5t-148.5 230t-54.5 280zM678 1559l225 344h283l-303 -344h-205z" />
    <glyph glyph-name="cacute" unicode="&#x107;" horiz-adv-x="1075" 
d="M74 481q0 110 42.5 204t114.5 157.5t166 99t197 35.5q128 0 237.5 -53.5t178.5 -149.5l-232 -166q-29 45 -78.5 71t-105.5 26q-95 0 -166.5 -62.5t-71.5 -161.5t71.5 -164t166.5 -65q56 0 105.5 25.5t78.5 70.5l232 -164q-67 -97 -177 -150.5t-239 -53.5
q-138 0 -256 61.5t-191 177.5t-73 262zM434 1104l225 344h283l-303 -344h-205z" />
    <glyph glyph-name="Ccircumflex" unicode="&#x108;" horiz-adv-x="1431" 
d="M84 702q0 198 92.5 364.5t255.5 263.5t361 97q185 0 339 -80.5t248 -218.5l-243 -167q-58 85 -148 134.5t-196 49.5q-175 0 -291.5 -128.5t-116.5 -314.5q0 -185 116.5 -312.5t291.5 -127.5q108 0 200.5 53t151.5 142l241 -168q-94 -143 -249.5 -226t-343.5 -83
q-148 0 -280 57.5t-226 154.5t-148.5 230t-54.5 280zM420 1567l223 344h283l225 -344h-205l-162 182l-159 -182h-205z" />
    <glyph glyph-name="ccircumflex" unicode="&#x109;" horiz-adv-x="1075" 
d="M74 481q0 110 42.5 204t114.5 157.5t166 99t197 35.5q128 0 237.5 -53.5t178.5 -149.5l-232 -166q-29 45 -78.5 71t-105.5 26q-95 0 -166.5 -62.5t-71.5 -161.5t71.5 -164t166.5 -65q56 0 105.5 25.5t78.5 70.5l232 -164q-67 -97 -177 -150.5t-239 -53.5
q-138 0 -256 61.5t-191 177.5t-73 262zM213 1112l223 344h283l225 -344h-205l-161 182l-160 -182h-205z" />
    <glyph glyph-name="Cdotaccent" unicode="&#x10a;" horiz-adv-x="1431" 
d="M84 702q0 198 92.5 364.5t255.5 263.5t361 97q185 0 339 -80.5t248 -218.5l-243 -167q-58 85 -148 134.5t-196 49.5q-175 0 -291.5 -128.5t-116.5 -314.5q0 -185 116.5 -312.5t291.5 -127.5q108 0 200.5 53t151.5 142l241 -168q-94 -143 -249.5 -226t-343.5 -83
q-148 0 -280 57.5t-226 154.5t-148.5 230t-54.5 280zM627 1776q0 64 45.5 107.5t111.5 43.5t112 -43.5t46 -107.5q0 -67 -45.5 -110.5t-112.5 -43.5t-112 43.5t-45 110.5z" />
    <glyph glyph-name="cdotaccent" unicode="&#x10b;" horiz-adv-x="1075" 
d="M74 481q0 110 42.5 204t114.5 157.5t166 99t197 35.5q128 0 237.5 -53.5t178.5 -149.5l-232 -166q-29 45 -78.5 71t-105.5 26q-95 0 -166.5 -62.5t-71.5 -161.5t71.5 -164t166.5 -65q56 0 105.5 25.5t78.5 70.5l232 -164q-67 -97 -177 -150.5t-239 -53.5
q-138 0 -256 61.5t-191 177.5t-73 262zM414 1321q0 64 45.5 108t111.5 44t112 -44t46 -108q0 -67 -45.5 -110.5t-112.5 -43.5t-112 43.5t-45 110.5z" />
    <glyph glyph-name="Ccaron" unicode="&#x10c;" horiz-adv-x="1431" 
d="M84 702q0 198 92.5 364.5t255.5 263.5t361 97q185 0 339 -80.5t248 -218.5l-243 -167q-58 85 -148 134.5t-196 49.5q-175 0 -291.5 -128.5t-116.5 -314.5q0 -185 116.5 -312.5t291.5 -127.5q108 0 200.5 53t151.5 142l241 -168q-94 -143 -249.5 -226t-343.5 -83
q-148 0 -280 57.5t-226 154.5t-148.5 230t-54.5 280zM403 1901h205l160 -183l162 183h205l-226 -345h-282z" />
    <glyph glyph-name="ccaron" unicode="&#x10d;" horiz-adv-x="1075" 
d="M74 481q0 110 42.5 204t114.5 157.5t166 99t197 35.5q128 0 237.5 -53.5t178.5 -149.5l-232 -166q-29 45 -78.5 71t-105.5 26q-95 0 -166.5 -62.5t-71.5 -161.5t71.5 -164t166.5 -65q56 0 105.5 25.5t78.5 70.5l232 -164q-67 -97 -177 -150.5t-239 -53.5
q-138 0 -256 61.5t-191 177.5t-73 262zM199 1446h204l160 -182l162 182h205l-225 -344h-283z" />
    <glyph glyph-name="Dcaron" unicode="&#x10e;" horiz-adv-x="1447" 
d="M166 0v1411h553q198 0 344 -94t219.5 -253.5t73.5 -361.5q0 -201 -73.5 -358.5t-219.5 -250.5t-344 -93h-553zM334 1901h205l159 -183l162 183h205l-225 -345h-283zM465 272h254q108 0 186.5 60t115 155.5t36.5 214.5q0 120 -36.5 217t-115 158.5t-186.5 61.5h-254v-867z
" />
    <glyph glyph-name="dcaron" unicode="&#x10f;" horiz-adv-x="1300" 
d="M76 475q0 112 38 207.5t101.5 159t147.5 99.5t176 36t169 -36.5t111 -100.5v637h283v-1477h-283v119q-35 -65 -112 -102t-168 -37q-92 0 -176 35.5t-147.5 98.5t-101.5 157t-38 204zM371 481q0 -103 64 -167t157 -64q91 0 156 65t65 166q0 103 -64.5 165.5t-156.5 62.5
q-93 0 -157 -63.5t-64 -164.5zM1163 1010q67 94 93.5 180t25.5 221h240q-24 -311 -219 -473z" />
    <glyph glyph-name="Dcroat" unicode="&#x110;" horiz-adv-x="1478" 
d="M4 582v200h193v629h553q149 0 270 -54.5t200.5 -150t122.5 -224.5t43 -280q0 -201 -73 -358.5t-219 -250.5t-344 -93h-553v582h-193zM496 272h254q108 0 186 60t114.5 155.5t36.5 214.5q0 120 -36.5 217t-114.5 158.5t-186 61.5h-254v-357h252v-200h-252v-310z" />
    <glyph glyph-name="dcroat" unicode="&#x111;" horiz-adv-x="1232" 
d="M76 475q0 112 38 207.5t101.5 159t147.5 99.5t176 36t169 -36.5t111 -100.5v301h-305v176h305v160h283v-160h155v-176h-155v-1141h-283v119q-35 -65 -112 -102t-168 -37q-92 0 -176 35.5t-147.5 98.5t-101.5 157t-38 204zM371 481q0 -103 64 -167t157 -64q91 0 156 65
t65 166q0 103 -64.5 165.5t-156.5 62.5q-93 0 -157 -63.5t-64 -164.5z" />
    <glyph glyph-name="Emacron" unicode="&#x112;" horiz-adv-x="1179" 
d="M166 0v1411h893v-264h-594v-322h520v-260h-520v-301h612v-264h-911zM295 1657v174h569v-174h-569z" />
    <glyph glyph-name="emacron" unicode="&#x113;" horiz-adv-x="1126" 
d="M74 481q0 147 67.5 261t181 174.5t250.5 60.5q101 0 191 -37t156 -102t104.5 -159.5t38.5 -205.5q0 -38 -4 -88h-701q10 -77 80.5 -118.5t155.5 -41.5q62 0 118.5 23t90.5 67l207 -141q-67 -100 -185 -147t-252 -47q-137 0 -250.5 61.5t-181 177t-67.5 262.5zM283 1202
v174h569v-174h-569zM362 563h414q-10 81 -70.5 122.5t-130.5 41.5t-133 -40.5t-80 -123.5z" />
    <glyph glyph-name="Ebreve" unicode="&#x114;" horiz-adv-x="1179" 
d="M166 0v1411h893v-264h-594v-322h520v-260h-520v-301h612v-264h-911zM305 1866h174q0 -109 101 -109q50 0 74 31t24 78h178q0 -121 -77 -195t-199 -74q-90 0 -154 40t-92.5 99.5t-28.5 129.5z" />
    <glyph glyph-name="ebreve" unicode="&#x115;" horiz-adv-x="1126" 
d="M74 481q0 147 67.5 261t181 174.5t250.5 60.5q101 0 191 -37t156 -102t104.5 -159.5t38.5 -205.5q0 -38 -4 -88h-701q10 -77 80.5 -118.5t155.5 -41.5q62 0 118.5 23t90.5 67l207 -141q-67 -100 -185 -147t-252 -47q-137 0 -250.5 61.5t-181 177t-67.5 262.5zM293 1411
h174q0 -54 23.5 -81t76.5 -27q51 0 75 30.5t24 77.5h178q0 -121 -77.5 -194.5t-199.5 -73.5q-90 0 -153.5 39.5t-92 98.5t-28.5 130zM362 563h414q-10 81 -70.5 122.5t-130.5 41.5t-133 -40.5t-80 -123.5z" />
    <glyph glyph-name="Edotaccent" unicode="&#x116;" horiz-adv-x="1179" 
d="M166 0v1411h893v-264h-594v-322h520v-260h-520v-301h612v-264h-911zM442 1776q0 64 46 107.5t112 43.5t112 -43.5t46 -107.5q0 -67 -45.5 -110.5t-112.5 -43.5t-112.5 43.5t-45.5 110.5z" />
    <glyph glyph-name="edotaccent" unicode="&#x117;" horiz-adv-x="1126" 
d="M74 481q0 147 67.5 261t181 174.5t250.5 60.5q101 0 191 -37t156 -102t104.5 -159.5t38.5 -205.5q0 -38 -4 -88h-701q10 -77 80.5 -118.5t155.5 -41.5q62 0 118.5 23t90.5 67l207 -141q-67 -100 -185 -147t-252 -47q-137 0 -250.5 61.5t-181 177t-67.5 262.5zM362 563
h414q-10 81 -70.5 122.5t-130.5 41.5t-133 -40.5t-80 -123.5zM410 1321q0 64 45.5 108t111.5 44t112 -44t46 -108q0 -67 -45.5 -110.5t-112.5 -43.5t-112 43.5t-45 110.5z" />
    <glyph glyph-name="Eogonek" unicode="&#x118;" horiz-adv-x="1179" 
d="M166 0v1411h893v-264h-594v-322h520v-260h-520v-301h612v-264l-78 -207q-11 -26 -2 -51t33 -35q26 -6 48.5 4.5t31.5 34.5q3 12 3.5 25t-0.5 21l-1 7l158 8q1 -48 -2.5 -70.5t-14.5 -49.5q-27 -62 -80 -97.5t-114 -35.5q-89 0 -154 62t-65 148q0 58 20 101l72 135h-766z
" />
    <glyph glyph-name="eogonek" unicode="&#x119;" horiz-adv-x="1128" 
d="M74 481q0 147 67.5 261t181 174.5t250.5 60.5q101 0 191 -37t156 -102t104.5 -159.5t38.5 -205.5q0 -38 -4 -88h-701q10 -77 80.5 -118.5t155.5 -41.5q62 0 118.5 23t90.5 67l207 -141q-7 -10 -41 -47t-60.5 -71.5t-59.5 -105.5t-52 -157q-7 -38 -0.5 -57t30.5 -29
q26 -6 48.5 4.5t31.5 34.5q3 12 3.5 25t-0.5 21l-1 7l158 8q1 -49 -2 -71.5t-14 -48.5q-27 -62 -80.5 -97.5t-114.5 -35.5q-89 0 -154 62t-65 148q0 62 20 101l70 131q-78 -16 -154 -16q-137 0 -250.5 61.5t-181 177t-67.5 262.5zM362 563h414q-10 81 -70.5 122.5
t-130.5 41.5t-133 -40.5t-80 -123.5z" />
    <glyph glyph-name="Ecaron" unicode="&#x11a;" horiz-adv-x="1179" 
d="M166 0v1411h893v-264h-594v-322h520v-260h-520v-301h612v-264h-911zM215 1901h205l160 -183l161 183h205l-225 -345h-283z" />
    <glyph glyph-name="ecaron" unicode="&#x11b;" horiz-adv-x="1126" 
d="M74 481q0 147 67.5 261t181 174.5t250.5 60.5q101 0 191 -37t156 -102t104.5 -159.5t38.5 -205.5q0 -38 -4 -88h-701q10 -77 80.5 -118.5t155.5 -41.5q62 0 118.5 23t90.5 67l207 -141q-67 -100 -185 -147t-252 -47q-137 0 -250.5 61.5t-181 177t-67.5 262.5zM203 1446
h205l159 -182l162 182h205l-225 -344h-283zM362 563h414q-10 81 -70.5 122.5t-130.5 41.5t-133 -40.5t-80 -123.5z" />
    <glyph glyph-name="Gcircumflex" unicode="&#x11c;" horiz-adv-x="1548" 
d="M84 702q0 198 95.5 364.5t262 263.5t365.5 97q160 0 298 -61.5t232 -169.5l-221 -190q-127 143 -309 143q-117 0 -214 -60t-152.5 -163t-55.5 -224t55.5 -223.5t152.5 -163.5t214 -61q78 0 155 29t131.5 86.5t55.5 128.5h-379v243h725q0 -194 -50 -341t-142 -238
t-216.5 -136.5t-279.5 -45.5q-149 0 -283.5 57.5t-230.5 154.5t-152.5 230t-56.5 280zM416 1567l223 344h283l225 -344h-205l-162 182l-159 -182h-205z" />
    <glyph glyph-name="gcircumflex" unicode="&#x11d;" horiz-adv-x="1245" 
d="M74 475q0 112 40 207.5t106.5 159t152.5 99.5t178 36t172.5 -37.5t114.5 -101.5v118h276v-823q0 -304 -140.5 -457t-400.5 -153q-157 0 -283.5 81t-187.5 216q36 18 115 56.5t115 55.5q24 -65 95.5 -109t145.5 -44q286 0 265 340q-33 -64 -114 -101.5t-173 -37.5
q-124 0 -232 60t-176.5 175t-68.5 260zM258 1112l223 344h283l225 -344h-205l-161 182l-160 -182h-205zM371 481q0 -104 67.5 -168.5t161.5 -64.5q91 0 161 66t70 167q0 103 -68.5 164.5t-162.5 61.5t-161.5 -63.5t-67.5 -162.5z" />
    <glyph glyph-name="Gbreve" unicode="&#x11e;" horiz-adv-x="1548" 
d="M84 702q0 198 95.5 364.5t262 263.5t365.5 97q160 0 298 -61.5t232 -169.5l-221 -190q-127 143 -309 143q-117 0 -214 -60t-152.5 -163t-55.5 -224t55.5 -223.5t152.5 -163.5t214 -61q78 0 155 29t131.5 86.5t55.5 128.5h-379v243h725q0 -194 -50 -341t-142 -238
t-216.5 -136.5t-279.5 -45.5q-149 0 -283.5 57.5t-230.5 154.5t-152.5 230t-56.5 280zM506 1866h174q0 -109 100 -109q51 0 75 31t24 78h178q0 -121 -77.5 -195t-199.5 -74q-68 0 -121.5 23t-86 61.5t-49.5 85.5t-17 99z" />
    <glyph glyph-name="gbreve" unicode="&#x11f;" horiz-adv-x="1245" 
d="M74 475q0 112 40 207.5t106.5 159t152.5 99.5t178 36t172.5 -37.5t114.5 -101.5v118h276v-823q0 -304 -140.5 -457t-400.5 -153q-157 0 -283.5 81t-187.5 216q36 18 115 56.5t115 55.5q24 -65 95.5 -109t145.5 -44q286 0 265 340q-33 -64 -114 -101.5t-173 -37.5
q-124 0 -232 60t-176.5 175t-68.5 260zM348 1411h174q0 -108 101 -108q51 0 74.5 30.5t23.5 77.5h178q0 -121 -77 -194.5t-199 -73.5q-133 0 -204 79t-71 189zM371 481q0 -104 67.5 -168.5t161.5 -64.5q91 0 161 66t70 167q0 103 -68.5 164.5t-162.5 61.5t-161.5 -63.5
t-67.5 -162.5z" />
    <glyph glyph-name="Gdotaccent" unicode="&#x120;" horiz-adv-x="1548" 
d="M84 702q0 198 95.5 364.5t262 263.5t365.5 97q160 0 298 -61.5t232 -169.5l-221 -190q-127 143 -309 143q-117 0 -214 -60t-152.5 -163t-55.5 -224t55.5 -223.5t152.5 -163.5t214 -61q78 0 155 29t131.5 86.5t55.5 128.5h-379v243h725q0 -194 -50 -341t-142 -238
t-216.5 -136.5t-279.5 -45.5q-149 0 -283.5 57.5t-230.5 154.5t-152.5 230t-56.5 280zM623 1776q0 64 45.5 107.5t111.5 43.5t112 -43.5t46 -107.5q0 -67 -45.5 -110.5t-112.5 -43.5t-112 43.5t-45 110.5z" />
    <glyph glyph-name="gdotaccent" unicode="&#x121;" horiz-adv-x="1245" 
d="M74 475q0 112 40 207.5t106.5 159t152.5 99.5t178 36t172.5 -37.5t114.5 -101.5v118h276v-823q0 -304 -140.5 -457t-400.5 -153q-157 0 -283.5 81t-187.5 216q36 18 115 56.5t115 55.5q24 -65 95.5 -109t145.5 -44q286 0 265 340q-33 -64 -114 -101.5t-173 -37.5
q-124 0 -232 60t-176.5 175t-68.5 260zM371 481q0 -104 67.5 -168.5t161.5 -64.5q91 0 161 66t70 167q0 103 -68.5 164.5t-162.5 61.5t-161.5 -63.5t-67.5 -162.5zM467 1321q0 64 46 108t112 44t111.5 -44t45.5 -108q0 -67 -45 -110.5t-112 -43.5t-112.5 43.5t-45.5 110.5z
" />
    <glyph glyph-name="Gcommaaccent" unicode="&#x122;" horiz-adv-x="1548" 
d="M84 702q0 198 95.5 364.5t262 263.5t365.5 97q160 0 298 -61.5t232 -169.5l-221 -190q-127 143 -309 143q-117 0 -214 -60t-152.5 -163t-55.5 -224t55.5 -223.5t152.5 -163.5t214 -61q78 0 155 29t131.5 86.5t55.5 128.5h-379v243h725q0 -194 -50 -341t-142 -238
t-216.5 -136.5t-279.5 -45.5q-149 0 -283.5 57.5t-230.5 154.5t-152.5 230t-56.5 280zM602 -516q67 94 93.5 180t25.5 221h240q-23 -310 -220 -473z" />
    <glyph glyph-name="gcommaaccent" unicode="&#x123;" horiz-adv-x="1245" 
d="M74 475q0 112 40 207.5t106.5 159t152.5 99.5t178 36t172.5 -37.5t114.5 -101.5v118h276v-823q0 -304 -140.5 -457t-400.5 -153q-157 0 -283.5 81t-187.5 216q36 18 115 56.5t115 55.5q24 -65 95.5 -109t145.5 -44q286 0 265 340q-33 -64 -114 -101.5t-173 -37.5
q-124 0 -232 60t-176.5 175t-68.5 260zM371 481q0 -104 67.5 -168.5t161.5 -64.5q91 0 161 66t70 167q0 103 -68.5 164.5t-162.5 61.5t-161.5 -63.5t-67.5 -162.5zM438 1135q24 311 219 473l140 -72q-67 -94 -93.5 -180t-25.5 -221h-240z" />
    <glyph glyph-name="Hcircumflex" unicode="&#x124;" horiz-adv-x="1435" 
d="M166 0v1411h299v-575h502v575h303v-1411h-303v567h-502v-567h-299zM352 1567l223 344h283l225 -344h-204l-162 182l-160 -182h-205z" />
    <glyph glyph-name="hcircumflex" unicode="&#x125;" horiz-adv-x="1185" 
d="M-94 1581l223 344h283l225 -344h-205l-162 182l-159 -182h-205zM131 0v1477h285v-670q18 56 66.5 96t100.5 57t101 17q187 0 285 -119t98 -338v-520h-285v510q0 88 -53 139t-123 51q-78 0 -134 -47t-56 -147v-506h-285z" />
    <glyph glyph-name="Hbar" unicode="&#x126;" horiz-adv-x="1464" 
d="M33 1049v165h147v197h299v-197h502v197h303v-197h148v-165h-148v-1049h-303v567h-502v-567h-299v1049h-147zM479 836h502v213h-502v-213z" />
    <glyph glyph-name="hbar" unicode="&#x127;" horiz-adv-x="1185" 
d="M-25 1141v176h156v160h285v-160h303v-176h-303v-334q18 56 66.5 96t100.5 57t101 17q187 0 285 -119t98 -338v-520h-285v510q0 88 -53 139t-123 51q-78 0 -134 -47t-56 -147v-506h-285v1141h-156z" />
    <glyph glyph-name="Itilde" unicode="&#x128;" horiz-adv-x="630" 
d="M20 1608q7 137 68.5 201.5t138.5 64.5q37 0 71 -21t61.5 -42t46.5 -21q16 0 34 20.5t19 63.5h153q-3 -72 -23.5 -125.5t-52 -81.5t-64.5 -41.5t-66 -13.5q-34 0 -69 21t-63 42t-47 21q-15 0 -33.5 -22.5t-19.5 -65.5h-154zM166 0v1411h299v-1411h-299z" />
    <glyph glyph-name="itilde" unicode="&#x129;" horiz-adv-x="542" 
d="M-2 1153q7 137 68.5 201.5t138.5 64.5q37 0 71 -21t61 -42t46 -21q16 0 34 20.5t19 63.5h154q-3 -72 -24 -125.5t-52.5 -81.5t-64.5 -41.5t-66 -13.5q-34 0 -68.5 21t-62.5 42t-47 21q-15 0 -33.5 -22.5t-19.5 -65.5h-154zM131 0v956h281v-956h-281z" />
    <glyph glyph-name="Imacron" unicode="&#x12a;" horiz-adv-x="630" 
d="M31 1657v174h569v-174h-569zM166 0v1411h299v-1411h-299z" />
    <glyph glyph-name="imacron" unicode="&#x12b;" horiz-adv-x="542" 
d="M-16 1202v174h569v-174h-569zM131 0v956h281v-956h-281z" />
    <glyph glyph-name="Ibreve" unicode="&#x12c;" horiz-adv-x="630" 
d="M41 1866h174q0 -109 100 -109q51 0 75 31t24 78h178q0 -121 -77.5 -195t-199.5 -74q-68 0 -121.5 23t-86 61.5t-49.5 85.5t-17 99zM166 0v1411h299v-1411h-299z" />
    <glyph glyph-name="ibreve" unicode="&#x12d;" horiz-adv-x="542" 
d="M-4 1411h174q0 -54 23.5 -81t76.5 -27q51 0 75 30.5t24 77.5h178q0 -121 -77.5 -194.5t-199.5 -73.5q-90 0 -153.5 39.5t-92 98.5t-28.5 130zM131 0v956h281v-956h-281z" />
    <glyph glyph-name="Iogonek" unicode="&#x12e;" horiz-adv-x="630" 
d="M72 -236q0 62 20 101l72 135v1411h299v-1411h-156l-76 -207q-10 -26 -1.5 -51t32.5 -35q26 -6 48.5 4.5t31.5 34.5q3 12 3.5 25.5t-0.5 20.5l-1 7l158 8q1 -48 -2.5 -70.5t-14.5 -49.5q-27 -62 -80 -97.5t-114 -35.5q-89 0 -154 62t-65 148z" />
    <glyph glyph-name="iogonek" unicode="&#x12f;" horiz-adv-x="544" 
d="M39 -236v12v14t0.5 12.5t2 15t3.5 14t5.5 16.5t8.5 17l72 135v956h283v-956h-140l-75 -207q-10 -26 -2 -51t32 -35q26 -6 48.5 4.5t31.5 34.5q3 12 3.5 25.5t-0.5 20.5l-1 7l158 8q1 -49 -2 -71.5t-14 -48.5q-27 -62 -80.5 -97.5t-114.5 -35.5q-89 0 -154 62t-65 148z
M94 1311q0 70 52.5 118t125.5 48q72 0 123 -48t51 -118t-51 -119t-123 -49q-73 0 -125.5 49t-52.5 119z" />
    <glyph glyph-name="Idotaccent" unicode="&#x130;" horiz-adv-x="630" 
d="M158 1776q0 64 45.5 107.5t111.5 43.5t112 -43.5t46 -107.5q0 -67 -45.5 -110.5t-112.5 -43.5t-112 43.5t-45 110.5zM166 0v1411h299v-1411h-299z" />
    <glyph glyph-name="dotlessi" unicode="&#x131;" horiz-adv-x="544" 
d="M131 0v956h283v-956h-283z" />
    <glyph glyph-name="IJ" unicode="&#x132;" horiz-adv-x="1263" 
d="M166 0v1411h299v-1411h-299zM428 -449l27 271q68 -23 180 -23q83 0 122.5 54.5t39.5 140.5v1417h301v-1417q0 -80 -15.5 -149t-50.5 -130t-87.5 -104.5t-131.5 -68.5t-178 -25q-63 0 -207 34z" />
    <glyph glyph-name="ij" unicode="&#x133;" horiz-adv-x="1093" 
d="M94 1311q0 70 52.5 118t125.5 48q72 0 123 -48t51 -118t-51 -119t-123 -49q-73 0 -125.5 49t-52.5 119zM131 0v956h283v-956h-283zM426 -223h125q37 0 63.5 13.5t39 37t18 48t4.5 52.5v1028h287v-1022q0 -201 -84.5 -308t-278.5 -107h-174v258zM641 1311q0 70 52.5 118
t125.5 48q74 0 125 -48t51 -118t-51 -119t-125 -49q-73 0 -125.5 49t-52.5 119z" />
    <glyph glyph-name="Jcircumflex" unicode="&#x134;" horiz-adv-x="632" 
d="M-203 -449l27 271q68 -23 180 -23q83 0 122.5 54.5t39.5 140.5v1417h301v-1417q0 -80 -15.5 -149t-50.5 -130t-87.5 -104.5t-131.5 -68.5t-178 -25q-63 0 -207 34zM-49 1567l223 344h283l225 -344h-205l-162 182l-159 -182h-205z" />
    <glyph glyph-name="jcircumflex" unicode="&#x135;" horiz-adv-x="548" 
d="M-119 -223h125q37 0 63.5 13.5t39 37t18 48t4.5 52.5v1028h287v-1022q0 -201 -84.5 -308t-278.5 -107h-174v258zM-66 1112l224 344h282l226 -344h-205l-162 182l-160 -182h-205z" />
    <glyph glyph-name="Kcommaaccent" unicode="&#x136;" horiz-adv-x="1247" 
d="M166 0v1411h303v-463l334 463h352l-534 -698l661 -713h-389l-424 479v-479h-303zM451 -516q67 94 93 180t25 221h240q-24 -311 -219 -473z" />
    <glyph glyph-name="kcommaaccent" unicode="&#x137;" horiz-adv-x="1077" 
d="M131 0v1477h283v-783l227 262h363l-398 -421l477 -535h-350l-319 379v-379h-283zM334 -516q67 94 93.5 180t25.5 221h239q-24 -311 -219 -473z" />
    <glyph glyph-name="kgreenlandic" unicode="&#x138;" horiz-adv-x="1046" 
d="M131 0v956h281v-278l233 278h354l-419 -471l462 -485h-370l-260 295v-295h-281z" />
    <glyph glyph-name="Lacute" unicode="&#x139;" horiz-adv-x="1046" 
d="M166 0v1411h301v-1147h528v-264h-829zM170 1559l225 344h283l-303 -344h-205z" />
    <glyph glyph-name="lacute" unicode="&#x13a;" horiz-adv-x="546" 
d="M131 0v1477h285v-1477h-285zM133 1579l225 344h283l-303 -344h-205z" />
    <glyph glyph-name="Lcommaaccent" unicode="&#x13b;" horiz-adv-x="1046" 
d="M166 0v1411h301v-1147h528v-264h-829zM340 -516q67 94 93.5 180t25.5 221h239q-24 -311 -219 -473z" />
    <glyph glyph-name="lcommaaccent" unicode="&#x13c;" horiz-adv-x="546" 
d="M43 -516q67 94 93.5 180t25.5 221h239q-24 -311 -219 -473zM131 0v1477h285v-1477h-285z" />
    <glyph glyph-name="Lcaron" unicode="&#x13d;" horiz-adv-x="1056" 
d="M166 0v1411h301v-1147h528v-264h-829zM606 936q70 98 111.5 220.5t40.5 254.5h239q-14 -185 -77.5 -327t-141.5 -207z" />
    <glyph glyph-name="lcaron" unicode="&#x13e;" horiz-adv-x="636" 
d="M131 0v1477h285v-1477h-285zM477 1001q69 98 111 221t41 255h239q-14 -185 -77.5 -327.5t-141.5 -207.5z" />
    <glyph glyph-name="Ldot" unicode="&#x13f;" horiz-adv-x="1046" 
d="M166 0v1411h301v-1147h528v-264h-829zM612 629q0 64 46 107.5t112 43.5t112 -43.5t46 -107.5q0 -67 -45.5 -110.5t-112.5 -43.5t-112.5 43.5t-45.5 110.5z" />
    <glyph glyph-name="ldot" unicode="&#x140;" horiz-adv-x="778" 
d="M131 0v1477h285v-1477h-285zM504 629q0 64 46 107.5t112 43.5t111.5 -43.5t45.5 -107.5q0 -67 -45 -110.5t-112 -43.5t-112.5 43.5t-45.5 110.5z" />
    <glyph glyph-name="Lslash" unicode="&#x141;" horiz-adv-x="1062" 
d="M35 504v194l147 93v620h301v-432l191 119v-195l-191 -119v-520h529v-264h-830v596z" />
    <glyph glyph-name="lslash" unicode="&#x142;" horiz-adv-x="647" 
d="M29 471v195l178 110v701h285v-523l176 111v-195l-176 -110v-760h-285v582z" />
    <glyph glyph-name="Nacute" unicode="&#x143;" horiz-adv-x="1390" 
d="M166 0v1411h274l484 -844v844h301v-1411h-269l-491 854v-854h-299zM569 1559l226 344h282l-303 -344h-205z" />
    <glyph glyph-name="nacute" unicode="&#x144;" 
d="M131 0v956h285v-139q38 72 114.5 116t161.5 44q165 0 257.5 -103t92.5 -303v-571h-284v510q0 92 -45.5 141t-120.5 49q-176 0 -176 -194v-506h-285zM422 1104l225 344h283l-303 -344h-205z" />
    <glyph glyph-name="Ncommaaccent" unicode="&#x145;" horiz-adv-x="1390" 
d="M166 0v1411h274l484 -831v831h301v-1411h-269l-491 842v-842h-299zM483 -516q67 94 93.5 180t25.5 221h240q-24 -311 -219 -473z" />
    <glyph glyph-name="ncommaaccent" unicode="&#x146;" 
d="M131 0v956h285v-139q38 72 114.5 116t161.5 44q165 0 257.5 -103t92.5 -303v-571h-284v510q0 92 -45.5 141t-120.5 49q-176 0 -176 -194v-506h-285zM381 -516q67 94 93.5 180t25.5 221h239q-24 -311 -219 -473z" />
    <glyph glyph-name="Ncaron" unicode="&#x147;" horiz-adv-x="1390" 
d="M166 0v1411h274l484 -844v844h301v-1411h-269l-491 854v-854h-299zM330 1901h205l159 -183l162 183h205l-225 -345h-283z" />
    <glyph glyph-name="ncaron" unicode="&#x148;" 
d="M131 0v956h285v-139q38 72 114.5 116t161.5 44q165 0 257.5 -103t92.5 -303v-571h-284v510q0 92 -45.5 141t-120.5 49q-176 0 -176 -194v-506h-285zM215 1446h205l160 -182l161 182h205l-225 -344h-283z" />
    <glyph glyph-name="napostrophe" unicode="&#x149;" 
d="M-186 1006q59 79 74 163.5t-3 184.5h242q2 -258 -160 -393zM131 0v956h285v-139q38 72 114.5 116t161.5 44q165 0 257.5 -103t92.5 -303v-571h-284v510q0 92 -45.5 141t-120.5 49q-176 0 -176 -194v-506h-285z" />
    <glyph glyph-name="Eng" unicode="&#x14a;" horiz-adv-x="1390" 
d="M166 0v1411h274l484 -844v844h301v-1384q0 -81 -15 -151.5t-49.5 -133t-86.5 -107t-130.5 -70.5t-177.5 -26q-69 0 -209 35l31 295q31 -11 92 -20t102 -9q73 4 115.5 61.5t42.5 131.5l-475 821v-854h-299z" />
    <glyph glyph-name="eng" unicode="&#x14b;" 
d="M131 0v956h285v-139q38 72 114.5 116t161.5 44q165 0 257.5 -103t92.5 -303v-505q0 -98 -23 -178t-72.5 -144.5t-134.5 -100.5t-200 -36q-44 0 -129 20l27 262q53 -16 102 -16q76 0 111 54t35 134v449q0 92 -45.5 141t-120.5 49q-176 0 -176 -194v-506h-285z" />
    <glyph glyph-name="Omacron" unicode="&#x14c;" horiz-adv-x="1599" 
d="M84 702q0 198 95 364.5t259.5 263.5t360.5 97q197 0 362 -97t260 -263.5t95 -364.5q0 -196 -95 -362t-260 -263t-362 -97q-147 0 -279.5 57.5t-228 154.5t-151.5 230.5t-56 279.5zM383 702q0 -177 121 -301.5t295 -124.5q175 0 296.5 124.5t121.5 301.5t-122 302.5
t-296 125.5t-295 -125t-121 -303zM514 1657v174h569v-174h-569z" />
    <glyph glyph-name="omacron" unicode="&#x14d;" horiz-adv-x="1140" 
d="M74 481q0 146 67.5 260.5t180 175t247.5 60.5t248 -60.5t181.5 -175t68.5 -260.5t-68.5 -261t-181.5 -175.5t-248 -60.5t-247.5 60.5t-180 175t-67.5 261.5zM285 1202v174h569v-174h-569zM354 481q0 -97 62.5 -158t152.5 -61q92 0 154.5 60.5t62.5 158.5q0 95 -63 156
t-154 61q-90 0 -152.5 -61t-62.5 -156z" />
    <glyph glyph-name="Obreve" unicode="&#x14e;" horiz-adv-x="1599" 
d="M84 702q0 198 95 364.5t259.5 263.5t360.5 97q197 0 362 -97t260 -263.5t95 -364.5q0 -196 -95 -362t-260 -263t-362 -97q-147 0 -279.5 57.5t-228 154.5t-151.5 230.5t-56 279.5zM383 702q0 -177 121 -301.5t295 -124.5q175 0 296.5 124.5t121.5 301.5t-122 302.5
t-296 125.5t-295 -125t-121 -303zM524 1866h174q0 -109 101 -109q50 0 74 31t24 78h178q0 -121 -77 -195t-199 -74q-90 0 -154 40t-92.5 99.5t-28.5 129.5z" />
    <glyph glyph-name="obreve" unicode="&#x14f;" horiz-adv-x="1140" 
d="M74 481q0 146 67.5 260.5t180 175t247.5 60.5t248 -60.5t181.5 -175t68.5 -260.5t-68.5 -261t-181.5 -175.5t-248 -60.5t-247.5 60.5t-180 175t-67.5 261.5zM295 1411h174q0 -54 23.5 -81t76.5 -27q51 0 75 30.5t24 77.5h178q0 -121 -77.5 -194.5t-199.5 -73.5
q-90 0 -153.5 39.5t-92 98.5t-28.5 130zM354 481q0 -97 62.5 -158t152.5 -61q92 0 154.5 60.5t62.5 158.5q0 95 -63 156t-154 61q-90 0 -152.5 -61t-62.5 -156z" />
    <glyph glyph-name="Ohungarumlaut" unicode="&#x150;" horiz-adv-x="1599" 
d="M84 702q0 198 95 364.5t259.5 263.5t360.5 97q197 0 362 -97t260 -263.5t95 -364.5q0 -196 -95 -362t-260 -263t-362 -97q-147 0 -279.5 57.5t-228 154.5t-151.5 230.5t-56 279.5zM383 702q0 -177 121 -301.5t295 -124.5q175 0 296.5 124.5t121.5 301.5t-122 302.5
t-296 125.5t-295 -125t-121 -303zM549 1556l225 345h227l-247 -345h-205zM850 1556l252 345h233l-270 -345h-215z" />
    <glyph glyph-name="ohungarumlaut" unicode="&#x151;" horiz-adv-x="1140" 
d="M74 481q0 146 67.5 260.5t180 175t247.5 60.5t248 -60.5t181.5 -175t68.5 -260.5t-68.5 -261t-181.5 -175.5t-248 -60.5t-247.5 60.5t-180 175t-67.5 261.5zM315 1102l226 344h227l-248 -344h-205zM354 481q0 -97 62.5 -158t152.5 -61q92 0 154.5 60.5t62.5 158.5
q0 95 -63 156t-154 61q-90 0 -152.5 -61t-62.5 -156zM616 1102l252 344h234l-271 -344h-215z" />
    <glyph glyph-name="OE" unicode="&#x152;" horiz-adv-x="2234" 
d="M84 702q0 198 95 364.5t259.5 263.5t360.5 97q256 0 422 -157v141h893v-264h-594v-322h520v-260h-520v-301h612v-264h-911v137q-177 -157 -422 -157q-147 0 -279.5 57.5t-228 154.5t-151.5 230.5t-56 279.5zM383 702q0 -177 121 -301.5t295 -124.5q175 0 296.5 124.5
t121.5 301.5t-122 302.5t-296 125.5t-295 -125t-121 -303z" />
    <glyph glyph-name="oe" unicode="&#x153;" horiz-adv-x="1845" 
d="M74 481q0 146 67.5 260.5t180 175t247.5 60.5q104 0 198 -38.5t163 -107.5q68 70 162 108t200 38q101 0 191 -37t156 -102t104.5 -159.5t38.5 -205.5q0 -38 -4 -88h-701q10 -77 80.5 -118.5t155.5 -41.5q62 0 118.5 23t90.5 67l207 -141q-67 -100 -185 -147t-252 -47
q-106 0 -200 39t-164 110q-68 -69 -161.5 -107t-197.5 -38q-135 0 -247.5 60.5t-180 175t-67.5 261.5zM354 481q0 -97 62.5 -158t152.5 -61q92 0 154.5 60.5t62.5 158.5q0 95 -63 156t-154 61q-90 0 -152.5 -61t-62.5 -156zM1081 563h414q-10 81 -70.5 122.5t-130.5 41.5
t-133 -40.5t-80 -123.5z" />
    <glyph glyph-name="Racute" unicode="&#x154;" horiz-adv-x="1304" 
d="M166 0v1411h577q115 0 207 -39.5t148 -106t85 -147.5t29 -170q0 -161 -90 -286.5t-262 -161.5l350 -500h-360l-315 487h-68v-487h-301zM467 750h254q82 0 130 61t48 137q0 74 -45.5 136.5t-124.5 62.5h-262v-397zM473 1559l225 344h283l-303 -344h-205z" />
    <glyph glyph-name="racute" unicode="&#x155;" horiz-adv-x="866" 
d="M131 0v956h285v-231q34 124 111 188t159 64q96 0 164 -35l-51 -256q-59 29 -146 29q-122 0 -179.5 -95t-57.5 -286v-334h-285zM147 1104l226 344h282l-303 -344h-205z" />
    <glyph glyph-name="Rcommaaccent" unicode="&#x156;" horiz-adv-x="1304" 
d="M166 0v1411h577q115 0 207 -39.5t148 -106t85 -147.5t29 -170q0 -161 -90 -286.5t-262 -161.5l350 -500h-360l-315 487h-68v-487h-301zM446 -516q67 94 93.5 180t25.5 221h240q-24 -311 -219 -473zM467 750h254q82 0 130 61t48 137q0 74 -45.5 136.5t-124.5 62.5h-262
v-397z" />
    <glyph glyph-name="rcommaaccent" unicode="&#x157;" horiz-adv-x="866" 
d="M39 -516q67 94 93.5 180t25.5 221h239q-24 -311 -219 -473zM131 0v956h285v-231q34 124 111 188t159 64q96 0 164 -35l-51 -256q-59 29 -146 29q-122 0 -179.5 -95t-57.5 -286v-334h-285z" />
    <glyph glyph-name="Rcaron" unicode="&#x158;" horiz-adv-x="1304" 
d="M166 0v1411h577q115 0 207 -39.5t148 -106t85 -147.5t29 -170q0 -161 -90 -286.5t-262 -161.5l350 -500h-360l-315 487h-68v-487h-301zM279 1901h204l160 -183l162 183h205l-226 -345h-282zM467 750h254q82 0 130 61t48 137q0 74 -45.5 136.5t-124.5 62.5h-262v-397z" />
    <glyph glyph-name="rcaron" unicode="&#x159;" horiz-adv-x="866" 
d="M84 1446h205l160 -182l161 182h205l-225 -344h-283zM131 0v956h285v-231q34 124 111 188t159 64q96 0 164 -35l-51 -256q-59 29 -146 29q-122 0 -179.5 -95t-57.5 -286v-334h-285z" />
    <glyph glyph-name="Sacute" unicode="&#x15a;" horiz-adv-x="1191" 
d="M90 414h301q3 -72 58.5 -121t152.5 -49q92 0 149 40.5t58 108.5q2 53 -34 92t-136 68l-170 47q-365 113 -365 406q0 186 140 303.5t346 117.5q209 0 343 -117t134 -315h-299q0 72 -47.5 116t-134.5 44q-79 0 -131 -39.5t-52 -101.5q0 -101 152 -144l168 -53
q396 -114 387 -426q-1 -102 -45.5 -183t-117 -130t-161 -75t-184.5 -26q-229 0 -370.5 122.5t-141.5 314.5zM465 1559l225 344h283l-303 -344h-205z" />
    <glyph glyph-name="sacute" unicode="&#x15b;" horiz-adv-x="956" 
d="M74 309h266q2 -43 43 -76.5t98 -33.5q49 2 83 23.5t34 56.5q0 31 -21 49.5t-73 31.5l-125 33q-82 22 -140 55t-86 62.5t-43 70t-17 64.5t-1 60q2 107 113 189.5t260 82.5q59 0 113.5 -10.5t106 -34.5t89 -60t60.5 -90.5t24 -122.5h-268q-2 84 -109 84q-46 0 -73.5 -19.5
t-26.5 -51.5q4 -52 84 -72l162 -43q66 -18 115.5 -47.5t76 -59.5t43 -65t21 -59.5t4.5 -46.5q0 -73 -36 -132t-96 -94.5t-132.5 -54t-149.5 -18.5q-59 0 -116 13.5t-108 41t-90 66t-61.5 92.5t-23.5 116zM346 1104l225 344h283l-303 -344h-205z" />
    <glyph glyph-name="Scircumflex" unicode="&#x15c;" horiz-adv-x="1191" 
d="M90 414h301q3 -72 58.5 -121t152.5 -49q92 0 149 40.5t58 108.5q2 53 -34 92t-136 68l-170 47q-365 113 -365 406q0 186 140 303.5t346 117.5q209 0 343 -117t134 -315h-299q0 72 -47.5 116t-134.5 44q-79 0 -131 -39.5t-52 -101.5q0 -101 152 -144l168 -53
q396 -114 387 -426q-1 -102 -45.5 -183t-117 -130t-161 -75t-184.5 -26q-229 0 -370.5 122.5t-141.5 314.5zM236 1567l223 344h282l226 -344h-205l-162 182l-160 -182h-204z" />
    <glyph glyph-name="scircumflex" unicode="&#x15d;" horiz-adv-x="956" 
d="M74 309h266q2 -43 43 -76.5t98 -33.5q49 2 83 23.5t34 56.5q0 31 -21 49.5t-73 31.5l-125 33q-82 22 -140 55t-86 62.5t-43 70t-17 64.5t-1 60q2 107 113 189.5t260 82.5q59 0 113.5 -10.5t106 -34.5t89 -60t60.5 -90.5t24 -122.5h-268q-2 84 -109 84q-46 0 -73.5 -19.5
t-26.5 -51.5q4 -52 84 -72l162 -43q66 -18 115.5 -47.5t76 -59.5t43 -65t21 -59.5t4.5 -46.5q0 -73 -36 -132t-96 -94.5t-132.5 -54t-149.5 -18.5q-59 0 -116 13.5t-108 41t-90 66t-61.5 92.5t-23.5 116zM115 1112l223 344h283l225 -344h-205l-162 182l-160 -182h-204z" />
    <glyph glyph-name="Scedilla" unicode="&#x15e;" horiz-adv-x="1189" 
d="M88 414h301q3 -72 58.5 -121t152.5 -49q92 0 149 40.5t58 108.5q2 53 -34 92t-136 68l-170 47q-365 113 -365 406q0 186 140 303.5t346 117.5q209 0 343 -117t134 -315h-299q0 72 -47.5 116t-134.5 44q-79 0 -131 -39.5t-52 -101.5q0 -101 152 -144l168 -53
q396 -114 387 -426q-1 -85 -32 -155.5t-84 -119t-120 -80.5t-145 -46l68 -125q20 -33 20 -101q0 -86 -65 -148t-154 -62q-61 0 -114.5 35.5t-80.5 97.5q-11 26 -14 48.5t-2 71.5l158 -8q-4 -26 2 -53q9 -24 31.5 -34.5t48.5 -4.5q24 10 32.5 35t-2.5 51l-67 184
q-225 4 -362.5 125.5t-137.5 311.5z" />
    <glyph glyph-name="scedilla" unicode="&#x15f;" horiz-adv-x="958" 
d="M74 309h266q2 -43 43 -76.5t98 -33.5q49 2 83 23.5t34 56.5q0 31 -21 49.5t-73 31.5l-125 33q-82 22 -140 55t-86 62.5t-43 70t-17 64.5t-1 60q2 107 113 189.5t260 82.5q59 0 113.5 -10.5t106 -34.5t89 -60t60.5 -90.5t24 -122.5h-268q-2 84 -109 84q-46 0 -73.5 -19.5
t-26.5 -51.5q4 -52 84 -72l162 -43q66 -18 115.5 -47.5t76 -59.5t43 -65t21 -59.5t4.5 -46.5q0 -112 -79 -185t-202 -100l70 -129q20 -33 20 -101q0 -86 -65 -148t-154 -62q-61 0 -114 35.5t-80 97.5q-11 27 -14.5 49.5t-2.5 70.5l158 -8q-4 -26 2 -53q9 -24 31.5 -34.5
t48.5 -4.5q24 10 33 35t-2 51l-70 187q-99 1 -187 38t-146.5 113.5t-59.5 177.5z" />
    <glyph glyph-name="Scaron" unicode="&#x160;" horiz-adv-x="1191" 
d="M90 414h301q3 -72 58.5 -121t152.5 -49q92 0 149 40.5t58 108.5q2 53 -34 92t-136 68l-170 47q-365 113 -365 406q0 186 140 303.5t346 117.5q209 0 343 -117t134 -315h-299q0 72 -47.5 116t-134.5 44q-79 0 -131 -39.5t-52 -101.5q0 -101 152 -144l168 -53
q396 -114 387 -426q-1 -102 -45.5 -183t-117 -130t-161 -75t-184.5 -26q-229 0 -370.5 122.5t-141.5 314.5zM236 1901h204l160 -183l162 183h205l-226 -345h-282z" />
    <glyph glyph-name="scaron" unicode="&#x161;" horiz-adv-x="956" 
d="M74 309h266q2 -43 43 -76.5t98 -33.5q49 2 83 23.5t34 56.5q0 31 -21 49.5t-73 31.5l-125 33q-82 22 -140 55t-86 62.5t-43 70t-17 64.5t-1 60q2 107 113 189.5t260 82.5q59 0 113.5 -10.5t106 -34.5t89 -60t60.5 -90.5t24 -122.5h-268q-2 84 -109 84q-46 0 -73.5 -19.5
t-26.5 -51.5q4 -52 84 -72l162 -43q66 -18 115.5 -47.5t76 -59.5t43 -65t21 -59.5t4.5 -46.5q0 -73 -36 -132t-96 -94.5t-132.5 -54t-149.5 -18.5q-59 0 -116 13.5t-108 41t-90 66t-61.5 92.5t-23.5 116zM115 1446h204l160 -182l162 182h205l-225 -344h-283z" />
    <glyph glyph-name="Tcommaaccent" unicode="&#x162;" horiz-adv-x="1179" 
d="M57 1141v270h1065v-270h-381v-1141h-303v1141h-381zM356 -516q67 94 93.5 180t25.5 221h240q-24 -311 -219 -473z" />
    <glyph glyph-name="tcommaaccent" unicode="&#x163;" horiz-adv-x="747" 
d="M47 731v225h174v367h283v-367h201v-225h-201v-731h-283v731h-174zM127 -516q67 94 93.5 180t25.5 221h239q-24 -311 -219 -473z" />
    <glyph glyph-name="Tcaron" unicode="&#x164;" horiz-adv-x="1179" 
d="M57 1141v270h1065v-270h-381v-1141h-303v1141h-381zM225 1901h205l160 -183l162 183h204l-225 -345h-282z" />
    <glyph glyph-name="tcaron" unicode="&#x165;" horiz-adv-x="747" 
d="M47 731v225h174v367h283v-367h201v-225h-201v-731h-283v731h-174zM592 1141q67 94 93.5 180t25.5 221h239q-24 -311 -219 -473z" />
    <glyph glyph-name="Tbar" unicode="&#x166;" horiz-adv-x="1179" 
d="M57 1141v270h1065v-270h-381v-1141h-303v1141h-381zM305 1657v174h569v-174h-569z" />
    <glyph glyph-name="tbar" unicode="&#x167;" horiz-adv-x="749" 
d="M47 731v225h174v367h283v-367h201v-225h-201v-199h143v-157h-143v-375h-283v375h-108v157h108v199h-174z" />
    <glyph glyph-name="Utilde" unicode="&#x168;" horiz-adv-x="1396" 
d="M152 504v907h305v-907q0 -106 72 -174t171 -68q98 0 171 68.5t73 173.5v907h301v-907q0 -155 -76.5 -276t-200 -184.5t-268.5 -63.5q-146 0 -270.5 63.5t-201 184.5t-76.5 276zM401 1608q7 137 68.5 201.5t138.5 64.5q37 0 71 -21t61 -42t46 -21q16 0 34.5 20.5
t19.5 63.5h153q-3 -72 -24 -125.5t-52.5 -81.5t-64.5 -41.5t-66 -13.5q-34 0 -68.5 21t-62.5 42t-47 21q-15 0 -33.5 -22.5t-19.5 -65.5h-154z" />
    <glyph glyph-name="utilde" unicode="&#x169;" 
d="M121 385v571h285v-510q0 -54 16.5 -93.5t43.5 -59t54 -28.5t55 -9q74 0 123.5 47t49.5 148v505h284v-956h-284v131q-37 -70 -106.5 -110.5t-141.5 -40.5q-169 0 -274 104t-105 301zM301 1153q7 137 68.5 201.5t138.5 64.5q37 0 71 -21t61 -42t46 -21q16 0 34 20.5
t19 63.5h154q-3 -72 -24 -125.5t-52.5 -81.5t-64.5 -41.5t-66 -13.5q-34 0 -68.5 21t-62.5 42t-47 21q-15 0 -33.5 -22.5t-19.5 -65.5h-154z" />
    <glyph glyph-name="Umacron" unicode="&#x16a;" horiz-adv-x="1396" 
d="M152 504v907h305v-907q0 -106 72 -174t171 -68q98 0 171 68.5t73 173.5v907h301v-907q0 -155 -76.5 -276t-200 -184.5t-268.5 -63.5q-146 0 -270.5 63.5t-201 184.5t-76.5 276zM414 1657v174h569v-174h-569z" />
    <glyph glyph-name="umacron" unicode="&#x16b;" 
d="M121 385v571h285v-510q0 -54 16.5 -93.5t43.5 -59t54 -28.5t55 -9q74 0 123.5 47t49.5 148v505h284v-956h-284v131q-37 -70 -106.5 -110.5t-141.5 -40.5q-169 0 -274 104t-105 301zM311 1202v174h570v-174h-570z" />
    <glyph glyph-name="Ubreve" unicode="&#x16c;" horiz-adv-x="1396" 
d="M152 504v907h305v-907q0 -106 72 -174t171 -68q98 0 171 68.5t73 173.5v907h301v-907q0 -155 -76.5 -276t-200 -184.5t-268.5 -63.5q-146 0 -270.5 63.5t-201 184.5t-76.5 276zM422 1866h174q0 -109 100 -109q51 0 75 31t24 78h178q0 -121 -77.5 -195t-199.5 -74
q-68 0 -121.5 23t-86 61.5t-49.5 85.5t-17 99z" />
    <glyph glyph-name="ubreve" unicode="&#x16d;" 
d="M121 385v571h285v-510q0 -54 16.5 -93.5t43.5 -59t54 -28.5t55 -9q74 0 123.5 47t49.5 148v505h284v-956h-284v131q-37 -70 -106.5 -110.5t-141.5 -40.5q-169 0 -274 104t-105 301zM322 1411h174q0 -54 23.5 -81t76.5 -27q51 0 74.5 30.5t23.5 77.5h178
q0 -121 -77 -194.5t-199 -73.5q-90 0 -153.5 39.5t-92 98.5t-28.5 130z" />
    <glyph glyph-name="Uring" unicode="&#x16e;" horiz-adv-x="1396" 
d="M152 504v907h305v-907q0 -106 72 -174t171 -68q98 0 171 68.5t73 173.5v907h301v-907q0 -155 -76.5 -276t-200 -184.5t-268.5 -63.5q-146 0 -270.5 63.5t-201 184.5t-76.5 276zM451 1804q0 106 71 179t174 73q104 0 177 -73t73 -179q0 -103 -73 -174t-177 -71
q-103 0 -174 71t-71 174zM584 1804q0 -47 32.5 -79.5t79.5 -32.5q49 0 83 32.5t34 79.5q0 51 -33.5 85t-83.5 34q-47 0 -79.5 -34t-32.5 -85z" />
    <glyph glyph-name="uring" unicode="&#x16f;" 
d="M121 385v571h285v-510q0 -54 16.5 -93.5t43.5 -59t54 -28.5t55 -9q74 0 123.5 47t49.5 148v505h284v-956h-284v131q-37 -70 -106.5 -110.5t-141.5 -40.5q-169 0 -274 104t-105 301zM348 1350q0 106 71.5 179t174.5 73q104 0 177 -73t73 -179q0 -103 -73 -174.5
t-177 -71.5q-103 0 -174.5 71.5t-71.5 174.5zM481 1350q0 -47 33 -80t80 -33q49 0 83 33t34 80q0 51 -33.5 84.5t-83.5 33.5q-48 0 -80.5 -33.5t-32.5 -84.5z" />
    <glyph glyph-name="Uhungarumlaut" unicode="&#x170;" horiz-adv-x="1396" 
d="M152 504v907h305v-907q0 -106 72 -174t171 -68q98 0 171 68.5t73 173.5v907h301v-907q0 -155 -76.5 -276t-200 -184.5t-268.5 -63.5q-146 0 -270.5 63.5t-201 184.5t-76.5 276zM379 1556l225 345h227l-247 -345h-205zM680 1556l252 345h233l-270 -345h-215z" />
    <glyph glyph-name="uhungarumlaut" unicode="&#x171;" 
d="M121 385v571h285v-510q0 -54 16.5 -93.5t43.5 -59t54 -28.5t55 -9q74 0 123.5 47t49.5 148v505h284v-956h-284v131q-37 -70 -106.5 -110.5t-141.5 -40.5q-169 0 -274 104t-105 301zM281 1102l225 344h227l-248 -344h-204zM582 1102l252 344h233l-270 -344h-215z" />
    <glyph glyph-name="Uogonek" unicode="&#x172;" horiz-adv-x="1400" 
d="M154 504v907h305v-907q0 -106 72 -174t171 -68q98 0 171 68.5t73 173.5v907h301v-907q0 -110 -39.5 -205t-106.5 -161t-156 -106.5t-189 -49.5l-70 -189q-10 -26 -1.5 -51t32.5 -35q26 -6 48.5 4.5t31.5 34.5q3 12 3.5 25t-0.5 21l-1 7l157 8q1 -49 -2 -71.5t-14 -48.5
q-27 -62 -80.5 -97.5t-114.5 -35.5q-89 0 -154 62t-65 148q0 55 21 101l65 123q-197 29 -327.5 168.5t-130.5 347.5z" />
    <glyph glyph-name="uogonek" unicode="&#x173;" 
d="M121 385v571h285v-510q0 -54 16.5 -93.5t43.5 -59t54 -28.5t55 -9q74 0 123.5 47t49.5 148v505h284v-956h-143l-76 -207q-10 -26 -1.5 -51t32.5 -35q26 -6 48.5 4.5t31.5 34.5q3 12 3.5 25t-0.5 21l-1 7l157 8q1 -49 -2 -71.5t-14 -48.5q-27 -62 -80.5 -97.5
t-114.5 -35.5q-89 0 -154 62t-65 148q0 55 21 101l74 135v131q-37 -70 -106.5 -110.5t-141.5 -40.5q-169 0 -274 104t-105 301z" />
    <glyph glyph-name="Wcircumflex" unicode="&#x174;" horiz-adv-x="1814" 
d="M-2 1411h324l274 -889l188 690h246l187 -690l276 889h326l-480 -1411h-235l-199 741l-194 -741h-238zM543 1567l223 344h283l225 -344h-205l-162 182l-159 -182h-205z" />
    <glyph glyph-name="wcircumflex" unicode="&#x175;" horiz-adv-x="1562" 
d="M16 956h303l170 -569l168 569h244l168 -569l170 569h303l-336 -956h-237l-189 608l-180 -608h-238zM414 1112l223 344h283l225 -344h-205l-162 182l-160 -182h-204z" />
    <glyph glyph-name="Ycircumflex" unicode="&#x176;" horiz-adv-x="1333" 
d="M-31 1411h357l340 -528l344 528h356l-547 -776v-635h-305v639zM301 1567l223 344h283l225 -344h-205l-161 182l-160 -182h-205z" />
    <glyph glyph-name="ycircumflex" unicode="&#x177;" horiz-adv-x="1044" 
d="M6 956h303l211 -542l213 542h303l-590 -1425h-301l230 567zM162 1112l223 344h283l225 -344h-205l-162 182l-159 -182h-205z" />
    <glyph glyph-name="Ydieresis" unicode="&#x178;" horiz-adv-x="1333" 
d="M-31 1411h357l340 -528l344 528h356l-547 -776v-635h-305v639zM338 1761q0 58 43.5 99t105.5 41q60 0 103 -41t43 -99q0 -60 -43 -100.5t-103 -40.5q-62 0 -105.5 40.5t-43.5 100.5zM700 1761q0 58 44 99t106 41q60 0 102.5 -41t42.5 -99q0 -60 -42.5 -100.5
t-102.5 -40.5q-62 0 -106 41t-44 100z" />
    <glyph glyph-name="Zacute" unicode="&#x179;" horiz-adv-x="1218" 
d="M86 0v227l645 920h-618v264h1007v-227l-651 -920h651v-264h-1034zM461 1559l225 344h283l-303 -344h-205z" />
    <glyph glyph-name="zacute" unicode="&#x17a;" horiz-adv-x="1044" 
d="M84 0v211l451 483h-422v262h833v-213l-459 -481h459v-262h-862zM383 1104l225 344h283l-303 -344h-205z" />
    <glyph glyph-name="Zdotaccent" unicode="&#x17b;" horiz-adv-x="1218" 
d="M86 0v227l645 920h-618v264h1007v-227l-651 -920h651v-264h-1034zM444 1776q0 64 46 107.5t112 43.5t112 -43.5t46 -107.5q0 -67 -45.5 -110.5t-112.5 -43.5t-112.5 43.5t-45.5 110.5z" />
    <glyph glyph-name="zdotaccent" unicode="&#x17c;" horiz-adv-x="1044" 
d="M84 0v211l451 483h-422v262h833v-213l-459 -481h459v-262h-862zM356 1321q0 64 46 108t112 44t112 -44t46 -108q0 -67 -45.5 -110.5t-112.5 -43.5t-112.5 43.5t-45.5 110.5z" />
    <glyph glyph-name="Zcaron" unicode="&#x17d;" horiz-adv-x="1218" 
d="M86 0v227l645 920h-618v264h1007v-227l-651 -920h651v-264h-1034zM238 1901h204l160 -183l162 183h205l-226 -345h-282z" />
    <glyph glyph-name="zcaron" unicode="&#x17e;" horiz-adv-x="1044" 
d="M84 0v211l451 483h-422v262h833v-213l-459 -481h459v-262h-862zM150 1446h204l160 -182l162 182h205l-226 -344h-282z" />
    <glyph glyph-name="longs" unicode="&#x17f;" horiz-adv-x="686" 
d="M47 731v225h180v66q0 219 113 337t319 118h105v-273h-105q-72 0 -108.5 -47.5t-36.5 -134.5v-1022h-287v731h-180z" />
    <glyph glyph-name="florin" unicode="&#x192;" horiz-adv-x="1284" 
d="M61 -393l56 272h104q72 0 117 47.5t63 134.5l136 670h-181l45 225h181l14 66q43 219 179.5 337t342.5 118h105l-54 -273h-104q-72 0 -118 -47.5t-64 -134.5l-15 -66h193l-45 -225h-193l-149 -747q-36 -176 -176.5 -276.5t-331.5 -100.5h-105z" />
    <glyph glyph-name="Aringacute" unicode="&#x1fa;" horiz-adv-x="1349" 
d="M-12 0l524 1411h326l522 -1411h-316l-124 334h-488l-125 -334h-319zM430 1786q0 85 49 151.5t125 90.5l166 251h283l-246 -278q55 -34 87 -90.5t32 -124.5q0 -103 -73 -174.5t-177 -71.5q-103 0 -174.5 71.5t-71.5 174.5zM530 594h293l-149 491zM563 1786q0 -47 33 -80
t80 -33q49 0 83 33t34 80q0 51 -33.5 85t-83.5 34q-48 0 -80.5 -34t-32.5 -85z" />
    <glyph glyph-name="aringacute" unicode="&#x1fb;" horiz-adv-x="1253" 
d="M74 479q0 111 41.5 206.5t110.5 158t156 98t179 35.5q39 0 83.5 -8.5t103 -39t92.5 -79.5v106h282v-956h-282v109q-41 -62 -125.5 -94.5t-153.5 -32.5q-124 0 -234 59t-181.5 174.5t-71.5 263.5zM369 479q0 -99 72.5 -163t166.5 -64q93 0 162.5 62.5t69.5 164.5
q0 103 -69.5 165.5t-162.5 62.5q-94 0 -166.5 -64.5t-72.5 -163.5zM381 1350q0 85 49 151t125 90l166 252h283l-246 -278q55 -34 87 -90.5t32 -124.5q0 -103 -73 -174.5t-177 -71.5q-103 0 -174.5 71.5t-71.5 174.5zM514 1350q0 -47 33 -80t80 -33q49 0 82.5 33t33.5 80
q0 51 -33 84.5t-83 33.5q-48 0 -80.5 -33.5t-32.5 -84.5z" />
    <glyph glyph-name="AEacute" unicode="&#x1fc;" horiz-adv-x="1912" 
d="M-43 0l891 1411h944v-264h-594v-322h520v-260h-520v-301h612v-264h-911v2l-2 -2v324h-377l-205 -324h-358zM690 612h207v398zM913 1559l226 344h282l-303 -344h-205z" />
    <glyph glyph-name="aeacute" unicode="&#x1fd;" horiz-adv-x="1986" 
d="M74 479q0 111 41.5 206.5t110.5 158t156 98t179 35.5q39 0 83.5 -8.5t103 -39t92.5 -79.5v106h282v-79q137 100 312 100q101 0 191 -37t155.5 -102t104 -159.5t38.5 -205.5q0 -38 -4 -88h-700q10 -77 80.5 -118.5t154.5 -41.5q62 0 118.5 23t90.5 67l207 -141
q-67 -100 -184.5 -147t-251.5 -47q-179 0 -312 102v-82h-282v109q-41 -62 -125.5 -94.5t-153.5 -32.5q-124 0 -234 59t-181.5 174.5t-71.5 263.5zM369 479q0 -99 72.5 -163t166.5 -64q93 0 162.5 62.5t69.5 164.5q0 103 -69.5 165.5t-162.5 62.5q-94 0 -166.5 -64.5
t-72.5 -163.5zM883 1104l225 344h283l-304 -344h-204zM1223 563h413q-10 81 -70.5 122.5t-129.5 41.5q-70 0 -133 -40.5t-80 -123.5z" />
    <glyph glyph-name="Oslashacute" unicode="&#x1fe;" horiz-adv-x="1595" 
d="M82 702q0 198 95 364.5t259.5 263.5t360.5 97q261 0 456 -165l162 165l96 -94l-163 -168q165 -202 165 -463q0 -147 -56 -280t-151 -230t-228 -154.5t-281 -57.5q-253 0 -447 157l-2 -2l-164 -168l-96 96l164 168q-170 204 -170 471zM381 702q0 -143 80 -256l583 601
q-106 83 -247 83q-174 0 -295 -125t-121 -303zM557 352q105 -76 240 -76q174 0 295.5 124.5t121.5 301.5q0 136 -77 246zM700 1559l226 344h282l-303 -344h-205z" />
    <glyph glyph-name="oslashacute" unicode="&#x1ff;" horiz-adv-x="1140" 
d="M66 45l114 119q-106 128 -106 317q0 146 67.5 260.5t180 175t247.5 60.5q167 0 308 -103l106 111l96 -94l-108 -111q96 -130 96 -299q0 -146 -68.5 -261t-181.5 -175.5t-248 -60.5q-160 0 -288 86l-119 -121zM354 481q0 -63 27 -110l293 299q-54 28 -105 28
q-90 0 -152.5 -61t-62.5 -156zM418 1104l225 344h283l-303 -344h-205zM483 279q38 -17 86 -17q92 0 154.5 60.5t62.5 158.5q0 41 -18 90z" />
    <glyph glyph-name="Scommaaccent" unicode="&#x218;" horiz-adv-x="1191" 
d="M90 414h301q3 -72 58.5 -121t152.5 -49q92 0 149 40.5t58 108.5q2 53 -34 92t-136 68l-170 47q-365 113 -365 406q0 186 140 303.5t346 117.5q209 0 343 -117t134 -315h-299q0 72 -47.5 116t-134.5 44q-79 0 -131 -39.5t-52 -101.5q0 -101 152 -144l168 -53
q396 -114 387 -426q-1 -102 -45.5 -183t-117 -130t-161 -75t-184.5 -26q-229 0 -370.5 122.5t-141.5 314.5zM358 -516q67 94 93.5 180t25.5 221h240q-24 -311 -219 -473z" />
    <glyph glyph-name="scommaaccent" unicode="&#x219;" horiz-adv-x="956" 
d="M74 309h266q2 -43 43 -76.5t98 -33.5q49 2 83 23.5t34 56.5q0 31 -21 49.5t-73 31.5l-125 33q-82 22 -140 55t-86 62.5t-43 70t-17 64.5t-1 60q2 107 113 189.5t260 82.5q59 0 113.5 -10.5t106 -34.5t89 -60t60.5 -90.5t24 -122.5h-268q-2 84 -109 84q-46 0 -73.5 -19.5
t-26.5 -51.5q4 -52 84 -72l162 -43q66 -18 115.5 -47.5t76 -59.5t43 -65t21 -59.5t4.5 -46.5q0 -73 -36 -132t-96 -94.5t-132.5 -54t-149.5 -18.5q-59 0 -116 13.5t-108 41t-90 66t-61.5 92.5t-23.5 116zM260 -516q67 94 93.5 180t25.5 221h239q-24 -311 -219 -473z" />
    <glyph glyph-name="circumflex" unicode="&#x2c6;" horiz-adv-x="1161" 
d="M215 1112l223 344h283l225 -344h-205l-161 182l-160 -182h-205z" />
    <glyph glyph-name="caron" unicode="&#x2c7;" horiz-adv-x="1161" 
d="M215 1446h205l160 -182l161 182h205l-225 -344h-283z" />
    <glyph glyph-name="breve" unicode="&#x2d8;" horiz-adv-x="1042" 
d="M246 1411h174q0 -54 23.5 -81t76.5 -27q51 0 74.5 30.5t23.5 77.5h179q0 -121 -77.5 -194.5t-199.5 -73.5q-90 0 -153.5 39.5t-92 98.5t-28.5 130z" />
    <glyph glyph-name="dotaccent" unicode="&#x2d9;" horiz-adv-x="790" 
d="M238 1321q0 64 45.5 108t111.5 44t112 -44t46 -108q0 -67 -45.5 -110.5t-112.5 -43.5t-112 43.5t-45 110.5z" />
    <glyph glyph-name="ring" unicode="&#x2da;" horiz-adv-x="1150" 
d="M328 1350q0 106 71 179t174 73q104 0 177 -73t73 -179q0 -103 -73 -174.5t-177 -71.5q-103 0 -174 71.5t-71 174.5zM461 1350q0 -47 32.5 -80t79.5 -33q49 0 83 33t34 80q0 51 -33.5 84.5t-83.5 33.5q-48 0 -80 -33.5t-32 -84.5z" />
    <glyph glyph-name="ogonek" unicode="&#x2db;" horiz-adv-x="1087" 
d="M328 -236q0 58 20 101l103 190h133l-97 -262q-11 -26 -2 -51t33 -35q26 -6 48.5 4.5t31.5 34.5q3 12 3.5 25t-0.5 21l-1 7l158 8q1 -48 -2.5 -70.5t-14.5 -49.5q-27 -62 -80 -97.5t-114 -35.5q-89 0 -154 62t-65 148z" />
    <glyph glyph-name="tilde" unicode="&#x2dc;" horiz-adv-x="919" 
d="M160 1153q7 137 68.5 201.5t138.5 64.5q37 0 71 -21t61 -42t46 -21q16 0 34 20.5t19 63.5h154q-3 -72 -24 -125.5t-52.5 -81.5t-64.5 -41.5t-66 -13.5q-34 0 -68.5 21t-62.5 42t-47 21q-15 0 -34 -22.5t-20 -65.5h-153z" />
    <glyph glyph-name="hungarumlaut" unicode="&#x2dd;" horiz-adv-x="1114" 
d="M164 1102l225 344h227l-247 -344h-205zM465 1102l252 344h233l-270 -344h-215z" />
    <glyph glyph-name="Wgrave" unicode="&#x1e80;" horiz-adv-x="1814" 
d="M-2 1411h324l274 -889l188 690h246l187 -690l276 889h326l-480 -1411h-235l-199 741l-194 -741h-238zM530 1903h283l225 -344h-204z" />
    <glyph glyph-name="wgrave" unicode="&#x1e81;" horiz-adv-x="1562" 
d="M16 956h303l170 -569l168 569h244l168 -569l170 569h303l-336 -956h-237l-189 608l-180 -608h-238zM385 1448h283l225 -344h-205z" />
    <glyph glyph-name="Wacute" unicode="&#x1e82;" horiz-adv-x="1814" 
d="M-2 1411h324l274 -889l188 690h246l187 -690l276 889h326l-480 -1411h-235l-199 741l-194 -741h-238zM774 1559l225 344h283l-303 -344h-205z" />
    <glyph glyph-name="wacute" unicode="&#x1e83;" horiz-adv-x="1562" 
d="M16 956h303l170 -569l168 569h244l168 -569l170 569h303l-336 -956h-237l-189 608l-180 -608h-238zM653 1104l226 344h282l-303 -344h-205z" />
    <glyph glyph-name="Wdieresis" unicode="&#x1e84;" horiz-adv-x="1814" 
d="M-2 1411h324l274 -889l188 690h246l187 -690l276 889h326l-480 -1411h-235l-199 741l-194 -741h-238zM580 1761q0 58 43.5 99t105.5 41q60 0 102.5 -41t42.5 -99q0 -60 -42.5 -100.5t-102.5 -40.5q-62 0 -105.5 40.5t-43.5 100.5zM942 1761q0 58 44 99t106 41
q60 0 102.5 -41t42.5 -99q0 -60 -42.5 -100.5t-102.5 -40.5q-62 0 -106 41t-44 100z" />
    <glyph glyph-name="wdieresis" unicode="&#x1e85;" horiz-adv-x="1562" 
d="M16 956h303l170 -569l168 569h244l168 -569l170 569h303l-336 -956h-237l-189 608l-180 -608h-238zM451 1307q0 58 43.5 98.5t105.5 40.5q60 0 102.5 -40.5t42.5 -98.5q0 -60 -42.5 -101t-102.5 -41q-62 0 -105.5 41t-43.5 101zM813 1307q0 58 44 98.5t106 40.5
q60 0 102.5 -40.5t42.5 -98.5q0 -60 -42.5 -101t-102.5 -41q-62 0 -106 41t-44 101z" />
    <glyph glyph-name="Ygrave" unicode="&#x1ef2;" horiz-adv-x="1333" 
d="M-31 1411h357l340 -528l344 528h356l-547 -776v-635h-305v639zM311 1903h283l225 -344h-205z" />
    <glyph glyph-name="ygrave" unicode="&#x1ef3;" horiz-adv-x="1044" 
d="M6 956h303l211 -542l213 542h303l-590 -1425h-301l230 567zM209 1448h283l225 -344h-205z" />
    <glyph glyph-name="uni2009" unicode="&#x2009;" horiz-adv-x="28" 
 />
    <glyph glyph-name="endash" unicode="&#x2013;" horiz-adv-x="1298" 
d="M123 354v254h1053v-254h-1053z" />
    <glyph glyph-name="emdash" unicode="&#x2014;" horiz-adv-x="1734" 
d="M123 354v254h1489v-254h-1489z" />
    <glyph glyph-name="quoteleft" unicode="&#x2018;" horiz-adv-x="575" 
d="M98 831q0 91 35.5 190.5t88.5 178.5t102.5 136.5t89.5 90.5l110 -63q-82 -115 -112 -174q-80 -157 -80 -359h-234z" />
    <glyph glyph-name="quoteright" unicode="&#x2019;" horiz-adv-x="557" 
d="M70 895q81 115 111 172q81 157 81 360h234q0 -91 -35.5 -190.5t-88.5 -178.5t-102.5 -136.5t-89.5 -90.5z" />
    <glyph glyph-name="quotesinglbase" unicode="&#x201a;" horiz-adv-x="524" 
d="M-25 -190q81 114 110 169q83 159 83 363h233q0 -74 -24 -154t-59.5 -146.5t-80 -127.5t-82.5 -102t-69 -66z" />
    <glyph glyph-name="quotedblleft" unicode="&#x201c;" horiz-adv-x="925" 
d="M98 831q0 91 35.5 190.5t88.5 178.5t102.5 136.5t89.5 90.5l110 -63q-82 -115 -112 -174q-80 -157 -80 -359h-234zM449 831q0 74 24 154t59.5 146.5t80 127.5t82.5 102t69 66l110 -63q-82 -115 -112 -174q-80 -158 -80 -359h-233z" />
    <glyph glyph-name="quotedblright" unicode="&#x201d;" horiz-adv-x="907" 
d="M70 895q81 115 111 172q81 157 81 360h234q0 -91 -35.5 -190.5t-88.5 -178.5t-102.5 -136.5t-89.5 -90.5zM420 895q81 115 111 172q81 157 81 360h234q0 -91 -35.5 -190.5t-88.5 -178.5t-102.5 -136.5t-89.5 -90.5z" />
    <glyph glyph-name="quotedblbase" unicode="&#x201e;" horiz-adv-x="874" 
d="M-25 -190q81 114 110 169q83 159 83 363h233q0 -74 -24 -154t-59.5 -146.5t-80 -127.5t-82.5 -102t-69 -66zM326 -190q81 115 111 172q81 157 81 360h234q0 -91 -35.5 -190.5t-88.5 -178.5t-102.5 -136.5t-89.5 -90.5z" />
    <glyph glyph-name="dagger" unicode="&#x2020;" horiz-adv-x="839" 
d="M78 877v200h215v334h254v-334h215v-200h-215v-1067h-254v1067h-215z" />
    <glyph glyph-name="daggerdbl" unicode="&#x2021;" horiz-adv-x="905" 
d="M111 268v199h215v410h-215v200h215v334h254v-334h215v-200h-215v-410h215v-199h-215v-458h-254v458h-215z" />
    <glyph glyph-name="bullet" unicode="&#x2022;" horiz-adv-x="999" 
d="M172 487q0 135 96.5 225.5t231.5 90.5t231 -90.5t96 -225.5t-96 -225t-231 -90q-136 0 -232 90t-96 225z" />
    <glyph glyph-name="ellipsis" unicode="&#x2026;" horiz-adv-x="1771" 
d="M109 152q0 73 51.5 121.5t124.5 48.5t125.5 -49t52.5 -121q0 -74 -52.5 -123t-125.5 -49t-124.5 49t-51.5 123zM709 152q0 73 51.5 121.5t124.5 48.5t125.5 -49t52.5 -121q0 -74 -52.5 -123t-125.5 -49t-124.5 49t-51.5 123zM1309 152q0 73 51.5 121.5t124.5 48.5
t125.5 -49t52.5 -121q0 -74 -52.5 -123t-125.5 -49t-124.5 49t-51.5 123z" />
    <glyph glyph-name="perthousand" unicode="&#x2030;" horiz-adv-x="2074" 
d="M76 1081q0 115 78.5 195t193.5 80q114 0 194.5 -80.5t80.5 -194.5q0 -115 -80 -193.5t-195 -78.5q-116 0 -194 78.5t-78 193.5zM242 1081q0 -46 30 -76t76 -30q45 0 77 30.5t32 75.5q0 44 -32.5 76.5t-76.5 32.5q-45 0 -75.5 -32t-30.5 -77zM305 0l660 1341h141
l-660 -1341h-141zM801 252q0 115 78.5 194.5t193.5 79.5q114 0 194.5 -80t80.5 -194q0 -115 -80 -193.5t-195 -78.5t-193.5 78t-78.5 194zM967 252q0 -46 30 -76.5t76 -30.5q45 0 77 31t32 76q0 44 -32.5 76t-76.5 32q-45 0 -75.5 -31.5t-30.5 -76.5zM1458 252q0 114 79 194
t194 80q114 0 194 -80t80 -194q0 -115 -79.5 -193.5t-194.5 -78.5q-116 0 -194.5 78.5t-78.5 193.5zM1624 252q0 -46 30.5 -76.5t76.5 -30.5q45 0 76.5 31t31.5 76q0 44 -32 76t-76 32q-45 0 -76 -31.5t-31 -76.5z" />
    <glyph glyph-name="guilsinglleft" unicode="&#x2039;" horiz-adv-x="671" 
d="M80 477l282 424h222l-283 -424l283 -424h-222z" />
    <glyph glyph-name="guilsinglright" unicode="&#x203a;" horiz-adv-x="671" 
d="M88 53l283 424l-283 424h221l283 -424l-283 -424h-221z" />
    <glyph glyph-name="fraction" unicode="&#x2044;" horiz-adv-x="368" 
d="M-369 -20l926 1388h168l-924 -1388h-170z" />
    <glyph glyph-name="uni2070" unicode="&#x2070;" horiz-adv-x="718" 
d="M70 1278q0 89 14 158.5t45.5 126.5t90 87.5t140.5 30.5q66 0 117 -20.5t83 -56t52.5 -88t28.5 -110t8 -128.5q0 -70 -8 -127t-28.5 -109t-52.5 -87.5t-83 -56.5t-117 -21q-290 0 -290 401zM233 1278q0 -242 127 -242q125 0 125 242q0 244 -125 244q-127 0 -127 -244z" />
    <glyph glyph-name="uni2074" unicode="&#x2074;" horiz-adv-x="700" 
d="M12 1063l367 604h172v-465h98v-139h-98v-174h-166v174h-373zM238 1202h147v244z" />
    <glyph glyph-name="uni2075" unicode="&#x2075;" horiz-adv-x="700" 
d="M49 1034q1 0 69.5 44t69.5 44q23 -36 61.5 -59t74.5 -23q67 0 111 36t44 87q0 62 -40 94.5t-103 32.5q-45 0 -93.5 -19t-78.5 -65l-90 47l63 414h455v-151h-324l-22 -130q47 41 143 41q110 0 182 -69.5t72 -194.5q0 -126 -86.5 -206t-232.5 -80q-81 0 -155.5 43.5
t-119.5 113.5z" />
    <glyph glyph-name="uni2076" unicode="&#x2076;" horiz-adv-x="694" 
d="M74 1147q-14 162 12 278q27 121 100 190.5t201 65.5q80 -3 140 -35t98 -114l-154 -66q-28 62 -90 62q-54 0 -88.5 -35.5t-45.5 -83.5t-9 -106q10 28 53.5 58t101.5 30q59 0 112.5 -27.5t90.5 -89.5t37 -146q0 -112 -78.5 -181.5t-204.5 -69.5q-112 0 -189 73.5t-87 196.5
zM256 1137q0 -43 29.5 -73t72.5 -30t74 30t31 73t-31 73.5t-74 30.5t-72.5 -30.5t-29.5 -73.5z" />
    <glyph glyph-name="uni2077" unicode="&#x2077;" horiz-adv-x="663" 
d="M55 1516v151h586l-346 -778h-186l276 627h-330z" />
    <glyph glyph-name="uni2078" unicode="&#x2078;" horiz-adv-x="708" 
d="M59 1145q0 122 113 190q-57 54 -57 129q0 90 70 153.5t169 63.5t169.5 -63.5t70.5 -153.5q0 -81 -57 -129q112 -68 112 -190q0 -110 -87 -189t-208 -79t-208 79t-87 189zM223 1149q0 -49 39 -84t92 -35t92 35t39 84q0 45 -35.5 80t-82.5 35h-27q-48 0 -82.5 -35
t-34.5 -80zM274 1460q0 -31 21 -53.5t59 -22.5t59 22.5t21 53.5t-21.5 52.5t-58.5 21.5t-58.5 -21.5t-21.5 -52.5z" />
    <glyph glyph-name="uni2079" unicode="&#x2079;" horiz-adv-x="694" 
d="M61 1432q0 112 78.5 180.5t204.5 68.5q112 0 190.5 -73.5t88.5 -196.5q7 -60 3 -123.5t-12.5 -124t-33 -113.5t-58.5 -92.5t-89.5 -61t-125.5 -19.5q-80 3 -139.5 36t-97.5 115l153 66q28 -64 90 -64q41 0 71 20t46 54t22.5 72.5t4.5 80.5q-10 -28 -53.5 -58t-102.5 -30
t-112.5 27.5t-90.5 89.5t-37 146zM231 1421q0 -42 31 -72t74 -30t72.5 29.5t29.5 72.5t-30 74t-72 31q-43 0 -74 -31t-31 -74z" />
    <glyph glyph-name="uni2080" unicode="&#x2080;" horiz-adv-x="716" 
d="M70 82q0 89 14 158.5t45.5 126.5t90 87.5t140.5 30.5q66 0 117 -20.5t83 -56t52.5 -88t28.5 -110t8 -128.5q0 -70 -8 -127t-28.5 -109t-52.5 -87.5t-83 -56.5t-117 -21q-290 0 -290 401zM233 82q0 -242 127 -242q125 0 125 242q0 244 -125 244q-127 0 -127 -244z" />
    <glyph glyph-name="uni2081" unicode="&#x2081;" horiz-adv-x="440" 
d="M43 197v143l297 141v-788h-164v559z" />
    <glyph glyph-name="uni2082" unicode="&#x2082;" horiz-adv-x="655" 
d="M63 -219l320 379q41 48 41 90q0 34 -26 56t-72 22q-44 0 -74.5 -30.5t-36.5 -78.5l-152 27q19 111 91 175t182 64q105 0 179.5 -66.5t74.5 -168.5q0 -105 -82 -197q-76 -85 -180 -205h241v-155h-506v88z" />
    <glyph glyph-name="uni2083" unicode="&#x2083;" horiz-adv-x="649" 
d="M33 -154l143 72q17 -31 48.5 -51t68.5 -25q42 -3 75 23t38 59q0 42 -7 60q-22 50 -100 47h-82v141h82q78 0 78 86q0 26 -21.5 51t-58.5 25q-55 0 -84 -45l-131 82q34 56 99.5 87t142.5 27q100 -6 166 -69.5t63 -147.5q0 -97 -100 -153q63 -23 101 -85t32 -126
q-9 -100 -98.5 -164.5t-206.5 -56.5q-81 6 -148.5 50.5t-99.5 112.5z" />
    <glyph glyph-name="uni2084" unicode="&#x2084;" horiz-adv-x="704" 
d="M16 -133l367 604h172v-465h98v-139h-98v-174h-166v174h-373zM242 6h147v244z" />
    <glyph glyph-name="uni2085" unicode="&#x2085;" horiz-adv-x="694" 
d="M47 -162q1 0 69.5 44t69.5 44q23 -36 61.5 -59t74.5 -23q67 0 111 36t44 87q0 62 -40 94.5t-103 32.5q-45 0 -93.5 -19t-78.5 -65l-90 47l63 414h455v-152h-324l-22 -129q47 41 143 41q110 0 182 -69.5t72 -194.5q0 -126 -86.5 -206t-232.5 -80q-81 0 -155.5 43.5
t-119.5 113.5z" />
    <glyph glyph-name="uni2086" unicode="&#x2086;" horiz-adv-x="694" 
d="M74 -49q-14 162 12 278q27 121 100 190.5t201 65.5q80 -3 140 -35t98 -114l-154 -66q-28 62 -90 62q-54 0 -88.5 -35.5t-45.5 -84t-9 -106.5q10 28 53.5 58.5t101.5 30.5q59 0 112.5 -27.5t90.5 -89.5t37 -146q0 -112 -78.5 -181.5t-204.5 -69.5q-112 0 -189 73.5
t-87 196.5zM256 -59q0 -43 29.5 -73t72.5 -30t74 30t31 73t-31 73.5t-74 30.5t-72.5 -30.5t-29.5 -73.5z" />
    <glyph glyph-name="uni2087" unicode="&#x2087;" horiz-adv-x="636" 
d="M47 319v152h586l-346 -778h-187l277 626h-330z" />
    <glyph glyph-name="uni2088" unicode="&#x2088;" horiz-adv-x="708" 
d="M59 -51q0 122 113 190q-57 54 -57 129q0 90 70 153.5t169 63.5t169.5 -63.5t70.5 -153.5q0 -81 -57 -129q112 -68 112 -190q0 -110 -87 -189t-208 -79t-208 79t-87 189zM223 -47q0 -49 39 -84t92 -35t92 35t39 84q0 45 -35.5 80t-82.5 35h-27q-48 0 -82.5 -35t-34.5 -80z
M274 264q0 -31 21 -53.5t59 -22.5t59 22.5t21 53.5t-21.5 52.5t-58.5 21.5t-58.5 -21.5t-21.5 -52.5z" />
    <glyph glyph-name="uni2089" unicode="&#x2089;" horiz-adv-x="694" 
d="M61 236q0 112 78.5 180.5t204.5 68.5q112 0 190.5 -73.5t88.5 -196.5q7 -60 3 -123.5t-12.5 -124t-33 -113.5t-58.5 -92.5t-89.5 -61t-125.5 -19.5q-80 3 -139.5 36t-97.5 115l153 66q28 -64 90 -64q41 0 71 20t46 54t22.5 72.5t4.5 80.5q-10 -28 -53.5 -58t-102.5 -30
t-112.5 27.5t-90.5 89.5t-37 146zM231 225q0 -42 31 -72t74 -30t72.5 29.5t29.5 72.5t-30 74t-72 31q-43 0 -74 -31t-31 -74z" />
    <glyph glyph-name="colonmonetary" unicode="&#x20a1;" horiz-adv-x="1454" 
d="M78 702q0 197 91.5 362.5t253 263t357.5 99.5l80 222l119 -45l-68 -187q67 -11 136 -37l69 197l119 -45l-74 -205q129 -76 213 -199l-244 -167q-31 45 -71 79l-279 -778h6q108 0 201 53t152 142l241 -168q-94 -143 -250 -226t-344 -83q-57 0 -104 8l-76 -217l-119 43
l72 202q-68 21 -127 56l-82 -230l-119 43l95 265q-117 101 -182.5 244.5t-65.5 307.5zM379 702q0 -132 59 -235l236 661q-132 -38 -213.5 -155.5t-81.5 -270.5zM532 354q55 -48 121 -69l297 825q-72 30 -135 33z" />
    <glyph glyph-name="lira" unicode="&#x20a4;" horiz-adv-x="1398" 
d="M90 0v254h217v213h-170v129h170v96h-170v129h170v148q0 208 122 333t314 125q97 0 179.5 -28.5t147 -85t101.5 -148t37 -209.5h-297q0 168 -161 168q-71 0 -113.5 -42.5t-42.5 -112.5v-148h235v-129h-235v-96h235v-129h-235v-213h377q27 0 44 21.5t17 52.5v59h281v-115
q0 -116 -74.5 -194t-183.5 -78h-965z" />
    <glyph glyph-name="uni20A6" unicode="&#x20a6;" horiz-adv-x="1601" 
d="M113 434v139h155v322h-155v139h155v377h275l215 -377h268v377h301v-377h166v-139h-166v-322h166v-139h-166v-434h-268l-250 434h-242v-434h-299v434h-155zM567 573h162l-162 281v-281zM838 895l184 -322h4v322h-188z" />
    <glyph glyph-name="peseta" unicode="&#x20a7;" horiz-adv-x="1546" 
d="M92 897v121h160v393h579q105 0 189.5 -32t140 -88t88.5 -125t43 -148h183v-121h-181q-8 -83 -40 -155t-87 -130t-141.5 -91.5t-194.5 -33.5h-278v-487h-301v897h-160zM553 750h264q67 0 112.5 42t59.5 105h-436v-147zM553 1018h432q-19 56 -60 92.5t-100 36.5h-272v-129z
" />
    <glyph glyph-name="uni20A8" unicode="&#x20a8;" horiz-adv-x="1468" 
d="M123 1411h1255v-121h-430q108 -102 131 -258h299v-121h-293q-10 -150 -99 -263.5t-251 -147.5l350 -500h-360l-315 487h-285v263h471q71 0 117 47t57 114h-645v121h633q-21 50 -60 82.5t-94 32.5h-479z" />
    <glyph glyph-name="uni20A9" unicode="&#x20a9;" horiz-adv-x="2062" 
d="M123 1411h323l156 -506h223l84 307h246l82 -307h223l158 506h326l-172 -506h161v-139h-209l-106 -309h315v-140h-362l-107 -317h-235l-86 317h-225l-82 -317h-238l-106 317h-365v140h317l-104 309h-213v139h166zM645 766l76 -244l65 244h-141zM954 457h152l-76 284z
M1276 766l65 -244l76 244h-141z" />
    <glyph glyph-name="afii57636" unicode="&#x20aa;" horiz-adv-x="1951" 
d="M176 0v1102h739q193 0 313 -121t120 -301v-244h-287v191q0 79 -57.5 133.5t-151.5 54.5h-389v-815h-287zM604 422v244h287v-191q0 -79 57.5 -133.5t151.5 -54.5h389v815h287v-1102h-740q-193 0 -312.5 120.5t-119.5 301.5z" />
    <glyph glyph-name="Euro" unicode="&#x20ac;" horiz-adv-x="1697" 
d="M94 524v129h1010v-129h-475q45 -119 145.5 -190.5t229.5 -71.5q108 0 200.5 53t151.5 142l241 -168q-94 -143 -249.5 -226t-343.5 -83q-253 0 -442 152.5t-247 391.5h-221zM94 762v129h223q59 235 248 385.5t439 150.5q185 0 339 -80.5t248 -218.5l-243 -167
q-58 85 -148 134.5t-196 49.5q-127 0 -225.5 -69.5t-145.5 -184.5h471v-129h-1010z" />
    <glyph glyph-name="afii61289" unicode="&#x2113;" horiz-adv-x="821" 
d="M123 348v731q0 61 8.5 111t30.5 95t56 75.5t87 48.5t123 18q301 0 301 -362v-381q0 -65 -8 -113.5t-30.5 -94.5t-61.5 -75t-102.5 -46t-151.5 -17q0 -22 3 -36.5t12 -31.5t31.5 -27t57.5 -12l201 -14v-217h-252q-305 0 -305 348zM375 575l55 7q47 0 47 77v410
q0 119 -47 119q-16 0 -27 -8t-16.5 -17.5t-8 -29t-3 -31.5t-0.5 -35v-492z" />
    <glyph glyph-name="afii61352" unicode="&#x2116;" horiz-adv-x="2015" 
d="M176 0v1411h275l483 -844v844h301v-1411h-268l-492 854v-854h-299zM1376 1153q0 114 79 194t194 80q114 0 194 -80t80 -194q0 -115 -79.5 -193.5t-194.5 -78.5q-116 0 -194.5 78.5t-78.5 193.5zM1389 651v137h520v-137h-520zM1530 1153q0 -51 34 -85t85 -34q50 0 85 34
t35 85q0 50 -35.5 85.5t-84.5 35.5q-50 0 -84.5 -35.5t-34.5 -85.5z" />
    <glyph glyph-name="trademark" unicode="&#x2122;" horiz-adv-x="1742" 
d="M127 1257v154h795l227 -463l221 463h148l90 -745h-172l-52 454l-174 -370h-123l-174 370l-55 -454h-170l74 591h-221v-591h-172v591h-242z" />
    <glyph glyph-name="estimated" unicode="&#x212e;" horiz-adv-x="1323" 
d="M115 573q0 164 66.5 298t196.5 215t300 81q169 0 298 -82.5t195 -217t66 -296.5h-879v-395q135 -129 312 -129q67 0 124.5 14.5t99.5 36.5t81 58t66.5 70t58.5 81l63 -39q-34 -53 -67.5 -94t-78 -78.5t-94 -62t-114 -39t-139.5 -14.5q-122 0 -227 47.5t-176.5 128
t-111.5 189t-40 228.5zM358 639h633v334q-59 54 -143.5 90.5t-169.5 36.5q-196 0 -320 -127v-334z" />
    <glyph glyph-name="minus" unicode="&#x2212;" horiz-adv-x="1034" 
d="M139 430v209h756v-209h-756z" />
    <glyph glyph-name="notequal" unicode="&#x2260;" horiz-adv-x="1232" 
d="M143 305v201h355l102 211h-457v201h555l97 196h145l-96 -196h241v-201h-340l-104 -211h444v-201h-542l-105 -215h-143l104 215h-256z" />
    <glyph glyph-name="lessequal" unicode="&#x2264;" horiz-adv-x="1308" 
d="M127 678v229l1028 393l2 -225l-741 -282l741 -283l-2 -225zM137 0v176h1018v-176h-1018z" />
    <glyph glyph-name="greaterequal" unicode="&#x2265;" horiz-adv-x="1308" 
d="M152 510l741 283l-741 282l2 225l1028 -393v-229l-1028 -393zM154 0v176h1017v-176h-1017z" />
    <glyph glyph-name="uniE000" unicode="&#xe000;" horiz-adv-x="952" 
d="M0 0v952h952v-952h-952z" />
    <glyph glyph-name="uniF6C3" unicode="&#xf6c3;" horiz-adv-x="645" 
d="M143 -516q67 94 93.5 180t25.5 221h240q-24 -311 -219 -473z" />
    <glyph glyph-name="uniF6DD" unicode="&#xf6dd;" horiz-adv-x="2439" 
d="M141 0v1411h578q115 0 207 -39.5t148 -106t85 -147.5t29 -170q0 -161 -90 -286.5t-262 -161.5l350 -500h-361l-315 487h-68v-487h-301zM442 750h254q82 0 130 61t48 137q0 74 -45 136.5t-124 62.5h-263v-397zM1343 -469v1425h283v-118q35 65 112.5 102t168.5 37
q92 0 176 -35.5t147.5 -99t101.5 -157.5t38 -204q0 -112 -38 -207.5t-101.5 -159t-147.5 -99t-176 -35.5t-169.5 36.5t-111.5 100.5v-586h-283zM1632 475q0 -103 64.5 -165t156.5 -62q93 0 157.5 63.5t64.5 163.5q0 103 -64.5 167.5t-157.5 64.5q-91 0 -156 -65.5
t-65 -166.5z" />
    <glyph glyph-name="uniF8FF" unicode="&#xf8ff;" horiz-adv-x="1734" 
d="M164 0v1407h1407v-1407h-1407zM336 162h18v76l27 -76h20l23 76v-76h18v108h-28l-19 -73l-28 73h-31v-108zM336 446h166l-152 154v365l522 -519l525 519v-365l-152 -154h172v773l-545 -539l-536 539v-773zM457 215q0 -22 13 -37.5t38 -15.5q22 0 34.5 15.5t12.5 37.5
q0 23 -12.5 39t-34.5 16q-25 0 -38 -16t-13 -39zM473 215q0 12 10.5 23.5t24.5 11.5q12 0 18 -11t6 -24q0 -12 -6 -22.5t-18 -10.5q-14 0 -24.5 11.5t-10.5 21.5zM555 203q0 -20 12.5 -30.5t32.5 -10.5q45 0 45 35q0 22 -31 28q-21 3 -26.5 5t-5.5 8q0 12 18 12q21 0 21 -12
h18q0 32 -39 32q-15 0 -27 -9t-12 -23q0 -11 8 -17t25 -14q27 0 27 -10t-4.5 -12.5t-16.5 -2.5q-18 0 -18 21h-27zM645 250h35v-88h16v88h31v20h-82v-20zM709 162h24l8 26h45l7 -26h22h19v45h26q8 0 13.5 -6t5.5 -13v-26h26q-6 6 -6 26q0 19 -14 27q10 4 12 8.5t2 14.5
q0 32 -27 32h-57v-108l-43 108h-18zM748 207l12 37h6l14 -37h-32zM834 221v29h26q19 0 19 -12q0 -17 -19 -17h-26zM913 162h41q24 0 38 16.5t14 42.5q0 22 -14 35.5t-38 13.5h-41v-108zM938 182v68h8q21 0 28 -8t7 -27q0 -13 -9 -23t-18 -10h-16zM1012 162h82v20h-58v25h51
v18h-51v25h51v20h-75v-108zM1094 203q0 -41 45 -41q19 0 32 10t13 25q0 21 -31 28q-23 3 -29 5t-6 8q0 12 15 12q24 0 24 -12h21q0 32 -39 32q-16 0 -30.5 -9t-14.5 -23q0 -11 9.5 -17t29.5 -14q24 0 24 -10q0 -15 -18 -15q-10 0 -18.5 5.5t-8.5 15.5h-18zM1192 162h14v108
h-14v-108zM1221 215q0 -22 13.5 -37.5t37.5 -15.5q18 0 24 14l9 -14h12v59h-45v-18h24q-9 -21 -24 -21q-14 0 -23.5 11.5t-9.5 21.5q0 12 9.5 23.5t23.5 11.5q6 0 12 -6t6 -15h27q-4 20 -17 30.5t-28 10.5q-24 0 -37.5 -16t-13.5 -39zM1329 162h17v67l45 -67h26v108h-26v-67
l-45 67h-17v-108z" />
    <glyph glyph-name="NULL" horiz-adv-x="0" 
 />
    <glyph glyph-name="published" horiz-adv-x="1632" 
d="M100 702q0 147 56 281t151.5 231.5t228 155t279.5 57.5t280 -57.5t228.5 -155t152 -231.5t56.5 -281q0 -196 -95.5 -362.5t-260.5 -263t-361 -96.5q-147 0 -279.5 57t-228 154t-151.5 230.5t-56 280.5zM260 702q0 -152 73.5 -281t201.5 -204.5t280 -75.5t280 75.5
t201.5 204.5t73.5 281q0 114 -43.5 218t-117.5 180t-177 121t-217 45t-217 -45t-177 -121t-117.5 -180t-43.5 -218zM582 342v688h290q117 0 178.5 -68.5t61.5 -166.5q0 -45 -14.5 -86.5t-43 -75.5t-75.5 -54t-107 -20h-118v-217h-172zM754 711h112q34 0 55 26.5t21 57.5
t-19.5 56.5t-52.5 25.5h-116v-166z" />
    <glyph glyph-name="frenchfranc" horiz-adv-x="1527" 
d="M184 0v1411h883v-264h-582v-281h537v-221q35 126 103 189t147 63q116 0 184 -35l-51 -260q-30 16 -57 23.5t-43 8.5t-45 1q-122 0 -180 -95t-58 -286v-254h-270v612h-267v-612h-301z" />
    <glyph glyph-name="parenleft.case" horiz-adv-x="794" 
d="M80 696q0 273 85 493.5t233.5 344t330.5 123.5v-223q-100 0 -195.5 -105t-155 -277t-59.5 -356q0 -183 60 -352t155 -270t195 -101v-221q-137 0 -257 70t-206 193t-136 299.5t-50 381.5z" />
    <glyph glyph-name="parenright.case" horiz-adv-x="794" 
d="M66 -27q100 0 195 101t154.5 270t59.5 352q0 184 -59.5 356t-154.5 277t-195 105v223q182 0 330.5 -123.5t233.5 -344t85 -493.5q0 -205 -50 -381.5t-136 -299.5t-206 -193t-257 -70v221z" />
    <glyph glyph-name="hyphen.case" horiz-adv-x="972" 
d="M125 575v271h723v-271h-723z" />
    <glyph glyph-name="at.case" horiz-adv-x="1974" 
d="M92 692q0 184 69 350.5t186.5 287.5t282 192t347.5 71q185 0 354.5 -66t295 -179.5t200 -275t74.5 -343.5q0 -77 -12.5 -156t-43 -160t-75 -143t-114.5 -101.5t-155 -39.5q-62 0 -114.5 16.5t-97 52t-70 98.5t-25.5 148v258q0 101 -69.5 170.5t-168.5 69.5
q-98 0 -167.5 -70t-69.5 -170q0 -97 70 -166t167 -69q92 0 162 51v-192q-92 -39 -162 -39q-174 0 -296.5 121t-122.5 294q0 176 122.5 298t296.5 122q171 0 291 -114q60 -54 94 -128t37 -157v-291q0 -66 36 -94.5t87 -28.5t90.5 29t62.5 73t37.5 103t19.5 111t5 104
q0 192 -101.5 349.5t-270.5 245t-367 87.5q-194 0 -356 -97t-254.5 -262t-92.5 -360q0 -146 54.5 -277t148 -225.5t224 -150t276.5 -55.5h67v-183h-67q-184 0 -348 69.5t-281.5 188.5t-186.5 284t-69 349z" />
    <glyph glyph-name="bracketleft.case" horiz-adv-x="692" 
d="M150 -238v1880h473v-206h-232v-1463h232v-211h-473z" />
    <glyph glyph-name="bracketright.case" horiz-adv-x="692" 
d="M70 -27h231v1463h-231v206h473v-1880h-473v211z" />
    <glyph glyph-name="braceleft.case" horiz-adv-x="843" 
d="M63 614v172q48 0 86.5 32.5t38.5 86.5v326q-1 183 119 296t295 113h174v-206h-180q-70 0 -119 -51.5t-49 -125.5v-335q0 -87 -51 -146.5t-111 -75.5q60 -16 111 -75t51 -146v-313q0 -76 50 -133.5t118 -57.5h180v-215h-174q-175 0 -295 113.5t-119 296.5v326
q0 54 -38.5 86t-86.5 32z" />
    <glyph glyph-name="braceright.case" horiz-adv-x="843" 
d="M68 -25h180q68 0 118 57.5t50 133.5v313q0 87 51 146t111 75q-60 16 -111 75.5t-51 146.5v335q0 74 -49 125.5t-119 51.5h-180v206h174q175 0 294.5 -113t118.5 -296v-326q0 -54 38.5 -86.5t86.5 -32.5v-172q-48 0 -86.5 -32t-38.5 -86v-326q1 -183 -118.5 -296.5
t-294.5 -113.5h-174v215z" />
    <glyph glyph-name="exclamdown.case" horiz-adv-x="581" 
d="M113 1255q0 74 51.5 123t124.5 49t125.5 -49t52.5 -123q0 -72 -52.5 -121t-125.5 -49t-124.5 48.5t-51.5 121.5zM133 -20l41 997h234l41 -997h-316z" />
    <glyph glyph-name="guillemotleft.case" horiz-adv-x="1079" 
d="M98 707l283 423h221l-283 -423l283 -424h-221zM461 707l282 423h222l-283 -423l283 -424h-222z" />
    <glyph glyph-name="periodcentered.case" horiz-adv-x="571" 
d="M109 754q0 74 51.5 123t124.5 49t125.5 -49t52.5 -123q0 -72 -52.5 -121t-125.5 -49t-124.5 48.5t-51.5 121.5z" />
    <glyph glyph-name="guillemotright.case" horiz-adv-x="1079" 
d="M115 283l282 424l-282 423h221l282 -423l-282 -424h-221zM477 283l283 424l-283 423h221l283 -423l-283 -424h-221z" />
    <glyph glyph-name="questiondown.case" horiz-adv-x="1015" 
d="M74 379q0 145 75 247t199 140q61 18 84 56.5t23 113.5l4 45h278l4 -45q0 -57 -1 -87.5t-5 -72.5t-13 -65.5t-24.5 -53t-39.5 -49.5t-58.5 -42t-81.5 -42l-82 -35q-50 -27 -63 -50t-13 -62q0 -47 41 -79t105 -32q65 0 105 39t40 103h287q0 -195 -119 -311.5t-313 -116.5
t-313 108t-119 291zM416 1255q0 74 52.5 123t125.5 49t124.5 -49t51.5 -123q0 -73 -51.5 -121.5t-124.5 -48.5t-125.5 49t-52.5 121z" />
    <glyph glyph-name="endash.case" horiz-adv-x="1314" 
d="M131 584v254h1053v-254h-1053z" />
    <glyph glyph-name="emdash.case" horiz-adv-x="1751" 
d="M131 584v254h1489v-254h-1489z" />
    <glyph glyph-name="bullet.case" horiz-adv-x="962" 
d="M154 717q0 135 96 225t231 90q136 0 232 -90t96 -225t-96.5 -225.5t-231.5 -90.5t-231 90.5t-96 225.5z" />
    <glyph glyph-name="guilsinglleft.case" horiz-adv-x="716" 
d="M98 707l283 423h221l-283 -423l283 -424h-221z" />
    <glyph glyph-name="guilsinglright.case" horiz-adv-x="716" 
d="M115 283l282 424l-282 423h221l282 -423l-282 -424h-221z" />
    <glyph glyph-name="cent.case" horiz-adv-x="1103" 
d="M80 717q0 192 121 323.5t303 163.5v223h149v-217q111 -11 206.5 -63t156.5 -137l-232 -166q-29 45 -78.5 70.5t-105.5 25.5q-95 0 -166.5 -62t-71.5 -161t72 -164.5t166 -65.5q56 0 105.5 26t78.5 71l232 -164q-61 -87 -155.5 -139.5t-207.5 -63.5v-235h-149v241
q-181 32 -302.5 166.5t-121.5 327.5z" />
    <glyph glyph-name="zero.tnum" horiz-adv-x="1187" 
d="M94 672q0 122 14.5 222t50 190t91.5 151t144 97t202 36t201.5 -36t143 -97t90.5 -151.5t49 -190t14 -221.5q0 -121 -14 -220t-49 -188.5t-90.5 -150.5t-143 -97t-201.5 -36t-202 36t-144 97t-91.5 150.5t-50 189t-14.5 219.5zM381 672q0 -89 11 -160.5t35 -130t67 -91
t102 -32.5q211 0 211 414q0 418 -211 418q-59 0 -102 -32.5t-67 -92t-35 -131.5t-11 -162z" />
    <glyph glyph-name="one.tnum" horiz-adv-x="1187" 
d="M287 862v252l516 246v-1360h-287v961z" />
    <glyph glyph-name="two.tnum" horiz-adv-x="1187" 
d="M137 0v156l551 653q72 83 72 152q0 56 -45.5 94.5t-122.5 38.5q-75 0 -127 -52.5t-64 -134.5l-262 45q31 193 155.5 304.5t313.5 111.5q119 0 219 -50.5t160 -144.5t60 -212q0 -181 -142 -340l-309 -351h414v-270h-873z" />
    <glyph glyph-name="three.tnum" horiz-adv-x="1187" 
d="M96 264l252 125q22 -48 82 -87t117 -42q73 -4 129.5 41.5t62.5 101.5q1 13 1.5 19t-1.5 28.5t-7 37t-17.5 35t-32 32.5t-51.5 20.5t-74 6.5h-141v245h141q38 0 65.5 14.5t40 31.5t18.5 42t6.5 35.5t0.5 21.5v1q0 24 -12 52t-44.5 52.5t-78.5 24.5q-96 0 -141 -74
l-232 141q61 97 173 151.5t245 47.5q114 -6 206.5 -59.5t143 -137.5t47.5 -180q0 -80 -47.5 -149.5t-124.5 -112.5q108 -39 173.5 -146.5t56.5 -217.5q-11 -113 -86 -203.5t-193 -138.5t-250 -39q-140 9 -256 85.5t-172 194.5z" />
    <glyph glyph-name="four.tnum" horiz-adv-x="1187" 
d="M16 301l627 1040h303v-798h170v-242h-170v-301h-289v301h-641zM408 543h249v418z" />
    <glyph glyph-name="five.tnum" horiz-adv-x="1187" 
d="M76 250l241 156q40 -61 105.5 -100.5t128.5 -39.5q114 0 190 61.5t76 145.5q0 108 -69 163.5t-179 55.5q-47 0 -95.5 -11t-106.5 -46t-93 -90l-157 82l110 714h787v-262h-559l-35 -217q38 34 106.5 52t139.5 18q190 0 314 -121.5t124 -337.5q0 -217 -151.5 -355
t-401.5 -138q-138 0 -268 74.5t-207 195.5z" />
    <glyph glyph-name="six.tnum" horiz-adv-x="1187" 
d="M117 446q-7 82 -7 159.5t6.5 161t24.5 157.5t45.5 144t71 125t99.5 96t133 61.5t169 17.5q65 -2 119.5 -14.5t110 -40.5t102.5 -79.5t82 -125.5l-268 -115q-51 107 -156 107q-71 0 -122 -34.5t-77.5 -92.5t-37.5 -123t-9 -137q17 49 88.5 100t182.5 51q74 0 145 -28
t131.5 -81.5t97.5 -142.5t37 -200q0 -194 -134 -313t-353 -119q-193 0 -327.5 127.5t-153.5 338.5zM436 428q0 -72 52 -124t124 -52t124 52t52 124t-52 124t-124 52t-124 -52t-52 -124z" />
    <glyph glyph-name="seven.tnum" horiz-adv-x="1187" 
d="M119 1077v264h1011l-591 -1341h-326l473 1077h-567z" />
    <glyph glyph-name="eight.tnum" horiz-adv-x="1187" 
d="M84 430q0 109 51.5 197.5t140.5 140.5q-96 93 -96 225q0 155 121.5 265t292.5 110t293.5 -110t122.5 -265q0 -136 -99 -225q89 -52 141 -141.5t52 -196.5q0 -126 -68.5 -229.5t-185.5 -162t-256 -58.5t-256 58.5t-185.5 162t-68.5 229.5zM371 444q0 -83 66 -140.5
t157 -57.5t157 57.5t66 140.5q0 82 -59.5 141.5t-165.5 59.5q-103 0 -162 -59.5t-59 -141.5zM457 985q0 -55 35.5 -92t101.5 -37t101.5 37t35.5 92q0 52 -37 88.5t-100 36.5t-100 -36.5t-37 -88.5z" />
    <glyph glyph-name="nine.tnum" horiz-adv-x="1187" 
d="M100 936q0 194 134.5 313t353.5 119q193 0 327.5 -128t153.5 -339q7 -82 7 -159.5t-7 -161t-25 -157.5t-45 -143.5t-71 -124.5t-100 -96t-133 -61.5t-169 -17.5q-65 2 -119 14.5t-109.5 40.5t-102.5 79.5t-82 125.5l268 114q50 -106 156 -106q71 0 122 34.5t77 92.5
t37 123t9 137q-6 -18 -14.5 -34.5t-29.5 -39t-48.5 -39t-74 -28t-103.5 -11.5q-74 0 -145 28t-131.5 81.5t-98 143t-37.5 200.5zM397 920q0 -72 52 -124.5t124 -52.5t124.5 52.5t52.5 124.5t-52.5 124t-124.5 52t-124 -52t-52 -124z" />
    <glyph glyph-name="zero.taboldstyle" horiz-adv-x="1187" 
d="M68 524q0 121 43.5 224t116 171.5t167 107t197.5 38.5q105 0 200.5 -38.5t168 -107t115 -171.5t42.5 -224q0 -158 -73 -283t-192.5 -191t-260.5 -66q-138 0 -257 66t-193 191t-74 283zM338 524q0 -120 76.5 -197t177.5 -77q103 0 180.5 77t77.5 197q0 121 -77.5 197
t-180.5 76q-102 0 -178 -76t-76 -197z" />
    <glyph glyph-name="one.taboldstyle" horiz-adv-x="1187" 
d="M281 539v270l553 250v-1059h-287v643z" />
    <glyph glyph-name="two.taboldstyle" horiz-adv-x="1187" 
d="M158 0v164l481 475q66 63 66 96q0 36 -30.5 62t-84.5 26q-61 0 -101 -30t-47 -91l-278 33q21 160 131 255t297 95q186 0 306 -99t120 -234q0 -69 -34.5 -134.5t-92.5 -113.5l-279 -254h404v-250h-858z" />
    <glyph glyph-name="six.taboldstyle" horiz-adv-x="1187" 
d="M117 446q-7 82 -7 159.5t6.5 161t24.5 157.5t45.5 144t71 125t99.5 96t133 61.5t169 17.5q65 -2 119.5 -14.5t110 -40.5t102.5 -79.5t82 -125.5l-268 -115q-51 107 -156 107q-71 0 -122 -34.5t-77.5 -92.5t-37.5 -123t-9 -137q17 49 88.5 100t182.5 51q74 0 145 -28
t131.5 -81.5t97.5 -142.5t37 -200q0 -194 -134 -313t-353 -119q-193 0 -327.5 127.5t-153.5 338.5zM436 428q0 -72 52 -124t124 -52t124 52t52 124t-52 124t-124 52t-124 -52t-52 -124z" />
    <glyph glyph-name="eight.taboldstyle" horiz-adv-x="1187" 
d="M84 430q0 109 51.5 197.5t140.5 140.5q-96 93 -96 225q0 155 121.5 265t292.5 110t293.5 -110t122.5 -265q0 -136 -99 -225q89 -52 141 -141.5t52 -196.5q0 -126 -68.5 -229.5t-185.5 -162t-256 -58.5t-256 58.5t-185.5 162t-68.5 229.5zM371 444q0 -83 66 -140.5
t157 -57.5t157 57.5t66 140.5q0 82 -59.5 141.5t-165.5 59.5q-103 0 -162 -59.5t-59 -141.5zM457 985q0 -55 35.5 -92t101.5 -37t101.5 37t35.5 92q0 52 -37 88.5t-100 36.5t-100 -36.5t-37 -88.5z" />
    <glyph glyph-name="three.taboldstyle" horiz-adv-x="1187" 
d="M100 -127l252 125q22 -48 82 -87t117 -42q73 -4 129.5 41.5t62.5 101.5q1 13 1.5 19t-1.5 28t-7 36.5t-17.5 35t-32 32.5t-51.5 20.5t-74 6.5h-141v246h141q38 0 65.5 14.5t40 31.5t18.5 42t6.5 35.5t0.5 21.5v1q0 24 -12 52t-44.5 52.5t-78.5 24.5q-96 0 -141 -74
l-232 141q61 97 173 151.5t245 47.5q114 -6 206.5 -59.5t143 -137.5t47.5 -180q0 -80 -47.5 -149.5t-124.5 -112.5q108 -39 173.5 -147t56.5 -218q-11 -113 -86 -203.5t-193 -138.5t-250 -39q-140 9 -256 86t-172 195z" />
    <glyph glyph-name="four.taboldstyle" horiz-adv-x="1187" 
d="M18 -86l627 1040h303v-798h170v-242h-170v-301h-289v301h-641zM410 156h249v417z" />
    <glyph glyph-name="five.taboldstyle" horiz-adv-x="1187" 
d="M76 -135l241 155q40 -61 105.5 -100t128.5 -39q114 0 190 61.5t76 145.5q0 108 -69 163.5t-179 55.5q-47 0 -95.5 -11t-106.5 -46t-93 -90l-157 82l110 714h787v-262h-559l-35 -217q38 34 106.5 52t139.5 18q190 0 314 -121.5t124 -337.5q0 -217 -151.5 -355.5
t-401.5 -138.5q-138 0 -268 75t-207 196z" />
    <glyph glyph-name="seven.taboldstyle" horiz-adv-x="1187" 
d="M121 692v264h1012l-592 -1341h-326l473 1077h-567z" />
    <glyph glyph-name="nine.taboldstyle" horiz-adv-x="1187" 
d="M106 545q0 194 134.5 313t353.5 119q193 0 327.5 -128t153.5 -339q7 -82 7 -159.5t-7 -161t-25 -157.5t-45 -144t-71 -125t-100 -96t-133 -61.5t-169 -17.5q-65 2 -119 14.5t-109.5 40.5t-102.5 79.5t-82 125.5l268 115q50 -106 156 -106q71 0 122 34.5t77 92.5t37 123
t9 137q-6 -18 -14.5 -34.5t-29.5 -39t-48.5 -39t-74 -28t-103.5 -11.5q-74 0 -145 28t-131.5 81.5t-98 143t-37.5 200.5zM403 528q0 -72 52.5 -124t124.5 -52t124 52t52 124t-52 124.5t-124 52.5t-124.5 -52.5t-52.5 -124.5z" />
    <glyph glyph-name="zero.oldstyle" horiz-adv-x="1292" 
d="M121 524q0 121 43.5 224t116 171.5t167 107t197.5 38.5q105 0 200.5 -38.5t168 -107t115 -171.5t42.5 -224q0 -158 -73 -283t-192.5 -191t-260.5 -66q-138 0 -257 66t-193 191t-74 283zM391 524q0 -120 76.5 -197t177.5 -77q103 0 180.5 77t77.5 197q0 121 -77.5 197
t-180.5 76q-102 0 -178 -76t-76 -197z" />
    <glyph glyph-name="one.oldstyle" horiz-adv-x="792" 
d="M84 539v270l553 250v-1059h-287v643z" />
    <glyph glyph-name="two.oldstyle" horiz-adv-x="1110" 
d="M119 0v164l481 475q66 63 66 96q0 36 -30.5 62t-84.5 26q-61 0 -101 -30t-47 -91l-278 33q21 160 131 255t297 95q186 0 306 -99t120 -234q0 -69 -34.5 -134.5t-92.5 -113.5l-279 -254h404v-250h-858z" />
    <glyph glyph-name="three.oldstyle" horiz-adv-x="1087" 
d="M51 -127l252 125q22 -48 82 -87t117 -42q73 -4 129.5 41.5t62.5 101.5q1 13 1.5 19t-1.5 28t-7 36.5t-17.5 35t-32 32.5t-51.5 20.5t-74 6.5h-141v246h141q38 0 65.5 14.5t40 31.5t18.5 42t6.5 35.5t0.5 21.5v1q0 24 -12 52t-44.5 52.5t-78.5 24.5q-96 0 -141 -74
l-232 141q61 97 173 151.5t245 47.5q114 -6 206.5 -59.5t143 -137.5t47.5 -180q0 -80 -47.5 -149.5t-124.5 -112.5q108 -39 173.5 -147t56.5 -218q-11 -113 -86 -203.5t-193 -138.5t-250 -39q-140 9 -256 86t-172 195z" />
    <glyph glyph-name="four.oldstyle" horiz-adv-x="1202" 
d="M27 -86l626 1040h303v-798h170v-242h-170v-301h-288v301h-641zM418 156h250v417z" />
    <glyph glyph-name="five.oldstyle" horiz-adv-x="1181" 
d="M74 -137l241 155q40 -61 105.5 -100t128.5 -39q114 0 190 61.5t76 145.5q0 108 -69 163.5t-179 55.5q-47 0 -95.5 -11t-106.5 -46t-93 -90l-157 82l110 714h787v-262h-559l-35 -217q38 34 106.5 52t139.5 18q190 0 314 -121.5t124 -337.5q0 -217 -151.5 -355.5
t-401.5 -138.5q-138 0 -268 75t-207 196z" />
    <glyph glyph-name="six.oldstyle" horiz-adv-x="1200" 
d="M123 446q-7 82 -7 159.5t7 161t25 157.5t45 144t71 125t100 96t133 61.5t169 17.5q65 -2 119 -14.5t109.5 -40.5t102.5 -79.5t82 -125.5l-268 -115q-51 107 -156 107q-71 0 -122 -34.5t-77 -92.5t-37 -123t-9 -137q17 49 88 100t182 51q74 0 145 -28t132 -81.5t98 -142.5
t37 -200q0 -194 -134.5 -313t-353.5 -119q-193 0 -327.5 127.5t-153.5 338.5zM442 428q0 -72 52 -124t124 -52t124.5 52t52.5 124t-52.5 124t-124.5 52t-124 -52t-52 -124z" />
    <glyph glyph-name="seven.oldstyle" horiz-adv-x="1081" 
d="M68 692v264h1011l-592 -1341h-325l473 1077h-567z" />
    <glyph glyph-name="eight.oldstyle" horiz-adv-x="1220" 
d="M100 430q0 108 52 197t141 141q-96 93 -96 225q0 155 121.5 265t291.5 110q171 0 293.5 -110t122.5 -265q0 -137 -98 -225q89 -52 140.5 -141.5t51.5 -196.5q0 -126 -68.5 -229.5t-185.5 -162t-256 -58.5t-256 58.5t-185.5 162t-68.5 229.5zM387 444q0 -83 66 -140.5
t157 -57.5t157.5 57.5t66.5 140.5q0 82 -59.5 141.5t-166.5 59.5q-103 0 -162 -59.5t-59 -141.5zM473 985q0 -55 35.5 -92t101.5 -37t102 37.5t36 91.5q0 52 -37.5 88.5t-100.5 36.5t-100 -36.5t-37 -88.5z" />
    <glyph glyph-name="nine.oldstyle" horiz-adv-x="1159" 
d="M92 545q0 194 134.5 313t353.5 119q193 0 327.5 -128t153.5 -339q7 -82 7 -159.5t-7 -161t-25 -157.5t-45 -144t-71 -125t-100 -96t-133 -61.5t-169 -17.5q-65 2 -119.5 14.5t-110 40.5t-102.5 79.5t-82 125.5l269 115q50 -106 155 -106q71 0 122 34.5t77.5 92.5
t37.5 123t9 137q-6 -18 -14.5 -34.5t-29.5 -39t-48.5 -39t-74 -28t-103.5 -11.5q-74 0 -145 28t-131.5 81.5t-98 143t-37.5 200.5zM389 528q0 -72 52 -124t124 -52t124 52t52 124t-52 124.5t-124 52.5t-124 -52.5t-52 -124.5z" />
    <glyph glyph-name="Lslash.sc" horiz-adv-x="890" 
d="M51 418v160l121 75v506h260v-344l154 96v-159l-154 -97v-426h428v-229h-688v492z" />
    <glyph glyph-name="Zcaron.sc" horiz-adv-x="1056" 
d="M96 0v195l520 737h-497v227h831v-192l-522 -738h522v-229h-854zM225 1556h181l129 -143l131 143h180l-191 -290h-241z" />
    <glyph glyph-name="exclam.sc" horiz-adv-x="591" 
d="M145 125q0 62 43.5 102.5t106.5 40.5q62 0 105.5 -40.5t43.5 -102.5t-43.5 -103.5t-105.5 -41.5t-106 41.5t-44 103.5zM162 1159h266l-33 -817h-198z" />
    <glyph glyph-name="ampersand.sc" horiz-adv-x="1208" 
d="M104 324q0 107 45 182t132 110q-61 24 -96 83t-35 147q0 125 101.5 226.5t240.5 101.5q120 0 198.5 -40.5t138.5 -115.5l-206 -129q-45 45 -93 45q-57 0 -84.5 -32t-27.5 -75v-8t2.5 -17t6.5 -24t13.5 -25.5t22.5 -24t34.5 -16.5t47.5 -7h182v131h229v-131h134v-199h-134
v-164q0 -92 29.5 -117.5t126.5 -25.5v-215q-78 1 -123.5 5t-92 17t-74.5 40t-44 71q-33 -63 -114.5 -100t-159.5 -37q-171 0 -285.5 97t-114.5 247zM371 381q-6 -70 44.5 -115t123.5 -45q28 0 60.5 11.5t67.5 43t50 76.5q10 33 10 68v86h-139q-78 0 -126.5 -18t-66.5 -43.5
t-24 -63.5z" />
    <glyph glyph-name="question.sc" horiz-adv-x="874" 
d="M76 815q0 162 98 258t260 96q160 0 258.5 -90t98.5 -241q0 -120 -63.5 -205t-164.5 -115q-47 -14 -60 -37t-20 -80l-6 -57h-239l-2 41q0 140 43.5 219t156.5 123q69 28 88 50t19 63q0 33 -31.5 57.5t-77.5 24.5q-50 0 -82 -28.5t-37 -72.5h-233zM211 125q0 63 44 104
t105 41q64 0 109 -41t45 -104q0 -62 -45 -103.5t-109 -41.5q-61 0 -105 41.5t-44 103.5z" />
    <glyph glyph-name="A.sc" 
d="M14 0l430 1159h275l430 -1159h-272l-101 270h-387l-102 -270h-273zM473 496h219l-112 372z" />
    <glyph glyph-name="B.sc" horiz-adv-x="1126" 
d="M160 0v1159h467q159 0 252.5 -87.5t93.5 -237.5q0 -151 -146 -213q68 -21 116.5 -67.5t68.5 -96.5t20 -99q0 -151 -102.5 -254.5t-270.5 -103.5h-499zM418 229h227q54 0 85.5 40.5t31.5 95.5q0 49 -32.5 88t-88.5 39h-223v-263zM418 709h184q44 0 72 30.5t28 79.5
q0 51 -26 81t-76 30h-182v-221z" />
    <glyph glyph-name="C.sc" horiz-adv-x="1226" 
d="M90 571q0 164 76 301t210.5 217t297.5 80q153 0 279 -68t208 -186l-211 -143q-48 72 -119.5 113t-156.5 41q-138 0 -231 -103t-93 -252q0 -144 93 -246t231 -102q86 0 160.5 43.5t121.5 118.5l209 -145q-77 -121 -206.5 -190.5t-284.5 -69.5q-163 0 -297.5 79.5
t-210.5 215t-76 296.5z" />
    <glyph glyph-name="D.sc" horiz-adv-x="1236" 
d="M160 0v1159h454q123 0 223.5 -44.5t166.5 -123t101.5 -185t35.5 -231.5q0 -123 -35.5 -228t-101.5 -182.5t-166.5 -121t-223.5 -43.5h-454zM418 236h196q86 0 148 48t91.5 123.5t29.5 167.5q0 95 -29.5 173t-91.5 127t-148 49h-196v-688z" />
    <glyph glyph-name="E.sc" horiz-adv-x="1021" 
d="M160 0v1159h739v-229h-483v-246h424v-225h-424v-230h497v-229h-753z" />
    <glyph glyph-name="F.sc" horiz-adv-x="954" 
d="M160 0v1159h731v-229h-473v-246h375v-227h-375v-457h-258z" />
    <glyph glyph-name="G.sc" horiz-adv-x="1312" 
d="M90 571q0 164 78 301t215 217t301 80q132 0 247 -51.5t193 -142.5l-186 -162h-8q-45 53 -110 84t-136 31q-141 0 -238.5 -104.5t-97.5 -252.5q0 -144 98 -249t238 -105q61 0 120.5 21t102.5 63.5t45 97.5h-307v211h604q0 -160 -41 -281.5t-116.5 -197.5t-178 -113.5
t-229.5 -37.5q-164 0 -301 79.5t-215 215t-78 296.5z" />
    <glyph glyph-name="H.sc" horiz-adv-x="1228" 
d="M160 0v1159h256v-467h393v467h260v-1159h-260v461h-393v-461h-256z" />
    <glyph glyph-name="I.sc" horiz-adv-x="575" 
d="M160 0v1159h256v-1159h-256z" />
    <glyph glyph-name="J.sc" horiz-adv-x="577" 
d="M-141 -362l22 233q64 -21 154 -21q64 0 94.5 42.5t30.5 109.5v1157h258v-1157q0 -84 -21 -153t-64.5 -124.5t-119.5 -86.5t-178 -31q-59 0 -176 31z" />
    <glyph glyph-name="K.sc" horiz-adv-x="1081" 
d="M160 0v1159h260v-358l262 358h303l-438 -573l543 -586h-336l-334 379v-379h-260z" />
    <glyph glyph-name="L.sc" horiz-adv-x="876" 
d="M160 0v1159h258v-930h428v-229h-686z" />
    <glyph glyph-name="M.sc" horiz-adv-x="1581" 
d="M96 0l142 1159h213l340 -729l337 729h218l139 -1159h-258l-78 668l-258 -537h-197l-260 537l-80 -668h-258z" />
    <glyph glyph-name="N.sc" horiz-adv-x="1191" 
d="M160 0v1159h233l381 -663v663h258v-1159h-227l-389 674v-674h-256z" />
    <glyph glyph-name="O.sc" horiz-adv-x="1355" 
d="M90 571q0 122 46 233t124 191t186.5 127t229.5 47q163 0 299 -80t213.5 -217t77.5 -301q0 -161 -77.5 -296.5t-213.5 -215t-299 -79.5q-161 0 -296 79.5t-212.5 215t-77.5 296.5zM346 571q0 -138 96 -236.5t234 -98.5q139 0 236.5 98.5t97.5 236.5q0 141 -97.5 241.5
t-236.5 100.5q-138 0 -234 -100.5t-96 -241.5z" />
    <glyph glyph-name="P.sc" horiz-adv-x="1083" 
d="M160 0v1159h477q96 0 172 -33t122 -88t69.5 -122t23.5 -140q0 -75 -23.5 -142t-69.5 -120.5t-122 -85t-172 -31.5h-219v-397h-258zM418 623h207q63 0 101 47t38 106q0 58 -35.5 106t-95.5 48h-215v-307z" />
    <glyph glyph-name="Q.sc" horiz-adv-x="1366" 
d="M90 571q0 164 78 301t215 217t301 80q165 0 301.5 -80t214.5 -217t78 -301q0 -144 -65 -269.5t-181 -209.5l111 -184l-185 -113l-124 203q-70 -18 -150 -18q-164 0 -301 79.5t-215 215t-78 296.5zM348 571q0 -123 73 -214.5t189 -116.5q40 -11 86 -11l-57 90l-35 58
l187 110l110 -180q52 48 85.5 119t33.5 145q0 148 -98 251.5t-238 103.5q-141 0 -238.5 -103.5t-97.5 -251.5z" />
    <glyph glyph-name="R.sc" horiz-adv-x="1126" 
d="M160 0v1159h477q95 0 171 -33t122.5 -87.5t71 -122t24.5 -140.5q0 -128 -74 -231t-211 -137l289 -408h-313l-256 397h-43v-397h-258zM418 623h198q65 0 102.5 47t37.5 106t-35 106.5t-96 47.5h-207v-307z" />
    <glyph glyph-name="S.sc" horiz-adv-x="1024" 
d="M94 346h258q3 -58 46 -96.5t118 -38.5q72 0 116.5 30t45.5 83q0 42 -27 71.5t-106 50.5l-139 41q-91 27 -154 68.5t-93 89.5t-41.5 89.5t-11.5 86.5q0 155 115 252.5t285 97.5q174 0 284.5 -98t110.5 -266h-256q0 58 -36.5 93.5t-102.5 35.5q-62 0 -103 -30.5t-41 -76.5
q0 -76 119 -112l137 -41q94 -26 160.5 -69t99.5 -93t46.5 -96t13.5 -94q0 -85 -36.5 -152.5t-98 -108.5t-135 -62t-152.5 -21q-189 0 -305.5 102.5t-116.5 263.5z" />
    <glyph glyph-name="T.sc" horiz-adv-x="964" 
d="M43 926v233h879v-233h-308v-926h-262v926h-309z" />
    <glyph glyph-name="U.sc" horiz-adv-x="1196" 
d="M147 412v747h263v-747q0 -82 57 -135.5t133 -53.5t133.5 53.5t57.5 135.5v747h258v-747q0 -192 -131.5 -312t-317.5 -120q-121 0 -223.5 52t-166 152t-63.5 228z" />
    <glyph glyph-name="V.sc" horiz-adv-x="1034" 
d="M49 1159h268l199 -727l199 727h270l-354 -1159h-228z" />
    <glyph glyph-name="W.sc" horiz-adv-x="1554" 
d="M29 1159h278l217 -702l148 540h211l145 -538l221 700h279l-395 -1159h-201l-156 582l-153 -582h-203z" />
    <glyph glyph-name="X.sc" horiz-adv-x="1173" 
d="M33 0l399 618l-364 541h311l207 -336l211 336h307l-367 -541l406 -618h-305l-252 406l-248 -406h-305z" />
    <glyph glyph-name="Y.sc" horiz-adv-x="1177" 
d="M8 1159h307l273 -422l272 422h311l-452 -637v-522h-262v524z" />
    <glyph glyph-name="Z.sc" horiz-adv-x="1056" 
d="M96 0v195l520 737h-497v227h831v-192l-522 -738h522v-229h-854z" />
    <glyph glyph-name="Scaron.sc" horiz-adv-x="1024" 
d="M94 346h258q3 -58 46 -96.5t118 -38.5q72 0 116.5 30t45.5 83q0 42 -27 71.5t-106 50.5l-139 41q-91 27 -154 68.5t-93 89.5t-41.5 89.5t-11.5 86.5q0 155 115 252.5t285 97.5q174 0 284.5 -98t110.5 -266h-256q0 58 -36.5 93.5t-102.5 35.5q-62 0 -103 -30.5t-41 -76.5
q0 -76 119 -112l137 -41q94 -26 160.5 -69t99.5 -93t46.5 -96t13.5 -94q0 -85 -36.5 -152.5t-98 -108.5t-135 -62t-152.5 -21q-189 0 -305.5 102.5t-116.5 263.5zM205 1556h182l127 -145l133 145h178l-188 -290h-242z" />
    <glyph glyph-name="OE.sc" horiz-adv-x="1875" 
d="M90 571q0 122 46 233t124.5 191t188 127t231.5 47q203 0 334 -120v110h739v-227h-481v-248h420v-225h-420v-230h495v-229h-753v98q-146 -118 -334 -118q-162 0 -298 79.5t-214 215t-78 296.5zM348 571q0 -139 96.5 -237t235.5 -98q138 0 235 98.5t97 236.5
q0 140 -97.5 241t-234.5 101q-139 0 -235.5 -100t-96.5 -242z" />
    <glyph glyph-name="Ydieresis.sc" horiz-adv-x="1177" 
d="M8 1159h307l273 -422l272 422h311l-452 -637v-522h-262v524zM315 1440q0 51 37 85t90 34t88 -34t35 -85q0 -53 -35 -87t-88 -34t-90 34t-37 87zM610 1440q0 51 37 85t90 34t88 -34t35 -85q0 -53 -35 -87t-88 -34t-90 34t-37 87z" />
    <glyph glyph-name="exclamdown.sc" horiz-adv-x="587" 
d="M143 1034q0 62 44 104t106 42t105.5 -42t43.5 -104t-43.5 -102.5t-105.5 -40.5q-63 0 -106.5 40.5t-43.5 102.5zM160 0l35 817h198l33 -817h-266z" />
    <glyph glyph-name="questiondown.sc" horiz-adv-x="880" 
d="M88 311q0 120 63 205t164 115q47 14 60 37t20 80l6 57h240l2 -41q0 -140 -44 -219t-157 -123q-68 -28 -87 -50t-19 -63q0 -33 31 -57.5t77 -24.5q50 0 82 28.5t37 72.5h234l6 6q0 -162 -98.5 -258t-260.5 -96q-160 0 -258 90t-98 241zM365 1024q0 62 44.5 103.5
t108.5 41.5q61 0 105.5 -41.5t44.5 -103.5q0 -63 -44 -104t-106 -41q-64 0 -108.5 41t-44.5 104z" />
    <glyph glyph-name="Agrave.sc" 
d="M14 0l430 1159h275l430 -1159h-272l-101 270h-387l-102 -270h-273zM279 1559h247l191 -291h-182zM473 496h219l-112 372z" />
    <glyph glyph-name="Aacute.sc" 
d="M14 0l430 1159h275l430 -1159h-272l-101 270h-387l-102 -270h-273zM455 1268l192 291h246l-256 -291h-182zM473 496h219l-112 372z" />
    <glyph glyph-name="Acircumflex.sc" 
d="M14 0l430 1159h275l430 -1159h-272l-101 270h-387l-102 -270h-273zM270 1274l189 293h239l191 -293h-180l-129 143l-129 -143h-181zM473 496h219l-112 372z" />
    <glyph glyph-name="Atilde.sc" 
d="M14 0l430 1159h275l430 -1159h-272l-101 270h-387l-102 -270h-273zM334 1309q3 61 20 107t43 71t54 37t57 12q32 0 76 -34t69 -34q5 0 12.5 5.5t15.5 22t9 40.5h137q-2 -62 -19.5 -108t-44 -70.5t-54 -35.5t-56.5 -11t-74 33.5t-71 33.5q-6 0 -13.5 -6t-14.5 -23t-7 -40
h-139zM473 496h219l-112 372z" />
    <glyph glyph-name="Adieresis.sc" 
d="M14 0l430 1159h275l430 -1159h-272l-101 270h-387l-102 -270h-273zM285 1440q0 50 38 84.5t91 34.5t88 -34t35 -85q0 -53 -35 -87t-88 -34q-54 0 -91.5 34t-37.5 87zM473 496h219l-112 372zM580 1440q0 50 38 84.5t91 34.5t89 -34t36 -85q0 -53 -36 -87t-89 -34
q-54 0 -91.5 34t-37.5 87z" />
    <glyph glyph-name="Aring.sc" 
d="M14 0l430 1159h275l430 -1159h-272l-101 270h-387l-102 -270h-273zM373 1475q0 89 59.5 150t147.5 61t148 -61t60 -150q0 -88 -60 -147.5t-148 -59.5t-147.5 59.5t-59.5 147.5zM473 496h219l-112 372zM494 1475q0 -36 25 -61t61 -25q37 0 63.5 25t26.5 61
q0 37 -26.5 63.5t-63.5 26.5q-35 0 -60.5 -26.5t-25.5 -63.5z" />
    <glyph glyph-name="AE.sc" horiz-adv-x="1630" 
d="M-6 0l733 1159h778v-227h-481v-248h422v-225h-422v-230h498v-229h-756v262h-297l-166 -262h-309zM616 512h150v287z" />
    <glyph glyph-name="Ccedilla.sc" horiz-adv-x="1230" 
d="M92 575q0 164 76 301.5t210.5 217.5t297.5 80q153 0 279 -68t208 -186l-211 -144q-48 72 -119.5 113t-156.5 41q-138 0 -231 -103t-93 -252q0 -144 93 -246t231 -102q86 0 160.5 43.5t121.5 118.5l209 -147q-70 -108 -180 -175.5t-246 -80.5q8 -16 26 -46t24 -42
q16 -33 16 -84q0 -74 -54 -126.5t-130 -52.5q-75 0 -128.5 59t-50.5 161l138 -7q0 -31 4 -47q4 -20 21.5 -28t35.5 0q36 13 23 63l-56 150q-225 25 -371.5 192.5t-146.5 396.5z" />
    <glyph glyph-name="Egrave.sc" horiz-adv-x="1021" 
d="M160 0v1159h739v-229h-483v-246h424v-225h-424v-230h497v-229h-753zM242 1559h247l193 -291h-182z" />
    <glyph glyph-name="Eacute.sc" horiz-adv-x="1021" 
d="M160 0v1159h739v-229h-483v-246h424v-225h-424v-230h497v-229h-753zM373 1268l192 291h248l-258 -291h-182z" />
    <glyph glyph-name="Ecircumflex.sc" horiz-adv-x="1021" 
d="M160 0v1159h739v-229h-483v-246h424v-225h-424v-230h497v-229h-753zM195 1274l186 293h242l190 -293h-180l-129 143l-131 -143h-178z" />
    <glyph glyph-name="Edieresis.sc" horiz-adv-x="1021" 
d="M160 0v1159h739v-229h-483v-246h424v-225h-424v-230h497v-229h-753zM229 1440q0 51 37.5 85t91.5 34q51 0 87 -34t36 -85q0 -53 -35.5 -87t-87.5 -34q-55 0 -92 34t-37 87zM524 1440q0 51 37.5 85t91.5 34q51 0 87 -34t36 -85q0 -53 -35.5 -87t-87.5 -34q-55 0 -92 34
t-37 87z" />
    <glyph glyph-name="Igrave.sc" horiz-adv-x="575" 
d="M-18 1559h245l193 -291h-182zM160 0v1159h256v-1159h-256z" />
    <glyph glyph-name="Iacute.sc" horiz-adv-x="575" 
d="M147 1298l199 271h256l-266 -271h-189zM160 0v1159h256v-1159h-256z" />
    <glyph glyph-name="Icircumflex.sc" horiz-adv-x="575" 
d="M-20 1274l190 293h238l192 -293h-182l-129 143l-127 -143h-182zM160 0v1159h256v-1159h-256z" />
    <glyph glyph-name="Idieresis.sc" horiz-adv-x="575" 
d="M10 1440q0 51 37.5 85t91.5 34q51 0 87 -34t36 -85q0 -53 -35.5 -87t-87.5 -34q-55 0 -92 34t-37 87zM160 0v1159h256v-1159h-256zM305 1440q0 51 37.5 85t91.5 34q51 0 87 -34t36 -85q0 -53 -35.5 -87t-87.5 -34q-55 0 -92 34t-37 87z" />
    <glyph glyph-name="Eth.sc" horiz-adv-x="1255" 
d="M23 479v162h155v518h457q163 0 283 -77t180.5 -208.5t60.5 -298.5q0 -253 -140 -414t-384 -161h-457v479h-155zM436 236h199q127 0 196.5 97.5t69.5 241.5q0 148 -69.5 248.5t-196.5 100.5h-199v-283h203v-162h-203v-243z" />
    <glyph glyph-name="Ntilde.sc" horiz-adv-x="1191" 
d="M160 0v1159h233l381 -663v663h258v-1159h-227l-389 674v-674h-256zM348 1309q3 61 20 107t43 71t54 37t57 12q32 0 76 -34t70 -34q5 0 12.5 5.5t15.5 22t9 40.5h137q-2 -62 -19.5 -108t-44 -70.5t-54 -35.5t-56.5 -11t-74.5 33.5t-71.5 33.5q-6 0 -13.5 -6t-14.5 -23
t-7 -40h-139z" />
    <glyph glyph-name="Ograve.sc" horiz-adv-x="1355" 
d="M90 571q0 122 46 233t124 191t186.5 127t229.5 47q163 0 299 -80t213.5 -217t77.5 -301q0 -161 -77.5 -296.5t-213.5 -215t-299 -79.5q-161 0 -296 79.5t-212.5 215t-77.5 296.5zM346 571q0 -138 96 -236.5t234 -98.5q139 0 236.5 98.5t97.5 236.5q0 141 -97.5 241.5
t-236.5 100.5q-138 0 -234 -100.5t-96 -241.5zM369 1559h245l193 -291h-180z" />
    <glyph glyph-name="Oacute.sc" horiz-adv-x="1355" 
d="M90 571q0 122 46 233t124 191t186.5 127t229.5 47q163 0 299 -80t213.5 -217t77.5 -301q0 -161 -77.5 -296.5t-213.5 -215t-299 -79.5q-161 0 -296 79.5t-212.5 215t-77.5 296.5zM346 571q0 -138 96 -236.5t234 -98.5q139 0 236.5 98.5t97.5 236.5q0 141 -97.5 241.5
t-236.5 100.5q-138 0 -234 -100.5t-96 -241.5zM557 1268l191 291h247l-258 -291h-180z" />
    <glyph glyph-name="Ocircumflex.sc" horiz-adv-x="1355" 
d="M90 571q0 122 46 233t124 191t186.5 127t229.5 47q163 0 299 -80t213.5 -217t77.5 -301q0 -161 -77.5 -296.5t-213.5 -215t-299 -79.5q-161 0 -296 79.5t-212.5 215t-77.5 296.5zM346 571q0 -138 96 -236.5t234 -98.5q139 0 236.5 98.5t97.5 236.5q0 141 -97.5 241.5
t-236.5 100.5q-138 0 -234 -100.5t-96 -241.5zM369 1274l188 293h240l190 -293h-180l-131 145l-127 -145h-180z" />
    <glyph glyph-name="Otilde.sc" horiz-adv-x="1355" 
d="M90 571q0 122 46 233t124 191t186.5 127t229.5 47q163 0 299 -80t213.5 -217t77.5 -301q0 -161 -77.5 -296.5t-213.5 -215t-299 -79.5q-161 0 -296 79.5t-212.5 215t-77.5 296.5zM346 571q0 -138 96 -236.5t234 -98.5q139 0 236.5 98.5t97.5 236.5q0 141 -97.5 241.5
t-236.5 100.5q-138 0 -234 -100.5t-96 -241.5zM430 1309q3 61 20 107t43 71t54 37t57 12q32 0 76 -34t70 -34q5 0 12.5 5.5t15 22t8.5 40.5h138q-2 -62 -19.5 -108t-44 -70.5t-54 -35.5t-56.5 -11t-74.5 33.5t-71.5 33.5q-6 0 -13.5 -6t-14.5 -23t-7 -40h-139z" />
    <glyph glyph-name="Odieresis.sc" horiz-adv-x="1355" 
d="M90 571q0 122 46 233t124 191t186.5 127t229.5 47q163 0 299 -80t213.5 -217t77.5 -301q0 -161 -77.5 -296.5t-213.5 -215t-299 -79.5q-161 0 -296 79.5t-212.5 215t-77.5 296.5zM346 571q0 -138 96 -236.5t234 -98.5q139 0 236.5 98.5t97.5 236.5q0 141 -97.5 241.5
t-236.5 100.5q-138 0 -234 -100.5t-96 -241.5zM403 1440q0 51 37.5 85t91.5 34q51 0 87 -34t36 -85q0 -53 -35.5 -87t-87.5 -34q-55 0 -92 34t-37 87zM698 1440q0 51 37.5 85t91.5 34q53 0 88 -34t35 -85q0 -53 -35 -87t-88 -34q-55 0 -92 34t-37 87z" />
    <glyph glyph-name="Oslash.sc" horiz-adv-x="1353" 
d="M88 571q0 122 46 233t124 191t186.5 127t229.5 47q213 0 373 -135l131 137l86 -86l-134 -135q134 -166 134 -379q0 -161 -77.5 -296.5t-213.5 -215t-299 -79.5q-200 0 -363 124l-135 -137l-86 86l133 137q-135 167 -135 381zM344 571q0 -111 59 -196l463 477
q-87 61 -192 61q-138 0 -234 -100.5t-96 -241.5zM489 289q77 -53 185 -53q139 0 236.5 98.5t97.5 236.5q0 110 -60 193z" />
    <glyph glyph-name="Ugrave.sc" horiz-adv-x="1196" 
d="M147 412v747h263v-747q0 -82 57 -135.5t133 -53.5t133.5 53.5t57.5 135.5v747h258v-747q0 -192 -131.5 -312t-317.5 -120q-121 0 -223.5 52t-166 152t-63.5 228zM305 1559h248l188 -291h-180z" />
    <glyph glyph-name="Uacute.sc" horiz-adv-x="1196" 
d="M147 412v747h263v-747q0 -82 57 -135.5t133 -53.5t133.5 53.5t57.5 135.5v747h258v-747q0 -192 -131.5 -312t-317.5 -120q-121 0 -223.5 52t-166 152t-63.5 228zM453 1268l192 291h246l-256 -291h-182z" />
    <glyph glyph-name="Ucircumflex.sc" horiz-adv-x="1196" 
d="M147 412v747h263v-747q0 -82 57 -135.5t133 -53.5t133.5 53.5t57.5 135.5v747h258v-747q0 -192 -131.5 -312t-317.5 -120q-121 0 -223.5 52t-166 152t-63.5 228zM287 1274l190 293h240l190 -293h-180l-131 145l-127 -145h-182z" />
    <glyph glyph-name="Udieresis.sc" horiz-adv-x="1196" 
d="M147 412v747h263v-747q0 -82 57 -135.5t133 -53.5t133.5 53.5t57.5 135.5v747h258v-747q0 -192 -131.5 -312t-317.5 -120q-121 0 -223.5 52t-166 152t-63.5 228zM324 1440q0 50 38 84.5t91 34.5q52 0 87 -34t35 -85q0 -54 -34.5 -87.5t-87.5 -33.5q-54 0 -91.5 34
t-37.5 87zM618 1440q0 50 38.5 84.5t91.5 34.5t88.5 -34t35.5 -85q0 -53 -35.5 -87t-88.5 -34q-54 0 -92 34t-38 87z" />
    <glyph glyph-name="Yacute.sc" horiz-adv-x="1177" 
d="M8 1159h307l273 -422l272 422h311l-452 -637v-522h-262v524zM451 1268l190 291h248l-258 -291h-180z" />
    <glyph glyph-name="Thorn.sc" horiz-adv-x="1007" 
d="M160 0v1159h256v-186h153q163 0 271 -104t108 -275t-108 -277t-271 -106h-153v-211h-256zM416 428h143q53 0 94 44t41 114q0 76 -40 122t-93 46h-145v-326z" />
    <glyph glyph-name="Amacron.sc" 
d="M14 0l430 1159h275l430 -1159h-272l-101 270h-387l-102 -270h-273zM344 1350v153h475v-153h-475zM473 496h219l-112 372z" />
    <glyph glyph-name="Abreve.sc" 
d="M14 0l430 1159h275l430 -1159h-272l-101 270h-387l-102 -270h-273zM350 1528h154q0 -86 76 -86q73 0 73 86h158q0 -103 -64.5 -165.5t-166.5 -62.5q-111 0 -170.5 67t-59.5 161zM473 496h219l-112 372z" />
    <glyph glyph-name="Cacute.sc" horiz-adv-x="1226" 
d="M90 571q0 164 76 301t210.5 217t297.5 80q153 0 279 -68t208 -186l-211 -143q-48 72 -119.5 113t-156.5 41q-138 0 -231 -103t-93 -252q0 -144 93 -246t231 -102q86 0 160.5 43.5t121.5 118.5l209 -145q-77 -121 -206.5 -190.5t-284.5 -69.5q-163 0 -297.5 79.5
t-210.5 215t-76 296.5zM567 1268l193 291h248l-258 -291h-183z" />
    <glyph glyph-name="Ccircumflex.sc" horiz-adv-x="1226" 
d="M90 571q0 164 76 301t210.5 217t297.5 80q153 0 279 -68t208 -186l-211 -143q-48 72 -119.5 113t-156.5 41q-138 0 -231 -103t-93 -252q0 -144 93 -246t231 -102q86 0 160.5 43.5t121.5 118.5l209 -145q-77 -121 -206.5 -190.5t-284.5 -69.5q-163 0 -297.5 79.5
t-210.5 215t-76 296.5zM358 1274l189 293h239l191 -293h-180l-129 143l-129 -143h-181z" />
    <glyph glyph-name="Cdotaccent.sc" horiz-adv-x="1226" 
d="M90 571q0 164 76 301t210.5 217t297.5 80q153 0 279 -68t208 -186l-211 -143q-48 72 -119.5 113t-156.5 41q-138 0 -231 -103t-93 -252q0 -144 93 -246t231 -102q86 0 160.5 43.5t121.5 118.5l209 -145q-77 -121 -206.5 -190.5t-284.5 -69.5q-163 0 -297.5 79.5
t-210.5 215t-76 296.5zM532 1450q0 55 38.5 92t97.5 37q56 0 95.5 -37t39.5 -92q0 -57 -39 -94t-96 -37q-59 0 -97.5 36.5t-38.5 94.5z" />
    <glyph glyph-name="Ccaron.sc" horiz-adv-x="1226" 
d="M90 571q0 164 76 301t210.5 217t297.5 80q153 0 279 -68t208 -186l-211 -143q-48 72 -119.5 113t-156.5 41q-138 0 -231 -103t-93 -252q0 -144 93 -246t231 -102q86 0 160.5 43.5t121.5 118.5l209 -145q-77 -121 -206.5 -190.5t-284.5 -69.5q-163 0 -297.5 79.5
t-210.5 215t-76 296.5zM344 1556h182l127 -143l129 143h183l-193 -290h-237z" />
    <glyph glyph-name="Dcaron.sc" horiz-adv-x="1245" 
d="M160 0v1167h461q164 0 285 -77.5t182 -209.5t61 -300q0 -166 -61 -296.5t-182 -207t-285 -76.5h-461zM293 1556h180l129 -143q14 16 61 66.5t70 76.5h182l-192 -290h-242zM426 244h195q84 0 145 47.5t90 122.5t29 166q0 146 -69.5 245t-194.5 99h-195v-680z" />
    <glyph glyph-name="Aogonek.sc" 
d="M14 0l430 1159h275l430 -1159h-158l-51 -164q-13 -50 23 -63q18 -8 35.5 0t21.5 28l4 47l137 7q3 -102 -50 -161t-128 -59q-76 0 -130 52.5t-54 126.5q0 51 16 84q5 10 28 51t31 57l-98 264h-387q-55 -147 -102 -270h-273zM473 496h221l-112 370z" />
    <glyph glyph-name="Emacron.sc" horiz-adv-x="1021" 
d="M160 0v1159h739v-229h-483v-246h424v-225h-424v-230h497v-229h-753zM264 1350v153h475v-153h-475z" />
    <glyph glyph-name="Ebreve.sc" horiz-adv-x="1021" 
d="M160 0v1159h739v-229h-483v-246h424v-225h-424v-230h497v-229h-753zM272 1528h154q0 -86 78 -86q37 0 54 24t17 62h158q0 -103 -63.5 -165.5t-165.5 -62.5q-112 0 -172 67t-60 161z" />
    <glyph glyph-name="Edotaccent.sc" horiz-adv-x="1021" 
d="M160 0v1159h739v-229h-483v-246h424v-225h-424v-230h497v-229h-753zM383 1450q0 55 39 92t98 37q56 0 94.5 -37t38.5 -92q0 -58 -38.5 -94.5t-94.5 -36.5q-59 0 -98 36.5t-39 94.5z" />
    <glyph glyph-name="Ecaron.sc" horiz-adv-x="1021" 
d="M160 0v1159h739v-229h-483v-246h424v-225h-424v-230h497v-229h-753zM195 1556h178l131 -143l129 143h180l-190 -290h-242z" />
    <glyph glyph-name="Gcircumflex.sc" horiz-adv-x="1312" 
d="M90 571q0 164 78 301t215 217t301 80q132 0 247 -51.5t193 -142.5l-186 -162q-112 115 -254 115q-141 0 -238.5 -104.5t-97.5 -252.5q0 -144 98 -249t238 -105q61 0 120.5 21t102.5 63.5t45 97.5h-307v211h604q0 -160 -41 -281.5t-116.5 -197.5t-178 -113.5t-229.5 -37.5
q-164 0 -301 79.5t-215 215t-78 296.5zM352 1274l191 293h237l193 -293h-182l-129 143l-127 -143h-183z" />
    <glyph glyph-name="Gbreve.sc" horiz-adv-x="1312" 
d="M90 571q0 164 78 301t215 217t301 80q132 0 247 -51.5t193 -142.5l-186 -162q-112 115 -254 115q-141 0 -238.5 -104.5t-97.5 -252.5q0 -144 98 -249t238 -105q61 0 120.5 21t102.5 63.5t45 97.5h-307v211h604q0 -160 -41 -281.5t-116.5 -197.5t-178 -113.5t-229.5 -37.5
q-164 0 -301 79.5t-215 215t-78 296.5zM432 1528h154q0 -86 76 -86q73 0 73 86h158q0 -103 -64.5 -165.5t-166.5 -62.5q-111 0 -170.5 67t-59.5 161z" />
    <glyph glyph-name="Eogonek.sc" horiz-adv-x="1021" 
d="M160 0v1159h739v-229h-483v-246h424v-225h-424v-230h497v-225l-65 -168q-13 -50 22 -63q18 -8 36 0t22 28l4 47l137 7q3 -102 -50 -161t-128 -59q-76 0 -130 52.5t-54 126.5q0 51 16 84l61 102h-624z" />
    <glyph glyph-name="Dcroat.sc" horiz-adv-x="1255" 
d="M23 479v162h155v518h457q163 0 283 -77t180.5 -208.5t60.5 -298.5q0 -253 -140 -414t-384 -161h-457v479h-155zM436 236h199q127 0 196.5 97.5t69.5 241.5q0 148 -69.5 248.5t-196.5 100.5h-199v-283h203v-162h-203v-243z" />
    <glyph glyph-name="Gdotaccent.sc" horiz-adv-x="1312" 
d="M90 571q0 164 78 301t215 217t301 80q132 0 247 -51.5t193 -142.5l-186 -162h-8q-45 53 -110 84t-136 31q-141 0 -238.5 -104.5t-97.5 -252.5q0 -144 98 -249t238 -105q61 0 120.5 21t102.5 63.5t45 97.5h-307v211h604q0 -160 -41 -281.5t-116.5 -197.5t-178 -113.5
t-229.5 -37.5q-164 0 -301 79.5t-215 215t-78 296.5zM545 1450q0 56 38.5 92.5t96.5 36.5q56 0 95.5 -37t39.5 -92q0 -57 -39 -94t-96 -37q-59 0 -97 36.5t-38 94.5z" />
    <glyph glyph-name="Hcircumflex.sc" horiz-adv-x="1228" 
d="M160 0v1159h256v-467h393v467h260v-1159h-260v461h-393v-461h-256zM305 1274l189 293h239l191 -293h-181l-129 143l-129 -143h-180z" />
    <glyph glyph-name="Hbar.sc" horiz-adv-x="1251" 
d="M51 862v133h119v164h258v-164h393v164h260v-164h121v-133h-121v-862h-260v461h-393v-461h-258v862h-119zM428 692h393v170h-393v-170z" />
    <glyph glyph-name="Itilde.sc" horiz-adv-x="550" 
d="M29 1309q3 61 20 107t43 71t54 37t57 12q31 0 75 -34t70 -34q5 0 12.5 5.5t15.5 22t9 40.5h137q-2 -62 -19.5 -108t-44 -70.5t-54 -35.5t-56.5 -11t-74 33.5t-71 33.5q-6 0 -13.5 -6t-14.5 -23t-7 -40h-139zM160 -16v1192h231v-1192h-231z" />
    <glyph glyph-name="Imacron.sc" horiz-adv-x="575" 
d="M51 1350v153h475v-153h-475zM160 0v1159h256v-1159h-256z" />
    <glyph glyph-name="Iogonek.sc" horiz-adv-x="575" 
d="M84 -186q0 51 16 84l60 110v1151h256v-1159h-129l-62 -164q-13 -50 23 -63q18 -8 35.5 0t21.5 28l4 47l137 7q3 -102 -50 -161t-128 -59q-76 0 -130 52.5t-54 126.5z" />
    <glyph glyph-name="IJ.sc" horiz-adv-x="1153" 
d="M160 0v1159h256v-1159h-256zM434 -362l23 233q64 -21 153 -21q64 0 94.5 42.5t30.5 109.5v1157h258v-1157q0 -84 -21 -153t-64.5 -124.5t-119.5 -86.5t-178 -31q-59 0 -176 31z" />
    <glyph glyph-name="Jcircumflex.sc" horiz-adv-x="552" 
d="M-139 -354l22 207q53 -15 142 -15q68 0 101.5 45.5t33.5 118.5v1145h233v-1145q0 -64 -12 -119.5t-40 -104.5t-69.5 -84t-104.5 -55t-142 -20q-50 0 -164 27zM-33 1274l189 293h239l193 -293h-182l-130 143l-129 -143h-180z" />
    <glyph glyph-name="Lacute.sc" horiz-adv-x="876" 
d="M158 1268l188 291h250l-258 -291h-180zM160 0v1159h258v-930h428v-229h-686z" />
    <glyph glyph-name="Lcaron.sc" horiz-adv-x="905" 
d="M160 0v1159h258v-930h428v-229h-686zM514 760q92 132 119 270q12 58 12 131h205q-11 -156 -64 -275.5t-118 -174.5z" />
    <glyph glyph-name="Ldot.sc" horiz-adv-x="878" 
d="M160 0v1159h258v-930h428v-229h-686zM535 520q0 50 36 83.5t88 33.5q51 0 87 -34t36 -83q0 -53 -35.5 -87t-87.5 -34q-53 0 -88.5 34t-35.5 87z" />
    <glyph glyph-name="Nacute.sc" horiz-adv-x="1191" 
d="M160 0v1159h233l381 -663v663h258v-1159h-227l-389 674v-674h-256zM483 1268l193 291h246l-258 -291h-181z" />
    <glyph glyph-name="Ncaron.sc" horiz-adv-x="1191" 
d="M160 0v1159h233l381 -663v663h258v-1159h-227l-389 674v-674h-256zM274 1556h179l131 -143l129 143h180l-191 -290h-241z" />
    <glyph glyph-name="Omacron.sc" horiz-adv-x="1355" 
d="M90 571q0 122 46 233t124 191t186.5 127t229.5 47q163 0 299 -80t213.5 -217t77.5 -301q0 -161 -77.5 -296.5t-213.5 -215t-299 -79.5q-161 0 -296 79.5t-212.5 215t-77.5 296.5zM346 571q0 -138 96 -236.5t234 -98.5q139 0 236.5 98.5t97.5 236.5q0 141 -97.5 241.5
t-236.5 100.5q-138 0 -234 -100.5t-96 -241.5zM438 1350v153h475v-153h-475z" />
    <glyph glyph-name="Obreve.sc" horiz-adv-x="1355" 
d="M90 571q0 122 46 233t124 191t186.5 127t229.5 47q163 0 299 -80t213.5 -217t77.5 -301q0 -161 -77.5 -296.5t-213.5 -215t-299 -79.5q-161 0 -296 79.5t-212.5 215t-77.5 296.5zM346 571q0 -138 96 -236.5t234 -98.5q139 0 236.5 98.5t97.5 236.5q0 141 -97.5 241.5
t-236.5 100.5q-138 0 -234 -100.5t-96 -241.5zM446 1528h154q0 -86 76 -86q38 0 56 24t18 62h157q0 -104 -64 -166t-167 -62q-110 0 -170 67t-60 161z" />
    <glyph glyph-name="Ohungarumlaut.sc" horiz-adv-x="1355" 
d="M90 571q0 122 46 233t124 191t186.5 127t229.5 47q163 0 299 -80t213.5 -217t77.5 -301q0 -161 -77.5 -296.5t-213.5 -215t-299 -79.5q-161 0 -296 79.5t-212.5 215t-77.5 296.5zM346 571q0 -138 96 -236.5t234 -98.5q139 0 236.5 98.5t97.5 236.5q0 141 -97.5 241.5
t-236.5 100.5q-138 0 -234 -100.5t-96 -241.5zM461 1266l192 290h203l-213 -290h-182zM707 1266l215 290h204l-229 -290h-190z" />
    <glyph glyph-name="Racute.sc" horiz-adv-x="1126" 
d="M160 0v1159h477q95 0 171 -33t122.5 -87.5t71 -122t24.5 -140.5q0 -128 -74 -231t-211 -137l289 -408h-313l-256 397h-43v-397h-258zM403 1268l193 291h248l-258 -291h-183zM418 623h198q65 0 102.5 47t37.5 106t-35 106.5t-96 47.5h-207v-307z" />
    <glyph glyph-name="Rcaron.sc" horiz-adv-x="1126" 
d="M160 0v1159h477q95 0 171 -33t122.5 -87.5t71 -122t24.5 -140.5q0 -128 -74 -231t-211 -137l289 -408h-313l-256 397h-43v-397h-258zM244 1556h182l127 -143l131 143h182l-190 -290h-242zM418 623h198q65 0 102.5 47t37.5 106t-35 106.5t-96 47.5h-207v-307z" />
    <glyph glyph-name="Sacute.sc" horiz-adv-x="1024" 
d="M94 346h258q3 -58 46 -96.5t118 -38.5q72 0 116.5 30t45.5 83q0 42 -27 71.5t-106 50.5l-139 41q-91 27 -154 68.5t-93 89.5t-41.5 89.5t-11.5 86.5q0 155 115 252.5t285 97.5q174 0 284.5 -98t110.5 -266h-256q0 58 -36.5 93.5t-102.5 35.5q-62 0 -103 -30.5t-41 -76.5
q0 -76 119 -112l137 -41q94 -26 160.5 -69t99.5 -93t46.5 -96t13.5 -94q0 -85 -36.5 -152.5t-98 -108.5t-135 -62t-152.5 -21q-189 0 -305.5 102.5t-116.5 263.5zM393 1268l193 291h245l-256 -291h-182z" />
    <glyph glyph-name="Scircumflex.sc" horiz-adv-x="1024" 
d="M94 346h258q3 -58 46 -96.5t118 -38.5q72 0 116.5 30t45.5 83q0 42 -27 71.5t-106 50.5l-139 41q-91 27 -154 68.5t-93 89.5t-41.5 89.5t-11.5 86.5q0 155 115 252.5t285 97.5q174 0 284.5 -98t110.5 -266h-256q0 58 -36.5 93.5t-102.5 35.5q-62 0 -103 -30.5t-41 -76.5
q0 -76 119 -112l137 -41q94 -26 160.5 -69t99.5 -93t46.5 -96t13.5 -94q0 -85 -36.5 -152.5t-98 -108.5t-135 -62t-152.5 -21q-189 0 -305.5 102.5t-116.5 263.5zM207 1274l188 293h242l188 -293h-178l-131 143l-129 -143h-180z" />
    <glyph glyph-name="Scedilla.sc" horiz-adv-x="1021" 
d="M96 348h256q2 -58 45.5 -97.5t118.5 -39.5q72 0 116.5 30t45.5 83q2 41 -26 70.5t-107 51.5l-137 39q-74 22 -129.5 55t-87 66.5t-51 74t-25.5 73t-6 67.5q0 153 114.5 250.5t282.5 97.5q173 0 283 -97.5t110 -264.5h-254q0 57 -37 92t-104 35q-61 0 -102.5 -30
t-41.5 -77q0 -78 121 -110l135 -43q93 -29 160 -73t99.5 -93t46.5 -94t12 -90q-1 -100 -51 -175t-125 -114t-166 -49q8 -16 25.5 -46.5t23.5 -41.5q16 -33 16 -84q0 -74 -54 -126.5t-130 -52.5q-75 0 -128 59t-50 161l137 -7q0 -31 4 -47q4 -20 22 -28t36 0q35 13 22 63
l-55 148q-165 15 -265 114.5t-100 249.5z" />
    <glyph glyph-name="Utilde.sc" horiz-adv-x="1196" 
d="M147 412v747h263v-747q0 -82 57 -135.5t133 -53.5t133.5 53.5t57.5 135.5v747h258v-747q0 -192 -131.5 -312t-317.5 -120q-121 0 -223.5 52t-166 152t-63.5 228zM352 1309q3 61 20 107t43 71t54 37t57 12q32 0 76 -34t70 -34q5 0 12.5 5.5t15.5 22t9 40.5h137
q-2 -62 -19.5 -108t-44 -70.5t-54 -35.5t-56.5 -11t-74.5 33.5t-71.5 33.5q-6 0 -13.5 -6t-14 -23t-6.5 -40h-140z" />
    <glyph glyph-name="Umacron.sc" horiz-adv-x="1196" 
d="M147 412v747h263v-747q0 -82 57 -135.5t133 -53.5t133.5 53.5t57.5 135.5v747h258v-747q0 -192 -131.5 -312t-317.5 -120q-121 0 -223.5 52t-166 152t-63.5 228zM360 1350v153h478v-153h-478z" />
    <glyph glyph-name="Ubreve.sc" horiz-adv-x="1196" 
d="M147 412v747h263v-747q0 -82 57 -135.5t133 -53.5t133.5 53.5t57.5 135.5v747h258v-747q0 -192 -131.5 -312t-317.5 -120q-121 0 -223.5 52t-166 152t-63.5 228zM369 1528h153q0 -86 74 -86q39 0 57.5 24.5t18.5 61.5h157q0 -103 -65 -165.5t-168 -62.5q-110 0 -168.5 67
t-58.5 161z" />
    <glyph glyph-name="Uring.sc" horiz-adv-x="1196" 
d="M147 412v747h263v-747q0 -82 57 -135.5t133 -53.5t133.5 53.5t57.5 135.5v747h258v-747q0 -192 -131.5 -312t-317.5 -120q-121 0 -223.5 52t-166 152t-63.5 228zM391 1475q0 89 59.5 150t145.5 61q89 0 150 -61t61 -150q0 -88 -61 -147.5t-150 -59.5q-86 0 -145.5 59.5
t-59.5 147.5zM512 1475q0 -36 25 -61t59 -25q38 0 64 24.5t26 61.5t-26 63.5t-64 26.5q-34 0 -59 -26.5t-25 -63.5z" />
    <glyph glyph-name="Uhungarumlaut.sc" horiz-adv-x="1196" 
d="M147 412v747h263v-747q0 -82 57 -135.5t133 -53.5t133.5 53.5t57.5 135.5v747h258v-747q0 -192 -131.5 -312t-317.5 -120q-121 0 -223.5 52t-166 152t-63.5 228zM338 1266l192 290h203l-213 -290h-182zM584 1266l215 290h205l-230 -290h-190z" />
    <glyph glyph-name="Uogonek.sc" horiz-adv-x="1196" 
d="M147 416v743h263v-743q0 -82 57 -135.5t133 -53.5t133.5 53.5t57.5 135.5v743h258v-743q0 -179 -115 -296.5t-285 -133.5l-55 -150q-13 -50 22 -63q18 -8 36 0t22 28l4 47l137 7q3 -102 -50 -161t-128 -59q-76 0 -130 52.5t-54 126.5q0 51 16 84l47 94
q-158 27 -263.5 141.5t-105.5 282.5z" />
    <glyph glyph-name="Wcircumflex.sc" horiz-adv-x="1554" 
d="M29 1159h278l217 -702l148 540h211l145 -538l221 700h279l-395 -1159h-201l-156 582l-153 -582h-203zM469 1274l188 293h240l193 -293h-183l-129 143l-131 -143h-178z" />
    <glyph glyph-name="Ycircumflex.sc" horiz-adv-x="1177" 
d="M8 1159h307l273 -422l272 422h311l-452 -637v-522h-262v524zM279 1274l188 293h240l190 -293h-180l-129 143l-129 -143h-180z" />
    <glyph glyph-name="Tcaron.sc" horiz-adv-x="1003" 
d="M41 926v233h922v-233h-326v-926h-270v926h-326zM195 1556h178l131 -143l129 143h180l-190 -290h-242z" />
    <glyph glyph-name="Tbar.sc" horiz-adv-x="964" 
d="M45 924v231h875v-231h-308v-271h158v-153h-158v-500h-258v500h-159v153h159v271h-309z" />
    <glyph glyph-name="Zacute.sc" horiz-adv-x="1056" 
d="M96 0v195l520 737h-497v227h831v-192l-522 -738h522v-229h-854zM395 1268l193 291h248l-261 -291h-180z" />
    <glyph glyph-name="Zdotaccent.sc" horiz-adv-x="1056" 
d="M96 0v195l520 737h-497v227h831v-192l-522 -738h522v-229h-854zM416 1450q0 55 39 92t96 37t96 -37t39 -92q0 -58 -38.5 -94.5t-96.5 -36.5t-96.5 36.5t-38.5 94.5z" />
    <glyph glyph-name="Wgrave.sc" horiz-adv-x="1554" 
d="M29 1159h278l217 -702l148 540h211l145 -538l221 700h279l-395 -1159h-201l-156 582l-153 -582h-203zM459 1559h246l192 -291h-182z" />
    <glyph glyph-name="Wacute.sc" horiz-adv-x="1554" 
d="M29 1159h278l217 -702l148 540h211l145 -538l221 700h279l-395 -1159h-201l-156 582l-153 -582h-203zM655 1268l193 291h248l-258 -291h-183z" />
    <glyph glyph-name="Wdieresis.sc" horiz-adv-x="1554" 
d="M29 1159h278l217 -702l148 540h211l145 -538l221 700h279l-395 -1159h-201l-156 582l-153 -582h-203zM504 1440q0 51 37.5 85t91.5 34q52 0 88.5 -34.5t36.5 -84.5q0 -53 -36.5 -87t-88.5 -34q-55 0 -92 34t-37 87zM799 1440q0 51 37.5 85t91.5 34q52 0 88.5 -34.5
t36.5 -84.5q0 -53 -36.5 -87t-88.5 -34q-55 0 -92 34t-37 87z" />
    <glyph glyph-name="Aringacute.sc" 
d="M14 0l430 1159h275l430 -1159h-272l-101 270h-387l-102 -270h-273zM375 1458q0 69 43 126t106 79l133 203h244l-203 -230q43 -29 69 -76t26 -102q0 -86 -62 -146.5t-151 -60.5q-104 0 -166 88q-39 51 -39 119zM473 496h219l-112 372zM498 1458q0 -35 24.5 -60.5
t59.5 -25.5q38 0 64 25t26 61q0 39 -25.5 64.5t-64.5 25.5q-36 0 -60 -25.5t-24 -64.5z" />
    <glyph glyph-name="AEacute.sc" horiz-adv-x="1630" 
d="M-6 0l733 1159h778v-227h-481v-248h422v-225h-422v-230h498v-229h-756v262h-297l-166 -262h-309zM616 512h150v287zM774 1268l191 291h247l-260 -291h-178z" />
    <glyph glyph-name="Oslashacute.sc" horiz-adv-x="1353" 
d="M88 571q0 122 46 233t124 191t186.5 127t229.5 47q213 0 373 -135l131 137l86 -86l-134 -135q134 -166 134 -379q0 -161 -77.5 -296.5t-213.5 -215t-299 -79.5q-200 0 -363 124l-135 -137l-86 86l133 137q-135 167 -135 381zM344 571q0 -111 59 -196l463 477
q-87 61 -192 61q-138 0 -234 -100.5t-96 -241.5zM489 289q77 -53 185 -53q139 0 236.5 98.5t97.5 236.5q0 110 -60 193zM586 1268l190 291h248l-260 -291h-178z" />
    <glyph glyph-name="Ibreve.sc" horiz-adv-x="575" 
d="M51 1528h154q0 -86 76 -86q73 0 73 86h158q0 -103 -64.5 -165.5t-166.5 -62.5q-111 0 -170.5 67t-59.5 161zM160 0v1159h256v-1159h-256z" />
    <glyph glyph-name="Eng.sc" horiz-adv-x="1193" 
d="M160 0v1159h235l379 -682v682h260v-1130q0 -84 -21 -155t-64.5 -128t-118.5 -89t-175 -32q-16 0 -33 1.5t-27.5 2.5t-31 5.5t-26 6t-31.5 8t-29 7.5l27 250q78 -25 155 -25q55 3 84.5 46.5t32.5 103.5l-358 643v-674h-258z" />
    <glyph glyph-name="Ygrave.sc" horiz-adv-x="1177" 
d="M8 1159h307l273 -422l272 422h311l-452 -637v-522h-262v524zM287 1559h248l190 -291h-182z" />
    <glyph glyph-name="Gcommaaccent.sc" horiz-adv-x="1312" 
d="M90 571q0 164 78 301t215 217t301 80q132 0 247 -51.5t193 -142.5l-186 -162q-112 115 -254 115q-141 0 -238.5 -104.5t-97.5 -252.5q0 -144 98 -249t238 -105q61 0 120.5 21t102.5 63.5t45 97.5h-307v211h604q0 -160 -41 -281.5t-116.5 -197.5t-178 -113.5t-229.5 -37.5
q-164 0 -301 79.5t-215 215t-78 296.5zM530 -397q45 59 57.5 127t12.5 190h184q0 -248 -149 -375z" />
    <glyph glyph-name="Kcommaaccent.sc" horiz-adv-x="1081" 
d="M160 0v1159h260v-358l262 358h303l-438 -573l543 -586h-336l-334 379v-379h-260zM428 -397q45 59 57.5 127t12.5 190h184q0 -247 -150 -375z" />
    <glyph glyph-name="Lcommaaccent.sc" horiz-adv-x="876" 
d="M160 0v1159h258v-930h428v-229h-686zM324 -397q45 59 57 126.5t12 190.5h185q0 -247 -150 -375z" />
    <glyph glyph-name="Ncommaaccent.sc" horiz-adv-x="1191" 
d="M160 0v1159h233l381 -653v653h258v-1159h-227l-389 664v-664h-256zM451 -397q45 59 57 126.5t12 190.5h185q0 -247 -150 -375z" />
    <glyph glyph-name="Rcommaaccent.sc" horiz-adv-x="1126" 
d="M160 0v1159h477q95 0 171 -33t122.5 -87.5t71 -122t24.5 -140.5q0 -128 -74 -231t-211 -137l289 -408h-313l-256 397h-43v-397h-258zM418 623h198q65 0 102.5 47t37.5 106t-35 106.5t-96 47.5h-207v-307zM428 -397q45 59 57.5 127t12.5 190h184q0 -247 -150 -375z" />
    <glyph glyph-name="Tcommaaccent.sc" horiz-adv-x="964" 
d="M43 926v233h879v-233h-308v-926h-262v926h-309zM315 -397q45 59 57.5 127t12.5 190h184q0 -248 -149 -375z" />
    <glyph glyph-name="Scommaaccent.sc" horiz-adv-x="1024" 
d="M94 346h258q3 -58 46 -96.5t118 -38.5q72 0 116.5 30t45.5 83q0 42 -27 71.5t-106 50.5l-139 41q-91 27 -154 68.5t-93 89.5t-41.5 89.5t-11.5 86.5q0 155 115 252.5t285 97.5q174 0 284.5 -98t110.5 -266h-256q0 58 -36.5 93.5t-102.5 35.5q-62 0 -103 -30.5t-41 -76.5
q0 -76 119 -112l137 -41q94 -26 160.5 -69t99.5 -93t46.5 -96t13.5 -94q0 -85 -36.5 -152.5t-98 -108.5t-135 -62t-152.5 -21q-189 0 -305.5 102.5t-116.5 263.5zM358 -397q45 59 57.5 127t12.5 190h184q0 -248 -149 -375z" />
    <glyph glyph-name="Idotaccent.sc" horiz-adv-x="575" 
d="M135 1432q0 62 43.5 102.5t106.5 40.5q62 0 105.5 -40.5t43.5 -102.5t-43.5 -104t-105.5 -42t-106 42t-44 104zM160 0v1159h256v-1159h-256z" />
    <glyph glyph-name="zero.numr" horiz-adv-x="718" 
d="M70 952q0 71 8 129t28.5 110t53 87.5t83.5 56.5t117 21t117 -21t83 -56.5t52.5 -87.5t28.5 -110t8 -129q0 -70 -8 -127t-28.5 -109t-52.5 -87.5t-83 -56.5t-117 -21q-290 0 -290 401zM233 952q0 -241 127 -241q125 0 125 241q0 244 -125 244q-127 0 -127 -244z" />
    <glyph glyph-name="one.numr" horiz-adv-x="442" 
d="M43 1067v143l297 142v-789h-164v559z" />
    <glyph glyph-name="two.numr" horiz-adv-x="651" 
d="M61 563v88l320 379q41 48 41 90q0 34 -26 56t-72 22q-44 0 -74.5 -30t-36.5 -78l-152 26q19 111 91.5 175.5t181.5 64.5q105 0 179.5 -67t74.5 -169q0 -104 -82 -196q-76 -85 -180 -205h241v-156h-506z" />
    <glyph glyph-name="three.numr" horiz-adv-x="649" 
d="M33 717l143 71q37 -65 117 -75q42 -3 75 23t38 59q0 41 -7 59q-22 50 -100 47h-82v141h82q78 0 78 86q0 26 -21.5 51t-58.5 25q-55 0 -84 -45l-131 82q34 56 99.5 87.5t142.5 27.5q100 -6 166 -69.5t63 -147.5q0 -48 -27 -88t-73 -66q63 -23 101 -85t32 -126
q-9 -100 -98.5 -164.5t-206.5 -56.5q-81 6 -148 51t-100 113z" />
    <glyph glyph-name="four.numr" horiz-adv-x="706" 
d="M18 737l367 604h172v-464h98v-140h-98v-174h-166v174h-373zM244 877h147v243z" />
    <glyph glyph-name="five.numr" horiz-adv-x="698" 
d="M49 709q1 0 69.5 44t69.5 44q23 -36 61.5 -59t74.5 -23q67 0 111 36t44 87q0 62 -40 94.5t-103 32.5q-45 0 -93.5 -19t-78.5 -65l-90 47l63 413h455v-151h-324l-22 -129q47 41 143 41q110 0 182 -69.5t72 -194.5q0 -127 -86.5 -207t-232.5 -80q-80 0 -155 44t-120 114z
" />
    <glyph glyph-name="six.numr" horiz-adv-x="694" 
d="M74 821q-14 163 12 279q27 121 100 190.5t201 65.5q80 -3 140 -35.5t98 -114.5l-154 -65q-27 61 -90 61q-54 0 -88.5 -35.5t-45.5 -83.5t-9 -106q10 28 53.5 58t101.5 30q59 0 112.5 -27.5t90.5 -89t37 -145.5q0 -112 -78.5 -182t-204.5 -70q-112 0 -189 73.5t-87 196.5z
M256 811q0 -43 29.5 -72.5t72.5 -29.5t74 30t31 72q0 43 -31 73.5t-74 30.5t-72.5 -30.5t-29.5 -73.5z" />
    <glyph glyph-name="seven.numr" horiz-adv-x="643" 
d="M47 1190v151h586l-346 -778h-187l277 627h-330z" />
    <glyph glyph-name="eight.numr" horiz-adv-x="708" 
d="M59 819q0 123 113 191q-57 54 -57 129q0 90 70 153.5t169 63.5t169.5 -63.5t70.5 -153.5q0 -81 -57 -129q112 -68 112 -191q0 -110 -87 -189t-208 -79t-208 79t-87 189zM223 823q0 -49 39 -83.5t92 -34.5t92 34.5t39 83.5q0 45 -35.5 80t-82.5 35h-27q-48 0 -82.5 -35
t-34.5 -80zM274 1135q0 -31 21 -53.5t59 -22.5t59 22.5t21 53.5t-21.5 52t-58.5 21t-58.5 -21t-21.5 -52z" />
    <glyph glyph-name="nine.numr" horiz-adv-x="694" 
d="M61 1106q0 112 78.5 181t204.5 69q112 0 190.5 -74t88.5 -197q7 -60 3 -123.5t-12.5 -124t-33 -113.5t-58.5 -92.5t-89.5 -61t-125.5 -19.5q-80 3 -139.5 36t-97.5 115l153 66q28 -63 90 -63q41 0 71 20t46 54t22.5 72.5t4.5 80.5q-10 -28 -53.5 -58t-102.5 -30
t-112.5 27.5t-90.5 89t-37 145.5zM231 1096q0 -43 31 -73t74 -30t72.5 30t29.5 73t-29.5 73.5t-72.5 30.5t-74 -30.5t-31 -73.5z" />
    <glyph glyph-name="zero.dnom" horiz-adv-x="718" 
d="M70 389q0 71 8 129t28.5 110t53 87.5t83.5 56.5t117 21t117 -21t83 -56.5t52.5 -87.5t28.5 -110t8 -129q0 -70 -8 -127t-28.5 -109t-52.5 -87.5t-83 -56.5t-117 -21q-290 0 -290 401zM233 389q0 -242 127 -242q125 0 125 242q0 244 -125 244q-127 0 -127 -244z" />
    <glyph glyph-name="one.dnom" horiz-adv-x="442" 
d="M43 504v143l297 141v-788h-164v559z" />
    <glyph glyph-name="two.dnom" horiz-adv-x="651" 
d="M61 0v88l320 379q41 48 41 90q0 34 -26 56t-72 22q-44 0 -74.5 -30.5t-36.5 -78.5l-152 27q19 111 91.5 175.5t181.5 64.5q105 0 179.5 -67t74.5 -169q0 -105 -82 -197q-102 -114 -180 -204h241v-156h-506z" />
    <glyph glyph-name="three.dnom" horiz-adv-x="651" 
d="M35 154l143 71q37 -65 117 -75q42 -3 75 22.5t38 58.5q0 43 -7 60q-22 50 -100 47h-82v141h82q78 0 78 86q0 26 -21.5 51t-58.5 25q-55 0 -84 -45l-131 82q34 56 99.5 87.5t142.5 27.5q100 -6 166 -70t63 -148q0 -97 -100 -153q63 -23 101 -85t32 -126
q-9 -100 -98.5 -164.5t-206.5 -56.5q-81 6 -148 51t-100 113z" />
    <glyph glyph-name="four.dnom" horiz-adv-x="704" 
d="M18 174l367 604h172v-465h98v-139h-98v-174h-166v174h-373zM244 313h147v244z" />
    <glyph glyph-name="five.dnom" horiz-adv-x="696" 
d="M47 145q1 0 69.5 44t69.5 44q23 -35 61 -58t75 -23q68 0 111.5 35.5t43.5 86.5q0 62 -40 94.5t-103 32.5q-45 0 -93.5 -19t-78.5 -65l-90 48l63 413h455v-151h-324l-22 -129q47 41 143 41q110 0 182 -70t72 -195q0 -126 -86.5 -206t-232.5 -80q-81 0 -155.5 43.5
t-119.5 113.5z" />
    <glyph glyph-name="six.dnom" horiz-adv-x="694" 
d="M74 258q-14 163 12 279q27 121 100 190.5t201 65.5q80 -3 140 -35.5t98 -114.5l-154 -65q-27 61 -90 61q-54 0 -88.5 -35.5t-45.5 -83.5t-9 -106q10 28 53.5 58t101.5 30q59 0 112.5 -27.5t90.5 -89t37 -145.5q0 -112 -78.5 -182t-204.5 -70q-112 0 -189 73.5t-87 196.5z
M256 248q0 -43 29.5 -73t72.5 -30t74 30t31 73t-31 73.5t-74 30.5t-72.5 -30.5t-29.5 -73.5z" />
    <glyph glyph-name="seven.dnom" horiz-adv-x="645" 
d="M47 627v151h586l-346 -778h-187l277 627h-330z" />
    <glyph glyph-name="eight.dnom" horiz-adv-x="708" 
d="M59 256q0 122 113 190q-57 54 -57 129q0 90 70 154t169 64t169.5 -64t70.5 -154q0 -81 -57 -129q112 -68 112 -190q0 -110 -87 -189t-208 -79t-208 79t-87 189zM223 260q0 -49 39 -84t92 -35t92 35t39 84q0 45 -35.5 80t-82.5 35h-27q-48 0 -82.5 -35t-34.5 -80zM274 571
q0 -31 21 -53t59 -22t59 22t21 53t-21.5 52.5t-58.5 21.5t-58.5 -21.5t-21.5 -52.5z" />
    <glyph glyph-name="nine.dnom" horiz-adv-x="696" 
d="M61 543q0 112 78.5 181t204.5 69q112 0 190.5 -74t88.5 -197q7 -60 3 -123.5t-12.5 -124t-33 -113.5t-58.5 -92.5t-89.5 -61t-125.5 -19.5q-80 3 -139.5 36t-97.5 115l153 66q28 -64 90 -64q54 0 88.5 36t46 85t9.5 107q-10 -28 -53.5 -58t-102.5 -30t-112.5 27.5
t-90.5 89t-37 145.5zM231 532q0 -42 31 -72t74 -30t72.5 29.5t29.5 72.5t-30 74t-72 31q-43 0 -74 -31t-31 -74z" />
    <glyph glyph-name="l.alt1" horiz-adv-x="647" 
d="M121 416v1061h287v-1067q-1 -39 7.5 -70.5t38 -56.5t78.5 -25h105v-258h-154q-194 0 -278 107t-84 309z" />
    <glyph glyph-name="a.alt1" horiz-adv-x="1103" 
d="M63 289q0 125 99 202.5t311 77.5q48 0 116.5 -12.5t112.5 -38.5q0 98 -46.5 155.5t-149.5 57.5q-142 0 -236 -94l-151 160q27 37 60 66.5t63 48t68 32t65 19.5t63.5 9.5t54.5 4t46 0.5q92 0 170.5 -24t141 -72t98.5 -128.5t36 -185.5v-567h-283v96q-51 -59 -125 -87.5
t-151 -28.5q-163 0 -263 86t-100 223zM354 291q0 -41 32 -68.5t89 -27.5q28 0 57.5 5.5t64 19.5t62.5 44t41 72q-59 55 -184 55q-84 0 -123 -29t-39 -71z" />
    <glyph glyph-name="y.alt1" horiz-adv-x="1042" 
d="M12 956h301l211 -538l211 538h303l-471 -1126q-49 -113 -98.5 -177.5t-120.5 -97t-174 -32.5q-68 0 -135 24v248q84 -14 111 -14q28 0 50.5 9t36 19t29 36t22.5 41t23 53l62 143z" />
    <glyph glyph-name="lslash.alt1" horiz-adv-x="706" 
d="M18 471v195l158 98v713h287v-535l194 123v-195l-194 -122v-338q-1 -28 4.5 -53t18 -48t39 -37t63.5 -14h104v-258h-153q-194 0 -278.5 107t-84.5 309v153z" />
    <glyph glyph-name="lacute.alt1" horiz-adv-x="647" 
d="M121 416v1061h287v-1067q-1 -39 7.5 -70.5t38 -56.5t78.5 -25h105v-258h-154q-194 0 -278 107t-84 309zM123 1579l225 344h283l-303 -344h-205z" />
    <glyph glyph-name="lcommaaccent.alt1" horiz-adv-x="647" 
d="M121 416v1061h287v-1067q-1 -39 7.5 -70.5t38 -56.5t78.5 -25h105v-258h-154q-194 0 -278 107t-84 309zM233 -516q67 94 93.5 180t25.5 221h240q-24 -311 -219 -473z" />
    <glyph glyph-name="lcaron.alt1" horiz-adv-x="657" 
d="M121 416v1061h287v-1067q-1 -39 7.5 -70.5t38 -56.5t78.5 -25h105v-258h-154q-194 0 -278 107t-84 309zM469 1001q69 98 111 221t41 255h239q-14 -185 -77.5 -327.5t-141.5 -207.5z" />
    <glyph glyph-name="aacute.alt1" horiz-adv-x="1103" 
d="M63 289q0 125 99 202.5t311 77.5q48 0 116.5 -12.5t112.5 -38.5q0 98 -46.5 155.5t-149.5 57.5q-142 0 -236 -94l-151 160q27 37 60 66.5t63 48t68 32t65 19.5t63.5 9.5t54.5 4t46 0.5q92 0 170.5 -24t141 -72t98.5 -128.5t36 -185.5v-567h-283v96q-51 -59 -125 -87.5
t-151 -28.5q-163 0 -263 86t-100 223zM354 291q0 -41 32 -68.5t89 -27.5q28 0 57.5 5.5t64 19.5t62.5 44t41 72q-59 55 -184 55q-84 0 -123 -29t-39 -71zM383 1104l225 344h283l-303 -344h-205z" />
    <glyph glyph-name="agrave.alt1" horiz-adv-x="1103" 
d="M63 289q0 125 99 202.5t311 77.5q48 0 116.5 -12.5t112.5 -38.5q0 98 -46.5 155.5t-149.5 57.5q-142 0 -236 -94l-151 160q27 37 60 66.5t63 48t68 32t65 19.5t63.5 9.5t54.5 4t46 0.5q92 0 170.5 -24t141 -72t98.5 -128.5t36 -185.5v-567h-283v96q-51 -59 -125 -87.5
t-151 -28.5q-163 0 -263 86t-100 223zM143 1448h283l225 -344h-205zM354 291q0 -41 32 -68.5t89 -27.5q28 0 57.5 5.5t64 19.5t62.5 44t41 72q-59 55 -184 55q-84 0 -123 -29t-39 -71z" />
    <glyph glyph-name="acircumflex.alt1" horiz-adv-x="1103" 
d="M63 289q0 125 99 202.5t311 77.5q48 0 116.5 -12.5t112.5 -38.5q0 98 -46.5 155.5t-149.5 57.5q-142 0 -236 -94l-151 160q27 37 60 66.5t63 48t68 32t65 19.5t63.5 9.5t54.5 4t46 0.5q92 0 170.5 -24t141 -72t98.5 -128.5t36 -185.5v-567h-283v96q-51 -59 -125 -87.5
t-151 -28.5q-163 0 -263 86t-100 223zM170 1112l223 344h283l225 -344h-205l-161 182l-160 -182h-205zM354 291q0 -41 32 -68.5t89 -27.5q28 0 57.5 5.5t64 19.5t62.5 44t41 72q-59 55 -184 55q-84 0 -123 -29t-39 -71z" />
    <glyph glyph-name="adieresis.alt1" horiz-adv-x="1103" 
d="M63 289q0 125 99 202.5t311 77.5q48 0 116.5 -12.5t112.5 -38.5q0 98 -46.5 155.5t-149.5 57.5q-142 0 -236 -94l-151 160q27 37 60 66.5t63 48t68 32t65 19.5t63.5 9.5t54.5 4t46 0.5q92 0 170.5 -24t141 -72t98.5 -128.5t36 -185.5v-567h-283v96q-51 -59 -125 -87.5
t-151 -28.5q-163 0 -263 86t-100 223zM211 1307q0 58 43.5 98.5t105.5 40.5q60 0 103 -40.5t43 -98.5q0 -60 -43 -101t-103 -41q-62 0 -105.5 41t-43.5 101zM354 291q0 -41 32 -68.5t89 -27.5q28 0 57.5 5.5t64 19.5t62.5 44t41 72q-59 55 -184 55q-84 0 -123 -29t-39 -71z
M573 1307q0 58 44 98.5t106 40.5q60 0 102.5 -40.5t42.5 -98.5q0 -60 -42.5 -101t-102.5 -41q-62 0 -106 41t-44 101z" />
    <glyph glyph-name="atilde.alt1" horiz-adv-x="1103" 
d="M63 289q0 125 99 202.5t311 77.5q48 0 116.5 -12.5t112.5 -38.5q0 98 -46.5 155.5t-149.5 57.5q-142 0 -236 -94l-151 160q27 37 60 66.5t63 48t68 32t65 19.5t63.5 9.5t54.5 4t46 0.5q92 0 170.5 -24t141 -72t98.5 -128.5t36 -185.5v-567h-283v96q-51 -59 -125 -87.5
t-151 -28.5q-163 0 -263 86t-100 223zM217 1153q7 137 68.5 201.5t138.5 64.5q37 0 71 -21t61 -42t46 -21q16 0 34 20.5t19 63.5h154q-3 -72 -24 -125.5t-52.5 -81.5t-64.5 -41.5t-66 -13.5q-34 0 -68.5 21t-62.5 42t-47 21q-15 0 -33.5 -22.5t-19.5 -65.5h-154zM354 291
q0 -41 32 -68.5t89 -27.5q28 0 57.5 5.5t64 19.5t62.5 44t41 72q-59 55 -184 55q-84 0 -123 -29t-39 -71z" />
    <glyph glyph-name="aring.alt1" horiz-adv-x="1103" 
d="M63 289q0 125 99 202.5t311 77.5q48 0 116.5 -12.5t112.5 -38.5q0 98 -46.5 155.5t-149.5 57.5q-142 0 -236 -94l-151 160q27 37 60 66.5t63 48t68 32t65 19.5t63.5 9.5t54.5 4t46 0.5q92 0 170.5 -24t141 -72t98.5 -128.5t36 -185.5v-567h-283v96q-51 -59 -125 -87.5
t-151 -28.5q-163 0 -263 86t-100 223zM289 1350q0 106 71.5 179t174.5 73q104 0 176.5 -73t72.5 -179q0 -103 -72.5 -174.5t-176.5 -71.5q-103 0 -174.5 71.5t-71.5 174.5zM354 291q0 -41 32 -68.5t89 -27.5q28 0 57.5 5.5t64 19.5t62.5 44t41 72q-59 55 -184 55
q-84 0 -123 -29t-39 -71zM422 1350q0 -47 33 -80t80 -33q49 0 82.5 33t33.5 80q0 51 -33 84.5t-83 33.5q-48 0 -80.5 -33.5t-32.5 -84.5z" />
    <glyph glyph-name="amacron.alt1" horiz-adv-x="1103" 
d="M63 289q0 125 99 202.5t311 77.5q48 0 116.5 -12.5t112.5 -38.5q0 98 -46.5 155.5t-149.5 57.5q-142 0 -236 -94l-151 160q27 37 60 66.5t63 48t68 32t65 19.5t63.5 9.5t54.5 4t46 0.5q92 0 170.5 -24t141 -72t98.5 -128.5t36 -185.5v-567h-283v96q-51 -59 -125 -87.5
t-151 -28.5q-163 0 -263 86t-100 223zM260 1202v174h569v-174h-569zM354 291q0 -41 32 -68.5t89 -27.5q28 0 57.5 5.5t64 19.5t62.5 44t41 72q-59 55 -184 55q-84 0 -123 -29t-39 -71z" />
    <glyph glyph-name="abreve.alt1" horiz-adv-x="1101" 
d="M61 289q0 125 99 202.5t311 77.5q48 0 116.5 -12.5t112.5 -38.5q0 98 -46.5 155.5t-149.5 57.5q-142 0 -236 -94l-151 160q27 37 60 66.5t63 48t68 32t65 19.5t63.5 9.5t54.5 4t46 0.5q92 0 170.5 -24t141 -72t98.5 -128.5t36 -185.5v-567h-283v96q-51 -59 -125 -87.5
t-151 -28.5q-163 0 -263 86t-100 223zM270 1411h174q0 -108 101 -108q51 0 74.5 30.5t23.5 77.5h178q0 -121 -77 -194.5t-199 -73.5q-133 0 -204 79t-71 189zM352 291q0 -41 32 -68.5t89 -27.5q28 0 57.5 5.5t64 19.5t62.5 44t41 72q-59 55 -184 55q-84 0 -123 -29t-39 -71z
" />
    <glyph glyph-name="aogonek.alt1" horiz-adv-x="1103" 
d="M63 289q0 125 99 202.5t311 77.5q48 0 116.5 -12.5t112.5 -38.5q0 98 -46.5 155.5t-149.5 57.5q-142 0 -236 -94l-151 160q27 37 60 66.5t63 48t68 32t65 19.5t63.5 9.5t54.5 4t46 0.5q92 0 170.5 -24t141 -72t98.5 -128.5t36 -185.5v-567h-139l-76 -207
q-10 -26 -1.5 -51t32.5 -35q26 -6 48.5 4.5t31.5 34.5q3 12 3.5 25t-0.5 21l-1 7l157 8q1 -49 -2 -71.5t-14 -48.5q-27 -62 -80.5 -97.5t-114.5 -35.5q-89 0 -154 62t-65 148q0 60 21 101l71 135v96q-51 -59 -125 -87.5t-151 -28.5q-163 0 -263 86t-100 223zM354 291
q0 -41 32 -68.5t89 -27.5q28 0 57.5 5.5t64 19.5t62.5 44t41 72q-59 55 -184 55q-84 0 -123 -29t-39 -71z" />
    <glyph glyph-name="yacute.alt1" horiz-adv-x="1042" 
d="M12 956h301l211 -538l211 538h303l-471 -1126q-49 -113 -98.5 -177.5t-120.5 -97t-174 -32.5q-68 0 -135 24v248q84 -14 111 -14q28 0 50.5 9t36 19t29 36t22.5 41t23 53l62 143zM399 1104l226 344h282l-303 -344h-205z" />
    <glyph glyph-name="ydieresis.alt1" horiz-adv-x="1042" 
d="M12 956h301l211 -538l211 538h303l-471 -1126q-49 -113 -98.5 -177.5t-120.5 -97t-174 -32.5q-68 0 -135 24v248q84 -14 111 -14q28 0 50.5 9t36 19t29 36t22.5 41t23 53l62 143zM205 1307q0 58 43.5 98.5t105.5 40.5q60 0 103 -40.5t43 -98.5q0 -60 -43 -101t-103 -41
q-62 0 -105.5 41t-43.5 101zM567 1307q0 58 44 98.5t106 40.5q60 0 102.5 -40.5t42.5 -98.5q0 -60 -42.5 -101t-102.5 -41q-62 0 -106 41t-44 101z" />
    <glyph glyph-name="ae.alt1" horiz-adv-x="1779" 
d="M61 289q0 60 23.5 111t72.5 93t135.5 65.5t201.5 23.5q41 0 101 -14.5t105 -41.5q0 89 -46.5 147t-135.5 58q-148 0 -227 -96l-174 162q27 37 60 66.5t63 48t68 32t65 19.5t63.5 9.5t54.5 4t46 0.5q223 0 342 -125q141 125 344 125q208 0 348.5 -137.5t140.5 -358.5
q0 -38 -4 -88h-700q10 -82 72.5 -125t162.5 -43q69 0 130.5 28.5t90.5 82.5l209 -137q-63 -113 -185.5 -166t-264.5 -53q-33 0 -53.5 1t-62.5 4.5t-73 13.5t-68.5 26t-67.5 43.5t-52 64.5q-101 -153 -422 -153q-163 0 -263 86t-100 223zM352 301q0 -32 31.5 -58t89.5 -26
q27 0 55 4t66.5 15.5t67 39.5t36.5 70q-41 25 -103.5 38t-100.5 13q-81 0 -111.5 -28.5t-30.5 -67.5zM1012 578h413q-10 79 -68.5 114t-131.5 35q-33 0 -64 -6.5t-62.5 -22t-54.5 -46.5t-32 -74z" />
    <glyph glyph-name="aeacute.alt1" horiz-adv-x="1777" 
d="M61 289q0 60 23.5 111t72.5 93t135.5 65.5t201.5 23.5q41 0 101 -14.5t105 -41.5q0 89 -46.5 147t-135.5 58q-148 0 -227 -96l-174 162q27 37 60 66.5t63 48t68 32t65 19.5t63.5 9.5t54.5 4t46 0.5q223 0 342 -125q141 125 344 125q208 0 348.5 -137.5t140.5 -358.5
q0 -38 -4 -88h-700q10 -82 72.5 -125t162.5 -43q69 0 130.5 28.5t90.5 82.5l209 -137q-63 -113 -185.5 -166t-264.5 -53q-33 0 -53.5 1t-62.5 4.5t-73 13.5t-68.5 26t-67.5 43.5t-52 64.5q-101 -153 -422 -153q-163 0 -263 86t-100 223zM352 301q0 -32 31.5 -58t89.5 -26
q27 0 55 4t66.5 15.5t67 39.5t36.5 70q-41 25 -103.5 38t-100.5 13q-81 0 -111.5 -28.5t-30.5 -67.5zM782 1104l226 344h282l-303 -344h-205zM1012 578h413q-10 79 -68.5 114t-131.5 35q-33 0 -64 -6.5t-62.5 -22t-54.5 -46.5t-32 -74z" />
    <glyph glyph-name="ycircumflex.alt1" horiz-adv-x="1042" 
d="M12 956h301l211 -538l211 538h303l-471 -1126q-49 -113 -98.5 -177.5t-120.5 -97t-174 -32.5q-68 0 -135 24v248q84 -14 111 -14q28 0 50.5 9t36 19t29 36t22.5 41t23 53l62 143zM162 1112l223 344h283l225 -344h-205l-162 182l-159 -182h-205z" />
    <glyph glyph-name="ldot.alt1" horiz-adv-x="827" 
d="M121 416v1061h287v-1067q-1 -39 7.5 -70.5t38 -56.5t78.5 -25h105v-258h-154q-194 0 -278 107t-84 309zM494 629q0 64 45.5 107.5t111.5 43.5t112 -43.5t46 -107.5q0 -67 -45.5 -110.5t-112.5 -43.5t-112 43.5t-45 110.5z" />
    <glyph glyph-name="t.alt1" horiz-adv-x="800" 
d="M45 731v225h174v201l287 92v-293h196v-225h-196v-342q-4 -131 125 -131h84v-258h-133q-196 0 -279.5 98.5t-83.5 296.5v336h-174z" />
    <glyph glyph-name="tcaron.alt1" horiz-adv-x="800" 
d="M45 731v225h174v201l287 92v-293h196v-225h-196v-342q-4 -131 125 -131h84v-258h-133q-196 0 -279.5 98.5t-83.5 296.5v336h-174zM590 1141q67 94 93.5 180t25.5 221h239q-24 -311 -219 -473z" />
    <glyph glyph-name="tbar.alt1" horiz-adv-x="802" 
d="M47 731v225h174v201l287 92v-293h197v-225h-197v-178h139v-158h-139v-6q0 -60 27 -95.5t98 -35.5h84v-258h-133q-196 0 -279.5 98.5t-83.5 296.5h-108v158h108v178h-174z" />
    <glyph glyph-name="tcommaaccent.alt1" horiz-adv-x="800" 
d="M45 731v225h174v201l287 92v-293h196v-225h-196v-342q-4 -131 125 -131h84v-258h-133q-196 0 -279.5 98.5t-83.5 296.5v336h-174zM303 -516q67 94 93.5 180t25.5 221h240q-23 -310 -220 -473z" />
    <glyph glyph-name="T.sc.alt1" horiz-adv-x="964" 
d="M43 926v233h879v-233h-308v-926h-262v926h-309z" />
    <glyph glyph-name="Tcaron.sc.alt1" horiz-adv-x="1003" 
d="M41 926v233h922v-233h-326v-926h-270v926h-326zM195 1556h178l131 -143l129 143h180l-190 -290h-242z" />
    <glyph glyph-name="Tbar.sc.alt1" horiz-adv-x="964" 
d="M45 924v231h875v-231h-308v-271h158v-153h-158v-500h-258v500h-159v153h159v271h-309z" />
    <glyph glyph-name="Tcommaaccent.sc.alt1" horiz-adv-x="964" 
d="M43 926v233h879v-233h-308v-926h-262v926h-309zM315 -397q45 59 57.5 127t12.5 190h184q0 -248 -149 -375z" />
    <glyph glyph-name="aringacute.alt1" horiz-adv-x="1103" 
d="M63 289q0 125 99 202.5t311 77.5q48 0 116.5 -12.5t112.5 -38.5q0 98 -46.5 155.5t-149.5 57.5q-142 0 -236 -94l-151 160q27 37 60 66.5t63 48t68 32t65 19.5t63.5 9.5t54.5 4t46 0.5q92 0 170.5 -24t141 -72t98.5 -128.5t36 -185.5v-567h-283v96q-51 -59 -125 -87.5
t-151 -28.5q-163 0 -263 86t-100 223zM322 1350q0 85 49 151t125 90l166 252h282l-246 -278q55 -34 87 -90.5t32 -124.5q0 -103 -73 -174.5t-177 -71.5q-103 0 -174 71.5t-71 174.5zM354 291q0 -41 32 -68.5t89 -27.5q28 0 57.5 5.5t64 19.5t62.5 44t41 72q-59 55 -184 55
q-84 0 -123 -29t-39 -71zM455 1350q0 -47 32.5 -80t79.5 -33q49 0 83 33t34 80q0 51 -33.5 84.5t-83.5 33.5q-48 0 -80 -33.5t-32 -84.5z" />
    </font>
</defs>
</svg>
