<svg xmlns="http://www.w3.org/2000/svg" viewBox="0 0 593 238.17"><title>LOGO--SOURCE</title><path d="M.25,11.35c0-4.83,1.86-7.8,7.06-7.8h36c3.34,0,7,1.49,7,6.31v2.6h.74C61.51,2.07,81.92,1.32,89.35,1.32c39,0,56.8,29.33,56.8,63.11v44.18c0,38.24-20.42,65.34-62.37,65.34-6.68,0-23-1.12-31.55-7.06l-.75-.37V230c0,5.2-3.71,7.8-8.16,7.8H8.79c-5.2,0-8.54-3-8.54-7.8Zm51.23,97.26c0,11.88,8.17,20.79,21.91,20.79,15.22,0,21.53-8.91,21.53-20.79V67.77C94.92,55.9,87.49,47,73.39,47c-15.22,0-21.91,9.28-21.91,20.78Z"/><path d="M227.07,230.37c-1.49,4.46-4.83,7.8-10,7.8H182.89c-5.2,0-8.91-3-6.31-10l16.33-57.55H182.52c-5.94,0-8.17-3.34-9.65-7.79l-44.55-150c-1.86-6.31,1.48-9.28,6.68-9.28h39.72c6.32,0,7.8,3.34,9.29,8.17l15.59,62,9.65,47.15H210L241.17,11.72c1.49-4.83,4.09-8.17,11.14-8.17H288c5.2,0,9.28,4.08,7.05,11.14Z"/><path d="M344.38,116.41l-24.88,46.4c-4.82,7.05-8.16,7.79-14.1,7.79H275c-6.69,0-9.29-3-9.29-6.31a8.11,8.11,0,0,1,1.49-4.82l48.26-75.73L271.24,16.17a10,10,0,0,1-1.85-5.57c0-3.34,2.22-6.68,8.53-6.68h33c7.06,0,8.91.37,13.37,7.06l20.42,37.49h.74L366.28,11c4.45-6.69,6.31-7.06,13.36-7.06h33c6.31,0,8.54,3.34,8.54,6.68a9.94,9.94,0,0,1-1.86,5.57l-43.8,67.57,47.52,75.73a8.17,8.17,0,0,1,1.48,4.82c0,3.35-2.6,6.31-9.28,6.31H384.84c-5.94,0-9.28-.74-14.11-7.79l-25.61-46.4Z"/><path d="M452.77,170.6H418.24c-5.2,0-8.16-3-8.16-7.79V11.72c0-5.2,3-8.17,8.16-8.17h34.53c4.45,0,8.54,3,8.54,8.17V162.81C461.31,167.64,458,170.6,452.77,170.6Z"/><path d="M525.15,173.2c-25.24,0-52.71-5.94-68.68-31.55-3.34-5.2-3.34-8.91,2.6-12.62l23-15.22c6.68-4.46,10.39-.75,14.85,3.71,8.91,9.65,19.67,11.88,28.21,11.88s15.59-3.34,15.59-10c0-10-17.45-11.88-38.23-18.57-28.22-8.54-43.07-23-43.07-46.77,0-36,30.07-53.83,64.23-53.83,21.16,0,46.77,6.31,62.36,21.9a6,6,0,0,1,1.86,4.09c0,2.22-1.49,4.82-4.08,8.54L568.59,54a7.38,7.38,0,0,1-5.2,1.86,12.9,12.9,0,0,1-7.8-3c-11.13-7.79-24.87-9.28-28.58-9.28-13,0-17.82,4.46-17.82,10,0,2.23,2.23,6.31,11.51,8.91,28.95,8.16,72.39,17.82,72.39,55.68C593.09,157.61,557.82,173.2,525.15,173.2Z"/></svg>