<?xml version="1.0" standalone="no"?>
<!DOCTYPE svg PUBLIC "-//W3C//DTD SVG 1.1//EN" "http://www.w3.org/Graphics/SVG/1.1/DTD/svg11.dtd" >
<svg xmlns="http://www.w3.org/2000/svg" xmlns:xlink="http://www.w3.org/1999/xlink" version="1.1">
<metadata>
Created by FontForge 20170731 at Wed Apr 25 18:54:18 2012
 By Aleksey,,,
(C) 2012. Olivier Gourvat - Mostardesign Studio. wf-rip
</metadata>
<defs>
<font id="SofiaPro-UltraLight" horiz-adv-x="1284" >
  <font-face 
    font-family="Sofia Pro UltraLight"
    font-weight="100"
    font-stretch="normal"
    units-per-em="2048"
    panose-1="2 11 0 0 0 0 0 0 0 0"
    ascent="1536"
    descent="-512"
    x-height="956"
    cap-height="1411"
    bbox="-317 -479 2269 2060"
    underline-thickness="102"
    underline-position="-306"
    unicode-range="U+0020-FB04"
  />
<missing-glyph horiz-adv-x="1300" 
d="M164 0v1362h973v-1362h-973zM379 883h127q0 76 43 123t108 47t114.5 -42t49.5 -108q0 -60 -49 -102q-32 -35 -67 -43q-92 -28 -141.5 -79t-49.5 -147v-77h127v77q0 46 25.5 67.5t76.5 35.5q88 28 145.5 99t57.5 169q0 123 -85 200t-204 77q-117 0 -197.5 -82t-80.5 -215z
M485 268q0 -38 28 -63t67 -25q38 0 65 25t27 63t-27 63t-65 25q-39 0 -67 -25t-28 -63z" />
    <glyph glyph-name="uniFB00" unicode="ff" horiz-adv-x="1308" 
d="M61 901v55h197v162q0 402 320 402h69v-62h-69q-71 0 -122.5 -26t-80.5 -73.5t-42.5 -107t-13.5 -133.5v-162h615v162q0 402 319 402h70v-62h-70q-258 0 -258 -340v-162h271v-55h-271v-901h-61v901h-615v-901h-61v901h-197z" />
    <glyph glyph-name="uniFB01" unicode="fi" horiz-adv-x="1124" 
d="M61 901v55h197v162q0 402 320 402h69v-62h-69q-71 0 -122.5 -26t-80.5 -73.5t-42.5 -107t-13.5 -133.5v-162h631v-956h-61v901h-570v-901h-61v901h-197zM856 1309q0 26 18.5 42.5t45.5 16.5q28 0 46.5 -16.5t18.5 -42.5q0 -25 -18.5 -41.5t-46.5 -16.5q-26 0 -45 16.5
t-19 41.5z" />
    <glyph glyph-name="uniFB02" unicode="fl" horiz-adv-x="1095" 
d="M61 901v55h197v162q0 402 320 402h340v-1520h-62v1458h-278q-71 0 -122.5 -26t-80.5 -73.5t-42.5 -107t-13.5 -133.5v-162h271v-55h-271v-901h-61v901h-197z" />
    <glyph glyph-name="uniFB03" unicode="ffi" horiz-adv-x="1800" 
d="M61 901v55h197v162q0 402 320 402h69v-62h-69q-71 0 -122.5 -26t-80.5 -73.5t-42.5 -107t-13.5 -133.5v-162h615v162q0 402 319 402h70v-62h-70q-258 0 -258 -340v-162h631v-956h-61v901h-570v-901h-61v901h-615v-901h-61v901h-197zM1532 1309q0 26 18 42.5t45 16.5
q28 0 47 -16.5t19 -42.5q0 -25 -19 -41.5t-47 -16.5q-26 0 -44.5 16.5t-18.5 41.5z" />
    <glyph glyph-name="uniFB04" unicode="ffl" horiz-adv-x="1771" 
d="M61 901v55h197v162q0 402 320 402h69v-62h-69q-71 0 -122.5 -26t-80.5 -73.5t-42.5 -107t-13.5 -133.5v-162h615v162q0 402 319 402h340v-1520h-61v1458h-279q-258 0 -258 -340v-162h271v-55h-271v-901h-61v901h-615v-901h-61v901h-197z" />
    <glyph glyph-name="f_f_j" unicode="ffj" horiz-adv-x="1828" 
d="M61 901v55h197v162q0 402 320 402h69v-62h-69q-71 0 -122.5 -26t-80.5 -73.5t-42.5 -107t-13.5 -133.5v-162h615v162q0 402 319 402h70v-62h-70q-258 0 -258 -340v-162h660v-1026q0 -401 -320 -401h-69v61h69q258 0 258 340v971h-598v-901h-61v901h-615v-901h-61v901
h-197zM1561 1309q0 26 18 42.5t45 16.5q28 0 47 -16.5t19 -42.5q0 -25 -19 -41.5t-47 -16.5q-26 0 -44.5 16.5t-18.5 41.5z" />
    <glyph glyph-name="f_j" unicode="fj" horiz-adv-x="1153" 
d="M61 901v55h197v162q0 402 320 402h69v-62h-69q-71 0 -122.5 -26t-80.5 -73.5t-42.5 -107t-13.5 -133.5v-162h660v-1026q0 -401 -320 -401h-69v61h69q71 0 122.5 26t80.5 73.5t42.5 107t13.5 133.5v971h-599v-901h-61v901h-197zM885 1309q0 26 18 42.5t45 16.5
q28 0 47 -16.5t19 -42.5q0 -25 -19 -41.5t-47 -16.5q-26 0 -44.5 16.5t-18.5 41.5z" />
    <glyph glyph-name=".notdef" horiz-adv-x="1300" 
d="M164 0v1362h973v-1362h-973zM379 883h127q0 76 43 123t108 47t114.5 -42t49.5 -108q0 -60 -49 -102q-32 -35 -67 -43q-92 -28 -141.5 -79t-49.5 -147v-77h127v77q0 46 25.5 67.5t76.5 35.5q88 28 145.5 99t57.5 169q0 123 -85 200t-204 77q-117 0 -197.5 -82t-80.5 -215z
M485 268q0 -38 28 -63t67 -25q38 0 65 25t27 63t-27 63t-65 25q-39 0 -67 -25t-28 -63z" />
    <glyph glyph-name=".null" horiz-adv-x="0" 
 />
    <glyph glyph-name="nonmarkingreturn" horiz-adv-x="682" 
 />
    <glyph glyph-name="space" unicode=" " horiz-adv-x="561" 
 />
    <glyph glyph-name="exclam" unicode="!" horiz-adv-x="479" 
d="M176 49q0 26 18.5 43t45.5 17q28 0 46.5 -17t18.5 -43q0 -25 -18.5 -41t-46.5 -16q-27 0 -45.5 16.5t-18.5 40.5zM209 317v1094h61v-1094h-61z" />
    <glyph glyph-name="quotedbl" unicode="&#x22;" horiz-adv-x="585" 
d="M170 905v506h61v-506h-61zM354 905v506h62v-506h-62z" />
    <glyph glyph-name="numbersign" unicode="#" horiz-adv-x="1488" 
d="M88 373l16 61h295l148 535h-295l16 61h297l105 381h61l-106 -381h424l104 381h61l-106 -381h295l-17 -61h-294l-148 -535h295l-16 -61h-295l-103 -373h-61l102 373h-422l-102 -373h-61l102 373h-295zM461 434h422l147 535h-422z" />
    <glyph glyph-name="dollar" unicode="$" horiz-adv-x="1116" 
d="M109 340h61q20 -122 124 -210.5t255 -88.5q89 0 163.5 24.5t123.5 65t79 88.5t41 100q12 77 -8.5 140t-67 106t-106.5 71.5t-135 45.5l-201 47q-319 69 -319 334q0 103 60 186.5t154.5 129t201.5 48.5v205h61v-207q155 -14 258.5 -105.5t116.5 -236.5h-62
q-13 129 -114 206t-248 77q-94 0 -177.5 -37.5t-136.5 -108t-53 -157.5q0 -215 271 -275l200 -47q87 -19 156.5 -53t123.5 -85t77 -127t8 -169q-24 -122 -133.5 -217t-286.5 -108v-234h-61v232q-174 6 -290 111.5t-136 248.5z" />
    <glyph glyph-name="percent" unicode="%" horiz-adv-x="1335" 
d="M86 1130q0 103 71 175.5t175 72.5q103 0 175.5 -72.5t72.5 -175.5q0 -104 -72.5 -174.5t-175.5 -70.5q-104 0 -175 70.5t-71 174.5zM147 1130q0 -78 53.5 -131t131.5 -53q77 0 131.5 53.5t54.5 130.5t-55 132t-131 55q-77 0 -131 -55t-54 -132zM289 0l663 1360h66
l-660 -1360h-69zM760 227q0 103 71 175.5t175 72.5q103 0 175 -72.5t72 -175.5q0 -104 -72 -174.5t-175 -70.5q-104 0 -175 70.5t-71 174.5zM821 227q0 -78 53.5 -131t131.5 -53q77 0 131.5 53.5t54.5 130.5t-55 132t-131 55q-77 0 -131 -55t-54 -132z" />
    <glyph glyph-name="ampersand" unicode="&#x26;" horiz-adv-x="1347" 
d="M123 414q0 125 78 243t207 162q-76 44 -120 125t-44 162q0 134 98 227.5t242 93.5q186 0 284 -131l-49 -36q-79 106 -235 106q-118 0 -198.5 -76t-80.5 -184q0 -113 76 -187.5t194 -74.5h379v186h62v-188h196v-56h-196v-372q0 -65 4.5 -113.5t19 -97.5t40 -81t68.5 -54
t103 -27v-61q-104 0 -182.5 63.5t-97.5 185.5q-21 -65 -66.5 -115t-103 -79t-117 -43.5t-117.5 -14.5q-194 0 -319 126.5t-125 310.5zM184 414q0 -158 108.5 -266.5t276.5 -108.5q165 0 272.5 102t112.5 256v389h-383q-164 0 -275.5 -109.5t-111.5 -262.5z" />
    <glyph glyph-name="quotesingle" unicode="'" horiz-adv-x="401" 
d="M170 905v506h61v-506h-61z" />
    <glyph glyph-name="parenleft" unicode="(" horiz-adv-x="686" 
d="M121 473q0 433 131 683t356 269v-61q-196 -15 -311 -250t-115 -641t115 -641t311 -250v-61q-225 19 -356 269t-131 683z" />
    <glyph glyph-name="parenright" unicode=")" horiz-adv-x="686" 
d="M78 -418q196 15 311 250t115 641t-115 641t-311 250v61q225 -19 356 -269t131 -683t-131 -683t-356 -269v61z" />
    <glyph glyph-name="asterisk" unicode="*" horiz-adv-x="933" 
d="M131 1159l23 66l292 -115l-18 317h74l-21 -317l301 115l19 -64l-305 -82l198 -252l-14 -10l-37 -24l-168 260l-184 -267l-55 41l200 246z" />
    <glyph glyph-name="plus" unicode="+" horiz-adv-x="1060" 
d="M129 500v61h371v369h61v-369h371v-61h-371v-373h-61v373h-371z" />
    <glyph glyph-name="comma" unicode="," horiz-adv-x="454" 
d="M84 -270q122 169 117 391h61q3 -128 -32 -223.5t-99 -186.5z" />
    <glyph glyph-name="hyphen" unicode="-" horiz-adv-x="972" 
d="M158 430v62h657v-62h-657z" />
    <glyph glyph-name="period" unicode="." horiz-adv-x="444" 
d="M158 37q0 26 18 42.5t45 16.5q28 0 47 -16.5t19 -42.5q0 -25 -19 -41t-47 -16q-27 0 -45 16t-18 41z" />
    <glyph glyph-name="slash" unicode="/" horiz-adv-x="911" 
d="M80 0l684 1411h67l-684 -1411h-67z" />
    <glyph glyph-name="zero" unicode="0" horiz-adv-x="1245" 
d="M150 678q0 123 12.5 222.5t45.5 191t85.5 153t136 97.5t193.5 36t193 -36t135 -97.5t84 -153t44.5 -190.5t12.5 -223q0 -122 -12.5 -221t-44.5 -190.5t-84 -152.5t-135 -97.5t-193 -36.5t-193.5 36.5t-136 98t-85.5 152.5t-45.5 190t-12.5 221zM211 678q0 -111 11 -201.5
t39.5 -173.5t74.5 -139t118.5 -89.5t168.5 -33.5t168 33.5t117 89.5t73 139.5t38.5 173.5t10.5 201q0 113 -10.5 203t-38.5 174t-73 140t-117 89t-168 33t-168.5 -33t-118.5 -89t-74.5 -139.5t-39.5 -174.5t-11 -203z" />
    <glyph glyph-name="one" unicode="1" horiz-adv-x="610" 
d="M86 1171v66l305 113v-1350h-61v1262z" />
    <glyph glyph-name="two" unicode="2" horiz-adv-x="1034" 
d="M121 1110q33 123 139.5 195.5t247.5 72.5q167 0 276 -104t109 -268q0 -170 -148 -342l-509 -603h667v-61h-780v23l575 679q133 153 133 304q0 137 -91.5 224t-231.5 87q-119 0 -209 -60.5t-119 -162.5z" />
    <glyph glyph-name="three" unicode="3" horiz-adv-x="1118" 
d="M113 233l55 25q40 -89 130 -147.5t204 -67.5q166 -8 284.5 81t137.5 238q0 158 -92.5 247t-225.5 89h-137v62h137q90 0 171 67t91 170q12 124 -70.5 216.5t-236.5 105.5q-95 7 -189 -41t-136 -123l-54 31q54 95 157.5 147t225.5 45q125 -9 212.5 -64.5t125 -138.5
t27.5 -182q-6 -82 -59 -153.5t-134 -106.5q76 -18 136 -78.5t89 -140.5t23 -158q-15 -168 -157.5 -277t-329.5 -97q-131 10 -235 78.5t-150 172.5z" />
    <glyph glyph-name="four" unicode="4" horiz-adv-x="1140" 
d="M61 297l734 1063h43v-1002h217v-61h-217v-297h-62v297h-715zM174 358h602v881z" />
    <glyph glyph-name="five" unicode="5" horiz-adv-x="1118" 
d="M111 238l53 30q56 -95 163 -159t214 -64q188 0 295.5 104t107.5 263q0 108 -56.5 189.5t-138.5 120t-171 38.5q-103 0 -185.5 -22t-202.5 -79l-24 33l119 668h628v-62h-577l-103 -561q99 44 176.5 64t168.5 20q77 0 152 -27t137 -76.5t100.5 -129.5t38.5 -176
q0 -186 -124.5 -307t-340.5 -121q-123 0 -244.5 73t-185.5 181z" />
    <glyph glyph-name="six" unicode="6" horiz-adv-x="1128" 
d="M164 416q-7 89 -9.5 159.5t1 175t18 184.5t47 167.5t82.5 144.5t130 94t183 37q252 0 355 -235l-56 -25q-89 199 -301 199q-77 0 -139 -24.5t-103 -62t-70.5 -97t-45.5 -115.5t-25.5 -132t-11.5 -132t-2 -129v-54q27 87 89.5 146.5t138.5 84.5t161 23q176 -7 288 -132.5
t107 -309.5q-9 -177 -131 -292t-299 -111q-170 4 -281 123.5t-126 312.5zM225 418q-1 -159 99.5 -265.5t248.5 -111.5q150 -4 254.5 94.5t112.5 251.5q5 156 -90.5 263.5t-245.5 113.5q-100 3 -185.5 -40t-138 -124t-55.5 -182z" />
    <glyph glyph-name="seven" unicode="7" horiz-adv-x="1009" 
d="M119 1298v62h846l-750 -1360h-70l717 1298h-743z" />
    <glyph glyph-name="eight" unicode="8" horiz-adv-x="1142" 
d="M125 399q0 133 80 241t211 151q-80 37 -127 110.5t-47 165.5q0 131 94 221t233 90q142 0 239 -90t97 -221q0 -91 -50 -165.5t-134 -113.5q133 -43 215 -149.5t82 -239.5q0 -177 -129.5 -298t-319.5 -121t-317 120.5t-127 298.5zM186 399q0 -151 109.5 -254.5
t273.5 -103.5t275.5 103.5t111.5 254.5q0 144 -109 249.5t-267 109.5h-27q-155 -4 -261 -109.5t-106 -249.5zM303 1067q0 -103 73 -177t181 -77h23q113 3 188.5 76.5t75.5 177.5q0 105 -79.5 177.5t-195.5 72.5q-113 0 -189.5 -72.5t-76.5 -177.5z" />
    <glyph glyph-name="nine" unicode="9" horiz-adv-x="1128" 
d="M127 975q9 177 131 292t299 111q170 -4 281.5 -124t126.5 -312q5 -67 7.5 -121.5t2.5 -133.5t-5 -143t-19 -139.5t-36 -133.5t-58 -114.5t-83 -94t-114 -60t-148 -22.5q-251 0 -354 235l55 25q89 -199 301 -199q77 0 139 24.5t103 62t70.5 97t45.5 115.5t25.5 132
t11.5 132t2 129v45q-27 -81 -89 -138.5t-139 -83.5t-161 -24q-176 7 -288 133t-107 310zM188 971q-5 -156 90.5 -263.5t245.5 -113.5q100 -3 185.5 40t138 124t55.5 182q1 159 -99.5 265.5t-248.5 111.5q-150 4 -254.5 -94.5t-112.5 -251.5z" />
    <glyph glyph-name="colon" unicode=":" horiz-adv-x="444" 
d="M158 37q0 26 18 42.5t45 16.5q28 0 47 -16.5t19 -42.5q0 -25 -19 -41t-47 -16q-27 0 -45 16t-18 41zM158 918q0 26 18 42.5t45 16.5q28 0 47 -16.5t19 -42.5q0 -25 -19 -41.5t-47 -16.5q-26 0 -44.5 16.5t-18.5 41.5z" />
    <glyph glyph-name="semicolon" unicode=";" horiz-adv-x="530" 
d="M139 -270q122 169 117 391h61q3 -128 -32 -223.5t-99 -186.5zM221 918q0 26 18.5 42.5t45.5 16.5q28 0 46.5 -16.5t18.5 -42.5q0 -25 -18.5 -41.5t-46.5 -16.5q-26 0 -45 16.5t-19 41.5z" />
    <glyph glyph-name="less" unicode="&#x3c;" horiz-adv-x="1306" 
d="M109 481v74l1042 399v-65l-969 -373l969 -369v-65z" />
    <glyph glyph-name="equal" unicode="=" horiz-adv-x="1245" 
d="M166 254v61h913v-61h-913zM166 690v62h913v-62h-913z" />
    <glyph glyph-name="greater" unicode="&#x3e;" horiz-adv-x="1306" 
d="M156 82v65l968 369l-968 373v65l1042 -399v-74z" />
    <glyph glyph-name="question" unicode="?" horiz-adv-x="968" 
d="M98 1090q13 153 120 244t259 91q163 0 281.5 -105t118.5 -271q0 -135 -79 -232.5t-200 -134.5q-55 -16 -88.5 -31t-66 -41t-47.5 -67t-15 -99v-127h-62v127q0 74 18 125t57 83.5t79.5 50.5t106.5 38q102 33 168.5 114t66.5 194q0 140 -100 227.5t-238 87.5
q-126 0 -216.5 -77t-100.5 -204zM287 49q0 26 18 43t45 17q28 0 47 -17t19 -43q0 -25 -19 -41t-47 -16q-27 0 -45 16t-18 41z" />
    <glyph glyph-name="at" unicode="@" horiz-adv-x="2058" 
d="M115 506q0 188 70.5 358t191 293.5t289 196.5t356.5 73q151 0 294 -42.5t260.5 -122t206.5 -187t138 -244.5t49 -286q0 -76 -11 -152.5t-38.5 -154.5t-68 -137t-105 -96.5t-143.5 -37.5q-53 0 -98 13t-84 42t-61 82t-22 125v289q0 142 -100 241t-240 99t-240 -99
t-100 -241q0 -140 100.5 -240t239.5 -100q49 0 105.5 17.5t93.5 46.5v-68q-91 -57 -199 -57q-164 0 -282.5 118.5t-118.5 282.5q0 168 118 285t283 117t283.5 -117t118.5 -285v-289q0 -55 17 -95.5t46.5 -62.5t64 -32t75.5 -10q66 0 119.5 33.5t87 86t56.5 122t32.5 138
t9.5 136.5q0 173 -72 327t-192.5 261.5t-283 170t-339.5 62.5q-175 0 -332 -68.5t-269.5 -184t-178.5 -274t-66 -333.5t65.5 -333t177.5 -272t268.5 -181t330.5 -68h69v-62h-69q-250 1 -457.5 123t-326.5 332t-119 461z" />
    <glyph glyph-name="A" unicode="A" horiz-adv-x="1265" 
d="M59 0l541 1411h66l538 -1411h-65l-150 393h-713l-151 -393h-66zM297 449h672l-336 876z" />
    <glyph glyph-name="B" unicode="B" horiz-adv-x="1265" 
d="M217 0v1413h488q165 0 263.5 -86.5t98.5 -245.5q0 -109 -46 -198.5t-134 -128.5q113 -38 186.5 -152t73.5 -225q0 -155 -106 -266t-275 -111h-549zM279 61h487q143 0 231 93t88 223q0 114 -79.5 219t-204.5 123q-20 2 -64 2h-458v-660zM279 778h479q27 0 39 2
q102 21 155.5 105.5t53.5 195.5q0 129 -82 200t-219 71h-426v-574z" />
    <glyph glyph-name="C" unicode="C" horiz-adv-x="1345" 
d="M119 702q0 148 54 282t146.5 231t221.5 154.5t272 57.5q130 0 248 -46.5t211 -129.5l-41 -45q-181 160 -418 160q-130 0 -247.5 -52.5t-202 -141.5t-134 -212t-49.5 -258t49.5 -257t134 -210.5t202 -141t247.5 -52.5q237 0 416 158l41 -45q-92 -83 -209.5 -128.5
t-247.5 -45.5q-143 0 -272 57t-221.5 154t-146.5 230.5t-54 280.5z" />
    <glyph glyph-name="D" unicode="D" horiz-adv-x="1482" 
d="M217 0v1411h520q145 0 263 -54.5t195.5 -150t119 -224.5t41.5 -280q0 -150 -41.5 -278t-119 -222.5t-195.5 -148t-263 -53.5h-520zM279 61h458q174 0 301.5 84.5t191.5 228.5t64 328q0 185 -64 330.5t-192 231.5t-301 86h-458v-1289z" />
    <glyph glyph-name="E" unicode="E" horiz-adv-x="1122" 
d="M217 0v1411h766v-61h-704v-627h616v-61h-616v-601h729v-61h-791z" />
    <glyph glyph-name="F" unicode="F" horiz-adv-x="1046" 
d="M217 0v1411h756v-61h-694v-627h550v-61h-550v-662h-62z" />
    <glyph glyph-name="G" unicode="G" horiz-adv-x="1562" 
d="M119 702q0 148 55 282t149 231t225.5 154.5t278.5 57.5q228 0 416 -135l-37 -49q-168 123 -379 123q-179 0 -328 -89t-234 -241.5t-85 -333.5t85 -333.5t234 -241t328 -88.5q250 0 405 142t181 409h-446v61h512q-9 -333 -181.5 -503.5t-470.5 -170.5q-147 0 -278.5 57.5
t-225.5 154.5t-149 231t-55 282z" />
    <glyph glyph-name="H" unicode="H" horiz-adv-x="1458" 
d="M217 0v1411h62v-680h901v680h61v-1411h-61v674h-901v-674h-62z" />
    <glyph glyph-name="I" unicode="I" horiz-adv-x="495" 
d="M217 0v1411h62v-1411h-62z" />
    <glyph glyph-name="J" unicode="J" horiz-adv-x="495" 
d="M-215 -471l8 61q47 -6 82 -6q91 0 158.5 29t106.5 81t58 117.5t19 145.5v1454h62v-1454q0 -93 -22 -169t-68.5 -136.5t-126.5 -94.5t-187 -34q-43 0 -90 6z" />
    <glyph glyph-name="K" unicode="K" horiz-adv-x="1060" 
d="M217 0v1411h62v-727l606 727h80l-627 -749l715 -662h-86l-688 635v-635h-62z" />
    <glyph glyph-name="L" unicode="L" horiz-adv-x="972" 
d="M217 0v1411h62v-1350h632v-61h-694z" />
    <glyph glyph-name="M" unicode="M" horiz-adv-x="1957" 
d="M135 0l180 1411h66l600 -1225l598 1225h63l181 -1411h-62l-166 1315l-581 -1182h-68l-584 1186l-167 -1319h-60z" />
    <glyph glyph-name="N" unicode="N" horiz-adv-x="1402" 
d="M217 0v1411h74l833 -1325v1325h62v-1411h-74l-833 1319v-1319h-62z" />
    <glyph glyph-name="O" unicode="O" horiz-adv-x="1656" 
d="M119 702q0 198 93.5 364.5t256.5 263.5t358 97q196 0 359.5 -97t257.5 -263.5t94 -364.5q0 -147 -55.5 -280.5t-150 -230.5t-226.5 -154t-279 -57q-146 0 -277.5 57t-225.5 154t-149.5 230.5t-55.5 280.5zM180 702q0 -135 50.5 -257t136.5 -210.5t206.5 -141t253.5 -52.5
q134 0 255 52.5t207.5 141t137 210.5t50.5 257q0 181 -85.5 333.5t-235.5 241.5t-329 89q-178 0 -327 -89t-234.5 -241.5t-85.5 -333.5z" />
    <glyph glyph-name="P" unicode="P" horiz-adv-x="1224" 
d="M217 0v1411h545q100 0 175.5 -35t119 -94.5t65 -132t21.5 -154.5q0 -83 -21.5 -154.5t-66 -130.5t-122 -93.5t-181.5 -34.5h-473v-582h-62zM279 643h473q70 0 126.5 19.5t94 52.5t62.5 78.5t35.5 95.5t10.5 106q0 70 -18 131.5t-54.5 113t-100 81t-146.5 29.5h-483v-707z
" />
    <glyph glyph-name="Q" unicode="Q" horiz-adv-x="1656" 
d="M119 702q0 198 93.5 364.5t256.5 263.5t358 97q196 0 359.5 -97t257.5 -263.5t94 -364.5q0 -206 -102 -376.5t-273 -262.5l172 -268l-53 -33l-174 273q-135 -55 -281 -55t-277.5 57t-225.5 154t-149.5 230.5t-55.5 280.5zM180 702q0 -135 50.5 -257t136.5 -210.5
t206.5 -141t253.5 -52.5q131 0 246 47l-172 272l53 33l176 -278q158 85 252.5 242t94.5 345q0 181 -85.5 333.5t-235.5 241.5t-329 89q-178 0 -327 -89t-234.5 -241.5t-85.5 -333.5z" />
    <glyph glyph-name="R" unicode="R" horiz-adv-x="1230" 
d="M217 0v1411h516q100 0 175.5 -35t119 -94.5t65 -132t21.5 -154.5q0 -83 -21.5 -154.5t-66 -130.5t-122 -93.5t-181.5 -34.5h-55l411 -582h-73l-414 582h-313v-582h-62zM279 643h444q87 0 153 29t103.5 80t55.5 111.5t18 131.5q0 70 -18 131.5t-55 113t-100.5 81
t-146.5 29.5h-454v-707z" />
    <glyph glyph-name="S" unicode="S" horiz-adv-x="1144" 
d="M123 340h61q20 -122 124 -210.5t255 -88.5q89 0 164 24.5t124 65t79 88.5t41 100q12 77 -8.5 140t-67.5 106t-107 71.5t-135 45.5l-200 47q-320 69 -320 334q0 105 62 189.5t159.5 129.5t206.5 45q173 0 292 -93.5t132 -250.5h-61q-13 129 -114.5 206t-248.5 77
q-94 0 -177 -37.5t-136 -108t-53 -157.5q0 -215 270 -275l201 -47q87 -19 156.5 -53t123 -85t76.5 -127t8 -169q-12 -61 -47 -117.5t-91 -104t-141.5 -76.5t-187.5 -29q-91 0 -170.5 30.5t-134.5 81.5t-90.5 115t-44.5 133z" />
    <glyph glyph-name="T" unicode="T" horiz-adv-x="1128" 
d="M55 1350v61h1018v-61h-479v-1350h-62v1350h-477z" />
    <glyph glyph-name="U" unicode="U" horiz-adv-x="1380" 
d="M203 463v948h61v-948q0 -188 123.5 -306t302.5 -118t302.5 118t123.5 306v948h62v-948q0 -143 -66.5 -255t-177.5 -171.5t-244 -59.5t-243.5 59.5t-177 171.5t-66.5 255z" />
    <glyph glyph-name="V" unicode="V" horiz-adv-x="1103" 
d="M84 1411h66l403 -1343l401 1343h66l-422 -1411h-90z" />
    <glyph glyph-name="W" unicode="W" horiz-adv-x="1892" 
d="M68 1411h63l451 -1327l323 1102h82l322 -1104l450 1329h66l-479 -1411h-76l-324 1104l-323 -1104h-76z" />
    <glyph glyph-name="X" unicode="X" horiz-adv-x="1157" 
d="M29 0l512 764l-435 647h74l398 -598l397 598h76l-437 -647l514 -764h-75l-475 715l-476 -715h-73z" />
    <glyph glyph-name="Y" unicode="Y" horiz-adv-x="1214" 
d="M49 1411h74l483 -676l488 676h73l-530 -735v-676h-62v678z" />
    <glyph glyph-name="Z" unicode="Z" horiz-adv-x="1071" 
d="M82 0v33l825 1317h-825v61h907v-41l-819 -1309h819v-61h-907z" />
    <glyph glyph-name="bracketleft" unicode="[" horiz-adv-x="559" 
d="M197 -463v1874h272v-61h-211v-1751h211v-62h-272z" />
    <glyph glyph-name="backslash" unicode="\" horiz-adv-x="911" 
d="M80 1411h67l684 -1411h-67z" />
    <glyph glyph-name="bracketright" unicode="]" horiz-adv-x="559" 
d="M90 -401h211v1751h-211v61h272v-1874h-272v62z" />
    <glyph glyph-name="underscore" unicode="_" horiz-adv-x="1345" 
d="M156 -57h1034v-62h-1034v62z" />
    <glyph glyph-name="grave" unicode="`" horiz-adv-x="862" 
d="M264 1362h74l162 -260h-56z" />
    <glyph glyph-name="a" unicode="a" 
d="M109 479q0 135 66.5 249.5t181 181.5t249.5 67q140 0 257 -70t181 -188v237h62v-956h-62v238q-64 -118 -181 -188t-257 -70q-101 0 -193 39.5t-158.5 106t-106 159t-39.5 194.5zM170 479q0 -181 128 -309.5t308 -128.5q177 0 304.5 122.5t133.5 297.5v18
q0 180 -128.5 308t-309.5 128q-180 0 -308 -128t-128 -308z" />
    <glyph glyph-name="b" unicode="b" 
d="M178 0v1520h62v-801q64 118 181 188t257 70q135 0 249.5 -67t181.5 -181.5t67 -249.5q0 -136 -67 -251t-181.5 -181.5t-249.5 -66.5q-140 0 -257 70t-181 188v-238h-62zM240 461q6 -175 133.5 -297.5t304.5 -122.5q180 0 308 128.5t128 309.5q0 180 -128 308t-308 128
q-181 0 -309.5 -128t-128.5 -308v-18z" />
    <glyph glyph-name="c" unicode="c" horiz-adv-x="1021" 
d="M109 481q0 147 67.5 261t180.5 174.5t249 60.5q167 0 312 -103l-35 -49q-129 90 -277 90q-120 0 -219 -52.5t-158 -152.5t-59 -229q0 -195 126 -317.5t310 -122.5q154 0 277 90l37 -49q-136 -102 -314 -102q-102 0 -192.5 36t-158 100.5t-107 159t-39.5 205.5z" />
    <glyph glyph-name="d" unicode="d" 
d="M109 479q0 135 66.5 249.5t181 181.5t249.5 67q140 0 257 -70t181 -188v801h62v-1520h-62v238q-64 -118 -181 -188t-257 -70q-101 0 -193 39.5t-158.5 106t-106 159t-39.5 194.5zM170 479q0 -181 128 -309.5t308 -128.5q177 0 304.5 122.5t133.5 297.5v18
q0 180 -128.5 308t-309.5 128q-180 0 -308 -128t-128 -308z" />
    <glyph glyph-name="e" unicode="e" horiz-adv-x="1150" 
d="M111 481q0 221 138 358.5t343 137.5t336 -136.5t131 -359.5v-26h-887q9 -186 128.5 -300t291.5 -114q113 0 206.5 51.5t151.5 143.5l54 -33q-65 -105 -173.5 -164t-238.5 -59q-205 0 -343 139t-138 362zM172 510h825q-9 184 -121 294.5t-284 110.5t-291 -111t-129 -294z
" />
    <glyph glyph-name="f" unicode="f" horiz-adv-x="632" 
d="M61 901v55h197v162q0 402 320 402h69v-62h-69q-71 0 -122.5 -26t-80.5 -73.5t-42.5 -107t-13.5 -133.5v-162h271v-55h-271v-901h-61v901h-197z" />
    <glyph glyph-name="g" unicode="g" 
d="M109 479q0 135 66.5 249.5t181 181.5t249.5 67q140 0 257 -70t181 -188v237h62v-819q0 -141 -25 -247.5t-68.5 -175.5t-109 -112.5t-141 -61t-170.5 -17.5q-115 0 -217.5 51t-173.5 152l51 34q62 -88 151.5 -132t188.5 -44q83 0 149.5 15.5t124.5 54.5t96 101t60 158
t22 224v101q-64 -118 -181 -188t-257 -70q-101 0 -193 39.5t-158.5 106t-106 159t-39.5 194.5zM170 479q0 -181 128 -309.5t308 -128.5q177 0 304.5 122.5t133.5 297.5v18q0 180 -128.5 308t-309.5 128q-180 0 -308 -128t-128 -308z" />
    <glyph glyph-name="h" unicode="h" horiz-adv-x="1150" 
d="M178 0v1520h62v-775q25 81 84 135t126.5 75.5t143.5 21.5q170 0 280.5 -112.5t110.5 -301.5v-563h-61v563q0 161 -93.5 256.5t-236.5 95.5q-70 0 -130.5 -20.5t-110.5 -62.5t-80 -115t-33 -170v-547h-62z" />
    <glyph glyph-name="i" unicode="i" horiz-adv-x="417" 
d="M145 1309q0 26 18.5 42.5t45.5 16.5q28 0 46.5 -16.5t18.5 -42.5q0 -25 -18.5 -41.5t-46.5 -16.5q-26 0 -45 16.5t-19 41.5zM178 0v956h62v-956h-62z" />
    <glyph glyph-name="j" unicode="j" horiz-adv-x="417" 
d="M-150 -410h70q258 0 258 340v1026h62v-1026q0 -401 -320 -401h-70v61zM145 1309q0 26 18.5 42.5t45.5 16.5q28 0 46.5 -16.5t18.5 -42.5q0 -25 -18.5 -41.5t-46.5 -16.5q-26 0 -45 16.5t-19 41.5z" />
    <glyph glyph-name="k" unicode="k" horiz-adv-x="886" 
d="M178 0v1520h62v-971l397 407h88l-412 -419l561 -537h-90l-544 520v-520h-62z" />
    <glyph glyph-name="l" unicode="l" horiz-adv-x="417" 
d="M178 0v1520h62v-1520h-62z" />
    <glyph glyph-name="m" unicode="m" horiz-adv-x="1894" 
d="M178 0v956h62v-211q25 81 84 135t126.5 75.5t143.5 21.5q137 0 234.5 -72t132.5 -205q17 79 58 136t96 86t110 42t114 13q170 0 281 -112.5t111 -301.5v-563h-62v563q0 161 -93.5 256.5t-236.5 95.5q-70 0 -130.5 -20.5t-110.5 -62.5t-80 -115t-33 -170v-547h-61v563
q0 161 -93.5 256.5t-236.5 95.5q-70 0 -130.5 -20.5t-110.5 -62.5t-80 -115t-33 -170v-547h-62z" />
    <glyph glyph-name="n" unicode="n" horiz-adv-x="1148" 
d="M178 0v956h62v-211q25 81 84 135t126.5 75.5t143.5 21.5q170 0 280.5 -112.5t110.5 -301.5v-563h-61v563q0 161 -93.5 256.5t-236.5 95.5q-70 0 -130.5 -20.5t-110.5 -62.5t-80 -115t-33 -170v-547h-62z" />
    <glyph glyph-name="o" unicode="o" horiz-adv-x="1216" 
d="M109 481q0 148 68 262t181 174t250 60t250 -60t181.5 -174.5t68.5 -261.5q0 -148 -68.5 -264t-182 -176.5t-249.5 -60.5q-102 0 -193.5 36t-159 100t-107 158.5t-39.5 206.5zM170 481q0 -197 126 -318.5t312 -121.5q185 0 312 122t127 318q0 129 -60 229.5t-159.5 152.5
t-219.5 52q-186 0 -312 -119.5t-126 -314.5z" />
    <glyph glyph-name="p" unicode="p" 
d="M178 -463v1419h62v-237q64 118 181 188t257 70q135 0 249.5 -67t181.5 -182t67 -251q0 -135 -67 -249.5t-181.5 -181t-249.5 -66.5q-140 0 -257 70t-181 188v-701h-62zM240 477q0 -180 128.5 -308t309.5 -128q180 0 308 128t128 308q0 181 -128 309.5t-308 128.5
q-177 0 -304.5 -122t-133.5 -297v-19z" />
    <glyph glyph-name="q" unicode="q" 
d="M109 477q0 136 66.5 251t181 182t249.5 67q140 0 257 -70t181 -188v237h62v-1419h-62v701q-64 -118 -181 -188t-257 -70q-101 0 -193 39.5t-158.5 106t-106 158.5t-39.5 193zM170 477q0 -180 128 -308t308 -128q181 0 309.5 128t128.5 308v19q-6 175 -133.5 297
t-304.5 122q-180 0 -308 -128.5t-128 -309.5z" />
    <glyph glyph-name="r" unicode="r" horiz-adv-x="745" 
d="M178 0v956h62v-270q33 126 122 208.5t220 82.5q72 0 133 -19l-19 -59q-51 16 -114 16q-81 0 -143 -36.5t-98 -91.5t-59.5 -130.5t-32 -142t-9.5 -137.5v-377h-62z" />
    <glyph glyph-name="s" unicode="s" horiz-adv-x="858" 
d="M92 223h62q67 -182 276 -182q121 0 192.5 57t71.5 150q0 148 -184 196l-143 33q-39 9 -69.5 20.5t-65.5 34.5t-56.5 52.5t-33.5 76.5t-5 105q12 95 96 153t199 58q120 0 200.5 -64t90.5 -170h-64q-10 78 -72.5 125t-154.5 47q-91 0 -157.5 -43t-75.5 -112
q-21 -176 182 -223l141 -33q122 -31 178 -98t56 -158q0 -121 -89 -194.5t-237 -73.5q-124 0 -219 63t-119 180z" />
    <glyph glyph-name="t" unicode="t" horiz-adv-x="583" 
d="M57 901v55h174v406h62v-406h237v-55h-237v-901h-62v901h-174z" />
    <glyph glyph-name="u" unicode="u" horiz-adv-x="1148" 
d="M164 393v563h61v-563q0 -161 93.5 -256.5t236.5 -95.5q70 0 130.5 20.5t110.5 63t80 115.5t33 170v546h62v-956h-62v211q-25 -81 -84 -134.5t-126.5 -75t-143.5 -21.5q-170 0 -280.5 112t-110.5 301z" />
    <glyph glyph-name="v" unicode="v" horiz-adv-x="1019" 
d="M63 956h68l377 -893l383 893h67l-409 -956h-80z" />
    <glyph glyph-name="w" unicode="w" horiz-adv-x="1689" 
d="M66 956h65l336 -870l326 870h100l334 -866l327 866h66l-360 -956h-64l-354 915l-342 -915h-66z" />
    <glyph glyph-name="x" unicode="x" horiz-adv-x="919" 
d="M39 0l383 530l-307 426h78l268 -372l266 372h78l-305 -426l381 -530h-78l-342 475l-344 -475h-78z" />
    <glyph glyph-name="y" unicode="y" horiz-adv-x="1019" 
d="M63 956h68l377 -893l383 893h67l-409 -956l-199 -463h-67l190 453z" />
    <glyph glyph-name="z" unicode="z" horiz-adv-x="956" 
d="M88 0v37l686 858h-686v61h780v-41l-682 -854h682v-61h-780z" />
    <glyph glyph-name="braceleft" unicode="{" horiz-adv-x="729" 
d="M88 453v53q59 15 98 67t39 115v367q-1 165 109 268.5t266 103.5h45v-61h-45q-131 0 -222.5 -86.5t-90.5 -224.5v-367q0 -64 -30.5 -120.5t-82.5 -90.5q49 -37 81 -93t32 -114v-360q0 -139 90.5 -225t222.5 -86h45v-62h-45q-158 0 -266.5 103.5t-108.5 269.5v360
q0 63 -39.5 115.5t-97.5 67.5z" />
    <glyph glyph-name="bar" unicode="|" horiz-adv-x="454" 
d="M197 -264v1896h61v-1896h-61z" />
    <glyph glyph-name="braceright" unicode="}" horiz-adv-x="729" 
d="M84 -401h45q132 0 222.5 86t90.5 225v360q0 58 32 114t81 93q-52 34 -82.5 90.5t-30.5 120.5v367q1 138 -90.5 224.5t-222.5 86.5h-45v61h45q156 0 266 -103.5t109 -268.5v-367q0 -63 39 -115t98 -67v-53q-58 -15 -97.5 -67.5t-39.5 -115.5v-360q0 -166 -108.5 -269.5
t-266.5 -103.5h-45v62z" />
    <glyph glyph-name="exclamdown" unicode="&#xa1;" horiz-adv-x="430" 
d="M152 922q0 25 18 41t45 16q28 0 47 -16t19 -41q0 -26 -19 -43t-47 -17q-27 0 -45 17t-18 43zM184 -463v1116h62v-1116h-62z" />
    <glyph glyph-name="cent" unicode="&#xa2;" horiz-adv-x="1064" 
d="M117 481q0 206 125.5 340.5t316.5 153.5v205h62v-203q159 -3 305 -103l-35 -49q-129 90 -277 90q-120 0 -219 -52.5t-158 -152.5t-59 -229q0 -195 126 -317.5t310 -122.5q154 0 277 90l37 -49q-129 -99 -307 -102v-224h-62v226q-191 19 -316.5 155.5t-125.5 343.5z" />
    <glyph glyph-name="sterling" unicode="&#xa3;" horiz-adv-x="1290" 
d="M96 0v61h211v555h-174v58h174v389q0 111 57 198.5t148 133t195 45.5q152 0 259 -92t119 -244h-61q-12 125 -101.5 199.5t-215.5 74.5q-136 0 -237 -87.5t-101 -227.5v-389h247v-58h-247v-555h659q37 0 61.5 27.5t24.5 67.5v88h62v-88q0 -66 -43 -111t-105 -45h-932z" />
    <glyph glyph-name="currency" unicode="&#xa4;" horiz-adv-x="1218" 
d="M164 309l155 154q-88 106 -87 245.5t92 243.5l-160 160l43 43l162 -162q103 86 238.5 85t238.5 -89l166 166l43 -43l-166 -166q86 -103 87.5 -238t-83.5 -239l164 -164l-43 -43l-164 164q-104 -91 -243 -92.5t-245 86.5l-155 -154zM385 485q91 -91 219.5 -91t220.5 91
q91 92 91 221t-91 220q-92 91 -220.5 91t-219.5 -91q-92 -91 -92 -220t92 -221z" />
    <glyph glyph-name="yen" unicode="&#xa5;" horiz-adv-x="1259" 
d="M72 1411h73l484 -676l487 676h74l-531 -735v-119h338v-61h-338v-189h338v-61h-338v-246h-61v246h-338v61h338v189h-338v61h338v121z" />
    <glyph glyph-name="brokenbar" unicode="&#xa6;" horiz-adv-x="462" 
d="M201 -264v731h61v-731h-61zM201 899v733h61v-733h-61z" />
    <glyph glyph-name="section" unicode="&#xa7;" horiz-adv-x="1015" 
d="M147 -66l56 27q36 -76 114 -120t172 -44q135 0 227.5 87.5t92.5 228.5v286q0 143 -92 229.5t-228 86.5q-62 0 -133 -23v64q68 20 133 20q161 0 271 -104t110 -273v-286q0 -168 -110 -272.5t-271 -104.5q-112 0 -204.5 52.5t-137.5 145.5zM147 764v287q0 168 110 272
t271 104q112 0 204.5 -52.5t137.5 -145.5l-55 -27q-36 76 -114 120t-173 44q-136 0 -227.5 -87t-91.5 -228v-287q0 -143 91.5 -229t227.5 -86q66 0 134 22v-63q-72 -21 -134 -21q-161 0 -271 104t-110 273z" />
    <glyph glyph-name="dieresis" unicode="&#xa8;" horiz-adv-x="933" 
d="M246 1272q0 26 18 42.5t45 16.5q28 0 47 -16.5t19 -42.5q0 -25 -19 -41.5t-47 -16.5q-26 0 -44.5 16.5t-18.5 41.5zM559 1272q0 26 18.5 42.5t45.5 16.5q28 0 46.5 -16.5t18.5 -42.5q0 -25 -18.5 -41.5t-46.5 -16.5q-26 0 -45 16.5t-19 41.5z" />
    <glyph glyph-name="copyright" unicode="&#xa9;" horiz-adv-x="1685" 
d="M127 702q0 147 56 281t151.5 231.5t228 155t279.5 57.5t280 -57.5t228.5 -155t152 -231.5t56.5 -281q0 -196 -95.5 -362.5t-260.5 -263t-361 -96.5q-147 0 -279.5 57t-228 154t-151.5 230.5t-56 280.5zM188 702q0 -135 51.5 -257t138.5 -210.5t208.5 -141t255.5 -52.5
q179 0 330 88.5t238 240.5t87 332t-87 332.5t-238 242t-330 89.5t-330 -89.5t-237.5 -242t-86.5 -332.5zM506 702q0 151 100 257t246 106q135 0 229 -88l-41 -45q-78 72 -188 72q-119 0 -202 -88.5t-83 -213.5q0 -124 83 -211.5t202 -87.5q106 0 188 72l41 -47
q-99 -86 -229 -86q-146 0 -246 105t-100 255z" />
    <glyph glyph-name="ordfeminine" unicode="&#xaa;" horiz-adv-x="1001" 
d="M164 1051q0 135 96.5 231t231.5 96q85 0 154.5 -37.5t113.5 -103.5v127h61v-629h-61v127q-44 -64 -114.5 -101.5t-153.5 -37.5q-135 0 -231.5 96t-96.5 232zM186 555v59h625v-59h-625zM225 1051q0 -110 79 -189.5t188 -79.5q110 0 187.5 75t80.5 181v13q0 110 -79 188
t-189 78q-109 0 -188 -78t-79 -188z" />
    <glyph glyph-name="guillemotleft" unicode="&#xab;" horiz-adv-x="821" 
d="M113 475l282 424h74l-283 -424l285 -424h-76zM344 475l283 424h73l-282 -424l284 -424h-75z" />
    <glyph glyph-name="logicalnot" unicode="&#xac;" horiz-adv-x="1339" 
d="M193 618v62h981v-408h-62v346h-919z" />
    <glyph glyph-name="registered" unicode="&#xae;" horiz-adv-x="1685" 
d="M127 702q0 147 56 281t151.5 231.5t228 155t279.5 57.5t280 -57.5t228.5 -155t152 -231.5t56.5 -281q0 -196 -95.5 -362.5t-260.5 -263t-361 -96.5q-147 0 -279.5 57t-228 154t-151.5 230.5t-56 280.5zM188 702q0 -135 51.5 -257t138.5 -210.5t208.5 -141t255.5 -52.5
q179 0 330 88.5t238 240.5t87 332t-87 332.5t-238 242t-330 89.5t-330 -89.5t-237.5 -242t-86.5 -332.5zM618 338v737h271q113 0 167 -69t54 -170q0 -93 -46 -159t-142 -77l170 -262h-70l-170 260h-172v-260h-62zM680 659h205q84 0 124 50.5t40 126.5q0 75 -39 126.5
t-121 51.5h-209v-355z" />
    <glyph glyph-name="macron" unicode="&#xaf;" horiz-adv-x="958" 
d="M246 1233v55h467v-55h-467z" />
    <glyph glyph-name="degree" unicode="&#xb0;" horiz-adv-x="724" 
d="M133 1198q0 96 66.5 162.5t162.5 66.5t163 -66.5t67 -162.5q0 -95 -67.5 -162t-162.5 -67t-162 67t-67 162zM195 1198q0 -69 49 -118.5t118 -49.5t118.5 49.5t49.5 118.5q0 70 -49.5 119t-118.5 49t-118 -49t-49 -119z" />
    <glyph glyph-name="plusminus" unicode="&#xb1;" horiz-adv-x="1134" 
d="M166 0v61h803v-61h-803zM166 500v61h371v336h61v-336h371v-61h-371v-340h-61v340h-371z" />
    <glyph glyph-name="uni00B2" unicode="&#xb2;" horiz-adv-x="645" 
d="M74 1616q17 81 83 129.5t156 48.5q104 0 174 -64.5t70 -164.5q0 -103 -90 -207l-279 -330h371v-61h-479v22l342 410q74 88 74 166q0 74 -52.5 121t-130.5 47q-67 0 -118.5 -37t-63.5 -97z" />
    <glyph glyph-name="uni00B3" unicode="&#xb3;" horiz-adv-x="663" 
d="M70 1096l49 32q49 -100 182 -110q87 -4 147 44t68 128q1 80 -54 132t-132 52h-80v60h80q58 0 103.5 39t49.5 98q5 66 -36.5 111t-122.5 51q-53 4 -103 -20t-74 -64l-51 30q33 56 96 87.5t136 27.5q112 -7 169.5 -73t49.5 -158q-5 -50 -36.5 -92t-80.5 -64
q69 -17 111.5 -85.5t36.5 -141.5q-9 -102 -90 -166.5t-191 -57.5q-80 5 -134.5 36.5t-92.5 103.5z" />
    <glyph glyph-name="acute" unicode="&#xb4;" horiz-adv-x="862" 
d="M264 1102l162 260h74l-181 -260h-55z" />
    <glyph glyph-name="uni00B5" unicode="&#xb5;" horiz-adv-x="1148" 
d="M193 -283v1239h61v-563q0 -161 93.5 -256.5t236.5 -95.5q70 0 130.5 20.5t110.5 63t80 115.5t33 170v546h61v-956h-61v211q-25 -81 -84 -134.5t-126.5 -75t-143.5 -21.5q-106 0 -192.5 46t-137.5 130v-439h-61z" />
    <glyph glyph-name="paragraph" unicode="&#xb6;" horiz-adv-x="1216" 
d="M76 985q0 177 125 301.5t303 124.5h102v-1561h-61v707q-195 0 -332 125t-137 303zM545 -336h80q67 0 115 49.5t48 116.5v1581h103q101 0 173.5 -72.5t72.5 -175.5v-129h-62v129q0 77 -54 132t-130 55h-41v-1520q0 -91 -67 -159t-158 -68h-80v61z" />
    <glyph glyph-name="periodcentered" unicode="&#xb7;" horiz-adv-x="444" 
d="M158 479q0 26 18 43t45 17q28 0 47 -17t19 -43q0 -25 -19 -41t-47 -16q-27 0 -45 16t-18 41z" />
    <glyph glyph-name="cedilla" unicode="&#xb8;" horiz-adv-x="1021" 
d="M328 -205h59q0 -29 12 -59v2q15 -36 45 -57t66 -21q28 0 47 8q36 15 57 45.5t21 67.5q0 26 -12 53l-74 176h65l64 -153q31 -73 3 -143t-101 -99q-69 -29 -137 -0.5t-99 100.5q-16 43 -16 80z" />
    <glyph glyph-name="uni00B9" unicode="&#xb9;" horiz-adv-x="385" 
d="M59 1645v61l203 74v-813h-61v727z" />
    <glyph glyph-name="ordmasculine" unicode="&#xba;" horiz-adv-x="991" 
d="M164 1051q0 147 95.5 237t234.5 90q138 0 233.5 -90t95.5 -237q0 -146 -96 -237t-233 -91q-139 0 -234.5 91t-95.5 237zM186 555v59h625v-59h-625zM225 1051q0 -120 78 -194.5t191 -74.5q112 0 190 74.5t78 194.5t-78 193t-190 73q-114 0 -191.5 -73t-77.5 -193z" />
    <glyph glyph-name="guillemotright" unicode="&#xbb;" horiz-adv-x="821" 
d="M119 51l284 424l-282 424h74l282 -424l-282 -424h-76zM350 51l285 424l-283 424h74l283 -424l-283 -424h-76z" />
    <glyph glyph-name="onequarter" unicode="&#xbc;" horiz-adv-x="1507" 
d="M100 1221v61l203 74v-813h-61v727zM184 -20l918 1398h74l-918 -1398h-74zM803 176l444 641h45v-584h127v-57h-127v-176h-61v176h-428zM915 233h316v461z" />
    <glyph glyph-name="onehalf" unicode="&#xbd;" horiz-adv-x="1593" 
d="M100 1221v61l203 74v-813h-61v727zM184 -20l918 1398h74l-918 -1398h-74zM993 649q17 81 83.5 129.5t156.5 48.5q104 0 174 -64.5t70 -164.5q0 -102 -91 -207l-278 -330h371v-61h-480v23l342 409q74 88 74 166q0 74 -52 121t-130 47q-67 0 -118.5 -36.5t-63.5 -96.5z" />
    <glyph glyph-name="threequarters" unicode="&#xbe;" horiz-adv-x="1736" 
d="M111 672l49 33q49 -101 182 -111q87 -4 147 44t68 128q1 80 -54 132t-132 52h-80v60h80q58 0 103.5 39t49.5 98q5 66 -36.5 111t-122.5 51q-53 4 -103 -20t-74 -64l-51 30q33 56 96 87.5t136 27.5q112 -7 169.5 -73t49.5 -158q-5 -50 -36.5 -92t-80.5 -64
q68 -17 110.5 -85.5t36.5 -141.5q-9 -102 -89.5 -166.5t-190.5 -57.5q-80 5 -134.5 36.5t-92.5 103.5zM414 -20l917 1398h74l-918 -1398h-73zM1032 176l445 641h45v-584h127v-57h-127v-176h-62v176h-428zM1145 233h315v461z" />
    <glyph glyph-name="questiondown" unicode="&#xbf;" horiz-adv-x="942" 
d="M80 -96q0 135 78.5 232t199.5 134q55 16 88.5 31t66 41t47.5 67t15 99v145h62v-145q0 -59 -13.5 -104.5t-33.5 -74.5t-56.5 -52.5t-70.5 -36.5t-86 -29q-103 -33 -169.5 -113.5t-66.5 -193.5q0 -140 100.5 -228t237.5 -88q126 0 217 77t101 204l61 -6
q-13 -153 -120 -244.5t-259 -91.5q-163 0 -281 105.5t-118 271.5zM541 922q0 25 18.5 41t46.5 16q27 0 45.5 -16.5t18.5 -40.5q0 -26 -18.5 -43t-45.5 -17q-28 0 -46.5 17t-18.5 43z" />
    <glyph glyph-name="Agrave" unicode="&#xc0;" horiz-adv-x="1265" 
d="M59 0l541 1411h66l538 -1411h-65l-150 393h-713l-151 -393h-66zM297 449h672l-336 876zM418 1817h74l161 -261h-55z" />
    <glyph glyph-name="Aacute" unicode="&#xc1;" horiz-adv-x="1265" 
d="M59 0l541 1411h66l538 -1411h-65l-150 393h-713l-151 -393h-66zM297 449h672l-336 876zM627 1556l161 261h74l-180 -261h-55z" />
    <glyph glyph-name="Acircumflex" unicode="&#xc2;" horiz-adv-x="1265" 
d="M59 0l541 1411h66l538 -1411h-65l-150 393h-713l-151 -393h-66zM297 449h672l-336 876zM356 1556l226 261h98l225 -261h-61l-213 224l-213 -224h-62z" />
    <glyph glyph-name="Atilde" unicode="&#xc3;" horiz-adv-x="1265" 
d="M59 0l541 1411h66l538 -1411h-65l-150 393h-713l-151 -393h-66zM297 449h672l-336 876zM393 1610q3 74 46 109.5t91 35.5q25 0 48.5 -9t35.5 -17t35 -25q53 -39 84 -39q27 0 51 22t25 68h61q-3 -74 -46 -109.5t-91 -35.5q-25 0 -47.5 7.5t-35.5 15.5t-34 24
q-5 3 -20 14.5t-21.5 15.5t-19.5 8.5t-25 4.5q-27 0 -50.5 -22t-24.5 -68h-62z" />
    <glyph glyph-name="Adieresis" unicode="&#xc4;" horiz-adv-x="1265" 
d="M59 0l541 1411h66l538 -1411h-65l-150 393h-713l-151 -393h-66zM297 449h672l-336 876zM410 1726q0 26 18 43t45 17q28 0 47 -17t19 -43q0 -25 -19 -41t-47 -16q-27 0 -45 16t-18 41zM723 1726q0 26 18 43t45 17q28 0 47 -17t19 -43q0 -25 -19 -41t-47 -16q-27 0 -45 16
t-18 41z" />
    <glyph glyph-name="Aring" unicode="&#xc5;" horiz-adv-x="1265" 
d="M59 0l541 1411h66l538 -1411h-65l-150 393h-713l-151 -393h-66zM297 449h672l-336 876zM463 1763q0 71 48.5 121.5t117.5 50.5q72 0 122 -50.5t50 -121.5q0 -70 -50 -119t-122 -49q-69 0 -117.5 49t-48.5 119zM518 1763q0 -47 32.5 -79.5t78.5 -32.5q49 0 82.5 32.5
t33.5 79.5q0 50 -33.5 83.5t-82.5 33.5q-46 0 -78.5 -34t-32.5 -83z" />
    <glyph glyph-name="AE" unicode="&#xc6;" horiz-adv-x="1996" 
d="M41 0l930 1411h887v-61h-705v-627h616v-61h-616v-601h729v-61h-790v399h-715l-262 -399h-74zM416 461h676v889h-91z" />
    <glyph glyph-name="Ccedilla" unicode="&#xc7;" horiz-adv-x="1347" 
d="M121 702q0 148 54 282t146.5 231t221.5 154.5t272 57.5q130 0 248 -46.5t211 -129.5l-41 -45q-181 160 -418 160q-130 0 -247.5 -52.5t-202 -141.5t-134 -212t-49.5 -258t49.5 -257t134 -210.5t202 -141t247.5 -52.5q237 0 416 158l41 -45q-92 -83 -209.5 -128.5
t-247.5 -45.5q-4 0 -10.5 1t-9.5 1l51 -125q31 -73 3 -143t-101 -99q-69 -29 -137 -0.5t-99 100.5q-16 43 -16 80h59q0 -29 12 -59v2q15 -36 45 -57t66 -21q28 0 47 8q36 15 57 45.5t21 67.5q0 26 -12 53l-64 152q-171 21 -309.5 121t-217.5 256.5t-79 338.5z" />
    <glyph glyph-name="Egrave" unicode="&#xc8;" horiz-adv-x="1122" 
d="M217 0v1411h766v-61h-704v-627h616v-61h-616v-601h729v-61h-791zM401 1817h74l162 -261h-55z" />
    <glyph glyph-name="Eacute" unicode="&#xc9;" horiz-adv-x="1122" 
d="M217 0v1411h766v-61h-704v-627h616v-61h-616v-601h729v-61h-791zM498 1556l161 261h74l-180 -261h-55z" />
    <glyph glyph-name="Ecircumflex" unicode="&#xca;" horiz-adv-x="1122" 
d="M217 0v1411h766v-61h-704v-627h616v-61h-616v-601h729v-61h-791zM297 1556l225 261h99l225 -261h-62l-213 224l-213 -224h-61z" />
    <glyph glyph-name="Edieresis" unicode="&#xcb;" horiz-adv-x="1122" 
d="M217 0v1411h766v-61h-704v-627h616v-61h-616v-601h729v-61h-791zM350 1726q0 26 18.5 43t45.5 17q28 0 46.5 -17t18.5 -43q0 -25 -18.5 -41t-46.5 -16q-27 0 -45.5 16.5t-18.5 40.5zM664 1726q0 26 18 43t45 17q28 0 47 -17t19 -43q0 -25 -19 -41t-47 -16q-27 0 -45 16
t-18 41z" />
    <glyph glyph-name="Igrave" unicode="&#xcc;" horiz-adv-x="495" 
d="M39 1817h74l161 -261h-55zM217 0v1411h62v-1411h-62z" />
    <glyph glyph-name="Iacute" unicode="&#xcd;" horiz-adv-x="495" 
d="M215 1556l162 261h74l-181 -261h-55zM217 0v1411h62v-1411h-62z" />
    <glyph glyph-name="Icircumflex" unicode="&#xce;" horiz-adv-x="495" 
d="M-27 1556l226 261h98l225 -261h-61l-213 224l-213 -224h-62zM217 0v1411h62v-1411h-62z" />
    <glyph glyph-name="Idieresis" unicode="&#xcf;" horiz-adv-x="495" 
d="M27 1726q0 26 18 43t45 17q28 0 47 -17t19 -43q0 -25 -19 -41t-47 -16q-27 0 -45 16t-18 41zM217 0v1411h62v-1411h-62zM340 1726q0 26 18 43t45 17q28 0 47 -17t19 -43q0 -25 -19 -41t-47 -16q-27 0 -45 16t-18 41z" />
    <glyph glyph-name="Eth" unicode="&#xd0;" horiz-adv-x="1486" 
d="M20 666v57h201v688h520q145 0 263 -54.5t195.5 -150t119 -224.5t41.5 -280q0 -150 -41.5 -278t-119 -222.5t-195.5 -148t-263 -53.5h-520v666h-201zM283 61h458q174 0 301.5 84.5t191.5 228.5t64 328q0 185 -64 330.5t-192 231.5t-301 86h-458v-627h395v-57h-395v-605z
" />
    <glyph glyph-name="Ntilde" unicode="&#xd1;" horiz-adv-x="1402" 
d="M217 0v1411h74l833 -1325v1325h62v-1411h-74l-833 1319v-1319h-62zM463 1610q3 74 46 109.5t91 35.5q25 0 48.5 -9t35.5 -17t35 -25q53 -39 84 -39q27 0 51 22t25 68h61q-3 -74 -46 -109.5t-91 -35.5q-25 0 -47.5 7.5t-35.5 15.5t-34 24q-5 3 -20 14.5t-21.5 15.5
t-19.5 8.5t-25 4.5q-27 0 -51 -22t-25 -68h-61z" />
    <glyph glyph-name="Ograve" unicode="&#xd2;" horiz-adv-x="1656" 
d="M119 702q0 198 93.5 364.5t256.5 263.5t358 97q196 0 359.5 -97t257.5 -263.5t94 -364.5q0 -147 -55.5 -280.5t-150 -230.5t-226.5 -154t-279 -57q-146 0 -277.5 57t-225.5 154t-149.5 230.5t-55.5 280.5zM180 702q0 -135 50.5 -257t136.5 -210.5t206.5 -141t253.5 -52.5
q134 0 255 52.5t207.5 141t137 210.5t50.5 257q0 181 -85.5 333.5t-235.5 241.5t-329 89q-178 0 -327 -89t-234.5 -241.5t-85.5 -333.5zM616 1819h74l162 -260h-55z" />
    <glyph glyph-name="Oacute" unicode="&#xd3;" horiz-adv-x="1656" 
d="M119 702q0 198 93.5 364.5t256.5 263.5t358 97q196 0 359.5 -97t257.5 -263.5t94 -364.5q0 -147 -55.5 -280.5t-150 -230.5t-226.5 -154t-279 -57q-146 0 -277.5 57t-225.5 154t-149.5 230.5t-55.5 280.5zM180 702q0 -135 50.5 -257t136.5 -210.5t206.5 -141t253.5 -52.5
q134 0 255 52.5t207.5 141t137 210.5t50.5 257q0 181 -85.5 333.5t-235.5 241.5t-329 89q-178 0 -327 -89t-234.5 -241.5t-85.5 -333.5zM782 1559l162 260h74l-180 -260h-56z" />
    <glyph glyph-name="Ocircumflex" unicode="&#xd4;" horiz-adv-x="1656" 
d="M119 702q0 198 93.5 364.5t256.5 263.5t358 97q196 0 359.5 -97t257.5 -263.5t94 -364.5q0 -147 -55.5 -280.5t-150 -230.5t-226.5 -154t-279 -57q-146 0 -277.5 57t-225.5 154t-149.5 230.5t-55.5 280.5zM180 702q0 -135 50.5 -257t136.5 -210.5t206.5 -141t253.5 -52.5
q134 0 255 52.5t207.5 141t137 210.5t50.5 257q0 181 -85.5 333.5t-235.5 241.5t-329 89q-178 0 -327 -89t-234.5 -241.5t-85.5 -333.5zM561 1559l225 260h99l225 -260h-61l-213 223l-213 -223h-62z" />
    <glyph glyph-name="Otilde" unicode="&#xd5;" horiz-adv-x="1656" 
d="M119 702q0 198 93.5 364.5t256.5 263.5t358 97q196 0 359.5 -97t257.5 -263.5t94 -364.5q0 -147 -55.5 -280.5t-150 -230.5t-226.5 -154t-279 -57q-146 0 -277.5 57t-225.5 154t-149.5 230.5t-55.5 280.5zM180 702q0 -135 50.5 -257t136.5 -210.5t206.5 -141t253.5 -52.5
q134 0 255 52.5t207.5 141t137 210.5t50.5 257q0 181 -85.5 333.5t-235.5 241.5t-329 89q-178 0 -327 -89t-234.5 -241.5t-85.5 -333.5zM598 1612q3 74 46 109.5t91 35.5q25 0 48.5 -9t35.5 -17t35 -25q53 -39 84 -39q27 0 51 22t25 68h61q-3 -74 -46 -109.5t-91 -35.5
q-25 0 -47.5 7.5t-35.5 15.5t-34 24q-5 3 -20 14.5t-21.5 15.5t-19.5 8.5t-25 4.5q-27 0 -51 -22t-25 -68h-61z" />
    <glyph glyph-name="Odieresis" unicode="&#xd6;" horiz-adv-x="1656" 
d="M119 702q0 198 93.5 364.5t256.5 263.5t358 97q196 0 359.5 -97t257.5 -263.5t94 -364.5q0 -147 -55.5 -280.5t-150 -230.5t-226.5 -154t-279 -57q-146 0 -277.5 57t-225.5 154t-149.5 230.5t-55.5 280.5zM180 702q0 -135 50.5 -257t136.5 -210.5t206.5 -141t253.5 -52.5
q134 0 255 52.5t207.5 141t137 210.5t50.5 257q0 181 -85.5 333.5t-235.5 241.5t-329 89q-178 0 -327 -89t-234.5 -241.5t-85.5 -333.5zM614 1729q0 26 18.5 42.5t45.5 16.5q28 0 46.5 -16.5t18.5 -42.5q0 -25 -18.5 -41.5t-46.5 -16.5q-26 0 -45 16.5t-19 41.5zM928 1729
q0 26 18 42.5t45 16.5q28 0 47 -16.5t19 -42.5q0 -25 -19 -41.5t-47 -16.5q-26 0 -44.5 16.5t-18.5 41.5z" />
    <glyph glyph-name="multiply" unicode="&#xd7;" horiz-adv-x="937" 
d="M164 293l262 262l-260 260l43 43l260 -260l262 262l43 -43l-260 -262l262 -264l-43 -43l-264 262l-262 -260z" />
    <glyph glyph-name="Oslash" unicode="&#xd8;" horiz-adv-x="1654" 
d="M113 23l188 190q-88 98 -136 224t-48 265q0 198 93.5 364.5t256.5 263.5t358 97q139 0 264 -50.5t222 -141.5l190 192l43 -41l-192 -194q88 -98 136 -224.5t48 -265.5q0 -147 -55.5 -280.5t-150 -230.5t-226.5 -154t-279 -57q-139 0 -262.5 49.5t-218.5 140.5l-188 -190z
M178 702q0 -256 166 -446l922 934q-186 176 -441 176q-178 0 -327 -89t-234.5 -241.5t-85.5 -333.5zM387 213q187 -172 438 -172q134 0 255 52.5t207.5 141t137 210.5t50.5 257q0 125 -44 240t-122 205z" />
    <glyph glyph-name="Ugrave" unicode="&#xd9;" horiz-adv-x="1380" 
d="M203 463v948h61v-948q0 -188 123.5 -306t302.5 -118t302.5 118t123.5 306v948h62v-948q0 -143 -66.5 -255t-177.5 -171.5t-244 -59.5t-243.5 59.5t-177 171.5t-66.5 255zM494 1817h73l162 -261h-55z" />
    <glyph glyph-name="Uacute" unicode="&#xda;" horiz-adv-x="1380" 
d="M203 463v948h61v-948q0 -188 123.5 -306t302.5 -118t302.5 118t123.5 306v948h62v-948q0 -143 -66.5 -255t-177.5 -171.5t-244 -59.5t-243.5 59.5t-177 171.5t-66.5 255zM631 1556l162 261h73l-180 -261h-55z" />
    <glyph glyph-name="Ucircumflex" unicode="&#xdb;" horiz-adv-x="1380" 
d="M203 463v948h61v-948q0 -188 123.5 -306t302.5 -118t302.5 118t123.5 306v948h62v-948q0 -143 -66.5 -255t-177.5 -171.5t-244 -59.5t-243.5 59.5t-177 171.5t-66.5 255zM416 1556l225 261h98l226 -261h-62l-213 224l-213 -224h-61z" />
    <glyph glyph-name="Udieresis" unicode="&#xdc;" horiz-adv-x="1380" 
d="M203 463v948h61v-948q0 -188 123.5 -306t302.5 -118t302.5 118t123.5 306v948h62v-948q0 -143 -66.5 -255t-177.5 -171.5t-244 -59.5t-243.5 59.5t-177 171.5t-66.5 255zM469 1726q0 26 18 43t45 17q28 0 47 -17t19 -43q0 -25 -19 -41t-47 -16q-27 0 -45 16t-18 41z
M782 1726q0 26 18.5 43t45.5 17q28 0 46.5 -17t18.5 -43q0 -25 -18.5 -41t-46.5 -16q-27 0 -45.5 16.5t-18.5 40.5z" />
    <glyph glyph-name="Yacute" unicode="&#xdd;" horiz-adv-x="1214" 
d="M49 1411h74l483 -676l488 676h73l-530 -735v-676h-62v678zM532 1556l162 261h74l-180 -261h-56z" />
    <glyph glyph-name="Thorn" unicode="&#xde;" horiz-adv-x="1159" 
d="M217 0v1411h62v-276h391q172 0 287.5 -113t115.5 -295q0 -184 -115.5 -300t-287.5 -116h-391v-311h-62zM279 373h391q145 0 243.5 98.5t98.5 255.5q0 155 -98 250.5t-244 95.5h-391v-700z" />
    <glyph glyph-name="germandbls" unicode="&#xdf;" horiz-adv-x="1181" 
d="M178 0v1030q0 197 111.5 309.5t290.5 112.5h20q153 0 257 -100.5t104 -243.5q0 -96 -61 -182.5t-152 -100.5q95 -9 172 -73.5t116 -151t39 -170.5q0 -191 -129.5 -319.5t-329.5 -128.5q-104 -3 -210 41l22 57q101 -40 186 -37q175 0 287.5 110t112.5 275
q-8 154 -113 260.5t-266 106.5h-70v57h70q115 0 189.5 75t74.5 181q0 118 -86 200.5t-213 82.5h-20q-152 0 -246 -96t-94 -265v-1030h-62z" />
    <glyph glyph-name="agrave" unicode="&#xe0;" 
d="M109 479q0 135 66.5 249.5t181 181.5t249.5 67q140 0 257 -70t181 -188v237h62v-956h-62v238q-64 -118 -181 -188t-257 -70q-101 0 -193 39.5t-158.5 106t-106 159t-39.5 194.5zM170 479q0 -181 128 -309.5t308 -128.5q177 0 304.5 122.5t133.5 297.5v18
q0 180 -128.5 308t-309.5 128q-180 0 -308 -128t-128 -308zM414 1362h73l162 -260h-55z" />
    <glyph glyph-name="aacute" unicode="&#xe1;" 
d="M109 479q0 135 66.5 249.5t181 181.5t249.5 67q140 0 257 -70t181 -188v237h62v-956h-62v238q-64 -118 -181 -188t-257 -70q-101 0 -193 39.5t-158.5 106t-106 159t-39.5 194.5zM170 479q0 -181 128 -309.5t308 -128.5q177 0 304.5 122.5t133.5 297.5v18
q0 180 -128.5 308t-309.5 128q-180 0 -308 -128t-128 -308zM573 1102l162 260h74l-180 -260h-56z" />
    <glyph glyph-name="acircumflex" unicode="&#xe2;" 
d="M109 479q0 135 66.5 249.5t181 181.5t249.5 67q140 0 257 -70t181 -188v237h62v-956h-62v238q-64 -118 -181 -188t-257 -70q-101 0 -193 39.5t-158.5 106t-106 159t-39.5 194.5zM170 479q0 -181 128 -309.5t308 -128.5q177 0 304.5 122.5t133.5 297.5v18
q0 180 -128.5 308t-309.5 128q-180 0 -308 -128t-128 -308zM362 1102l226 260h98l225 -260h-61l-213 223l-213 -223h-62z" />
    <glyph glyph-name="atilde" unicode="&#xe3;" 
d="M109 479q0 135 66.5 249.5t181 181.5t249.5 67q140 0 257 -70t181 -188v237h62v-956h-62v238q-64 -118 -181 -188t-257 -70q-101 0 -193 39.5t-158.5 106t-106 159t-39.5 194.5zM170 479q0 -181 128 -309.5t308 -128.5q177 0 304.5 122.5t133.5 297.5v18
q0 180 -128.5 308t-309.5 128q-180 0 -308 -128t-128 -308zM399 1155q3 74 46.5 109.5t91.5 35.5q25 0 48.5 -9t34.5 -16.5t35 -25.5q53 -39 84 -39q27 0 51 22t25 68h62q-3 -74 -46.5 -109.5t-91.5 -35.5q-25 0 -47 7.5t-35 15.5t-34 24q-5 3 -20 14.5t-21.5 15.5
t-19.5 8.5t-25 4.5q-27 0 -51 -22t-25 -68h-62z" />
    <glyph glyph-name="adieresis" unicode="&#xe4;" 
d="M109 479q0 135 66.5 249.5t181 181.5t249.5 67q140 0 257 -70t181 -188v237h62v-956h-62v238q-64 -118 -181 -188t-257 -70q-101 0 -193 39.5t-158.5 106t-106 159t-39.5 194.5zM170 479q0 -181 128 -309.5t308 -128.5q177 0 304.5 122.5t133.5 297.5v18
q0 180 -128.5 308t-309.5 128q-180 0 -308 -128t-128 -308zM416 1272q0 26 18 42.5t45 16.5q28 0 47 -16.5t19 -42.5q0 -25 -19 -41.5t-47 -16.5q-26 0 -44.5 16.5t-18.5 41.5zM729 1272q0 26 18.5 42.5t45.5 16.5q28 0 46.5 -16.5t18.5 -42.5q0 -25 -18.5 -41.5
t-46.5 -16.5q-26 0 -45 16.5t-19 41.5z" />
    <glyph glyph-name="aring" unicode="&#xe5;" 
d="M109 479q0 135 66.5 249.5t181 181.5t249.5 67q140 0 257 -70t181 -188v237h62v-956h-62v238q-64 -118 -181 -188t-257 -70q-101 0 -193 39.5t-158.5 106t-106 159t-39.5 194.5zM170 479q0 -181 128 -309.5t308 -128.5q177 0 304.5 122.5t133.5 297.5v18
q0 180 -128.5 308t-309.5 128q-180 0 -308 -128t-128 -308zM469 1309q0 71 48.5 121.5t117.5 50.5q72 0 122 -50.5t50 -121.5q0 -70 -50 -119t-122 -49q-69 0 -117.5 49t-48.5 119zM524 1309q0 -47 32.5 -80t78.5 -33q49 0 83 33t34 80q0 49 -33.5 82.5t-83.5 33.5
q-46 0 -78.5 -33.5t-32.5 -82.5z" />
    <glyph glyph-name="ae" unicode="&#xe6;" horiz-adv-x="2086" 
d="M109 479q0 135 66.5 249.5t181 181.5t249.5 67q140 0 257 -70t181 -188v237h62v-225q60 115 172 180.5t250 65.5q205 0 336 -136.5t131 -359.5v-26h-887q9 -186 128.5 -300t291.5 -114q113 0 206.5 51.5t151.5 143.5l53 -33q-65 -105 -173 -164t-238 -59q-138 0 -250 65
t-172 182v-227h-62v238q-64 -118 -181 -188t-257 -70q-101 0 -193 39.5t-158.5 106t-106 159t-39.5 194.5zM170 479q0 -181 128 -309.5t308 -128.5q177 0 304.5 122.5t133.5 297.5v18q0 180 -128.5 308t-309.5 128q-180 0 -308 -128t-128 -308zM1108 510h825
q-9 184 -121 294.5t-284 110.5t-291 -111t-129 -294z" />
    <glyph glyph-name="ccedilla" unicode="&#xe7;" horiz-adv-x="1024" 
d="M111 481q0 147 67.5 261t180.5 174.5t249 60.5q167 0 312 -103l-35 -49q-129 90 -277 90q-120 0 -219 -52.5t-158 -152.5t-59 -229q0 -195 126 -317.5t310 -122.5q154 0 277 90l37 -49q-136 -102 -314 -102h-4l51 -123q31 -73 3 -143t-101 -99q-69 -29 -136.5 -0.5
t-98.5 100.5q-17 46 -17 80h60q0 -29 12 -59v2q15 -36 44.5 -57t65.5 -21q29 0 48 8q36 15 56.5 45.5t20.5 67.5q0 26 -12 53l-63 152q-185 24 -305.5 158.5t-120.5 336.5z" />
    <glyph glyph-name="egrave" unicode="&#xe8;" horiz-adv-x="1150" 
d="M111 481q0 221 138 358.5t343 137.5t336 -136.5t131 -359.5v-26h-887q9 -186 128.5 -300t291.5 -114q113 0 206.5 51.5t151.5 143.5l54 -33q-65 -105 -173.5 -164t-238.5 -59q-205 0 -343 139t-138 362zM172 510h825q-9 184 -121 294.5t-284 110.5t-291 -111t-129 -294z
M385 1362h74l162 -260h-56z" />
    <glyph glyph-name="eacute" unicode="&#xe9;" horiz-adv-x="1150" 
d="M111 481q0 221 138 358.5t343 137.5t336 -136.5t131 -359.5v-26h-887q9 -186 128.5 -300t291.5 -114q113 0 206.5 51.5t151.5 143.5l54 -33q-65 -105 -173.5 -164t-238.5 -59q-205 0 -343 139t-138 362zM172 510h825q-9 184 -121 294.5t-284 110.5t-291 -111t-129 -294z
M541 1102l161 260h74l-180 -260h-55z" />
    <glyph glyph-name="ecircumflex" unicode="&#xea;" horiz-adv-x="1150" 
d="M111 481q0 221 138 358.5t343 137.5t336 -136.5t131 -359.5v-26h-887q9 -186 128.5 -300t291.5 -114q113 0 206.5 51.5t151.5 143.5l54 -33q-65 -105 -173.5 -164t-238.5 -59q-205 0 -343 139t-138 362zM172 510h825q-9 184 -121 294.5t-284 110.5t-291 -111t-129 -294z
M309 1102l226 260h98l225 -260h-61l-213 223l-213 -223h-62z" />
    <glyph glyph-name="edieresis" unicode="&#xeb;" horiz-adv-x="1150" 
d="M111 481q0 221 138 358.5t343 137.5t336 -136.5t131 -359.5v-26h-887q9 -186 128.5 -300t291.5 -114q113 0 206.5 51.5t151.5 143.5l54 -33q-65 -105 -173.5 -164t-238.5 -59q-205 0 -343 139t-138 362zM172 510h825q-9 184 -121 294.5t-284 110.5t-291 -111t-129 -294z
M362 1272q0 26 18.5 42.5t45.5 16.5q28 0 47 -16.5t19 -42.5q0 -25 -19 -41.5t-47 -16.5q-26 0 -45 16.5t-19 41.5zM676 1272q0 26 18 42.5t45 16.5q28 0 47 -16.5t19 -42.5q0 -25 -19 -41.5t-47 -16.5q-26 0 -44.5 16.5t-18.5 41.5z" />
    <glyph glyph-name="igrave" unicode="&#xec;" horiz-adv-x="419" 
d="M6 1362h74l162 -260h-56zM178 0v956h64v-956h-64z" />
    <glyph glyph-name="iacute" unicode="&#xed;" horiz-adv-x="419" 
d="M178 0v956h64v-956h-64zM178 1102l162 260h74l-181 -260h-55z" />
    <glyph glyph-name="icircumflex" unicode="&#xee;" horiz-adv-x="419" 
d="M-74 1102l226 260h98l225 -260h-61l-213 223l-213 -223h-62zM178 0v956h64v-956h-64z" />
    <glyph glyph-name="idieresis" unicode="&#xef;" horiz-adv-x="419" 
d="M-20 1272q0 26 18 42.5t45 16.5q28 0 47 -16.5t19 -42.5q0 -25 -19 -41.5t-47 -16.5q-26 0 -44.5 16.5t-18.5 41.5zM178 0v956h64v-956h-64zM293 1272q0 26 18 42.5t45 16.5q28 0 47 -16.5t19 -42.5q0 -25 -19 -41.5t-47 -16.5q-26 0 -44.5 16.5t-18.5 41.5z" />
    <glyph glyph-name="eth" unicode="&#xf0;" horiz-adv-x="1222" 
d="M109 481q0 111 39.5 205t106 157t154 98.5t183.5 35.5q131 0 223 -43l-285 350l-190 -123l-31 45l187 125l-148 189h76l125 -158l156 94l30 -41l-153 -96l436 -537q94 -121 94 -301q0 -148 -68.5 -264.5t-182.5 -178t-251 -61.5t-251 61.5t-182 177.5t-68 265zM172 481
q0 -129 60 -230.5t159.5 -155.5t218.5 -54t219 54t160 156t60 230q0 195 -127.5 314.5t-311.5 119.5t-311 -119.5t-127 -314.5z" />
    <glyph glyph-name="ntilde" unicode="&#xf1;" horiz-adv-x="1148" 
d="M178 0v956h62v-211q25 81 84 135t126.5 75.5t143.5 21.5q170 0 280.5 -112.5t110.5 -301.5v-563h-61v563q0 161 -93.5 256.5t-236.5 95.5q-70 0 -130.5 -20.5t-110.5 -62.5t-80 -115t-33 -170v-547h-62zM342 1155q3 74 46 109.5t91 35.5q25 0 48.5 -9t35.5 -17t35 -25
q53 -39 84 -39q27 0 51 22t25 68h61q-3 -74 -46 -109.5t-91 -35.5q-25 0 -47.5 7.5t-35.5 15.5t-34 24q-5 3 -20 14.5t-21.5 15.5t-19.5 8.5t-25 4.5q-27 0 -51 -22t-25 -68h-61z" />
    <glyph glyph-name="ograve" unicode="&#xf2;" horiz-adv-x="1216" 
d="M109 481q0 148 68 262t181 174t250 60t250 -60t181.5 -174.5t68.5 -261.5q0 -148 -68.5 -264t-182 -176.5t-249.5 -60.5q-102 0 -193.5 36t-159 100t-107 158.5t-39.5 206.5zM170 481q0 -197 126 -318.5t312 -121.5q185 0 312 122t127 318q0 129 -60 229.5t-159.5 152.5
t-219.5 52q-186 0 -312 -119.5t-126 -314.5zM414 1362h73l162 -260h-55z" />
    <glyph glyph-name="oacute" unicode="&#xf3;" horiz-adv-x="1216" 
d="M109 481q0 148 68 262t181 174t250 60t250 -60t181.5 -174.5t68.5 -261.5q0 -148 -68.5 -264t-182 -176.5t-249.5 -60.5q-102 0 -193.5 36t-159 100t-107 158.5t-39.5 206.5zM170 481q0 -197 126 -318.5t312 -121.5q185 0 312 122t127 318q0 129 -60 229.5t-159.5 152.5
t-219.5 52q-186 0 -312 -119.5t-126 -314.5zM561 1102l162 260h74l-181 -260h-55z" />
    <glyph glyph-name="ocircumflex" unicode="&#xf4;" horiz-adv-x="1216" 
d="M109 481q0 148 68 262t181 174t250 60t250 -60t181.5 -174.5t68.5 -261.5q0 -148 -68.5 -264t-182 -176.5t-249.5 -60.5q-102 0 -193.5 36t-159 100t-107 158.5t-39.5 206.5zM170 481q0 -197 126 -318.5t312 -121.5q185 0 312 122t127 318q0 129 -60 229.5t-159.5 152.5
t-219.5 52q-186 0 -312 -119.5t-126 -314.5zM334 1102l225 260h98l226 -260h-62l-213 223l-213 -223h-61z" />
    <glyph glyph-name="otilde" unicode="&#xf5;" horiz-adv-x="1216" 
d="M109 481q0 148 68 262t181 174t250 60t250 -60t181.5 -174.5t68.5 -261.5q0 -148 -68.5 -264t-182 -176.5t-249.5 -60.5q-102 0 -193.5 36t-159 100t-107 158.5t-39.5 206.5zM170 481q0 -197 126 -318.5t312 -121.5q185 0 312 122t127 318q0 129 -60 229.5t-159.5 152.5
t-219.5 52q-186 0 -312 -119.5t-126 -314.5zM369 1155q3 74 46 109.5t91 35.5q25 0 48.5 -9t35.5 -17t35 -25q53 -39 84 -39q27 0 50.5 22t24.5 68h62q-3 -74 -46 -109.5t-91 -35.5q-25 0 -47.5 7.5t-35.5 15.5t-34 24q-5 3 -20 14.5t-21.5 15.5t-19.5 8.5t-25 4.5
q-27 0 -51 -22t-25 -68h-61z" />
    <glyph glyph-name="odieresis" unicode="&#xf6;" horiz-adv-x="1216" 
d="M109 481q0 148 68 262t181 174t250 60t250 -60t181.5 -174.5t68.5 -261.5q0 -148 -68.5 -264t-182 -176.5t-249.5 -60.5q-102 0 -193.5 36t-159 100t-107 158.5t-39.5 206.5zM170 481q0 -197 126 -318.5t312 -121.5q185 0 312 122t127 318q0 129 -60 229.5t-159.5 152.5
t-219.5 52q-186 0 -312 -119.5t-126 -314.5zM387 1272q0 26 18.5 42.5t45.5 16.5q28 0 46.5 -16.5t18.5 -42.5q0 -25 -18.5 -41.5t-46.5 -16.5q-26 0 -45 16.5t-19 41.5zM700 1272q0 26 18.5 42.5t45.5 16.5q28 0 46.5 -16.5t18.5 -42.5q0 -25 -18.5 -41.5t-46.5 -16.5
q-26 0 -45 16.5t-19 41.5z" />
    <glyph glyph-name="divide" unicode="&#xf7;" horiz-adv-x="1173" 
d="M166 428v61h842v-61h-842zM522 96q0 26 18.5 43t45.5 17q28 0 46.5 -17t18.5 -43q0 -25 -18.5 -41t-46.5 -16q-27 0 -45.5 16.5t-18.5 40.5zM522 811q0 26 18.5 42.5t45.5 16.5q28 0 46.5 -16.5t18.5 -42.5q0 -25 -18.5 -41t-46.5 -16q-27 0 -45.5 16.5t-18.5 40.5z" />
    <glyph glyph-name="oslash" unicode="&#xf8;" horiz-adv-x="1216" 
d="M109 481q0 148 68 262t181 174t250 60q193 0 334 -119l121 123l43 -41l-121 -123q123 -136 123 -336q0 -148 -68.5 -264t-182 -176.5t-249.5 -60.5q-198 0 -336 120l-118 -120l-43 43l118 118q-120 136 -120 340zM170 481q0 -178 104 -295l623 629q-124 100 -289 100
q-186 0 -312 -119.5t-126 -314.5zM315 143q121 -102 293 -102q185 0 312 122t127 318q0 171 -107 291z" />
    <glyph glyph-name="ugrave" unicode="&#xf9;" horiz-adv-x="1148" 
d="M164 393v563h61v-563q0 -161 93.5 -256.5t236.5 -95.5q70 0 130.5 20.5t110.5 63t80 115.5t33 170v546h62v-956h-62v211q-25 -81 -84 -134.5t-126.5 -75t-143.5 -21.5q-170 0 -280.5 112t-110.5 301zM395 1362h74l162 -260h-56z" />
    <glyph glyph-name="uacute" unicode="&#xfa;" horiz-adv-x="1148" 
d="M164 393v563h61v-563q0 -161 93.5 -256.5t236.5 -95.5q70 0 130.5 20.5t110.5 63t80 115.5t33 170v546h62v-956h-62v211q-25 -81 -84 -134.5t-126.5 -75t-143.5 -21.5q-170 0 -280.5 112t-110.5 301zM496 1102l161 260h74l-180 -260h-55z" />
    <glyph glyph-name="ucircumflex" unicode="&#xfb;" horiz-adv-x="1148" 
d="M164 393v563h61v-563q0 -161 93.5 -256.5t236.5 -95.5q70 0 130.5 20.5t110.5 63t80 115.5t33 170v546h62v-956h-62v211q-25 -81 -84 -134.5t-126.5 -75t-143.5 -21.5q-170 0 -280.5 112t-110.5 301zM293 1102l225 260h98l226 -260h-62l-213 223l-213 -223h-61z" />
    <glyph glyph-name="udieresis" unicode="&#xfc;" horiz-adv-x="1148" 
d="M164 393v563h61v-563q0 -161 93.5 -256.5t236.5 -95.5q70 0 130.5 20.5t110.5 63t80 115.5t33 170v546h62v-956h-62v211q-25 -81 -84 -134.5t-126.5 -75t-143.5 -21.5q-170 0 -280.5 112t-110.5 301zM348 1272q0 26 18.5 42.5t45.5 16.5q28 0 46.5 -16.5t18.5 -42.5
q0 -25 -18.5 -41.5t-46.5 -16.5q-26 0 -45 16.5t-19 41.5zM662 1272q0 26 18 42.5t45 16.5q28 0 47 -16.5t19 -42.5q0 -25 -19 -41.5t-47 -16.5q-26 0 -44.5 16.5t-18.5 41.5z" />
    <glyph glyph-name="yacute" unicode="&#xfd;" horiz-adv-x="1019" 
d="M63 956h68l377 -893l383 893h67l-409 -956l-199 -463h-67l190 453zM430 1102l162 260h74l-181 -260h-55z" />
    <glyph glyph-name="thorn" unicode="&#xfe;" 
d="M178 -463v1983h62v-801q64 118 181 188t257 70q135 0 249.5 -67t181.5 -181.5t67 -249.5q0 -136 -67 -251t-181.5 -181.5t-249.5 -66.5q-140 0 -257 70t-181 188v-701h-62zM240 461q6 -175 133.5 -297.5t304.5 -122.5q180 0 308 128.5t128 309.5q0 180 -128 308t-308 128
q-181 0 -309.5 -128t-128.5 -308v-18z" />
    <glyph glyph-name="ydieresis" unicode="&#xff;" horiz-adv-x="1019" 
d="M63 956h68l377 -893l383 893h67l-409 -956l-199 -463h-67l190 453zM291 1272q0 26 18 42.5t45 16.5q28 0 47 -16.5t19 -42.5q0 -25 -19 -41.5t-47 -16.5q-26 0 -44.5 16.5t-18.5 41.5zM604 1272q0 26 18.5 42.5t45.5 16.5q28 0 46.5 -16.5t18.5 -42.5q0 -25 -18.5 -41.5
t-46.5 -16.5q-26 0 -45 16.5t-19 41.5z" />
    <glyph glyph-name="Amacron" unicode="&#x100;" horiz-adv-x="1265" 
d="M59 0l541 1411h66l538 -1411h-65l-150 393h-713l-151 -393h-66zM297 449h672l-336 876zM397 1688v55h467v-55h-467z" />
    <glyph glyph-name="amacron" unicode="&#x101;" 
d="M109 479q0 135 66.5 249.5t181 181.5t249.5 67q140 0 257 -70t181 -188v237h62v-956h-62v238q-64 -118 -181 -188t-257 -70q-101 0 -193 39.5t-158.5 106t-106 159t-39.5 194.5zM170 479q0 -181 128 -309.5t308 -128.5q177 0 304.5 122.5t133.5 297.5v18
q0 180 -128.5 308t-309.5 128q-180 0 -308 -128t-128 -308zM403 1233v55h467v-55h-467z" />
    <glyph glyph-name="Abreve" unicode="&#x102;" horiz-adv-x="1265" 
d="M59 0l541 1411h66l538 -1411h-65l-150 393h-713l-151 -393h-66zM297 449h672l-336 876zM408 1786h55q0 -63 42 -106.5t126 -43.5q77 0 123.5 41t46.5 109h55q0 -92 -62 -148.5t-163 -56.5q-111 0 -167 60t-56 145z" />
    <glyph glyph-name="abreve" unicode="&#x103;" 
d="M109 479q0 135 66.5 249.5t181 181.5t249.5 67q140 0 257 -70t181 -188v237h62v-956h-62v238q-64 -118 -181 -188t-257 -70q-101 0 -193 39.5t-158.5 106t-106 159t-39.5 194.5zM170 479q0 -181 128 -309.5t308 -128.5q177 0 304.5 122.5t133.5 297.5v18
q0 180 -128.5 308t-309.5 128q-180 0 -308 -128t-128 -308zM414 1331h55q0 -63 42 -106t126 -43q77 0 123.5 41t46.5 108h55q0 -92 -62 -148.5t-163 -56.5q-111 0 -167 60t-56 145z" />
    <glyph glyph-name="Aogonek" unicode="&#x104;" horiz-adv-x="1265" 
d="M59 0l541 1411h66l538 -1411l-69 -166q-13 -29 -13 -53q0 -37 21 -67.5t57 -45.5q19 -8 47 -8q36 0 66 21t45 57v-2q12 30 12 59h60q0 -34 -17 -80q-31 -72 -98.5 -100.5t-136.5 0.5q-73 29 -101.5 99t2.5 143l60 143l-150 393h-713l-151 -393h-66zM297 449h672l-336 876
z" />
    <glyph glyph-name="aogonek" unicode="&#x105;" 
d="M109 479q0 135 66.5 249.5t181 181.5t249.5 67q140 0 257 -70t181 -188v237h62v-956l-66 -166q-12 -36 -12 -53q0 -37 21 -67.5t57 -45.5q19 -8 47 -8q36 0 66 21t45 57v-2q12 30 12 59h59q0 -37 -16 -80q-31 -72 -99 -100.5t-137 0.5q-73 29 -101 99t3 143l59 143v238
q-64 -118 -181 -188t-257 -70q-101 0 -193 39.5t-158.5 106t-106 159t-39.5 194.5zM170 479q0 -181 128 -309.5t308 -128.5q177 0 304.5 122.5t133.5 297.5v18q0 180 -128.5 308t-309.5 128q-180 0 -308 -128t-128 -308z" />
    <glyph glyph-name="Cacute" unicode="&#x106;" horiz-adv-x="1345" 
d="M119 702q0 148 54 282t146.5 231t221.5 154.5t272 57.5q130 0 248 -46.5t211 -129.5l-41 -45q-181 160 -418 160q-130 0 -247.5 -52.5t-202 -141.5t-134 -212t-49.5 -258t49.5 -257t134 -210.5t202 -141t247.5 -52.5q237 0 416 158l41 -45q-92 -83 -209.5 -128.5
t-247.5 -45.5q-143 0 -272 57t-221.5 154t-146.5 230.5t-54 280.5zM735 1556l162 261h74l-180 -261h-56z" />
    <glyph glyph-name="cacute" unicode="&#x107;" horiz-adv-x="1021" 
d="M109 481q0 147 67.5 261t180.5 174.5t249 60.5q167 0 312 -103l-35 -49q-129 90 -277 90q-120 0 -219 -52.5t-158 -152.5t-59 -229q0 -195 126 -317.5t310 -122.5q154 0 277 90l37 -49q-136 -102 -314 -102q-102 0 -192.5 36t-158 100.5t-107 159t-39.5 205.5zM535 1102
l161 260h74l-180 -260h-55z" />
    <glyph glyph-name="Ccircumflex" unicode="&#x108;" horiz-adv-x="1345" 
d="M119 702q0 148 54 282t146.5 231t221.5 154.5t272 57.5q130 0 248 -46.5t211 -129.5l-41 -45q-181 160 -418 160q-130 0 -247.5 -52.5t-202 -141.5t-134 -212t-49.5 -258t49.5 -257t134 -210.5t202 -141t247.5 -52.5q237 0 416 158l41 -45q-92 -83 -209.5 -128.5
t-247.5 -45.5q-143 0 -272 57t-221.5 154t-146.5 230.5t-54 280.5zM512 1556l225 261h99l225 -261h-62l-213 224l-213 -224h-61z" />
    <glyph glyph-name="ccircumflex" unicode="&#x109;" horiz-adv-x="1021" 
d="M109 481q0 147 67.5 261t180.5 174.5t249 60.5q167 0 312 -103l-35 -49q-129 90 -277 90q-120 0 -219 -52.5t-158 -152.5t-59 -229q0 -195 126 -317.5t310 -122.5q154 0 277 90l37 -49q-136 -102 -314 -102q-102 0 -192.5 36t-158 100.5t-107 159t-39.5 205.5zM303 1102
l225 260h99l225 -260h-61l-213 223l-213 -223h-62z" />
    <glyph glyph-name="Cdotaccent" unicode="&#x10a;" horiz-adv-x="1345" 
d="M119 702q0 148 54 282t146.5 231t221.5 154.5t272 57.5q130 0 248 -46.5t211 -129.5l-41 -45q-181 160 -418 160q-130 0 -247.5 -52.5t-202 -141.5t-134 -212t-49.5 -258t49.5 -257t134 -210.5t202 -141t247.5 -52.5q237 0 416 158l41 -45q-92 -83 -209.5 -128.5
t-247.5 -45.5q-143 0 -272 57t-221.5 154t-146.5 230.5t-54 280.5zM723 1726q0 26 18 43t45 17q28 0 47 -17t19 -43q0 -25 -19 -41t-47 -16q-27 0 -45 16t-18 41z" />
    <glyph glyph-name="cdotaccent" unicode="&#x10b;" horiz-adv-x="1021" 
d="M109 481q0 147 67.5 261t180.5 174.5t249 60.5q167 0 312 -103l-35 -49q-129 90 -277 90q-120 0 -219 -52.5t-158 -152.5t-59 -229q0 -195 126 -317.5t310 -122.5q154 0 277 90l37 -49q-136 -102 -314 -102q-102 0 -192.5 36t-158 100.5t-107 159t-39.5 205.5zM532 1272
q0 26 18.5 42.5t45.5 16.5q28 0 47 -16.5t19 -42.5q0 -25 -19 -41.5t-47 -16.5q-26 0 -45 16.5t-19 41.5z" />
    <glyph glyph-name="Ccaron" unicode="&#x10c;" horiz-adv-x="1345" 
d="M119 702q0 148 54 282t146.5 231t221.5 154.5t272 57.5q130 0 248 -46.5t211 -129.5l-41 -45q-181 160 -418 160q-130 0 -247.5 -52.5t-202 -141.5t-134 -212t-49.5 -258t49.5 -257t134 -210.5t202 -141t247.5 -52.5q237 0 416 158l41 -45q-92 -83 -209.5 -128.5
t-247.5 -45.5q-143 0 -272 57t-221.5 154t-146.5 230.5t-54 280.5zM510 1817h61l213 -224l213 224h62l-225 -261h-99z" />
    <glyph glyph-name="ccaron" unicode="&#x10d;" horiz-adv-x="1021" 
d="M109 481q0 147 67.5 261t180.5 174.5t249 60.5q167 0 312 -103l-35 -49q-129 90 -277 90q-120 0 -219 -52.5t-158 -152.5t-59 -229q0 -195 126 -317.5t310 -122.5q154 0 277 90l37 -49q-136 -102 -314 -102q-102 0 -192.5 36t-158 100.5t-107 159t-39.5 205.5zM309 1362
h62l213 -223l213 223h61l-225 -260h-98z" />
    <glyph glyph-name="Dcaron" unicode="&#x10e;" horiz-adv-x="1482" 
d="M217 0v1411h520q145 0 263 -54.5t195.5 -150t119 -224.5t41.5 -280q0 -150 -41.5 -278t-119 -222.5t-195.5 -148t-263 -53.5h-520zM279 61h458q174 0 301.5 84.5t191.5 228.5t64 328q0 185 -64 330.5t-192 231.5t-301 86h-458v-1289zM432 1817h62l213 -224l213 224h61
l-225 -261h-99z" />
    <glyph glyph-name="dcaron" unicode="&#x10f;" 
d="M109 479q0 135 66.5 249.5t181 181.5t249.5 67q140 0 257 -70t181 -188v801h62v-1520h-62v238q-64 -118 -181 -188t-257 -70q-101 0 -193 39.5t-158.5 106t-106 159t-39.5 194.5zM170 479q0 -181 128 -309.5t308 -128.5q177 0 304.5 122.5t133.5 297.5v18
q0 180 -128.5 308t-309.5 128q-180 0 -308 -128t-128 -308zM1204 1165q41 68 65 153.5t15 156.5h78q-3 -216 -129 -318z" />
    <glyph glyph-name="Dcroat" unicode="&#x110;" horiz-adv-x="1486" 
d="M20 666v57h201v688h520q145 0 263 -54.5t195.5 -150t119 -224.5t41.5 -280q0 -150 -41.5 -278t-119 -222.5t-195.5 -148t-263 -53.5h-520v666h-201zM283 61h458q174 0 301.5 84.5t191.5 228.5t64 328q0 185 -64 330.5t-192 231.5t-301 86h-458v-627h395v-57h-395v-605z
" />
    <glyph glyph-name="dcroat" unicode="&#x111;" 
d="M109 479q0 135 66.5 249.5t181 181.5t249.5 67q140 0 257 -70t181 -188v495h-344v54h344v252h62v-252h192v-54h-192v-1214h-62v238q-64 -118 -181 -188t-257 -70q-101 0 -193 39.5t-158.5 106t-106 159t-39.5 194.5zM170 479q0 -181 128 -309.5t308 -128.5
q177 0 304.5 122.5t133.5 297.5v18q0 180 -128.5 308t-309.5 128q-180 0 -308 -128t-128 -308z" />
    <glyph glyph-name="Emacron" unicode="&#x112;" horiz-adv-x="1122" 
d="M217 0v1411h766v-61h-704v-627h616v-61h-616v-601h729v-61h-791zM350 1688v55h467v-55h-467z" />
    <glyph glyph-name="emacron" unicode="&#x113;" horiz-adv-x="1150" 
d="M111 481q0 221 138 358.5t343 137.5t336 -136.5t131 -359.5v-26h-887q9 -186 128.5 -300t291.5 -114q113 0 206.5 51.5t151.5 143.5l54 -33q-65 -105 -173.5 -164t-238.5 -59q-205 0 -343 139t-138 362zM172 510h825q-9 184 -121 294.5t-284 110.5t-291 -111t-129 -294z
M350 1233v55h467v-55h-467z" />
    <glyph glyph-name="Ebreve" unicode="&#x114;" horiz-adv-x="1122" 
d="M217 0v1411h766v-61h-704v-627h616v-61h-616v-601h729v-61h-791zM389 1786h55q0 -63 42 -106.5t126 -43.5q76 0 123 41t47 109h56q0 -92 -62.5 -148.5t-163.5 -56.5q-111 0 -167 60t-56 145z" />
    <glyph glyph-name="ebreve" unicode="&#x115;" horiz-adv-x="1150" 
d="M111 481q0 221 138 358.5t343 137.5t336 -136.5t131 -359.5v-26h-887q9 -186 128.5 -300t291.5 -114q113 0 206.5 51.5t151.5 143.5l54 -33q-65 -105 -173.5 -164t-238.5 -59q-205 0 -343 139t-138 362zM172 510h825q-9 184 -121 294.5t-284 110.5t-291 -111t-129 -294z
M360 1331h56q0 -63 42 -106t126 -43q77 0 123.5 41t46.5 108h55q0 -92 -62 -148.5t-163 -56.5q-111 0 -167.5 60t-56.5 145z" />
    <glyph glyph-name="Edotaccent" unicode="&#x116;" horiz-adv-x="1122" 
d="M217 0v1411h766v-61h-704v-627h616v-61h-616v-601h729v-61h-791zM543 1726q0 26 18 43t45 17q28 0 47 -17t19 -43q0 -25 -19 -41t-47 -16q-27 0 -45 16t-18 41z" />
    <glyph glyph-name="edotaccent" unicode="&#x117;" horiz-adv-x="1150" 
d="M111 481q0 221 138 358.5t343 137.5t336 -136.5t131 -359.5v-26h-887q9 -186 128.5 -300t291.5 -114q113 0 206.5 51.5t151.5 143.5l54 -33q-65 -105 -173.5 -164t-238.5 -59q-205 0 -343 139t-138 362zM172 510h825q-9 184 -121 294.5t-284 110.5t-291 -111t-129 -294z
M520 1272q0 26 18.5 42.5t45.5 16.5q28 0 46.5 -16.5t18.5 -42.5q0 -25 -18.5 -41.5t-46.5 -16.5q-26 0 -45 16.5t-19 41.5z" />
    <glyph glyph-name="Eogonek" unicode="&#x118;" horiz-adv-x="1122" 
d="M217 0v1411h766v-61h-704v-627h616v-61h-616v-601h729v-61l-70 -166q-12 -27 -12 -53q0 -37 21 -67.5t57 -45.5q19 -8 47 -8q36 0 65.5 21t44.5 57v-2q13 33 13 59h59q0 -37 -16 -80q-31 -72 -99 -100.5t-137 0.5q-73 29 -101 99t3 143l59 143h-725z" />
    <glyph glyph-name="eogonek" unicode="&#x119;" horiz-adv-x="1153" 
d="M111 481q0 221 138 358.5t343 137.5t336 -136.5t131 -359.5v-26h-887q9 -186 128.5 -300t291.5 -114q113 0 206.5 51.5t151.5 143.5l54 -33q-32 -43 -67 -77t-63 -56t-57 -50t-58 -74t-57 -112q-22 -51 -3 -98.5t69 -67.5q19 -8 47 -8q36 0 66 21t45 57v-2q12 30 12 59
h59q0 -37 -16 -80q-31 -72 -99 -100.5t-137 0.5q-72 29 -99 98.5t1 143.5q22 65 88 149q-25 -11 -68.5 -18.5t-74.5 -7.5q-205 0 -343 139t-138 362zM172 510h825q-9 184 -121 294.5t-284 110.5t-291 -111t-129 -294z" />
    <glyph glyph-name="Ecaron" unicode="&#x11a;" horiz-adv-x="1122" 
d="M217 0v1411h766v-61h-704v-627h616v-61h-616v-601h729v-61h-791zM311 1817h62l213 -224l213 224h61l-225 -261h-98z" />
    <glyph glyph-name="ecaron" unicode="&#x11b;" horiz-adv-x="1150" 
d="M111 481q0 221 138 358.5t343 137.5t336 -136.5t131 -359.5v-26h-887q9 -186 128.5 -300t291.5 -114q113 0 206.5 51.5t151.5 143.5l54 -33q-65 -105 -173.5 -164t-238.5 -59q-205 0 -343 139t-138 362zM172 510h825q-9 184 -121 294.5t-284 110.5t-291 -111t-129 -294z
M309 1362h62l213 -223l213 223h61l-225 -260h-98z" />
    <glyph glyph-name="Gcircumflex" unicode="&#x11c;" horiz-adv-x="1562" 
d="M119 702q0 148 55 282t149 231t225.5 154.5t278.5 57.5q228 0 416 -135l-37 -49q-168 123 -379 123q-179 0 -328 -89t-234 -241.5t-85 -333.5t85 -333.5t234 -241t328 -88.5q250 0 405 142t181 409h-446v61h512q-9 -333 -181.5 -503.5t-470.5 -170.5q-147 0 -278.5 57.5
t-225.5 154.5t-149 231t-55 282zM516 1556l225 261h99l225 -261h-61l-213 224l-213 -224h-62z" />
    <glyph glyph-name="gcircumflex" unicode="&#x11d;" 
d="M109 479q0 135 66.5 249.5t181 181.5t249.5 67q140 0 257 -70t181 -188v237h62v-819q0 -141 -25 -247.5t-68.5 -175.5t-109 -112.5t-141 -61t-170.5 -17.5q-115 0 -217.5 51t-173.5 152l51 34q62 -88 151.5 -132t188.5 -44q83 0 149.5 15.5t124.5 54.5t96 101t60 158
t22 224v101q-64 -118 -181 -188t-257 -70q-101 0 -193 39.5t-158.5 106t-106 159t-39.5 194.5zM170 479q0 -181 128 -309.5t308 -128.5q177 0 304.5 122.5t133.5 297.5v18q0 180 -128.5 308t-309.5 128q-180 0 -308 -128t-128 -308zM362 1102l226 260h98l225 -260h-61
l-213 223l-213 -223h-62z" />
    <glyph glyph-name="Gbreve" unicode="&#x11e;" horiz-adv-x="1562" 
d="M119 702q0 148 55 282t149 231t225.5 154.5t278.5 57.5q228 0 416 -135l-37 -49q-168 123 -379 123q-179 0 -328 -89t-234 -241.5t-85 -333.5t85 -333.5t234 -241t328 -88.5q250 0 405 142t181 409h-446v61h512q-9 -333 -181.5 -503.5t-470.5 -170.5q-147 0 -278.5 57.5
t-225.5 154.5t-149 231t-55 282zM598 1786h55q0 -63 42 -106.5t126 -43.5q77 0 123.5 41t46.5 109h56q0 -92 -62.5 -148.5t-163.5 -56.5q-111 0 -167 60t-56 145z" />
    <glyph glyph-name="gbreve" unicode="&#x11f;" 
d="M109 479q0 135 66.5 249.5t181 181.5t249.5 67q140 0 257 -70t181 -188v237h62v-819q0 -141 -25 -247.5t-68.5 -175.5t-109 -112.5t-141 -61t-170.5 -17.5q-115 0 -217.5 51t-173.5 152l51 34q62 -88 151.5 -132t188.5 -44q83 0 149.5 15.5t124.5 54.5t96 101t60 158
t22 224v101q-64 -118 -181 -188t-257 -70q-101 0 -193 39.5t-158.5 106t-106 159t-39.5 194.5zM170 479q0 -181 128 -309.5t308 -128.5q177 0 304.5 122.5t133.5 297.5v18q0 180 -128.5 308t-309.5 128q-180 0 -308 -128t-128 -308zM385 1331h55q0 -63 42 -106t126 -43
q77 0 123.5 41t46.5 108h56q0 -92 -62.5 -148.5t-163.5 -56.5q-111 0 -167 60t-56 145z" />
    <glyph glyph-name="Gdotaccent" unicode="&#x120;" horiz-adv-x="1562" 
d="M119 702q0 148 55 282t149 231t225.5 154.5t278.5 57.5q228 0 416 -135l-37 -49q-168 123 -379 123q-179 0 -328 -89t-234 -241.5t-85 -333.5t85 -333.5t234 -241t328 -88.5q250 0 405 142t181 409h-446v61h512q-9 -333 -181.5 -503.5t-470.5 -170.5q-147 0 -278.5 57.5
t-225.5 154.5t-149 231t-55 282zM756 1726q0 26 18 43t45 17q28 0 47 -17t19 -43q0 -25 -19 -41t-47 -16q-27 0 -45 16t-18 41z" />
    <glyph glyph-name="gdotaccent" unicode="&#x121;" 
d="M109 479q0 135 66.5 249.5t181 181.5t249.5 67q140 0 257 -70t181 -188v237h62v-819q0 -141 -25 -247.5t-68.5 -175.5t-109 -112.5t-141 -61t-170.5 -17.5q-115 0 -217.5 51t-173.5 152l51 34q62 -88 151.5 -132t188.5 -44q83 0 149.5 15.5t124.5 54.5t96 101t60 158
t22 224v101q-64 -118 -181 -188t-257 -70q-101 0 -193 39.5t-158.5 106t-106 159t-39.5 194.5zM170 479q0 -181 128 -309.5t308 -128.5q177 0 304.5 122.5t133.5 297.5v18q0 180 -128.5 308t-309.5 128q-180 0 -308 -128t-128 -308zM539 1272q0 26 18 42.5t45 16.5
q28 0 47 -16.5t19 -42.5q0 -25 -19 -41.5t-47 -16.5q-26 0 -44.5 16.5t-18.5 41.5z" />
    <glyph glyph-name="Gcommaaccent" unicode="&#x122;" horiz-adv-x="1562" 
d="M119 702q0 148 55 282t149 231t225.5 154.5t278.5 57.5q228 0 416 -135l-37 -49q-168 123 -379 123q-179 0 -328 -89t-234 -241.5t-85 -333.5t85 -333.5t234 -241t328 -88.5q250 0 405 142t181 409h-446v61h512q-9 -333 -181.5 -503.5t-470.5 -170.5q-147 0 -278.5 57.5
t-225.5 154.5t-149 231t-55 282zM659 -440q131 134 142 299h67q-23 -195 -153 -299h-56z" />
    <glyph glyph-name="gcommaaccent" unicode="&#x123;" 
d="M109 479q0 135 66.5 249.5t181 181.5t249.5 67q140 0 257 -70t181 -188v237h62v-819q0 -141 -25 -247.5t-68.5 -175.5t-109 -112.5t-141 -61t-170.5 -17.5q-115 0 -217.5 51t-173.5 152l51 34q62 -88 151.5 -132t188.5 -44q83 0 149.5 15.5t124.5 54.5t96 101t60 158
t22 224v101q-64 -118 -181 -188t-257 -70q-101 0 -193 39.5t-158.5 106t-106 159t-39.5 194.5zM170 479q0 -181 128 -309.5t308 -128.5q177 0 304.5 122.5t133.5 297.5v18q0 180 -128.5 308t-309.5 128q-180 0 -308 -128t-128 -308zM569 1135q-1 114 29 187.5t84 133.5
l31 -18q-87 -111 -84 -303h-60z" />
    <glyph glyph-name="Hcircumflex" unicode="&#x124;" horiz-adv-x="1458" 
d="M217 0v1411h62v-680h901v680h61v-1411h-61v674h-901v-674h-62zM455 1556l225 261h98l226 -261h-62l-213 224l-213 -224h-61z" />
    <glyph glyph-name="hcircumflex" unicode="&#x125;" horiz-adv-x="1150" 
d="M-66 1577l226 260h98l225 -260h-61l-213 223l-213 -223h-62zM178 0v1520h62v-775q25 81 84 135t126.5 75.5t143.5 21.5q170 0 280.5 -112.5t110.5 -301.5v-563h-61v563q0 161 -93.5 256.5t-236.5 95.5q-70 0 -130.5 -20.5t-110.5 -62.5t-80 -115t-33 -170v-547h-62z" />
    <glyph glyph-name="Hbar" unicode="&#x126;" horiz-adv-x="1486" 
d="M96 1077v53h135v281h62v-281h901v281h61v-281h156v-53h-156v-1077h-61v674h-901v-674h-62v1077h-135zM293 731h901v346h-901v-346z" />
    <glyph glyph-name="hbar" unicode="&#x127;" horiz-adv-x="1148" 
d="M-6 1214v54h184v252h62v-252h352v-54h-352v-469q25 81 84 135t126.5 75.5t143.5 21.5q170 0 280.5 -112.5t110.5 -301.5v-563h-61v563q0 161 -93.5 256.5t-236.5 95.5q-70 0 -130.5 -20.5t-110.5 -62.5t-80 -115t-33 -170v-547h-62v1214h-184z" />
    <glyph glyph-name="Itilde" unicode="&#x128;" horiz-adv-x="495" 
d="M10 1610q3 74 46 109.5t91 35.5q25 0 48.5 -9t35.5 -17t35 -25q53 -39 84 -39q27 0 51 22t25 68h61q-3 -74 -46 -109.5t-91 -35.5q-25 0 -47.5 7.5t-35.5 15.5t-34 24q-5 3 -20 14.5t-21.5 15.5t-19.5 8.5t-25 4.5q-27 0 -50.5 -22t-24.5 -68h-62zM217 0v1411h62v-1411
h-62z" />
    <glyph glyph-name="itilde" unicode="&#x129;" horiz-adv-x="419" 
d="M-37 1155q3 74 46 109.5t91 35.5q25 0 48.5 -9t35.5 -17t35 -25q53 -39 84 -39q27 0 51 22t25 68h61q-3 -74 -46 -109.5t-91 -35.5q-25 0 -47.5 7.5t-35.5 15.5t-34 24q-5 3 -20 14.5t-21.5 15.5t-19.5 8.5t-25 4.5q-27 0 -50.5 -22t-24.5 -68h-62zM178 0v956h64v-956
h-64z" />
    <glyph glyph-name="Imacron" unicode="&#x12a;" horiz-adv-x="495" 
d="M14 1688v55h467v-55h-467zM217 0v1411h62v-1411h-62z" />
    <glyph glyph-name="imacron" unicode="&#x12b;" horiz-adv-x="419" 
d="M-27 1233v55h467v-55h-467zM178 0v956h64v-956h-64z" />
    <glyph glyph-name="Ibreve" unicode="&#x12c;" horiz-adv-x="495" 
d="M25 1786h55q0 -63 42 -106.5t126 -43.5q76 0 123 41t47 109h55q0 -92 -62 -148.5t-163 -56.5q-111 0 -167 60t-56 145zM217 0v1411h62v-1411h-62z" />
    <glyph glyph-name="ibreve" unicode="&#x12d;" horiz-adv-x="419" 
d="M-23 1331h56q0 -63 42 -106t126 -43q77 0 123.5 41t46.5 108h55q0 -92 -62 -148.5t-163 -56.5q-111 0 -167.5 60t-56.5 145zM178 0v956h64v-956h-64z" />
    <glyph glyph-name="Iogonek" unicode="&#x12e;" horiz-adv-x="495" 
d="M158 -143l59 143v1411h62v-1411l-66 -166q-12 -27 -12 -53q0 -37 21 -67.5t57 -45.5q19 -8 47 -8q36 0 65.5 21t44.5 57v-2q13 32 13 59h59q0 -37 -16 -80q-31 -72 -99 -100.5t-137 0.5q-73 29 -101 99t3 143z" />
    <glyph glyph-name="iogonek" unicode="&#x12f;" horiz-adv-x="417" 
d="M119 -143l59 143v956h62v-956l-66 -166q-12 -36 -12 -53q0 -37 21 -67.5t57 -45.5q19 -8 47 -8q36 0 65.5 21t44.5 57v-2q13 32 13 59h59q0 -37 -16 -80q-31 -72 -99 -100.5t-137 0.5q-73 29 -101 99t3 143zM143 1309q0 26 18.5 42.5t45.5 16.5q28 0 46.5 -16.5
t18.5 -42.5q0 -25 -18.5 -41.5t-46.5 -16.5q-26 0 -45 16.5t-19 41.5z" />
    <glyph glyph-name="Idotaccent" unicode="&#x130;" horiz-adv-x="495" 
d="M184 1726q0 26 18.5 43t45.5 17q28 0 46.5 -17t18.5 -43q0 -25 -18.5 -41t-46.5 -16q-27 0 -45.5 16.5t-18.5 40.5zM217 0v1411h62v-1411h-62z" />
    <glyph glyph-name="dotlessi" unicode="&#x131;" horiz-adv-x="417" 
d="M178 0v956h62v-956h-62z" />
    <glyph glyph-name="IJ" unicode="&#x132;" horiz-adv-x="991" 
d="M217 0v1411h62v-1411h-62zM281 -471l8 61q47 -6 82 -6q91 0 158.5 29t106.5 81t58 117.5t19 145.5v1454h61v-1454q0 -93 -22 -169t-68 -136.5t-126 -94.5t-187 -34q-43 0 -90 6z" />
    <glyph glyph-name="ij" unicode="&#x133;" horiz-adv-x="835" 
d="M145 1309q0 26 18.5 42.5t45.5 16.5q28 0 46.5 -16.5t18.5 -42.5q0 -25 -18.5 -41.5t-46.5 -16.5q-26 0 -45 16.5t-19 41.5zM178 0v956h62v-956h-62zM268 -410h70q258 0 258 340v1026h61v-1026q0 -401 -319 -401h-70v61zM563 1309q0 26 18.5 42.5t45.5 16.5
q28 0 46.5 -16.5t18.5 -42.5q0 -25 -18.5 -41.5t-46.5 -16.5q-26 0 -45 16.5t-19 41.5z" />
    <glyph glyph-name="Jcircumflex" unicode="&#x134;" horiz-adv-x="495" 
d="M-215 -471l8 61q47 -6 82 -6q91 0 158.5 29t106.5 81t58 117.5t19 145.5v1454h62v-1454q0 -93 -22 -169t-68.5 -136.5t-126.5 -94.5t-187 -34q-43 0 -90 6zM-25 1556l226 261h98l225 -261h-61l-213 224l-213 -224h-62z" />
    <glyph glyph-name="jcircumflex" unicode="&#x135;" horiz-adv-x="417" 
d="M-150 -410h70q258 0 258 340v1026h62v-1026q0 -401 -320 -401h-70v61zM-78 1102l225 260h99l225 -260h-61l-213 223l-213 -223h-62z" />
    <glyph glyph-name="Kcommaaccent" unicode="&#x136;" horiz-adv-x="1060" 
d="M217 0v1411h62v-727l606 727h80l-627 -749l715 -662h-86l-688 635v-635h-62zM430 -440q130 133 141 299h68q-22 -194 -154 -299h-55z" />
    <glyph glyph-name="kcommaaccent" unicode="&#x137;" horiz-adv-x="886" 
d="M178 0v1520h62v-971l397 407h88l-412 -419l561 -537h-90l-544 520v-520h-62zM334 -440q130 133 141 299h68q-22 -194 -154 -299h-55z" />
    <glyph glyph-name="kgreenlandic" unicode="&#x138;" horiz-adv-x="815" 
d="M178 0v956h62v-489l407 489h80l-428 -512l479 -444h-86l-452 418v-418h-62z" />
    <glyph glyph-name="Lacute" unicode="&#x139;" horiz-adv-x="972" 
d="M217 0v1411h62v-1350h632v-61h-694zM221 1556l162 261h74l-181 -261h-55z" />
    <glyph glyph-name="lacute" unicode="&#x13a;" horiz-adv-x="417" 
d="M178 0v1520h62v-1520h-62zM184 1647l162 260h74l-180 -260h-56z" />
    <glyph glyph-name="Lcommaaccent" unicode="&#x13b;" horiz-adv-x="972" 
d="M217 0v1411h62v-1350h632v-61h-694zM391 -440q130 133 141 299h68q-22 -194 -154 -299h-55z" />
    <glyph glyph-name="lcommaaccent" unicode="&#x13c;" horiz-adv-x="417" 
d="M39 -440q130 133 141 299h68q-22 -194 -154 -299h-55zM178 0v1520h62v-1520h-62z" />
    <glyph glyph-name="Lcaron" unicode="&#x13d;" horiz-adv-x="972" 
d="M217 0v1411h62v-1350h632v-61h-694zM465 1108q87 111 84 303h59q1 -114 -28.5 -187.5t-83.5 -133.5z" />
    <glyph glyph-name="lcaron" unicode="&#x13e;" horiz-adv-x="417" 
d="M178 0v1520h62v-1520h-62zM338 1217q87 111 84 303h59q1 -114 -28.5 -188t-83.5 -134z" />
    <glyph glyph-name="Ldot" unicode="&#x13f;" horiz-adv-x="972" 
d="M217 0v1411h62v-1350h632v-61h-694zM502 528q0 31 23 51.5t57 20.5q32 0 54.5 -20.5t22.5 -51.5t-22 -51t-55 -20q-34 0 -57 20t-23 51z" />
    <glyph glyph-name="ldot" unicode="&#x140;" horiz-adv-x="555" 
d="M178 0v1520h62v-1520h-62zM408 528q0 31 22.5 51.5t56.5 20.5q32 0 55 -20.5t23 -51.5q0 -30 -22.5 -50.5t-55.5 -20.5q-34 0 -56.5 20t-22.5 51z" />
    <glyph glyph-name="Lslash" unicode="&#x141;" horiz-adv-x="987" 
d="M59 608v60l172 106v637h62v-598l227 143v-59l-227 -143v-693h633v-61h-695v715z" />
    <glyph glyph-name="lslash" unicode="&#x142;" horiz-adv-x="481" 
d="M20 608v60l175 108v744h61v-705l225 141v-59l-225 -141v-756h-61v717z" />
    <glyph glyph-name="Nacute" unicode="&#x143;" horiz-adv-x="1402" 
d="M217 0v1411h74l833 -1325v1325h62v-1411h-74l-833 1319v-1319h-62zM637 1556l162 261h73l-180 -261h-55z" />
    <glyph glyph-name="nacute" unicode="&#x144;" horiz-adv-x="1148" 
d="M178 0v956h62v-211q25 81 84 135t126.5 75.5t143.5 21.5q170 0 280.5 -112.5t110.5 -301.5v-563h-61v563q0 161 -93.5 256.5t-236.5 95.5q-70 0 -130.5 -20.5t-110.5 -62.5t-80 -115t-33 -170v-547h-62zM545 1102l162 260h73l-180 -260h-55z" />
    <glyph glyph-name="Ncommaaccent" unicode="&#x145;" horiz-adv-x="1402" 
d="M217 0v1411h74l833 -1325v1325h62v-1411h-74l-833 1319v-1319h-62zM535 -440q130 133 141 299h67q-23 -195 -153 -299h-55z" />
    <glyph glyph-name="ncommaaccent" unicode="&#x146;" horiz-adv-x="1148" 
d="M178 0v956h62v-211q25 81 84 135t126.5 75.5t143.5 21.5q170 0 280.5 -112.5t110.5 -301.5v-563h-61v563q0 161 -93.5 256.5t-236.5 95.5q-70 0 -130.5 -20.5t-110.5 -62.5t-80 -115t-33 -170v-547h-62zM428 -440q130 133 141 299h68q-22 -194 -154 -299h-55z" />
    <glyph glyph-name="Ncaron" unicode="&#x147;" horiz-adv-x="1402" 
d="M217 0v1411h74l833 -1325v1325h62v-1411h-74l-833 1319v-1319h-62zM426 1817h61l213 -224l213 224h62l-225 -261h-99z" />
    <glyph glyph-name="ncaron" unicode="&#x148;" horiz-adv-x="1148" 
d="M178 0v956h62v-211q25 81 84 135t126.5 75.5t143.5 21.5q170 0 280.5 -112.5t110.5 -301.5v-563h-61v563q0 161 -93.5 256.5t-236.5 95.5q-70 0 -130.5 -20.5t-110.5 -62.5t-80 -115t-33 -170v-547h-62zM307 1362h62l213 -223l213 223h61l-225 -260h-99z" />
    <glyph glyph-name="napostrophe" unicode="&#x149;" horiz-adv-x="1148" 
d="M25 1071q91 150 77 291h62q0 -175 -111 -299zM178 0v956h62v-211q25 81 84 135t126.5 75.5t143.5 21.5q170 0 280.5 -112.5t110.5 -301.5v-563h-61v563q0 161 -93.5 256.5t-236.5 95.5q-70 0 -130.5 -20.5t-110.5 -62.5t-80 -115t-33 -170v-547h-62z" />
    <glyph glyph-name="Eng" unicode="&#x14a;" horiz-adv-x="1402" 
d="M217 0v1411h74l833 -1311v1311h62v-1454q0 -93 -22 -169t-68.5 -136.5t-126.5 -94.5t-187 -34q-44 0 -90 6l8 61q46 -6 82 -6q91 0 158.5 29t106.5 81t58 117.5t19 145.5v43l-845 1319v-1319h-62z" />
    <glyph glyph-name="eng" unicode="&#x14b;" horiz-adv-x="1148" 
d="M178 0v956h62v-211q25 81 84 135t126.5 75.5t143.5 21.5q170 0 280.5 -112.5t110.5 -301.5v-606q0 -93 -22 -169t-68 -136.5t-126 -94.5t-187 -34q-44 0 -90 6l8 61q46 -6 82 -6q91 0 158.5 29t106.5 81t58 117.5t19 145.5v606q0 161 -93.5 256.5t-236.5 95.5
q-70 0 -130.5 -20.5t-110.5 -62.5t-80 -115t-33 -170v-547h-62z" />
    <glyph glyph-name="Omacron" unicode="&#x14c;" horiz-adv-x="1656" 
d="M119 702q0 198 93.5 364.5t256.5 263.5t358 97q196 0 359.5 -97t257.5 -263.5t94 -364.5q0 -147 -55.5 -280.5t-150 -230.5t-226.5 -154t-279 -57q-146 0 -277.5 57t-225.5 154t-149.5 230.5t-55.5 280.5zM180 702q0 -135 50.5 -257t136.5 -210.5t206.5 -141t253.5 -52.5
q134 0 255 52.5t207.5 141t137 210.5t50.5 257q0 181 -85.5 333.5t-235.5 241.5t-329 89q-178 0 -327 -89t-234.5 -241.5t-85.5 -333.5zM602 1690v55h467v-55h-467z" />
    <glyph glyph-name="omacron" unicode="&#x14d;" horiz-adv-x="1216" 
d="M109 481q0 148 68 262t181 174t250 60t250 -60t181.5 -174.5t68.5 -261.5q0 -148 -68.5 -264t-182 -176.5t-249.5 -60.5q-102 0 -193.5 36t-159 100t-107 158.5t-39.5 206.5zM170 481q0 -197 126 -318.5t312 -121.5q185 0 312 122t127 318q0 129 -60 229.5t-159.5 152.5
t-219.5 52q-186 0 -312 -119.5t-126 -314.5zM375 1233v55h467v-55h-467z" />
    <glyph glyph-name="Obreve" unicode="&#x14e;" horiz-adv-x="1656" 
d="M119 702q0 198 93.5 364.5t256.5 263.5t358 97q196 0 359.5 -97t257.5 -263.5t94 -364.5q0 -147 -55.5 -280.5t-150 -230.5t-226.5 -154t-279 -57q-146 0 -277.5 57t-225.5 154t-149.5 230.5t-55.5 280.5zM180 702q0 -135 50.5 -257t136.5 -210.5t206.5 -141t253.5 -52.5
q134 0 255 52.5t207.5 141t137 210.5t50.5 257q0 181 -85.5 333.5t-235.5 241.5t-329 89q-178 0 -327 -89t-234.5 -241.5t-85.5 -333.5zM612 1788h56q0 -63 42 -106.5t126 -43.5q76 0 123 41t47 109h55q0 -92 -62 -148.5t-163 -56.5q-111 0 -167.5 60t-56.5 145z" />
    <glyph glyph-name="obreve" unicode="&#x14f;" horiz-adv-x="1216" 
d="M109 481q0 148 68 262t181 174t250 60t250 -60t181.5 -174.5t68.5 -261.5q0 -148 -68.5 -264t-182 -176.5t-249.5 -60.5q-102 0 -193.5 36t-159 100t-107 158.5t-39.5 206.5zM170 481q0 -197 126 -318.5t312 -121.5q185 0 312 122t127 318q0 129 -60 229.5t-159.5 152.5
t-219.5 52q-186 0 -312 -119.5t-126 -314.5zM383 1331h55q0 -63 42 -106t126 -43q77 0 123.5 41t46.5 108h55q0 -92 -62 -148.5t-163 -56.5q-111 0 -167 60t-56 145z" />
    <glyph glyph-name="Ohungarumlaut" unicode="&#x150;" horiz-adv-x="1656" 
d="M119 702q0 198 93.5 364.5t256.5 263.5t358 97q196 0 359.5 -97t257.5 -263.5t94 -364.5q0 -147 -55.5 -280.5t-150 -230.5t-226.5 -154t-279 -57q-146 0 -277.5 57t-225.5 154t-149.5 230.5t-55.5 280.5zM180 702q0 -135 50.5 -257t136.5 -210.5t206.5 -141t253.5 -52.5
q134 0 255 52.5t207.5 141t137 210.5t50.5 257q0 181 -85.5 333.5t-235.5 241.5t-329 89q-178 0 -327 -89t-234.5 -241.5t-85.5 -333.5zM674 1559l162 260h73l-180 -260h-55zM899 1559l162 260h74l-181 -260h-55z" />
    <glyph glyph-name="ohungarumlaut" unicode="&#x151;" horiz-adv-x="1216" 
d="M109 481q0 148 68 262t181 174t250 60t250 -60t181.5 -174.5t68.5 -261.5q0 -148 -68.5 -264t-182 -176.5t-249.5 -60.5q-102 0 -193.5 36t-159 100t-107 158.5t-39.5 206.5zM170 481q0 -197 126 -318.5t312 -121.5q185 0 312 122t127 318q0 129 -60 229.5t-159.5 152.5
t-219.5 52q-186 0 -312 -119.5t-126 -314.5zM453 1102l161 260h74l-180 -260h-55zM678 1102l162 260h73l-180 -260h-55z" />
    <glyph glyph-name="OE" unicode="&#x152;" horiz-adv-x="2383" 
d="M119 702q0 198 93.5 364.5t256.5 263.5t358 97q218 0 393.5 -119t258.5 -313v416h766v-61h-705v-627h617v-61h-617v-601h729v-61h-790v410q-83 -194 -258.5 -312t-393.5 -118q-146 0 -277.5 57t-225.5 154t-149.5 230.5t-55.5 280.5zM180 702q0 -135 50.5 -257
t136.5 -210.5t206.5 -141t253.5 -52.5q134 0 255 52.5t207.5 141t137 210.5t50.5 257q0 181 -85.5 333.5t-235.5 241.5t-329 89q-178 0 -327 -89t-234.5 -241.5t-85.5 -333.5z" />
    <glyph glyph-name="oe" unicode="&#x153;" horiz-adv-x="2086" 
d="M109 481q0 148 68 262t181 174t250 60q160 0 287 -83.5t180 -229.5q51 145 173 229t280 84q205 0 336 -136.5t131 -359.5v-26h-887q9 -186 128.5 -300t291.5 -114q113 0 206.5 51.5t151.5 143.5l53 -33q-65 -105 -173 -164t-238 -59q-157 0 -279.5 84.5t-173.5 230.5
q-53 -146 -180 -230.5t-287 -84.5q-102 0 -193.5 36t-159 100t-107 158.5t-39.5 206.5zM170 481q0 -197 126 -318.5t312 -121.5q117 0 214.5 51t158.5 147.5t66 221.5v20v19q-5 125 -66 220.5t-158.5 145t-214.5 49.5q-186 0 -312 -119.5t-126 -314.5zM1108 510h825
q-9 184 -121 294.5t-284 110.5t-291 -111t-129 -294z" />
    <glyph glyph-name="Racute" unicode="&#x154;" horiz-adv-x="1230" 
d="M217 0v1411h516q100 0 175.5 -35t119 -94.5t65 -132t21.5 -154.5q0 -83 -21.5 -154.5t-66 -130.5t-122 -93.5t-181.5 -34.5h-55l411 -582h-73l-414 582h-313v-582h-62zM279 643h444q87 0 153 29t103.5 80t55.5 111.5t18 131.5q0 70 -18 131.5t-55 113t-100.5 81
t-146.5 29.5h-454v-707zM561 1556l162 261h74l-181 -261h-55z" />
    <glyph glyph-name="racute" unicode="&#x155;" horiz-adv-x="745" 
d="M178 0v956h62v-270q33 126 122 208.5t220 82.5q72 0 133 -19l-19 -59q-51 16 -114 16q-81 0 -143 -36.5t-98 -91.5t-59.5 -130.5t-32 -142t-9.5 -137.5v-377h-62zM178 1102l162 260h74l-181 -260h-55z" />
    <glyph glyph-name="Rcommaaccent" unicode="&#x156;" horiz-adv-x="1230" 
d="M217 0v1411h516q100 0 175.5 -35t119 -94.5t65 -132t21.5 -154.5q0 -83 -21.5 -154.5t-66 -130.5t-122 -93.5t-181.5 -34.5h-55l411 -582h-73l-414 582h-313v-582h-62zM279 643h444q87 0 153 29t103.5 80t55.5 111.5t18 131.5q0 70 -18 131.5t-55 113t-100.5 81
t-146.5 29.5h-454v-707zM438 -440q131 134 142 299h67q-23 -195 -153 -299h-56z" />
    <glyph glyph-name="rcommaaccent" unicode="&#x157;" horiz-adv-x="745" 
d="M37 -440q130 133 141 299h68q-22 -194 -154 -299h-55zM178 0v956h62v-270q33 126 122 208.5t220 82.5q72 0 133 -19l-19 -59q-51 16 -114 16q-81 0 -143 -36.5t-98 -91.5t-59.5 -130.5t-32 -142t-9.5 -137.5v-377h-62z" />
    <glyph glyph-name="Rcaron" unicode="&#x158;" horiz-adv-x="1230" 
d="M217 0v1411h516q100 0 175.5 -35t119 -94.5t65 -132t21.5 -154.5q0 -83 -21.5 -154.5t-66 -130.5t-122 -93.5t-181.5 -34.5h-55l411 -582h-73l-414 582h-313v-582h-62zM279 643h444q87 0 153 29t103.5 80t55.5 111.5t18 131.5q0 70 -18 131.5t-55 113t-100.5 81
t-146.5 29.5h-454v-707zM346 1817h62l213 -224l213 224h61l-225 -261h-99z" />
    <glyph glyph-name="rcaron" unicode="&#x159;" horiz-adv-x="745" 
d="M129 1362h61l213 -223l213 223h62l-225 -260h-99zM178 0v956h62v-270q33 126 122 208.5t220 82.5q72 0 133 -19l-19 -59q-51 16 -114 16q-81 0 -143 -36.5t-98 -91.5t-59.5 -130.5t-32 -142t-9.5 -137.5v-377h-62z" />
    <glyph glyph-name="Sacute" unicode="&#x15a;" horiz-adv-x="1144" 
d="M123 340h61q20 -122 124 -210.5t255 -88.5q89 0 164 24.5t124 65t79 88.5t41 100q12 77 -8.5 140t-67.5 106t-107 71.5t-135 45.5l-200 47q-320 69 -320 334q0 105 62 189.5t159.5 129.5t206.5 45q173 0 292 -93.5t132 -250.5h-61q-13 129 -114.5 206t-248.5 77
q-94 0 -177 -37.5t-136 -108t-53 -157.5q0 -215 270 -275l201 -47q87 -19 156.5 -53t123 -85t76.5 -127t8 -169q-12 -61 -47 -117.5t-91 -104t-141.5 -76.5t-187.5 -29q-91 0 -170.5 30.5t-134.5 81.5t-90.5 115t-44.5 133zM520 1556l162 261h74l-181 -261h-55z" />
    <glyph glyph-name="sacute" unicode="&#x15b;" horiz-adv-x="858" 
d="M92 223h62q67 -182 276 -182q121 0 192.5 57t71.5 150q0 148 -184 196l-143 33q-39 9 -69.5 20.5t-65.5 34.5t-56.5 52.5t-33.5 76.5t-5 105q12 95 96 153t199 58q120 0 200.5 -64t90.5 -170h-64q-10 78 -72.5 125t-154.5 47q-91 0 -157.5 -43t-75.5 -112
q-21 -176 182 -223l141 -33q122 -31 178 -98t56 -158q0 -121 -89 -194.5t-237 -73.5q-124 0 -219 63t-119 180zM381 1102l162 260h73l-180 -260h-55z" />
    <glyph glyph-name="Scircumflex" unicode="&#x15c;" horiz-adv-x="1144" 
d="M123 340h61q20 -122 124 -210.5t255 -88.5q89 0 164 24.5t124 65t79 88.5t41 100q12 77 -8.5 140t-67.5 106t-107 71.5t-135 45.5l-200 47q-320 69 -320 334q0 105 62 189.5t159.5 129.5t206.5 45q173 0 292 -93.5t132 -250.5h-61q-13 129 -114.5 206t-248.5 77
q-94 0 -177 -37.5t-136 -108t-53 -157.5q0 -215 270 -275l201 -47q87 -19 156.5 -53t123 -85t76.5 -127t8 -169q-12 -61 -47 -117.5t-91 -104t-141.5 -76.5t-187.5 -29q-91 0 -170.5 30.5t-134.5 81.5t-90.5 115t-44.5 133zM305 1556l225 261h99l225 -261h-61l-213 224
l-213 -224h-62z" />
    <glyph glyph-name="scircumflex" unicode="&#x15d;" horiz-adv-x="858" 
d="M92 223h62q67 -182 276 -182q121 0 192.5 57t71.5 150q0 148 -184 196l-143 33q-39 9 -69.5 20.5t-65.5 34.5t-56.5 52.5t-33.5 76.5t-5 105q12 95 96 153t199 58q120 0 200.5 -64t90.5 -170h-64q-10 78 -72.5 125t-154.5 47q-91 0 -157.5 -43t-75.5 -112
q-21 -176 182 -223l141 -33q122 -31 178 -98t56 -158q0 -121 -89 -194.5t-237 -73.5q-124 0 -219 63t-119 180zM150 1102l225 260h98l225 -260h-61l-213 223l-213 -223h-61z" />
    <glyph glyph-name="Scedilla" unicode="&#x15e;" horiz-adv-x="1144" 
d="M123 340h61q20 -122 124 -210.5t255 -88.5q89 0 164 24.5t124 65t79 88.5t41 100q12 77 -8.5 140t-67.5 106t-107 71.5t-135 45.5l-200 47q-320 69 -320 334q0 105 62 189.5t159.5 129.5t206.5 45q173 0 292 -93.5t132 -250.5h-61q-13 129 -114.5 206t-248.5 77
q-94 0 -177 -37.5t-136 -108t-53 -157.5q0 -215 270 -275l201 -47q87 -19 156.5 -53t123 -85t76.5 -127t8 -169q-11 -56 -42.5 -109t-81 -99t-124.5 -77t-164 -38l54 -127q31 -73 2.5 -143t-101.5 -99q-69 -29 -136.5 -0.5t-98.5 100.5q-16 43 -16 80h59q0 -29 12 -59v2
q15 -36 45 -57t66 -21q28 0 47 8q36 15 57 45.5t21 67.5q0 24 -13 53l-61 146q-176 3 -294 109.5t-138 250.5z" />
    <glyph glyph-name="scedilla" unicode="&#x15f;" horiz-adv-x="862" 
d="M94 223h62q67 -182 276 -182q121 0 192.5 57t71.5 150q0 148 -184 196l-143 33q-39 9 -69.5 20.5t-65.5 34.5t-56.5 52.5t-33.5 76.5t-5 105q12 95 96 153t199 58q120 0 200.5 -64t90.5 -170h-63q-10 78 -73 125t-155 47q-91 0 -157.5 -43t-75.5 -112q-21 -176 182 -223
l141 -33q122 -31 178 -98t56 -158q0 -110 -75 -182t-204 -84l53 -125q31 -73 3 -143t-101 -99q-69 -29 -136.5 -0.5t-98.5 100.5q-17 46 -17 80h60q0 -29 12 -59v2q15 -36 45 -57t66 -21q28 0 47 8q36 15 56.5 45.5t20.5 67.5q0 26 -12 53l-61 146q-120 5 -210 67.5
t-112 175.5z" />
    <glyph glyph-name="Scaron" unicode="&#x160;" horiz-adv-x="1144" 
d="M123 340h61q20 -122 124 -210.5t255 -88.5q89 0 164 24.5t124 65t79 88.5t41 100q12 77 -8.5 140t-67.5 106t-107 71.5t-135 45.5l-200 47q-320 69 -320 334q0 105 62 189.5t159.5 129.5t206.5 45q173 0 292 -93.5t132 -250.5h-61q-13 129 -114.5 206t-248.5 77
q-94 0 -177 -37.5t-136 -108t-53 -157.5q0 -215 270 -275l201 -47q87 -19 156.5 -53t123 -85t76.5 -127t8 -169q-12 -61 -47 -117.5t-91 -104t-141.5 -76.5t-187.5 -29q-91 0 -170.5 30.5t-134.5 81.5t-90.5 115t-44.5 133zM305 1817h62l213 -224l213 224h61l-225 -261h-99z
" />
    <glyph glyph-name="scaron" unicode="&#x161;" horiz-adv-x="858" 
d="M92 223h62q67 -182 276 -182q121 0 192.5 57t71.5 150q0 148 -184 196l-143 33q-39 9 -69.5 20.5t-65.5 34.5t-56.5 52.5t-33.5 76.5t-5 105q12 95 96 153t199 58q120 0 200.5 -64t90.5 -170h-64q-10 78 -72.5 125t-154.5 47q-91 0 -157.5 -43t-75.5 -112
q-21 -176 182 -223l141 -33q122 -31 178 -98t56 -158q0 -121 -89 -194.5t-237 -73.5q-124 0 -219 63t-119 180zM150 1362h61l213 -223l213 223h61l-225 -260h-98z" />
    <glyph glyph-name="Tcommaaccent" unicode="&#x162;" horiz-adv-x="1128" 
d="M55 1350v61h1018v-61h-479v-1350h-62v1350h-477zM393 -440q131 134 142 299h67q-23 -195 -153 -299h-56z" />
    <glyph glyph-name="tcommaaccent" unicode="&#x163;" horiz-adv-x="583" 
d="M57 901v55h174v406h62v-406h237v-55h-237v-901h-62v901h-174zM92 -440q130 133 141 299h68q-22 -194 -154 -299h-55z" />
    <glyph glyph-name="Tcaron" unicode="&#x164;" horiz-adv-x="1128" 
d="M55 1350v61h1018v-61h-479v-1350h-62v1350h-477zM289 1817h61l213 -224l213 224h62l-226 -261h-98z" />
    <glyph glyph-name="tcaron" unicode="&#x165;" horiz-adv-x="583" 
d="M57 901v55h174v406h62v-406h237v-55h-237v-901h-62v901h-174zM416 1059q87 111 84 303h59q1 -114 -29 -188t-84 -134z" />
    <glyph glyph-name="Tbar" unicode="&#x166;" horiz-adv-x="1128" 
d="M55 1350v61h1018v-61h-479v-545h256v-62h-256v-743h-62v743h-258v62h258v545h-477z" />
    <glyph glyph-name="tbar" unicode="&#x167;" horiz-adv-x="589" 
d="M61 901v55h175v406h61v-406h238v-55h-238v-360h152v-56h-152v-485h-61v485h-132v56h132v360h-175z" />
    <glyph glyph-name="Utilde" unicode="&#x168;" horiz-adv-x="1380" 
d="M203 463v948h61v-948q0 -188 123.5 -306t302.5 -118t302.5 118t123.5 306v948h62v-948q0 -143 -66.5 -255t-177.5 -171.5t-244 -59.5t-243.5 59.5t-177 171.5t-66.5 255zM451 1610q3 74 46 109.5t91 35.5q25 0 48.5 -9t35.5 -17t35 -25q53 -39 84 -39q27 0 50.5 22
t24.5 68h62q-3 -74 -46 -109.5t-91 -35.5q-25 0 -47.5 7.5t-35.5 15.5t-34 24q-5 3 -20 14.5t-21.5 15.5t-19.5 8.5t-25 4.5q-27 0 -51 -22t-25 -68h-61z" />
    <glyph glyph-name="utilde" unicode="&#x169;" horiz-adv-x="1148" 
d="M164 393v563h61v-563q0 -161 93.5 -256.5t236.5 -95.5q70 0 130.5 20.5t110.5 63t80 115.5t33 170v546h62v-956h-62v211q-25 -81 -84 -134.5t-126.5 -75t-143.5 -21.5q-170 0 -280.5 112t-110.5 301zM348 1155q3 74 46 109.5t91 35.5q25 0 48.5 -9t35.5 -17t35 -25
q53 -39 84 -39q27 0 51 22t25 68h61q-3 -74 -46 -109.5t-91 -35.5q-25 0 -47.5 7.5t-35.5 15.5t-34 24q-5 3 -20 14.5t-21.5 15.5t-19.5 8.5t-25 4.5q-27 0 -50.5 -22t-24.5 -68h-62z" />
    <glyph glyph-name="Umacron" unicode="&#x16a;" horiz-adv-x="1380" 
d="M203 463v948h61v-948q0 -188 123.5 -306t302.5 -118t302.5 118t123.5 306v948h62v-948q0 -143 -66.5 -255t-177.5 -171.5t-244 -59.5t-243.5 59.5t-177 171.5t-66.5 255zM457 1688v55h467v-55h-467z" />
    <glyph glyph-name="umacron" unicode="&#x16b;" horiz-adv-x="1148" 
d="M164 393v563h61v-563q0 -161 93.5 -256.5t236.5 -95.5q70 0 130.5 20.5t110.5 63t80 115.5t33 170v546h62v-956h-62v211q-25 -81 -84 -134.5t-126.5 -75t-143.5 -21.5q-170 0 -280.5 112t-110.5 301zM354 1233v55h467v-55h-467z" />
    <glyph glyph-name="Ubreve" unicode="&#x16c;" horiz-adv-x="1380" 
d="M203 463v948h61v-948q0 -188 123.5 -306t302.5 -118t302.5 118t123.5 306v948h62v-948q0 -143 -66.5 -255t-177.5 -171.5t-244 -59.5t-243.5 59.5t-177 171.5t-66.5 255zM465 1786h55q0 -63 42 -106.5t126 -43.5q76 0 123 41t47 109h55q0 -92 -62 -148.5t-163 -56.5
q-111 0 -167 60t-56 145z" />
    <glyph glyph-name="ubreve" unicode="&#x16d;" horiz-adv-x="1148" 
d="M164 393v563h61v-563q0 -161 93.5 -256.5t236.5 -95.5q70 0 130.5 20.5t110.5 63t80 115.5t33 170v546h62v-956h-62v211q-25 -81 -84 -134.5t-126.5 -75t-143.5 -21.5q-170 0 -280.5 112t-110.5 301zM332 1331h55q0 -63 42 -106t126 -43q77 0 123.5 41t46.5 108h55
q0 -92 -62 -148.5t-163 -56.5q-111 0 -167 60t-56 145z" />
    <glyph glyph-name="Uring" unicode="&#x16e;" horiz-adv-x="1380" 
d="M203 463v948h61v-948q0 -188 123.5 -306t302.5 -118t302.5 118t123.5 306v948h62v-948q0 -143 -66.5 -255t-177.5 -171.5t-244 -59.5t-243.5 59.5t-177 171.5t-66.5 255zM520 1763q0 71 48.5 121.5t117.5 50.5q72 0 122 -50.5t50 -121.5q0 -70 -50 -119t-122 -49
q-69 0 -117.5 49t-48.5 119zM575 1763q0 -47 32.5 -79.5t78.5 -32.5q49 0 83 32.5t34 79.5q0 49 -33.5 83t-83.5 34q-46 0 -78.5 -34t-32.5 -83z" />
    <glyph glyph-name="uring" unicode="&#x16f;" horiz-adv-x="1148" 
d="M164 393v563h61v-563q0 -161 93.5 -256.5t236.5 -95.5q70 0 130.5 20.5t110.5 63t80 115.5t33 170v546h62v-956h-62v211q-25 -81 -84 -134.5t-126.5 -75t-143.5 -21.5q-170 0 -280.5 112t-110.5 301zM391 1309q0 71 48.5 121.5t117.5 50.5q72 0 122 -50.5t50 -121.5
q0 -70 -50 -119t-122 -49q-69 0 -117.5 49t-48.5 119zM446 1309q0 -47 32.5 -80t78.5 -33q49 0 83 33t34 80q0 49 -33.5 82.5t-83.5 33.5q-46 0 -78.5 -33.5t-32.5 -82.5z" />
    <glyph glyph-name="Uhungarumlaut" unicode="&#x170;" horiz-adv-x="1380" 
d="M203 463v948h61v-948q0 -188 123.5 -306t302.5 -118t302.5 118t123.5 306v948h62v-948q0 -143 -66.5 -255t-177.5 -171.5t-244 -59.5t-243.5 59.5t-177 171.5t-66.5 255zM514 1556l162 261h74l-181 -261h-55zM739 1556l162 261h74l-180 -261h-56z" />
    <glyph glyph-name="uhungarumlaut" unicode="&#x171;" horiz-adv-x="1148" 
d="M164 393v563h61v-563q0 -161 93.5 -256.5t236.5 -95.5q70 0 130.5 20.5t110.5 63t80 115.5t33 170v546h62v-956h-62v211q-25 -81 -84 -134.5t-126.5 -75t-143.5 -21.5q-170 0 -280.5 112t-110.5 301zM395 1102l162 260h74l-180 -260h-56zM621 1102l161 260h74l-180 -260
h-55z" />
    <glyph glyph-name="Uogonek" unicode="&#x172;" horiz-adv-x="1380" 
d="M203 463v948h61v-948q0 -188 123.5 -306t302.5 -118t302.5 118t123.5 306v948h62v-948q0 -210 -135 -344t-334 -142l-60 -143q-12 -27 -12 -53q0 -37 21 -67.5t57 -45.5q19 -8 47 -8q36 0 65.5 21t44.5 57v-2q13 32 13 59h59q0 -37 -16 -80q-31 -72 -99 -100.5t-137 0.5
q-73 29 -101 99t3 143l49 123q-189 15 -314.5 148t-125.5 335z" />
    <glyph glyph-name="uogonek" unicode="&#x173;" horiz-adv-x="1148" 
d="M164 393v563h61v-563q0 -161 93.5 -256.5t236.5 -95.5q70 0 130.5 20.5t110.5 63t80 115.5t33 170v546h62v-956l-66 -166q-12 -36 -12 -53q0 -37 21 -67.5t57 -45.5q19 -8 47 -8q36 0 65.5 21t44.5 57v-2q13 33 13 59h59q0 -37 -16 -80q-31 -72 -99 -100.5t-137 0.5
q-73 29 -101 99t3 143l59 143v211q-25 -81 -84 -134.5t-126.5 -75t-143.5 -21.5q-170 0 -280.5 112t-110.5 301z" />
    <glyph glyph-name="Wcircumflex" unicode="&#x174;" horiz-adv-x="1892" 
d="M68 1411h63l451 -1327l329 1102h70l328 -1104l450 1329h66l-479 -1411h-70l-330 1104l-330 -1104h-69zM672 1556l225 261h98l226 -261h-62l-213 224l-213 -224h-61z" />
    <glyph glyph-name="wcircumflex" unicode="&#x175;" horiz-adv-x="1689" 
d="M66 956h65l336 -870l326 870h100l334 -866l327 866h66l-360 -956h-64l-354 915l-342 -915h-66zM567 1102l226 260h98l225 -260h-61l-213 223l-213 -223h-62z" />
    <glyph glyph-name="Ycircumflex" unicode="&#x176;" horiz-adv-x="1214" 
d="M49 1411h74l483 -676l488 676h73l-530 -735v-676h-62v678zM334 1556l225 261h98l226 -261h-62l-213 224l-213 -224h-61z" />
    <glyph glyph-name="ycircumflex" unicode="&#x177;" horiz-adv-x="1019" 
d="M63 956h68l377 -893l383 893h67l-409 -956l-199 -463h-67l190 453zM238 1102l225 260h98l225 -260h-61l-213 223l-213 -223h-61z" />
    <glyph glyph-name="Ydieresis" unicode="&#x178;" horiz-adv-x="1214" 
d="M49 1411h74l483 -676l488 676h73l-530 -735v-676h-62v678zM387 1726q0 26 18.5 43t45.5 17q28 0 46.5 -17t18.5 -43q0 -25 -18.5 -41t-46.5 -16q-27 0 -45.5 16.5t-18.5 40.5zM700 1726q0 26 18.5 43t45.5 17q28 0 46.5 -17t18.5 -43q0 -25 -18.5 -41t-46.5 -16
q-27 0 -45.5 16.5t-18.5 40.5z" />
    <glyph glyph-name="Zacute" unicode="&#x179;" horiz-adv-x="1071" 
d="M82 0v33l825 1317h-825v61h907v-41l-819 -1309h819v-61h-907zM451 1556l161 261h74l-180 -261h-55z" />
    <glyph glyph-name="zacute" unicode="&#x17a;" horiz-adv-x="956" 
d="M88 0v37l686 858h-686v61h780v-41l-682 -854h682v-61h-780zM389 1102l162 260h74l-181 -260h-55z" />
    <glyph glyph-name="Zdotaccent" unicode="&#x17b;" horiz-adv-x="1071" 
d="M82 0v33l825 1317h-825v61h907v-41l-819 -1309h819v-61h-907zM471 1726q0 26 18.5 43t45.5 17q28 0 46.5 -17t18.5 -43q0 -25 -18.5 -41t-46.5 -16q-27 0 -45.5 16.5t-18.5 40.5z" />
    <glyph glyph-name="zdotaccent" unicode="&#x17c;" horiz-adv-x="956" 
d="M88 0v37l686 858h-686v61h780v-41l-682 -854h682v-61h-780zM414 1272q0 26 18 42.5t45 16.5q28 0 47 -16.5t19 -42.5q0 -25 -19 -41.5t-47 -16.5q-26 0 -44.5 16.5t-18.5 41.5z" />
    <glyph glyph-name="Zcaron" unicode="&#x17d;" horiz-adv-x="1071" 
d="M82 0v33l825 1317h-825v61h907v-41l-819 -1309h819v-61h-907zM260 1817h62l213 -224l213 224h61l-225 -261h-99z" />
    <glyph glyph-name="zcaron" unicode="&#x17e;" horiz-adv-x="956" 
d="M88 0v37l686 858h-686v61h780v-41l-682 -854h682v-61h-780zM205 1362h61l213 -223l213 223h62l-226 -260h-98z" />
    <glyph glyph-name="longs" unicode="&#x17f;" horiz-adv-x="538" 
d="M61 901v55h197v162q0 402 320 402h69v-62h-69q-71 0 -122.5 -26t-80.5 -73.5t-42.5 -107t-13.5 -133.5v-1118h-61v901h-197z" />
    <glyph glyph-name="florin" unicode="&#x192;" horiz-adv-x="1175" 
d="M66 -459l10 62h69q137 0 213 92t101 248l157 958h-196l10 55h197l26 162q66 402 385 402h70l-10 -62h-70q-258 0 -313 -340l-27 -162h270l-10 -55h-270l-158 -958q-66 -402 -385 -402h-69z" />
    <glyph glyph-name="Aringacute" unicode="&#x1fa;" horiz-adv-x="1265" 
d="M59 0l541 1411h66l538 -1411h-65l-150 393h-713l-151 -393h-66zM297 449h672l-336 876zM463 1688q0 64 40.5 112.5t100.5 57.5l127 202h74l-143 -205q60 -10 99.5 -57.5t39.5 -109.5q0 -70 -50 -119t-122 -49q-69 0 -117.5 49t-48.5 119zM518 1688q0 -47 32.5 -80
t78.5 -33q49 0 82.5 33t33.5 80q0 50 -33.5 83t-82.5 33q-46 0 -78.5 -33.5t-32.5 -82.5z" />
    <glyph glyph-name="aringacute" unicode="&#x1fb;" 
d="M109 479q0 135 66.5 249.5t181 181.5t249.5 67q140 0 257 -70t181 -188v237h62v-956h-62v238q-64 -118 -181 -188t-257 -70q-101 0 -193 39.5t-158.5 106t-106 159t-39.5 194.5zM170 479q0 -181 128 -309.5t308 -128.5q177 0 304.5 122.5t133.5 297.5v18
q0 180 -128.5 308t-309.5 128q-180 0 -308 -128t-128 -308zM446 1268q0 64 41 112.5t101 57.5l127 202h73l-143 -204q60 -10 99.5 -58t39.5 -110q0 -70 -50 -119t-122 -49q-69 0 -117.5 49t-48.5 119zM502 1268q0 -47 32 -80t78 -33q49 0 83 33t34 80q0 49 -33.5 82.5
t-83.5 33.5q-46 0 -78 -33.5t-32 -82.5z" />
    <glyph glyph-name="AEacute" unicode="&#x1fc;" horiz-adv-x="1996" 
d="M41 0l930 1411h887v-61h-705v-627h616v-61h-616v-601h729v-61h-790v399h-715l-262 -399h-74zM416 461h676v889h-91zM1022 1559l162 260h73l-180 -260h-55z" />
    <glyph glyph-name="aeacute" unicode="&#x1fd;" horiz-adv-x="2086" 
d="M109 479q0 135 66.5 249.5t181 181.5t249.5 67q140 0 257 -70t181 -188v237h62v-225q60 115 172 180.5t250 65.5q205 0 336 -136.5t131 -359.5v-26h-887q9 -186 128.5 -300t291.5 -114q113 0 206.5 51.5t151.5 143.5l53 -33q-65 -105 -173 -164t-238 -59q-138 0 -250 65
t-172 182v-227h-62v238q-64 -118 -181 -188t-257 -70q-101 0 -193 39.5t-158.5 106t-106 159t-39.5 194.5zM170 479q0 -181 128 -309.5t308 -128.5q177 0 304.5 122.5t133.5 297.5v18q0 180 -128.5 308t-309.5 128q-180 0 -308 -128t-128 -308zM1038 1102l162 260h74
l-180 -260h-56zM1108 510h825q-9 184 -121 294.5t-284 110.5t-291 -111t-129 -294z" />
    <glyph glyph-name="Oslashacute" unicode="&#x1fe;" horiz-adv-x="1654" 
d="M113 23l188 190q-88 98 -136 224t-48 265q0 198 93.5 364.5t256.5 263.5t358 97q139 0 264 -50.5t222 -141.5l190 192l43 -41l-192 -194q88 -98 136 -224.5t48 -265.5q0 -147 -55.5 -280.5t-150 -230.5t-226.5 -154t-279 -57q-139 0 -262.5 49.5t-218.5 140.5l-188 -190z
M178 702q0 -256 166 -446l922 934q-186 176 -441 176q-178 0 -327 -89t-234.5 -241.5t-85.5 -333.5zM387 213q187 -172 438 -172q134 0 255 52.5t207.5 141t137 210.5t50.5 257q0 125 -44 240t-122 205zM797 1559l161 260h74l-180 -260h-55z" />
    <glyph glyph-name="oslashacute" unicode="&#x1ff;" horiz-adv-x="1216" 
d="M109 481q0 148 68 262t181 174t250 60q193 0 334 -119l121 123l43 -41l-121 -123q123 -136 123 -336q0 -148 -68.5 -264t-182 -176.5t-249.5 -60.5q-198 0 -336 120l-118 -120l-43 43l118 118q-120 136 -120 340zM170 481q0 -178 104 -295l623 629q-124 100 -289 100
q-186 0 -312 -119.5t-126 -314.5zM315 143q121 -102 293 -102q185 0 312 122t127 318q0 171 -107 291zM578 1102l161 260h74l-180 -260h-55z" />
    <glyph glyph-name="Scommaaccent" unicode="&#x218;" horiz-adv-x="1144" 
d="M123 340h61q20 -122 124 -210.5t255 -88.5q89 0 164 24.5t124 65t79 88.5t41 100q12 77 -8.5 140t-67.5 106t-107 71.5t-135 45.5l-200 47q-320 69 -320 334q0 105 62 189.5t159.5 129.5t206.5 45q173 0 292 -93.5t132 -250.5h-61q-13 129 -114.5 206t-248.5 77
q-94 0 -177 -37.5t-136 -108t-53 -157.5q0 -215 270 -275l201 -47q87 -19 156.5 -53t123 -85t76.5 -127t8 -169q-12 -61 -47 -117.5t-91 -104t-141.5 -76.5t-187.5 -29q-91 0 -170.5 30.5t-134.5 81.5t-90.5 115t-44.5 133zM406 -440q130 133 141 299h67q-23 -195 -153 -299
h-55z" />
    <glyph glyph-name="scommaaccent" unicode="&#x219;" horiz-adv-x="858" 
d="M92 223h62q67 -182 276 -182q121 0 192.5 57t71.5 150q0 148 -184 196l-143 33q-39 9 -69.5 20.5t-65.5 34.5t-56.5 52.5t-33.5 76.5t-5 105q12 95 96 153t199 58q120 0 200.5 -64t90.5 -170h-64q-10 78 -72.5 125t-154.5 47q-91 0 -157.5 -43t-75.5 -112
q-21 -176 182 -223l141 -33q122 -31 178 -98t56 -158q0 -121 -89 -194.5t-237 -73.5q-124 0 -219 63t-119 180zM262 -440q130 133 141 299h68q-22 -194 -154 -299h-55z" />
    <glyph glyph-name="circumflex" unicode="&#x2c6;" horiz-adv-x="978" 
d="M215 1102l225 260h99l225 -260h-62l-213 223l-213 -223h-61z" />
    <glyph glyph-name="caron" unicode="&#x2c7;" horiz-adv-x="978" 
d="M215 1362h61l213 -223l213 223h62l-225 -260h-99z" />
    <glyph glyph-name="breve" unicode="&#x2d8;" horiz-adv-x="1103" 
d="M328 1331h55q0 -63 42 -106t126 -43q77 0 123.5 41t46.5 108h55q0 -92 -62 -148.5t-163 -56.5q-111 0 -167 60t-56 145z" />
    <glyph glyph-name="dotaccent" unicode="&#x2d9;" horiz-adv-x="948" 
d="M410 1272q0 26 18 42.5t45 16.5q28 0 47 -16.5t19 -42.5q0 -25 -19 -41.5t-47 -16.5q-26 0 -44.5 16.5t-18.5 41.5z" />
    <glyph glyph-name="ring" unicode="&#x2da;" horiz-adv-x="993" 
d="M328 1309q0 71 48.5 121.5t117.5 50.5q72 0 122 -50.5t50 -121.5q0 -70 -50 -119t-122 -49q-69 0 -117.5 49t-48.5 119zM383 1309q0 -47 32.5 -80t78.5 -33q49 0 82.5 33t33.5 80q0 49 -33 82.5t-83 33.5q-46 0 -78.5 -33.5t-32.5 -82.5z" />
    <glyph glyph-name="ogonek" unicode="&#x2db;" horiz-adv-x="1021" 
d="M344 -143l64 153h65l-74 -176q-12 -27 -12 -53q0 -37 21 -67.5t57 -45.5q19 -8 47 -8q36 0 66 21t45 57v-2q12 30 12 59h59q0 -37 -16 -80q-31 -72 -99 -100.5t-137 0.5q-73 29 -101 99t3 143z" />
    <glyph glyph-name="tilde" unicode="&#x2dc;" horiz-adv-x="968" 
d="M246 1155q3 74 46 109.5t91 35.5q25 0 48.5 -9t35.5 -17t35 -25q53 -39 84 -39q27 0 51 22t25 68h61q-3 -74 -46 -109.5t-91 -35.5q-25 0 -47.5 7.5t-35.5 15.5t-34 24q-5 3 -20 14.5t-21.5 15.5t-19.5 8.5t-25 4.5q-27 0 -51 -22t-25 -68h-61z" />
    <glyph glyph-name="hungarumlaut" unicode="&#x2dd;" horiz-adv-x="788" 
d="M164 1102l162 260h73l-180 -260h-55zM389 1102l162 260h74l-181 -260h-55z" />
    <glyph glyph-name="Wgrave" unicode="&#x1e80;" horiz-adv-x="1892" 
d="M68 1411h63l451 -1327l323 1102h82l322 -1104l450 1329h66l-479 -1411h-76l-324 1104l-323 -1104h-76zM723 1817h74l161 -261h-55z" />
    <glyph glyph-name="wgrave" unicode="&#x1e81;" horiz-adv-x="1689" 
d="M66 956h65l336 -870l326 870h100l334 -866l327 866h66l-360 -956h-64l-354 915l-342 -915h-66zM637 1362h74l161 -260h-55z" />
    <glyph glyph-name="Wacute" unicode="&#x1e82;" horiz-adv-x="1892" 
d="M68 1411h63l451 -1327l323 1102h82l322 -1104l450 1329h66l-479 -1411h-76l-324 1104l-323 -1104h-76zM913 1556l162 261h74l-180 -261h-56z" />
    <glyph glyph-name="wacute" unicode="&#x1e83;" horiz-adv-x="1689" 
d="M66 956h65l336 -870l326 870h100l334 -866l327 866h66l-360 -956h-64l-354 915l-342 -915h-66zM805 1102l162 260h73l-180 -260h-55z" />
    <glyph glyph-name="Wdieresis" unicode="&#x1e84;" horiz-adv-x="1892" 
d="M68 1411h63l451 -1327l323 1102h82l322 -1104l450 1329h66l-479 -1411h-76l-324 1104l-323 -1104h-76zM725 1726q0 26 18 43t45 17q28 0 47 -17t19 -43q0 -25 -19 -41t-47 -16q-27 0 -45 16t-18 41zM1038 1726q0 26 18.5 43t45.5 17q28 0 46.5 -17t18.5 -43
q0 -25 -18.5 -41t-46.5 -16q-27 0 -45.5 16.5t-18.5 40.5z" />
    <glyph glyph-name="wdieresis" unicode="&#x1e85;" horiz-adv-x="1689" 
d="M66 956h65l336 -870l326 870h100l334 -866l327 866h66l-360 -956h-64l-354 915l-342 -915h-66zM621 1272q0 26 18 42.5t45 16.5q28 0 47 -16.5t19 -42.5q0 -25 -19 -41.5t-47 -16.5q-26 0 -44.5 16.5t-18.5 41.5zM934 1272q0 26 18 42.5t45 16.5q28 0 47 -16.5t19 -42.5
q0 -25 -19 -41.5t-47 -16.5q-26 0 -44.5 16.5t-18.5 41.5z" />
    <glyph glyph-name="Ygrave" unicode="&#x1ef2;" horiz-adv-x="1214" 
d="M49 1411h74l483 -676l488 676h73l-530 -735v-676h-62v678zM399 1817h74l162 -261h-55z" />
    <glyph glyph-name="ygrave" unicode="&#x1ef3;" horiz-adv-x="1019" 
d="M63 956h68l377 -893l383 893h67l-409 -956l-199 -463h-67l190 453zM328 1362h73l162 -260h-55z" />
    <glyph glyph-name="uni2009" unicode="&#x2009;" horiz-adv-x="28" 
 />
    <glyph glyph-name="endash" unicode="&#x2013;" horiz-adv-x="1210" 
d="M158 422v61h895v-61h-895z" />
    <glyph glyph-name="emdash" unicode="&#x2014;" horiz-adv-x="1622" 
d="M158 422v61h1306v-61h-1306z" />
    <glyph glyph-name="quoteleft" unicode="&#x2018;" horiz-adv-x="438" 
d="M152 1020q-3 128 32 223.5t99 186.5l47 -19q-122 -169 -117 -391h-61z" />
    <glyph glyph-name="quoteright" unicode="&#x2019;" horiz-adv-x="440" 
d="M127 1020q122 169 117 391h61q3 -128 -32 -223.5t-99 -186.5z" />
    <glyph glyph-name="quotesinglbase" unicode="&#x201a;" horiz-adv-x="428" 
d="M74 -158q121 168 116 391h62q3 -128 -31.5 -223t-99.5 -186z" />
    <glyph glyph-name="quotedblleft" unicode="&#x201c;" horiz-adv-x="630" 
d="M152 1020q-3 128 32 223.5t99 186.5l47 -19q-122 -169 -117 -391h-61zM344 1020q-3 128 32 223.5t99 186.5l47 -19q-121 -168 -116 -391h-62z" />
    <glyph glyph-name="quotedblright" unicode="&#x201d;" horiz-adv-x="632" 
d="M127 1020q122 169 117 391h61q3 -128 -32 -223.5t-99 -186.5zM319 1020q122 169 117 391h62q3 -128 -32 -223.5t-99 -186.5z" />
    <glyph glyph-name="quotedblbase" unicode="&#x201e;" horiz-adv-x="620" 
d="M74 -158q121 168 116 391h62q3 -128 -31.5 -223t-99.5 -186zM266 -158q122 169 117 391h61q3 -128 -31.5 -223t-99.5 -186z" />
    <glyph glyph-name="dagger" unicode="&#x2020;" horiz-adv-x="815" 
d="M100 938v61h277v412h61v-412h277v-61h-277v-1214h-61v1214h-277z" />
    <glyph glyph-name="daggerdbl" unicode="&#x2021;" horiz-adv-x="860" 
d="M123 190v62h276v686h-276v61h276v412h62v-412h276v-61h-276v-686h276v-62h-276v-466h-62v466h-276z" />
    <glyph glyph-name="bullet" unicode="&#x2022;" horiz-adv-x="862" 
d="M193 477q0 96 69 160.5t168 64.5t169.5 -64.5t70.5 -160.5t-70.5 -160.5t-169.5 -64.5t-168 64.5t-69 160.5z" />
    <glyph glyph-name="ellipsis" unicode="&#x2026;" horiz-adv-x="1236" 
d="M158 37q0 26 18 42.5t45 16.5q28 0 47 -16.5t19 -42.5q0 -25 -19 -41t-47 -16q-27 0 -45 16t-18 41zM553 37q0 26 18 42.5t45 16.5q28 0 47 -16.5t19 -42.5q0 -25 -19 -41t-47 -16q-27 0 -45 16t-18 41zM948 37q0 26 18.5 42.5t45.5 16.5q28 0 46.5 -16.5t18.5 -42.5
q0 -25 -18.5 -41t-46.5 -16q-27 0 -45.5 16.5t-18.5 40.5z" />
    <glyph glyph-name="perthousand" unicode="&#x2030;" horiz-adv-x="1908" 
d="M88 1130q0 103 71 175.5t175 72.5q103 0 175.5 -72.5t72.5 -175.5q0 -104 -72.5 -174.5t-175.5 -70.5q-104 0 -175 70.5t-71 174.5zM150 1130q0 -78 53 -131t131 -53q77 0 131.5 53.5t54.5 130.5t-55 132t-131 55q-77 0 -130.5 -55t-53.5 -132zM291 0l663 1360h66
l-660 -1360h-69zM762 227q0 103 71 175.5t175 72.5q103 0 175 -72.5t72 -175.5q0 -104 -72 -174.5t-175 -70.5q-104 0 -175 70.5t-71 174.5zM823 227q0 -78 53.5 -131t131.5 -53q77 0 131.5 53.5t54.5 130.5t-55 132t-131 55q-77 0 -131 -55t-54 -132zM1339 227
q0 103 71 175.5t175 72.5q103 0 175.5 -72.5t72.5 -175.5q0 -104 -72.5 -174.5t-175.5 -70.5q-104 0 -175 70.5t-71 174.5zM1401 227q0 -78 53 -131t131 -53q77 0 132 53.5t55 130.5t-55 132t-132 55t-130.5 -55t-53.5 -132z" />
    <glyph glyph-name="guilsinglleft" unicode="&#x2039;" horiz-adv-x="589" 
d="M113 475l282 424h74l-283 -424l285 -424h-76z" />
    <glyph glyph-name="guilsinglright" unicode="&#x203a;" horiz-adv-x="589" 
d="M119 51l284 424l-282 424h74l282 -424l-282 -424h-76z" />
    <glyph glyph-name="fraction" unicode="&#x2044;" horiz-adv-x="368" 
d="M-317 -20l917 1398h74l-918 -1398h-73z" />
    <glyph glyph-name="uni2070" unicode="&#x2070;" horiz-adv-x="727" 
d="M92 1360q0 71 7.5 128t26.5 109.5t49 88t78.5 56.5t111.5 21q78 0 132 -30.5t83 -88.5t41 -126t12 -158t-12 -158.5t-41 -126t-83 -88.5t-132 -31q-79 0 -134 31t-84.5 88.5t-42 126.5t-12.5 158zM154 1360q0 -75 9.5 -133.5t32.5 -107.5t65.5 -75t103.5 -26q48 0 85 18
t59.5 48t36.5 75t19.5 93t5.5 108t-5.5 108t-19.5 93t-36.5 75t-59.5 48t-85 18q-61 0 -103.5 -26t-65.5 -75t-32.5 -107.5t-9.5 -133.5z" />
    <glyph glyph-name="uni2074" unicode="&#x2074;" horiz-adv-x="722" 
d="M45 1143l444 641h46v-584h127v-57h-127v-176h-62v176h-428zM158 1200h315v461z" />
    <glyph glyph-name="uni2075" unicode="&#x2075;" horiz-adv-x="696" 
d="M68 1118q6 5 26.5 18.5t26.5 18.5q28 -58 88 -96.5t125 -38.5q104 0 163.5 56.5t59.5 142.5q0 88 -61.5 139t-139.5 51q-61 0 -107.5 -13t-121.5 -48l-23 30l70 406h391v-64h-338l-55 -299q111 52 184 52q107 0 186 -68.5t79 -185.5q0 -118 -77.5 -190.5t-209.5 -72.5
q-79 0 -154 46t-112 116z" />
    <glyph glyph-name="uni2076" unicode="&#x2076;" horiz-adv-x="692" 
d="M98 1225q-7 62 -5 129t7 131t25.5 121t50.5 100t82 67t121 23q153 -3 213 -139l-55 -25q-46 100 -160 103q-56 1 -97.5 -22.5t-65 -61t-37 -91t-17 -102.5t-2.5 -106q22 62 82.5 94t128.5 29q107 -4 176.5 -83t66.5 -188q-6 -108 -82 -180t-182 -68q-105 3 -174 76
t-76 193zM160 1225q0 -87 55 -145.5t135 -61.5q82 -3 140 52t61 138q3 85 -49.5 143.5t-134.5 61.5q-83 3 -143.5 -51.5t-63.5 -136.5z" />
    <glyph glyph-name="uni2077" unicode="&#x2077;" horiz-adv-x="634" 
d="M78 1722v62h526l-448 -817h-74l418 755h-422z" />
    <glyph glyph-name="uni2078" unicode="&#x2078;" horiz-adv-x="708" 
d="M82 1212q0 76 42 138.5t112 93.5q-86 54 -86 158q0 82 58.5 138t145.5 56q88 0 147.5 -56t59.5 -138q0 -49 -24.5 -91t-65.5 -69q70 -30 113 -92t43 -138q0 -107 -79 -181.5t-194 -74.5q-116 0 -194 74t-78 182zM143 1212q0 -82 60.5 -138t150.5 -56q89 0 150 56t61 138
q0 81 -60.5 140t-148.5 59t-150.5 -60t-62.5 -139zM211 1602q0 -56 38.5 -96t96.5 -40h14q59 0 99.5 40t40.5 96t-42.5 94.5t-103.5 38.5t-102 -38.5t-41 -94.5z" />
    <glyph glyph-name="uni2079" unicode="&#x2079;" horiz-adv-x="692" 
d="M80 1546q6 109 81.5 180.5t182.5 67.5q105 -3 174 -75.5t76 -192.5q6 -62 4 -128.5t-7 -130.5t-25.5 -121t-50.5 -100t-82 -67t-120 -23q-158 4 -217 140l56 22q44 -96 163 -100q56 -1 98 22.5t65.5 60t37 89.5t17 102.5t2.5 106.5q-22 -61 -83 -93.5t-128 -29.5
q-106 4 -176.5 83t-67.5 187zM143 1544q-3 -85 49 -143.5t134 -61.5q83 -3 143 51t63 138q0 87 -54.5 144.5t-135.5 60.5q-82 3 -139 -51.5t-60 -137.5z" />
    <glyph glyph-name="uni2080" unicode="&#x2080;" horiz-adv-x="727" 
d="M92 14q0 89 12.5 158t42 126.5t84.5 88.5t134 31q78 0 132 -31t83 -88.5t41 -126t12 -158.5t-12 -158t-41 -126t-83 -88.5t-132 -30.5q-63 0 -111.5 21t-78.5 56.5t-49 88t-26.5 109.5t-7.5 128zM154 14q0 -75 9.5 -133.5t32.5 -107.5t65.5 -75t103.5 -26q48 0 85 18
t59.5 48t36.5 75t19.5 93t5.5 108t-5.5 108t-19.5 93t-36.5 75t-59.5 48t-85 18q-61 0 -103.5 -26t-65.5 -75t-32.5 -107.5t-9.5 -133.5z" />
    <glyph glyph-name="uni2081" unicode="&#x2081;" horiz-adv-x="382" 
d="M57 299v61l203 74v-813h-61v727z" />
    <glyph glyph-name="uni2082" unicode="&#x2082;" horiz-adv-x="647" 
d="M74 270q17 81 83 130t156 49q104 0 174 -65t70 -165q0 -103 -90 -207l-279 -329h371v-62h-479v23l342 409q74 88 74 166q0 74 -52.5 121t-130.5 47q-67 0 -118.5 -36.5t-63.5 -96.5z" />
    <glyph glyph-name="uni2083" unicode="&#x2083;" horiz-adv-x="663" 
d="M70 -250l49 33q49 -101 182 -111q87 -4 147 44t68 128q1 80 -54 132.5t-132 52.5h-80v59h80q58 0 103.5 39t49.5 98q5 66 -36.5 111t-122.5 51q-53 4 -103 -20t-74 -64l-51 31q33 56 96 87.5t136 27.5q112 -7 169.5 -73.5t49.5 -158.5q-5 -50 -36.5 -92t-80.5 -64
q69 -17 111.5 -85.5t36.5 -141.5q-9 -101 -90 -165.5t-191 -57.5q-81 5 -135 36t-92 103z" />
    <glyph glyph-name="uni2084" unicode="&#x2084;" horiz-adv-x="720" 
d="M45 -203l444 641h46v-583h127v-58h-127v-176h-62v176h-428zM158 -145h315v460z" />
    <glyph glyph-name="uni2085" unicode="&#x2085;" horiz-adv-x="692" 
d="M68 -227q6 5 26.5 18.5t26.5 18.5q28 -59 88.5 -97.5t124.5 -38.5q104 0 163.5 56.5t59.5 142.5q0 88 -61.5 139t-139.5 51q-61 0 -107.5 -13t-121.5 -48l-23 31l70 405h391v-63h-338l-55 -299q109 51 184 51q107 0 186 -68.5t79 -185.5q0 -118 -77.5 -190t-209.5 -72
q-79 0 -154 46t-112 116z" />
    <glyph glyph-name="uni2086" unicode="&#x2086;" horiz-adv-x="690" 
d="M98 -121q-7 62 -5 129t7 131t25.5 121.5t50.5 100t82 67t121 23.5q152 -3 213 -140l-55 -24q-45 99 -160 102q-56 1 -97.5 -22.5t-65 -61t-37 -91t-17 -102.5t-2.5 -106q22 62 82.5 94t128.5 29q107 -4 176.5 -82.5t66.5 -187.5q-6 -108 -82 -180t-182 -68
q-105 3 -174 75.5t-76 192.5zM160 -121q0 -87 55 -145.5t135 -61.5q82 -3 140 52.5t61 138.5q3 85 -49.5 143.5t-134.5 61.5t-143 -51.5t-64 -137.5z" />
    <glyph glyph-name="uni2087" unicode="&#x2087;" horiz-adv-x="624" 
d="M74 377v61h526l-448 -817h-74l418 756h-422z" />
    <glyph glyph-name="uni2088" unicode="&#x2088;" horiz-adv-x="708" 
d="M82 -133q0 76 42 138t112 93q-86 54 -86 158q0 82 58.5 138.5t145.5 56.5q88 0 147.5 -56.5t59.5 -138.5q0 -49 -24.5 -91t-65.5 -69q70 -30 113 -92t43 -137q0 -107 -79 -181.5t-194 -74.5q-116 0 -194 74t-78 182zM143 -133q0 -82 60.5 -138.5t150.5 -56.5
q89 0 150 56.5t61 138.5q0 81 -60.5 140t-148.5 59t-150.5 -60t-62.5 -139zM211 256q0 -56 38.5 -95.5t96.5 -39.5h14q59 0 99.5 39.5t40.5 95.5t-42.5 94.5t-103.5 38.5t-102 -38.5t-41 -94.5z" />
    <glyph glyph-name="uni2089" unicode="&#x2089;" horiz-adv-x="696" 
d="M82 201q6 109 81.5 180.5t182.5 67.5q105 -3 174 -76t76 -193q6 -62 4 -128.5t-7 -130.5t-25.5 -121t-50.5 -99.5t-82 -66.5t-120 -23q-159 4 -217 139l56 23q45 -97 163 -101q56 -1 98 22.5t65.5 60t37 89.5t17 102.5t2.5 106.5q-22 -61 -83 -93.5t-128 -29.5
q-106 4 -176.5 83.5t-67.5 187.5zM145 199q-3 -85 49 -143.5t134 -61.5q83 -3 143.5 50.5t63.5 137.5q0 86 -55 144t-136 61q-82 3 -139 -51t-60 -137z" />
    <glyph glyph-name="colonmonetary" unicode="&#x20a1;" horiz-adv-x="1382" 
d="M113 702q0 192 86 354.5t237 261t334 107.5l76 199l59 -22l-65 -175q89 -6 168 -30l63 166l59 -23l-61 -166q115 -49 197 -123l-41 -45q-87 74 -178 111l-465 -1235q106 -41 225 -41q237 0 416 158l41 -45q-92 -83 -209.5 -128.5t-247.5 -45.5q-128 0 -246 45l-80 -213
l-59 22l82 217q-77 36 -146 96l-102 -274l-59 23l112 301q-93 98 -144.5 228.5t-51.5 276.5zM174 702q0 -255 160 -442l414 1102q-161 -15 -292.5 -106.5t-206.5 -237.5t-75 -316zM383 209q67 -61 141 -100l463 1230q-83 24 -170 27z" />
    <glyph glyph-name="lira" unicode="&#x20a4;" horiz-adv-x="1300" 
d="M106 0v61h211v396h-174v57h174v176h-174v58h174v315q0 111 57 198.5t148 133t195 45.5q153 0 260 -92t119 -244h-62q-12 125 -101.5 199.5t-215.5 74.5q-136 0 -237 -87.5t-101 -227.5v-315h248v-58h-248v-176h248v-57h-248v-396h659q37 0 61.5 27.5t24.5 67.5v88h62v-88
q0 -66 -43 -111t-105 -45h-932z" />
    <glyph glyph-name="uni20A6" unicode="&#x20a6;" horiz-adv-x="1468" 
d="M125 565v62h121v196h-121v62h121v526h73l330 -526h504v526h61v-526h129v-62h-129v-196h129v-62h-129v-565h-73l-359 565h-475v-565h-61v565h-121zM307 627h436l-122 196h-314v-196zM307 885h275l-275 434v-434zM688 823l125 -196h340v196h-465zM852 565l301 -479v479
h-301z" />
    <glyph glyph-name="peseta" unicode="&#x20a7;" horiz-adv-x="1470" 
d="M123 850v61h143v176h-143v62h143v262h545q146 0 235.5 -72t124.5 -190h191v-62h-178q8 -41 8 -92q0 -43 -6 -84h176v-61h-188q-33 -122 -125.5 -195t-247.5 -73h-473v-582h-62v850h-143zM328 643h473q124 0 200 56t107 151h-780v-207zM328 911h794q8 36 8 84q0 30 -8 92
h-794v-176zM328 1149h778q-33 91 -106.5 146t-188.5 55h-483v-201z" />
    <glyph glyph-name="uni20A8" unicode="&#x20a8;" horiz-adv-x="1351" 
d="M172 582v61h506q87 0 153 29t103.5 80t55.5 111.5t18 131.5q0 21 -2 33h-834v62h827q-22 115 -99.5 187.5t-211.5 72.5h-516v61h516h21h538v-61h-338q125 -84 152 -260h186v-62h-180q2 -12 2 -33q0 -83 -21.5 -154.5t-66 -130.5t-122 -93.5t-181.5 -34.5h-55l411 -582
h-73l-414 582h-375z" />
    <glyph glyph-name="uni20A9" unicode="&#x20a9;" horiz-adv-x="2031" 
d="M135 504v61h289l-72 211h-217v62h197l-195 573h64l194 -573h477l103 348h82l100 -348h477l195 573h65l-196 -573h196v-62h-217l-71 -211h288v-61h-309l-170 -504h-76l-147 504h-352l-148 -504h-76l-172 504h-309zM416 776l71 -211h306l61 211h-438zM508 504l143 -420
l123 420h-266zM858 565h316l-62 211h-192zM938 838h156l-78 266zM1176 776l61 -211h305l72 211h-438zM1255 504l123 -422l144 422h-267z" />
    <glyph glyph-name="afii57636" unicode="&#x20aa;" horiz-adv-x="1525" 
d="M219 0v1094h336q185 0 299.5 -115.5t114.5 -286.5v-311h-62v311q0 145 -97 242.5t-255 97.5h-274v-1032h-62zM557 401v312h61v-312q0 -144 97.5 -242t255.5 -98h274v1033h62v-1094h-336q-185 0 -299.5 115t-114.5 286z" />
    <glyph glyph-name="Euro" unicode="&#x20ac;" horiz-adv-x="1611" 
d="M113 580v57h913v-57h-649q40 -232 214.5 -385.5t407.5 -153.5q237 0 416 158l41 -45q-92 -83 -209.5 -128.5t-247.5 -45.5q-128 0 -245.5 46t-206.5 125.5t-150.5 190.5t-81.5 238h-202zM113 774v57h202q43 257 235 426.5t449 169.5q130 0 248 -46.5t211 -129.5l-41 -45
q-181 160 -418 160q-231 0 -405 -152t-217 -383h649v-57h-913z" />
    <glyph glyph-name="afii61289" unicode="&#x2113;" horiz-adv-x="763" 
d="M168 303v864q0 68 11.5 119.5t39 94t77 65t120.5 22.5q127 0 184 -81.5t57 -219.5v-417q0 -139 -57 -221.5t-184 -82.5h-187v-143q0 -54 9 -95.5t29 -75.5t58 -52.5t91 -18.5h180v-61h-180q-71 0 -120.5 23t-77 65.5t-39 94.5t-11.5 120zM229 508h187q94 0 137 65.5
t43 176.5v417q0 111 -43 176.5t-137 65.5q-103 0 -145 -64t-42 -178v-659z" />
    <glyph glyph-name="afii61352" unicode="&#x2116;" horiz-adv-x="1961" 
d="M217 0v1411h74l833 -1325v1325h62v-1411h-74l-833 1319v-1319h-62zM1395 1198q0 96 66.5 162.5t162.5 66.5q97 0 163 -66t66 -163q0 -96 -66.5 -162.5t-162.5 -66.5q-95 0 -162 67t-67 162zM1405 827v56h440v-56h-440zM1456 1198q0 -69 49.5 -118.5t118.5 -49.5
q70 0 119 49.5t49 118.5q0 70 -49 119t-119 49q-69 0 -118.5 -49t-49.5 -119z" />
    <glyph glyph-name="trademark" unicode="&#x2122;" horiz-adv-x="1775" 
d="M131 1350v61h664l342 -657l342 657h37l102 -805h-59l-86 682l-314 -612h-45l-315 612l-84 -682h-62l97 744h-299v-744h-62v744h-258z" />
    <glyph glyph-name="estimated" unicode="&#x212e;" horiz-adv-x="1374" 
d="M141 573q0 164 67 298t197 215t300 81q169 0 298 -82.5t195 -217t66 -296.5h-879v-395q135 -129 311 -129q67 0 124.5 14.5t99.5 36.5t81 58t66.5 70t58.5 81l64 -39q-43 -67 -87 -115.5t-103 -89.5t-135 -62t-169 -21q-122 0 -227 47.5t-176.5 128t-111.5 189t-40 228.5
zM385 639h633v334q-59 54 -143.5 90.5t-169.5 36.5q-196 0 -320 -127v-334z" />
    <glyph glyph-name="minus" unicode="&#x2212;" horiz-adv-x="1173" 
d="M166 508v61h842v-61h-842z" />
    <glyph glyph-name="notequal" unicode="&#x2260;" horiz-adv-x="1243" 
d="M164 254v61h252l286 375h-538v62h586l157 204h74l-158 -204h254v-62h-301l-287 -375h588v-61h-635l-170 -221h-73l170 221h-205z" />
    <glyph glyph-name="lessequal" unicode="&#x2264;" horiz-adv-x="1343" 
d="M143 584v73l1043 400v-66l-969 -373l969 -368v-66zM162 0v61h1024v-61h-1024z" />
    <glyph glyph-name="greaterequal" unicode="&#x2265;" horiz-adv-x="1343" 
d="M158 0v61h1024v-61h-1024zM158 184v66l968 368l-968 373v66l1042 -400v-73z" />
    <glyph glyph-name="uniE000" unicode="&#xe000;" horiz-adv-x="952" 
d="M0 0v952h952v-952h-952z" />
    <glyph glyph-name="uniF6C3" unicode="&#xf6c3;" horiz-adv-x="495" 
d="M143 -440q131 134 142 299h67q-23 -195 -153 -299h-56z" />
    <glyph glyph-name="uniF6DD" unicode="&#xf6dd;" horiz-adv-x="2328" 
d="M162 0v1411h516q100 0 175.5 -35t119 -94.5t65 -132t21.5 -154.5q0 -83 -21.5 -154.5t-66 -130.5t-122 -93.5t-181.5 -34.5h-56l412 -582h-74l-413 582h-314v-582h-61zM223 643h445q70 0 126.5 19.5t94 52.5t62.5 78.5t35.5 95.5t10.5 106q0 70 -18 131.5t-54.5 113
t-100 81t-146.5 29.5h-455v-707zM1255 -463v1419h62v-237q64 118 181 188t257 70q135 0 249.5 -67t181.5 -182t67 -251q0 -135 -67 -249.5t-181.5 -181t-249.5 -66.5q-140 0 -257 70t-181 188v-701h-62zM1317 477q0 -180 128.5 -308t309.5 -128q180 0 308 128t128 308
q0 181 -128 309.5t-308 128.5q-177 0 -304.5 -122t-133.5 -297v-19z" />
    <glyph glyph-name="uniF8FF" unicode="&#xf8ff;" horiz-adv-x="1734" 
d="M164 0v1407h1407v-1407h-1407zM336 162h18v76l27 -76h20l23 76v-76h18v108h-28l-19 -73l-28 73h-31v-108zM336 446h166l-152 154v365l522 -519l525 519v-365l-152 -154h172v773l-545 -539l-536 539v-773zM457 215q0 -22 13 -37.5t38 -15.5q22 0 34.5 15.5t12.5 37.5
q0 23 -12.5 39t-34.5 16q-25 0 -38 -16t-13 -39zM473 215q0 12 10.5 23.5t24.5 11.5q12 0 18 -11t6 -24q0 -12 -6 -22.5t-18 -10.5q-14 0 -24.5 11.5t-10.5 21.5zM555 203q0 -20 12.5 -30.5t32.5 -10.5q45 0 45 35q0 22 -31 28q-21 3 -26.5 5t-5.5 8q0 12 18 12q21 0 21 -12
h18q0 32 -39 32q-15 0 -27 -9t-12 -23q0 -11 8 -17t25 -14q27 0 27 -10t-4.5 -12.5t-16.5 -2.5q-18 0 -18 21h-27zM645 250h35v-88h16v88h31v20h-82v-20zM709 162h24l8 26h45l7 -26h22h19v45h26q8 0 13.5 -6t5.5 -13v-26h26q-6 6 -6 26q0 19 -14 27q10 4 12 8.5t2 14.5
q0 32 -27 32h-57v-108l-43 108h-18zM748 207l12 37h6l14 -37h-32zM834 221v29h26q19 0 19 -12q0 -17 -19 -17h-26zM913 162h41q24 0 38 16.5t14 42.5q0 22 -14 35.5t-38 13.5h-41v-108zM938 182v68h8q21 0 28 -8t7 -27q0 -13 -9 -23t-18 -10h-16zM1012 162h82v20h-58v25h51
v18h-51v25h51v20h-75v-108zM1094 203q0 -41 45 -41q19 0 32 10t13 25q0 21 -31 28q-23 3 -29 5t-6 8q0 12 15 12q24 0 24 -12h21q0 32 -39 32q-16 0 -30.5 -9t-14.5 -23q0 -11 9.5 -17t29.5 -14q24 0 24 -10q0 -15 -18 -15q-10 0 -18.5 5.5t-8.5 15.5h-18zM1192 162h14v108
h-14v-108zM1221 215q0 -22 13.5 -37.5t37.5 -15.5q18 0 24 14l9 -14h12v59h-45v-18h24q-9 -21 -24 -21q-14 0 -23.5 11.5t-9.5 21.5q0 12 9.5 23.5t23.5 11.5q6 0 12 -6t6 -15h27q-4 20 -17 30.5t-28 10.5q-24 0 -37.5 -16t-13.5 -39zM1329 162h17v67l45 -67h26v108h-26v-67
l-45 67h-17v-108z" />
    <glyph glyph-name="NULL" horiz-adv-x="0" 
 />
    <glyph glyph-name="published" horiz-adv-x="1685" 
d="M127 702q0 147 56 281t151.5 231.5t228 155t279.5 57.5t280 -57.5t228.5 -155t152 -231.5t56.5 -281q0 -196 -95.5 -362.5t-260.5 -263t-361 -96.5q-147 0 -279.5 57t-228 154t-151.5 230.5t-56 280.5zM188 702q0 -135 51.5 -257t138.5 -210.5t208.5 -141t255.5 -52.5
q179 0 330 88.5t238 240.5t87 332t-87 332.5t-238 242t-330 89.5t-330 -89.5t-237.5 -242t-86.5 -332.5zM639 338v737h270q113 0 167 -69t54 -170q0 -46 -11 -85.5t-35.5 -75t-70.5 -56.5t-108 -21h-205v-260h-61zM700 659h205q84 0 124 50.5t40 126.5q0 75 -39 126.5
t-121 51.5h-209v-355z" />
    <glyph glyph-name="frenchfranc" horiz-adv-x="1417" 
d="M217 0v1411h756v-61h-694v-547h567v-219q31 117 117.5 178t224.5 61q76 0 133 -18l-18 -60q-55 17 -115 17q-81 0 -142.5 -24.5t-98.5 -64t-60 -97t-31.5 -114.5t-9.5 -126v-336h-62v741h-505v-741h-62z" />
    <glyph glyph-name="parenleft.case" horiz-adv-x="686" 
d="M121 698q0 433 131 683.5t356 269.5v-62q-196 -15 -311 -250t-115 -641t115 -641t311 -250v-61q-225 19 -356 269t-131 683z" />
    <glyph glyph-name="parenright.case" horiz-adv-x="686" 
d="M78 -193q196 15 311 250t115 641t-115 641t-311 250v62q225 -19 356 -269.5t131 -683.5t-131 -683t-356 -269v61z" />
    <glyph glyph-name="hyphen.case" horiz-adv-x="972" 
d="M158 655v62h657v-62h-657z" />
    <glyph glyph-name="at.case" horiz-adv-x="2058" 
d="M115 680q0 251 119.5 462.5t328.5 335.5t459 124q189 0 363 -67.5t302.5 -183t205.5 -281t77 -351.5q0 -76 -11 -152.5t-38.5 -154.5t-68 -137t-105 -96.5t-143.5 -37.5q-53 0 -98 13t-84 42t-61 82t-22 125v289q0 142 -100 241t-240 99t-240 -99t-100 -241
q0 -140 100.5 -240t239.5 -100q49 0 105.5 17.5t93.5 46.5v-68q-91 -57 -199 -57q-164 0 -282.5 118.5t-118.5 282.5q0 168 118 285t283 117t283.5 -117t118.5 -285v-289q0 -55 17 -95.5t46.5 -62.5t64 -32t75.5 -10q66 0 119.5 33.5t87 86t56.5 122t32.5 138t9.5 136.5
q0 173 -72 327t-192.5 261.5t-283 170t-339.5 62.5q-175 0 -332 -68.5t-269.5 -184t-178.5 -274t-66 -333.5t65.5 -333t177.5 -272t268.5 -181t330.5 -68h69v-62h-69q-250 1 -457.5 123t-326.5 332t-119 461z" />
    <glyph glyph-name="bracketleft.case" horiz-adv-x="559" 
d="M197 -238v1874h272v-61h-211v-1751h211v-62h-272z" />
    <glyph glyph-name="bracketright.case" horiz-adv-x="559" 
d="M90 -176h211v1751h-211v61h272v-1874h-272v62z" />
    <glyph glyph-name="braceleft.case" horiz-adv-x="731" 
d="M90 678v53q59 15 98 67t39 115v367q-1 165 109 269t266 104h45v-62h-45q-131 0 -222.5 -86.5t-90.5 -224.5v-367q0 -64 -30.5 -120.5t-82.5 -90.5q49 -37 81 -92.5t32 -113.5v-361q0 -139 90.5 -225t222.5 -86h45v-62h-45q-158 0 -266.5 103.5t-108.5 269.5v361
q0 63 -39 115t-98 67z" />
    <glyph glyph-name="braceright.case" horiz-adv-x="731" 
d="M84 -176h45q132 0 222.5 86t90.5 225v361q0 58 32 113.5t81 92.5q-52 34 -82.5 90.5t-30.5 120.5v367q1 138 -90.5 224.5t-222.5 86.5h-45v62h45q156 0 266 -104t109 -269v-367q0 -63 39 -115t98 -67v-53q-59 -15 -98 -67t-39 -115v-361q0 -166 -108.5 -269.5
t-266.5 -103.5h-45v62z" />
    <glyph glyph-name="exclamdown.case" horiz-adv-x="477" 
d="M174 1370q0 24 18.5 40.5t45.5 16.5q28 0 46.5 -16t18.5 -41q0 -26 -18.5 -42.5t-46.5 -16.5q-27 0 -45.5 16.5t-18.5 42.5zM207 0v1102h61v-1102h-61z" />
    <glyph glyph-name="guillemotleft.case" horiz-adv-x="872" 
d="M133 700l283 424h73l-282 -424l285 -424h-76zM365 700l282 424h74l-283 -424l285 -424h-76z" />
    <glyph glyph-name="periodcentered.case" horiz-adv-x="444" 
d="M158 705q0 26 18 42.5t45 16.5q28 0 47 -16.5t19 -42.5q0 -25 -19 -41.5t-47 -16.5q-26 0 -44.5 16.5t-18.5 41.5z" />
    <glyph glyph-name="guillemotright.case" horiz-adv-x="872" 
d="M150 276l284 424l-282 424h73l283 -424l-283 -424h-75zM381 276l285 424l-283 424h74l282 -424l-282 -424h-76z" />
    <glyph glyph-name="questiondown.case" horiz-adv-x="964" 
d="M90 356q0 135 79 232.5t200 134.5q55 16 88.5 31t66 41t47.5 67t15 99v145h61v-145q0 -59 -13.5 -104.5t-33.5 -74.5t-56.5 -52.5t-70.5 -36.5t-86 -29q-102 -33 -168.5 -114t-66.5 -194q0 -140 100 -227.5t237 -87.5q126 0 217 77t101 204l61 -7q-13 -153 -120 -244
t-259 -91q-163 0 -281 105t-118 271zM551 1370q0 25 18.5 41t46.5 16q27 0 45.5 -16.5t18.5 -40.5q0 -26 -18.5 -42.5t-45.5 -16.5q-28 0 -46.5 16.5t-18.5 42.5z" />
    <glyph glyph-name="endash.case" horiz-adv-x="1210" 
d="M158 647v62h895v-62h-895z" />
    <glyph glyph-name="emdash.case" horiz-adv-x="1622" 
d="M158 647v62h1306v-62h-1306z" />
    <glyph glyph-name="bullet.case" horiz-adv-x="854" 
d="M188 702q0 96 69.5 161t168.5 65t169.5 -65t70.5 -161t-70.5 -160.5t-169.5 -64.5t-168.5 64.5t-69.5 160.5z" />
    <glyph glyph-name="guilsinglleft.case" horiz-adv-x="641" 
d="M133 700l283 424h73l-282 -424l285 -424h-76z" />
    <glyph glyph-name="guilsinglright.case" horiz-adv-x="641" 
d="M150 276l284 424l-282 424h73l283 -424l-283 -424h-75z" />
    <glyph glyph-name="cent.case" horiz-adv-x="1069" 
d="M117 713q0 206 125.5 340t316.5 153v205h62v-203q160 -3 305 -102l-35 -49q-129 90 -277 90q-120 0 -219 -52.5t-158 -152.5t-59 -229q0 -195 126 -318t310 -123q154 0 277 90l37 -49q-129 -99 -307 -102v-211h-62v213q-191 19 -316.5 156t-125.5 344z" />
    <glyph glyph-name="zero.tnum" horiz-adv-x="1187" 
d="M121 678q0 123 12.5 222.5t45.5 191t85.5 153t136 97.5t193.5 36t193 -36t135 -97.5t84 -153t44.5 -190.5t12.5 -223q0 -122 -12.5 -221t-44.5 -190.5t-84 -152.5t-135 -97.5t-193 -36.5t-193.5 36.5t-136 98t-85.5 152.5t-45.5 190t-12.5 221zM182 678q0 -111 11 -201.5
t39.5 -173.5t74.5 -139t118.5 -89.5t168.5 -33.5t168 33.5t117 89.5t73 139.5t38.5 173.5t10.5 201q0 113 -10.5 203t-38.5 174t-73 140t-117 89t-168 33t-168.5 -33t-118.5 -89t-74.5 -139.5t-39.5 -174.5t-11 -203z" />
    <glyph glyph-name="one.tnum" horiz-adv-x="1187" 
d="M375 1171v66l305 113v-1350h-62v1262z" />
    <glyph glyph-name="two.tnum" horiz-adv-x="1187" 
d="M197 1110q33 123 139.5 195.5t247.5 72.5q167 0 276 -104t109 -268q0 -170 -148 -342l-510 -603h668v-61h-780v23l575 679q133 153 133 304q0 137 -91.5 224t-231.5 87q-119 0 -209 -60.5t-119 -162.5z" />
    <glyph glyph-name="three.tnum" horiz-adv-x="1187" 
d="M147 233l56 25q40 -89 130 -147.5t204 -67.5q166 -8 284 81t137 238q0 158 -92.5 247t-224.5 89h-137v62h137q90 0 171 67t91 170q12 124 -70.5 216.5t-236.5 105.5q-95 7 -189.5 -41t-136.5 -123l-53 31q54 95 157.5 147t225.5 45q125 -9 212.5 -64.5t125 -138.5
t27.5 -182q-6 -82 -59 -153.5t-134 -106.5q76 -18 136 -78.5t89 -140.5t23 -158q-15 -168 -158 -277t-330 -97q-131 10 -235 78.5t-150 172.5z" />
    <glyph glyph-name="four.tnum" horiz-adv-x="1187" 
d="M84 297l733 1063h43v-1002h217v-61h-217v-297h-61v297h-715zM197 358h602v881z" />
    <glyph glyph-name="five.tnum" horiz-adv-x="1187" 
d="M145 238l54 30q56 -95 162.5 -159t213.5 -64q188 0 296 104t108 263q0 82 -33 149.5t-86.5 110t-117.5 65.5t-130 23q-103 0 -185 -22t-202 -79l-24 33l118 668h629v-62h-577l-103 -561q100 44 176.5 64t167.5 20q77 0 152 -27t137 -76.5t100.5 -129.5t38.5 -176
q0 -186 -124.5 -307t-340.5 -121q-123 0 -244.5 73t-185.5 181z" />
    <glyph glyph-name="six.tnum" horiz-adv-x="1187" 
d="M193 416q-7 89 -9.5 159.5t1 175t18 184.5t47 167.5t82.5 144.5t130 94t183 37q251 0 354 -235l-55 -25q-89 199 -301 199q-77 0 -139 -24.5t-103 -62t-70.5 -97t-45.5 -115.5t-25.5 -132t-11.5 -132t-2 -129v-54q27 87 89.5 146.5t138.5 84.5t161 23q176 -7 288 -132.5
t107 -309.5q-9 -177 -131 -292t-299 -111q-170 4 -281 123.5t-126 312.5zM254 418q-1 -159 99.5 -265.5t248.5 -111.5q150 -4 254.5 94.5t112.5 251.5q5 156 -90.5 263.5t-245.5 113.5q-100 3 -185.5 -40t-138 -124t-55.5 -182z" />
    <glyph glyph-name="seven.tnum" horiz-adv-x="1187" 
d="M207 1298v62h846l-750 -1360h-70l717 1298h-743z" />
    <glyph glyph-name="eight.tnum" horiz-adv-x="1187" 
d="M147 399q0 133 80 241t211 151q-80 37 -127 110.5t-47 165.5q0 131 94.5 221t233.5 90q142 0 239 -90t97 -221q0 -91 -50.5 -165.5t-134.5 -113.5q133 -43 215 -149.5t82 -239.5q0 -177 -129 -298t-319 -121t-317.5 120.5t-127.5 298.5zM209 399q0 -151 109.5 -254.5
t273.5 -103.5t275.5 103.5t111.5 254.5q0 144 -109.5 249.5t-267.5 109.5h-27q-155 -4 -260.5 -109.5t-105.5 -249.5zM326 1067q0 -103 73 -177t181 -77h22q113 3 188.5 76.5t75.5 177.5q0 105 -79 177.5t-195 72.5q-113 0 -189.5 -72.5t-76.5 -177.5z" />
    <glyph glyph-name="nine.tnum" horiz-adv-x="1187" 
d="M156 975q9 177 131 292t299 111q170 -4 281 -123.5t126 -312.5q7 -89 9.5 -159.5t-1 -175t-18 -184.5t-47 -167.5t-82.5 -144.5t-130 -94t-183 -37q-252 0 -355 235l56 25q89 -199 301 -199q77 0 139 24.5t103 62t70.5 97t45.5 115.5t25.5 132t11.5 132t2 129v53
q-27 -87 -89.5 -146.5t-138.5 -84.5t-161 -23q-176 7 -288 133t-107 310zM217 971q-5 -156 90.5 -263.5t245.5 -113.5q100 -3 185.5 40t138 124t55.5 182q1 159 -99.5 265.5t-248.5 111.5q-150 4 -254.5 -94.5t-112.5 -251.5z" />
    <glyph glyph-name="zero.taboldstyle" horiz-adv-x="1187" 
d="M92 514q0 120 40.5 221.5t109 169.5t159.5 106t191 38q101 0 192.5 -38t160 -106t109 -169.5t40.5 -221.5q0 -118 -40.5 -220t-109 -170.5t-160 -107.5t-192.5 -39q-100 0 -191 39t-159.5 107.5t-109 170.5t-40.5 220zM154 514q0 -139 60.5 -249t160 -168t217.5 -58
q183 0 311.5 132.5t128.5 342.5q0 212 -128 342.5t-312 130.5q-88 0 -168 -33.5t-139.5 -93.5t-95 -150t-35.5 -196z" />
    <glyph glyph-name="one.taboldstyle" horiz-adv-x="1187" 
d="M330 811v61l420 164v-1036h-62v948z" />
    <glyph glyph-name="two.taboldstyle" horiz-adv-x="1187" 
d="M258 0v53l494 516q108 108 108 211q0 98 -76.5 161t-193.5 63q-101 0 -177 -44t-94 -120l-59 14q23 99 114.5 155t215.5 56q144 0 238 -80t94 -205q0 -132 -125 -254l-445 -465h578v-61h-672z" />
    <glyph glyph-name="six.taboldstyle" horiz-adv-x="1187" 
d="M193 416q-7 89 -9.5 159.5t1 175t18 184.5t47 167.5t82.5 144.5t130 94t183 37q251 0 354 -235l-55 -25q-89 199 -301 199q-77 0 -139 -24.5t-103 -62t-70.5 -97t-45.5 -115.5t-25.5 -132t-11.5 -132t-2 -129v-54q27 87 89.5 146.5t138.5 84.5t161 23q176 -7 288 -132.5
t107 -309.5q-9 -177 -131 -292t-299 -111q-170 4 -281 123.5t-126 312.5zM254 418q-1 -159 99.5 -265.5t248.5 -111.5q150 -4 254.5 94.5t112.5 251.5q5 156 -90.5 263.5t-245.5 113.5q-100 3 -185.5 -40t-138 -124t-55.5 -182z" />
    <glyph glyph-name="eight.taboldstyle" horiz-adv-x="1187" 
d="M147 399q0 133 80 241t211 151q-80 37 -127 110.5t-47 165.5q0 131 94.5 221t233.5 90q142 0 239 -90t97 -221q0 -91 -50.5 -165.5t-134.5 -113.5q133 -43 215 -149.5t82 -239.5q0 -177 -129 -298t-319 -121t-317.5 120.5t-127.5 298.5zM209 399q0 -151 109.5 -254.5
t273.5 -103.5t275.5 103.5t111.5 254.5q0 144 -109.5 249.5t-267.5 109.5h-27q-155 -4 -260.5 -109.5t-105.5 -249.5zM326 1067q0 -103 73 -177t181 -77h22q113 3 188.5 76.5t75.5 177.5q0 105 -79 177.5t-195 72.5q-113 0 -189.5 -72.5t-76.5 -177.5z" />
    <glyph glyph-name="three.taboldstyle" horiz-adv-x="1187" 
d="M150 -168l55 25q40 -89 130 -147.5t204 -67.5q166 -8 284.5 81t137.5 238q0 158 -92.5 247t-225.5 89h-137v61h137q89 0 170.5 67.5t91.5 170.5q12 124 -70.5 216.5t-236.5 105.5q-95 7 -189.5 -41t-136.5 -123l-53 30q55 95 158 147.5t225 45.5q125 -9 212.5 -64.5
t125 -138.5t27.5 -182q-6 -82 -59 -153.5t-134 -106.5q76 -18 136 -78.5t89 -140.5t23 -158q-15 -168 -157.5 -277.5t-329.5 -97.5q-131 10 -235 79t-150 173z" />
    <glyph glyph-name="four.taboldstyle" horiz-adv-x="1187" 
d="M88 -106l733 1062h43v-1001h217v-61h-217v-297h-61v297h-715zM201 -45h602v881z" />
    <glyph glyph-name="five.taboldstyle" horiz-adv-x="1187" 
d="M147 -168l54 31q56 -95 163 -159t214 -64q188 0 295.5 103.5t107.5 262.5q0 82 -33 149.5t-86.5 110t-117.5 65.5t-130 23q-104 0 -185.5 -21.5t-201.5 -78.5l-24 33l119 667h628v-61h-577l-103 -561q100 44 176.5 64t167.5 20q77 0 152 -27t137 -77t100.5 -130
t38.5 -176q0 -186 -124 -307t-340 -121q-123 0 -245 73.5t-186 180.5z" />
    <glyph glyph-name="seven.taboldstyle" horiz-adv-x="1187" 
d="M209 895v61h846l-750 -1359h-69l716 1298h-743z" />
    <glyph glyph-name="nine.taboldstyle" horiz-adv-x="1187" 
d="M166 573q9 178 131.5 293t298.5 111q170 -4 281.5 -124t126.5 -312q5 -67 7.5 -121.5t2.5 -133.5t-5 -143t-19 -139.5t-36 -134t-58 -115t-83 -93.5t-114 -60t-148 -23q-251 0 -354 236l55 24q89 -198 301 -198q77 0 139 24.5t103 62t70.5 97t45.5 115.5t25.5 132
t11.5 132t2 129v53q-27 -87 -89.5 -146.5t-138.5 -84.5t-161 -23q-176 7 -288 132.5t-107 309.5zM227 569q-5 -156 90.5 -263t245.5 -113q100 -3 185.5 40t138 124t55.5 182q1 159 -99.5 265t-248.5 111q-150 4 -254.5 -94.5t-112.5 -251.5z" />
    <glyph glyph-name="zero.oldstyle" horiz-adv-x="1245" 
d="M121 514q0 120 40.5 221.5t109 169.5t159.5 106t191 38q101 0 192 -38t159.5 -106t109 -169.5t40.5 -221.5q0 -118 -40.5 -220t-109 -170.5t-159.5 -107.5t-192 -39q-100 0 -191 39t-159.5 107.5t-109 170.5t-40.5 220zM182 514q0 -105 35.5 -195t95.5 -150.5t140 -95
t168 -34.5q183 0 311.5 132.5t128.5 342.5q0 212 -128 342.5t-312 130.5q-88 0 -168 -33.5t-140 -93.5t-95.5 -150t-35.5 -196z" />
    <glyph glyph-name="one.oldstyle" horiz-adv-x="704" 
d="M88 811v61l420 164v-1036h-62v948z" />
    <glyph glyph-name="two.oldstyle" horiz-adv-x="956" 
d="M143 0v53l494 516q108 108 108 211q0 98 -76.5 161t-193.5 63q-101 0 -176.5 -44t-93.5 -120l-60 14q23 99 114.5 155t215.5 56q144 0 238 -80t94 -205q0 -132 -125 -254l-444 -465h577v-61h-672z" />
    <glyph glyph-name="three.oldstyle" horiz-adv-x="1075" 
d="M94 -168l56 25q40 -89 129.5 -147.5t203.5 -67.5q166 -8 284.5 81t137.5 238q0 158 -92.5 247t-224.5 89h-137v61h137q89 0 170.5 67.5t91.5 170.5q12 124 -70.5 216.5t-236.5 105.5q-95 7 -189.5 -41t-136.5 -123l-53 30q55 95 158 147.5t225 45.5q125 -9 212.5 -64.5
t124.5 -138.5t27 -182q-6 -82 -58.5 -153.5t-133.5 -106.5q76 -18 136 -78.5t89 -140.5t23 -158q-15 -168 -158 -277.5t-330 -97.5q-131 10 -235 79t-150 173z" />
    <glyph glyph-name="four.oldstyle" horiz-adv-x="1128" 
d="M59 -106l734 1062h43v-1001h217v-61h-217v-297h-62v297h-715zM172 -45h602v881z" />
    <glyph glyph-name="five.oldstyle" horiz-adv-x="1089" 
d="M98 -168l54 31q56 -95 162.5 -159t213.5 -64q188 0 296 103.5t108 262.5q0 82 -33 149.5t-86.5 110t-117.5 65.5t-130 23q-104 0 -185.5 -21.5t-201.5 -78.5l-24 33l118 667h629v-61h-577l-103 -561q100 44 176.5 64t167.5 20q77 0 152 -27t137 -77t100.5 -130t38.5 -176
q0 -186 -124.5 -307t-340.5 -121q-123 0 -244.5 73t-185.5 181z" />
    <glyph glyph-name="six.oldstyle" horiz-adv-x="1128" 
d="M164 416q-7 89 -9.5 159.5t1 175t18 184.5t47 167.5t82.5 144.5t130 94t183 37q252 0 355 -235l-56 -25q-89 199 -301 199q-77 0 -139 -24.5t-103 -62t-70.5 -97t-45.5 -115.5t-25.5 -132t-11.5 -132t-2 -129v-54q27 87 89.5 146.5t138.5 84.5t161 23q176 -7 288 -132.5
t107 -309.5q-9 -177 -131 -292t-299 -111q-170 4 -281 123.5t-126 312.5zM225 418q-1 -159 99.5 -265.5t248.5 -111.5q150 -4 254.5 94.5t112.5 251.5q5 156 -90.5 263.5t-245.5 113.5q-100 3 -185.5 -40t-138 -124t-55.5 -182z" />
    <glyph glyph-name="seven.oldstyle" horiz-adv-x="958" 
d="M94 895v61h846l-750 -1359h-69l717 1298h-744z" />
    <glyph glyph-name="eight.oldstyle" horiz-adv-x="1142" 
d="M125 399q0 133 80 241t211 151q-80 37 -127 110.5t-47 165.5q0 131 94 221t233 90q142 0 239 -90t97 -221q0 -91 -50 -165.5t-134 -113.5q133 -43 215 -149.5t82 -239.5q0 -177 -129.5 -298t-319.5 -121t-317 120.5t-127 298.5zM186 399q0 -151 109.5 -254.5
t273.5 -103.5t275.5 103.5t111.5 254.5q0 144 -109 249.5t-267 109.5h-27q-155 -4 -261 -109.5t-106 -249.5zM303 1067q0 -103 73 -177t181 -77h23q113 3 188.5 76.5t75.5 177.5q0 105 -79.5 177.5t-195.5 72.5q-113 0 -189.5 -72.5t-76.5 -177.5z" />
    <glyph glyph-name="nine.oldstyle" horiz-adv-x="1081" 
d="M113 573q9 178 131.5 293t298.5 111q170 -4 281 -123.5t126 -312.5q5 -67 7.5 -121t3 -133.5t-5 -143.5t-19 -139.5t-35.5 -134t-58 -115t-83 -93.5t-114 -60t-148 -23q-252 0 -355 236l56 24q89 -198 301 -198q77 0 139 24.5t103 62t70.5 97t45.5 115.5t25.5 132
t11.5 132t2 129v53q-27 -87 -89.5 -146.5t-138.5 -84.5t-161 -23q-176 7 -288 132.5t-107 309.5zM174 569q-5 -156 90.5 -263t245.5 -113q100 -3 185.5 40t138 124t55.5 182q1 159 -99.5 265t-248.5 111q-150 4 -254.5 -94.5t-112.5 -251.5z" />
    <glyph glyph-name="Lslash.sc" horiz-adv-x="870" 
d="M63 516v57l142 89v538h61v-500l193 123v-59l-193 -121v-582h535v-61h-596v604z" />
    <glyph glyph-name="Zcaron.sc" horiz-adv-x="960" 
d="M90 0v41l698 1098h-694v61h774v-47l-694 -1092h694v-61h-778zM246 1550h61l172 -184l174 184h62l-189 -223h-92z" />
    <glyph glyph-name="exclam.sc" horiz-adv-x="485" 
d="M182 47q0 24 17.5 39.5t42.5 15.5q27 0 44 -15.5t17 -39.5t-17 -39.5t-44 -15.5q-25 0 -42.5 15.5t-17.5 39.5zM213 1200h61l-2 -921h-57z" />
    <glyph glyph-name="ampersand.sc" horiz-adv-x="1193" 
d="M129 352q0 106 65 205t171 137q-62 38 -98 105.5t-36 136.5q0 115 83.5 194.5t207.5 79.5q162 0 248 -116q-3 -1 -25.5 -17.5t-25.5 -17.5q-65 90 -197 90q-98 0 -163.5 -61.5t-65.5 -151.5q0 -94 62.5 -155.5t160.5 -61.5h313v158h62v-160h166v-55h-166v-310
q0 -69 7.5 -118t27.5 -94t61 -70t103 -29v-61q-90 0 -157 53t-85 153q-36 -101 -134.5 -153.5t-205.5 -52.5q-165 0 -272 107.5t-107 264.5zM190 352q0 -131 90.5 -221t229.5 -90q138 0 227 84.5t92 212.5v324h-317q-136 0 -229 -92t-93 -218z" />
    <glyph glyph-name="question.sc" horiz-adv-x="868" 
d="M104 920q10 132 102.5 212t223.5 80q139 0 239.5 -90t100.5 -233q0 -116 -68 -199.5t-170 -114.5q-45 -14 -73 -26t-55 -34t-39.5 -55.5t-12.5 -80.5v-100h-61v100q0 62 15.5 106t49 72.5t68 44.5t90.5 33q84 26 139.5 93t55.5 161q0 116 -83 189t-196 73
q-106 0 -181.5 -65t-82.5 -173zM262 47q0 24 17.5 39.5t42.5 15.5q27 0 44 -15.5t17 -39.5t-17 -39.5t-44 -15.5q-25 0 -42.5 15.5t-17.5 39.5z" />
    <glyph glyph-name="A.sc" horiz-adv-x="1124" 
d="M70 0l460 1200h64l459 -1200h-66l-125 332h-600l-127 -332h-65zM285 387h555l-279 727z" />
    <glyph glyph-name="B.sc" horiz-adv-x="1120" 
d="M205 0v1200h418q141 0 225 -73.5t84 -208.5q0 -93 -39 -169t-115 -108q95 -31 158 -127t63 -190q0 -134 -89.5 -229t-235.5 -95h-469zM266 61h406q119 0 192.5 77.5t73.5 185.5q0 109 -81 196.5t-206 87.5h-385v-547zM266 666h410q92 0 143 78t51 174q0 106 -68 163.5
t-181 57.5h-355v-473z" />
    <glyph glyph-name="C.sc" horiz-adv-x="1189" 
d="M121 596q0 126 45.5 239t124 195.5t188 131t232.5 48.5q229 0 395 -153l-43 -43q-148 135 -352 135q-147 0 -268.5 -74t-191 -201t-69.5 -278t69.5 -278t191 -201t268.5 -74q201 0 352 135q2 -2 20.5 -22.5t20.5 -22.5q-169 -153 -393 -153q-123 0 -233 48.5t-188 131.5
t-123.5 196.5t-45.5 239.5z" />
    <glyph glyph-name="D.sc" horiz-adv-x="1302" 
d="M205 0v1200h444q123 0 223.5 -46t166.5 -127.5t101.5 -191t35.5 -237.5q0 -171 -60.5 -305.5t-181.5 -213.5t-285 -79h-444zM266 61h383q218 0 341.5 150.5t123.5 386.5q0 154 -53 275.5t-159.5 193.5t-252.5 72h-383v-1078z" />
    <glyph glyph-name="E.sc" horiz-adv-x="997" 
d="M205 0v1200h655v-61h-594v-521h520v-61h-520v-496h615v-61h-676z" />
    <glyph glyph-name="F.sc" horiz-adv-x="933" 
d="M205 0v1200h647v-61h-586v-521h465v-61h-465v-557h-61z" />
    <glyph glyph-name="G.sc" horiz-adv-x="1363" 
d="M121 596q0 168 79 309t217.5 223t305.5 82q201 0 358 -116q-2 -2 -19.5 -25t-19.5 -25q-140 105 -319 105q-112 0 -212.5 -44t-172.5 -118t-114 -176t-42 -215q0 -152 71 -279t195.5 -201.5t274.5 -74.5q210 0 338.5 117.5t148.5 337.5h-374v61h442
q-7 -286 -153.5 -431.5t-401.5 -145.5q-167 0 -305.5 82t-217.5 223.5t-79 310.5z" />
    <glyph glyph-name="H.sc" horiz-adv-x="1282" 
d="M205 0v1200h61v-575h750v575h61v-1200h-61v567h-750v-567h-61z" />
    <glyph glyph-name="I.sc" horiz-adv-x="471" 
d="M205 0v1200h61v-1200h-61z" />
    <glyph glyph-name="J.sc" horiz-adv-x="471" 
d="M-160 -406l8 62q38 -6 74 -6q146 0 214.5 85t68.5 224v1241h61v-1241q0 -79 -19 -144t-58 -117t-107 -81t-160 -29q-42 0 -82 6z" />
    <glyph glyph-name="K.sc" horiz-adv-x="954" 
d="M205 0v1200h61v-614l506 614h78l-522 -633l602 -567h-86l-578 543v-543h-61z" />
    <glyph glyph-name="L.sc" horiz-adv-x="870" 
d="M205 0v1200h61v-1139h535v-61h-596z" />
    <glyph glyph-name="M.sc" horiz-adv-x="1699" 
d="M133 0l152 1200h65l502 -1026l500 1026h63l152 -1200h-62l-137 1100l-483 -983h-68l-485 985l-139 -1102h-60z" />
    <glyph glyph-name="N.sc" horiz-adv-x="1236" 
d="M205 0v1200h71l695 -1108v1108h61v-1200h-71l-695 1104v-1104h-61z" />
    <glyph glyph-name="O.sc" horiz-adv-x="1447" 
d="M121 596q0 168 79.5 309t218 223t304.5 82q167 0 306 -82t218.5 -223t79.5 -309t-79.5 -309.5t-218.5 -224t-306 -82.5q-166 0 -304.5 82.5t-218 224t-79.5 309.5zM182 596q0 -150 71.5 -277.5t196 -201.5t273.5 -74q112 0 213 44t173 118t114.5 176t42.5 215t-42.5 215
t-114.5 176t-173 118t-213 44q-149 0 -273.5 -74t-196 -201.5t-71.5 -277.5z" />
    <glyph glyph-name="P.sc" horiz-adv-x="1085" 
d="M205 0v1200h465q85 0 149.5 -30t102 -81t55.5 -113t18 -132q0 -71 -18.5 -131.5t-56 -111.5t-104 -80t-154.5 -29h-396v-492h-61zM266 553h393q73 0 127.5 24t86 65.5t46.5 92t15 109.5q0 58 -15 109.5t-45.5 94t-82.5 67t-121 24.5h-404v-586z" />
    <glyph glyph-name="Q.sc" horiz-adv-x="1447" 
d="M121 596q0 168 79.5 309t218 223t304.5 82q167 0 306 -82t218.5 -223t79.5 -309q0 -175 -85.5 -319.5t-229.5 -223.5l143 -223l-51 -33l-148 230q-117 -47 -233 -47q-166 0 -304.5 82.5t-218 224t-79.5 309.5zM182 596q0 -150 71.5 -277.5t196 -201.5t273.5 -74
q106 0 199 35l-146 231l53 33l150 -238q131 72 209 203t78 289q0 113 -42.5 215t-114.5 176t-173 118t-213 44q-149 0 -273.5 -74t-196 -201.5t-71.5 -277.5z" />
    <glyph glyph-name="R.sc" horiz-adv-x="1089" 
d="M205 0v1200h440q85 0 149.5 -30t101.5 -81t55 -113t18 -132q0 -67 -18.5 -127.5t-54.5 -110.5t-96.5 -80t-137.5 -30h-64l348 -496h-74l-348 492h-258v-492h-61zM266 553h369q73 0 127 24t85 66t45.5 92t14.5 109t-14.5 110t-44.5 93.5t-82 67t-121 24.5h-379v-586z" />
    <glyph glyph-name="S.sc" horiz-adv-x="1017" 
d="M125 295h61q14 -102 101 -177t215 -75q143 0 231 68t107 161q10 64 -7 116t-56.5 87.5t-89 59t-112.5 38.5l-167 39q-275 60 -275 287q0 90 53 162.5t136.5 110.5t177.5 38q150 0 251 -81.5t111 -217.5h-61q-10 109 -94 173.5t-207 64.5q-122 0 -213.5 -70.5
t-91.5 -179.5q0 -176 225 -227l170 -39q74 -17 133 -45.5t104.5 -72.5t65 -109t6.5 -146q-11 -52 -40.5 -100t-77 -89.5t-120 -66t-159.5 -24.5q-155 0 -259 94.5t-118 220.5z" />
    <glyph glyph-name="T.sc" horiz-adv-x="1003" 
d="M68 1139v61h868v-61h-404v-1139h-61v1139h-403z" />
    <glyph glyph-name="U.sc" horiz-adv-x="1212" 
d="M190 393v805h62v-805q0 -156 102 -254t252 -98t252.5 98t102.5 254v805h61v-805q0 -183 -120.5 -298t-295.5 -115t-295.5 115t-120.5 298z" />
    <glyph glyph-name="V.sc" horiz-adv-x="978" 
d="M88 1200h66l335 -1124l336 1124h66l-361 -1200h-81z" />
    <glyph glyph-name="W.sc" horiz-adv-x="1642" 
d="M74 1200h63l377 -1112l270 926h74l268 -928l377 1114h66l-408 -1200h-71l-269 920l-270 -920h-70z" />
    <glyph glyph-name="X.sc" horiz-adv-x="1032" 
d="M45 0l432 649l-368 551h73l332 -502l334 502h76l-373 -551l436 -649h-76l-397 598l-395 -598h-74z" />
    <glyph glyph-name="Y.sc" horiz-adv-x="1077" 
d="M59 1200h74l406 -567l407 567h74l-451 -629v-571h-61v573z" />
    <glyph glyph-name="Z.sc" horiz-adv-x="960" 
d="M90 0v41l698 1098h-694v61h774v-47l-694 -1092h694v-61h-778z" />
    <glyph glyph-name="Scaron.sc" horiz-adv-x="1017" 
d="M125 295h61q14 -102 101 -177t215 -75q143 0 231 68t107 161q10 64 -7 116t-56.5 87.5t-89 59t-112.5 38.5l-167 39q-275 60 -275 287q0 90 53 162.5t136.5 110.5t177.5 38q150 0 251 -81.5t111 -217.5h-61q-10 109 -94 173.5t-207 64.5q-122 0 -213.5 -70.5
t-91.5 -179.5q0 -176 225 -227l170 -39q74 -17 133 -45.5t104.5 -72.5t65 -109t6.5 -146q-11 -52 -40.5 -100t-77 -89.5t-120 -66t-159.5 -24.5q-155 0 -259 94.5t-118 220.5zM281 1550h61l172 -184l174 184h62l-189 -223h-92z" />
    <glyph glyph-name="OE.sc" horiz-adv-x="2060" 
d="M121 596q0 168 79.5 309t218 223t304.5 82q180 0 326 -96t219 -254v340h655v-61h-594v-521h520v-61h-520v-496h615v-61h-676v330q-73 -158 -219 -254t-326 -96q-166 0 -304.5 82.5t-218 224t-79.5 309.5zM182 596q0 -150 71.5 -277.5t196 -201.5t273.5 -74
q151 0 276 74.5t196 201.5t71 279q0 113 -42.5 214.5t-114.5 175.5t-173 117.5t-213 43.5q-149 0 -273.5 -74t-196 -201.5t-71.5 -277.5z" />
    <glyph glyph-name="Ydieresis.sc" horiz-adv-x="1077" 
d="M59 1200h74l406 -567l407 567h74l-451 -629v-571h-61v573zM344 1466q0 24 17 40t42 16t42.5 -16t17.5 -40q0 -23 -17.5 -38t-42.5 -15t-42 15t-17 38zM616 1466q0 24 17.5 40t42.5 16t42 -16t17 -40q0 -23 -17 -38t-42 -15t-42.5 15t-17.5 38z" />
    <glyph glyph-name="exclamdown.sc" horiz-adv-x="481" 
d="M180 1145q0 24 17.5 39.5t42.5 15.5q27 0 44 -15.5t17 -39.5t-17 -39.5t-44 -15.5q-25 0 -42.5 15.5t-17.5 39.5zM211 -8l2 921h57l2 -921h-61z" />
    <glyph glyph-name="questiondown.sc" horiz-adv-x="866" 
d="M98 305q0 115 68 200t170 116q45 14 73 26t55 34t39.5 55.5t12.5 80.5v115h62v-115q0 -62 -15.5 -106t-49.5 -72.5t-68.5 -44.5t-90.5 -33q-84 -26 -139 -94.5t-55 -161.5q0 -115 83.5 -187.5t196.5 -72.5q105 0 180 65t82 171l62 -5q-9 -133 -101 -212.5t-223 -79.5
q-139 0 -240.5 89t-101.5 232zM485 1161q0 25 17.5 40.5t44.5 15.5q25 0 42 -16t17 -40t-17 -39.5t-42 -15.5q-27 0 -44.5 15.5t-17.5 39.5z" />
    <glyph glyph-name="Agrave.sc" horiz-adv-x="1124" 
d="M70 0l460 1200h64l459 -1200h-66l-125 332h-600l-127 -332h-65zM285 387h555l-279 727zM375 1544h74l135 -223h-58z" />
    <glyph glyph-name="Aacute.sc" horiz-adv-x="1124" 
d="M70 0l460 1200h64l459 -1200h-66l-125 332h-600l-127 -332h-65zM285 387h555l-279 727zM549 1321l135 223h74l-152 -223h-57z" />
    <glyph glyph-name="Acircumflex.sc" horiz-adv-x="1124" 
d="M70 0l460 1200h64l459 -1200h-66l-125 332h-600l-127 -332h-65zM285 387h555l-279 727zM326 1321l188 223h94l187 -223h-62l-172 184l-174 -184h-61z" />
    <glyph glyph-name="Atilde.sc" horiz-adv-x="1124" 
d="M70 0l460 1200h64l459 -1200h-66l-125 332h-600l-127 -332h-65zM285 387h555l-279 727zM354 1366q3 66 40 98.5t79 34.5q23 0 31 -2q30 -6 73.5 -40t69.5 -34q22 0 42.5 19t21.5 57h57q-3 -65 -39.5 -98t-77.5 -33q-37 0 -91.5 38t-84.5 38q-22 0 -42 -19t-21 -59h-58z
" />
    <glyph glyph-name="Adieresis.sc" horiz-adv-x="1124" 
d="M70 0l460 1200h64l459 -1200h-66l-125 332h-600l-127 -332h-65zM285 387h555l-279 727zM362 1466q0 24 17.5 40t42.5 16q26 0 43.5 -15.5t17.5 -40.5q0 -23 -17.5 -38t-43.5 -15q-25 0 -42.5 15t-17.5 38zM635 1466q0 24 17 40t42 16q27 0 44.5 -15.5t17.5 -40.5
q0 -23 -18 -38t-44 -15q-25 0 -42 15t-17 38z" />
    <glyph glyph-name="Aring.sc" horiz-adv-x="1124" 
d="M70 0l460 1200h64l459 -1200h-66l-125 332h-600l-127 -332h-65zM285 387h555l-279 727zM414 1497q0 62 41.5 106t101.5 44q63 0 106.5 -44t43.5 -106t-43.5 -104.5t-106.5 -42.5q-60 0 -101.5 42.5t-41.5 104.5zM467 1497q0 -40 26 -67t64 -27q41 0 68.5 27t27.5 67
t-27.5 68t-68.5 28q-38 0 -64 -28t-26 -68z" />
    <glyph glyph-name="AE.sc" horiz-adv-x="1732" 
d="M57 0l787 1200h751v-61h-594v-521h521v-61h-521v-496h615v-61h-676v336h-590l-219 -336h-74zM389 397h551v742h-63z" />
    <glyph glyph-name="Ccedilla.sc" horiz-adv-x="1191" 
d="M123 596q0 126 45.5 239t124 195.5t188 131t232.5 48.5q229 0 395 -153l-43 -43q-148 135 -352 135q-147 0 -268.5 -74t-191 -201t-69.5 -278t69.5 -278t191 -201t268.5 -74q201 0 352 135l41 -45q-158 -145 -379 -151h-27l43 -105q26 -64 2.5 -123.5t-86.5 -85.5
q-36 -16 -74.5 -10.5t-70 24.5t-52 57t-20.5 85l56 -2q0 -58 44 -90t95 -13q31 13 48 39.5t15 57.5q0 20 -8 39l-55 131q-221 28 -367.5 201.5t-146.5 408.5z" />
    <glyph glyph-name="Egrave.sc" horiz-adv-x="997" 
d="M205 0v1200h655v-61h-594v-521h520v-61h-520v-496h615v-61h-676zM360 1544h76l135 -223h-57z" />
    <glyph glyph-name="Eacute.sc" horiz-adv-x="997" 
d="M205 0v1200h655v-61h-594v-521h520v-61h-520v-496h615v-61h-676zM444 1321l136 223h73l-151 -223h-58z" />
    <glyph glyph-name="Ecircumflex.sc" horiz-adv-x="997" 
d="M205 0v1200h655v-61h-594v-521h520v-61h-520v-496h615v-61h-676zM274 1321l187 223h94l188 -223h-63l-172 184l-172 -184h-62z" />
    <glyph glyph-name="Edieresis.sc" horiz-adv-x="997" 
d="M205 0v1200h655v-61h-594v-521h520v-61h-520v-496h615v-61h-676zM326 1466q0 24 17 40t42 16q26 0 43.5 -15.5t17.5 -40.5q0 -23 -17.5 -38t-43.5 -15q-25 0 -42 15t-17 38zM598 1466q0 24 17 40t42 16q27 0 44.5 -15.5t17.5 -40.5q0 -23 -18 -38t-44 -15q-25 0 -42 15
t-17 38z" />
    <glyph glyph-name="Igrave.sc" horiz-adv-x="471" 
d="M53 1544h74l135 -223h-57zM205 0v1200h61v-1200h-61z" />
    <glyph glyph-name="Iacute.sc" horiz-adv-x="471" 
d="M203 1321l135 223h74l-152 -223h-57zM205 0v1200h61v-1200h-61z" />
    <glyph glyph-name="Icircumflex.sc" horiz-adv-x="471" 
d="M2 1321l188 223h93l188 -223h-61l-174 184l-173 -184h-61zM205 0v1200h61v-1200h-61z" />
    <glyph glyph-name="Idieresis.sc" horiz-adv-x="471" 
d="M39 1466q0 24 17 40t42 16t42.5 -16t17.5 -40q0 -23 -17.5 -38t-42.5 -15t-42 15t-17 38zM205 0v1200h61v-1200h-61zM311 1466q0 24 17.5 40t42.5 16t42 -16t17 -40q0 -23 -17 -38t-42 -15t-42.5 15t-17.5 38z" />
    <glyph glyph-name="Eth.sc" horiz-adv-x="1304" 
d="M37 563v58h170v579h444q123 0 223.5 -46t166.5 -127.5t101.5 -191t35.5 -237.5q0 -171 -60.5 -305.5t-181.5 -213.5t-285 -79h-444v563h-170zM268 61h383q218 0 341.5 150.5t123.5 386.5q0 154 -53 275.5t-159.5 193.5t-252.5 72h-383v-518h332v-58h-332v-502z" />
    <glyph glyph-name="Ntilde.sc" horiz-adv-x="1236" 
d="M205 0v1200h71l695 -1108v1108h61v-1200h-71l-695 1104v-1104h-61zM410 1366q3 66 39.5 98.5t78.5 34.5q23 0 31 -2q30 -6 73.5 -40t69.5 -34q22 0 42.5 19t21.5 57h57q-3 -65 -39 -98t-77 -33q-37 0 -92 38t-85 38q-22 0 -42 -19t-21 -59h-57z" />
    <glyph glyph-name="Ograve.sc" horiz-adv-x="1447" 
d="M121 596q0 168 79.5 309t218 223t304.5 82q167 0 306 -82t218.5 -223t79.5 -309t-79.5 -309.5t-218.5 -224t-306 -82.5q-166 0 -304.5 82.5t-218 224t-79.5 309.5zM182 596q0 -150 71.5 -277.5t196 -201.5t273.5 -74q112 0 213 44t173 118t114.5 176t42.5 215t-42.5 215
t-114.5 176t-173 118t-213 44q-149 0 -273.5 -74t-196 -201.5t-71.5 -277.5zM543 1546h75l136 -223h-58z" />
    <glyph glyph-name="Oacute.sc" horiz-adv-x="1447" 
d="M121 596q0 168 79.5 309t218 223t304.5 82q167 0 306 -82t218.5 -223t79.5 -309t-79.5 -309.5t-218.5 -224t-306 -82.5q-166 0 -304.5 82.5t-218 224t-79.5 309.5zM182 596q0 -150 71.5 -277.5t196 -201.5t273.5 -74q112 0 213 44t173 118t114.5 176t42.5 215t-42.5 215
t-114.5 176t-173 118t-213 44q-149 0 -273.5 -74t-196 -201.5t-71.5 -277.5zM678 1323l135 223h76l-154 -223h-57z" />
    <glyph glyph-name="Ocircumflex.sc" horiz-adv-x="1447" 
d="M121 596q0 168 79.5 309t218 223t304.5 82q167 0 306 -82t218.5 -223t79.5 -309t-79.5 -309.5t-218.5 -224t-306 -82.5q-166 0 -304.5 82.5t-218 224t-79.5 309.5zM182 596q0 -150 71.5 -277.5t196 -201.5t273.5 -74q112 0 213 44t173 118t114.5 176t42.5 215t-42.5 215
t-114.5 176t-173 118t-213 44q-149 0 -273.5 -74t-196 -201.5t-71.5 -277.5zM496 1323l186 223h94l189 -223h-64l-172 184l-172 -184h-61z" />
    <glyph glyph-name="Otilde.sc" horiz-adv-x="1447" 
d="M121 596q0 168 79.5 309t218 223t304.5 82q167 0 306 -82t218.5 -223t79.5 -309t-79.5 -309.5t-218.5 -224t-306 -82.5q-166 0 -304.5 82.5t-218 224t-79.5 309.5zM182 596q0 -150 71.5 -277.5t196 -201.5t273.5 -74q112 0 213 44t173 118t114.5 176t42.5 215t-42.5 215
t-114.5 176t-173 118t-213 44q-149 0 -273.5 -74t-196 -201.5t-71.5 -277.5zM518 1366q3 66 40 98.5t79 34.5q23 0 31 -2q30 -6 73.5 -40t69.5 -34q22 0 42 19t21 57h58q-3 -65 -39.5 -98t-77.5 -33q-37 0 -91.5 38t-84.5 38q-22 0 -42.5 -19t-21.5 -59h-57z" />
    <glyph glyph-name="Odieresis.sc" horiz-adv-x="1447" 
d="M121 596q0 168 79.5 309t218 223t304.5 82q167 0 306 -82t218.5 -223t79.5 -309t-79.5 -309.5t-218.5 -224t-306 -82.5q-166 0 -304.5 82.5t-218 224t-79.5 309.5zM182 596q0 -150 71.5 -277.5t196 -201.5t273.5 -74q112 0 213 44t173 118t114.5 176t42.5 215t-42.5 215
t-114.5 176t-173 118t-213 44q-149 0 -273.5 -74t-196 -201.5t-71.5 -277.5zM535 1468q0 24 17 40t42 16t43 -16t18 -40q0 -23 -18 -38t-43 -15t-42 15t-17 38zM807 1468q0 24 17 40t42 16q27 0 44.5 -15.5t17.5 -40.5q0 -23 -18 -38t-44 -15q-25 0 -42 15t-17 38z" />
    <glyph glyph-name="Oslash.sc" horiz-adv-x="1445" 
d="M119 20l157 160q-74 83 -114.5 190t-40.5 226q0 168 79.5 309t218 223t304.5 82q118 0 223.5 -42t186.5 -117l161 161l39 -38l-162 -164q156 -180 156 -414q0 -168 -79.5 -309.5t-218.5 -224t-306 -82.5q-237 0 -406 159l-157 -159zM182 596q0 -217 137 -373l771 783
q-156 143 -367 143q-149 0 -273.5 -74t-196 -201.5t-71.5 -277.5zM360 182q152 -139 363 -139q112 0 213 44t173 118t114.5 176t42.5 215q0 103 -36.5 199t-101.5 170z" />
    <glyph glyph-name="Ugrave.sc" horiz-adv-x="1212" 
d="M190 393v805h62v-805q0 -156 102 -254t252 -98t252.5 98t102.5 254v805h61v-805q0 -183 -120.5 -298t-295.5 -115t-295.5 115t-120.5 298zM434 1544h74l135 -223h-57z" />
    <glyph glyph-name="Uacute.sc" horiz-adv-x="1212" 
d="M190 393v805h62v-805q0 -156 102 -254t252 -98t252.5 98t102.5 254v805h61v-805q0 -183 -120.5 -298t-295.5 -115t-295.5 115t-120.5 298zM563 1321l135 223h74l-151 -223h-58z" />
    <glyph glyph-name="Ucircumflex.sc" horiz-adv-x="1212" 
d="M190 393v805h62v-805q0 -156 102 -254t252 -98t252.5 98t102.5 254v805h61v-805q0 -183 -120.5 -298t-295.5 -115t-295.5 115t-120.5 298zM381 1323l186 223h95l188 -223h-64l-172 184l-172 -184h-61z" />
    <glyph glyph-name="Udieresis.sc" horiz-adv-x="1212" 
d="M190 393v805h62v-805q0 -156 102 -254t252 -98t252.5 98t102.5 254v805h61v-805q0 -183 -120.5 -298t-295.5 -115t-295.5 115t-120.5 298zM410 1466q0 24 17 40t42 16q26 0 43.5 -15.5t17.5 -40.5q0 -23 -17.5 -38t-43.5 -15q-25 0 -42 15t-17 38zM682 1466q0 24 17 40
t42 16q27 0 44.5 -15.5t17.5 -40.5q0 -23 -18 -38t-44 -15q-25 0 -42 15t-17 38z" />
    <glyph glyph-name="Yacute.sc" horiz-adv-x="1077" 
d="M59 1200h74l406 -567l407 567h74l-451 -629v-571h-61v573zM504 1321l135 223h74l-152 -223h-57z" />
    <glyph glyph-name="Thorn.sc" horiz-adv-x="1028" 
d="M205 0v1200h61v-233h326q147 0 245.5 -96.5t98.5 -252.5q0 -159 -98.5 -257.5t-245.5 -98.5h-326v-262h-61zM266 324h326q121 0 201.5 81.5t80.5 212.5q0 128 -80.5 207.5t-201.5 79.5h-326v-581z" />
    <glyph glyph-name="Amacron.sc" horiz-adv-x="1124" 
d="M70 0l460 1200h64l459 -1200h-66l-125 332h-600l-127 -332h-65zM285 387h555l-279 727zM369 1403v55h399v-55h-399z" />
    <glyph glyph-name="Abreve.sc" horiz-adv-x="1124" 
d="M70 0l460 1200h64l459 -1200h-66l-125 332h-600l-127 -332h-65zM285 387h555l-279 727zM367 1528h53q0 -53 35.5 -89t103.5 -36q64 0 102.5 34.5t38.5 90.5h54q0 -82 -53.5 -131t-141.5 -49q-96 0 -144 52.5t-48 127.5z" />
    <glyph glyph-name="Cacute.sc" horiz-adv-x="1189" 
d="M121 596q0 126 45.5 239t124 195.5t188 131t232.5 48.5q229 0 395 -153l-43 -43q-148 135 -352 135q-147 0 -268.5 -74t-191 -201t-69.5 -278t69.5 -278t191 -201t268.5 -74q201 0 352 135q2 -2 20.5 -22.5t20.5 -22.5q-169 -153 -393 -153q-123 0 -233 48.5t-188 131.5
t-123.5 196.5t-45.5 239.5zM635 1327l135 223h74l-152 -223h-57z" />
    <glyph glyph-name="Ccircumflex.sc" horiz-adv-x="1189" 
d="M121 596q0 126 45.5 239t124 195.5t188 131t232.5 48.5q229 0 395 -153l-43 -43q-148 135 -352 135q-147 0 -268.5 -74t-191 -201t-69.5 -278t69.5 -278t191 -201t268.5 -74q201 0 352 135q2 -2 20.5 -22.5t20.5 -22.5q-169 -153 -393 -153q-123 0 -233 48.5t-188 131.5
t-123.5 196.5t-45.5 239.5zM455 1327l186 223h94l187 -223h-62l-172 184l-172 -184h-61z" />
    <glyph glyph-name="Cdotaccent.sc" horiz-adv-x="1189" 
d="M121 596q0 126 45.5 239t124 195.5t188 131t232.5 48.5q229 0 395 -153l-43 -43q-148 135 -352 135q-147 0 -268.5 -74t-191 -201t-69.5 -278t69.5 -278t191 -201t268.5 -74q201 0 352 135q2 -2 20.5 -22.5t20.5 -22.5q-169 -153 -393 -153q-123 0 -233 48.5t-188 131.5
t-123.5 196.5t-45.5 239.5zM627 1473q0 24 17 39.5t42 15.5q27 0 44.5 -15.5t17.5 -39.5q0 -23 -18 -38.5t-44 -15.5q-25 0 -42 15.5t-17 38.5z" />
    <glyph glyph-name="Ccaron.sc" horiz-adv-x="1189" 
d="M121 596q0 126 45.5 239t124 195.5t188 131t232.5 48.5q229 0 395 -153l-43 -43q-148 135 -352 135q-147 0 -268.5 -74t-191 -201t-69.5 -278t69.5 -278t191 -201t268.5 -74q201 0 352 135q2 -2 20.5 -22.5t20.5 -22.5q-169 -153 -393 -153q-123 0 -233 48.5t-188 131.5
t-123.5 196.5t-45.5 239.5zM451 1550h61l172 -184l174 184h62l-189 -223h-94z" />
    <glyph glyph-name="Dcaron.sc" horiz-adv-x="1302" 
d="M205 0v1200h444q123 0 223.5 -46t166.5 -127.5t101.5 -191t35.5 -237.5q0 -171 -60.5 -305.5t-181.5 -213.5t-285 -79h-444zM266 61h383q218 0 341.5 150.5t123.5 386.5q0 154 -53 275.5t-159.5 193.5t-252.5 72h-383v-1078zM389 1550h64l172 -184l172 184h61l-186 -223
h-94z" />
    <glyph glyph-name="Aogonek.sc" horiz-adv-x="1124" 
d="M70 0l460 1200h64l459 -1200l-56 -121q-12 -25 -16 -61q-2 -31 14.5 -57.5t46.5 -39.5q51 -19 96.5 12.5t45.5 90.5l55 2q0 -95 -71 -141.5t-146 -14.5q-63 26 -86.5 85.5t2.5 123.5l49 121l-125 332h-600l-127 -332h-65zM285 387h555l-279 727z" />
    <glyph glyph-name="Emacron.sc" horiz-adv-x="997" 
d="M205 0v1200h655v-61h-594v-521h520v-61h-520v-496h615v-61h-676zM338 1403v55h399v-55h-399z" />
    <glyph glyph-name="Ebreve.sc" horiz-adv-x="997" 
d="M205 0v1200h655v-61h-594v-521h520v-61h-520v-496h615v-61h-676zM344 1528h53q2 -54 37 -89.5t103 -35.5q65 0 103 34.5t40 90.5h53q0 -82 -53.5 -131t-142.5 -49q-95 0 -144 53t-49 127z" />
    <glyph glyph-name="Edotaccent.sc" horiz-adv-x="997" 
d="M205 0v1200h655v-61h-594v-521h520v-61h-520v-496h615v-61h-676zM479 1473q0 24 17.5 39.5t42.5 15.5t42 -15.5t17 -39.5q0 -23 -17 -38.5t-42 -15.5t-42.5 15.5t-17.5 38.5z" />
    <glyph glyph-name="Ecaron.sc" horiz-adv-x="997" 
d="M205 0v1200h655v-61h-594v-521h520v-61h-520v-496h615v-61h-676zM289 1550h61l172 -184l174 184h62l-189 -223h-94z" />
    <glyph glyph-name="Gcircumflex.sc" horiz-adv-x="1363" 
d="M121 596q0 168 79 309t217.5 223t305.5 82q201 0 358 -116q-2 -2 -19.5 -25t-19.5 -25q-140 105 -319 105q-112 0 -212.5 -44t-172.5 -118t-114 -176t-42 -215q0 -152 71 -279t195.5 -201.5t274.5 -74.5q210 0 338.5 117.5t148.5 337.5h-374v61h442
q-7 -286 -153.5 -431.5t-401.5 -145.5q-167 0 -305.5 82t-217.5 223.5t-79 310.5zM457 1327l188 223h94l187 -223h-62l-172 184l-172 -184h-63z" />
    <glyph glyph-name="Gbreve.sc" horiz-adv-x="1363" 
d="M121 596q0 168 79 309t217.5 223t305.5 82q201 0 358 -116q-2 -2 -19.5 -25t-19.5 -25q-140 105 -319 105q-112 0 -212.5 -44t-172.5 -118t-114 -176t-42 -215q0 -152 71 -279t195.5 -201.5t274.5 -74.5q210 0 338.5 117.5t148.5 337.5h-374v61h442
q-7 -286 -153.5 -431.5t-401.5 -145.5q-167 0 -305.5 82t-217.5 223.5t-79 310.5zM522 1528h53q2 -54 37.5 -89.5t104.5 -35.5q64 0 101.5 34.5t39.5 90.5h53q0 -82 -53 -131t-141 -49q-96 0 -145.5 52.5t-49.5 127.5z" />
    <glyph glyph-name="Eogonek.sc" horiz-adv-x="997" 
d="M205 0v1200h655v-61h-594v-521h520v-61h-520v-496h615v-61l-60 -143q-8 -19 -8 -39q-2 -31 14.5 -57.5t46.5 -39.5q50 -19 95 12.5t45 90.5l57 2q0 -95 -71 -141.5t-146 -14.5q-63 26 -87 85t3 124l53 121h-618z" />
    <glyph glyph-name="Dcroat.sc" horiz-adv-x="1304" 
d="M37 563v58h170v579h444q123 0 223.5 -46t166.5 -127.5t101.5 -191t35.5 -237.5q0 -171 -60.5 -305.5t-181.5 -213.5t-285 -79h-444v563h-170zM268 61h383q218 0 341.5 150.5t123.5 386.5q0 154 -53 275.5t-159.5 193.5t-252.5 72h-383v-518h332v-58h-332v-502z" />
    <glyph glyph-name="Gdotaccent.sc" horiz-adv-x="1363" 
d="M121 596q0 168 79 309t217.5 223t305.5 82q201 0 358 -116q-2 -2 -19.5 -25t-19.5 -25q-140 105 -319 105q-112 0 -212.5 -44t-172.5 -118t-114 -176t-42 -215q0 -152 71 -279t195.5 -201.5t274.5 -74.5q210 0 338.5 117.5t148.5 337.5h-374v61h442
q-7 -286 -153.5 -431.5t-401.5 -145.5q-167 0 -305.5 82t-217.5 223.5t-79 310.5zM655 1473q0 24 17.5 39.5t42.5 15.5t42 -15.5t17 -39.5q0 -23 -17 -38.5t-42 -15.5t-42.5 15.5t-17.5 38.5z" />
    <glyph glyph-name="Hcircumflex.sc" horiz-adv-x="1282" 
d="M205 0v1200h61v-575h750v575h61v-1200h-61v567h-750v-567h-61zM408 1327l186 223h94l189 -223h-64l-172 184l-172 -184h-61z" />
    <glyph glyph-name="Hbar.sc" horiz-adv-x="1302" 
d="M98 911v54h117v235h61v-235h750v235h61v-235h132v-54h-132v-911h-61v567h-750v-567h-61v911h-117zM276 625h750v286h-750v-286z" />
    <glyph glyph-name="Itilde.sc" horiz-adv-x="471" 
d="M29 1366q3 66 39.5 98.5t78.5 34.5q23 0 31 -2q30 -6 74 -40t70 -34q22 0 42 19t21 57h57q-3 -65 -39 -98t-77 -33q-37 0 -91.5 38t-84.5 38q-22 0 -42.5 -19t-21.5 -59h-57zM205 0v1200h61v-1200h-61z" />
    <glyph glyph-name="Imacron.sc" horiz-adv-x="471" 
d="M35 1403v55h399v-55h-399zM205 0v1200h61v-1200h-61z" />
    <glyph glyph-name="Iogonek.sc" horiz-adv-x="471" 
d="M152 -121l51 121v1200h61v-1200h-8l-53 -143q-8 -28 -8 -39q0 -69 63 -97q53 -20 96 11t43 92l58 2q0 -95 -71 -141.5t-146 -14.5q-64 26 -88.5 85t2.5 124z" />
    <glyph glyph-name="IJ.sc" horiz-adv-x="942" 
d="M205 0v1200h61v-1200h-61zM311 -406l8 62q38 -6 74 -6q146 0 214.5 85t68.5 224v1241h61v-1241q0 -79 -19 -144t-58 -117t-107 -81t-160 -29q-41 0 -82 6z" />
    <glyph glyph-name="Jcircumflex.sc" horiz-adv-x="471" 
d="M-160 -406l8 62q38 -6 74 -6q146 0 214.5 85t68.5 224v1241h61v-1241q0 -79 -19 -144t-58 -117t-107 -81t-160 -29q-42 0 -82 6zM2 1327l186 223h95l188 -223h-63l-172 184l-173 -184h-61z" />
    <glyph glyph-name="Lacute.sc" horiz-adv-x="870" 
d="M205 0v1200h61v-1139h535v-61h-596zM207 1327l135 223h76l-152 -223h-59z" />
    <glyph glyph-name="Lcaron.sc" horiz-adv-x="870" 
d="M205 0v1200h61v-1139h535v-61h-596zM477 895q87 111 84 303h60q1 -114 -29 -187.5t-84 -133.5z" />
    <glyph glyph-name="Ldot.sc" horiz-adv-x="870" 
d="M205 0v1200h61v-1139h535v-61h-596zM451 365q0 24 17 39.5t42 15.5t42 -15.5t17 -39.5q0 -23 -17 -38.5t-42 -15.5t-42 15.5t-17 38.5z" />
    <glyph glyph-name="Nacute.sc" horiz-adv-x="1236" 
d="M205 0v1200h71l695 -1108v1108h61v-1200h-71l-695 1104v-1104h-61zM563 1327l135 223h74l-151 -223h-58z" />
    <glyph glyph-name="Ncaron.sc" horiz-adv-x="1236" 
d="M205 0v1200h71l695 -1108v1108h61v-1200h-71l-695 1104v-1104h-61zM383 1550h61l172 -184l175 184h61l-188 -223h-93z" />
    <glyph glyph-name="Omacron.sc" horiz-adv-x="1447" 
d="M121 596q0 168 79.5 309t218 223t304.5 82q167 0 306 -82t218.5 -223t79.5 -309t-79.5 -309.5t-218.5 -224t-306 -82.5q-166 0 -304.5 82.5t-218 224t-79.5 309.5zM182 596q0 -150 71.5 -277.5t196 -201.5t273.5 -74q112 0 213 44t173 118t114.5 176t42.5 215t-42.5 215
t-114.5 176t-173 118t-213 44q-149 0 -273.5 -74t-196 -201.5t-71.5 -277.5zM524 1403v55h400v-55h-400z" />
    <glyph glyph-name="Obreve.sc" horiz-adv-x="1447" 
d="M121 596q0 168 79.5 309t218 223t304.5 82q167 0 306 -82t218.5 -223t79.5 -309t-79.5 -309.5t-218.5 -224t-306 -82.5q-166 0 -304.5 82.5t-218 224t-79.5 309.5zM182 596q0 -150 71.5 -277.5t196 -201.5t273.5 -74q112 0 213 44t173 118t114.5 176t42.5 215t-42.5 215
t-114.5 176t-173 118t-213 44q-149 0 -273.5 -74t-196 -201.5t-71.5 -277.5zM524 1530h54q2 -54 37.5 -90.5t103.5 -36.5q64 0 102.5 35.5t38.5 91.5h53q0 -82 -53 -131t-141 -49q-96 0 -145.5 52.5t-49.5 127.5z" />
    <glyph glyph-name="Ohungarumlaut.sc" horiz-adv-x="1447" 
d="M121 596q0 168 79.5 309t218 223t304.5 82q167 0 306 -82t218.5 -223t79.5 -309t-79.5 -309.5t-218.5 -224t-306 -82.5q-166 0 -304.5 82.5t-218 224t-79.5 309.5zM182 596q0 -150 71.5 -277.5t196 -201.5t273.5 -74q112 0 213 44t173 118t114.5 176t42.5 215t-42.5 215
t-114.5 176t-173 118t-213 44q-149 0 -273.5 -74t-196 -201.5t-71.5 -277.5zM584 1329l135 223h74l-150 -223h-59zM778 1329l135 223h76l-153 -223h-58z" />
    <glyph glyph-name="Racute.sc" horiz-adv-x="1089" 
d="M205 0v1200h440q85 0 149.5 -30t101.5 -81t55 -113t18 -132q0 -67 -18.5 -127.5t-54.5 -110.5t-96.5 -80t-137.5 -30h-64l348 -496h-74l-348 492h-258v-492h-61zM266 553h369q73 0 127 24t85 66t45.5 92t14.5 109t-14.5 110t-44.5 93.5t-82 67t-121 24.5h-379v-586z
M487 1327l136 223h73l-151 -223h-58z" />
    <glyph glyph-name="Rcaron.sc" horiz-adv-x="1089" 
d="M205 0v1200h440q85 0 149.5 -30t101.5 -81t55 -113t18 -132q0 -67 -18.5 -127.5t-54.5 -110.5t-96.5 -80t-137.5 -30h-64l348 -496h-74l-348 492h-258v-492h-61zM266 553h369q73 0 127 24t85 66t45.5 92t14.5 109t-14.5 110t-44.5 93.5t-82 67t-121 24.5h-379v-586z
M315 1550h62l172 -184l174 184h61l-188 -223h-92z" />
    <glyph glyph-name="Sacute.sc" horiz-adv-x="1017" 
d="M125 295h61q14 -102 101 -177t215 -75q143 0 231 68t107 161q10 64 -7 116t-56.5 87.5t-89 59t-112.5 38.5l-167 39q-275 60 -275 287q0 90 53 162.5t136.5 110.5t177.5 38q150 0 251 -81.5t111 -217.5h-61q-10 109 -94 173.5t-207 64.5q-122 0 -213.5 -70.5
t-91.5 -179.5q0 -176 225 -227l170 -39q74 -17 133 -45.5t104.5 -72.5t65 -109t6.5 -146q-11 -52 -40.5 -100t-77 -89.5t-120 -66t-159.5 -24.5q-155 0 -259 94.5t-118 220.5zM459 1327l135 223h74l-152 -223h-57z" />
    <glyph glyph-name="Scircumflex.sc" horiz-adv-x="1017" 
d="M125 295h61q14 -102 101 -177t215 -75q143 0 231 68t107 161q10 64 -7 116t-56.5 87.5t-89 59t-112.5 38.5l-167 39q-275 60 -275 287q0 90 53 162.5t136.5 110.5t177.5 38q150 0 251 -81.5t111 -217.5h-61q-10 109 -94 173.5t-207 64.5q-122 0 -213.5 -70.5
t-91.5 -179.5q0 -176 225 -227l170 -39q74 -17 133 -45.5t104.5 -72.5t65 -109t6.5 -146q-11 -52 -40.5 -100t-77 -89.5t-120 -66t-159.5 -24.5q-155 0 -259 94.5t-118 220.5zM281 1327l188 223h92l189 -223h-62l-174 184l-172 -184h-61z" />
    <glyph glyph-name="Scedilla.sc" horiz-adv-x="1021" 
d="M127 295h61q14 -102 101 -177t215 -75q143 0 231 68t107 161q10 64 -7 116t-56 87.5t-88.5 59t-112.5 38.5l-168 39q-275 60 -275 287q0 90 53 162.5t136.5 110.5t177.5 38q150 0 251 -81.5t111 -217.5h-61q-10 109 -94 173.5t-207 64.5q-122 0 -213.5 -70t-91.5 -180
q0 -176 225 -227l170 -39q74 -17 133 -45.5t104.5 -72.5t65 -109t6.5 -146q-21 -102 -109.5 -181.5t-232.5 -92.5l45 -109q27 -65 3 -124t-87 -85q-76 -32 -146.5 14.5t-70.5 141.5l57 -2q0 -59 45 -90.5t95 -12.5q30 13 46.5 39.5t14.5 57.5q0 20 -8 39l-53 125
q-76 0 -144 27t-115 72t-77 101t-37 115z" />
    <glyph glyph-name="Utilde.sc" horiz-adv-x="1212" 
d="M190 393v805h62v-805q0 -156 102 -254t252 -98t252.5 98t102.5 254v805h61v-805q0 -183 -120.5 -298t-295.5 -115t-295.5 115t-120.5 298zM410 1366q3 66 39.5 98.5t78.5 34.5q23 0 31 -2q30 -6 73.5 -40t69.5 -34q22 0 42.5 19t21.5 57h57q-3 -65 -39 -98t-77 -33
q-37 0 -92 38t-85 38q-22 0 -42 -19t-21 -59h-57z" />
    <glyph glyph-name="Umacron.sc" horiz-adv-x="1212" 
d="M190 393v805h62v-805q0 -156 102 -254t252 -98t252.5 98t102.5 254v805h61v-805q0 -183 -120.5 -298t-295.5 -115t-295.5 115t-120.5 298zM414 1403v55h399v-55h-399z" />
    <glyph glyph-name="Ubreve.sc" horiz-adv-x="1212" 
d="M190 393v805h62v-805q0 -156 102 -254t252 -98t252.5 98t102.5 254v805h61v-805q0 -183 -120.5 -298t-295.5 -115t-295.5 115t-120.5 298zM412 1528h53q2 -54 36.5 -89.5t102.5 -35.5q65 0 103.5 34.5t40.5 90.5h53q0 -82 -54 -131t-143 -49q-96 0 -144 52.5t-48 127.5z
" />
    <glyph glyph-name="Uring.sc" horiz-adv-x="1212" 
d="M190 393v805h62v-805q0 -156 102 -254t252 -98t252.5 98t102.5 254v805h61v-805q0 -183 -120.5 -298t-295.5 -115t-295.5 115t-120.5 298zM459 1501q0 63 41.5 107.5t101.5 44.5q63 0 107.5 -44.5t44.5 -107.5q0 -61 -44.5 -103t-107.5 -42q-60 0 -101.5 42t-41.5 103z
M512 1501q0 -38 27 -65t65 -27q40 0 68 27t28 65q0 41 -28 68.5t-68 27.5q-39 0 -65.5 -27.5t-26.5 -68.5z" />
    <glyph glyph-name="Uhungarumlaut.sc" horiz-adv-x="1212" 
d="M190 393v805h62v-805q0 -156 102 -254t252 -98t252.5 98t102.5 254v805h61v-805q0 -183 -120.5 -298t-295.5 -115t-295.5 115t-120.5 298zM461 1329l135 223h74l-150 -223h-59zM655 1329l136 223h75l-153 -223h-58z" />
    <glyph glyph-name="Uogonek.sc" horiz-adv-x="1214" 
d="M193 393v805h61v-805q0 -156 102 -254t252 -98t252.5 98t102.5 254v805h61v-805q0 -177 -113 -290.5t-280 -122.5l-51 -125q-9 -21 -9 -39q-2 -31 15.5 -57.5t48.5 -39.5q53 -20 96 14t43 89l55 2q0 -47 -20.5 -84.5t-52 -57t-70 -25.5t-74.5 11q-63 26 -87 85t3 124
l43 103q-162 12 -270 125.5t-108 287.5z" />
    <glyph glyph-name="Wcircumflex.sc" horiz-adv-x="1642" 
d="M74 1200h63l377 -1112l270 926h74l268 -928l377 1114h66l-408 -1200h-71l-269 920l-270 -920h-70zM586 1327l188 223h94l187 -223h-62l-172 184l-172 -184h-63z" />
    <glyph glyph-name="Ycircumflex.sc" horiz-adv-x="1077" 
d="M59 1200h74l406 -567l407 567h74l-451 -629v-571h-61v573zM303 1327l189 223h94l186 -223h-61l-172 184l-172 -184h-64z" />
    <glyph glyph-name="Tcaron.sc" horiz-adv-x="1003" 
d="M68 1139v61h868v-61h-404v-1139h-61v1139h-403zM264 1550h62l172 -184l174 184h61l-188 -223h-94z" />
    <glyph glyph-name="Tbar.sc" horiz-adv-x="1003" 
d="M68 1139v61h868v-61h-404v-453h222v-57h-222v-629h-61v629h-223v57h223v453h-403z" />
    <glyph glyph-name="Zacute.sc" horiz-adv-x="960" 
d="M90 0v41l698 1098h-694v61h774v-47l-694 -1092h694v-61h-778zM408 1329l135 223h73l-151 -223h-57z" />
    <glyph glyph-name="Zdotaccent.sc" horiz-adv-x="960" 
d="M90 0v41l698 1098h-694v61h774v-47l-694 -1092h694v-61h-778zM420 1473q0 24 17 39.5t42 15.5t42.5 -15.5t17.5 -39.5q0 -23 -17.5 -38.5t-42.5 -15.5t-42 15.5t-17 38.5z" />
    <glyph glyph-name="Wgrave.sc" horiz-adv-x="1642" 
d="M74 1200h63l377 -1112l270 926h74l268 -928l377 1114h66l-408 -1200h-71l-269 920l-270 -920h-70zM627 1550h75l136 -223h-58z" />
    <glyph glyph-name="Wacute.sc" horiz-adv-x="1642" 
d="M74 1200h63l377 -1112l270 926h74l268 -928l377 1114h66l-408 -1200h-71l-269 920l-270 -920h-70zM791 1327l135 223h75l-153 -223h-57z" />
    <glyph glyph-name="Wdieresis.sc" horiz-adv-x="1642" 
d="M74 1200h63l377 -1112l270 926h74l268 -928l377 1114h66l-408 -1200h-71l-269 920l-270 -920h-70zM625 1473q0 24 17 39.5t42 15.5q27 0 44 -15.5t17 -39.5q0 -23 -17.5 -38.5t-43.5 -15.5q-25 0 -42 15.5t-17 38.5zM897 1473q0 24 17 39.5t42 15.5q27 0 44.5 -15.5
t17.5 -39.5q0 -23 -18 -38.5t-44 -15.5q-25 0 -42 15.5t-17 38.5z" />
    <glyph glyph-name="Aringacute.sc" horiz-adv-x="1124" 
d="M70 0l460 1200h64l459 -1200h-66l-125 332h-600l-127 -332h-65zM285 387h555l-279 727zM414 1446q0 55 33.5 96.5t84.5 50.5l109 179h74l-123 -181q51 -11 84 -51t33 -94q0 -61 -43.5 -103.5t-106.5 -42.5q-60 0 -102.5 42.5t-42.5 103.5zM467 1448q0 -40 27 -67t65 -27
q40 0 68 27t28 67t-28 67t-68 27q-38 0 -65 -27t-27 -67z" />
    <glyph glyph-name="AEacute.sc" horiz-adv-x="1732" 
d="M57 0l787 1200h751v-61h-594v-521h521v-61h-521v-496h615v-61h-676v336h-590l-219 -336h-74zM389 397h551v742h-63zM881 1329l135 223h74l-152 -223h-57z" />
    <glyph glyph-name="Oslashacute.sc" horiz-adv-x="1445" 
d="M119 20l157 160q-74 83 -114.5 190t-40.5 226q0 168 79.5 309t218 223t304.5 82q118 0 223.5 -42t186.5 -117l161 161l39 -38l-162 -164q156 -180 156 -414q0 -168 -79.5 -309.5t-218.5 -224t-306 -82.5q-237 0 -406 159l-157 -159zM182 596q0 -217 137 -373l771 783
q-156 143 -367 143q-149 0 -273.5 -74t-196 -201.5t-71.5 -277.5zM360 182q152 -139 363 -139q112 0 213 44t173 118t114.5 176t42.5 215q0 103 -36.5 199t-101.5 170zM690 1329l135 223h74l-151 -223h-58z" />
    <glyph glyph-name="Ibreve.sc" horiz-adv-x="471" 
d="M41 1528h53q2 -54 37.5 -89.5t104.5 -35.5q64 0 101.5 34.5t39.5 90.5h53q0 -82 -53 -131t-141 -49q-96 0 -145.5 52.5t-49.5 127.5zM205 0v1200h61v-1200h-61z" />
    <glyph glyph-name="Eng.sc" horiz-adv-x="1236" 
d="M205 0v1200h71l695 -1096v1096h61v-1200v-41q0 -79 -19 -144t-58 -117t-107 -81t-160 -29q-42 0 -82 6l8 62q38 -6 74 -6q146 0 214.5 85t68.5 224v41l-705 1104v-1104h-61z" />
    <glyph glyph-name="Ygrave.sc" horiz-adv-x="1077" 
d="M59 1200h74l406 -567l407 567h74l-451 -629v-571h-61v573zM360 1550h76l135 -223h-57z" />
    <glyph glyph-name="Gcommaaccent.sc" horiz-adv-x="1363" 
d="M121 596q0 168 79 309t217.5 223t305.5 82q201 0 358 -116q-2 -2 -19.5 -25t-19.5 -25q-140 105 -319 105q-112 0 -212.5 -44t-172.5 -118t-114 -176t-42 -215q0 -152 71 -279t195.5 -201.5t274.5 -74.5q210 0 338.5 117.5t148.5 337.5h-374v61h442
q-7 -286 -153.5 -431.5t-401.5 -145.5q-167 0 -305.5 82t-217.5 223.5t-79 310.5zM561 -379q109 118 115 260h67q-16 -174 -129 -264z" />
    <glyph glyph-name="Kcommaaccent.sc" horiz-adv-x="954" 
d="M205 0v1200h61v-614l506 614h78l-522 -633l602 -567h-86l-578 543v-543h-61zM395 -379q109 118 115 260h68q-16 -174 -129 -264z" />
    <glyph glyph-name="Lcommaaccent.sc" horiz-adv-x="870" 
d="M205 0v1200h61v-1139h535v-61h-596zM360 -379q109 118 115 260h68q-16 -174 -129 -264z" />
    <glyph glyph-name="Ncommaaccent.sc" horiz-adv-x="1236" 
d="M205 0v1200h71l695 -1108v1108h61v-1200h-71l-695 1104v-1104h-61zM455 -379q108 117 114 260h68q-16 -174 -129 -264z" />
    <glyph glyph-name="Rcommaaccent.sc" horiz-adv-x="1089" 
d="M205 0v1200h440q85 0 149.5 -30t101.5 -81t55 -113t18 -132q0 -67 -18.5 -127.5t-54.5 -110.5t-96.5 -80t-137.5 -30h-64l348 -496h-74l-348 492h-258v-492h-61zM266 553h369q73 0 127 24t85 66t45.5 92t14.5 109t-14.5 110t-44.5 93.5t-82 67t-121 24.5h-379v-586z
M395 -379q109 118 115 260h68q-16 -174 -129 -264z" />
    <glyph glyph-name="Tcommaaccent.sc" horiz-adv-x="1003" 
d="M68 1139v61h868v-61h-404v-1139h-61v1139h-403zM352 -379q109 118 115 260h68q-16 -174 -129 -264z" />
    <glyph glyph-name="Scommaaccent.sc" horiz-adv-x="1017" 
d="M125 295h61q14 -102 101 -177t215 -75q143 0 231 68t107 161q10 64 -7 116t-56.5 87.5t-89 59t-112.5 38.5l-167 39q-275 60 -275 287q0 90 53 162.5t136.5 110.5t177.5 38q150 0 251 -81.5t111 -217.5h-61q-10 109 -94 173.5t-207 64.5q-122 0 -213.5 -70.5
t-91.5 -179.5q0 -176 225 -227l170 -39q74 -17 133 -45.5t104.5 -72.5t65 -109t6.5 -146q-11 -52 -40.5 -100t-77 -89.5t-120 -66t-159.5 -24.5q-155 0 -259 94.5t-118 220.5zM367 -379q108 117 114 260h68q-16 -174 -129 -264z" />
    <glyph glyph-name="Idotaccent.sc" horiz-adv-x="471" 
d="M176 1473q0 24 17.5 39.5t42.5 15.5t42 -15.5t17 -39.5q0 -23 -17 -38.5t-42 -15.5t-42.5 15.5t-17.5 38.5zM205 0v1200h61v-1200h-61z" />
    <glyph glyph-name="zero.numr" horiz-adv-x="727" 
d="M92 936q0 71 7.5 128t26.5 109.5t49 88t78.5 56.5t111.5 21q78 0 132 -30.5t83 -88.5t41 -126t12 -158t-12 -158.5t-41 -126t-83 -88.5t-132 -31q-79 0 -134 31t-84.5 88.5t-42 126.5t-12.5 158zM154 936q0 -75 9.5 -133.5t32.5 -107.5t65.5 -75t103.5 -26q48 0 85 18
t59.5 48t36.5 75t19.5 93t5.5 108t-5.5 108t-19.5 93t-36.5 75t-59.5 48t-85 18q-61 0 -103.5 -26t-65.5 -75t-32.5 -107.5t-9.5 -133.5z" />
    <glyph glyph-name="one.numr" horiz-adv-x="382" 
d="M57 1221v61l203 74v-813h-61v727z" />
    <glyph glyph-name="two.numr" horiz-adv-x="647" 
d="M74 1192q17 81 83 129.5t156 48.5q104 0 174 -64.5t70 -164.5q0 -103 -90 -207l-279 -330h371v-61h-479v22l342 410q74 88 74 166q0 74 -52.5 121t-130.5 47q-67 0 -118.5 -36.5t-63.5 -96.5z" />
    <glyph glyph-name="three.numr" horiz-adv-x="661" 
d="M68 672l49 33q49 -101 182 -111q87 -4 147 44t68 128q1 80 -54 132t-132 52h-80v60h80q58 0 103.5 39t49.5 98q5 66 -36.5 111t-122.5 51q-53 4 -103 -20t-74 -64l-51 30q33 56 96 87.5t136 27.5q112 -7 169.5 -73t49.5 -158q-5 -50 -36.5 -92t-80.5 -64
q68 -17 110.5 -85.5t36.5 -141.5q-9 -102 -89.5 -166.5t-190.5 -57.5q-80 5 -134.5 36.5t-92.5 103.5z" />
    <glyph glyph-name="four.numr" horiz-adv-x="716" 
d="M41 719l444 641h45v-584h127v-57h-127v-176h-61v176h-428zM154 776h315v461z" />
    <glyph glyph-name="five.numr" horiz-adv-x="692" 
d="M68 694q6 5 26.5 18.5t26.5 18.5q28 -58 88 -96.5t125 -38.5q104 0 163.5 56.5t59.5 142.5q0 88 -61.5 139t-139.5 51q-61 0 -107.5 -13t-121.5 -48l-23 30l70 406h391v-64h-338l-55 -299q111 52 184 52q107 0 186 -68.5t79 -185.5q0 -118 -77.5 -190.5t-209.5 -72.5
q-79 0 -154 46t-112 116z" />
    <glyph glyph-name="six.numr" horiz-adv-x="692" 
d="M98 801q-7 62 -5 129t7 131t25.5 121t50.5 100t82 67t121 23q153 -3 213 -139l-55 -25q-46 100 -160 103q-56 1 -97.5 -22.5t-65 -61t-37 -91t-17 -102.5t-2.5 -106q22 62 82.5 94t128.5 29q107 -4 176.5 -83t66.5 -188q-6 -108 -82 -180t-182 -68q-105 3 -174 76
t-76 193zM160 801q0 -87 55 -145.5t135 -61.5q82 -3 140 52t61 138q3 85 -49.5 143.5t-134.5 61.5q-83 3 -143.5 -51.5t-63.5 -136.5z" />
    <glyph glyph-name="seven.numr" horiz-adv-x="626" 
d="M74 1298v62h526l-448 -817h-74l418 755h-422z" />
    <glyph glyph-name="eight.numr" horiz-adv-x="708" 
d="M82 788q0 76 42 138.5t112 93.5q-86 54 -86 158q0 82 58.5 138t145.5 56q88 0 147.5 -56t59.5 -138q0 -49 -24.5 -91t-65.5 -69q70 -30 113 -92t43 -138q0 -107 -79 -181.5t-194 -74.5q-116 0 -194 74t-78 182zM143 788q0 -82 60.5 -138t150.5 -56q89 0 150 56t61 138
q0 81 -60.5 140t-148.5 59t-150.5 -60t-62.5 -139zM211 1178q0 -56 38.5 -96t96.5 -40h14q59 0 99.5 40t40.5 96t-42.5 94.5t-103.5 38.5t-102 -38.5t-41 -94.5z" />
    <glyph glyph-name="nine.numr" horiz-adv-x="692" 
d="M80 1122q6 109 81.5 180.5t182.5 67.5q105 -3 174 -75.5t76 -192.5q6 -62 4 -128.5t-7 -130.5t-25.5 -121t-50.5 -100t-82 -67t-120 -23q-158 4 -217 140l56 22q44 -96 163 -100q56 -1 98 22.5t65.5 60t37 89.5t17 102.5t2.5 106.5q-22 -61 -83 -93.5t-128 -29.5
q-106 4 -176.5 83t-67.5 187zM143 1120q-3 -85 49 -143.5t134 -61.5q83 -3 143 51t63 138q0 87 -54.5 144.5t-135.5 60.5q-82 3 -139 -51.5t-60 -137.5z" />
    <glyph glyph-name="zero.dnom" horiz-adv-x="727" 
d="M92 393q0 89 12.5 158t42 126.5t84.5 88.5t134 31q78 0 132 -31t83 -88.5t41 -126t12 -158.5t-12 -158t-41 -126t-83 -88.5t-132 -30.5q-63 0 -111.5 21t-78.5 56.5t-49 88t-26.5 109.5t-7.5 128zM154 393q0 -75 9.5 -133.5t32.5 -107.5t65.5 -75t103.5 -26q48 0 85 18
t59.5 48t36.5 75t19.5 93t5.5 108t-5.5 108t-19.5 93t-36.5 75t-59.5 48t-85 18q-61 0 -103.5 -26t-65.5 -75t-32.5 -107.5t-9.5 -133.5z" />
    <glyph glyph-name="one.dnom" horiz-adv-x="382" 
d="M57 678v61l203 74v-813h-61v727z" />
    <glyph glyph-name="two.dnom" horiz-adv-x="647" 
d="M74 649q17 81 83 129.5t156 48.5q104 0 174 -64.5t70 -164.5q0 -103 -90 -207l-279 -330h371v-61h-479v23l342 409q74 88 74 166q0 74 -52.5 121t-130.5 47q-67 0 -118.5 -36.5t-63.5 -96.5z" />
    <glyph glyph-name="three.dnom" horiz-adv-x="663" 
d="M70 129l49 33q49 -101 182 -111q87 -4 147 44t68 128q1 80 -54 132.5t-132 52.5h-80v59h80q58 0 103.5 39t49.5 98q5 66 -36.5 111t-122.5 51q-53 4 -103 -20t-74 -64l-51 31q32 56 95.5 87t136.5 27q112 -7 169.5 -73t49.5 -158q-5 -50 -36.5 -92t-80.5 -64
q69 -17 111.5 -85.5t36.5 -141.5q-9 -101 -90 -165.5t-191 -57.5q-81 5 -135 36t-92 103z" />
    <glyph glyph-name="four.dnom" horiz-adv-x="720" 
d="M45 176l444 641h46v-584h127v-57h-127v-176h-62v176h-428zM158 233h315v461z" />
    <glyph glyph-name="five.dnom" horiz-adv-x="694" 
d="M68 152q6 5 26.5 18t26.5 18q28 -58 88 -96.5t125 -38.5q104 0 163.5 56.5t59.5 142.5q0 88 -61.5 139t-139.5 51q-61 0 -107.5 -13t-121.5 -48l-23 31l70 405h391v-63h-338l-55 -299q109 51 184 51q107 0 186 -68.5t79 -185.5q0 -118 -77.5 -190t-209.5 -72
q-79 0 -154 46t-112 116z" />
    <glyph glyph-name="six.dnom" horiz-adv-x="690" 
d="M98 258q-7 62 -5 129t7 131t25.5 121t50.5 100t82 67t121 23q153 -3 213 -139l-55 -24q-45 99 -160 102q-56 1 -97.5 -22.5t-65 -61t-37 -91t-17 -102.5t-2.5 -106q22 62 82.5 94t128.5 29q107 -4 176.5 -82.5t66.5 -187.5q-6 -108 -82 -180t-182 -68q-105 3 -174 75.5
t-76 192.5zM160 258q0 -87 55 -145.5t135 -61.5q82 -3 140 52.5t61 138.5q3 85 -49.5 143t-134.5 61q-83 3 -143.5 -51.5t-63.5 -136.5z" />
    <glyph glyph-name="seven.dnom" horiz-adv-x="624" 
d="M74 756v61h526l-448 -817h-74l418 756h-422z" />
    <glyph glyph-name="eight.dnom" horiz-adv-x="708" 
d="M82 246q0 76 42 138t112 93q-86 54 -86 158q0 82 58.5 138t145.5 56q88 0 147.5 -56t59.5 -138q0 -49 -24.5 -91t-65.5 -69q70 -30 113 -92t43 -137q0 -107 -79 -181.5t-194 -74.5q-116 0 -194 74t-78 182zM143 246q0 -82 60.5 -138.5t150.5 -56.5q89 0 150 56.5
t61 138.5q0 81 -60.5 139.5t-148.5 58.5t-150.5 -59.5t-62.5 -138.5zM211 635q0 -56 38.5 -95.5t96.5 -39.5h14q59 0 99.5 39.5t40.5 95.5t-42.5 94.5t-103.5 38.5t-102 -38.5t-41 -94.5z" />
    <glyph glyph-name="nine.dnom" horiz-adv-x="692" 
d="M80 580q6 109 81.5 180t182.5 67q105 -3 174 -75.5t76 -192.5q6 -62 4 -128.5t-7 -130.5t-25.5 -121t-50.5 -99.5t-82 -66.5t-120 -23q-159 4 -217 139l56 23q45 -97 163 -101q56 -1 98 22.5t65.5 60t37 89.5t17 102.5t2.5 106.5q-22 -61 -83 -93.5t-128 -29.5
q-106 4 -176.5 83.5t-67.5 187.5zM143 578q-3 -85 49 -143.5t134 -61.5q83 -3 143 50.5t63 137.5q0 87 -54.5 144.5t-135.5 60.5q-82 3 -139 -51t-60 -137z" />
    <glyph glyph-name="l.alt1" horiz-adv-x="485" 
d="M168 354v1166h61v-1166q0 -156 57.5 -224.5t200.5 -68.5h25v-61h-25q-174 0 -246.5 88t-72.5 266z" />
    <glyph glyph-name="a.alt1" horiz-adv-x="1103" 
d="M92 248q0 125 92.5 201.5t298.5 76.5q76 0 186.5 -20t207.5 -57v139q0 327 -371 327q-96 0 -167.5 -28.5t-139.5 -89.5q-9 10 -16 18t-12 13.5t-13 13.5q126 135 366 135q201 0 307.5 -99t106.5 -290v-588h-61v176q-49 -59 -111 -100.5t-124 -61.5t-114 -28.5t-102 -8.5
q-156 0 -245 72t-89 199zM154 248q0 -93 69 -151t207 -58q69 0 149 21.5t164 75t131 128.5v123q-95 38 -209.5 58t-181.5 20q-81 0 -142 -13t-95.5 -33.5t-56 -50.5t-28.5 -58t-7 -62z" />
    <glyph glyph-name="y.alt1" horiz-adv-x="1019" 
d="M43 -412q25 -4 55 -4q115 0 192 71t142 226l41 109l-410 966h68l377 -893l383 893h67l-479 -1122q-67 -155 -156.5 -233t-224.5 -78q-26 0 -55 4v61z" />
    <glyph glyph-name="lslash.alt1" horiz-adv-x="512" 
d="M16 608v60l172 106v746h62v-707l227 143v-59l-227 -143v-400q0 -156 57.5 -224.5t200.5 -68.5h24v-61h-24q-174 0 -247 88.5t-73 265.5v361z" />
    <glyph glyph-name="lacute.alt1" horiz-adv-x="485" 
d="M168 354v1166h61v-1166q0 -156 57.5 -224.5t200.5 -68.5h25v-61h-25q-174 0 -246.5 88t-72.5 266zM168 1647l162 260h73l-180 -260h-55z" />
    <glyph glyph-name="lcommaaccent.alt1" horiz-adv-x="485" 
d="M168 354v1166h61v-1166q0 -156 57.5 -224.5t200.5 -68.5h25v-61h-25q-174 0 -246.5 88t-72.5 266zM256 -440q130 133 141 299h68q-22 -194 -154 -299h-55z" />
    <glyph glyph-name="lcaron.alt1" horiz-adv-x="485" 
d="M168 354v1166h61v-1166q0 -156 57.5 -224.5t200.5 -68.5h25v-61h-25q-174 0 -246.5 88t-72.5 266zM328 1217q87 111 84 303h59q1 -114 -29 -188t-84 -134z" />
    <glyph glyph-name="aacute.alt1" horiz-adv-x="1103" 
d="M92 248q0 125 92.5 201.5t298.5 76.5q76 0 186.5 -20t207.5 -57v139q0 327 -371 327q-96 0 -167.5 -28.5t-139.5 -89.5q-9 10 -16 18t-12 13.5t-13 13.5q126 135 366 135q201 0 307.5 -99t106.5 -290v-588h-61v176q-49 -59 -111 -100.5t-124 -61.5t-114 -28.5t-102 -8.5
q-156 0 -245 72t-89 199zM154 248q0 -93 69 -151t207 -58q69 0 149 21.5t164 75t131 128.5v123q-95 38 -209.5 58t-181.5 20q-81 0 -142 -13t-95.5 -33.5t-56 -50.5t-28.5 -58t-7 -62zM471 1102l162 260h74l-181 -260h-55z" />
    <glyph glyph-name="agrave.alt1" horiz-adv-x="1103" 
d="M92 248q0 125 92.5 201.5t298.5 76.5q76 0 186.5 -20t207.5 -57v139q0 327 -371 327q-96 0 -167.5 -28.5t-139.5 -89.5q-9 10 -16 18t-12 13.5t-13 13.5q126 135 366 135q201 0 307.5 -99t106.5 -290v-588h-61v176q-49 -59 -111 -100.5t-124 -61.5t-114 -28.5t-102 -8.5
q-156 0 -245 72t-89 199zM154 248q0 -93 69 -151t207 -58q69 0 149 21.5t164 75t131 128.5v123q-95 38 -209.5 58t-181.5 20q-81 0 -142 -13t-95.5 -33.5t-56 -50.5t-28.5 -58t-7 -62zM301 1362h74l162 -260h-56z" />
    <glyph glyph-name="acircumflex.alt1" horiz-adv-x="1103" 
d="M92 248q0 125 92.5 201.5t298.5 76.5q76 0 186.5 -20t207.5 -57v139q0 327 -371 327q-96 0 -167.5 -28.5t-139.5 -89.5q-9 10 -16 18t-12 13.5t-13 13.5q126 135 366 135q201 0 307.5 -99t106.5 -290v-588h-61v176q-49 -59 -111 -100.5t-124 -61.5t-114 -28.5t-102 -8.5
q-156 0 -245 72t-89 199zM154 248q0 -93 69 -151t207 -58q69 0 149 21.5t164 75t131 128.5v123q-95 38 -209.5 58t-181.5 20q-81 0 -142 -13t-95.5 -33.5t-56 -50.5t-28.5 -58t-7 -62zM250 1102l225 260h98l226 -260h-62l-213 223l-213 -223h-61z" />
    <glyph glyph-name="adieresis.alt1" horiz-adv-x="1103" 
d="M92 248q0 125 92.5 201.5t298.5 76.5q76 0 186.5 -20t207.5 -57v139q0 327 -371 327q-96 0 -167.5 -28.5t-139.5 -89.5q-9 10 -16 18t-12 13.5t-13 13.5q126 135 366 135q201 0 307.5 -99t106.5 -290v-588h-61v176q-49 -59 -111 -100.5t-124 -61.5t-114 -28.5t-102 -8.5
q-156 0 -245 72t-89 199zM154 248q0 -93 69 -151t207 -58q69 0 149 21.5t164 75t131 128.5v123q-95 38 -209.5 58t-181.5 20q-81 0 -142 -13t-95.5 -33.5t-56 -50.5t-28.5 -58t-7 -62zM293 1272q0 26 18 42.5t45 16.5q28 0 47 -16.5t19 -42.5q0 -25 -19 -41.5t-47 -16.5
q-26 0 -44.5 16.5t-18.5 41.5zM606 1272q0 26 18.5 42.5t45.5 16.5q28 0 46.5 -16.5t18.5 -42.5q0 -25 -18.5 -41.5t-46.5 -16.5q-26 0 -45 16.5t-19 41.5z" />
    <glyph glyph-name="atilde.alt1" horiz-adv-x="1103" 
d="M92 248q0 125 92.5 201.5t298.5 76.5q76 0 186.5 -20t207.5 -57v139q0 327 -371 327q-96 0 -167.5 -28.5t-139.5 -89.5q-9 10 -16 18t-12 13.5t-13 13.5q126 135 366 135q201 0 307.5 -99t106.5 -290v-588h-61v176q-49 -59 -111 -100.5t-124 -61.5t-114 -28.5t-102 -8.5
q-156 0 -245 72t-89 199zM154 248q0 -93 69 -151t207 -58q69 0 149 21.5t164 75t131 128.5v123q-95 38 -209.5 58t-181.5 20q-81 0 -142 -13t-95.5 -33.5t-56 -50.5t-28.5 -58t-7 -62zM276 1155q3 74 46.5 109.5t91.5 35.5q25 0 48.5 -9t34.5 -16.5t35 -25.5q53 -39 84 -39
q27 0 51 22t25 68h62q-3 -74 -46.5 -109.5t-91.5 -35.5q-25 0 -47 7.5t-35 15.5t-34 24q-5 3 -20 14.5t-21.5 15.5t-19.5 8.5t-25 4.5q-27 0 -51 -22t-25 -68h-62z" />
    <glyph glyph-name="aring.alt1" horiz-adv-x="1103" 
d="M92 248q0 125 92.5 201.5t298.5 76.5q76 0 186.5 -20t207.5 -57v139q0 327 -371 327q-96 0 -167.5 -28.5t-139.5 -89.5q-9 10 -16 18t-12 13.5t-13 13.5q126 135 366 135q201 0 307.5 -99t106.5 -290v-588h-61v176q-49 -59 -111 -100.5t-124 -61.5t-114 -28.5t-102 -8.5
q-156 0 -245 72t-89 199zM154 248q0 -93 69 -151t207 -58q69 0 149 21.5t164 75t131 128.5v123q-95 38 -209.5 58t-181.5 20q-81 0 -142 -13t-95.5 -33.5t-56 -50.5t-28.5 -58t-7 -62zM358 1309q0 71 48.5 121.5t117.5 50.5q72 0 122 -50.5t50 -121.5q0 -70 -50 -119
t-122 -49q-69 0 -117.5 49t-48.5 119zM414 1309q0 -47 32 -80t78 -33q49 0 83 33t34 80q0 49 -33.5 82.5t-83.5 33.5q-46 0 -78 -33.5t-32 -82.5z" />
    <glyph glyph-name="amacron.alt1" horiz-adv-x="1103" 
d="M92 248q0 125 92.5 201.5t298.5 76.5q76 0 186.5 -20t207.5 -57v139q0 327 -371 327q-96 0 -167.5 -28.5t-139.5 -89.5q-9 10 -16 18t-12 13.5t-13 13.5q126 135 366 135q201 0 307.5 -99t106.5 -290v-588h-61v176q-49 -59 -111 -100.5t-124 -61.5t-114 -28.5t-102 -8.5
q-156 0 -245 72t-89 199zM154 248q0 -93 69 -151t207 -58q69 0 149 21.5t164 75t131 128.5v123q-95 38 -209.5 58t-181.5 20q-81 0 -142 -13t-95.5 -33.5t-56 -50.5t-28.5 -58t-7 -62zM303 1233v55h467v-55h-467z" />
    <glyph glyph-name="abreve.alt1" horiz-adv-x="1103" 
d="M92 248q0 125 92.5 201.5t298.5 76.5q76 0 186.5 -20t207.5 -57v139q0 327 -371 327q-96 0 -167.5 -28.5t-139.5 -89.5q-9 10 -16 18t-12 13.5t-13 13.5q126 135 366 135q201 0 307.5 -99t106.5 -290v-588h-61v176q-49 -59 -111 -100.5t-124 -61.5t-114 -28.5t-102 -8.5
q-156 0 -245 72t-89 199zM154 248q0 -93 69 -151t207 -58q69 0 149 21.5t164 75t131 128.5v123q-95 38 -209.5 58t-181.5 20q-81 0 -142 -13t-95.5 -33.5t-56 -50.5t-28.5 -58t-7 -62zM299 1331h55q0 -63 42 -106t126 -43q77 0 123.5 41t46.5 108h56q0 -92 -62.5 -148.5
t-163.5 -56.5q-111 0 -167 60t-56 145z" />
    <glyph glyph-name="aogonek.alt1" horiz-adv-x="1103" 
d="M92 248q0 125 92.5 201.5t298.5 76.5q76 0 186.5 -20t207.5 -57v139q0 327 -371 327q-96 0 -167.5 -28.5t-139.5 -89.5q-9 10 -16 18t-12 13.5t-13 13.5q126 135 366 135q201 0 307.5 -99t106.5 -290v-588l-66 -166q-12 -27 -12 -53q0 -37 21 -67.5t57 -45.5q19 -8 47 -8
q36 0 66 21t45 57v-2q12 30 12 59h59q0 -37 -16 -80q-31 -72 -99 -100.5t-137 0.5q-73 29 -101 99t3 143l60 143v176q-49 -59 -111 -100.5t-124 -61.5t-114 -28.5t-102 -8.5q-156 0 -245 72t-89 199zM154 248q0 -93 69 -151t207 -58q69 0 149 21.5t164 75t131 128.5v123
q-95 38 -209.5 58t-181.5 20q-81 0 -142 -13t-95.5 -33.5t-56 -50.5t-28.5 -58t-7 -62z" />
    <glyph glyph-name="yacute.alt1" horiz-adv-x="1019" 
d="M43 -412q25 -4 55 -4q115 0 192 71t142 226l41 109l-410 966h68l377 -893l383 893h67l-479 -1122q-67 -155 -156.5 -233t-224.5 -78q-26 0 -55 4v61zM465 1102l162 260h73l-180 -260h-55z" />
    <glyph glyph-name="ydieresis.alt1" horiz-adv-x="1019" 
d="M43 -412q25 -4 55 -4q115 0 192 71t142 226l41 109l-410 966h68l377 -893l383 893h67l-479 -1122q-67 -155 -156.5 -233t-224.5 -78q-26 0 -55 4v61zM311 1272q0 26 18.5 42.5t45.5 16.5q28 0 46.5 -16.5t18.5 -42.5q0 -25 -18.5 -41.5t-46.5 -16.5q-26 0 -45 16.5
t-19 41.5zM625 1272q0 26 18 42.5t45 16.5q28 0 47 -16.5t19 -42.5q0 -25 -19 -41.5t-47 -16.5q-26 0 -44.5 16.5t-18.5 41.5z" />
    <glyph glyph-name="ae.alt1" horiz-adv-x="1916" 
d="M92 248q0 125 92.5 201.5t298.5 76.5q76 0 186.5 -20t207.5 -57v55v84q0 327 -371 327q-96 0 -167.5 -28.5t-139.5 -89.5q-9 10 -16 18t-12 13.5t-13 13.5q126 135 366 135q165 0 267 -68t133 -198q59 125 174 195.5t260 70.5q205 0 336 -136.5t131 -359.5v-26h-887
q9 -186 128.5 -300t291.5 -114q113 0 206.5 51.5t151.5 143.5l53 -33q-65 -105 -173 -164t-238 -59q-137 0 -248 64t-172 179v-223h-61v176q-49 -59 -111 -100.5t-124 -61.5t-114 -28.5t-102 -8.5q-156 0 -245 72t-89 199zM154 248q0 -93 69 -151t207 -58q69 0 149 21.5
t164 75t131 128.5v123q-95 38 -209.5 58t-181.5 20q-81 0 -142 -13t-95.5 -33.5t-56 -50.5t-28.5 -58t-7 -62zM938 510h825q-9 184 -121 294.5t-284 110.5t-291 -111t-129 -294z" />
    <glyph glyph-name="aeacute.alt1" horiz-adv-x="1916" 
d="M92 248q0 125 92.5 201.5t298.5 76.5q76 0 186.5 -20t207.5 -57v55v84q0 327 -371 327q-96 0 -167.5 -28.5t-139.5 -89.5q-9 10 -16 18t-12 13.5t-13 13.5q126 135 366 135q165 0 267 -68t133 -198q59 125 174 195.5t260 70.5q205 0 336 -136.5t131 -359.5v-26h-887
q9 -186 128.5 -300t291.5 -114q113 0 206.5 51.5t151.5 143.5l53 -33q-65 -105 -173 -164t-238 -59q-137 0 -248 64t-172 179v-223h-61v176q-49 -59 -111 -100.5t-124 -61.5t-114 -28.5t-102 -8.5q-156 0 -245 72t-89 199zM154 248q0 -93 69 -151t207 -58q69 0 149 21.5
t164 75t131 128.5v123q-95 38 -209.5 58t-181.5 20q-81 0 -142 -13t-95.5 -33.5t-56 -50.5t-28.5 -58t-7 -62zM915 1102l162 260h74l-180 -260h-56zM938 510h825q-9 184 -121 294.5t-284 110.5t-291 -111t-129 -294z" />
    <glyph glyph-name="ycircumflex.alt1" horiz-adv-x="1019" 
d="M43 -412q25 -4 55 -4q115 0 192 71t142 226l41 109l-410 966h68l377 -893l383 893h67l-479 -1122q-67 -155 -156.5 -233t-224.5 -78q-26 0 -55 4v61zM250 1102l225 260h98l226 -260h-62l-213 223l-213 -223h-61z" />
    <glyph glyph-name="ldot.alt1" horiz-adv-x="493" 
d="M168 354v1166h61v-1166q0 -156 57.5 -224.5t200.5 -68.5h25v-61h-25q-174 0 -246.5 88t-72.5 266zM367 528q0 31 22.5 51.5t56.5 20.5q32 0 55 -20.5t23 -51.5q0 -30 -22.5 -50.5t-55.5 -20.5q-34 0 -56.5 20t-22.5 51z" />
    <glyph glyph-name="t.alt1" horiz-adv-x="614" 
d="M66 901v55h174v287l61 23v-310h238v-55h-238v-547q0 -154 57.5 -223.5t200.5 -69.5h27v-61h-27q-174 0 -246.5 88t-72.5 266v547h-174z" />
    <glyph glyph-name="tcaron.alt1" horiz-adv-x="614" 
d="M66 901v55h174v287l61 23v-310h238v-55h-238v-547q0 -154 57.5 -223.5t200.5 -69.5h27v-61h-27q-174 0 -246.5 88t-72.5 266v547h-174zM403 1059q87 111 84 303h60q1 -114 -29 -188t-84 -134z" />
    <glyph glyph-name="tbar.alt1" horiz-adv-x="620" 
d="M72 901v55h174v287l61 23v-310h238v-55h-238v-360h150v-56h-150v-131q0 -154 57.5 -223.5t200.5 -69.5h27v-61h-27q-174 0 -246.5 88t-72.5 266v131h-133v56h133v360h-174z" />
    <glyph glyph-name="tcommaaccent.alt1" horiz-adv-x="614" 
d="M66 901v55h174v287l61 23v-310h238v-55h-238v-547q0 -154 57.5 -223.5t200.5 -69.5h27v-61h-27q-174 0 -246.5 88t-72.5 266v547h-174zM315 -440q131 134 142 299h67q-23 -195 -153 -299h-56z" />
    <glyph glyph-name="T.sc.alt1" horiz-adv-x="1003" 
d="M68 1139v61h868v-61h-404v-1139h-61v1139h-403z" />
    <glyph glyph-name="Tcaron.sc.alt1" horiz-adv-x="1003" 
d="M68 1139v61h868v-61h-404v-1139h-61v1139h-403zM264 1550h62l172 -184l174 184h61l-188 -223h-94z" />
    <glyph glyph-name="Tbar.sc.alt1" horiz-adv-x="1003" 
d="M68 1139v61h868v-61h-404v-453h222v-57h-222v-629h-61v629h-223v57h223v453h-403z" />
    <glyph glyph-name="Tcommaaccent.sc.alt1" horiz-adv-x="1003" 
d="M68 1139v61h868v-61h-404v-1139h-61v1139h-403zM352 -379q109 118 115 260h68q-16 -174 -129 -264z" />
    <glyph glyph-name="aringacute.alt1" horiz-adv-x="1105" 
d="M94 248q0 125 92.5 201.5t298.5 76.5q76 0 186.5 -20t207.5 -57v139q0 327 -371 327q-96 0 -167.5 -28.5t-139.5 -89.5q-9 10 -16 18t-12 13.5t-13 13.5q126 135 366 135q201 0 307.5 -99t106.5 -290v-588h-61v176q-49 -59 -111 -100.5t-124 -61.5t-114 -28.5t-102 -8.5
q-156 0 -245 72t-89 199zM156 248q0 -93 69 -151t207 -58q69 0 149 21.5t164.5 75t131.5 128.5v123q-95 38 -210 58t-182 20q-81 0 -142 -13t-95.5 -33.5t-56 -50.5t-28.5 -58t-7 -62zM414 1268q0 64 40.5 112.5t100.5 57.5l127 202h74l-144 -204q60 -10 100 -58t40 -110
q0 -70 -50 -119t-122 -49q-69 0 -117.5 49t-48.5 119zM469 1268q0 -47 32.5 -80t78.5 -33q49 0 82.5 33t33.5 80q0 50 -33 83t-83 33q-46 0 -78.5 -33.5t-32.5 -82.5z" />
    </font>
</defs>
</svg>
