<?xml version="1.0" standalone="no"?>
<!DOCTYPE svg PUBLIC "-//W3C//DTD SVG 1.1//EN" "http://www.w3.org/Graphics/SVG/1.1/DTD/svg11.dtd" >
<svg xmlns="http://www.w3.org/2000/svg" xmlns:xlink="http://www.w3.org/1999/xlink" version="1.1">
<metadata>
Created by FontForge 20170731 at Wed Apr 25 19:22:38 2012
 By Aleksey,,,
(C) 2012. Olivier Gourvat - Mostardesign Studio. wf-rip
</metadata>
<defs>
<font id="SofiaPro-BoldItalic" horiz-adv-x="1163" >
  <font-face 
    font-family="Sofia Pro"
    font-weight="700"
    font-style="italic"
    font-stretch="normal"
    units-per-em="2048"
    panose-1="2 11 0 0 0 0 0 0 0 0"
    ascent="1536"
    descent="-512"
    x-height="956"
    cap-height="1411"
    bbox="-371 -588 2460.14 2279"
    underline-thickness="102"
    underline-position="-306"
    slope="-12"
    unicode-range="U+0020-FB04"
  />
<missing-glyph horiz-adv-x="1300" 
d="M164 0l239 1362h973l-239 -1362h-973zM530 268q-7 -38 16 -63t62 -25q37 0 69.5 25t39.5 63q7 37 -16.5 62.5t-61.5 25.5q-39 0 -70.5 -25t-38.5 -63zM532 883h127q15 76 67.5 123t117.5 47t106 -42t29 -108q-10 -58 -66 -102q-46 -36 -75 -43q-96 -28 -154.5 -79
t-75.5 -147l-14 -77h127l12 77q7 45 37 67t84 36q93 28 162.5 98.5t87.5 169.5q22 123 -49.5 200t-190.5 77q-117 0 -212.5 -82t-119.5 -215z" />
    <glyph glyph-name="uniFB00" unicode="ff" horiz-adv-x="1558" 
d="M174 731l41 225h180l13 66q41 219 174.5 337t339.5 118h104l-51 -273h-105q-72 0 -116.5 -47.5t-59.5 -134.5l-12 -66h520l12 66q41 219 175 337t340 118h104l-51 -273h-105q-72 0 -116.5 -47.5t-59.5 -134.5l-12 -66h192l-41 -225h-192l-127 -731h-287l127 731h-520
l-127 -731h-287l127 731h-180z" />
    <glyph glyph-name="uniFB01" unicode="fi" horiz-adv-x="1423" 
d="M174 731l41 225h180l13 66q41 219 174.5 337t339.5 118h104l-51 -273h-105q-72 0 -116.5 -47.5t-59.5 -134.5l-12 -66h778l-168 -956h-282l127 731h-496l-127 -731h-287l127 731h-180zM1204 1311q12 70 74 118t135 48q72 0 113.5 -48t29.5 -118t-72 -119t-132 -49
t-116 49t-32 119z" />
    <glyph glyph-name="uniFB02" unicode="fl" horiz-adv-x="1388" 
d="M174 731l41 225h180l13 66q41 219 174.5 337t339.5 118h598l-263 -1477h-284l211 1204h-314q-72 0 -116.5 -47.5t-59.5 -134.5l-12 -66h192l-40 -225h-193l-127 -731h-287l127 731h-180z" />
    <glyph glyph-name="uniFB03" unicode="ffi" horiz-adv-x="2230" 
d="M174 731l41 225h180l13 66q41 219 174.5 337t339.5 118h104l-51 -273h-105q-72 0 -116.5 -47.5t-59.5 -134.5l-12 -66h520l12 66q41 219 175 337t340 118h104l-51 -273h-105q-72 0 -116.5 -47.5t-59.5 -134.5l-12 -66h778l-168 -956h-282l127 731h-496l-127 -731h-287
l127 731h-520l-127 -731h-287l127 731h-180zM2011 1311q12 70 74 118t135 48q72 0 113.5 -48t29.5 -118t-72 -119t-132 -49t-116 49t-32 119z" />
    <glyph glyph-name="uniFB04" unicode="ffl" horiz-adv-x="2195" 
d="M174 731l41 225h180l13 66q41 219 174.5 337t339.5 118h104l-51 -273h-105q-72 0 -116.5 -47.5t-59.5 -134.5l-12 -66h520l12 66q41 219 175 337t340 118h598l-263 -1477h-284l211 1204h-314q-72 0 -116.5 -47.5t-59.5 -134.5l-12 -66h192l-41 -225h-192l-127 -731h-287
l127 731h-520l-127 -731h-287l127 731h-180z" />
    <glyph glyph-name="f_f_j" unicode="ffj" horiz-adv-x="2181" 
d="M174 731l41 225h180l13 66q41 219 174.5 337t339.5 118h104l-51 -273h-105q-72 0 -116.5 -47.5t-59.5 -134.5l-12 -66h520l12 66q41 219 175 337t340 118h104l-51 -273h-105q-72 0 -116.5 -47.5t-59.5 -134.5l-12 -66h731l-182 -1022q-36 -201 -139 -308t-297 -107h-175
l43 258h125q71 0 108 44.5t46 106.5l141 803h-442l-127 -731h-287l127 731h-520l-127 -731h-287l127 731h-180zM1960 1311q12 70 74 118t135 48q74 0 115.5 -48t29.5 -118t-72.5 -119t-134.5 -49q-72 0 -115.5 49t-31.5 119z" />
    <glyph glyph-name="f_j" unicode="fj" horiz-adv-x="1374" 
d="M174 731l41 225h180l13 66q41 219 174.5 337t339.5 118h104l-51 -273h-105q-72 0 -116.5 -47.5t-59.5 -134.5l-12 -66h731l-182 -1022q-36 -201 -139 -308t-297 -107h-174l43 258h124q71 0 108 44.5t46 106.5l141 803h-442l-127 -731h-287l127 731h-180zM1153 1311
q12 70 74 118t135 48q74 0 115.5 -48t29.5 -118t-72.5 -119t-134.5 -49q-72 0 -115.5 49t-31.5 119z" />
    <glyph glyph-name=".notdef" horiz-adv-x="1300" 
d="M164 0l239 1362h973l-239 -1362h-973zM530 268q-7 -38 16 -63t62 -25q37 0 69.5 25t39.5 63q7 37 -16.5 62.5t-61.5 25.5q-39 0 -70.5 -25t-38.5 -63zM532 883h127q15 76 67.5 123t117.5 47t106 -42t29 -108q-10 -58 -66 -102q-46 -36 -75 -43q-96 -28 -154.5 -79
t-75.5 -147l-14 -77h127l12 77q7 45 37 67t84 36q93 28 162.5 98.5t87.5 169.5q22 123 -49.5 200t-190.5 77q-117 0 -212.5 -82t-119.5 -215z" />
    <glyph glyph-name=".null" horiz-adv-x="0" 
 />
    <glyph glyph-name="nonmarkingreturn" horiz-adv-x="682" 
 />
    <glyph glyph-name="space" unicode=" " horiz-adv-x="499" 
 />
    <glyph glyph-name="exclam" unicode="!" horiz-adv-x="579" 
d="M137 152q12 72 74 121t135 49t115.5 -48.5t30.5 -121.5q-12 -74 -73 -123t-134 -49t-116.5 49t-31.5 123zM250 426l131 985h315l-213 -985h-233z" />
    <glyph glyph-name="quotedbl" unicode="&#x22;" horiz-adv-x="747" 
d="M293 803l84 608h201l-129 -608h-156zM582 803l84 608h200l-129 -608h-155z" />
    <glyph glyph-name="numbersign" unicode="#" horiz-adv-x="1480" 
d="M129 334l86 188h231l164 344h-229l90 189h231l168 356h228l-168 -356h207l170 356h225l-170 -356h235l-90 -189h-235l-166 -344h235l-88 -188h-233l-166 -334h-223l162 334h-209l-164 -334h-221l163 334h-233zM672 522h207l165 344h-208z" />
    <glyph glyph-name="dollar" unicode="$" horiz-adv-x="1177" 
d="M152 414h301q-8 -72 38 -121t142 -49q92 0 157 40.5t78 108.5q10 54 -18 93.5t-123 66.5l-164 47q-70 23 -124 54t-86 66t-53 71t-28 75t-6.5 72t6.5 68q30 169 169.5 283.5t324.5 133.5l43 219h149l-43 -221q173 -24 261.5 -137t56.5 -289h-299q12 73 -27.5 116.5
t-126.5 43.5q-79 0 -138 -39.5t-69 -101.5q-16 -101 125 -144l160 -53q376 -114 309 -426q-18 -92 -67 -167t-119 -124.5t-150 -79t-167 -38.5l-43 -236h-150l43 236q-198 20 -295.5 138t-66.5 294z" />
    <glyph glyph-name="percent" unicode="%" horiz-adv-x="1417" 
d="M264 1081q20 115 112.5 195t207.5 80q114 0 180.5 -80.5t46.5 -194.5q-20 -115 -114.5 -193.5t-209.5 -78.5t-179 78t-44 194zM303 0l895 1341h141l-895 -1341h-141zM430 1081q-9 -45 16.5 -75.5t71.5 -30.5q45 0 81.5 30.5t45.5 75.5q8 44 -19 76.5t-71 32.5
q-45 0 -81 -32t-44 -77zM842 252q20 115 112 194.5t207 79.5q114 0 181 -80t47 -194q-20 -115 -114.5 -193.5t-209.5 -78.5t-179 78t-44 194zM1008 252q-9 -46 16.5 -76.5t71.5 -30.5q44 0 81 30.5t46 76.5q7 44 -19.5 76t-70.5 32q-45 0 -81 -31.5t-44 -76.5z" />
    <glyph glyph-name="ampersand" unicode="&#x26;" horiz-adv-x="1421" 
d="M172 391q25 135 101 227.5t198 133.5q-73 26 -110 101t-19 179q27 154 163.5 270t317.5 125q128 6 224 -43.5t149 -138.5l-270 -147q-42 53 -105 53q-72 0 -116.5 -43t-53.5 -96q-2 -5 -3 -19.5t3 -39.5t15.5 -46.5t42.5 -38t77 -16.5h234l31 160h264l-31 -160h164
l-41 -229h-164l-37 -209q-8 -42 -10 -70t3 -50t15.5 -34.5t32 -20t48.5 -10t69 -2.5l-45 -247q-73 1 -120 4t-94.5 13.5t-75.5 29.5t-48 51t-27 78q-52 -81 -163.5 -128.5t-210.5 -47.5q-206 0 -323.5 115.5t-84.5 295.5zM487 416q0 -76 46.5 -117t138.5 -41q34 0 74 12
t85 38.5t80 79t47 122.5l21 113h-242q-55 0 -100.5 -16t-72.5 -39.5t-45 -53t-25 -54t-7 -44.5z" />
    <glyph glyph-name="quotesingle" unicode="'" horiz-adv-x="458" 
d="M293 803l84 608h201l-129 -608h-156z" />
    <glyph glyph-name="parenleft" unicode="(" horiz-adv-x="794" 
d="M162 467q49 273 173 493t294 343.5t352 123.5l-41 -223q-100 0 -213.5 -104.5t-203.5 -276.5t-122 -356q-30 -194 -2.5 -355t105.5 -264.5t178 -103.5l-39 -221q-183 0 -311 121.5t-172 331t2 491.5z" />
    <glyph glyph-name="parenright" unicode=")" horiz-adv-x="794" 
d="M-16 -477l34 221q100 0 213.5 101t203.5 270t122 352q26 141 12.5 274t-52 236t-102.5 165t-139 62l41 223q137 0 245 -72t171 -200t83 -304t-19 -384q-37 -204 -118 -381t-189 -300t-239.5 -193t-266.5 -70z" />
    <glyph glyph-name="asterisk" unicode="*" horiz-adv-x="974" 
d="M281 1087l98 191l229 -98l33 268h205l-68 -266l271 96l24 -191l-266 -69l131 -213l-180 -113l-107 221l-194 -225l-135 119l206 207z" />
    <glyph glyph-name="plus" unicode="+" horiz-adv-x="1042" 
d="M174 430l37 209h315l58 315h209l-58 -315h318l-37 -209h-318l-55 -317h-209l55 317h-315z" />
    <glyph glyph-name="comma" unicode="," horiz-adv-x="579" 
d="M-33 -207q86 98 155.5 242t94.5 289h289q-21 -114 -65.5 -216t-101 -176t-105 -123t-97.5 -85z" />
    <glyph glyph-name="hyphen" unicode="-" horiz-adv-x="972" 
d="M193 391l38 225h723l-39 -225h-722z" />
    <glyph glyph-name="period" unicode="." horiz-adv-x="571" 
d="M133 152q12 72 74 121t135 49t115 -48.5t30 -121.5q-12 -74 -72.5 -123t-133.5 -49t-116.5 49t-31.5 123z" />
    <glyph glyph-name="slash" unicode="/" horiz-adv-x="1024" 
d="M59 0l926 1411h227l-925 -1411h-228z" />
    <glyph glyph-name="zero" unicode="0" horiz-adv-x="1236" 
d="M236 672q122 696 626 696q114 0 195 -36t125.5 -97t63 -151.5t14.5 -190t-25 -221.5q-21 -121 -52.5 -219.5t-82.5 -188.5t-117 -151t-159.5 -97t-207.5 -36q-503 0 -380 692zM524 672q-72 -414 140 -414q59 0 107 32.5t82.5 91t58 130t38.5 160.5q75 418 -137 418
q-214 0 -289 -418z" />
    <glyph glyph-name="one" unicode="1" horiz-adv-x="772" 
d="M231 862l45 252l562 246l-242 -1360h-287l168 961z" />
    <glyph glyph-name="two" unicode="2" horiz-adv-x="1122" 
d="M104 0l27 156l666 653q84 81 98 152q9 56 -28.5 94.5t-114.5 38.5q-75 0 -136 -52.5t-88 -134.5l-256 45q67 193 210.5 304.5t332.5 111.5q89 0 164 -30t125 -82.5t72 -129t6 -165.5q-32 -178 -201 -340l-371 -351h414l-47 -270h-873z" />
    <glyph glyph-name="three" unicode="3" horiz-adv-x="1130" 
d="M113 264l274 125q12 -47 65 -86.5t109 -42.5q73 -4 138 41.5t81 101.5q4 14 7.5 29.5t1.5 45.5t-15 52t-49.5 38t-93.5 14h-142l41 245h142q40 0 70.5 15t46 34.5t25.5 42.5t12.5 36t2.5 18q6 24 -1 52t-35 52.5t-74 24.5q-100 0 -156 -74l-205 141q76 96 199.5 151
t253.5 48q171 -9 264.5 -119.5t65.5 -257.5q-15 -81 -74 -150.5t-145 -111.5q102 -39 147.5 -146.5t15.5 -217.5q-30 -112 -120.5 -203.5t-216.5 -139t-256 -38.5q-138 9 -240.5 85.5t-138.5 194.5z" />
    <glyph glyph-name="four" unicode="4" horiz-adv-x="1232" 
d="M90 301l811 1040h303l-141 -798h170l-43 -242h-170l-51 -301h-289l51 301h-641zM524 543h250l72 418z" />
    <glyph glyph-name="five" unicode="5" horiz-adv-x="1212" 
d="M129 250l272 156q28 -61 86 -100.5t121 -39.5q114 0 201 61.5t102 145.5q19 108 -40 163.5t-169 55.5q-47 0 -98 -11t-114.5 -46t-108.5 -90l-141 82l237 714h787l-47 -262h-560l-73 -217q44 34 115.5 52t142.5 18q189 0 291.5 -121.5t64.5 -337.5q-39 -217 -215 -355
t-426 -138q-138 0 -254 74.5t-174 195.5z" />
    <glyph glyph-name="six" unicode="6" horiz-adv-x="1200" 
d="M203 446q9 94 25 182.5t44.5 183.5t66.5 176t93.5 154t123 123t157.5 78t194 25q65 -2 117 -14.5t102.5 -40.5t88 -79.5t59.5 -125.5l-287 -115q-34 107 -137 107q-57 0 -106 -23t-83 -61t-61 -89.5t-43 -104t-25 -109.5q29 50 108.5 100.5t190.5 50.5q74 0 140 -28
t117.5 -81.5t73 -142.5t1.5 -200q-34 -194 -189 -313t-374 -119q-194 0 -306 128t-91 338zM518 428q-12 -72 30 -124t114 -52t134 52t74 124t-31.5 124t-115.5 52t-132.5 -52t-72.5 -124z" />
    <glyph glyph-name="seven" unicode="7" horiz-adv-x="1126" 
d="M182 0l662 1077h-568l50 264h1011l-829 -1341h-326z" />
    <glyph glyph-name="eight" unicode="8" horiz-adv-x="1220" 
d="M176 430q20 108 87.5 197t164.5 141q-79 88 -55 225q28 155 168.5 265t310.5 110t273 -110t77 -265q-23 -134 -139 -225q81 -52 117 -141.5t16 -196.5q-22 -125 -109 -229t-214.5 -162.5t-266.5 -58.5q-104 0 -192 34.5t-145.5 94t-83.5 143.5t-9 178zM465 444
q-15 -84 40 -141t146 -57t168 57.5t92 140.5q15 82 -34 141.5t-156 59.5q-103 0 -172.5 -59.5t-83.5 -141.5zM647 985q-10 -55 18.5 -92t94.5 -37t109 37.5t53 91.5q9 52 -21.5 88.5t-93.5 36.5t-107 -36.5t-53 -88.5z" />
    <glyph glyph-name="nine" unicode="9" horiz-adv-x="1198" 
d="M158 240l288 114q34 -106 138 -106q71 0 128.5 34.5t94.5 92.5t59.5 123t32.5 137q-81 -152 -297 -152q-74 0 -139.5 28t-116 81.5t-72 143t-2.5 200.5q34 194 188.5 313t373.5 119q193 0 306 -128t93 -339q-9 -94 -25.5 -182.5t-45 -183.5t-66.5 -175.5t-94 -153.5
t-123.5 -123t-158 -78t-194.5 -25q-64 2 -116 14.5t-102.5 40.5t-88.5 79.5t-61 125.5zM565 920q-13 -72 30.5 -124.5t115.5 -52.5t132.5 52.5t74.5 124.5q13 72 -30.5 124t-115.5 52t-132.5 -52t-74.5 -124z" />
    <glyph glyph-name="colon" unicode=":" horiz-adv-x="630" 
d="M164 152q12 72 74 121t135 49q72 0 113.5 -48.5t29.5 -121.5q-12 -74 -72 -123t-133 -49t-116 49t-31 123zM281 805q13 74 73 123t133 49t116 -49t30 -123q-13 -73 -73.5 -121.5t-133.5 -48.5t-115.5 48.5t-29.5 121.5z" />
    <glyph glyph-name="semicolon" unicode=";" horiz-adv-x="626" 
d="M-14 -207q86 98 155.5 242t94.5 289h288q-21 -114 -65.5 -216t-100.5 -176t-104.5 -123t-97.5 -85zM297 805q13 74 73.5 123t133.5 49t115.5 -49t29.5 -123q-13 -73 -73.5 -121.5t-133.5 -48.5t-115.5 48.5t-29.5 121.5z" />
    <glyph glyph-name="less" unicode="&#x3c;" horiz-adv-x="1277" 
d="M180 500l41 229l1100 393l-37 -225l-795 -283l693 -282l-41 -226z" />
    <glyph glyph-name="equal" unicode="=" horiz-adv-x="1220" 
d="M190 305l35 201h942l-34 -201h-943zM262 717l39 201h942l-39 -201h-942z" />
    <glyph glyph-name="greater" unicode="&#x3e;" horiz-adv-x="1277" 
d="M174 106l37 226l790 282l-690 283l41 225l959 -393l-41 -229z" />
    <glyph glyph-name="question" unicode="?" horiz-adv-x="1015" 
d="M252 999q35 195 175 311.5t333 116.5q194 0 294.5 -108t67.5 -291q-27 -146 -120 -247.5t-224 -139.5q-65 -18 -94 -56t-43 -114l-10 -45h-279l2 45q10 52 15 77.5t15 65t19.5 60t25.5 49.5t35 46.5t46.5 39.5t62 39t78.5 35l90 35q53 27 70.5 50.5t24.5 61.5
q8 47 -27 79t-98 32q-65 0 -113.5 -39t-58.5 -103h-287zM268 152q12 72 74 121t135 49t115.5 -48.5t30.5 -121.5q-12 -74 -73 -123t-134 -49t-116.5 49t-31.5 123z" />
    <glyph glyph-name="at" unicode="@" horiz-adv-x="1974" 
d="M184 526q33 184 131.5 350.5t237.5 287.5t316 192t360 71q185 0 342 -66t262 -179.5t151.5 -275t14.5 -343.5q-14 -77 -40 -156t-70.5 -160t-99.5 -143t-132 -101.5t-162 -39.5q-62 0 -111.5 16t-90 53.5t-53 97.5t0.5 149l47 258q19 101 -38 170t-156 69
q-98 0 -180 -69.5t-101 -169.5q-17 -96 41.5 -166t155.5 -70q92 0 168 51l-33 -192q-99 -39 -170 -39q-173 0 -274 121.5t-70 294.5q32 176 175.5 297.5t317.5 121.5q171 0 271 -114q106 -116 82 -285l-54 -291q-11 -66 19.5 -94.5t81.5 -28.5q63 0 116 42.5t87 110.5
t55 134t33 133q26 144 -11 272t-121.5 217t-210.5 141t-274 52q-194 0 -373 -97t-300.5 -262t-157.5 -360q-27 -146 4.5 -277t108.5 -225.5t197.5 -150t266.5 -55.5h68l-33 -183h-68q-184 0 -336 69.5t-248.5 188.5t-136 284t-6.5 349z" />
    <glyph glyph-name="A" unicode="A" horiz-adv-x="1349" 
d="M-12 0l772 1411h325l275 -1411h-316l-67 334h-488l-182 -334h-319zM633 594h293l-62 491z" />
    <glyph glyph-name="B" unicode="B" horiz-adv-x="1304" 
d="M166 0l248 1411h565q191 0 286 -106t64 -287q-14 -79 -73 -152.5t-166 -111.5q63 -17 109 -54t67.5 -81.5t30.5 -94.5t-1 -92q-32 -182 -176 -307t-348 -125h-606zM512 264h289q70 0 119.5 52.5t62.5 121.5q12 66 -21.5 117t-107.5 51h-283zM616 854h236q58 0 102.5 41
t55.5 104q11 68 -16 108t-91 40h-233z" />
    <glyph glyph-name="C" unicode="C" horiz-adv-x="1431" 
d="M207 702q36 198 157 364.5t300.5 263.5t377.5 97q185 0 325 -80.5t212 -218.5l-276 -167q-42 85 -123 134.5t-187 49.5q-175 0 -313.5 -128.5t-171.5 -314.5q-33 -185 60 -312.5t268 -127.5q108 0 211.5 53.5t177.5 141.5l209 -168q-118 -142 -289 -225.5t-359 -83.5
q-197 0 -343 97.5t-208.5 263t-27.5 361.5z" />
    <glyph glyph-name="D" unicode="D" horiz-adv-x="1447" 
d="M166 0l248 1411h553q120 0 216.5 -35t160 -99t103.5 -152.5t45.5 -195t-13.5 -227.5q-27 -150 -92.5 -278t-161.5 -222.5t-226.5 -148t-279.5 -53.5h-553zM512 272h254q108 0 196.5 60t142 155.5t75.5 214.5q11 71 11 135t-19 119.5t-51 96t-83.5 63.5t-117.5 23h-254z
" />
    <glyph glyph-name="E" unicode="E" horiz-adv-x="1179" 
d="M166 0l248 1411h893l-45 -264h-594l-60 -322h520l-45 -260h-520l-53 -301h612l-45 -264h-911z" />
    <glyph glyph-name="F" unicode="F" horiz-adv-x="1101" 
d="M166 0l248 1411h882l-45 -264h-581l-60 -322h461l-45 -262h-461l-98 -563h-301z" />
    <glyph glyph-name="G" unicode="G" horiz-adv-x="1548" 
d="M207 702q27 148 106.5 282t192.5 231t257.5 154.5t293.5 57.5q160 0 287 -61.5t202 -169.5l-254 -190q-102 143 -282 143q-178 0 -324 -131t-178 -316q-21 -121 15.5 -223.5t122.5 -163.5t202 -61q78 0 161 29t147.5 86.5t76.5 128.5h-379l43 243h725
q-33 -194 -108.5 -341t-184 -238t-241 -136.5t-287.5 -45.5q-199 0 -348 97t-215 263t-31 362z" />
    <glyph glyph-name="H" unicode="H" horiz-adv-x="1435" 
d="M166 0l248 1411h299l-103 -575h502l102 575h304l-248 -1411h-303l98 567h-502l-98 -567h-299z" />
    <glyph glyph-name="I" unicode="I" horiz-adv-x="630" 
d="M166 0l248 1411h299l-248 -1411h-299z" />
    <glyph glyph-name="J" unicode="J" horiz-adv-x="632" 
d="M-281 -449l76 271q63 -23 176 -23q80 0 128.5 54.5t64.5 140.5l250 1417h301l-250 -1417q-18 -100 -58.5 -184t-105.5 -151t-162.5 -104.5t-218.5 -37.5q-65 0 -201 34z" />
    <glyph glyph-name="K" unicode="K" horiz-adv-x="1247" 
d="M166 0l248 1411h303l-82 -463l416 463h352l-660 -698l539 -713h-389l-342 479l-82 -479h-303z" />
    <glyph glyph-name="L" unicode="L" horiz-adv-x="1046" 
d="M166 0l248 1411h301l-203 -1147h528l-45 -264h-829z" />
    <glyph glyph-name="M" unicode="M" horiz-adv-x="1869" 
d="M88 0l422 1411h248l266 -909l582 909h252l-76 -1411h-301l49 846l-451 -684h-231l-211 684l-248 -846h-301z" />
    <glyph glyph-name="N" unicode="N" horiz-adv-x="1390" 
d="M166 0l248 1411h274l334 -844l149 844h302l-248 -1411h-269l-342 854l-149 -854h-299z" />
    <glyph glyph-name="O" unicode="O" horiz-adv-x="1599" 
d="M207 702q27 148 106.5 282t191.5 231t254.5 154.5t289.5 57.5q148 0 271 -57.5t201.5 -154.5t111 -231t5.5 -282q-26 -146 -105.5 -279.5t-192.5 -230.5t-256 -154.5t-291 -57.5q-196 0 -343 97t-212.5 263t-30.5 362zM506 702q-31 -178 66.5 -302t271.5 -124
q175 0 319.5 124.5t175.5 301.5q21 116 -17 214.5t-124 156t-201 57.5q-114 0 -220 -57.5t-178 -155.5t-93 -215z" />
    <glyph glyph-name="P" unicode="P" horiz-adv-x="1257" 
d="M166 0l248 1411h579q78 0 143 -18.5t108.5 -50.5t76 -76t46 -95.5t17.5 -108t-8 -114.5q-16 -90 -58.5 -171t-109 -146.5t-165 -104.5t-214.5 -39h-278l-84 -487h-301zM598 750h264q82 0 141 61t72 137q8 47 -1.5 91t-44 76t-87.5 32h-272z" />
    <glyph glyph-name="Q" unicode="Q" horiz-adv-x="1613" 
d="M207 702q27 148 106.5 282t192.5 231t257.5 154.5t293.5 57.5q200 0 350.5 -97t216.5 -263.5t31 -364.5q-32 -178 -142 -333.5t-270 -257.5l94 -226l-233 -127l-109 246q-95 -24 -194 -24q-199 0 -348 97t-215 263t-31 362zM508 702q-28 -156 44 -272.5t212 -148.5
q60 -13 117 -13l-76 189l233 125l95 -220q86 60 144.5 148t76.5 192q21 121 -17.5 223t-125.5 161t-203 59q-178 0 -323 -129t-177 -314z" />
    <glyph glyph-name="R" unicode="R" horiz-adv-x="1304" 
d="M166 0l248 1411h577q78 0 142.5 -18.5t109 -50.5t77 -76t47 -95.5t19 -108t-7.5 -114.5q-13 -77 -47 -148t-87 -132t-129.5 -105t-168.5 -63l264 -500h-360l-232 487h-67l-84 -487h-301zM598 750h254q82 0 141 61t72 137q8 47 -1.5 91t-44 76t-87.5 32h-262z" />
    <glyph glyph-name="S" unicode="S" horiz-adv-x="1191" 
d="M162 414h301q-8 -72 38 -121t142 -49q92 0 157 40.5t77 108.5q12 54 -16.5 93.5t-123.5 66.5l-164 49q-71 22 -125 52t-86.5 65t-52.5 71t-26.5 75.5t-6 72.5t6.5 68q22 123 104 220t201 149t254 52q209 0 323 -117t78 -315h-299q12 73 -27 116.5t-126 43.5
q-79 0 -139 -39.5t-70 -101.5q-16 -96 127 -144l159 -51q372 -118 310 -428q-16 -82 -57.5 -151t-98.5 -116.5t-127.5 -81t-145.5 -49.5t-151 -16q-229 0 -349.5 122.5t-86.5 314.5z" />
    <glyph glyph-name="T" unicode="T" horiz-adv-x="1179" 
d="M258 1141l47 270h1065l-47 -270h-381l-201 -1141h-303l201 1141h-381z" />
    <glyph glyph-name="U" unicode="U" horiz-adv-x="1396" 
d="M238 504l161 907h306l-162 -907q-18 -106 42 -174t158 -68t183.5 68.5t103.5 173.5l162 907h301l-162 -907q-27 -155 -124.5 -276t-232.5 -184.5t-280 -63.5q-109 0 -201.5 37.5t-156 104.5t-91 166.5t-7.5 215.5z" />
    <glyph glyph-name="V" unicode="V" horiz-adv-x="1191" 
d="M281 1411h311l88 -926l414 926h313l-678 -1411h-266z" />
    <glyph glyph-name="W" unicode="W" horiz-adv-x="1814" 
d="M246 1411h323l119 -889q137 298 309 690h246l66 -690l432 889h325l-727 -1411h-235l-70 741l-323 -741h-238z" />
    <glyph glyph-name="X" unicode="X" horiz-adv-x="1347" 
d="M8 0l621 752l-330 659h360l189 -422l338 422h358l-559 -659l356 -752h-354l-223 512l-404 -512h-352z" />
    <glyph glyph-name="Y" unicode="Y" horiz-adv-x="1333" 
d="M217 1411h356l248 -528l436 528h357l-684 -776l-111 -635h-305l113 639z" />
    <glyph glyph-name="Z" unicode="Z" horiz-adv-x="1218" 
d="M86 0l39 227l809 920h-619l45 264h1008l-41 -227l-813 -920h651l-45 -264h-1034z" />
    <glyph glyph-name="bracketleft" unicode="[" horiz-adv-x="692" 
d="M63 -469l334 1880h473l-36 -207h-232l-258 -1462h231l-38 -211h-474z" />
    <glyph glyph-name="backslash" unicode="\" horiz-adv-x="1024" 
d="M307 1411h228l430 -1411h-228z" />
    <glyph glyph-name="bracketright" unicode="]" horiz-adv-x="692" 
d="M-12 -469l35 211h231l258 1462h-231l36 207h474l-334 -1880h-469z" />
    <glyph glyph-name="underscore" unicode="_" horiz-adv-x="1521" 
d="M72 -270l37 204h1275l-36 -204h-1276z" />
    <glyph glyph-name="grave" unicode="`" horiz-adv-x="1134" 
d="M520 1448h283l164 -344h-205z" />
    <glyph glyph-name="a" unicode="a" horiz-adv-x="1253" 
d="M158 479q20 111 78.5 206.5t138 158t173 98t185.5 35.5q27 0 59 -5.5t70.5 -18t73 -39.5t53.5 -64l19 106h282l-168 -956h-282l20 109q-56 -62 -144.5 -94.5t-156.5 -32.5q-92 0 -173.5 35t-139.5 97.5t-83 158t-5 206.5zM453 479q-17 -99 44 -163t154 -64t174 62.5
t99 164.5q18 103 -41 165.5t-152 62.5q-94 0 -177.5 -64.5t-100.5 -163.5z" />
    <glyph glyph-name="b" unicode="b" horiz-adv-x="1232" 
d="M131 0l260 1477h283l-113 -637q46 64 129.5 100.5t175.5 36.5t169.5 -36t130 -99.5t73 -159t0.5 -207.5q-39 -219 -199.5 -357t-351.5 -138q-91 0 -161.5 37t-94.5 102l-18 -119h-283zM502 481q-18 -100 35 -165.5t145 -65.5q93 0 168.5 64t93.5 167q18 101 -34.5 164.5
t-145.5 63.5q-92 0 -168 -62.5t-94 -165.5z" />
    <glyph glyph-name="c" unicode="c" horiz-adv-x="1075" 
d="M156 481q26 146 119.5 261t222 175t266.5 60q128 0 228.5 -53.5t152.5 -149.5l-262 -166q-20 45 -65 71t-101 26q-95 0 -178 -62.5t-101 -161.5t42 -164t155 -65q56 0 111 25.5t94 70.5l200 -164q-86 -97 -204.5 -150.5t-247.5 -53.5q-102 0 -190 36.5t-148.5 100.5
t-86.5 159t-7 205z" />
    <glyph glyph-name="d" unicode="d" horiz-adv-x="1232" 
d="M160 475q27 149 112 265t200 176.5t239 60.5q92 0 163.5 -36.5t92.5 -100.5l114 637h283l-262 -1477h-283l19 119q-45 -65 -128.5 -102t-174.5 -37q-92 0 -169.5 35.5t-130 98.5t-73.5 157t-2 204zM455 481q-18 -103 33.5 -167t144.5 -64q91 0 168.5 65t95.5 166
q18 103 -36 165.5t-146 62.5q-93 0 -167.5 -63.5t-92.5 -164.5z" />
    <glyph glyph-name="e" unicode="e" horiz-adv-x="1126" 
d="M156 481q26 147 114 261t212 174.5t261 60.5q208 0 324.5 -141t77.5 -363q-5 -32 -23 -88h-700q-3 -77 61.5 -118.5t149.5 -41.5q61 0 120.5 23t102.5 67l182 -141q-86 -100 -211.5 -147t-259.5 -47q-102 0 -187 36.5t-141.5 101t-79 159t-3.5 204.5zM461 563h413
q3 55 -25 94t-67 54.5t-82 15.5q-70 0 -139 -40.5t-100 -123.5z" />
    <glyph glyph-name="f" unicode="f" horiz-adv-x="751" 
d="M174 731l41 225h180l15 66q37 218 171 336.5t341 118.5h104l-51 -273h-105q-72 0 -116 -47.5t-58 -134.5l-14 -66h192l-40 -225h-193l-127 -731h-287l127 731h-180z" />
    <glyph glyph-name="g" unicode="g" horiz-adv-x="1245" 
d="M70 -180q39 17 123.5 55.5t123.5 56.5q13 -65 77 -109t138 -44q79 0 139 26t97.5 73.5t58.5 107t29 133.5q-43 -64 -130 -101.5t-179 -37.5t-172 35.5t-135 98.5t-78 157t-4 204q20 112 77 207.5t134 159t169.5 99.5t184.5 36q93 0 166.5 -37.5t93.5 -101.5l23 118h276
l-145 -823q-53 -304 -220.5 -457t-427.5 -153q-157 0 -269.5 81t-149.5 216zM455 481q-18 -104 37 -168.5t149 -64.5q92 0 174 66t100 167q18 103 -40 164.5t-152 61.5t-172.5 -63.5t-95.5 -162.5z" />
    <glyph glyph-name="h" unicode="h" horiz-adv-x="1185" 
d="M131 0l260 1477h285l-119 -670q42 82 131 126t168 44q187 0 263.5 -119t37.5 -338l-90 -520h-285l88 510q16 88 -27.5 139t-113.5 51q-36 0 -70 -10.5t-66.5 -32t-56 -60.5t-32.5 -91l-88 -506h-285z" />
    <glyph glyph-name="i" unicode="i" horiz-adv-x="544" 
d="M131 0l168 956h283l-168 -956h-283zM326 1311q12 70 72.5 118t133.5 48q72 0 115 -48t31 -118t-72.5 -119t-132.5 -49t-115.5 49t-31.5 119z" />
    <glyph glyph-name="j" unicode="j" horiz-adv-x="548" 
d="M-201 -481l43 258h125q68 0 104.5 45t45.5 106l182 1028h287l-183 -1022q-36 -202 -137.5 -308.5t-292.5 -106.5h-174zM328 1311q12 70 73 118t134 48q74 0 116.5 -48t30.5 -118t-72.5 -119t-134.5 -49q-72 0 -115.5 49t-31.5 119z" />
    <glyph glyph-name="k" unicode="k" horiz-adv-x="1077" 
d="M131 0l260 1477h283l-137 -783l272 262h362l-473 -421l385 -535h-350l-254 379l-65 -379h-283z" />
    <glyph glyph-name="l" unicode="l" horiz-adv-x="546" 
d="M131 0l260 1477h285l-260 -1477h-285z" />
    <glyph glyph-name="m" unicode="m" horiz-adv-x="1748" 
d="M131 0l168 956h285l-25 -139q46 73 123 115.5t156 42.5q226 0 276 -168q135 170 318 170q173 0 250.5 -110.5t39.5 -323.5l-94 -543h-282l88 510q16 90 -20 140t-103 50q-73 0 -127 -47.5t-72 -146.5l-88 -506h-285l90 516q14 87 -22.5 135.5t-101.5 48.5
q-72 0 -128 -46.5t-73 -147.5l-88 -506h-285z" />
    <glyph glyph-name="n" unicode="n" 
d="M131 0l168 956h285l-25 -139q51 72 135.5 116t169.5 44q165 0 239.5 -103t39.5 -303l-101 -571h-284l88 510q18 92 -19 141t-112 49q-178 0 -211 -194l-88 -506h-285z" />
    <glyph glyph-name="o" unicode="o" horiz-adv-x="1140" 
d="M156 481q39 220 207 358t376 138q135 0 237.5 -60.5t150.5 -175t22 -260.5q-39 -220 -207.5 -358.5t-376.5 -138.5q-101 0 -185 36t-140.5 99.5t-79.5 157.5t-4 204zM436 481q-17 -97 34.5 -158t141.5 -61q92 0 165.5 61t90.5 158q17 95 -34 156t-142 61
q-90 0 -164.5 -61t-91.5 -156z" />
    <glyph glyph-name="p" unicode="p" horiz-adv-x="1232" 
d="M45 -469l254 1425h283l-23 -118q49 65 132.5 102t174.5 37q92 0 169.5 -35.5t129.5 -99t72.5 -157.5t1.5 -204q-40 -223 -200 -362t-351 -139q-92 0 -162.5 36.5t-91.5 100.5l-106 -586h-283zM502 475q-18 -103 35 -165t145 -62q93 0 169 63.5t93 163.5q17 104 -35 168
t-145 64q-91 0 -167.5 -65.5t-94.5 -166.5z" />
    <glyph glyph-name="q" unicode="q" horiz-adv-x="1232" 
d="M160 481q39 219 199.5 357.5t349.5 138.5q93 0 164.5 -37.5t89.5 -101.5l22 118h285l-254 -1425h-285l107 586q-46 -65 -129.5 -101t-176.5 -36q-91 0 -168.5 35.5t-130 99t-73 159t-0.5 207.5zM455 475q-17 -101 34 -164t142 -63q92 0 169 62t95 165q18 100 -36 166
t-146 66t-166.5 -64.5t-91.5 -167.5z" />
    <glyph glyph-name="r" unicode="r" horiz-adv-x="866" 
d="M131 0l168 956h285l-41 -231q56 124 144.5 188t170.5 64q97 0 156 -35l-94 -256q-57 29 -142 29q-122 0 -196.5 -95t-108.5 -286l-57 -334h-285z" />
    <glyph glyph-name="s" unicode="s" horiz-adv-x="956" 
d="M127 309h266q-6 -43 29 -76.5t92 -33.5q49 0 87 22t44 58q6 31 -11.5 49.5t-68.5 31.5l-121 33q-56 16 -99 37.5t-68.5 42.5t-41.5 48.5t-22.5 47.5t-6.5 50t2 45t7 41q22 107 146.5 189.5t273.5 82.5q59 0 112 -10.5t100 -34.5t78.5 -60t45 -90.5t2.5 -122.5h-268
q7 48 -22 66t-73 18q-46 0 -77 -19.5t-35 -51.5q-7 -52 71 -72l154 -43q53 -15 93 -37.5t62.5 -48.5t37 -52.5t18.5 -54t4 -47.5t-4 -38q-11 -59 -43.5 -109t-79 -84.5t-104 -58.5t-118.5 -35.5t-122 -11.5q-74 0 -140.5 22t-116.5 62t-73 104t-10 141z" />
    <glyph glyph-name="t" unicode="t" horiz-adv-x="747" 
d="M174 731l41 225h174l66 367h282l-65 -367h200l-41 -225h-200l-127 -731h-283l127 731h-174z" />
    <glyph glyph-name="u" unicode="u" 
d="M186 385l101 571h286l-90 -510q-10 -54 0 -93.5t33 -59t48.5 -28.5t53.5 -9q74 0 131 47t76 148l90 505h285l-168 -956h-284l20 131q-49 -70 -125.5 -110.5t-148.5 -40.5q-169 0 -255.5 104t-52.5 301z" />
    <glyph glyph-name="v" unicode="v" horiz-adv-x="1064" 
d="M174 956h303l117 -594l328 594h305l-574 -956h-243z" />
    <glyph glyph-name="w" unicode="w" horiz-adv-x="1562" 
d="M184 956h303l70 -569l268 569h244l68 -569l270 569h303l-504 -956h-237l-82 608l-287 -608h-238z" />
    <glyph glyph-name="x" unicode="x" horiz-adv-x="1085" 
d="M8 0l467 518l-237 438h331l107 -211l178 211h330l-393 -438l284 -518h-330l-151 293l-256 -293h-330z" />
    <glyph glyph-name="y" unicode="y" horiz-adv-x="1044" 
d="M59 -469l332 567l-217 858h303l113 -542l311 542h303l-844 -1425h-301z" />
    <glyph glyph-name="z" unicode="z" horiz-adv-x="1044" 
d="M84 0l35 211l538 483h-421l45 262h833l-37 -213l-545 -481h459l-45 -262h-862z" />
    <glyph glyph-name="braceleft" unicode="{" horiz-adv-x="843" 
d="M129 385l33 172q48 0 91.5 32.5t53.5 86.5l58 325q21 122 93.5 216.5t175 144t216.5 49.5h174l-37 -207h-180q-69 0 -126.5 -50.5t-70.5 -125.5l-61 -336q-16 -87 -77.5 -146t-125.5 -75q59 -16 100 -75t25 -146l-55 -313q-14 -76 26.5 -133.5t108.5 -57.5h180l-41 -215
h-174q-175 0 -274.5 113.5t-65.5 296.5l57 325q10 54 -23 86.5t-81 32.5z" />
    <glyph glyph-name="bar" unicode="|" horiz-adv-x="448" 
d="M102 -254l338 1896h150l-338 -1896h-150z" />
    <glyph glyph-name="braceright" unicode="}" horiz-adv-x="843" 
d="M-14 -469l34 215h181q68 0 127 57.5t73 133.5l56 313q16 87 77 146t123 75q-56 16 -96 75t-24 146l59 336q13 74 -27 125t-110 51h-180l36 207h174q175 0 275 -113.5t67 -296.5l-57 -325q-10 -54 22.5 -86.5t80.5 -32.5l-31 -172q-48 0 -92 -32.5t-54 -86.5l-57 -325
q-21 -122 -94 -216.5t-176 -144t-217 -49.5h-170z" />
    <glyph glyph-name="exclamdown" unicode="&#xa1;" horiz-adv-x="546" 
d="M31 -469l219 999h233l-137 -999h-315zM238 805q13 74 73 123t133 49t117 -49t31 -123q-13 -72 -74.5 -121t-134.5 -49t-115.5 48.5t-29.5 121.5z" />
    <glyph glyph-name="cent" unicode="&#xa2;" horiz-adv-x="1101" 
d="M162 481q34 191 179.5 323.5t332.5 164.5l39 221h149l-37 -215q108 -11 194.5 -63.5t131.5 -137.5l-260 -166q-22 45 -67 71t-101 26q-95 0 -178 -62.5t-101 -161.5t43 -164t156 -65q56 0 110 25.5t93 70.5l201 -164q-76 -87 -179.5 -139t-218.5 -63l-43 -236h-149
l43 242q-177 32 -274.5 166t-63.5 327z" />
    <glyph glyph-name="sterling" unicode="&#xa3;" horiz-adv-x="1392" 
d="M84 0l43 254h217l57 317h-170l23 129h170l47 269q36 208 181 333t337 125q97 0 174.5 -28.5t132 -85t75 -148t-0.5 -209.5h-297q29 168 -133 168q-71 0 -120.5 -42.5t-61.5 -112.5l-47 -269h235l-22 -129h-236l-57 -317h377q27 0 48 21t27 53l11 59h280l-20 -115
q-20 -116 -108 -194t-197 -78h-965z" />
    <glyph glyph-name="currency" unicode="&#xa4;" horiz-adv-x="1271" 
d="M186 330l170 147q-40 90 -18 217q21 123 98 219l-121 148l166 141l123 -147q112 61 225 61q120 0 211 -61l170 147l117 -141l-174 -150q45 -110 27 -217q-20 -119 -103 -217l121 -147l-168 -142l-119 148q-112 -62 -231 -62q-121 0 -207 62l-172 -148zM588 694
q-14 -71 26.5 -120.5t110.5 -49.5q72 0 131.5 49.5t73.5 120.5q13 71 -30 121.5t-116 50.5q-70 0 -126 -50t-70 -122z" />
    <glyph glyph-name="yen" unicode="&#xa5;" horiz-adv-x="1519" 
d="M309 1411h357l247 -528l437 528h356l-659 -747h299l-23 -140h-319l-35 -190h319l-24 -139h-320l-33 -195h-305l33 195h-317l24 139h318l34 190h-317l22 140h299z" />
    <glyph glyph-name="brokenbar" unicode="&#xa6;" horiz-adv-x="452" 
d="M104 -254l140 786h149l-139 -786h-150zM303 860l139 782h150l-139 -782h-150z" />
    <glyph glyph-name="section" unicode="&#xa7;" horiz-adv-x="1107" 
d="M119 -4l252 72q7 -81 53 -119.5t108 -38.5q76 0 138.5 49.5t77.5 128.5l63 361q14 80 -30.5 128t-121.5 48h-12q-41 0 -92 -9l45 250q56 13 105 13q183 0 288 -119t72 -311l-64 -361q-23 -127 -100.5 -226.5t-186 -151.5t-227.5 -52q-71 0 -135 21t-116 61t-84 106
t-33 150zM231 635l64 360q23 128 100 227t185 151t227 52q71 0 135.5 -21t117.5 -61t85 -106t33 -150l-252 -71q-8 81 -54.5 119.5t-109.5 38.5q-76 0 -137 -49.5t-76 -129.5l-64 -360q-14 -80 30.5 -128t121.5 -48h12q47 0 92 8l-45 -250q-54 -12 -104 -12
q-184 0 -289.5 119t-71.5 311z" />
    <glyph glyph-name="dieresis" unicode="&#xa8;" horiz-adv-x="1148" 
d="M477 1307q10 58 61 98.5t113 40.5q60 0 95.5 -40.5t25.5 -98.5q-10 -60 -60 -101t-110 -41q-62 0 -98.5 41t-26.5 101zM840 1307q10 58 61 98.5t113 40.5q60 0 95.5 -40.5t25.5 -98.5q-10 -60 -60 -101t-110 -41q-62 0 -98.5 41t-26.5 101z" />
    <glyph glyph-name="copyright" unicode="&#xa9;" horiz-adv-x="1632" 
d="M223 702q36 197 159.5 363.5t305 264t377.5 97.5t344.5 -97.5t214.5 -264.5t31 -363q-27 -147 -107 -280.5t-193 -230.5t-256 -154t-290 -57t-269.5 57t-200.5 154t-110.5 230.5t-5.5 280.5zM383 702q-27 -152 23 -281t164 -204.5t266 -75.5t293.5 75.5t239 204.5
t124.5 281q20 114 -5 218t-85.5 180t-155.5 121t-209 45t-225 -45t-198 -121t-149.5 -180t-82.5 -218zM580 696q28 152 147.5 257.5t269.5 105.5q91 0 163.5 -43.5t109.5 -118.5l-152 -94q-62 94 -147 94q-79 0 -140.5 -57t-76.5 -144q-15 -83 25 -139.5t118 -56.5
q97 0 184 94l121 -92q-64 -77 -152.5 -122.5t-179.5 -45.5q-150 0 -234 106.5t-56 255.5z" />
    <glyph glyph-name="ordfeminine" unicode="&#xaa;" horiz-adv-x="958" 
d="M233 434l19 109h645l-18 -109h-646zM268 1001q28 158 146 256.5t262 98.5q132 0 194 -103l15 88h155l-120 -679h-156l16 92q-42 -49 -105.5 -78t-123.5 -29q-144 0 -227.5 98.5t-55.5 255.5zM430 1004q-17 -88 30 -144.5t130 -56.5t150.5 54.5t84.5 146.5
q16 91 -36.5 143.5t-131.5 52.5q-83 0 -147.5 -54t-79.5 -142z" />
    <glyph glyph-name="guillemotleft" unicode="&#xab;" horiz-adv-x="1034" 
d="M162 477l358 424h221l-358 -424l209 -424h-221zM524 477l359 424h221l-359 -424l209 -424h-221z" />
    <glyph glyph-name="logicalnot" unicode="&#xac;" horiz-adv-x="1286" 
d="M229 518l45 246h996l-96 -551h-248l51 305h-748z" />
    <glyph glyph-name="registered" unicode="&#xae;" horiz-adv-x="1632" 
d="M223 702q36 197 159.5 363.5t305 264t377.5 97.5t344.5 -97.5t214.5 -264.5t31 -363q-27 -147 -107 -280.5t-193 -230.5t-256 -154t-290 -57t-269.5 57t-200.5 154t-110.5 230.5t-5.5 280.5zM383 702q-27 -152 23 -281t164 -204.5t266 -75.5t293.5 75.5t239 204.5
t124.5 281q20 114 -5 218t-85.5 180t-155.5 121t-209 45t-225 -45t-198 -121t-149.5 -180t-82.5 -218zM625 356l127 695h290q115 0 164 -69t33 -165q-14 -78 -67.5 -140.5t-133.5 -88.5l129 -232h-206l-107 224h-14l-43 -224h-172zM862 731h109q33 0 59.5 26.5t32.5 59.5
q5 28 -9.5 54t-43.5 26h-115z" />
    <glyph glyph-name="macron" unicode="&#xaf;" horiz-adv-x="1060" 
d="M457 1202l32 174h570l-33 -174h-569z" />
    <glyph glyph-name="degree" unicode="&#xb0;" horiz-adv-x="770" 
d="M281 1083q22 121 124 208t222 87q123 0 194 -86.5t49 -208.5q-22 -123 -124.5 -210t-225.5 -87q-120 0 -190.5 87t-48.5 210zM428 1083q-10 -63 24.5 -106t94.5 -43q63 0 114.5 43t61.5 106q11 62 -25.5 105t-99.5 43q-60 0 -110 -43.5t-60 -104.5z" />
    <glyph glyph-name="plusminus" unicode="&#xb1;" horiz-adv-x="1120" 
d="M137 -2l37 209h842l-37 -209h-842zM244 598l37 209h315l51 289h209l-51 -289h317l-37 -209h-317l-53 -293h-209l53 293h-315z" />
    <glyph glyph-name="uni00B2" unicode="&#xb2;" horiz-adv-x="649" 
d="M215 889l14 88l387 379q50 46 58 90q6 34 -15 56t-67 22q-44 0 -81 -30.5t-52 -78.5l-148 27q38 111 122 175t194 64q105 0 168 -66.5t45 -168.5q-16 -103 -117 -197q-11 -10 -215 -205h242l-29 -155h-506z" />
    <glyph glyph-name="uni00B3" unicode="&#xb3;" horiz-adv-x="649" 
d="M217 1042l154 72q12 -31 40 -51t64 -25q48 -3 87.5 27t39.5 55q0 1 2.5 12.5t3.5 22t-2 25.5q-11 50 -92 47h-82l25 141h82q23 0 41 8.5t27.5 20t16 25t8 21.5t1.5 11q4 26 -13.5 51t-54.5 25q-54 0 -90 -45l-117 82q45 56 116 87t147 27q99 -6 153 -69.5t35 -147.5
q-6 -47 -40 -87t-85 -66q59 -23 85.5 -85t8.5 -126q-26 -99 -127 -164t-217 -57q-79 6 -138.5 50.5t-78.5 112.5z" />
    <glyph glyph-name="acute" unicode="&#xb4;" horiz-adv-x="1134" 
d="M459 1104l286 344h283l-364 -344h-205z" />
    <glyph glyph-name="uni00B5" unicode="&#xb5;" horiz-adv-x="1175" 
d="M76 -391l239 1347h285l-90 -510q-10 -54 -0.5 -93.5t32.5 -59t48 -28.5t53 -9q74 0 132 47t77 148l90 505h285l-168 -956h-285l21 131q-51 -70 -127.5 -110.5t-147.5 -40.5q-78 0 -139 55l-16 -271l-29 -155h-260z" />
    <glyph glyph-name="paragraph" unicode="&#xb6;" horiz-adv-x="1460" 
d="M238 967q21 121 98 223t189.5 161.5t234.5 59.5h190l-254 -1440q-9 -49 -59 -49h-162l109 600q-175 11 -276.5 139.5t-69.5 305.5zM420 -381l33 186h247q40 0 71.5 28t37.5 67l268 1511h279q118 0 185 -84.5t46 -196.5l-31 -174h-190l29 156q7 40 -17 66t-63 26h-72
l-229 -1304q-19 -107 -120 -194t-210 -87h-264z" />
    <glyph glyph-name="periodcentered" unicode="&#xb7;" horiz-adv-x="575" 
d="M233 711q13 72 74.5 121t134.5 49t116 -49t30 -121q-13 -74 -73.5 -123t-133.5 -49t-117 49t-31 123z" />
    <glyph glyph-name="cedilla" unicode="&#xb8;" horiz-adv-x="1087" 
d="M287 -313q-9 36 6 120l156 -8q-1 -3 -2.5 -8t-3.5 -19t-1 -26q4 -24 24.5 -34.5t47.5 -4.5q27 10 39.5 34.5t7.5 51.5l-51 262h133l70 -190q15 -36 2 -101q-15 -86 -91.5 -148t-166.5 -62q-61 0 -107 35.5t-63 97.5z" />
    <glyph glyph-name="uni00B9" unicode="&#xb9;" horiz-adv-x="440" 
d="M289 1393l24 143l324 141l-141 -788h-164l100 559z" />
    <glyph glyph-name="ordmasculine" unicode="&#xba;" horiz-adv-x="929" 
d="M223 434l19 109h645l-19 -109h-645zM279 1006q27 156 146.5 253t268.5 97t235.5 -97t59.5 -253q-29 -159 -150 -259t-270 -100q-97 0 -169.5 44t-106 126.5t-14.5 188.5zM434 1006q-17 -90 31.5 -146.5t132.5 -56.5q83 0 149.5 56t83.5 147q15 87 -33 140.5t-132 53.5
t-150.5 -53.5t-81.5 -140.5z" />
    <glyph glyph-name="guillemotright" unicode="&#xbb;" horiz-adv-x="1034" 
d="M96 53l357 424l-205 424h221l205 -424l-357 -424h-221zM459 53l356 424l-205 424h221l205 -424l-356 -424h-221z" />
    <glyph glyph-name="onequarter" unicode="&#xbc;" horiz-adv-x="1603" 
d="M184 -20l1172 1388h168l-1170 -1388h-170zM266 1067l27 143l321 142l-139 -789h-164l99 559zM920 174l473 604h172l-82 -465h98l-25 -139h-98l-28 -174h-166l28 174h-372zM1169 313h148l43 244z" />
    <glyph glyph-name="onehalf" unicode="&#xbd;" horiz-adv-x="1619" 
d="M172 -20l1171 1388h168l-1169 -1388h-170zM266 1067l27 143l321 142l-139 -789h-164l99 559zM1010 0l14 88l387 379q47 47 55 90q6 33 -17 55.5t-69 22.5q-43 0 -78.5 -30.5t-50.5 -78.5l-145 27q39 111 122.5 175.5t192.5 64.5q105 0 168 -67t43 -169
q-20 -108 -116 -197q-40 -37 -98.5 -91.5t-119.5 -112.5h242l-24 -156h-506z" />
    <glyph glyph-name="threequarters" unicode="&#xbe;" horiz-adv-x="1699" 
d="M199 717l155 71q12 -30 39.5 -50t63.5 -25q42 -3 80 23t49 59q11 32 4 59q-11 50 -92 47h-82l26 141h82q17 0 31 4.5t23 12t16 15.5t11 17.5t6 16.5t3 14l2 6q5 26 -12 51t-55 25q-58 0 -90 -45l-117 82q43 56 114.5 87.5t147.5 27.5q99 -6 153.5 -69.5t37.5 -147.5
q-9 -48 -43.5 -88t-83.5 -66q59 -23 86.5 -85t9.5 -126q-28 -100 -129 -164.5t-217 -56.5q-79 6 -138 51t-81 113zM315 -20l1172 1388h168l-1170 -1388h-170zM1016 174l471 604h172l-82 -465h98l-22 -139h-99l-30 -174h-166l31 174h-373zM1264 313h147l43 244z" />
    <glyph glyph-name="questiondown" unicode="&#xbf;" horiz-adv-x="997" 
d="M51 -72q26 145 119.5 247t224.5 140q65 18 93.5 56.5t41.5 113.5l15 45h278l-6 -45q-10 -58 -16 -87.5t-18 -72t-24.5 -65.5t-33.5 -53t-48.5 -49.5t-66 -41.5t-88.5 -42l-88 -35q-54 -27 -71.5 -50.5t-24.5 -62.5q-9 -46 26 -78t99 -32q65 0 112.5 38.5t59.5 102.5h287
q-35 -195 -175 -311.5t-333 -116.5q-194 0 -294.5 108t-68.5 291zM549 805q13 74 74.5 123t134.5 49t115.5 -49t29.5 -123q-13 -73 -73.5 -121.5t-133.5 -48.5t-116.5 49t-30.5 121z" />
    <glyph glyph-name="Agrave" unicode="&#xc0;" horiz-adv-x="1349" 
d="M-12 0l772 1411h325l275 -1411h-316l-67 334h-488l-182 -334h-319zM633 594h293l-62 491zM653 1903h283l164 -344h-205z" />
    <glyph glyph-name="Aacute" unicode="&#xc1;" horiz-adv-x="1349" 
d="M-12 0l772 1411h325l275 -1411h-316l-67 334h-488l-182 -334h-319zM633 594h293l-62 491zM809 1559l287 344h282l-364 -344h-205z" />
    <glyph glyph-name="Acircumflex" unicode="&#xc2;" horiz-adv-x="1349" 
d="M-12 0l772 1411h325l275 -1411h-316l-67 334h-488l-182 -334h-319zM584 1567l284 344h283l164 -344h-205l-129 182l-193 -182h-204zM633 594h293l-62 491z" />
    <glyph glyph-name="Atilde" unicode="&#xc3;" horiz-adv-x="1349" 
d="M-12 0l772 1411h325l275 -1411h-316l-67 334h-488l-182 -334h-319zM633 594h293l-62 491zM659 1608q17 72 47.5 126t66.5 83t71.5 43t70.5 14q29 0 54.5 -13t40.5 -29t33 -29t34 -13t38.5 20.5t31.5 63.5h153q-31 -136 -104.5 -199t-148.5 -63q-34 0 -65 21t-55.5 42
t-43.5 21q-15 0 -38 -22.5t-32 -65.5h-154z" />
    <glyph glyph-name="Adieresis" unicode="&#xc4;" horiz-adv-x="1349" 
d="M-12 0l772 1411h325l275 -1411h-316l-67 334h-488l-182 -334h-319zM629 1761q10 58 62 99t114 41q60 0 94.5 -41t24.5 -99q-10 -60 -59 -100.5t-109 -40.5q-62 0 -99.5 41t-27.5 100zM633 594h293l-62 491zM991 1761q10 58 62 99t114 41q60 0 94.5 -41t24.5 -99
q-10 -60 -59 -100.5t-109 -40.5q-62 0 -99.5 41t-27.5 100z" />
    <glyph glyph-name="Aring" unicode="&#xc5;" horiz-adv-x="1349" 
d="M-12 0l772 1411h325l275 -1411h-316l-67 334h-488l-182 -334h-319zM633 594h293l-62 491zM745 1804q19 106 102.5 179t186.5 73q105 0 165.5 -73.5t41.5 -178.5q-19 -103 -105 -174t-190 -71q-103 0 -161.5 71t-39.5 174zM879 1804q-9 -47 18 -79.5t74 -32.5
q49 0 88.5 32.5t48.5 79.5q9 51 -18.5 85t-77.5 34q-47 0 -85.5 -34t-47.5 -85z" />
    <glyph glyph-name="AE" unicode="&#xc6;" horiz-adv-x="1912" 
d="M-43 0l1139 1411h944l-45 -264h-594l-60 -322h521l-45 -260h-521l-53 -301h612l-45 -264h-911l-2 2l55 322h-377l-260 -324h-358zM797 612h207l69 398z" />
    <glyph glyph-name="Ccedilla" unicode="&#xc7;" horiz-adv-x="1435" 
d="M209 702q35 198 157 364.5t302.5 263.5t378.5 97q185 0 324 -80.5t210 -218.5l-274 -167q-42 85 -123.5 134.5t-188.5 49.5q-175 0 -313.5 -128.5t-171.5 -314.5q-33 -185 61 -312.5t269 -127.5q108 0 210.5 53t176.5 142l209 -168q-108 -130 -258 -211t-318 -94l41 -119
q16 -45 4 -101q-15 -86 -91.5 -148t-166.5 -62q-61 0 -108 35.5t-64 97.5q-9 36 6 120l158 -8q-1 -3 -2.5 -8t-4 -19t-1.5 -26q4 -24 24 -34.5t47 -4.5q27 10 40 34.5t8 51.5l-37 191q-176 18 -303 118t-180.5 258t-20.5 342z" />
    <glyph glyph-name="Egrave" unicode="&#xc8;" horiz-adv-x="1179" 
d="M166 0l248 1411h893l-45 -264h-594l-60 -322h520l-45 -260h-520l-53 -301h612l-45 -264h-911zM610 1903h283l164 -344h-205z" />
    <glyph glyph-name="Eacute" unicode="&#xc9;" horiz-adv-x="1179" 
d="M166 0l248 1411h893l-45 -264h-594l-60 -322h520l-45 -260h-520l-53 -301h612l-45 -264h-911zM711 1559l286 344h283l-365 -344h-204z" />
    <glyph glyph-name="Ecircumflex" unicode="&#xca;" horiz-adv-x="1179" 
d="M166 0l248 1411h893l-45 -264h-594l-60 -322h520l-45 -260h-520l-53 -301h612l-45 -264h-911zM492 1567l284 344h283l164 -344h-205l-129 182l-193 -182h-204z" />
    <glyph glyph-name="Edieresis" unicode="&#xcb;" horiz-adv-x="1179" 
d="M166 0l248 1411h893l-45 -264h-594l-60 -322h520l-45 -260h-520l-53 -301h612l-45 -264h-911zM561 1761q10 58 62 99t114 41q60 0 94.5 -41t24.5 -99q-10 -60 -59 -100.5t-109 -40.5q-62 0 -99.5 41t-27.5 100zM924 1761q10 58 62 99t114 41q60 0 94.5 -41t24.5 -99
q-10 -60 -59 -100.5t-109 -40.5q-62 0 -99.5 41t-27.5 100z" />
    <glyph glyph-name="Igrave" unicode="&#xcc;" horiz-adv-x="630" 
d="M166 0l248 1411h299l-248 -1411h-299zM291 1903h282l164 -344h-205z" />
    <glyph glyph-name="Iacute" unicode="&#xcd;" horiz-adv-x="630" 
d="M166 0l248 1411h299l-248 -1411h-299zM438 1559l287 344h283l-365 -344h-205z" />
    <glyph glyph-name="Icircumflex" unicode="&#xce;" horiz-adv-x="630" 
d="M166 0l248 1411h299l-248 -1411h-299zM227 1567l285 344h283l163 -344h-204l-129 182l-193 -182h-205z" />
    <glyph glyph-name="Idieresis" unicode="&#xcf;" horiz-adv-x="630" 
d="M166 0l248 1411h299l-248 -1411h-299zM297 1761q10 58 62 99t114 41q60 0 94.5 -41t24.5 -99q-10 -60 -59 -100.5t-109 -40.5q-62 0 -99.5 41t-27.5 100zM659 1761q10 58 62.5 99t114.5 41q60 0 94.5 -40.5t23.5 -99.5q-10 -60 -59 -100.5t-109 -40.5q-62 0 -99.5 41
t-27.5 100z" />
    <glyph glyph-name="Eth" unicode="&#xd0;" horiz-adv-x="1478" 
d="M106 582l35 200h193l110 629h553q120 0 216.5 -35t160 -99t103.5 -152.5t45.5 -195t-13.5 -227.5q-27 -150 -92.5 -278t-161.5 -222.5t-226 -148t-279 -53.5h-553l102 582h-193zM543 272h254q82 0 153 34.5t122 94t86.5 136.5t51.5 165q11 71 11 135t-19 119.5t-51 96
t-83.5 63.5t-117.5 23h-254l-63 -357h252l-35 -200h-252z" />
    <glyph glyph-name="Ntilde" unicode="&#xd1;" horiz-adv-x="1390" 
d="M166 0l248 1411h274l334 -844l149 844h302l-248 -1411h-269l-342 854l-149 -854h-299zM682 1608q17 72 47.5 126t66.5 83t71.5 43t70.5 14q29 0 54.5 -13t40.5 -29t33 -29t34 -13t38 20.5t31 63.5h154q-31 -136 -105 -199t-149 -63q-34 0 -65 21t-55.5 42t-43.5 21
q-15 0 -37.5 -22.5t-31.5 -65.5h-154z" />
    <glyph glyph-name="Ograve" unicode="&#xd2;" horiz-adv-x="1599" 
d="M207 702q27 148 106.5 282t191.5 231t254.5 154.5t289.5 57.5q148 0 271 -57.5t201.5 -154.5t111 -231t5.5 -282q-26 -146 -105.5 -279.5t-192.5 -230.5t-256 -154.5t-291 -57.5q-196 0 -343 97t-212.5 263t-30.5 362zM506 702q-31 -178 66.5 -302t271.5 -124
q175 0 319.5 124.5t175.5 301.5q21 116 -17 214.5t-124 156t-201 57.5q-114 0 -220 -57.5t-178 -155.5t-93 -215zM770 1903h283l164 -344h-205z" />
    <glyph glyph-name="Oacute" unicode="&#xd3;" horiz-adv-x="1599" 
d="M207 702q27 148 106.5 282t191.5 231t254.5 154.5t289.5 57.5q148 0 271 -57.5t201.5 -154.5t111 -231t5.5 -282q-26 -146 -105.5 -279.5t-192.5 -230.5t-256 -154.5t-291 -57.5q-196 0 -343 97t-212.5 263t-30.5 362zM506 702q-31 -178 66.5 -302t271.5 -124
q175 0 319.5 124.5t175.5 301.5q21 116 -17 214.5t-124 156t-201 57.5q-114 0 -220 -57.5t-178 -155.5t-93 -215zM938 1559l287 344h282l-364 -344h-205z" />
    <glyph glyph-name="Ocircumflex" unicode="&#xd4;" horiz-adv-x="1599" 
d="M207 702q27 148 106.5 282t191.5 231t254.5 154.5t289.5 57.5q148 0 271 -57.5t201.5 -154.5t111 -231t5.5 -282q-26 -146 -105.5 -279.5t-192.5 -230.5t-256 -154.5t-291 -57.5q-196 0 -343 97t-212.5 263t-30.5 362zM506 702q-31 -178 66.5 -302t271.5 -124
q175 0 319.5 124.5t175.5 301.5q21 116 -17 214.5t-124 156t-201 57.5q-114 0 -220 -57.5t-178 -155.5t-93 -215zM709 1567l284 344h283l164 -344h-205l-127 182l-195 -182h-204z" />
    <glyph glyph-name="Otilde" unicode="&#xd5;" horiz-adv-x="1599" 
d="M207 702q27 148 106.5 282t191.5 231t254.5 154.5t289.5 57.5q148 0 271 -57.5t201.5 -154.5t111 -231t5.5 -282q-26 -146 -105.5 -279.5t-192.5 -230.5t-256 -154.5t-291 -57.5q-196 0 -343 97t-212.5 263t-30.5 362zM506 702q-31 -178 66.5 -302t271.5 -124
q175 0 319.5 124.5t175.5 301.5q21 116 -17 214.5t-124 156t-201 57.5q-114 0 -220 -57.5t-178 -155.5t-93 -215zM786 1608q31 137 105 201.5t151 64.5q29 0 54 -13t40 -29t32.5 -29t33.5 -13t39 20.5t33 63.5h153q-17 -72 -47.5 -125.5t-66.5 -81.5t-71 -41.5t-68 -13.5
q-34 0 -65.5 21t-56.5 42t-44 21q-16 0 -38 -22.5t-30 -65.5h-154z" />
    <glyph glyph-name="Odieresis" unicode="&#xd6;" horiz-adv-x="1599" 
d="M207 702q27 148 106.5 282t191.5 231t254.5 154.5t289.5 57.5q148 0 271 -57.5t201.5 -154.5t111 -231t5.5 -282q-26 -146 -105.5 -279.5t-192.5 -230.5t-256 -154.5t-291 -57.5q-196 0 -343 97t-212.5 263t-30.5 362zM506 702q-31 -178 66.5 -302t271.5 -124
q175 0 319.5 124.5t175.5 301.5q21 116 -17 214.5t-124 156t-201 57.5q-114 0 -220 -57.5t-178 -155.5t-93 -215zM780 1761q10 58 61 99t113 41q60 0 95.5 -41t25.5 -99q-10 -60 -59 -100.5t-109 -40.5q-62 0 -99.5 41t-27.5 100zM1143 1761q10 58 61 99t113 41
q60 0 95.5 -41t25.5 -99q-10 -60 -59 -100.5t-109 -40.5q-62 0 -99.5 41t-27.5 100z" />
    <glyph glyph-name="multiply" unicode="&#xd7;" horiz-adv-x="1005" 
d="M166 297l278 233l-196 238l176 147l194 -237l283 240l119 -148l-281 -240l197 -237l-176 -150l-197 240l-276 -233z" />
    <glyph glyph-name="Oslash" unicode="&#xd8;" horiz-adv-x="1595" 
d="M96 63l197 168q-138 199 -88 471q27 148 106.5 282t191.5 231t254.5 154.5t289.5 57.5q129 0 239 -43t189 -122l190 165l80 -94l-193 -168q130 -203 84 -463q-36 -196 -160 -362t-306 -263t-379 -97q-253 0 -420 157l-2 -2l-193 -168zM502 702q-27 -144 37 -256l690 601
q-92 83 -234 83q-114 0 -220.5 -57.5t-179 -156t-93.5 -214.5zM616 352q92 -76 226 -76q175 0 319.5 124.5t175.5 301.5q24 137 -37 246z" />
    <glyph glyph-name="Ugrave" unicode="&#xd9;" horiz-adv-x="1396" 
d="M238 504l161 907h306l-162 -907q-18 -106 42 -174t158 -68t183.5 68.5t103.5 173.5l162 907h301l-162 -907q-27 -155 -124.5 -276t-232.5 -184.5t-280 -63.5q-109 0 -201.5 37.5t-156 104.5t-91 166.5t-7.5 215.5zM686 1903h283l164 -344h-205z" />
    <glyph glyph-name="Uacute" unicode="&#xda;" horiz-adv-x="1396" 
d="M238 504l161 907h306l-162 -907q-18 -106 42 -174t158 -68t183.5 68.5t103.5 173.5l162 907h301l-162 -907q-27 -155 -124.5 -276t-232.5 -184.5t-280 -63.5q-109 0 -201.5 37.5t-156 104.5t-91 166.5t-7.5 215.5zM807 1559l287 344h282l-364 -344h-205z" />
    <glyph glyph-name="Ucircumflex" unicode="&#xdb;" horiz-adv-x="1396" 
d="M238 504l161 907h306l-162 -907q-18 -106 42 -174t158 -68t183.5 68.5t103.5 173.5l162 907h301l-162 -907q-27 -155 -124.5 -276t-232.5 -184.5t-280 -63.5q-109 0 -201.5 37.5t-156 104.5t-91 166.5t-7.5 215.5zM606 1567l285 344h283l163 -344h-204l-127 182
l-195 -182h-205z" />
    <glyph glyph-name="Udieresis" unicode="&#xdc;" horiz-adv-x="1396" 
d="M238 504l161 907h306l-162 -907q-18 -106 42 -174t158 -68t183.5 68.5t103.5 173.5l162 907h301l-162 -907q-27 -155 -124.5 -276t-232.5 -184.5t-280 -63.5q-109 0 -201.5 37.5t-156 104.5t-91 166.5t-7.5 215.5zM678 1761q10 58 61 99t113 41q60 0 95.5 -41t25.5 -99
q-10 -60 -59 -100.5t-109 -40.5q-62 0 -99.5 41t-27.5 100zM1040 1761q10 58 61 99t113 41q60 0 95.5 -41t25.5 -99q-10 -60 -59 -100.5t-109 -40.5q-62 0 -99.5 41t-27.5 100z" />
    <glyph glyph-name="Yacute" unicode="&#xdd;" horiz-adv-x="1333" 
d="M217 1411h356l248 -528l436 528h357l-684 -776l-111 -635h-305l113 639zM786 1559l287 344h283l-365 -344h-205z" />
    <glyph glyph-name="Thorn" unicode="&#xde;" horiz-adv-x="1171" 
d="M166 0l248 1411h299l-41 -229h198q196 0 305 -126.5t72 -332.5q-38 -207 -192 -336t-348 -129h-199l-43 -258h-299zM555 512h184q70 0 131 56t78 147q17 96 -24 154.5t-111 58.5h-184z" />
    <glyph glyph-name="germandbls" unicode="&#xdf;" horiz-adv-x="1159" 
d="M131 0l178 1004q34 197 170 310t318 113q191 0 291.5 -99t74.5 -241q-15 -90 -56.5 -150t-117.5 -103q99 -53 148 -152t24 -236q-18 -99 -61.5 -182.5t-110.5 -147.5t-162 -100t-209 -36q-75 0 -147 22l104 268q47 -8 95 -8q85 0 149 62t78 143q2 22 3 48t-10 53.5
t-28.5 50t-52.5 37t-82 14.5h-55l45 248h35q52 0 86 35.5t43 90.5q10 55 -23.5 88t-101.5 33q-56 0 -103.5 -37.5t-58.5 -101.5l-180 -1026h-283z" />
    <glyph glyph-name="agrave" unicode="&#xe0;" horiz-adv-x="1253" 
d="M158 479q20 111 78.5 206.5t138 158t173 98t185.5 35.5q27 0 59 -5.5t70.5 -18t73 -39.5t53.5 -64l19 106h282l-168 -956h-282l20 109q-56 -62 -144.5 -94.5t-156.5 -32.5q-92 0 -173.5 35t-139.5 97.5t-83 158t-5 206.5zM453 479q-17 -99 44 -163t154 -64t174 62.5
t99 164.5q18 103 -41 165.5t-152 62.5q-94 0 -177.5 -64.5t-100.5 -163.5zM532 1448h283l164 -344h-205z" />
    <glyph glyph-name="aacute" unicode="&#xe1;" horiz-adv-x="1253" 
d="M158 479q20 111 78.5 206.5t138 158t173 98t185.5 35.5q27 0 59 -5.5t70.5 -18t73 -39.5t53.5 -64l19 106h282l-168 -956h-282l20 109q-56 -62 -144.5 -94.5t-156.5 -32.5q-92 0 -173.5 35t-139.5 97.5t-83 158t-5 206.5zM453 479q-17 -99 44 -163t154 -64t174 62.5
t99 164.5q18 103 -41 165.5t-152 62.5q-94 0 -177.5 -64.5t-100.5 -163.5zM627 1104l286 344h283l-365 -344h-204z" />
    <glyph glyph-name="acircumflex" unicode="&#xe2;" horiz-adv-x="1253" 
d="M158 479q20 111 78.5 206.5t138 158t173 98t185.5 35.5q27 0 59 -5.5t70.5 -18t73 -39.5t53.5 -64l19 106h282l-168 -956h-282l20 109q-56 -62 -144.5 -94.5t-156.5 -32.5q-92 0 -173.5 35t-139.5 97.5t-83 158t-5 206.5zM453 479q-17 -99 44 -163t154 -64t174 62.5
t99 164.5q18 103 -41 165.5t-152 62.5q-94 0 -177.5 -64.5t-100.5 -163.5zM459 1112l284 344h283l164 -344h-205l-131 182l-190 -182h-205z" />
    <glyph glyph-name="atilde" unicode="&#xe3;" horiz-adv-x="1253" 
d="M158 479q20 111 78.5 206.5t138 158t173 98t185.5 35.5q27 0 59 -5.5t70.5 -18t73 -39.5t53.5 -64l19 106h282l-168 -956h-282l20 109q-56 -62 -144.5 -94.5t-156.5 -32.5q-92 0 -173.5 35t-139.5 97.5t-83 158t-5 206.5zM453 479q-17 -99 44 -163t154 -64t174 62.5
t99 164.5q18 103 -41 165.5t-152 62.5q-94 0 -177.5 -64.5t-100.5 -163.5zM537 1153q16 72 45.5 126t65 83t70.5 43t70 14q29 0 55 -13t41 -29t33.5 -29t34.5 -13t38 20.5t30 63.5h154q-15 -72 -45 -125.5t-66 -81.5t-71 -41.5t-68 -13.5q-34 0 -65.5 21t-56.5 42t-44 21
q-16 0 -38 -22.5t-30 -65.5h-153z" />
    <glyph glyph-name="adieresis" unicode="&#xe4;" horiz-adv-x="1253" 
d="M158 479q20 111 78.5 206.5t138 158t173 98t185.5 35.5q27 0 59 -5.5t70.5 -18t73 -39.5t53.5 -64l19 106h282l-168 -956h-282l20 109q-56 -62 -144.5 -94.5t-156.5 -32.5q-92 0 -173.5 35t-139.5 97.5t-83 158t-5 206.5zM453 479q-17 -99 44 -163t154 -64t174 62.5
t99 164.5q18 103 -41 165.5t-152 62.5q-94 0 -177.5 -64.5t-100.5 -163.5zM530 1307q10 58 61.5 98.5t113.5 40.5q60 0 95 -40.5t25 -98.5q-10 -60 -60 -101t-110 -41q-62 0 -98.5 41t-26.5 101zM893 1307q10 58 61 98.5t113 40.5q60 0 95.5 -40.5t25.5 -98.5
q-10 -60 -60 -101t-110 -41q-62 0 -98.5 41t-26.5 101z" />
    <glyph glyph-name="aring" unicode="&#xe5;" horiz-adv-x="1253" 
d="M158 479q20 111 78.5 206.5t138 158t173 98t185.5 35.5q27 0 59 -5.5t70.5 -18t73 -39.5t53.5 -64l19 106h282l-168 -956h-282l20 109q-56 -62 -144.5 -94.5t-156.5 -32.5q-92 0 -173.5 35t-139.5 97.5t-83 158t-5 206.5zM453 479q-17 -99 44 -163t154 -64t174 62.5
t99 164.5q18 103 -41 165.5t-152 62.5q-94 0 -177.5 -64.5t-100.5 -163.5zM621 1350q19 106 103 179t187 73q104 0 164 -73t41 -179q-19 -103 -105 -174.5t-190 -71.5q-103 0 -161 71.5t-39 174.5zM754 1350q-8 -48 18.5 -80.5t73.5 -32.5q50 0 90 33t47 80q9 51 -18.5 84.5
t-77.5 33.5q-48 0 -86 -33.5t-47 -84.5z" />
    <glyph glyph-name="ae" unicode="&#xe6;" horiz-adv-x="1986" 
d="M158 479q20 111 78.5 206.5t138 158t173 98t185.5 35.5q27 0 59 -5.5t70.5 -18t73 -39.5t53.5 -64l19 106h282l-14 -79q152 100 330 100q208 0 324 -141t77 -363q-6 -39 -22 -88h-701q-3 -77 61.5 -118.5t149.5 -41.5q61 0 120.5 23t102.5 67l183 -141
q-86 -100 -211.5 -147t-259.5 -47q-182 0 -293 102l-15 -82h-282l20 109q-56 -62 -144.5 -94.5t-156.5 -32.5q-92 0 -173.5 35t-139.5 97.5t-83 158t-5 206.5zM453 479q-17 -99 44 -163t154 -64t174 62.5t99 164.5q18 103 -41 165.5t-152 62.5q-94 0 -177.5 -64.5
t-100.5 -163.5zM1323 563h414q3 55 -25 94t-67 54.5t-82 15.5q-70 0 -139.5 -40.5t-100.5 -123.5z" />
    <glyph glyph-name="ccedilla" unicode="&#xe7;" horiz-adv-x="1075" 
d="M156 481q26 146 119.5 261t222 175t266.5 60q128 0 228.5 -53.5t152.5 -149.5l-260 -166q-22 45 -67 71t-101 26q-95 0 -178 -62.5t-101 -161.5t43 -164t156 -65q56 0 110 25.5t93 70.5l200 -164q-155 -175 -385 -200l41 -119q15 -39 2 -101q-15 -86 -91 -148t-165 -62
q-61 0 -108 35.5t-64 97.5q-9 36 6 120l156 -8q-1 -3 -2 -8t-3 -19t-1 -26q4 -24 24.5 -34.5t47.5 -4.5q27 10 39.5 34.5t7.5 51.5l-37 193q-118 18 -205.5 82.5t-129 172.5t-17.5 240z" />
    <glyph glyph-name="egrave" unicode="&#xe8;" horiz-adv-x="1126" 
d="M156 481q26 147 114 261t212 174.5t261 60.5q208 0 324.5 -141t77.5 -363q-5 -32 -23 -88h-700q-3 -77 61.5 -118.5t149.5 -41.5q61 0 120.5 23t102.5 67l182 -141q-86 -100 -211.5 -147t-259.5 -47q-102 0 -187 36.5t-141.5 101t-79 159t-3.5 204.5zM459 1448h282
l164 -344h-205zM461 563h413q3 55 -25 94t-67 54.5t-82 15.5q-70 0 -139 -40.5t-100 -123.5z" />
    <glyph glyph-name="eacute" unicode="&#xe9;" horiz-adv-x="1126" 
d="M156 481q26 147 114 261t212 174.5t261 60.5q208 0 324.5 -141t77.5 -363q-5 -32 -23 -88h-700q-3 -77 61.5 -118.5t149.5 -41.5q61 0 120.5 23t102.5 67l182 -141q-86 -100 -211.5 -147t-259.5 -47q-102 0 -187 36.5t-141.5 101t-79 159t-3.5 204.5zM461 563h413
q3 55 -25 94t-67 54.5t-82 15.5q-70 0 -139 -40.5t-100 -123.5zM629 1104l286 344h283l-364 -344h-205z" />
    <glyph glyph-name="ecircumflex" unicode="&#xea;" horiz-adv-x="1126" 
d="M156 481q26 147 114 261t212 174.5t261 60.5q208 0 324.5 -141t77.5 -363q-5 -32 -23 -88h-700q-3 -77 61.5 -118.5t149.5 -41.5q61 0 120.5 23t102.5 67l182 -141q-86 -100 -211.5 -147t-259.5 -47q-102 0 -187 36.5t-141.5 101t-79 159t-3.5 204.5zM397 1112l285 344
h283l163 -344h-204l-129 182l-193 -182h-205zM461 563h413q3 55 -25 94t-67 54.5t-82 15.5q-70 0 -139 -40.5t-100 -123.5z" />
    <glyph glyph-name="edieresis" unicode="&#xeb;" horiz-adv-x="1126" 
d="M156 481q26 147 114 261t212 174.5t261 60.5q208 0 324.5 -141t77.5 -363q-5 -32 -23 -88h-700q-3 -77 61.5 -118.5t149.5 -41.5q61 0 120.5 23t102.5 67l182 -141q-86 -100 -211.5 -147t-259.5 -47q-102 0 -187 36.5t-141.5 101t-79 159t-3.5 204.5zM461 563h413
q3 55 -25 94t-67 54.5t-82 15.5q-70 0 -139 -40.5t-100 -123.5zM469 1307q10 58 61 98.5t113 40.5q60 0 95.5 -40.5t25.5 -98.5q-10 -60 -60 -101t-110 -41q-62 0 -98.5 41t-26.5 101zM831 1307q10 58 61.5 98.5t113.5 40.5q60 0 95 -40.5t25 -98.5q-10 -60 -60 -101
t-110 -41q-62 0 -98.5 41t-26.5 101z" />
    <glyph glyph-name="igrave" unicode="&#xec;" horiz-adv-x="542" 
d="M131 0l168 956h281l-168 -956h-281zM164 1448h282l164 -344h-204z" />
    <glyph glyph-name="iacute" unicode="&#xed;" horiz-adv-x="542" 
d="M131 0l168 956h281l-168 -956h-281zM326 1104l286 344h283l-365 -344h-204z" />
    <glyph glyph-name="icircumflex" unicode="&#xee;" horiz-adv-x="542" 
d="M102 1112l285 344h283l164 -344h-205l-131 182l-191 -182h-205zM131 0l168 956h281l-168 -956h-281z" />
    <glyph glyph-name="idieresis" unicode="&#xef;" horiz-adv-x="542" 
d="M131 0l168 956h281l-168 -956h-281zM168 1307q10 58 62 98.5t114 40.5q60 0 94.5 -40.5t24.5 -98.5q-10 -60 -60 -101t-110 -41q-62 0 -98.5 41t-26.5 101zM530 1307q10 58 62.5 98.5t114.5 40.5q60 0 94 -40.5t24 -98.5q-10 -60 -60 -101t-110 -41q-62 0 -98.5 41
t-26.5 101z" />
    <glyph glyph-name="eth" unicode="&#xf0;" horiz-adv-x="1144" 
d="M158 481q26 145 115 258t214.5 169.5t260.5 47.5l-93 150l-186 -80l-43 100l178 74l-112 211h272l65 -119l191 80l55 -92l-196 -82l231 -420q71 -121 41 -297q-39 -220 -207.5 -358.5t-376.5 -138.5q-101 0 -185 36t-140.5 99.5t-79.5 157.5t-4 204zM438 481
q-17 -97 34.5 -158t141.5 -61q92 0 165.5 61t90.5 158q17 95 -34 154t-142 59q-90 0 -164.5 -59.5t-91.5 -153.5z" />
    <glyph glyph-name="ntilde" unicode="&#xf1;" 
d="M131 0l168 956h285l-25 -139q51 72 135.5 116t169.5 44q165 0 239.5 -103t39.5 -303l-101 -571h-284l88 510q18 92 -19 141t-112 49q-178 0 -211 -194l-88 -506h-285zM487 1153q31 137 104 201.5t150 64.5q29 0 55 -13t41 -29t33.5 -29t34.5 -13t37.5 20.5t30.5 63.5h153
q-12 -58 -34.5 -104.5t-49 -75t-57 -48t-58 -27t-53.5 -7.5q-34 0 -65.5 21t-56 42t-43.5 21q-15 0 -37 -22t-31 -66h-154z" />
    <glyph glyph-name="ograve" unicode="&#xf2;" horiz-adv-x="1140" 
d="M156 481q39 220 206 356t375 136q101 0 185.5 -35t141.5 -97.5t80.5 -156t4.5 -203.5q-39 -220 -207.5 -358.5t-376.5 -138.5q-101 0 -185 36t-140.5 99.5t-79.5 157.5t-4 204zM414 1448h282l164 -344h-205zM436 481q-17 -97 34.5 -158t141.5 -61q92 0 165.5 61t90.5 158
q17 95 -34 154t-142 59q-90 0 -164.5 -59.5t-91.5 -153.5z" />
    <glyph glyph-name="oacute" unicode="&#xf3;" horiz-adv-x="1140" 
d="M156 481q39 220 206 356t375 136q101 0 185.5 -35t141.5 -97.5t80.5 -156t4.5 -203.5q-39 -220 -207.5 -358.5t-376.5 -138.5q-101 0 -185 36t-140.5 99.5t-79.5 157.5t-4 204zM436 481q-17 -97 34.5 -158t141.5 -61q92 0 165.5 61t90.5 158q17 95 -34 154t-142 59
q-90 0 -164.5 -59.5t-91.5 -153.5zM641 1104l287 344h282l-364 -344h-205z" />
    <glyph glyph-name="ocircumflex" unicode="&#xf4;" horiz-adv-x="1140" 
d="M156 481q39 220 206 356t375 136q101 0 185.5 -35t141.5 -97.5t80.5 -156t4.5 -203.5q-39 -220 -207.5 -358.5t-376.5 -138.5q-101 0 -185 36t-140.5 99.5t-79.5 157.5t-4 204zM399 1112l285 344h283l163 -344h-204l-129 182l-193 -182h-205zM436 481q-17 -97 34.5 -158
t141.5 -61q92 0 165.5 61t90.5 158q17 95 -34 154t-142 59q-90 0 -164.5 -59.5t-91.5 -153.5z" />
    <glyph glyph-name="otilde" unicode="&#xf5;" horiz-adv-x="1140" 
d="M156 481q39 220 206 356t375 136q101 0 185.5 -35t141.5 -97.5t80.5 -156t4.5 -203.5q-39 -220 -207.5 -358.5t-376.5 -138.5q-101 0 -185 36t-140.5 99.5t-79.5 157.5t-4 204zM436 481q-17 -97 34.5 -158t141.5 -61q92 0 165.5 61t90.5 158q17 95 -34 154t-142 59
q-90 0 -164.5 -59.5t-91.5 -153.5zM477 1153q16 72 45.5 126t65.5 83t71 43t70 14q29 0 55 -13t41 -29t33.5 -29t34.5 -13t38 20.5t30 63.5h153q-15 -72 -45 -125.5t-66 -81.5t-71 -41.5t-68 -13.5q-34 0 -65.5 21t-56.5 42t-44 21q-15 0 -37 -22.5t-30 -65.5h-154z" />
    <glyph glyph-name="odieresis" unicode="&#xf6;" horiz-adv-x="1140" 
d="M156 481q39 220 206 356t375 136q101 0 185.5 -35t141.5 -97.5t80.5 -156t4.5 -203.5q-39 -220 -207.5 -358.5t-376.5 -138.5q-101 0 -185 36t-140.5 99.5t-79.5 157.5t-4 204zM436 481q-17 -97 34.5 -158t141.5 -61q92 0 165.5 61t90.5 158q17 95 -34 154t-142 59
q-90 0 -164.5 -59.5t-91.5 -153.5zM471 1307q10 58 61 98.5t113 40.5q60 0 95.5 -40.5t25.5 -98.5q-10 -60 -60 -101t-110 -41q-62 0 -98.5 41t-26.5 101zM834 1307q10 58 61 98.5t113 40.5q60 0 95 -40.5t25 -98.5q-10 -60 -60 -101t-110 -41q-62 0 -98 41t-26 101z" />
    <glyph glyph-name="divide" unicode="&#xf7;" horiz-adv-x="1193" 
d="M176 399l33 197h981l-33 -197h-981zM461 133q12 67 65.5 110.5t120.5 43.5t107 -44t28 -110q-12 -67 -66.5 -111.5t-121.5 -44.5t-106 44.5t-27 111.5zM592 868q12 65 66.5 109.5t121.5 44.5t106 -44.5t27 -109.5q-12 -67 -68 -111t-124 -44q-67 0 -104 43.5t-25 111.5z
" />
    <glyph glyph-name="oslash" unicode="&#xf8;" horiz-adv-x="1140" 
d="M72 45l137 119q-87 130 -53 317q27 147 115 261t211.5 174.5t258.5 60.5q168 0 289 -103l127 111l80 -94l-129 -111q72 -128 43 -299q-39 -220 -207.5 -358.5t-376.5 -138.5q-165 0 -274 86l-141 -121zM438 481q-12 -64 6 -110l349 299q-47 28 -101 28q-90 0 -163.5 -61
t-90.5 -156zM530 279q35 -17 84 -17q92 0 165.5 61t90.5 158q7 40 0 90z" />
    <glyph glyph-name="ugrave" unicode="&#xf9;" 
d="M186 385l101 571h286l-90 -510q-10 -54 0 -93.5t33 -59t48.5 -28.5t53.5 -9q74 0 131 47t76 148l90 505h285l-168 -956h-284l20 131q-49 -70 -125.5 -110.5t-148.5 -40.5q-169 0 -255.5 104t-52.5 301zM524 1448h283l164 -344h-205z" />
    <glyph glyph-name="uacute" unicode="&#xfa;" 
d="M186 385l101 571h286l-90 -510q-10 -54 0 -93.5t33 -59t48.5 -28.5t53.5 -9q74 0 131 47t76 148l90 505h285l-168 -956h-284l20 131q-49 -70 -125.5 -110.5t-148.5 -40.5q-169 0 -255.5 104t-52.5 301zM592 1104l287 344h282l-364 -344h-205z" />
    <glyph glyph-name="ucircumflex" unicode="&#xfb;" 
d="M186 385l101 571h286l-90 -510q-10 -54 0 -93.5t33 -59t48.5 -28.5t53.5 -9q74 0 131 47t76 148l90 505h285l-168 -956h-284l20 131q-49 -70 -125.5 -110.5t-148.5 -40.5q-169 0 -255.5 104t-52.5 301zM403 1112l287 344h283l162 -344h-205l-129 182l-193 -182h-205z" />
    <glyph glyph-name="udieresis" unicode="&#xfc;" 
d="M186 385l101 571h286l-90 -510q-10 -54 0 -93.5t33 -59t48.5 -28.5t53.5 -9q74 0 131 47t76 148l90 505h285l-168 -956h-284l20 131q-49 -70 -125.5 -110.5t-148.5 -40.5q-169 0 -255.5 104t-52.5 301zM465 1307q10 58 62 98.5t114 40.5q60 0 94.5 -40.5t24.5 -98.5
q-10 -60 -60 -101t-110 -41q-62 0 -98.5 41t-26.5 101zM827 1307q10 58 62.5 98.5t114.5 40.5q60 0 94 -40.5t24 -98.5q-10 -60 -60 -101t-110 -41q-62 0 -98.5 41t-26.5 101z" />
    <glyph glyph-name="yacute" unicode="&#xfd;" horiz-adv-x="1044" 
d="M59 -469l332 567l-217 858h303l113 -542l311 542h303l-844 -1425h-301zM537 1104l286 344h283l-365 -344h-204z" />
    <glyph glyph-name="thorn" unicode="&#xfe;" horiz-adv-x="1232" 
d="M45 -469l346 1946h283l-113 -637q46 64 129.5 100.5t175.5 36.5t169.5 -36t130 -99.5t73 -159t0.5 -207.5q-39 -219 -199.5 -357t-351.5 -138q-91 0 -161.5 37t-94.5 102l-104 -588h-283zM502 481q-18 -100 35 -165.5t145 -65.5q93 0 168.5 64t93.5 167
q18 101 -34.5 164.5t-145.5 63.5q-92 0 -168 -62.5t-94 -165.5z" />
    <glyph glyph-name="ydieresis" unicode="&#xff;" horiz-adv-x="1044" 
d="M59 -469l332 567l-217 858h303l113 -542l311 542h303l-844 -1425h-301zM428 1307q10 58 62 98.5t114 40.5q60 0 94.5 -40.5t24.5 -98.5q-10 -60 -60 -101t-110 -41q-62 0 -98.5 41t-26.5 101zM791 1307q10 58 62 98.5t114 40.5q60 0 94 -40.5t24 -98.5q-10 -60 -60 -101
t-110 -41q-62 0 -98 41t-26 101z" />
    <glyph glyph-name="Amacron" unicode="&#x100;" horiz-adv-x="1349" 
d="M-12 0l772 1411h325l275 -1411h-316l-67 334h-488l-182 -334h-319zM633 594h293l-62 491zM680 1657l33 174h569l-33 -174h-569z" />
    <glyph glyph-name="amacron" unicode="&#x101;" horiz-adv-x="1253" 
d="M158 479q20 111 78.5 206.5t138 158t173 98t185.5 35.5q27 0 59 -5.5t70.5 -18t73 -39.5t53.5 -64l19 106h282l-168 -956h-282l20 109q-56 -62 -144.5 -94.5t-156.5 -32.5q-92 0 -173.5 35t-139.5 97.5t-83 158t-5 206.5zM453 479q-17 -99 44 -163t154 -64t174 62.5
t99 164.5q18 103 -41 165.5t-152 62.5q-94 0 -177.5 -64.5t-100.5 -163.5zM555 1202l33 174h569l-33 -174h-569z" />
    <glyph glyph-name="Abreve" unicode="&#x102;" horiz-adv-x="1349" 
d="M-12 0l772 1411h325l275 -1411h-316l-67 334h-488l-182 -334h-319zM633 594h293l-62 491zM727 1866h174q-19 -109 82 -109q50 0 79.5 31t37.5 78h178q-23 -121 -113.5 -195t-212.5 -74q-90 0 -146.5 40t-74 99.5t-4.5 129.5z" />
    <glyph glyph-name="abreve" unicode="&#x103;" horiz-adv-x="1253" 
d="M158 479q20 111 78.5 206.5t138 158t173 98t185.5 35.5q27 0 59 -5.5t70.5 -18t73 -39.5t53.5 -64l19 106h282l-168 -956h-282l20 109q-56 -62 -144.5 -94.5t-156.5 -32.5q-92 0 -173.5 35t-139.5 97.5t-83 158t-5 206.5zM453 479q-17 -99 44 -163t154 -64t174 62.5
t99 164.5q18 103 -41 165.5t-152 62.5q-94 0 -177.5 -64.5t-100.5 -163.5zM600 1411h174q-8 -54 11 -81t71 -27q51 0 80.5 31t36.5 77h178q-20 -121 -109.5 -194.5t-212.5 -73.5q-132 0 -188.5 78.5t-40.5 189.5z" />
    <glyph glyph-name="Aogonek" unicode="&#x104;" horiz-adv-x="1349" 
d="M-12 0l772 1411h325l275 -1411h-172l-115 -207q-14 -26 -10.5 -51t24.5 -35q25 -6 50.5 4.5t38.5 34.5q4 12 7 25t4 21l1 7l160 8q-7 -48 -15 -70.5t-24 -49.5q-37 -62 -97.5 -97.5t-121.5 -35.5q-89 0 -142.5 62t-38.5 148q1 3 3.5 17t4 20.5t5.5 18.5t10 23t14 22
l98 135l-67 334h-488l-182 -334h-319zM633 594h293l-62 491z" />
    <glyph glyph-name="aogonek" unicode="&#x105;" horiz-adv-x="1253" 
d="M158 479q20 111 78.5 206.5t138 158t173 98t185.5 35.5q27 0 59 -5.5t70.5 -18t73 -39.5t53.5 -64l19 106h282l-168 -956h-139l-115 -207q-14 -26 -9 -51t26 -35q24 -6 49.5 4.5t38.5 34.5l10 53l160 8q-5 -47 -13 -69t-26 -51q-37 -62 -97.5 -97.5t-121.5 -35.5
q-89 0 -142 62t-38 148q1 3 3 14.5t3 16.5t4 15.5t6.5 18t9 17.5t12.5 19l97 135l20 109q-56 -62 -144.5 -94.5t-156.5 -32.5q-92 0 -173.5 35t-139.5 97.5t-83 158t-5 206.5zM453 479q-17 -99 44 -163t154 -64t174 62.5t99 164.5q18 103 -41 165.5t-152 62.5
q-94 0 -177.5 -64.5t-100.5 -163.5z" />
    <glyph glyph-name="Cacute" unicode="&#x106;" horiz-adv-x="1431" 
d="M207 702q36 198 157 364.5t300.5 263.5t377.5 97q185 0 325 -80.5t212 -218.5l-276 -167q-42 85 -123 134.5t-187 49.5q-175 0 -313.5 -128.5t-171.5 -314.5q-33 -185 60 -312.5t268 -127.5q108 0 211.5 53.5t177.5 141.5l209 -168q-118 -142 -289 -225.5t-359 -83.5
q-197 0 -343 97.5t-208.5 263t-27.5 361.5zM950 1559l287 344h283l-365 -344h-205z" />
    <glyph glyph-name="cacute" unicode="&#x107;" horiz-adv-x="1075" 
d="M156 481q26 146 119.5 261t222 175t266.5 60q128 0 228.5 -53.5t152.5 -149.5l-262 -166q-20 45 -65 71t-101 26q-95 0 -178 -62.5t-101 -161.5t42 -164t155 -65q56 0 111 25.5t94 70.5l200 -164q-86 -97 -204.5 -150.5t-247.5 -53.5q-102 0 -190 36.5t-148.5 100.5
t-86.5 159t-7 205zM627 1104l286 344h283l-365 -344h-204z" />
    <glyph glyph-name="Ccircumflex" unicode="&#x108;" horiz-adv-x="1431" 
d="M207 702q36 198 157 364.5t300.5 263.5t377.5 97q185 0 325 -80.5t212 -218.5l-276 -167q-42 85 -123 134.5t-187 49.5q-175 0 -313.5 -128.5t-171.5 -314.5q-33 -185 60 -312.5t268 -127.5q108 0 211.5 53.5t177.5 141.5l209 -168q-118 -142 -289 -225.5t-359 -83.5
q-197 0 -343 97.5t-208.5 263t-27.5 361.5zM694 1567l285 344h283l163 -344h-204l-127 182l-195 -182h-205z" />
    <glyph glyph-name="ccircumflex" unicode="&#x109;" horiz-adv-x="1075" 
d="M156 481q26 146 119.5 261t222 175t266.5 60q128 0 228.5 -53.5t152.5 -149.5l-262 -166q-20 45 -65 71t-101 26q-95 0 -178 -62.5t-101 -161.5t42 -164t155 -65q56 0 111 25.5t94 70.5l200 -164q-86 -97 -204.5 -150.5t-247.5 -53.5q-102 0 -190 36.5t-148.5 100.5
t-86.5 159t-7 205zM408 1112l284 344h283l164 -344h-205l-129 182l-193 -182h-204z" />
    <glyph glyph-name="Cdotaccent" unicode="&#x10a;" horiz-adv-x="1431" 
d="M207 702q36 198 157 364.5t300.5 263.5t377.5 97q185 0 325 -80.5t212 -218.5l-276 -167q-42 85 -123 134.5t-187 49.5q-175 0 -313.5 -128.5t-171.5 -314.5q-33 -185 60 -312.5t268 -127.5q108 0 211.5 53.5t177.5 141.5l209 -168q-118 -142 -289 -225.5t-359 -83.5
q-197 0 -343 97.5t-208.5 263t-27.5 361.5zM940 1776q12 64 65 107.5t119 43.5t104.5 -43.5t26.5 -107.5q-12 -67 -64.5 -110.5t-119.5 -43.5t-105 43.5t-26 110.5z" />
    <glyph glyph-name="cdotaccent" unicode="&#x10b;" horiz-adv-x="1075" 
d="M156 481q26 146 119.5 261t222 175t266.5 60q128 0 228.5 -53.5t152.5 -149.5l-262 -166q-20 45 -65 71t-101 26q-95 0 -178 -62.5t-101 -161.5t42 -164t155 -65q56 0 111 25.5t94 70.5l200 -164q-86 -97 -204.5 -150.5t-247.5 -53.5q-102 0 -190 36.5t-148.5 100.5
t-86.5 159t-7 205zM645 1321q12 64 65 108t119 44t105 -44t27 -108q-12 -67 -64 -110.5t-119 -43.5t-106 43.5t-27 110.5z" />
    <glyph glyph-name="Ccaron" unicode="&#x10c;" horiz-adv-x="1431" 
d="M207 702q36 198 157 364.5t300.5 263.5t377.5 97q185 0 325 -80.5t212 -218.5l-276 -167q-42 85 -123 134.5t-187 49.5q-175 0 -313.5 -128.5t-171.5 -314.5q-33 -185 60 -312.5t268 -127.5q108 0 211.5 53.5t177.5 141.5l209 -168q-118 -142 -289 -225.5t-359 -83.5
q-197 0 -343 97.5t-208.5 263t-27.5 361.5zM737 1901h205l129 -183l193 183h204l-286 -345h-283z" />
    <glyph glyph-name="ccaron" unicode="&#x10d;" horiz-adv-x="1075" 
d="M156 481q26 146 119.5 261t222 175t266.5 60q128 0 228.5 -53.5t152.5 -149.5l-262 -166q-20 45 -65 71t-101 26q-95 0 -178 -62.5t-101 -161.5t42 -164t155 -65q56 0 111 25.5t94 70.5l200 -164q-86 -97 -204.5 -150.5t-247.5 -53.5q-102 0 -190 36.5t-148.5 100.5
t-86.5 159t-7 205zM453 1446h204l129 -182l193 182h205l-287 -344h-283z" />
    <glyph glyph-name="Dcaron" unicode="&#x10e;" horiz-adv-x="1447" 
d="M166 0l248 1411h553q120 0 216.5 -35t160 -99t103.5 -152.5t45.5 -195t-13.5 -227.5q-27 -150 -92.5 -278t-161.5 -222.5t-226.5 -148t-279.5 -53.5h-553zM512 272h254q108 0 196.5 60t142 155.5t75.5 214.5q11 71 11 135t-19 119.5t-51 96t-83.5 63.5t-117.5 23h-254z
M670 1901h204l127 -183l195 183h205l-287 -345h-283z" />
    <glyph glyph-name="dcaron" unicode="&#x10f;" horiz-adv-x="1300" 
d="M160 475q27 149 112 265t200 176.5t239 60.5q92 0 163.5 -36.5t92.5 -100.5l114 637h283l-262 -1477h-283l19 119q-45 -65 -128.5 -102t-174.5 -37q-92 0 -169.5 35.5t-130 98.5t-73.5 157t-2 204zM455 481q-18 -103 33.5 -167t144.5 -64q91 0 168.5 65t95.5 166
q18 103 -36 165.5t-146 62.5q-93 0 -167.5 -63.5t-92.5 -164.5zM1341 1010q85 94 126.5 180t62.5 221h239q-74 -311 -301 -473z" />
    <glyph glyph-name="Dcroat" unicode="&#x110;" horiz-adv-x="1478" 
d="M106 582l35 200h193l110 629h553q120 0 216.5 -35t160 -99t103.5 -152.5t45.5 -195t-13.5 -227.5q-27 -150 -92.5 -278t-161.5 -222.5t-226 -148t-279 -53.5h-553l102 582h-193zM543 272h254q82 0 153 34.5t122 94t86.5 136.5t51.5 165q11 71 11 135t-19 119.5t-51 96
t-83.5 63.5t-117.5 23h-254l-63 -357h252l-35 -200h-252z" />
    <glyph glyph-name="dcroat" unicode="&#x111;" horiz-adv-x="1232" 
d="M160 475q27 149 112 265t200 176.5t239 60.5q92 0 163.5 -36.5t92.5 -100.5l55 301h-305l28 176h306l30 160h283l-31 -160h156l-29 -176h-155l-203 -1141h-283l19 119q-45 -65 -128.5 -102t-174.5 -37q-92 0 -169.5 35.5t-130 98.5t-73.5 157t-2 204zM455 481
q-18 -103 33.5 -167t144.5 -64q91 0 168.5 65t95.5 166q18 103 -36 165.5t-146 62.5q-93 0 -167.5 -63.5t-92.5 -164.5z" />
    <glyph glyph-name="Emacron" unicode="&#x112;" horiz-adv-x="1179" 
d="M166 0l248 1411h893l-45 -264h-594l-60 -322h520l-45 -260h-520l-53 -301h612l-45 -264h-911zM586 1657l32 174h570l-33 -174h-569z" />
    <glyph glyph-name="emacron" unicode="&#x113;" horiz-adv-x="1126" 
d="M156 481q26 147 114 261t212 174.5t261 60.5q208 0 324.5 -141t77.5 -363q-5 -32 -23 -88h-700q-3 -77 61.5 -118.5t149.5 -41.5q61 0 120.5 23t102.5 67l182 -141q-86 -100 -211.5 -147t-259.5 -47q-102 0 -187 36.5t-141.5 101t-79 159t-3.5 204.5zM461 563h413
q3 55 -25 94t-67 54.5t-82 15.5q-70 0 -139 -40.5t-100 -123.5zM492 1202l32 174h570l-33 -174h-569z" />
    <glyph glyph-name="Ebreve" unicode="&#x114;" horiz-adv-x="1179" 
d="M166 0l248 1411h893l-45 -264h-594l-60 -322h520l-45 -260h-520l-53 -301h612l-45 -264h-911zM635 1866h174q-19 -109 82 -109q50 0 79.5 31t37.5 78h178q-23 -121 -113.5 -195t-212.5 -74q-90 0 -146.5 40t-74 99.5t-4.5 129.5z" />
    <glyph glyph-name="ebreve" unicode="&#x115;" horiz-adv-x="1126" 
d="M156 481q26 147 114 261t212 174.5t261 60.5q208 0 324.5 -141t77.5 -363q-5 -32 -23 -88h-700q-3 -77 61.5 -118.5t149.5 -41.5q61 0 120.5 23t102.5 67l182 -141q-86 -100 -211.5 -147t-259.5 -47q-102 0 -187 36.5t-141.5 101t-79 159t-3.5 204.5zM461 563h413
q3 55 -25 94t-67 54.5t-82 15.5q-70 0 -139 -40.5t-100 -123.5zM541 1411h174q-9 -54 9.5 -81t70.5 -27q51 0 80.5 30.5t37.5 77.5h179q-22 -121 -112 -194.5t-212 -73.5q-90 0 -146.5 39.5t-74.5 98.5t-6 130z" />
    <glyph glyph-name="Edotaccent" unicode="&#x116;" horiz-adv-x="1179" 
d="M166 0l248 1411h893l-45 -264h-594l-60 -322h520l-45 -260h-520l-53 -301h612l-45 -264h-911zM756 1776q12 64 66 107.5t120 43.5t103.5 -43.5t25.5 -107.5q-12 -67 -64.5 -110.5t-119.5 -43.5t-105 43.5t-26 110.5z" />
    <glyph glyph-name="edotaccent" unicode="&#x117;" horiz-adv-x="1126" 
d="M156 481q26 147 114 261t212 174.5t261 60.5q208 0 324.5 -141t77.5 -363q-5 -32 -23 -88h-700q-3 -77 61.5 -118.5t149.5 -41.5q61 0 120.5 23t102.5 67l182 -141q-86 -100 -211.5 -147t-259.5 -47q-102 0 -187 36.5t-141.5 101t-79 159t-3.5 204.5zM461 563h413
q3 55 -25 94t-67 54.5t-82 15.5q-70 0 -139 -40.5t-100 -123.5zM641 1321q12 64 65 108t119 44t104.5 -44t26.5 -108q-12 -67 -64 -110.5t-118 -43.5q-67 0 -106 43.5t-27 110.5z" />
    <glyph glyph-name="Eogonek" unicode="&#x118;" horiz-adv-x="1179" 
d="M166 0l248 1411h893l-45 -264h-594l-60 -322h520l-45 -260h-520l-53 -301h612l-45 -264l-116 -207q-15 -26 -11.5 -51t25.5 -35q25 -6 50 4.5t38 34.5q4 12 7 25t4 21l1 7l160 8q-7 -48 -15 -70.5t-24 -49.5q-37 -62 -97.5 -97.5t-121.5 -35.5q-89 0 -142 62t-38 148
q14 68 37 101l98 135h-766z" />
    <glyph glyph-name="eogonek" unicode="&#x119;" horiz-adv-x="1128" 
d="M156 481q26 147 114 261t212 174.5t261 60.5q208 0 324.5 -141t77.5 -363q-5 -32 -23 -88h-700q-3 -77 61.5 -118.5t149.5 -41.5q61 0 120.5 23t102.5 67l182 -141q-9 -10 -49.5 -47t-73.5 -71.5t-78.5 -105.5t-80.5 -157q-11 -38 -8 -57t24 -29q24 -6 49.5 4.5
t38.5 34.5l10 53l160 8q-5 -47 -13 -69t-26 -51q-37 -62 -97.5 -97.5t-121.5 -35.5q-89 0 -142 62t-38 148q0 2 2.5 12.5t3 14t3 13t5 15t6 14t8.5 16.5t11 16l94 131q-82 -16 -158 -16q-102 0 -187 36.5t-141.5 101t-79 159t-3.5 204.5zM461 563h413q3 55 -25 94t-67 54.5
t-82 15.5q-70 0 -139 -40.5t-100 -123.5z" />
    <glyph glyph-name="Ecaron" unicode="&#x11a;" horiz-adv-x="1179" 
d="M166 0l248 1411h893l-45 -264h-594l-60 -322h520l-45 -260h-520l-53 -301h612l-45 -264h-911zM551 1901h205l127 -183l194 183h205l-287 -345h-282z" />
    <glyph glyph-name="ecaron" unicode="&#x11b;" horiz-adv-x="1126" 
d="M156 481q26 147 114 261t212 174.5t261 60.5q208 0 324.5 -141t77.5 -363q-5 -32 -23 -88h-700q-3 -77 61.5 -118.5t149.5 -41.5q61 0 120.5 23t102.5 67l182 -141q-86 -100 -211.5 -147t-259.5 -47q-102 0 -187 36.5t-141.5 101t-79 159t-3.5 204.5zM457 1446h205
l129 -182l192 182h205l-287 -344h-283zM461 563h413q3 55 -25 94t-67 54.5t-82 15.5q-70 0 -139 -40.5t-100 -123.5z" />
    <glyph glyph-name="Gcircumflex" unicode="&#x11c;" horiz-adv-x="1548" 
d="M207 702q27 148 106.5 282t192.5 231t257.5 154.5t293.5 57.5q160 0 287 -61.5t202 -169.5l-254 -190q-102 143 -282 143q-178 0 -324 -131t-178 -316q-21 -121 15.5 -223.5t122.5 -163.5t202 -61q78 0 161 29t147.5 86.5t76.5 128.5h-379l43 243h725
q-33 -194 -108.5 -341t-184 -238t-241 -136.5t-287.5 -45.5q-199 0 -348 97t-215 263t-31 362zM690 1567l285 344h282l164 -344h-204l-127 182l-195 -182h-205z" />
    <glyph glyph-name="gcircumflex" unicode="&#x11d;" horiz-adv-x="1245" 
d="M70 -180q39 17 123.5 55.5t123.5 56.5q13 -65 77 -109t138 -44q79 0 139 26t97.5 73.5t58.5 107t29 133.5q-43 -64 -130 -101.5t-179 -37.5t-172 35.5t-135 98.5t-78 157t-4 204q20 112 77 207.5t134 159t169.5 99.5t184.5 36q93 0 166.5 -37.5t93.5 -101.5l23 118h276
l-145 -823q-53 -304 -220.5 -457t-427.5 -153q-157 0 -269.5 81t-149.5 216zM455 481q-18 -104 37 -168.5t149 -64.5q92 0 174 66t100 167q18 103 -40 164.5t-152 61.5t-172.5 -63.5t-95.5 -162.5zM455 1112l284 344h283l164 -344h-205l-131 182l-191 -182h-204z" />
    <glyph glyph-name="Gbreve" unicode="&#x11e;" horiz-adv-x="1548" 
d="M207 702q27 148 106.5 282t192.5 231t257.5 154.5t293.5 57.5q160 0 287 -61.5t202 -169.5l-254 -190q-102 143 -282 143q-178 0 -324 -131t-178 -316q-21 -121 15.5 -223.5t122.5 -163.5t202 -61q78 0 161 29t147.5 86.5t76.5 128.5h-379l43 243h725
q-33 -194 -108.5 -341t-184 -238t-241 -136.5t-287.5 -45.5q-199 0 -348 97t-215 263t-31 362zM836 1866h174q-22 -109 82 -109q93 0 116 109h178q-23 -121 -113 -195t-212 -74q-90 0 -146.5 40t-74 99.5t-4.5 129.5z" />
    <glyph glyph-name="gbreve" unicode="&#x11f;" horiz-adv-x="1245" 
d="M70 -180q39 17 123.5 55.5t123.5 56.5q13 -65 77 -109t138 -44q79 0 139 26t97.5 73.5t58.5 107t29 133.5q-43 -64 -130 -101.5t-179 -37.5t-172 35.5t-135 98.5t-78 157t-4 204q20 112 77 207.5t134 159t169.5 99.5t184.5 36q93 0 166.5 -37.5t93.5 -101.5l23 118h276
l-145 -823q-53 -304 -220.5 -457t-427.5 -153q-157 0 -269.5 81t-149.5 216zM455 481q-18 -104 37 -168.5t149 -64.5q92 0 174 66t100 167q18 103 -40 164.5t-152 61.5t-172.5 -63.5t-95.5 -162.5zM596 1411h174q-8 -54 11 -81t71 -27q51 0 80.5 31t36.5 77h178
q-20 -121 -109.5 -194.5t-212.5 -73.5q-132 0 -188.5 78.5t-40.5 189.5z" />
    <glyph glyph-name="Gdotaccent" unicode="&#x120;" horiz-adv-x="1548" 
d="M207 702q27 148 106.5 282t192.5 231t257.5 154.5t293.5 57.5q160 0 287 -61.5t202 -169.5l-254 -190q-102 143 -282 143q-178 0 -324 -131t-178 -316q-21 -121 15.5 -223.5t122.5 -163.5t202 -61q78 0 161 29t147.5 86.5t76.5 128.5h-379l43 243h725
q-33 -194 -108.5 -341t-184 -238t-241 -136.5t-287.5 -45.5q-199 0 -348 97t-215 263t-31 362zM936 1776q12 64 65 107.5t119 43.5t104.5 -43.5t26.5 -107.5q-12 -67 -64.5 -110.5t-119.5 -43.5t-105 43.5t-26 110.5z" />
    <glyph glyph-name="gdotaccent" unicode="&#x121;" horiz-adv-x="1245" 
d="M70 -180q39 17 123.5 55.5t123.5 56.5q13 -65 77 -109t138 -44q79 0 139 26t97.5 73.5t58.5 107t29 133.5q-43 -64 -130 -101.5t-179 -37.5t-172 35.5t-135 98.5t-78 157t-4 204q20 112 77 207.5t134 159t169.5 99.5t184.5 36q93 0 166.5 -37.5t93.5 -101.5l23 118h276
l-145 -823q-53 -304 -220.5 -457t-427.5 -153q-157 0 -269.5 81t-149.5 216zM455 481q-18 -104 37 -168.5t149 -64.5q92 0 174 66t100 167q18 103 -40 164.5t-152 61.5t-172.5 -63.5t-95.5 -162.5zM700 1321q12 64 65.5 108t119.5 44t104.5 -44t26.5 -108
q-12 -67 -64 -110.5t-118 -43.5q-67 0 -106.5 44t-27.5 110z" />
    <glyph glyph-name="Gcommaaccent" unicode="&#x122;" horiz-adv-x="1548" 
d="M207 702q27 148 106.5 282t192.5 231t257.5 154.5t293.5 57.5q160 0 287 -61.5t202 -169.5l-254 -190q-102 143 -282 143q-178 0 -324 -131t-178 -316q-21 -121 15.5 -223.5t122.5 -163.5t202 -61q78 0 161 29t147.5 86.5t76.5 128.5h-379l43 243h725
q-33 -194 -108.5 -341t-184 -238t-241 -136.5t-287.5 -45.5q-199 0 -348 97t-215 263t-31 362zM508 -516q82 94 124 180t66 221h240q-81 -314 -303 -473z" />
    <glyph glyph-name="gcommaaccent" unicode="&#x123;" horiz-adv-x="1245" 
d="M70 -180q39 17 123.5 55.5t123.5 56.5q13 -65 77 -109t138 -44q79 0 139 26t97.5 73.5t58.5 107t29 133.5q-43 -64 -130 -101.5t-179 -37.5t-172 35.5t-135 98.5t-78 157t-4 204q20 112 77 207.5t134 159t169.5 99.5t184.5 36q93 0 166.5 -37.5t93.5 -101.5l23 118h276
l-145 -823q-53 -304 -220.5 -457t-427.5 -153q-157 0 -269.5 81t-149.5 216zM455 481q-18 -104 37 -168.5t149 -64.5q92 0 174 66t100 167q18 103 -40 164.5t-152 61.5t-172.5 -63.5t-95.5 -162.5zM639 1135q85 320 303 473l125 -72q-83 -93 -124 -178.5t-64 -222.5h-240z
" />
    <glyph glyph-name="Hcircumflex" unicode="&#x124;" horiz-adv-x="1435" 
d="M166 0l248 1411h299l-103 -575h502l102 575h304l-248 -1411h-303l98 567h-502l-98 -567h-299zM629 1567l284 344h283l164 -344h-205l-129 182l-192 -182h-205z" />
    <glyph glyph-name="hcircumflex" unicode="&#x125;" horiz-adv-x="1185" 
d="M131 0l260 1477h285l-119 -670q42 82 131 126t168 44q187 0 263.5 -119t37.5 -338l-90 -520h-285l88 510q16 88 -27.5 139t-113.5 51q-36 0 -70 -10.5t-66.5 -32t-56 -60.5t-32.5 -91l-88 -506h-285zM186 1581l283 344h283l166 -344h-205l-131 182l-191 -182h-205z" />
    <glyph glyph-name="Hbar" unicode="&#x126;" horiz-adv-x="1464" 
d="M180 0l185 1049h-148l31 165h147l33 197h299l-33 -197h502l33 197h303l-33 -197h148l-31 -165h-148l-184 -1049h-303l98 567h-501l-99 -567h-299zM625 836h501l39 213h-501z" />
    <glyph glyph-name="hbar" unicode="&#x127;" horiz-adv-x="1185" 
d="M131 0l201 1141h-156l31 176h155l29 160h285l-29 -160h303l-30 -176h-304l-59 -334q42 82 131 126t168 44q187 0 263.5 -119t37.5 -338l-90 -520h-285l88 510q16 88 -27.5 139t-113.5 51q-36 0 -70 -10.5t-66.5 -32t-56 -60.5t-32.5 -91l-88 -506h-285z" />
    <glyph glyph-name="Itilde" unicode="&#x128;" horiz-adv-x="630" 
d="M166 0l248 1411h299l-248 -1411h-299zM303 1608q17 72 47.5 126t66.5 83t71.5 43t70.5 14q29 0 54.5 -13t40.5 -29t33 -29t34 -13t38.5 20.5t31.5 63.5h153q-31 -136 -105 -199t-149 -63q-34 0 -65 21t-55.5 42t-43.5 21q-15 0 -37.5 -22.5t-31.5 -65.5h-154z" />
    <glyph glyph-name="itilde" unicode="&#x129;" horiz-adv-x="542" 
d="M131 0l168 956h281l-168 -956h-281zM201 1153q31 137 104 201.5t150 64.5q37 0 67 -21t53.5 -42t42.5 -21q16 0 37.5 20.5t30.5 63.5h154q-12 -58 -34.5 -104.5t-49 -75t-57 -48t-58 -27t-53.5 -7.5q-34 0 -65.5 21t-56.5 42t-44 21q-15 0 -37 -22t-31 -66h-153z" />
    <glyph glyph-name="Imacron" unicode="&#x12a;" horiz-adv-x="630" 
d="M166 0l248 1411h299l-248 -1411h-299zM322 1657l32 174h570l-33 -174h-569z" />
    <glyph glyph-name="imacron" unicode="&#x12b;" horiz-adv-x="542" 
d="M131 0l168 956h281l-168 -956h-281zM195 1202l30 174h570l-31 -174h-569z" />
    <glyph glyph-name="Ibreve" unicode="&#x12c;" horiz-adv-x="630" 
d="M166 0l248 1411h299l-248 -1411h-299zM371 1866h174q-19 -109 82 -109q50 0 79 30.5t37 78.5h179q-23 -121 -113.5 -195t-212.5 -74q-90 0 -146.5 40t-74 99.5t-4.5 129.5z" />
    <glyph glyph-name="ibreve" unicode="&#x12d;" horiz-adv-x="542" 
d="M131 0l168 956h281l-168 -956h-281zM244 1411h174q-8 -54 11 -81t71 -27q50 0 79 30.5t37 77.5h179q-22 -121 -112 -194.5t-212 -73.5q-90 0 -146.5 39.5t-74.5 98.5t-6 130z" />
    <glyph glyph-name="Iogonek" unicode="&#x12e;" horiz-adv-x="630" 
d="M29 -236q9 63 37 101l98 135l248 1411h299l-248 -1411h-156l-114 -207q-14 -26 -10.5 -51t26.5 -35q24 -6 48.5 4.5t37.5 34.5q4 12 7 25.5t4 20.5l1 7l160 8q-7 -48 -15 -70.5t-24 -49.5q-37 -62 -97.5 -97.5t-121.5 -35.5q-89 0 -141.5 61.5t-38.5 148.5z" />
    <glyph glyph-name="iogonek" unicode="&#x12f;" horiz-adv-x="544" 
d="M0 -236q1 6 3.5 21.5t4.5 25t8.5 25t16.5 29.5l98 135l168 956h283l-168 -956h-140l-114 -207q-14 -26 -10.5 -51t26.5 -35q24 -6 48.5 4.5t37.5 34.5q4 12 7 25.5t4 20.5l1 7l160 8q-7 -48 -15 -70.5t-24 -49.5q-37 -62 -97.5 -97.5t-121.5 -35.5q-89 0 -140 61.5
t-36 148.5zM326 1311q12 70 72.5 118t133.5 48q72 0 115 -48t31 -118t-72.5 -119t-132.5 -49t-115.5 49t-31.5 119z" />
    <glyph glyph-name="Idotaccent" unicode="&#x130;" horiz-adv-x="630" 
d="M166 0l248 1411h299l-248 -1411h-299zM471 1776q12 64 66 107.5t120 43.5t103.5 -43.5t25.5 -107.5q-12 -67 -64.5 -110.5t-119.5 -43.5t-105 43.5t-26 110.5z" />
    <glyph glyph-name="dotlessi" unicode="&#x131;" horiz-adv-x="544" 
d="M131 0l168 956h283l-168 -956h-283z" />
    <glyph glyph-name="IJ" unicode="&#x132;" horiz-adv-x="1263" 
d="M166 0l248 1411h299l-248 -1411h-299zM346 -449l76 271q63 -23 176 -23q83 0 132 54t65 141l249 1417h302l-250 -1417q-18 -101 -58.5 -184t-106 -150.5t-163.5 -105t-221 -37.5q-65 0 -201 34z" />
    <glyph glyph-name="ij" unicode="&#x133;" horiz-adv-x="1093" 
d="M131 0l168 956h283l-168 -956h-283zM326 1311q12 70 72.5 118t133.5 48q72 0 115 -48t31 -118t-72.5 -119t-132.5 -49t-115.5 49t-31.5 119zM340 -481l43 258h125q71 0 108 44.5t46 106.5l182 1028h286l-180 -1022q-37 -202 -140 -308.5t-296 -106.5h-174zM872 1311
q12 70 73 118t134 48q74 0 117 -48t31 -118t-72.5 -119t-134.5 -49q-72 0 -116 49t-32 119z" />
    <glyph glyph-name="Jcircumflex" unicode="&#x134;" horiz-adv-x="632" 
d="M-281 -449l76 271q63 -23 176 -23q80 0 128.5 54.5t64.5 140.5l250 1417h301l-250 -1417q-18 -100 -58.5 -184t-105.5 -151t-162.5 -104.5t-218.5 -37.5q-65 0 -201 34zM227 1567l285 344h283l163 -344h-204l-129 182l-193 -182h-205z" />
    <glyph glyph-name="jcircumflex" unicode="&#x135;" horiz-adv-x="548" 
d="M-201 -481l43 258h125q68 0 104.5 45t45.5 106l182 1028h287l-183 -1022q-36 -202 -137.5 -308.5t-292.5 -106.5h-174zM129 1112l285 344h282l164 -344h-205l-129 182l-192 -182h-205z" />
    <glyph glyph-name="Kcommaaccent" unicode="&#x136;" horiz-adv-x="1247" 
d="M166 0l248 1411h303l-82 -463l416 463h352l-660 -698l539 -713h-389l-342 479l-82 -479h-303zM356 -516q84 96 126.5 181.5t64.5 219.5h239q-81 -314 -303 -473z" />
    <glyph glyph-name="kcommaaccent" unicode="&#x137;" horiz-adv-x="1077" 
d="M131 0l260 1477h283l-137 -783l272 262h362l-473 -421l385 -535h-350l-254 379l-65 -379h-283zM240 -516q83 95 125.5 181t64.5 220h240q-81 -314 -303 -473z" />
    <glyph glyph-name="kgreenlandic" unicode="&#x138;" horiz-adv-x="1046" 
d="M131 0l168 956h281l-50 -278l283 278h354l-503 -471l378 -485h-370l-211 295l-49 -295h-281z" />
    <glyph glyph-name="Lacute" unicode="&#x139;" horiz-adv-x="1046" 
d="M166 0l248 1411h301l-203 -1147h528l-45 -264h-829zM444 1559l287 344h283l-365 -344h-205z" />
    <glyph glyph-name="lacute" unicode="&#x13a;" horiz-adv-x="546" 
d="M131 0l260 1477h285l-260 -1477h-285zM412 1579l286 344h283l-365 -344h-204z" />
    <glyph glyph-name="Lcommaaccent" unicode="&#x13b;" horiz-adv-x="1046" 
d="M166 0l248 1411h301l-203 -1147h528l-45 -264h-829zM246 -516q83 95 125.5 181t64.5 220h240q-81 -314 -303 -473z" />
    <glyph glyph-name="lcommaaccent" unicode="&#x13c;" horiz-adv-x="546" 
d="M-47 -516q80 95 121 180.5t65 220.5h240q-81 -314 -303 -473zM131 0l260 1477h285l-260 -1477h-285z" />
    <glyph glyph-name="Lcaron" unicode="&#x13d;" horiz-adv-x="1056" 
d="M166 0l248 1411h301l-203 -1147h528l-45 -264h-829zM772 936q195 227 234 475h239q-46 -185 -134.5 -327t-178.5 -207z" />
    <glyph glyph-name="lcaron" unicode="&#x13e;" horiz-adv-x="636" 
d="M131 0l260 1477h285l-260 -1477h-285zM651 1001q88 97 152 220.5t86 255.5h239q-48 -186 -136.5 -328.5t-178.5 -206.5z" />
    <glyph glyph-name="Ldot" unicode="&#x13f;" horiz-adv-x="1046" 
d="M166 0l248 1411h301l-203 -1147h528l-45 -264h-829zM723 629q12 65 64 108t118 43q67 0 106 -43.5t27 -107.5q-12 -67 -65.5 -110.5t-120.5 -43.5t-104 43.5t-25 110.5z" />
    <glyph glyph-name="ldot" unicode="&#x140;" horiz-adv-x="778" 
d="M131 0l260 1477h285l-260 -1477h-285zM614 629q12 64 64.5 107.5t118.5 43.5q67 0 106 -43.5t27 -107.5q-12 -67 -66 -110.5t-121 -43.5t-104 43.5t-25 110.5z" />
    <glyph glyph-name="Lslash" unicode="&#x141;" horiz-adv-x="1062" 
d="M123 504l35 194l166 93l106 620h301l-76 -432l211 119l-32 -195l-211 -119l-95 -520h529l-45 -264h-830l103 596z" />
    <glyph glyph-name="lslash" unicode="&#x142;" horiz-adv-x="647" 
d="M109 471l36 195l197 110l125 701h285l-93 -523l195 111l-33 -195l-196 -110l-133 -760h-285l102 582z" />
    <glyph glyph-name="Nacute" unicode="&#x143;" horiz-adv-x="1390" 
d="M166 0l248 1411h274l334 -844l149 844h302l-248 -1411h-269l-342 854l-149 -854h-299zM844 1559l286 344h283l-364 -344h-205z" />
    <glyph glyph-name="nacute" unicode="&#x144;" 
d="M131 0l168 956h285l-25 -139q51 72 135.5 116t169.5 44q165 0 239.5 -103t39.5 -303l-101 -571h-284l88 510q18 92 -19 141t-112 49q-178 0 -211 -194l-88 -506h-285zM616 1104l287 344h283l-365 -344h-205z" />
    <glyph glyph-name="Ncommaaccent" unicode="&#x145;" horiz-adv-x="1390" 
d="M166 0l248 1411h274l338 -831l145 831h302l-248 -1411h-269l-344 842l-147 -842h-299zM389 -516q84 96 126.5 181.5t64.5 219.5h239q-81 -314 -303 -473z" />
    <glyph glyph-name="ncommaaccent" unicode="&#x146;" 
d="M131 0l168 956h285l-25 -139q51 72 135.5 116t169.5 44q165 0 239.5 -103t39.5 -303l-101 -571h-284l88 510q18 92 -19 141t-112 49q-178 0 -211 -194l-88 -506h-285zM287 -516q83 95 125.5 181t64.5 220h240q-81 -314 -303 -473z" />
    <glyph glyph-name="Ncaron" unicode="&#x147;" horiz-adv-x="1390" 
d="M166 0l248 1411h274l334 -844l149 844h302l-248 -1411h-269l-342 854l-149 -854h-299zM666 1901h204l127 -183l195 183h205l-287 -345h-283z" />
    <glyph glyph-name="ncaron" unicode="&#x148;" 
d="M131 0l168 956h285l-25 -139q51 72 135.5 116t169.5 44q165 0 239.5 -103t39.5 -303l-101 -571h-284l88 510q18 92 -19 141t-112 49q-178 0 -211 -194l-88 -506h-285zM471 1446h205l127 -182l194 182h205l-287 -344h-282z" />
    <glyph glyph-name="napostrophe" unicode="&#x149;" 
d="M-10 1006q72 80 101 159.5t32 188.5h242q-42 -258 -232 -393zM131 0l166 956h285l-23 -139q51 72 134.5 116t168.5 44q165 0 239.5 -103t41.5 -303l-101 -571h-284l86 510q18 92 -18 141t-111 49q-177 0 -213 -194l-86 -506h-285z" />
    <glyph glyph-name="Eng" unicode="&#x14a;" horiz-adv-x="1390" 
d="M166 0l248 1411h274l334 -844l149 844h302l-246 -1384q-14 -81 -41.5 -151.5t-73 -133t-105.5 -107t-143 -70.5t-182 -26q-71 0 -203 35l84 295q28 -11 88 -20t101 -9q74 4 126.5 61.5t65.5 131.5l-330 821l-149 -854h-299z" />
    <glyph glyph-name="eng" unicode="&#x14b;" 
d="M131 0l168 956h285l-25 -139q51 72 135.5 116t169.5 44q165 0 239.5 -103t39.5 -303l-92 -505q-18 -98 -55 -178t-97 -144.5t-151.5 -100.5t-206.5 -36q-46 0 -125 20l71 262q51 -16 101 -16q76 0 120.5 54t59.5 134l78 449q17 92 -19.5 141t-111.5 49q-178 0 -211 -194
l-88 -506h-285z" />
    <glyph glyph-name="Omacron" unicode="&#x14c;" horiz-adv-x="1599" 
d="M207 702q27 148 106.5 282t191.5 231t254.5 154.5t289.5 57.5q148 0 271 -57.5t201.5 -154.5t111 -231t5.5 -282q-26 -146 -105.5 -279.5t-192.5 -230.5t-256 -154.5t-291 -57.5q-196 0 -343 97t-212.5 263t-30.5 362zM506 702q-31 -178 66.5 -302t271.5 -124
q175 0 319.5 124.5t175.5 301.5q21 116 -17 214.5t-124 156t-201 57.5q-114 0 -220 -57.5t-178 -155.5t-93 -215zM803 1657l35 174h569l-35 -174h-569z" />
    <glyph glyph-name="omacron" unicode="&#x14d;" horiz-adv-x="1140" 
d="M156 481q39 220 207 358t376 138q135 0 237.5 -60.5t150.5 -175t22 -260.5q-39 -220 -207.5 -358.5t-376.5 -138.5q-101 0 -185 36t-140.5 99.5t-79.5 157.5t-4 204zM436 481q-17 -97 34.5 -158t141.5 -61q92 0 165.5 61t90.5 158q17 95 -34 156t-142 61
q-90 0 -164.5 -61t-91.5 -156zM494 1202l32 174h570l-33 -174h-569z" />
    <glyph glyph-name="Obreve" unicode="&#x14e;" horiz-adv-x="1599" 
d="M207 702q27 148 106.5 282t191.5 231t254.5 154.5t289.5 57.5q148 0 271 -57.5t201.5 -154.5t111 -231t5.5 -282q-26 -146 -105.5 -279.5t-192.5 -230.5t-256 -154.5t-291 -57.5q-196 0 -343 97t-212.5 263t-30.5 362zM506 702q-31 -178 66.5 -302t271.5 -124
q175 0 319.5 124.5t175.5 301.5q21 116 -17 214.5t-124 156t-201 57.5q-114 0 -220 -57.5t-178 -155.5t-93 -215zM854 1866h174q-22 -109 82 -109q94 0 117 109h178q-23 -121 -113.5 -195t-212.5 -74q-90 0 -146.5 40t-74 99.5t-4.5 129.5z" />
    <glyph glyph-name="obreve" unicode="&#x14f;" horiz-adv-x="1140" 
d="M156 481q39 220 207 358t376 138q135 0 237.5 -60.5t150.5 -175t22 -260.5q-39 -220 -207.5 -358.5t-376.5 -138.5q-101 0 -185 36t-140.5 99.5t-79.5 157.5t-4 204zM436 481q-17 -97 34.5 -158t141.5 -61q92 0 165.5 61t90.5 158q17 95 -34 156t-142 61
q-90 0 -164.5 -61t-91.5 -156zM543 1411h174q-9 -54 9.5 -81t70.5 -27q51 0 80.5 30.5t37.5 77.5h179q-22 -121 -112 -194.5t-212 -73.5q-90 0 -146.5 39.5t-74.5 98.5t-6 130z" />
    <glyph glyph-name="Ohungarumlaut" unicode="&#x150;" horiz-adv-x="1599" 
d="M207 702q27 148 106.5 282t191.5 231t254.5 154.5t289.5 57.5q148 0 271 -57.5t201.5 -154.5t111 -231t5.5 -282q-26 -146 -105.5 -279.5t-192.5 -230.5t-256 -154.5t-291 -57.5q-196 0 -343 97t-212.5 263t-30.5 362zM506 702q-31 -178 66.5 -302t271.5 -124
q175 0 319.5 124.5t175.5 301.5q21 116 -17 214.5t-124 156t-201 57.5q-114 0 -220 -57.5t-178 -155.5t-93 -215zM821 1556l287 345h227l-309 -345h-205zM1122 1556l314 345h233l-332 -345h-215z" />
    <glyph glyph-name="ohungarumlaut" unicode="&#x151;" horiz-adv-x="1140" 
d="M156 481q39 220 207 358t376 138q135 0 237.5 -60.5t150.5 -175t22 -260.5q-39 -220 -207.5 -358.5t-376.5 -138.5q-101 0 -185 36t-140.5 99.5t-79.5 157.5t-4 204zM436 481q-17 -97 34.5 -158t141.5 -61q92 0 165.5 61t90.5 158q17 95 -34 156t-142 61
q-90 0 -164.5 -61t-91.5 -156zM508 1102l287 344h227l-309 -344h-205zM809 1102l313 344h234l-332 -344h-215z" />
    <glyph glyph-name="OE" unicode="&#x152;" horiz-adv-x="2234" 
d="M207 702q27 148 106.5 282t191.5 231t254.5 154.5t289.5 57.5q260 0 395 -157l24 141h893l-45 -264h-594l-59 -322h520l-45 -260h-520l-55 -301h612l-43 -264h-911l20 137q-205 -157 -448 -157q-196 0 -343 97t-212.5 263t-30.5 362zM506 702q-31 -178 66.5 -302
t271.5 -124q175 0 319.5 124.5t175.5 301.5q21 116 -17 214.5t-124 156t-201 57.5q-114 0 -220 -57.5t-178 -155.5t-93 -215z" />
    <glyph glyph-name="oe" unicode="&#x153;" horiz-adv-x="1845" 
d="M156 481q39 220 207 358t376 138q104 0 191 -38.5t143 -107.5q173 146 389 146q208 0 324.5 -141t77.5 -363q-5 -32 -23 -88h-700q-3 -77 61.5 -118.5t149.5 -41.5q61 0 120.5 23t102.5 67l182 -141q-86 -100 -211.5 -147t-259.5 -47q-106 0 -194.5 39t-145.5 110
q-80 -69 -178.5 -107t-202.5 -38q-101 0 -185 36t-140.5 99.5t-79.5 157.5t-4 204zM436 481q-17 -97 34.5 -158t141.5 -61q92 0 165.5 61t90.5 158q17 95 -34 156t-142 61q-90 0 -164.5 -61t-91.5 -156zM1180 563h413q3 55 -25 94t-67 54.5t-82 15.5q-70 0 -139 -40.5
t-100 -123.5z" />
    <glyph glyph-name="Racute" unicode="&#x154;" horiz-adv-x="1304" 
d="M166 0l248 1411h577q78 0 142.5 -18.5t109 -50.5t77 -76t47 -95.5t19 -108t-7.5 -114.5q-13 -77 -47 -148t-87 -132t-129.5 -105t-168.5 -63l264 -500h-360l-232 487h-67l-84 -487h-301zM598 750h254q82 0 141 61t72 137q8 47 -1.5 91t-44 76t-87.5 32h-262zM748 1559
l286 344h283l-365 -344h-204z" />
    <glyph glyph-name="racute" unicode="&#x155;" horiz-adv-x="866" 
d="M131 0l168 956h285l-41 -231q56 124 144.5 188t170.5 64q97 0 156 -35l-94 -256q-57 29 -142 29q-122 0 -196.5 -95t-108.5 -286l-57 -334h-285zM342 1104l287 344h282l-364 -344h-205z" />
    <glyph glyph-name="Rcommaaccent" unicode="&#x156;" horiz-adv-x="1304" 
d="M166 0l248 1411h577q78 0 142.5 -18.5t109 -50.5t77 -76t47 -95.5t19 -108t-7.5 -114.5q-13 -77 -47 -148t-87 -132t-129.5 -105t-168.5 -63l264 -500h-360l-232 487h-67l-84 -487h-301zM352 -516q84 96 126.5 181.5t64.5 219.5h239q-81 -314 -303 -473zM598 750h254
q82 0 141 61t72 137q8 47 -1.5 91t-44 76t-87.5 32h-262z" />
    <glyph glyph-name="rcommaaccent" unicode="&#x157;" horiz-adv-x="866" 
d="M-51 -516q80 95 121 180.5t65 220.5h240q-81 -314 -303 -473zM131 0l166 956h285l-41 -231q39 85 96 143.5t112 83.5t107 25q96 0 158 -35l-94 -256q-57 29 -142 29q-122 0 -196.5 -95t-108.5 -286l-57 -334h-285z" />
    <glyph glyph-name="Rcaron" unicode="&#x158;" horiz-adv-x="1304" 
d="M166 0l248 1411h577q78 0 142.5 -18.5t109 -50.5t77 -76t47 -95.5t19 -108t-7.5 -114.5q-13 -77 -47 -148t-87 -132t-129.5 -105t-168.5 -63l264 -500h-360l-232 487h-67l-84 -487h-301zM598 750h254q82 0 141 61t72 137q8 47 -1.5 91t-44 76t-87.5 32h-262zM614 1901
h205l127 -183l195 183h205l-287 -345h-283z" />
    <glyph glyph-name="rcaron" unicode="&#x159;" horiz-adv-x="866" 
d="M131 0l168 956h285l-41 -231q56 124 144.5 188t170.5 64q97 0 156 -35l-94 -256q-57 29 -142 29q-122 0 -196.5 -95t-108.5 -286l-57 -334h-285zM340 1446h205l127 -182l194 182h205l-287 -344h-282z" />
    <glyph glyph-name="Sacute" unicode="&#x15a;" horiz-adv-x="1191" 
d="M162 414h301q-8 -72 38 -121t142 -49q92 0 157 40.5t77 108.5q12 54 -16.5 93.5t-123.5 66.5l-164 49q-71 22 -125 52t-86.5 65t-52.5 71t-26.5 75.5t-6 72.5t6.5 68q22 123 104 220t201 149t254 52q209 0 323 -117t78 -315h-299q12 73 -27 116.5t-126 43.5
q-79 0 -139 -39.5t-70 -101.5q-16 -96 127 -144l159 -51q372 -118 310 -428q-16 -82 -57.5 -151t-98.5 -116.5t-127.5 -81t-145.5 -49.5t-151 -16q-229 0 -349.5 122.5t-86.5 314.5zM739 1559l287 344h283l-365 -344h-205z" />
    <glyph glyph-name="sacute" unicode="&#x15b;" horiz-adv-x="956" 
d="M127 309h266q-6 -43 29 -76.5t92 -33.5q49 0 87 22t44 58q6 31 -11.5 49.5t-68.5 31.5l-121 33q-56 16 -99 37.5t-68.5 42.5t-41.5 48.5t-22.5 47.5t-6.5 50t2 45t7 41q22 107 146.5 189.5t273.5 82.5q59 0 112 -10.5t100 -34.5t78.5 -60t45 -90.5t2.5 -122.5h-268
q7 48 -22 66t-73 18q-46 0 -77 -19.5t-35 -51.5q-7 -52 71 -72l154 -43q53 -15 93 -37.5t62.5 -48.5t37 -52.5t18.5 -54t4 -47.5t-4 -38q-11 -59 -43.5 -109t-79 -84.5t-104 -58.5t-118.5 -35.5t-122 -11.5q-74 0 -140.5 22t-116.5 62t-73 104t-10 141zM539 1104l286 344
h283l-365 -344h-204z" />
    <glyph glyph-name="Scircumflex" unicode="&#x15c;" horiz-adv-x="1191" 
d="M162 414h301q-8 -72 38 -121t142 -49q92 0 157 40.5t77 108.5q12 54 -16.5 93.5t-123.5 66.5l-164 49q-71 22 -125 52t-86.5 65t-52.5 71t-26.5 75.5t-6 72.5t6.5 68q22 123 104 220t201 149t254 52q209 0 323 -117t78 -315h-299q12 73 -27 116.5t-126 43.5
q-79 0 -139 -39.5t-70 -101.5q-16 -96 127 -144l159 -51q372 -118 310 -428q-16 -82 -57.5 -151t-98.5 -116.5t-127.5 -81t-145.5 -49.5t-151 -16q-229 0 -349.5 122.5t-86.5 314.5zM512 1567l285 344h282l164 -344h-205l-129 182l-192 -182h-205z" />
    <glyph glyph-name="scircumflex" unicode="&#x15d;" horiz-adv-x="956" 
d="M127 309h266q-6 -43 29 -76.5t92 -33.5q49 0 87 22t44 58q6 31 -11.5 49.5t-68.5 31.5l-121 33q-56 16 -99 37.5t-68.5 42.5t-41.5 48.5t-22.5 47.5t-6.5 50t2 45t7 41q22 107 146.5 189.5t273.5 82.5q59 0 112 -10.5t100 -34.5t78.5 -60t45 -90.5t2.5 -122.5h-268
q7 48 -22 66t-73 18q-46 0 -77 -19.5t-35 -51.5q-7 -52 71 -72l154 -43q53 -15 93 -37.5t62.5 -48.5t37 -52.5t18.5 -54t4 -47.5t-4 -38q-11 -59 -43.5 -109t-79 -84.5t-104 -58.5t-118.5 -35.5t-122 -11.5q-74 0 -140.5 22t-116.5 62t-73 104t-10 141zM309 1112l285 344
h283l163 -344h-204l-129 182l-193 -182h-205z" />
    <glyph glyph-name="Scedilla" unicode="&#x15e;" horiz-adv-x="1189" 
d="M160 414h301q-8 -72 38 -121t142 -49q92 0 156 40.5t77 108.5q10 55 -17.5 94t-121.5 66l-164 47q-71 23 -125 54t-86 66t-52.5 71t-27 75t-6 72t6.5 68q22 123 104 220t201 149t254 52q209 0 323 -117t78 -315h-299q12 73 -27.5 116.5t-126.5 43.5q-79 0 -138.5 -39.5
t-69.5 -101.5q-16 -101 127 -144l157 -53q379 -115 312 -426q-32 -165 -158 -268t-295 -133l47 -125q15 -36 2 -101q-15 -86 -91.5 -148t-166.5 -62q-61 0 -107 35.5t-63 97.5q-9 36 6 120l156 -8q-1 -3 -2.5 -8t-4 -19.5t0.5 -25.5q4 -24 24 -34.5t47 -4.5q27 10 39.5 34.5
t7.5 51.5l-36 184q-222 4 -339 126t-83 311z" />
    <glyph glyph-name="scedilla" unicode="&#x15f;" horiz-adv-x="958" 
d="M127 309h266q-6 -43 29 -76.5t92 -33.5q50 2 87.5 23.5t43.5 56.5q6 31 -11.5 49.5t-68.5 31.5l-119 33q-57 16 -100 37.5t-69 42t-42 48t-22.5 48t-6.5 50t2 45t7 41.5q22 107 147.5 189.5t274.5 82.5q75 0 138.5 -17.5t114.5 -53.5t74 -99.5t9 -147.5h-268q7 48 -21 66
t-72 18q-46 0 -78 -19.5t-36 -51.5q-7 -52 71 -72l154 -43q53 -15 93 -37.5t62.5 -48.5t37 -52.5t18.5 -54t4 -47.5t-4 -38q-21 -112 -112.5 -185t-217.5 -100l45 -129q17 -39 4 -101q-15 -86 -91.5 -148t-166.5 -62q-61 0 -108 35.5t-64 97.5q-9 36 6 120l158 -8
q-1 -3 -2.5 -8t-4 -19t-1.5 -26q4 -24 24.5 -34.5t47.5 -4.5q27 10 40 34.5t7 51.5l-37 187q-72 1 -137 23t-114 62.5t-72.5 104t-10.5 139.5z" />
    <glyph glyph-name="Scaron" unicode="&#x160;" horiz-adv-x="1191" 
d="M162 414h301q-8 -72 38 -121t142 -49q92 0 157 40.5t77 108.5q12 54 -16.5 93.5t-123.5 66.5l-164 49q-71 22 -125 52t-86.5 65t-52.5 71t-26.5 75.5t-6 72.5t6.5 68q22 123 104 220t201 149t254 52q209 0 323 -117t78 -315h-299q12 73 -27 116.5t-126 43.5
q-79 0 -139 -39.5t-70 -101.5q-16 -96 127 -144l159 -51q372 -118 310 -428q-16 -82 -57.5 -151t-98.5 -116.5t-127.5 -81t-145.5 -49.5t-151 -16q-229 0 -349.5 122.5t-86.5 314.5zM571 1901h205l129 -183l193 183h205l-287 -345h-283z" />
    <glyph glyph-name="scaron" unicode="&#x161;" horiz-adv-x="956" 
d="M127 309h266q-6 -43 29 -76.5t92 -33.5q49 0 87 22t44 58q6 31 -11.5 49.5t-68.5 31.5l-121 33q-56 16 -99 37.5t-68.5 42.5t-41.5 48.5t-22.5 47.5t-6.5 50t2 45t7 41q22 107 146.5 189.5t273.5 82.5q59 0 112 -10.5t100 -34.5t78.5 -60t45 -90.5t2.5 -122.5h-268
q7 48 -22 66t-73 18q-46 0 -77 -19.5t-35 -51.5q-7 -52 71 -72l154 -43q53 -15 93 -37.5t62.5 -48.5t37 -52.5t18.5 -54t4 -47.5t-4 -38q-11 -59 -43.5 -109t-79 -84.5t-104 -58.5t-118.5 -35.5t-122 -11.5q-74 0 -140.5 22t-116.5 62t-73 104t-10 141zM369 1446h204
l129 -182l193 182h205l-287 -344h-283z" />
    <glyph glyph-name="Tcommaaccent" unicode="&#x162;" horiz-adv-x="1179" 
d="M258 1141l47 270h1065l-47 -270h-381l-201 -1141h-303l201 1141h-381zM262 -516q83 95 125 180.5t66 220.5h239q-81 -314 -303 -473z" />
    <glyph glyph-name="tcommaaccent" unicode="&#x163;" horiz-adv-x="747" 
d="M33 -516q82 94 124 180t66 221h240q-81 -314 -303 -473zM172 731l41 225h174l66 367h282l-65 -367h200l-41 -225h-200l-125 -731h-283l125 731h-174z" />
    <glyph glyph-name="Tcaron" unicode="&#x164;" horiz-adv-x="1179" 
d="M258 1141l47 270h1065l-47 -270h-381l-201 -1141h-303l201 1141h-381zM561 1901h205l127 -183l194 183h205l-288 -345h-283z" />
    <glyph glyph-name="tcaron" unicode="&#x165;" horiz-adv-x="747" 
d="M174 731l41 225h174l66 367h282l-65 -367h200l-41 -225h-200l-127 -731h-283l127 731h-174zM795 1141q82 96 124 181.5t64 219.5h240q-81 -316 -305 -473z" />
    <glyph glyph-name="Tbar" unicode="&#x166;" horiz-adv-x="1179" 
d="M258 1141l47 270h1065l-47 -270h-381l-201 -1141h-303l201 1141h-381zM596 1657l33 174h569l-33 -174h-569z" />
    <glyph glyph-name="tbar" unicode="&#x167;" horiz-adv-x="749" 
d="M174 731l41 225h174l66 367h282l-65 -367h200l-41 -225h-200l-33 -199h143l-30 -157h-144l-63 -375h-283l64 375h-109l31 157h108l33 199h-174z" />
    <glyph glyph-name="Utilde" unicode="&#x168;" horiz-adv-x="1396" 
d="M238 504l161 907h306l-162 -907q-18 -106 42 -174t158 -68t183.5 68.5t103.5 173.5l162 907h301l-162 -907q-27 -155 -124.5 -276t-232.5 -184.5t-280 -63.5q-109 0 -201.5 37.5t-156 104.5t-91 166.5t-7.5 215.5zM684 1608q31 137 105 201.5t151 64.5q29 0 54 -13
t40 -29t32.5 -29t33.5 -13t38.5 20.5t32.5 63.5h154q-17 -72 -47.5 -125.5t-67 -81.5t-71.5 -41.5t-68 -13.5q-34 0 -65.5 21t-56.5 42t-44 21q-15 0 -37 -22.5t-30 -65.5h-154z" />
    <glyph glyph-name="utilde" unicode="&#x169;" 
d="M186 385l101 571h286l-90 -510q-10 -54 0 -93.5t33 -59t48.5 -28.5t53.5 -9q74 0 131 47t76 148l90 505h285l-168 -956h-284l20 131q-49 -70 -125.5 -110.5t-148.5 -40.5q-169 0 -255.5 104t-52.5 301zM504 1153q31 137 104 201.5t150 64.5q29 0 55 -13t41 -29t33.5 -29
t34.5 -13t37 20.5t30 63.5h154q-12 -58 -34.5 -104.5t-49 -75t-57 -48t-58 -27t-53.5 -7.5q-34 0 -65.5 21t-56.5 42t-44 21q-15 0 -37 -22t-31 -66h-153z" />
    <glyph glyph-name="Umacron" unicode="&#x16a;" horiz-adv-x="1396" 
d="M238 504l161 907h306l-162 -907q-18 -106 42 -174t158 -68t183.5 68.5t103.5 173.5l162 907h301l-162 -907q-27 -155 -124.5 -276t-232.5 -184.5t-280 -63.5q-109 0 -201.5 37.5t-156 104.5t-91 166.5t-7.5 215.5zM702 1657l35 174h570l-35 -174h-570z" />
    <glyph glyph-name="umacron" unicode="&#x16b;" 
d="M186 385l101 571h286l-90 -510q-10 -54 0 -93.5t33 -59t48.5 -28.5t53.5 -9q74 0 131 47t76 148l90 505h285l-168 -956h-284l20 131q-49 -70 -125.5 -110.5t-148.5 -40.5q-169 0 -255.5 104t-52.5 301zM522 1202l31 174h569l-30 -174h-570z" />
    <glyph glyph-name="Ubreve" unicode="&#x16c;" horiz-adv-x="1396" 
d="M238 504l161 907h306l-162 -907q-18 -106 42 -174t158 -68t183.5 68.5t103.5 173.5l162 907h301l-162 -907q-27 -155 -124.5 -276t-232.5 -184.5t-280 -63.5q-109 0 -201.5 37.5t-156 104.5t-91 166.5t-7.5 215.5zM752 1866h174q-22 -109 82 -109q93 0 116 109h179
q-23 -121 -113.5 -195t-212.5 -74q-90 0 -146.5 40t-74 99.5t-4.5 129.5z" />
    <glyph glyph-name="ubreve" unicode="&#x16d;" 
d="M186 385l101 571h286l-90 -510q-10 -54 0 -93.5t33 -59t48.5 -28.5t53.5 -9q74 0 131 47t76 148l90 505h285l-168 -956h-284l20 131q-49 -70 -125.5 -110.5t-148.5 -40.5q-169 0 -255.5 104t-52.5 301zM569 1411h174q-8 -54 11 -81t71 -27q51 0 80 30.5t37 77.5h178
q-22 -121 -111.5 -194.5t-211.5 -73.5q-90 0 -147 39.5t-75 98.5t-6 130z" />
    <glyph glyph-name="Uring" unicode="&#x16e;" horiz-adv-x="1396" 
d="M238 504l161 907h306l-162 -907q-18 -106 42 -174t158 -68t183.5 68.5t103.5 173.5l162 907h301l-162 -907q-27 -155 -124.5 -276t-232.5 -184.5t-280 -63.5q-109 0 -201.5 37.5t-156 104.5t-91 166.5t-7.5 215.5zM768 1804q19 106 103.5 179t187.5 73q104 0 164 -73
t41 -179q-19 -103 -105 -174t-190 -71q-103 0 -161.5 71t-39.5 174zM901 1804q-9 -47 18 -79.5t74 -32.5q49 0 88.5 32.5t48.5 79.5q9 51 -18.5 85t-77.5 34q-47 0 -85.5 -34t-47.5 -85z" />
    <glyph glyph-name="uring" unicode="&#x16f;" 
d="M186 385l101 571h286l-90 -510q-10 -54 0 -93.5t33 -59t48.5 -28.5t53.5 -9q74 0 131 47t76 148l90 505h285l-168 -956h-284l20 131q-49 -70 -125.5 -110.5t-148.5 -40.5q-169 0 -255.5 104t-52.5 301zM586 1350q19 106 103.5 179t187.5 73q104 0 163.5 -73t40.5 -179
q-19 -103 -104 -174.5t-189 -71.5q-103 0 -162 71.5t-40 174.5zM719 1350q-8 -48 18.5 -80.5t73.5 -32.5q50 0 90 33t47 80q9 51 -18.5 84.5t-77.5 33.5q-48 0 -86 -33.5t-47 -84.5z" />
    <glyph glyph-name="Uhungarumlaut" unicode="&#x170;" horiz-adv-x="1396" 
d="M238 504l161 907h306l-162 -907q-18 -106 42 -174t158 -68t183.5 68.5t103.5 173.5l162 907h301l-162 -907q-27 -155 -124.5 -276t-232.5 -184.5t-280 -63.5q-109 0 -201.5 37.5t-156 104.5t-91 166.5t-7.5 215.5zM651 1556l287 345h227l-309 -345h-205zM952 1556
l314 345h233l-332 -345h-215z" />
    <glyph glyph-name="uhungarumlaut" unicode="&#x171;" 
d="M186 385l101 571h286l-90 -510q-10 -54 0 -93.5t33 -59t48.5 -28.5t53.5 -9q74 0 131 47t76 148l90 505h285l-168 -956h-284l20 131q-49 -70 -125.5 -110.5t-148.5 -40.5q-169 0 -255.5 104t-52.5 301zM475 1102l287 344h227l-309 -344h-205zM776 1102l314 344h233
l-332 -344h-215z" />
    <glyph glyph-name="Uogonek" unicode="&#x172;" horiz-adv-x="1400" 
d="M242 504l159 907h304l-160 -907q-20 -105 42 -173.5t161 -68.5q97 0 180.5 68t103.5 174l160 907h303l-160 -907q-26 -146 -114.5 -262.5t-210.5 -182t-258 -77.5l-105 -189q-14 -26 -10 -51t25 -35q24 -6 49.5 4.5t38.5 34.5q4 12 7 25t4 21l1 7l158 8q-5 -47 -13 -69
t-26 -51q-38 -62 -97 -97.5t-120 -35.5q-89 0 -142.5 62t-38.5 148q14 68 37 101l88 123q-192 29 -297.5 168.5t-68.5 347.5z" />
    <glyph glyph-name="uogonek" unicode="&#x173;" 
d="M186 385l101 571h286l-90 -510q-10 -54 0 -93.5t33 -59t48.5 -28.5t53.5 -9q74 0 131 47t76 148l90 505h285l-168 -956h-143l-115 -207q-14 -26 -10.5 -51t24.5 -35q25 -6 50.5 4.5t38.5 34.5q4 12 7 25t4 21l1 7l160 8q-7 -48 -15 -70.5t-24 -49.5q-37 -62 -97.5 -97.5
t-121.5 -35.5q-89 0 -142.5 62t-38.5 148q14 68 37 101l101 135l20 131q-49 -70 -125.5 -110.5t-148.5 -40.5q-169 0 -255.5 104t-52.5 301z" />
    <glyph glyph-name="Wcircumflex" unicode="&#x174;" horiz-adv-x="1814" 
d="M246 1411h323l119 -889l309 690h246l66 -690l432 889h325l-727 -1411h-235l-70 741l-323 -741h-238zM819 1567l285 344h282l164 -344h-204l-129 182l-193 -182h-205z" />
    <glyph glyph-name="wcircumflex" unicode="&#x175;" horiz-adv-x="1562" 
d="M184 956h303l70 -569l268 569h244l68 -569l270 569h303l-504 -956h-237l-82 608l-287 -608h-238zM610 1112l285 344h283l163 -344h-204l-131 182l-191 -182h-205z" />
    <glyph glyph-name="Ycircumflex" unicode="&#x176;" horiz-adv-x="1333" 
d="M217 1411h356l248 -528l436 528h357l-684 -776l-111 -635h-305l113 639zM578 1567l284 344h283l164 -344h-205l-129 182l-193 -182h-204z" />
    <glyph glyph-name="ycircumflex" unicode="&#x177;" horiz-adv-x="1044" 
d="M59 -469l332 567l-217 858h303l113 -542l311 542h303l-844 -1425h-301zM358 1112l285 344h283l164 -344h-205l-131 182l-191 -182h-205z" />
    <glyph glyph-name="Ydieresis" unicode="&#x178;" horiz-adv-x="1333" 
d="M217 1411h356l248 -528l436 528h357l-684 -776l-111 -635h-305l113 639zM647 1761q10 58 62 99t114 41q60 0 94.5 -41t24.5 -99q-10 -60 -59 -100.5t-109 -40.5q-62 0 -99.5 41t-27.5 100zM1010 1761q10 58 62 99t114 41q60 0 94.5 -41t24.5 -99q-10 -60 -59 -100.5
t-109 -40.5q-62 0 -99.5 41t-27.5 100z" />
    <glyph glyph-name="Zacute" unicode="&#x179;" horiz-adv-x="1218" 
d="M86 0l39 227l809 920h-619l45 264h1008l-41 -227l-813 -920h651l-45 -264h-1034zM735 1559l287 344h283l-365 -344h-205z" />
    <glyph glyph-name="zacute" unicode="&#x17a;" horiz-adv-x="1044" 
d="M84 0l35 211l538 483h-421l45 262h833l-37 -213l-545 -481h459l-45 -262h-862zM578 1104l286 344h283l-365 -344h-204z" />
    <glyph glyph-name="Zdotaccent" unicode="&#x17b;" horiz-adv-x="1218" 
d="M86 0l39 227l809 920h-619l45 264h1008l-41 -227l-813 -920h651l-45 -264h-1034zM758 1776q12 64 66 107.5t120 43.5t103.5 -43.5t25.5 -107.5q-12 -67 -64.5 -110.5t-119.5 -43.5t-105 43.5t-26 110.5z" />
    <glyph glyph-name="zdotaccent" unicode="&#x17c;" horiz-adv-x="1044" 
d="M84 0l35 211l538 483h-421l45 262h833l-37 -213l-545 -481h459l-45 -262h-862zM590 1321q12 65 64 108.5t118 43.5q67 0 106 -44t27 -108q-12 -67 -64.5 -110.5t-119.5 -43.5t-105 43.5t-26 110.5z" />
    <glyph glyph-name="Zcaron" unicode="&#x17d;" horiz-adv-x="1218" 
d="M86 0l39 227l809 920h-619l45 264h1008l-41 -227l-813 -920h651l-45 -264h-1034zM573 1901h205l127 -183l195 183h205l-287 -345h-283z" />
    <glyph glyph-name="zcaron" unicode="&#x17e;" horiz-adv-x="1044" 
d="M84 0l35 211l538 483h-421l45 262h833l-37 -213l-545 -481h459l-45 -262h-862zM406 1446h204l127 -182l195 182h205l-287 -344h-283z" />
    <glyph glyph-name="longs" unicode="&#x17f;" horiz-adv-x="686" 
d="M174 731l41 225h180l15 66q37 218 171 336.5t341 118.5h104l-51 -273h-105q-72 0 -116 -47.5t-58 -134.5l-182 -1022h-287l127 731h-180z" />
    <glyph glyph-name="florin" unicode="&#x192;" horiz-adv-x="1284" 
d="M-6 -393l100 272h105q142 0 211 182l254 670h-183l86 225h181l28 66q79 218 237 336.5t365 118.5h105l-105 -273h-104q-137 0 -211 -182l-27 -66h191l-86 -225h-191l-282 -747q-66 -176 -224.5 -276.5t-349.5 -100.5h-100z" />
    <glyph glyph-name="Aringacute" unicode="&#x1fa;" horiz-adv-x="1349" 
d="M-12 0l772 1411h325l275 -1411h-316l-67 334h-488l-182 -334h-319zM633 594h293l-62 491zM745 1786q15 85 76 151.5t142 90.5l211 251h282l-297 -278q49 -35 71.5 -91.5t10.5 -123.5q-17 -102 -103.5 -174t-191.5 -72q-103 0 -161.5 71.5t-39.5 174.5zM879 1786
q-9 -47 18 -80t74 -33q49 0 88.5 32.5t48.5 80.5q9 51 -18.5 85t-77.5 34q-47 0 -85.5 -34t-47.5 -85z" />
    <glyph glyph-name="aringacute" unicode="&#x1fb;" horiz-adv-x="1253" 
d="M158 479q20 111 78.5 206.5t138 158t173 98t185.5 35.5q27 0 59 -5.5t70.5 -18t73 -39.5t53.5 -64l19 106h282l-168 -956h-282l20 109q-56 -62 -144.5 -94.5t-156.5 -32.5q-92 0 -173.5 35t-139.5 97.5t-83 158t-5 206.5zM453 479q-17 -99 44 -163t154 -64t174 62.5
t99 164.5q18 103 -41 165.5t-152 62.5q-94 0 -177.5 -64.5t-100.5 -163.5zM621 1350q15 86 75 152t142 89l211 252h282l-297 -278q50 -34 72 -90.5t10 -124.5q-19 -103 -105 -174.5t-190 -71.5q-103 0 -161 71.5t-39 174.5zM754 1350q-8 -48 18.5 -80.5t73.5 -32.5
q50 0 90 33t47 80q9 51 -18.5 84.5t-77.5 33.5q-48 0 -86 -33.5t-47 -84.5z" />
    <glyph glyph-name="AEacute" unicode="&#x1fc;" horiz-adv-x="1912" 
d="M-43 0l1139 1411h944l-45 -264h-594l-60 -322h521l-45 -260h-521l-53 -301h612l-45 -264h-911l-2 2l55 322h-377l-260 -324h-358zM797 612h207l69 398zM1188 1559l287 344h282l-364 -344h-205z" />
    <glyph glyph-name="aeacute" unicode="&#x1fd;" horiz-adv-x="1986" 
d="M158 479q20 111 78.5 206.5t138 158t173 98t185.5 35.5q27 0 59 -5.5t70.5 -18t73 -39.5t53.5 -64l19 106h282l-14 -79q152 100 330 100q208 0 324 -141t77 -363q-6 -39 -22 -88h-701q-3 -77 61.5 -118.5t149.5 -41.5q61 0 120.5 23t102.5 67l183 -141
q-86 -100 -211.5 -147t-259.5 -47q-182 0 -293 102l-15 -82h-282l20 109q-56 -62 -144.5 -94.5t-156.5 -32.5q-92 0 -173.5 35t-139.5 97.5t-83 158t-5 206.5zM453 479q-17 -99 44 -163t154 -64t174 62.5t99 164.5q18 103 -41 165.5t-152 62.5q-94 0 -177.5 -64.5
t-100.5 -163.5zM1077 1104l287 344h283l-365 -344h-205zM1323 563h414q3 55 -25 94t-67 54.5t-82 15.5q-70 0 -139.5 -40.5t-100.5 -123.5z" />
    <glyph glyph-name="Oslashacute" unicode="&#x1fe;" horiz-adv-x="1595" 
d="M96 63l197 168q-138 199 -88 471q27 148 106.5 282t191.5 231t254.5 154.5t289.5 57.5q129 0 239 -43t189 -122l190 165l80 -94l-193 -168q130 -203 84 -463q-36 -196 -160 -362t-306 -263t-379 -97q-253 0 -420 157l-2 -2l-193 -168zM502 702q-27 -144 37 -256l690 601
q-92 83 -234 83q-114 0 -220.5 -57.5t-179 -156t-93.5 -214.5zM616 352q92 -76 226 -76q175 0 319.5 124.5t175.5 301.5q24 137 -37 246zM973 1559l287 344h282l-364 -344h-205z" />
    <glyph glyph-name="oslashacute" unicode="&#x1ff;" horiz-adv-x="1140" 
d="M72 45l137 119q-87 130 -53 317q27 147 115 261t211.5 174.5t258.5 60.5q168 0 289 -103l127 111l80 -94l-129 -111q72 -128 43 -299q-39 -220 -207.5 -358.5t-376.5 -138.5q-165 0 -274 86l-141 -121zM438 481q-12 -64 6 -110l349 299q-47 28 -101 28q-90 0 -163.5 -61
t-90.5 -156zM530 279q35 -17 84 -17q92 0 165.5 61t90.5 158q7 40 0 90zM612 1104l287 344h283l-365 -344h-205z" />
    <glyph glyph-name="Scommaaccent" unicode="&#x218;" horiz-adv-x="1191" 
d="M162 414h301q-8 -72 38 -121t142 -49q92 0 157 40.5t77 108.5q12 54 -16.5 93.5t-123.5 66.5l-164 49q-71 22 -125 52t-86.5 65t-52.5 71t-26.5 75.5t-6 72.5t6.5 68q22 123 104 220t201 149t254 52q209 0 323 -117t78 -315h-299q12 73 -27 116.5t-126 43.5
q-79 0 -139 -39.5t-70 -101.5q-16 -96 127 -144l159 -51q372 -118 310 -428q-16 -82 -57.5 -151t-98.5 -116.5t-127.5 -81t-145.5 -49.5t-151 -16q-229 0 -349.5 122.5t-86.5 314.5zM266 -516q83 95 125 180.5t64 220.5h239q-79 -316 -303 -473z" />
    <glyph glyph-name="scommaaccent" unicode="&#x219;" horiz-adv-x="956" 
d="M127 309h266q-6 -43 29 -76.5t92 -33.5q49 0 87 22t44 58q6 31 -11.5 49.5t-68.5 31.5l-121 33q-56 16 -99 37.5t-68.5 42.5t-41.5 48.5t-22.5 47.5t-6.5 50t2 45t7 41q22 107 146.5 189.5t273.5 82.5q59 0 112 -10.5t100 -34.5t78.5 -60t45 -90.5t2.5 -122.5h-268
q7 48 -22 66t-73 18q-46 0 -77 -19.5t-35 -51.5q-7 -52 71 -72l154 -43q53 -15 93 -37.5t62.5 -48.5t37 -52.5t18.5 -54t4 -47.5t-4 -38q-11 -59 -43.5 -109t-79 -84.5t-104 -58.5t-118.5 -35.5t-122 -11.5q-74 0 -140.5 22t-116.5 62t-73 104t-10 141zM166 -516
q82 94 124 180t66 221h240q-81 -314 -303 -473z" />
    <glyph glyph-name="circumflex" unicode="&#x2c6;" horiz-adv-x="1161" 
d="M412 1112l284 344h283l164 -344h-205l-131 182l-191 -182h-204z" />
    <glyph glyph-name="caron" unicode="&#x2c7;" horiz-adv-x="1161" 
d="M471 1446h205l129 -182l192 182h205l-287 -344h-282z" />
    <glyph glyph-name="breve" unicode="&#x2d8;" horiz-adv-x="1042" 
d="M494 1411h174q-19 -108 82 -108q50 0 79 30.5t37 77.5h178q-22 -121 -111.5 -194.5t-211.5 -73.5q-90 0 -146.5 39.5t-74.5 98.5t-6 130z" />
    <glyph glyph-name="dotaccent" unicode="&#x2d9;" horiz-adv-x="790" 
d="M471 1321q12 64 65 108t119 44t104.5 -44t26.5 -108q-12 -67 -64 -110.5t-118 -43.5q-67 0 -106 43.5t-27 110.5z" />
    <glyph glyph-name="ring" unicode="&#x2da;" horiz-adv-x="1150" 
d="M567 1350q19 106 103.5 179t187.5 73q104 0 164 -73t41 -179q-19 -103 -105 -174.5t-190 -71.5q-103 0 -161.5 71.5t-39.5 174.5zM700 1350q-8 -47 19 -80t74 -33q50 0 90 33t47 80q9 51 -18.5 84.5t-77.5 33.5q-48 0 -86.5 -33.5t-47.5 -84.5z" />
    <glyph glyph-name="ogonek" unicode="&#x2db;" horiz-adv-x="1087" 
d="M285 -236q14 68 37 101l137 190h133l-143 -262q-14 -26 -10.5 -51t26.5 -35q24 -6 48.5 4.5t37.5 34.5q4 12 7 25t4 21l1 7l160 8q-7 -48 -15 -70.5t-24 -49.5q-37 -62 -97.5 -97.5t-121.5 -35.5q-89 0 -142 62t-38 148z" />
    <glyph glyph-name="tilde" unicode="&#x2dc;" horiz-adv-x="919" 
d="M362 1153q31 137 104 201.5t150 64.5q29 0 54.5 -13t40.5 -29t33 -29t34 -13t38.5 20.5t31.5 63.5h153q-16 -72 -46 -125.5t-66 -81.5t-71 -41.5t-68 -13.5q-34 0 -65.5 21t-56.5 42t-44 21q-16 0 -38 -22.5t-30 -65.5h-154z" />
    <glyph glyph-name="hungarumlaut" unicode="&#x2dd;" horiz-adv-x="1114" 
d="M358 1102l287 344h227l-309 -344h-205zM659 1102l314 344h233l-332 -344h-215z" />
    <glyph glyph-name="Wgrave" unicode="&#x1e80;" horiz-adv-x="1814" 
d="M246 1411h323l119 -889l309 690h246l66 -690l432 889h325l-727 -1411h-235l-70 741l-323 -741h-238zM866 1903h283l164 -344h-205z" />
    <glyph glyph-name="wgrave" unicode="&#x1e81;" horiz-adv-x="1562" 
d="M184 956h303l70 -569l268 569h244l68 -569l270 569h303l-504 -956h-237l-82 608l-287 -608h-238zM641 1448h283l163 -344h-204z" />
    <glyph glyph-name="Wacute" unicode="&#x1e82;" horiz-adv-x="1814" 
d="M246 1411h323l119 -889l309 690h246l66 -690l432 889h325l-727 -1411h-235l-70 741l-323 -741h-238zM1049 1559l286 344h283l-365 -344h-204z" />
    <glyph glyph-name="wacute" unicode="&#x1e83;" horiz-adv-x="1562" 
d="M184 956h303l70 -569l268 569h244l68 -569l270 569h303l-504 -956h-237l-82 608l-287 -608h-238zM848 1104l287 344h282l-364 -344h-205z" />
    <glyph glyph-name="Wdieresis" unicode="&#x1e84;" horiz-adv-x="1814" 
d="M246 1411h323l119 -889l309 690h246l66 -690l432 889h325l-727 -1411h-235l-70 741l-323 -741h-238zM889 1761q10 58 62 99t114 41q60 0 94.5 -41t24.5 -99q-10 -60 -59 -100.5t-109 -40.5q-62 0 -99.5 41t-27.5 100zM1251 1761q10 58 62 99t114 41q60 0 94.5 -41
t24.5 -99q-10 -60 -59 -100.5t-109 -40.5q-62 0 -99.5 41t-27.5 100z" />
    <glyph glyph-name="wdieresis" unicode="&#x1e85;" horiz-adv-x="1562" 
d="M184 956h303l70 -569l268 569h244l68 -569l270 569h303l-504 -956h-237l-82 608l-287 -608h-238zM680 1307q10 58 62 98.5t114 40.5q60 0 94.5 -40.5t24.5 -98.5q-10 -60 -60 -101t-110 -41q-62 0 -98.5 41t-26.5 101zM1042 1307q10 58 62.5 98.5t114.5 40.5
q60 0 94 -40.5t24 -98.5q-10 -60 -60 -101t-110 -41q-62 0 -98.5 41t-26.5 101z" />
    <glyph glyph-name="Ygrave" unicode="&#x1ef2;" horiz-adv-x="1333" 
d="M217 1411h356l248 -528l436 528h357l-684 -776l-111 -635h-305l113 639zM647 1903h283l164 -344h-205z" />
    <glyph glyph-name="ygrave" unicode="&#x1ef3;" horiz-adv-x="1044" 
d="M59 -469l332 567l-217 858h303l113 -542l311 542h303l-844 -1425h-301zM465 1448h283l163 -344h-204z" />
    <glyph glyph-name="uni2009" unicode="&#x2009;" horiz-adv-x="28" 
 />
    <glyph glyph-name="endash" unicode="&#x2013;" horiz-adv-x="1298" 
d="M182 354l47 254h1053l-47 -254h-1053z" />
    <glyph glyph-name="emdash" unicode="&#x2014;" horiz-adv-x="1734" 
d="M182 354l47 254h1489l-47 -254h-1489z" />
    <glyph glyph-name="quoteleft" unicode="&#x2018;" horiz-adv-x="575" 
d="M244 831q16 91 69.5 190t120.5 178.5t126.5 137t105.5 90.5l98 -63q-100 -114 -136 -165q-114 -162 -151 -368h-233z" />
    <glyph glyph-name="quoteright" unicode="&#x2019;" horiz-adv-x="557" 
d="M225 895q103 114 143 172q110 158 144 360h233q-12 -74 -49.5 -154t-85 -146.5t-102.5 -127.5t-100.5 -102t-81.5 -66z" />
    <glyph glyph-name="quotesinglbase" unicode="&#x201a;" horiz-adv-x="524" 
d="M-55 -190q6 7 31 36t33.5 39.5t31.5 40t33.5 45t31 46.5t31 54t26.5 57t26 65t20.5 69.5t17.5 79.5h234q-16 -91 -68.5 -190t-119.5 -178.5t-126.5 -137t-105.5 -90.5z" />
    <glyph glyph-name="quotedblleft" unicode="&#x201c;" horiz-adv-x="925" 
d="M244 831q16 91 69.5 190t120.5 178.5t126.5 137t105.5 90.5l98 -63q-100 -114 -136 -165q-114 -162 -151 -368h-233zM594 831q16 91 69.5 190t120.5 178.5t126.5 137t105.5 90.5l98 -63q-100 -114 -136 -165q-114 -162 -151 -368h-233z" />
    <glyph glyph-name="quotedblright" unicode="&#x201d;" horiz-adv-x="907" 
d="M225 895q103 114 143 172q110 158 144 360h233q-12 -74 -49.5 -154t-85 -146.5t-102.5 -127.5t-100.5 -102t-81.5 -66zM575 895q103 114 143 172q110 158 144 360h234q-15 -91 -67.5 -190.5t-119 -178.5t-127 -137t-106.5 -90z" />
    <glyph glyph-name="quotedblbase" unicode="&#x201e;" horiz-adv-x="874" 
d="M-55 -190q6 7 31 36t33.5 39.5t31.5 40t33.5 45t31 46.5t31 54t26.5 57t26 65t20.5 69.5t17.5 79.5h234q-16 -91 -68.5 -190t-119.5 -178.5t-126.5 -137t-105.5 -90.5zM291 -190q99 113 133 161q117 163 154 371h233q-16 -91 -68.5 -190t-119.5 -178.5t-126.5 -137
t-105.5 -90.5z" />
    <glyph glyph-name="dagger" unicode="&#x2020;" horiz-adv-x="839" 
d="M231 877l35 200h215l60 334h254l-60 -334h215l-35 -200h-215l-188 -1067h-254l188 1067h-215z" />
    <glyph glyph-name="daggerdbl" unicode="&#x2021;" horiz-adv-x="905" 
d="M156 268l37 199h215l71 410h-215l35 200h215l59 334h254l-59 -334h215l-35 -200h-215l-71 -410h215l-37 -199h-215l-80 -458h-254l80 458h-215z" />
    <glyph glyph-name="bullet" unicode="&#x2022;" horiz-adv-x="999" 
d="M256 487q24 135 137 225.5t248 90.5t214.5 -90.5t55.5 -225.5q-16 -89 -74 -161.5t-140.5 -113t-170.5 -40.5q-135 0 -214.5 90t-55.5 225z" />
    <glyph glyph-name="ellipsis" unicode="&#x2026;" horiz-adv-x="1771" 
d="M133 152q12 72 74 121t135 49t115 -48.5t30 -121.5q-12 -74 -72.5 -123t-133.5 -49t-116.5 49t-31.5 123zM733 152q12 72 74 121t135 49t115 -48.5t30 -121.5q-12 -74 -72.5 -123t-133.5 -49t-116.5 49t-31.5 123zM1333 152q12 72 74 121t135 49t115.5 -48.5t30.5 -121.5
q-12 -74 -73 -123t-134 -49t-116.5 49t-31.5 123z" />
    <glyph glyph-name="perthousand" unicode="&#x2030;" horiz-adv-x="2074" 
d="M266 1081q20 115 112.5 195t207.5 80q114 0 180.5 -80.5t46.5 -194.5q-20 -115 -114.5 -193.5t-209.5 -78.5t-179 78t-44 194zM305 0l895 1341h141l-895 -1341h-141zM432 1081q-9 -45 16.5 -75.5t71.5 -30.5q45 0 81.5 30.5t45.5 75.5q8 44 -19 76.5t-71 32.5
q-45 0 -81 -32t-44 -77zM844 252q20 115 112 194.5t207 79.5q114 0 181 -80t47 -194q-20 -115 -114.5 -193.5t-209.5 -78.5t-179 78t-44 194zM1010 252q-9 -46 16.5 -76.5t71.5 -30.5q44 0 81 30.5t46 76.5q7 44 -19.5 76t-70.5 32q-45 0 -81 -31.5t-44 -76.5zM1501 252
q20 115 112.5 194.5t207.5 79.5q114 0 180.5 -80t46.5 -194q-20 -115 -114.5 -193.5t-209.5 -78.5t-179 78t-44 194zM1667 252q-9 -46 16.5 -76.5t71.5 -30.5q44 0 81 30.5t46 76.5q7 44 -19.5 76t-70.5 32q-45 0 -81 -31.5t-44 -76.5z" />
    <glyph glyph-name="guilsinglleft" unicode="&#x2039;" horiz-adv-x="671" 
d="M162 477l358 424h221l-358 -424l209 -424h-221z" />
    <glyph glyph-name="guilsinglright" unicode="&#x203a;" horiz-adv-x="671" 
d="M96 53l357 424l-205 424h221l205 -424l-357 -424h-221z" />
    <glyph glyph-name="fraction" unicode="&#x2044;" horiz-adv-x="368" 
d="M-371 -20l1168 1388h168l-1166 -1388h-170z" />
    <glyph glyph-name="uni2070" unicode="&#x2070;" horiz-adv-x="718" 
d="M295 1278q16 90 42.5 159t68.5 126t105.5 87.5t145.5 30.5t135 -31.5t74 -86t23.5 -128t-15.5 -157.5q-16 -89 -42 -157t-67.5 -125.5t-105 -88t-145.5 -30.5q-293 0 -219 401zM459 1278q-42 -242 84 -242t168 242q42 244 -82 244q-67 0 -109 -67t-61 -177z" />
    <glyph glyph-name="uni2074" unicode="&#x2074;" horiz-adv-x="700" 
d="M199 1063l475 604h172l-84 -465h98l-24 -139h-99l-30 -174h-166l30 174h-372zM449 1202h147l45 244z" />
    <glyph glyph-name="uni2075" unicode="&#x2075;" horiz-adv-x="700" 
d="M231 1034q1 0 77 44t77 44q17 -36 51 -59t70 -23q68 0 118.5 36t59.5 87q11 62 -23.5 94.5t-97.5 32.5q-45 0 -96.5 -19t-89.5 -65l-82 47l137 414h455l-27 -151h-323l-48 -130q52 41 152 41q110 0 169.5 -69.5t37.5 -194.5q-22 -126 -124.5 -206t-248.5 -80
q-81 0 -147 43.5t-97 113.5z" />
    <glyph glyph-name="uni2076" unicode="&#x2076;" horiz-adv-x="694" 
d="M276 1147q15 172 60 278q48 120 134.5 190t213.5 66q80 -3 133 -35t76 -114l-162 -66q-19 62 -82 62q-79 0 -124.5 -66.5t-57.5 -158.5q15 28 65.5 58t108.5 30q44 0 82 -16.5t67 -48t40.5 -83t0.5 -115.5q-20 -112 -110.5 -181.5t-216.5 -69.5q-112 0 -176 73.5
t-52 196.5zM457 1137q-7 -43 18 -73t68 -30t78 30t43 73q7 43 -18 73.5t-68 30.5t-78 -30.5t-43 -73.5z" />
    <glyph glyph-name="uni2077" unicode="&#x2077;" horiz-adv-x="663" 
d="M264 889l389 627h-329l24 151h586l-483 -778h-187z" />
    <glyph glyph-name="uni2078" unicode="&#x2078;" horiz-adv-x="708" 
d="M260 1145q20 122 146 190q-49 56 -35 129q17 91 98.5 154t179.5 63q99 0 158.5 -63.5t42.5 -153.5q-16 -83 -80 -129q100 -70 80 -190q-20 -110 -121.5 -189t-222.5 -79t-193.5 79t-52.5 189zM424 1149q-9 -49 24.5 -84t86.5 -35t97.5 35t53.5 84q8 45 -20.5 80t-75.5 35
h-27q-49 0 -90 -35t-49 -80zM530 1460q-6 -31 12 -53.5t56 -22.5q37 0 61 22t31 54q6 31 -12 52.5t-55 21.5t-62 -21.5t-31 -52.5z" />
    <glyph glyph-name="uni2079" unicode="&#x2079;" horiz-adv-x="694" 
d="M250 1028l164 66q20 -64 80 -64q79 0 125.5 67.5t58.5 159.5q-16 -29 -63.5 -58.5t-106.5 -29.5q-44 0 -83 16.5t-68.5 48t-42 83t-1.5 115.5q20 112 110 180.5t216 68.5q112 0 177.5 -74t53.5 -196q-7 -78 -23.5 -149.5t-48.5 -144.5t-76 -126t-112 -85t-151 -29
q-78 3 -131.5 36t-77.5 115zM481 1421q-7 -43 18 -72.5t68 -29.5t78.5 29.5t42.5 72.5q8 43 -16.5 74t-67.5 31t-79 -31t-44 -74z" />
    <glyph glyph-name="uni2080" unicode="&#x2080;" horiz-adv-x="716" 
d="M82 82q70 403 362 403q82 0 135 -31.5t73.5 -86t23.5 -128t-14 -157.5q-71 -401 -361 -401t-219 401zM246 82q-11 -67 -10.5 -121t24.5 -87.5t70 -33.5q122 0 168 242q23 100 4 172t-86 72q-124 0 -170 -244z" />
    <glyph glyph-name="uni2081" unicode="&#x2081;" horiz-adv-x="440" 
d="M76 197l26 143l320 141l-139 -788h-164l100 559z" />
    <glyph glyph-name="uni2082" unicode="&#x2082;" horiz-adv-x="655" 
d="M10 -307l13 88l387 379q48 45 57 90q6 34 -15 56t-67 22q-44 0 -80.5 -31t-50.5 -78l-150 27q38 111 122 175t194 64q105 0 168 -66.5t45 -168.5q-16 -103 -117 -197q-11 -10 -215 -205h242l-29 -155h-504z" />
    <glyph glyph-name="uni2083" unicode="&#x2083;" horiz-adv-x="649" 
d="M4 -154l154 72q29 -66 104 -76q49 -3 88 27.5t39 54.5q0 1 3 12.5t4 22t-1 25.5q-5 22 -28.5 35t-65.5 12h-82l25 141h82q23 0 41 8.5t27.5 20t16 25t8 21.5t1.5 11q4 27 -12.5 51.5t-53.5 24.5q-53 0 -94 -45q1 1 -28 21.5t-58 40.5l-29 20q45 56 116 87t147 27
q99 -6 153 -69.5t35 -147.5q-6 -47 -40 -87t-85 -66q59 -23 86.5 -85t9.5 -126q-28 -99 -129.5 -164t-216.5 -57q-81 6 -138.5 50.5t-78.5 112.5z" />
    <glyph glyph-name="uni2084" unicode="&#x2084;" horiz-adv-x="704" 
d="M-4 -133l467 604h172l-82 -465h98l-22 -139h-99l-32 -174h-166l33 174h-369zM240 6h147l43 244z" />
    <glyph glyph-name="uni2085" unicode="&#x2085;" horiz-adv-x="694" 
d="M16 -162q1 0 77 44t77 44q19 -36 52 -59t69 -23q68 0 118.5 36t59.5 87q11 62 -23.5 94.5t-97.5 32.5q-45 0 -96.5 -19t-89.5 -65l-84 47l137 414h455l-25 -152h-323l-48 -129q55 41 154 41q110 0 168.5 -69.5t36.5 -194.5q-22 -126 -124.5 -206t-248.5 -80
q-80 0 -145.5 43t-98.5 114z" />
    <glyph glyph-name="uni2086" unicode="&#x2086;" horiz-adv-x="694" 
d="M63 -49q15 166 62 278q106 264 346 256q79 -4 133.5 -35.5t77.5 -113.5l-164 -66q-19 62 -80 62q-54 0 -94.5 -35.5t-60 -84t-27.5 -106.5q13 27 63.5 58t108.5 31q94 0 153.5 -69t36.5 -194q-20 -112 -110.5 -181.5t-216.5 -69.5q-112 0 -176 73.5t-52 196.5zM244 -59
q-9 -42 17 -72.5t69 -30.5q42 0 77 30t44 73q9 42 -17 73t-69 31q-42 0 -77 -30.5t-44 -73.5z" />
    <glyph glyph-name="uni2087" unicode="&#x2087;" horiz-adv-x="636" 
d="M45 -307l389 626h-330l23 152h586l-482 -778h-186z" />
    <glyph glyph-name="uni2088" unicode="&#x2088;" horiz-adv-x="708" 
d="M49 -51q20 120 146 190q-46 53 -35 129q15 90 97 153.5t181 63.5q98 0 157 -63t44 -154q-12 -80 -80 -129q100 -67 80 -190q-20 -110 -121.5 -189t-222.5 -79t-193.5 79t-52.5 189zM213 -47q-9 -49 24.5 -84t86.5 -35t97.5 35t53.5 84q8 45 -20.5 80t-75.5 35h-27
q-49 0 -90 -35t-49 -80zM319 264q-5 -31 12.5 -53.5t55.5 -22.5t62.5 22.5t29.5 53.5t-12 52.5t-53 21.5q-37 0 -63.5 -22t-31.5 -52z" />
    <glyph glyph-name="uni2089" unicode="&#x2089;" horiz-adv-x="694" 
d="M37 -168l166 66q17 -64 78 -64q79 0 125.5 67.5t58.5 159.5q-13 -28 -62 -58t-108 -30q-44 0 -83 16.5t-68.5 48t-42 83t-1.5 115.5q20 112 111 180.5t217 68.5q112 0 177.5 -74t53.5 -196q-7 -78 -23.5 -149.5t-48.5 -144.5t-76 -126t-112 -85t-151 -29q-78 3 -132.5 36
t-78.5 115zM270 225q-8 -43 16.5 -72.5t67.5 -29.5t79.5 30t43.5 72q8 43 -16.5 74t-67.5 31t-79 -31t-44 -74z" />
    <glyph glyph-name="colonmonetary" unicode="&#x20a1;" horiz-adv-x="1454" 
d="M201 702q36 197 156.5 362.5t299 263t375.5 99.5l119 222l111 -45l-101 -187q63 -11 129 -37l105 197l108 -45l-108 -205q114 -75 178 -199l-275 -167q-21 43 -57 79l-416 -778h6q108 0 211 53t177 142l211 -168q-120 -143 -291 -226t-359 -83q-55 0 -102 8l-115 -217
l-110 43l106 202q-60 20 -117 56l-123 -230l-110 43l141 265q-99 102 -139 245.5t-10 306.5zM502 702q-24 -130 18 -235l352 661q-139 -38 -240 -155t-130 -271zM592 354q48 -48 110 -69l445 825q-69 30 -131 33z" />
    <glyph glyph-name="lira" unicode="&#x20a4;" horiz-adv-x="1398" 
d="M90 0l43 254h217l39 213h-170l21 129h170l18 96h-170l25 129h170l24 148q35 207 180.5 332.5t337.5 125.5q97 0 174.5 -28.5t132 -85t75 -148t-0.5 -209.5h-297q29 168 -133 168q-71 0 -120.5 -42.5t-61.5 -112.5l-25 -148h236l-25 -129h-235l-19 -96h236l-21 -129h-235
l-39 -213h377q27 0 48.5 21.5t27.5 52.5l10 59h280l-20 -115q-20 -116 -108 -194t-197 -78h-965z" />
    <glyph glyph-name="uni20A6" unicode="&#x20a6;" horiz-adv-x="1601" 
d="M188 434l25 139h156l55 322h-156l27 139h156l65 377h275l149 -377h268l66 377h301l-66 -377h166l-26 -139h-166l-56 -322h166l-24 -139h-166l-76 -434h-268l-174 434h-242l-76 -434h-299l76 434h-156zM668 573h161l-114 281zM993 895l129 -322h4l56 322h-189z" />
    <glyph glyph-name="peseta" unicode="&#x20a7;" horiz-adv-x="1546" 
d="M250 897l20 121h160l70 393h579q105 0 183.5 -32t124 -88t66 -125t17.5 -148h183l-21 -121h-180q-23 -83 -68 -155t-111.5 -130t-159 -91.5t-200.5 -33.5h-278l-82 -487h-301l158 897h-160zM682 750h264q67 0 121.5 42.5t79.5 104.5h-436zM731 1018h432q-10 57 -43 93
t-92 36h-272z" />
    <glyph glyph-name="uni20A8" unicode="&#x20a8;" horiz-adv-x="1468" 
d="M209 487l47 263h471q71 0 125 47t78 114h-645l22 121h633q-12 50 -45 82.5t-88 32.5h-479l43 264h1255l-20 -121h-430q92 -106 86 -258h299l-23 -121h-293q-36 -150 -145.5 -263.5t-278.5 -147.5l264 -500h-360l-231 487h-285z" />
    <glyph glyph-name="uni20A9" unicode="&#x20a9;" horiz-adv-x="2062" 
d="M180 317l27 140h317l-51 309h-213l25 139h166l-80 506h323l66 -506h223l137 307h246l29 -307h223l248 506h325l-262 -506h162l-25 -139h-208l-160 -309h315l-26 -140h-363l-160 -317h-235l-33 317h-225l-135 -317h-238l-53 317h-365zM778 766l33 -244l109 244h-142z
M1034 457h152l-29 284zM1409 766l23 -244l118 244h-141z" />
    <glyph glyph-name="afii57636" unicode="&#x20aa;" horiz-adv-x="1951" 
d="M176 0l195 1102h739q193 0 291 -121t65 -301l-43 -244h-286l34 191q12 79 -35 133.5t-141 54.5h-389l-143 -815h-287zM676 422l45 244h287l-35 -191q-14 -79 34 -133.5t142 -54.5h389l145 815h287l-194 -1102h-740q-193 0 -292 121t-68 301z" />
    <glyph glyph-name="Euro" unicode="&#x20ac;" horiz-adv-x="1697" 
d="M186 524l23 129h1010l-23 -129h-475q24 -119 111.5 -190.5t216.5 -71.5q108 0 211.5 53.5t177.5 141.5l209 -168q-118 -142 -289 -225.5t-359 -83.5q-168 0 -299.5 71t-206.5 194t-85 279h-222zM229 762l23 129h223q100 235 315 385.5t465 150.5q185 0 325 -80.5
t212 -218.5l-276 -167q-42 85 -123 134.5t-187 49.5q-126 0 -236.5 -69.5t-178.5 -184.5h471l-23 -129h-1010z" />
    <glyph glyph-name="afii61289" unicode="&#x2113;" horiz-adv-x="821" 
d="M184 348l129 731q14 77 39.5 137t67.5 109.5t108 75.5t152 26q67 0 116 -18.5t77 -51t43 -78t13.5 -99.5t-11.5 -115l-70 -381q-12 -66 -28.5 -114t-47 -94t-74 -74.5t-110 -46t-154.5 -17.5q-3 -18 -4 -29t2 -26.5t12 -25t28 -17t48 -9.5l197 -14l-37 -217h-252
q-307 0 -244 348zM477 575l55 7q47 3 62 77l72 410q20 119 -27 119q-20 0 -34 -10t-22.5 -30.5t-12.5 -37t-9 -43.5z" />
    <glyph glyph-name="afii61352" unicode="&#x2116;" horiz-adv-x="2015" 
d="M176 0l248 1411h274l334 -844l150 844h301l-248 -1411h-268l-342 854l-150 -854h-299zM1501 651l25 137h520l-25 -137h-520zM1579 1153q20 114 113.5 194t208.5 80q114 0 179.5 -80t45.5 -194q-20 -115 -114.5 -193.5t-209.5 -78.5t-179 78t-44 194zM1733 1153
q-9 -51 19 -85t79 -34q50 0 91 34t50 85q9 50 -20 85.5t-78 35.5q-50 0 -91 -35.5t-50 -85.5z" />
    <glyph glyph-name="trademark" unicode="&#x2122;" horiz-adv-x="1742" 
d="M348 1257l27 154h794l146 -463l303 463h147l-41 -745h-172l29 454l-242 -370h-122l-107 370l-135 -454h-170l178 591h-221l-105 -591h-172l105 591h-242z" />
    <glyph glyph-name="estimated" unicode="&#x212e;" horiz-adv-x="1323" 
d="M215 573q21 122 80 230.5t144.5 189t201.5 127.5t244 47q169 0 283 -82.5t156 -216.5t13 -297h-878l-70 -395q110 -129 287 -129q82 0 153 20t129 59t101.5 80.5t93.5 100.5l55 -39q-55 -67 -107.5 -115.5t-118 -89.5t-145.5 -62t-173 -21q-98 0 -180.5 31t-138.5 85
t-93 129t-44.5 163t7.5 185zM471 639h633l57 334q-49 54 -126.5 90.5t-162.5 36.5q-199 0 -344 -127z" />
    <glyph glyph-name="minus" unicode="&#x2212;" horiz-adv-x="1034" 
d="M213 430l37 209h756l-37 -209h-756z" />
    <glyph glyph-name="notequal" unicode="&#x2260;" horiz-adv-x="1232" 
d="M195 305l34 201h355l139 211h-457l39 201h555l129 196h146l-129 -196h241l-39 -201h-340l-141 -211h444l-34 -201h-543l-141 -215h-144l142 215h-256z" />
    <glyph glyph-name="lessequal" unicode="&#x2264;" horiz-adv-x="1308" 
d="M137 0l29 176h1018l-29 -176h-1018zM246 678l41 229l1095 393l-36 -225l-791 -282l690 -283l-41 -225z" />
    <glyph glyph-name="greaterequal" unicode="&#x2265;" horiz-adv-x="1308" 
d="M154 0l28 176h1018l-29 -176h-1017zM203 285l37 225l792 283l-692 282l41 225l960 -393l-41 -229z" />
    <glyph glyph-name="uniE000" unicode="&#xe000;" horiz-adv-x="952" 
d="M0 0v952h952v-952h-952z" />
    <glyph glyph-name="uniF6C3" unicode="&#xf6c3;" horiz-adv-x="645" 
d="M49 -516q83 95 125 180.5t66 220.5h239q-81 -314 -303 -473z" />
    <glyph glyph-name="uniF6DD" unicode="&#xf6dd;" horiz-adv-x="2439" 
d="M141 0l248 1411h578q78 0 142.5 -18.5t109 -50.5t77 -76t47 -95.5t19 -108t-7.5 -114.5q-13 -77 -47 -148t-87 -132t-129.5 -105t-168.5 -63l264 -500h-361l-231 487h-68l-84 -487h-301zM573 750h254q82 0 141 61t72 137q8 47 -1.5 91t-44 76t-87.5 32h-262zM1257 -469
l254 1425h283l-22 -118q49 65 132.5 102t174.5 37q92 0 169 -35.5t129 -99t72.5 -157.5t1.5 -204q-20 -112 -74.5 -207t-129 -159t-164.5 -99.5t-182 -35.5t-162.5 36.5t-91.5 100.5l-107 -586h-283zM1714 475q-18 -103 35 -165t145 -62q93 0 169.5 63.5t93.5 163.5
q17 104 -35.5 168t-145.5 64q-91 0 -167.5 -65.5t-94.5 -166.5z" />
    <glyph glyph-name="uniF8FF" unicode="&#xf8ff;" horiz-adv-x="1734" 
d="M139 1407h1407l25 -1407h-1407zM315 1219l13 -773h166l-154 154l-6 365l530 -519l516 519l6 -365l-149 -154h172l-12 773l-537 -539zM332 270l2 -108h18l-2 76l29 -76h20l21 76l2 -76h18l-2 108h-28l-19 -73l-29 73h-30zM453 217q0 -23 14 -39t39 -16q22 0 33.5 15.5
t11.5 37.5q0 23 -12.5 39t-34.5 16q-25 0 -38 -15.5t-13 -37.5zM469 215q0 12 10.5 23.5t24.5 11.5q12 0 18 -11t6 -24q0 -12 -6 -22.5t-18 -10.5q-14 0 -24.5 11.5t-10.5 21.5zM551 203q0 -19 13.5 -30t33.5 -11q43 0 43 35q0 22 -31 28q-21 3 -26.5 5t-5.5 8q0 12 18 12
q20 0 20 -12h19q0 32 -39 32q-15 0 -27 -9t-12 -23q0 -11 8 -17t25 -14q26 0 26 -10t-4 -12.5t-16 -2.5q-18 0 -18 21h-27zM641 250h35l2 -88h16l-2 88h31v20h-82v-20zM707 162h24l6 26h45l9 -26h22h18l-2 45h27q8 0 13 -6t5 -13t1.5 -15.5t1.5 -10.5h26q-8 8 -8 26
q0 19 -14 27q14 7 14 18q0 37 -27 37h-57l2 -108l-45 108h-18zM743 207l13 37h6l14 -37h-33zM829 221v29h27q18 0 18 -12q0 -17 -18 -17h-27zM909 270l2 -108h41q23 0 36 16.5t13 40.5t-13.5 37.5t-37.5 13.5h-41zM934 182v68h8q21 0 28 -8t7 -27q0 -13 -9 -23t-18 -10h-16z
M1008 270l2 -108h82l-2 20h-58v25h51v18h-51v25h51v20h-75zM1090 203q0 -20 13 -30.5t34 -10.5q19 0 31 10t12 25q0 21 -31 28q-23 3 -29 5t-6 8q0 12 14 12q25 0 25 -12h21q0 32 -39 32q-16 0 -30.5 -9t-14.5 -23q0 -16 38 -31q25 0 25 -10q0 -15 -18 -15q-10 0 -18.5 5.5
t-8.5 15.5h-18zM1188 270l2 -108h14l-2 108h-14zM1217 215q0 -22 14 -37.5t39 -15.5q18 0 22 14l11 -14h12l-2 59h-45v-18h24q-9 -21 -24 -21q-14 0 -23.5 11.5t-9.5 21.5q0 12 9.5 23.5t23.5 11.5q6 0 12 -6t6 -15h27q-4 20 -17 30.5t-28 10.5q-24 0 -37.5 -16t-13.5 -39z
M1325 270l2 -108h16l-2 67l48 -67h26l-2 108h-27v-67l-45 67h-16z" />
    <glyph glyph-name="NULL" horiz-adv-x="0" 
 />
    <glyph glyph-name="published" horiz-adv-x="1632" 
d="M223 702q36 197 159.5 363.5t305 264t377.5 97.5t344.5 -97.5t214.5 -264.5t31 -363q-27 -147 -107 -280.5t-193 -230.5t-256 -154t-290 -57t-269.5 57t-200.5 154t-110.5 230.5t-5.5 280.5zM383 702q-27 -152 23 -281t164 -204.5t266 -75.5t293.5 75.5t239 204.5
t124.5 281q20 114 -5 218t-85.5 180t-155.5 121t-209 45t-225 -45t-198 -121t-149.5 -180t-82.5 -218zM641 342l121 688h291q117 0 165.5 -68.5t32.5 -166.5q-17 -97 -90 -166.5t-190 -69.5h-119l-39 -217h-172zM877 711h112q34 0 60.5 26.5t31.5 57.5t-10.5 56.5
t-48.5 25.5h-117z" />
    <glyph glyph-name="frenchfranc" horiz-adv-x="1527" 
d="M184 0l248 1411h883l-45 -264h-582l-51 -281h537l-39 -221q57 126 136.5 189t158.5 63q113 0 178 -35l-99 -260q-27 16 -53 23.5t-41.5 8.5t-44.5 1q-240 0 -305 -381l-43 -254h-270l106 612h-266l-107 -612h-301z" />
    <glyph glyph-name="parenleft.case" horiz-adv-x="794" 
d="M203 696q48 273 171.5 493.5t293.5 344t352 123.5l-39 -223q-100 0 -213.5 -105t-203.5 -277t-122 -356q-30 -194 -2.5 -355t105.5 -264.5t178 -103.5l-39 -221q-183 0 -311 121.5t-172 331t2 491.5z" />
    <glyph glyph-name="parenright.case" horiz-adv-x="794" 
d="M20 -248l39 221q100 0 213.5 101t203.5 270t122 352q26 141 12.5 274t-52 236t-102.5 165.5t-139 62.5l39 223q137 0 245 -72t171 -200.5t84 -304.5t-18 -384q-36 -204 -117.5 -381t-190 -300t-241 -193t-269.5 -70z" />
    <glyph glyph-name="hyphen.case" horiz-adv-x="972" 
d="M225 575l47 271h723l-47 -271h-723z" />
    <glyph glyph-name="at.case" horiz-adv-x="1974" 
d="M213 692q32 184 130.5 350.5t237.5 287.5t316 192t360 71q185 0 342.5 -66t263 -179.5t151.5 -275t14 -343.5q-14 -77 -40.5 -156t-71 -160t-100 -143.5t-132.5 -101.5t-162 -39q-62 0 -111 16t-88 53t-51 97.5t0 148.5l45 258q17 101 -40.5 170.5t-156.5 69.5
q-98 0 -179.5 -70t-98.5 -170q-17 -96 41 -165.5t155 -69.5q89 0 168 51l-32 -192q-99 -39 -170 -39q-174 0 -275.5 121t-69.5 294q32 176 176 298t318 122q167 0 270 -114q104 -113 82 -285l-53 -291q-11 -66 20 -94.5t82 -28.5t95.5 29t75.5 73t56 103t39 111t23 104
q26 144 -11 272t-121.5 217t-211 141t-274.5 52q-194 0 -373 -97t-300.5 -262t-156.5 -360q-26 -146 5.5 -277t108.5 -225.5t197.5 -150t266.5 -55.5h67l-34 -183h-68q-123 0 -233 31.5t-196 89t-153.5 138.5t-104.5 180t-49.5 213.5t11.5 238.5z" />
    <glyph glyph-name="bracketleft.case" horiz-adv-x="692" 
d="M106 -238l334 1880h473l-36 -206h-232l-260 -1463h231l-36 -211h-474z" />
    <glyph glyph-name="bracketright.case" horiz-adv-x="692" 
d="M27 -238l36 211h232l260 1463h-231l36 206h474l-334 -1880h-473z" />
    <glyph glyph-name="braceleft.case" horiz-adv-x="843" 
d="M170 614l33 172q48 0 91.5 32.5t53.5 86.5l58 326q21 122 94 216t176 143.5t217 49.5h174l-39 -206h-180q-69 0 -127.5 -51t-71.5 -126l-59 -335q-16 -87 -77.5 -146.5t-123.5 -75.5q58 -16 97.5 -75t23.5 -146l-53 -313q-14 -76 26.5 -133.5t108.5 -57.5h180l-39 -215
h-174q-175 0 -275.5 113.5t-66.5 296.5l57 326q10 54 -23 86t-81 32z" />
    <glyph glyph-name="braceright.case" horiz-adv-x="843" 
d="M25 -240l36 215h181q68 0 127 57.5t73 133.5l56 313q16 87 77.5 146t124.5 75q-58 16 -98 75.5t-24 146.5l59 335q13 74 -27 125.5t-110 51.5h-181l39 206h174q175 0 273.5 -113t64.5 -296l-57 -326q-10 -54 23.5 -86.5t81.5 -32.5l-31 -172q-48 0 -92 -32t-54 -86
l-57 -326q-21 -122 -93.5 -216.5t-175 -144t-216.5 -49.5h-174z" />
    <glyph glyph-name="exclamdown.case" horiz-adv-x="581" 
d="M127 -20l217 997h234l-136 -997h-315zM334 1255q12 74 73 123t134 49t116 -49t31 -123q-12 -72 -74 -121t-135 -49t-115 48.5t-30 121.5z" />
    <glyph glyph-name="guillemotleft.case" horiz-adv-x="1079" 
d="M221 707l359 423h221l-359 -423l209 -424h-221zM584 707l358 423h221l-358 -423l209 -424h-221z" />
    <glyph glyph-name="periodcentered.case" horiz-adv-x="571" 
d="M240 754q12 73 73.5 122.5t135.5 49.5q73 0 115 -49t30 -123q-12 -72 -73 -121t-134 -49t-116 48.5t-31 121.5z" />
    <glyph glyph-name="guillemotright.case" horiz-adv-x="1079" 
d="M164 283l356 424l-205 423h222l204 -423l-356 -424h-221zM526 283l357 424l-205 423h221l205 -423l-356 -424h-222z" />
    <glyph glyph-name="questiondown.case" horiz-adv-x="1015" 
d="M139 379q27 146 120 247.5t224 139.5q65 18 94.5 56.5t43.5 113.5l10 45h278l-2 -45q-29 -155 -53 -211q-40 -93 -136 -150q-45 -27 -108 -51l-90 -35q-54 -27 -70.5 -50t-23.5 -62q-8 -47 27 -79t98 -32q65 0 112.5 39t59.5 103h287q-35 -195 -175.5 -311.5
t-334.5 -116.5t-294 108t-67 291zM637 1255q12 73 73.5 122.5t135.5 49.5q73 0 115 -49t30 -123q-12 -72 -73 -121t-134 -49t-116 48.5t-31 121.5z" />
    <glyph glyph-name="endash.case" horiz-adv-x="1314" 
d="M233 584l43 254h1053l-43 -254h-1053z" />
    <glyph glyph-name="emdash.case" horiz-adv-x="1751" 
d="M233 584l43 254h1489l-43 -254h-1489z" />
    <glyph glyph-name="bullet.case" horiz-adv-x="962" 
d="M279 717q16 89 74 161.5t140.5 113t170.5 40.5q135 0 214.5 -90t55.5 -225t-137 -225.5t-248 -90.5t-214.5 90.5t-55.5 225.5z" />
    <glyph glyph-name="guilsinglleft.case" horiz-adv-x="716" 
d="M221 707l359 423h221l-359 -423l209 -424h-221z" />
    <glyph glyph-name="guilsinglright.case" horiz-adv-x="716" 
d="M164 283l356 424l-205 423h222l204 -423l-356 -424h-221z" />
    <glyph glyph-name="cent.case" horiz-adv-x="1103" 
d="M205 717q23 128 99.5 233.5t182.5 169t228 84.5l41 223h149l-39 -217q110 -11 195.5 -62.5t130.5 -137.5l-260 -166q-21 45 -66.5 70.5t-101.5 25.5q-95 0 -177.5 -62t-99.5 -161q-17 -100 43 -165t154 -65q56 0 110.5 26t92.5 71l200 -164q-76 -88 -178.5 -140
t-218.5 -63l-41 -235h-149l43 241q-177 32 -274.5 166.5t-63.5 327.5z" />
    <glyph glyph-name="zero.tnum" horiz-adv-x="1187" 
d="M211 672q122 696 627 696q114 0 195 -36t125 -97t62.5 -151.5t14.5 -190t-25 -221.5q-21 -121 -52.5 -219.5t-82 -188.5t-116.5 -151t-159.5 -97t-207.5 -36q-504 0 -381 692zM500 672q-72 -414 139 -414q59 0 107.5 32.5t82.5 91t58 130.5t39 160q19 116 18.5 209
t-40 151t-116.5 58q-213 0 -288 -418z" />
    <glyph glyph-name="one.tnum" horiz-adv-x="1187" 
d="M438 862l45 252l561 246l-241 -1360h-287l168 961z" />
    <glyph glyph-name="two.tnum" horiz-adv-x="1187" 
d="M137 0l27 156l665 653q85 82 99 152q9 56 -29 94.5t-115 38.5q-75 0 -135.5 -52.5t-87.5 -134.5l-256 45q67 193 210.5 304.5t332.5 111.5q119 0 209.5 -50.5t134 -144.5t22.5 -212q-32 -179 -200 -340l-371 -351h414l-47 -270h-873z" />
    <glyph glyph-name="three.tnum" horiz-adv-x="1187" 
d="M141 264l275 125q12 -47 65 -86.5t109 -42.5q73 -4 138 41.5t81 101.5q4 14 7.5 30t1 45.5t-15.5 51.5t-49.5 38t-93.5 14h-141l41 245h141q40 0 70.5 15t46.5 34.5t26 42.5t12.5 36t2.5 18q6 24 -1 52t-35 52.5t-74 24.5q-100 0 -156 -74l-205 141q76 96 199.5 151
t253.5 48q171 -9 264 -119.5t65 -257.5q-15 -81 -74 -150.5t-145 -111.5q102 -39 148 -146.5t16 -217.5q-30 -112 -121 -203.5t-217 -139t-256 -38.5q-138 9 -240.5 85.5t-138.5 194.5z" />
    <glyph glyph-name="four.tnum" horiz-adv-x="1187" 
d="M68 301l811 1040h303l-142 -798h170l-43 -242h-170l-51 -301h-289l52 301h-641zM502 543h250l71 418z" />
    <glyph glyph-name="five.tnum" horiz-adv-x="1187" 
d="M117 250l272 156q28 -61 86 -100.5t121 -39.5q114 0 201 61.5t102 145.5q19 108 -40 163.5t-169 55.5q-47 0 -98 -11t-114.5 -46t-108.5 -90l-142 82l238 714h786l-47 -262h-559l-74 -217q44 34 115.5 52t142.5 18q190 0 292.5 -121.5t64.5 -337.5q-39 -217 -215 -355
t-426 -138q-138 0 -254 74.5t-174 195.5z" />
    <glyph glyph-name="six.tnum" horiz-adv-x="1187" 
d="M197 446q9 94 25 182.5t44.5 183.5t66.5 176t93.5 154t123 123t157.5 78t194 25q65 -2 117 -14.5t102.5 -40.5t88 -79.5t59.5 -125.5l-287 -115q-34 107 -137 107q-57 0 -106 -23t-83 -61t-61 -89.5t-43 -104t-25 -109.5q29 50 108.5 100.5t190.5 50.5q74 0 140 -28
t117.5 -81.5t73 -142.5t1.5 -200q-34 -194 -189 -313t-374 -119q-194 0 -306 128t-91 338zM512 428q-12 -72 29.5 -124t113.5 -52t134.5 52t74.5 124t-31.5 124t-115.5 52t-132.5 -52t-72.5 -124z" />
    <glyph glyph-name="seven.tnum" horiz-adv-x="1187" 
d="M213 0l661 1077h-567l49 264h1012l-829 -1341h-326z" />
    <glyph glyph-name="eight.tnum" horiz-adv-x="1187" 
d="M160 430q20 108 87.5 197t164.5 141q-80 89 -56 225q28 155 169 265t311 110t273 -110t77 -265q-23 -134 -139 -225q81 -52 117 -141.5t16 -196.5q-22 -125 -109 -229t-214.5 -162.5t-266.5 -58.5q-104 0 -192 34.5t-145.5 94t-83.5 143.5t-9 178zM449 444
q-15 -84 40 -141t146 -57t168 57.5t92 140.5q15 82 -34 141.5t-156 59.5q-103 0 -172.5 -59.5t-83.5 -141.5zM631 985q-10 -55 18.5 -92t93.5 -37q66 0 109 37.5t53 91.5q9 52 -21 88.5t-93 36.5t-107 -36.5t-53 -88.5z" />
    <glyph glyph-name="nine.tnum" horiz-adv-x="1187" 
d="M152 240l288 114q34 -106 138 -106q71 0 128.5 34.5t94.5 92.5t59.5 123t32.5 137q-81 -152 -297 -152q-74 0 -139.5 28t-116 81.5t-72 143t-2.5 200.5q34 194 188 313t373 119q194 0 307 -128t93 -339q-9 -94 -25.5 -182.5t-45 -183.5t-66.5 -175.5t-94 -153.5
t-123.5 -123t-158 -78t-194.5 -25q-64 2 -116 14.5t-102.5 40.5t-88.5 79.5t-61 125.5zM559 920q-13 -72 30.5 -124.5t115.5 -52.5t132 52.5t74 124.5q13 72 -30 124t-115 52t-132.5 -52t-74.5 -124z" />
    <glyph glyph-name="zero.taboldstyle" horiz-adv-x="1187" 
d="M158 524q21 121 82.5 224t146.5 171.5t186.5 107t204.5 38.5q105 0 193.5 -38.5t148.5 -107t84.5 -171.5t3.5 -224q-28 -158 -122.5 -283t-225.5 -191t-272 -66q-103 0 -191 39t-148.5 108t-86 171.5t-4.5 221.5zM428 524q-21 -120 41.5 -197t163.5 -77q103 0 194.5 77
t112.5 197q22 121 -42 197t-167 76q-102 0 -191.5 -76t-111.5 -197z" />
    <glyph glyph-name="one.taboldstyle" horiz-adv-x="1187" 
d="M373 539l49 270l596 250l-184 -1059h-287l110 643z" />
    <glyph glyph-name="two.taboldstyle" horiz-adv-x="1187" 
d="M158 0l28 164l566 475q78 64 82 96q6 36 -20.5 62t-80.5 26q-61 0 -105.5 -29.5t-62.5 -91.5l-272 33q47 159 174 254.5t315 95.5q187 0 290 -99t79 -234q-12 -68 -58.5 -133.5t-113.5 -114.5l-326 -254h404l-41 -250h-858z" />
    <glyph glyph-name="six.taboldstyle" horiz-adv-x="1187" 
d="M197 446q9 94 25 182.5t44.5 183.5t66.5 176t93.5 154t123 123t157.5 78t194 25q65 -2 117 -14.5t102.5 -40.5t88 -79.5t59.5 -125.5l-287 -115q-34 107 -137 107q-57 0 -106 -23t-83 -61t-61 -89.5t-43 -104t-25 -109.5q29 50 108.5 100.5t190.5 50.5q74 0 140 -28
t117.5 -81.5t73 -142.5t1.5 -200q-34 -194 -189 -313t-374 -119q-194 0 -306 128t-91 338zM512 428q-12 -72 29.5 -124t113.5 -52t134.5 52t74.5 124t-31.5 124t-115.5 52t-132.5 -52t-72.5 -124z" />
    <glyph glyph-name="eight.taboldstyle" horiz-adv-x="1187" 
d="M160 430q20 108 87.5 197t164.5 141q-80 89 -56 225q28 155 169 265t311 110t273 -110t77 -265q-23 -134 -139 -225q81 -52 117 -141.5t16 -196.5q-22 -125 -109 -229t-214.5 -162.5t-266.5 -58.5q-104 0 -192 34.5t-145.5 94t-83.5 143.5t-9 178zM449 444
q-15 -84 40 -141t146 -57t168 57.5t92 140.5q15 82 -34 141.5t-156 59.5q-103 0 -172.5 -59.5t-83.5 -141.5zM631 985q-10 -55 18.5 -92t93.5 -37q66 0 109 37.5t53 91.5q9 52 -21 88.5t-93 36.5t-107 -36.5t-53 -88.5z" />
    <glyph glyph-name="three.taboldstyle" horiz-adv-x="1187" 
d="M76 -127l274 125q12 -47 65.5 -86.5t110.5 -42.5q72 -4 137.5 42t79.5 101q0 1 1 3q36 145 -86 171q-29 5 -66 4h-141l45 246h141q40 0 70.5 15t46.5 34.5t26 42.5t12.5 36t2.5 18q6 42 -21.5 85.5t-93.5 43.5q-94 0 -154 -74l-207 141q78 97 200.5 151.5t254.5 47.5
q171 -9 266 -120t64 -257q-14 -80 -74 -149.5t-143 -112.5q66 -26 111.5 -86.5t57.5 -132t-5 -146.5q-31 -112 -123 -203.5t-218.5 -139t-256.5 -38.5q-138 9 -240.5 86t-136.5 195z" />
    <glyph glyph-name="four.taboldstyle" horiz-adv-x="1187" 
d="M2 -86l811 1040h303l-141 -798h170l-43 -242h-170l-53 -301h-289l53 301h-641zM436 156h250l74 417z" />
    <glyph glyph-name="five.taboldstyle" horiz-adv-x="1187" 
d="M49 -135l270 155q28 -61 87 -100t122 -39q115 0 202 61.5t101 145.5q19 108 -40.5 163.5t-169.5 55.5q-47 0 -98 -11t-115 -46t-109 -90l-141 82l237 714h787l-45 -262h-559l-76 -217q44 34 115.5 52t142.5 18q190 0 293 -121.5t65 -337.5q-39 -217 -216 -355.5
t-427 -138.5q-138 0 -254 75t-172 196z" />
    <glyph glyph-name="seven.taboldstyle" horiz-adv-x="1187" 
d="M145 -385l664 1077h-567l47 264h1011l-829 -1341h-326z" />
    <glyph glyph-name="nine.taboldstyle" horiz-adv-x="1187" 
d="M90 -152l289 115q31 -106 137 -106q71 0 128 34.5t93 92.5t58.5 122.5t33.5 137.5q-81 -152 -297 -152q-74 0 -140 28t-117 81.5t-72.5 143t-1.5 200.5q35 194 189.5 313t373.5 119q194 0 306 -128t91 -339q-9 -94 -25 -182.5t-44.5 -183.5t-66.5 -176t-93.5 -154
t-123 -123t-157.5 -78t-194 -25q-65 2 -117 14.5t-102 40.5t-87.5 79.5t-60.5 125.5zM494 528q-12 -72 30.5 -124t114.5 -52t133.5 52t73.5 124t-30 124.5t-114 52.5t-134 -52.5t-74 -124.5z" />
    <glyph glyph-name="zero.oldstyle" horiz-adv-x="1292" 
d="M211 524q21 121 82.5 224t146.5 171.5t186.5 107t204.5 38.5q105 0 193.5 -38.5t148.5 -107t85 -171.5t4 -224q-28 -158 -123 -283t-226 -191t-272 -66q-103 0 -191 39t-148.5 108t-86 171.5t-4.5 221.5zM481 524q-21 -120 41.5 -197t163.5 -77q103 0 194.5 77t112.5 197
q22 121 -42 197t-167 76q-102 0 -191.5 -76t-111.5 -197z" />
    <glyph glyph-name="one.oldstyle" horiz-adv-x="792" 
d="M176 539l49 270l596 250l-184 -1059h-287l111 643z" />
    <glyph glyph-name="two.oldstyle" horiz-adv-x="1110" 
d="M119 0l28 164l566 475q78 64 82 96q6 36 -20.5 62t-80.5 26q-61 0 -105.5 -29.5t-62.5 -91.5l-272 33q47 159 174 254.5t315 95.5q187 0 290 -99t79 -234q-12 -68 -58.5 -133.5t-113.5 -114.5l-326 -254h404l-41 -250h-858z" />
    <glyph glyph-name="three.oldstyle" horiz-adv-x="1087" 
d="M27 -127l274 125q12 -47 65.5 -86.5t110.5 -42.5q72 -4 137.5 42t79.5 101q0 1 1 3q36 145 -86 171q-29 5 -66 4h-142l45 246h142q40 0 70.5 15t46 34.5t25.5 42.5t12.5 36t2.5 18q6 42 -21 85.5t-93 43.5q-94 0 -154 -74l-207 141q78 97 200.5 151.5t254.5 47.5
q171 -9 266 -120t64 -257q-14 -80 -74 -149.5t-143 -112.5q66 -26 111 -86.5t57 -132t-5 -146.5q-31 -112 -123 -203.5t-218.5 -139t-256.5 -38.5q-138 9 -240 86t-136 195z" />
    <glyph glyph-name="four.oldstyle" horiz-adv-x="1202" 
d="M10 -86l811 1040h303l-141 -798h170l-43 -242h-170l-53 -301h-289l53 301h-641zM444 156h250l74 417z" />
    <glyph glyph-name="five.oldstyle" horiz-adv-x="1181" 
d="M47 -137l268 155q29 -61 88.5 -100t122.5 -39q114 0 200.5 61.5t100.5 145.5q19 108 -40 163.5t-169 55.5q-47 0 -98 -11t-114.5 -46t-108.5 -90l-143 82l239 714h787l-47 -262h-560l-73 -217q44 34 115.5 52t142.5 18q189 0 291.5 -121.5t64.5 -337.5
q-37 -216 -214 -355t-427 -139q-138 0 -254 75t-172 196z" />
    <glyph glyph-name="six.oldstyle" horiz-adv-x="1200" 
d="M203 446q9 94 25 182.5t44.5 183.5t66.5 176t93.5 154t123 123t157.5 78t194 25q65 -2 117 -14.5t102.5 -40.5t88 -79.5t59.5 -125.5l-287 -115q-34 107 -137 107q-57 0 -106 -23t-83 -61t-61 -89.5t-43 -104t-25 -109.5q29 50 108.5 100.5t190.5 50.5q74 0 140 -28
t117.5 -81.5t73 -142.5t1.5 -200q-34 -194 -189 -313t-374 -119q-194 0 -306 128t-91 338zM518 428q-12 -72 30 -124t114 -52t134 52t74 124t-31.5 124t-115.5 52t-132.5 -52t-72.5 -124z" />
    <glyph glyph-name="seven.oldstyle" horiz-adv-x="1081" 
d="M92 -385l664 1077h-568l48 264h1011l-829 -1341h-326z" />
    <glyph glyph-name="eight.oldstyle" horiz-adv-x="1220" 
d="M176 430q20 108 87.5 197t164.5 141q-79 88 -55 225q28 155 168.5 265t310.5 110t273 -110t77 -265q-23 -134 -139 -225q81 -52 117 -141.5t16 -196.5q-22 -125 -109 -229t-214.5 -162.5t-266.5 -58.5q-104 0 -192 34.5t-145.5 94t-83.5 143.5t-9 178zM465 444
q-15 -84 40 -141t146 -57t168 57.5t92 140.5q15 82 -34 141.5t-156 59.5q-103 0 -172.5 -59.5t-83.5 -141.5zM647 985q-10 -55 18.5 -92t94.5 -37t109 37.5t53 91.5q9 52 -21.5 88.5t-93.5 36.5t-107 -36.5t-53 -88.5z" />
    <glyph glyph-name="nine.oldstyle" horiz-adv-x="1159" 
d="M76 -152l289 115q31 -106 137 -106q71 0 128 34.5t93 92.5t58.5 122.5t33.5 137.5q-81 -152 -297 -152q-58 0 -112.5 17.5t-102 53t-79 89.5t-43.5 127t5 166q35 194 190 313t374 119q194 0 306 -128t91 -339q-9 -94 -25 -182.5t-44.5 -183.5t-66.5 -176t-94 -154
t-123.5 -123t-157.5 -78t-194 -25q-65 2 -117 14.5t-101.5 40.5t-87 79.5t-60.5 125.5zM479 528q-12 -72 31 -124t115 -52t133 52t73 124t-29.5 124.5t-113.5 52.5t-134.5 -52.5t-74.5 -124.5z" />
    <glyph glyph-name="Lslash.sc" horiz-adv-x="890" 
d="M123 418l29 160l133 75l92 506h260l-62 -344l170 96l-28 -159l-170 -97l-76 -426h428l-39 -229h-688l84 492z" />
    <glyph glyph-name="Zcaron.sc" horiz-adv-x="1056" 
d="M96 0l33 195l651 737h-497l41 227h831l-35 -192l-653 -738h522l-39 -229h-854zM500 1556h180l102 -143l158 143h180l-241 -290h-242z" />
    <glyph glyph-name="exclam.sc" horiz-adv-x="591" 
d="M166 125q10 62 60.5 102.5t113.5 40.5q62 0 98.5 -40.5t26.5 -102.5t-61 -103.5t-113 -41.5t-98.5 41.5t-26.5 103.5zM256 342l111 817h266l-178 -817h-199z" />
    <glyph glyph-name="ampersand.sc" horiz-adv-x="1208" 
d="M160 324q20 107 78 182t149 110q-56 24 -80.5 83.5t-9.5 146.5q22 125 141 226.5t258 101.5q121 0 193.5 -40.5t118.5 -115.5l-230 -129q-33 45 -84 45q-57 0 -91.5 -32.5t-41.5 -74.5v-1q-10 -71 37 -103q26 -18 70 -18h182l22 131h230l-23 -131h133l-34 -199h-134
l-28 -164q-17 -92 7.5 -117.5t121.5 -25.5l-37 -215q-62 1 -100 3t-79 9.5t-64 21.5t-41 38.5t-25 60.5q-46 -63 -134.5 -100t-166.5 -37q-112 0 -196 43.5t-122 122.5t-20 178zM436 381q-18 -70 24 -115t115 -45q47 0 107.5 32.5t93.5 98.5q21 41 23 68l16 86h-139
q-113 0 -166.5 -33t-73.5 -92z" />
    <glyph glyph-name="question.sc" horiz-adv-x="874" 
d="M219 815q31 162 145.5 258t276.5 96q159 0 241 -90t54 -241q-21 -120 -98.5 -205t-184.5 -115q-26 -7 -42.5 -16t-27.5 -26.5t-15.5 -30t-14.5 -44.5l-16 -57h-240l4 41q27 140 85 219t177 123q74 28 97.5 50t29.5 63q6 33 -21 57.5t-73 24.5q-50 0 -86.5 -28.5
t-48.5 -72.5h-234zM231 125q10 63 62.5 104t114.5 41q64 0 100.5 -40.5t26.5 -104.5q-10 -62 -62.5 -103.5t-116.5 -41.5q-61 0 -98 41.5t-27 103.5z" />
    <glyph glyph-name="A.sc" 
d="M14 0l635 1159h275l225 -1159h-272l-54 270h-387l-149 -270h-273zM559 496h219l-45 372z" />
    <glyph glyph-name="B.sc" horiz-adv-x="1126" 
d="M160 0l205 1159h466q159 0 237 -87.5t50 -237.5q-28 -152 -182 -213q65 -21 104.5 -67.5t51 -96.5t2.5 -99q-27 -151 -147 -254.5t-288 -103.5h-499zM457 229h227q54 0 91.5 40.5t47.5 95.5q8 49 -16 88t-80 39h-223zM541 709h184q45 0 80.5 30.5t42.5 79.5q8 51 -13 81
t-71 30h-182z" />
    <glyph glyph-name="C.sc" horiz-adv-x="1226" 
d="M190 571q29 164 129.5 301t249.5 217t312 80q152 0 265 -68t177 -186l-236 -143q-38 73 -101.5 113.5t-147.5 40.5q-138 0 -249.5 -103t-137.5 -252q-27 -144 48.5 -246t213.5 -102q86 0 167.5 43.5t141.5 118.5l182 -145q-98 -121 -239.5 -190.5t-296.5 -69.5
q-163 0 -283 79.5t-171.5 215t-23.5 296.5z" />
    <glyph glyph-name="D.sc" horiz-adv-x="1236" 
d="M160 0l205 1159h454q99 0 178.5 -29t132 -81t85 -125t37.5 -161t-11 -188q-46 -254 -214 -414.5t-413 -160.5h-454zM457 236h196q127 0 215.5 98t114.5 241q14 96 0.5 173.5t-67.5 126.5t-140 49h-196z" />
    <glyph glyph-name="E.sc" horiz-adv-x="1021" 
d="M160 0l205 1159h739l-41 -229h-483l-45 -246h423l-38 -225h-424l-41 -230h497l-39 -229h-753z" />
    <glyph glyph-name="F.sc" horiz-adv-x="954" 
d="M160 0l205 1159h731l-41 -229h-473l-45 -246h374l-39 -227h-374l-80 -457h-258z" />
    <glyph glyph-name="G.sc" horiz-adv-x="1312" 
d="M190 571q29 164 132 301t254 217t315 80q131 0 236.5 -51.5t168.5 -142.5l-215 -162h-8q-36 53 -95 84t-130 31q-141 0 -257 -104.5t-142 -252.5q-26 -144 53 -249t219 -105q97 0 190 50.5t111 131.5h-307l37 211h604q-55 -315 -235.5 -472.5t-442.5 -157.5
q-164 0 -286.5 79.5t-176 215t-25.5 296.5z" />
    <glyph glyph-name="H.sc" horiz-adv-x="1228" 
d="M160 0l205 1159h256l-84 -467h393l84 467h260l-205 -1159h-260l80 461h-393l-80 -461h-256z" />
    <glyph glyph-name="I.sc" horiz-adv-x="575" 
d="M160 0l205 1159h256l-205 -1159h-256z" />
    <glyph glyph-name="J.sc" horiz-adv-x="577" 
d="M-203 -362l64 233q59 -21 145 -21q64 0 102.5 42.5t49.5 109.5l207 1157h258l-207 -1157q-15 -84 -48.5 -153t-86.5 -124.5t-133.5 -86.5t-180.5 -31q-61 0 -170 31z" />
    <glyph glyph-name="K.sc" horiz-adv-x="1081" 
d="M160 0l205 1159h260l-64 -358l326 358h303l-541 -573l441 -586h-336l-269 379l-65 -379h-260z" />
    <glyph glyph-name="L.sc" horiz-adv-x="876" 
d="M160 0l205 1159h258l-166 -930h428l-39 -229h-686z" />
    <glyph glyph-name="M.sc" horiz-adv-x="1581" 
d="M96 0l346 1159h213l209 -729l469 729h217l-65 -1159h-258l39 668l-355 -537h-196l-164 537l-197 -668h-258z" />
    <glyph glyph-name="N.sc" horiz-adv-x="1191" 
d="M160 0l205 1159h233l262 -663l119 663h258l-205 -1159h-227l-273 674l-116 -674h-256z" />
    <glyph glyph-name="O.sc" horiz-adv-x="1355" 
d="M190 571q22 122 87.5 233t158 191t209.5 127t238 47q163 0 284.5 -80t174.5 -217t24 -301q-28 -161 -130 -296.5t-252.5 -215t-313.5 -79.5q-161 0 -281.5 79.5t-173.5 215t-25 296.5zM446 571q-25 -139 53.5 -237t215.5 -98q139 0 254.5 98.5t140.5 236.5
q25 141 -55 241.5t-219 100.5q-138 0 -251.5 -100.5t-138.5 -241.5z" />
    <glyph glyph-name="P.sc" horiz-adv-x="1083" 
d="M160 0l205 1159h477q77 0 138 -21.5t98 -58.5t60.5 -86t26 -104t-5.5 -113q-13 -75 -48.5 -141.5t-90.5 -120.5t-136 -85.5t-177 -31.5h-220l-69 -397h-258zM526 623h207q64 0 110 47t56 106t-16 106.5t-86 47.5h-215z" />
    <glyph glyph-name="Q.sc" horiz-adv-x="1366" 
d="M190 571q29 164 132 301t254 217t315 80q165 0 287.5 -80t175.5 -217t24 -301q-26 -145 -113.5 -270t-217.5 -209l77 -184l-204 -113l-89 203q-73 -18 -153 -18q-164 0 -286.5 79.5t-176 215t-25.5 296.5zM449 571q-22 -122 34.5 -214t165.5 -117q43 -11 86 -11l-41 90
l-24 58l204 110l78 -180q61 48 108 119t60 145q26 148 -53.5 251.5t-218.5 103.5q-141 0 -257 -103.5t-142 -251.5z" />
    <glyph glyph-name="R.sc" horiz-adv-x="1126" 
d="M160 0l205 1159h477q76 0 137 -21.5t98.5 -58.5t62 -86t27 -104t-5.5 -113q-23 -129 -114 -231.5t-234 -136.5l217 -408h-313l-187 397h-43l-69 -397h-258zM526 623h199q65 0 110.5 47t55.5 106t-16 106.5t-87 47.5h-206z" />
    <glyph glyph-name="S.sc" horiz-adv-x="1024" 
d="M154 346h258q-6 -59 29 -97t110 -38q72 0 122 30t60 83q7 43 -13.5 72t-96.5 50l-134 41q-280 88 -237 334q29 156 160 253t301 97q174 0 266.5 -98t62.5 -266h-256q11 59 -18.5 94t-95.5 35q-62 0 -109.5 -30.5t-54.5 -76.5q-11 -77 98 -112l131 -41q72 -21 124.5 -54
t79.5 -69t42.5 -77t14.5 -78.5t-5 -73.5q-15 -85 -63.5 -152.5t-117 -108.5t-146 -62t-156.5 -21q-189 0 -287 102.5t-69 263.5z" />
    <glyph glyph-name="T.sc" horiz-adv-x="964" 
d="M207 926l41 233h878l-41 -233h-307l-164 -926h-262l164 926h-309z" />
    <glyph glyph-name="U.sc" horiz-adv-x="1196" 
d="M219 412l133 747h262l-133 -747q-13 -82 34.5 -135.5t123.5 -53.5q77 0 143.5 53.5t79.5 135.5l133 747h258l-133 -747q-23 -128 -103 -228t-191 -152t-232 -52q-90 0 -166.5 31t-129 85.5t-74.5 137t-5 178.5z" />
    <glyph glyph-name="V.sc" horiz-adv-x="1034" 
d="M254 1159h268l68 -727l330 727h270l-559 -1159h-228z" />
    <glyph glyph-name="W.sc" horiz-adv-x="1554" 
d="M233 1159h279l92 -702l242 540h211l51 -538l346 700h279l-600 -1159h-201l-53 582l-256 -582h-203z" />
    <glyph glyph-name="X.sc" horiz-adv-x="1173" 
d="M33 0l508 618l-269 541h312l145 -336l272 336h308l-463 -541l297 -618h-305l-181 406l-319 -406h-305z" />
    <glyph glyph-name="Y.sc" horiz-adv-x="1177" 
d="M213 1159h307l197 -422l348 422h311l-567 -637l-90 -522h-262l90 524z" />
    <glyph glyph-name="Z.sc" horiz-adv-x="1056" 
d="M96 0l33 195l651 737h-497l41 227h831l-35 -192l-653 -738h522l-39 -229h-854z" />
    <glyph glyph-name="Scaron.sc" horiz-adv-x="1024" 
d="M154 346h258q-6 -59 29 -97t110 -38q72 0 122 30t60 83q7 43 -13.5 72t-96.5 50l-134 41q-280 86 -237 334q29 156 160 253t301 97q174 0 266.5 -98t62.5 -266h-256q11 59 -18.5 94t-95.5 35q-62 0 -109.5 -30.5t-54.5 -76.5q-11 -77 98 -112l131 -41q72 -21 124.5 -54
t79.5 -69t42.5 -77t14.5 -78.5t-5 -73.5q-15 -85 -63.5 -152.5t-117 -108.5t-146 -62t-156.5 -21q-189 0 -287 102.5t-69 263.5zM479 1556h183l100 -145l160 145h178l-240 -290h-242z" />
    <glyph glyph-name="OE.sc" horiz-adv-x="1875" 
d="M190 571q22 122 88 233t159 191t210.5 127t239.5 47q199 0 311 -120l21 110h739l-41 -227h-481l-45 -248h419l-38 -225h-420l-41 -230h495l-39 -229h-753l16 98q-169 -118 -356 -118q-162 0 -283.5 79.5t-175 215t-25.5 296.5zM449 571q-25 -139 53 -237t217 -98
q138 0 253 98.5t140 236.5q25 140 -55 241t-217 101q-139 0 -252.5 -100t-138.5 -242z" />
    <glyph glyph-name="Ydieresis.sc" horiz-adv-x="1177" 
d="M213 1159h307l197 -422l348 422h311l-567 -637l-90 -522h-262l90 524zM569 1440q9 51 52 85t96 34t82 -34t20 -85q-10 -54 -51 -87.5t-94 -33.5q-54 0 -84.5 34t-20.5 87zM864 1440q9 51 52 85t96 34t82 -34t20 -85q-10 -54 -51 -87.5t-94 -33.5q-54 0 -84.5 34t-20.5 87
z" />
    <glyph glyph-name="exclamdown.sc" horiz-adv-x="587" 
d="M160 0l178 817h199l-111 -817h-266zM326 1034q12 63 62 104.5t112 41.5q63 0 100 -42t25 -104t-63 -102.5t-113 -40.5q-63 0 -99 40.5t-24 102.5z" />
    <glyph glyph-name="questiondown.sc" horiz-adv-x="880" 
d="M141 311q21 120 99.5 205t185.5 115q50 14 67.5 37.5t32.5 79.5l17 57h239l-6 -41q-24 -139 -82.5 -218t-179.5 -124q-74 -28 -96.5 -50t-28.5 -63q-6 -33 21 -57.5t73 -24.5q50 0 88 28.5t50 72.5h233l6 6q-28 -162 -144 -258t-278 -96q-159 0 -241 90t-56 241z
M545 1024q10 62 63 103.5t117 41.5q61 0 97 -41.5t26 -103.5q-10 -63 -62 -104t-114 -41q-64 0 -100.5 40.5t-26.5 104.5z" />
    <glyph glyph-name="Agrave.sc" 
d="M14 0l635 1159h275l225 -1159h-272l-54 270h-387l-149 -270h-273zM553 1559h248l139 -291h-182zM559 496h219l-45 372z" />
    <glyph glyph-name="Aacute.sc" 
d="M14 0l635 1159h275l225 -1159h-272l-54 270h-387l-149 -270h-273zM559 496h219l-45 372zM678 1268l244 291h245l-307 -291h-182z" />
    <glyph glyph-name="Acircumflex.sc" 
d="M14 0l635 1159h275l225 -1159h-272l-54 270h-387l-149 -270h-273zM496 1274l239 293h240l139 -293h-180l-105 143l-153 -143h-180zM559 496h219l-45 372z" />
    <glyph glyph-name="Atilde.sc" 
d="M14 0l635 1159h275l225 -1159h-272l-54 270h-387l-149 -270h-273zM559 496h219l-45 372zM563 1309q27 116 89 171.5t126 55.5q26 0 48 -17t42.5 -34t42.5 -17q5 0 13.5 5.5t20 22t16.5 40.5h137q-13 -62 -38.5 -108t-56 -70.5t-60 -35.5t-58.5 -11t-68 33.5t-65 33.5
q-11 0 -27 -17.5t-23 -51.5h-139z" />
    <glyph glyph-name="Adieresis.sc" 
d="M14 0l635 1159h275l225 -1159h-272l-54 270h-387l-149 -270h-273zM539 1440q9 50 52.5 84.5t96.5 34.5t82.5 -34t20.5 -85q-10 -54 -51.5 -87.5t-94.5 -33.5q-54 0 -85 34t-21 87zM559 496h219l-45 372zM834 1440q9 50 52.5 84.5t96.5 34.5t83 -34t21 -85
q-10 -53 -52 -87t-95 -34q-54 0 -85 34t-21 87z" />
    <glyph glyph-name="Aring.sc" 
d="M14 0l635 1159h275l225 -1159h-272l-54 270h-387l-149 -270h-273zM559 496h219l-45 372zM633 1475q17 90 87 150.5t157 60.5q88 0 138.5 -61t33.5 -150q-15 -87 -86.5 -147t-159.5 -60t-136.5 59.5t-33.5 147.5zM754 1475q-7 -36 14 -61t57 -25q37 0 67.5 24.5t37.5 61.5
t-15 63.5t-59 26.5q-35 0 -64.5 -26.5t-37.5 -63.5z" />
    <glyph glyph-name="AE.sc" horiz-adv-x="1630" 
d="M-6 0l938 1159h778l-41 -227h-481l-45 -248h422l-39 -225h-422l-41 -230h498l-39 -229h-756l45 262h-297l-211 -262h-309zM707 512h149l49 287z" />
    <glyph glyph-name="Ccedilla.sc" horiz-adv-x="1230" 
d="M193 575q29 164 129 301.5t248 217.5t311 80q153 0 267.5 -68t176.5 -186l-235 -144q-36 72 -100.5 113t-149.5 41q-138 0 -248.5 -103t-138.5 -252q-27 -144 48.5 -246t213.5 -102q87 0 169.5 43.5t141.5 118.5l182 -147q-89 -108 -211.5 -175.5t-259.5 -80.5
q6 -17 18.5 -49.5t14.5 -38.5q11 -32 2 -84q-12 -74 -75.5 -126.5t-139.5 -52.5q-75 0 -117.5 59t-21.5 161l137 -7q-6 -29 -6 -47q0 -20 16.5 -28t34.5 0q39 14 35 63l-29 150q-222 25 -338 192t-75 397z" />
    <glyph glyph-name="Egrave.sc" horiz-adv-x="1021" 
d="M160 0l205 1159h739l-41 -229h-483l-45 -246h423l-38 -225h-424l-41 -230h497l-39 -229h-753zM516 1559h248l141 -291h-182z" />
    <glyph glyph-name="Eacute.sc" horiz-adv-x="1021" 
d="M160 0l205 1159h739l-41 -229h-483l-45 -246h423l-38 -225h-424l-41 -230h497l-39 -229h-753zM596 1268l244 291h247l-309 -291h-182z" />
    <glyph glyph-name="Ecircumflex.sc" horiz-adv-x="1021" 
d="M160 0l205 1159h739l-41 -229h-483l-45 -246h423l-38 -225h-424l-41 -230h497l-39 -229h-753zM420 1274l237 293h242l139 -293h-180l-104 143l-156 -143h-178z" />
    <glyph glyph-name="Edieresis.sc" horiz-adv-x="1021" 
d="M160 0l205 1159h739l-41 -229h-483l-45 -246h423l-38 -225h-424l-41 -230h497l-39 -229h-753zM483 1440q9 51 52.5 85t97.5 34q51 0 81 -34t21 -85q-10 -53 -51.5 -87t-93.5 -34q-55 0 -86 34t-21 87zM778 1440q9 51 52.5 85t97.5 34q51 0 81 -34t21 -85
q-10 -53 -51.5 -87t-93.5 -34q-55 0 -86 34t-21 87z" />
    <glyph glyph-name="Igrave.sc" horiz-adv-x="575" 
d="M160 0l205 1159h256l-205 -1159h-256zM256 1559h246l141 -291h-182z" />
    <glyph glyph-name="Iacute.sc" horiz-adv-x="575" 
d="M160 0l205 1159h256l-205 -1159h-256zM375 1298l248 271h256l-316 -271h-188z" />
    <glyph glyph-name="Icircumflex.sc" horiz-adv-x="575" 
d="M160 0l205 1159h256l-205 -1159h-256zM205 1274l241 293h238l141 -293h-182l-104 143l-152 -143h-182z" />
    <glyph glyph-name="Idieresis.sc" horiz-adv-x="575" 
d="M160 0l205 1159h256l-205 -1159h-256zM264 1440q9 51 52.5 85t97.5 34q51 0 81 -34t21 -85q-10 -53 -51.5 -87t-93.5 -34q-55 0 -86 34t-21 87zM559 1440q9 51 52.5 85t97.5 34q51 0 81 -34t21 -85q-10 -53 -51.5 -87t-93.5 -34q-55 0 -86 34t-21 87z" />
    <glyph glyph-name="Eth.sc" horiz-adv-x="1255" 
d="M104 479l31 162h156l92 518h457q98 0 177.5 -29t131.5 -81t84.5 -125t37.5 -161t-11 -188q-46 -253 -213.5 -414t-411.5 -161h-457l82 479h-156zM475 236h199q127 0 214 97.5t113 241.5q26 148 -25.5 248.5t-178.5 100.5h-199l-49 -283h203l-31 -162h-203z" />
    <glyph glyph-name="Ntilde.sc" horiz-adv-x="1191" 
d="M160 0l205 1159h233l262 -663l119 663h258l-205 -1159h-227l-273 674l-116 -674h-256zM578 1309q27 116 89 171.5t126 55.5q31 0 69 -34t64 -34q5 0 13.5 5.5t19.5 22t16 40.5h137q-13 -62 -38.5 -108t-56 -70.5t-60 -35.5t-58.5 -11t-68 33.5t-65 33.5
q-11 0 -26.5 -17.5t-22.5 -51.5h-139z" />
    <glyph glyph-name="Ograve.sc" horiz-adv-x="1355" 
d="M190 571q22 122 87.5 233t158 191t209.5 127t238 47q163 0 284.5 -80t174.5 -217t24 -301q-28 -161 -130 -296.5t-252.5 -215t-313.5 -79.5q-161 0 -281.5 79.5t-173.5 215t-25 296.5zM446 571q-25 -139 53.5 -237t215.5 -98q139 0 254.5 98.5t140.5 236.5
q25 141 -55 241.5t-219 100.5q-138 0 -251.5 -100.5t-138.5 -241.5zM643 1559h246l141 -291h-180z" />
    <glyph glyph-name="Oacute.sc" horiz-adv-x="1355" 
d="M190 571q22 122 87.5 233t158 191t209.5 127t238 47q163 0 284.5 -80t174.5 -217t24 -301q-28 -161 -130 -296.5t-252.5 -215t-313.5 -79.5q-161 0 -281.5 79.5t-173.5 215t-25 296.5zM446 571q-25 -139 53.5 -237t215.5 -98q139 0 254.5 98.5t140.5 236.5
q25 141 -55 241.5t-219 100.5q-138 0 -251.5 -100.5t-138.5 -241.5zM780 1268l242 291h248l-309 -291h-181z" />
    <glyph glyph-name="Ocircumflex.sc" horiz-adv-x="1355" 
d="M190 571q22 122 87.5 233t158 191t209.5 127t238 47q163 0 284.5 -80t174.5 -217t24 -301q-28 -161 -130 -296.5t-252.5 -215t-313.5 -79.5q-161 0 -281.5 79.5t-173.5 215t-25 296.5zM446 571q-25 -139 53.5 -237t215.5 -98q139 0 254.5 98.5t140.5 236.5
q25 141 -55 241.5t-219 100.5q-138 0 -251.5 -100.5t-138.5 -241.5zM594 1274l240 293h239l139 -293h-180l-106 145l-152 -145h-180z" />
    <glyph glyph-name="Otilde.sc" horiz-adv-x="1355" 
d="M190 571q22 122 87.5 233t158 191t209.5 127t238 47q163 0 284.5 -80t174.5 -217t24 -301q-28 -161 -130 -296.5t-252.5 -215t-313.5 -79.5q-161 0 -281.5 79.5t-173.5 215t-25 296.5zM446 571q-25 -139 53.5 -237t215.5 -98q139 0 254.5 98.5t140.5 236.5
q25 141 -55 241.5t-219 100.5q-138 0 -251.5 -100.5t-138.5 -241.5zM659 1309q27 116 89 171.5t126 55.5q32 0 71 -34t65 -34q5 0 13 5.5t18.5 22t15.5 40.5h137q-13 -62 -38.5 -108t-56 -70.5t-60 -35.5t-58.5 -11t-68 33.5t-65 33.5q-10 0 -25.5 -17.5t-23.5 -51.5h-140z
" />
    <glyph glyph-name="Odieresis.sc" horiz-adv-x="1355" 
d="M190 571q22 122 87.5 233t158 191t209.5 127t238 47q163 0 284.5 -80t174.5 -217t24 -301q-28 -161 -130 -296.5t-252.5 -215t-313.5 -79.5q-161 0 -281.5 79.5t-173.5 215t-25 296.5zM446 571q-25 -139 53.5 -237t215.5 -98q139 0 254.5 98.5t140.5 236.5
q25 141 -55 241.5t-219 100.5q-138 0 -251.5 -100.5t-138.5 -241.5zM657 1440q9 51 52.5 85t97.5 34q51 0 81 -34t21 -85q-10 -53 -51.5 -87t-93.5 -34q-55 0 -86 34t-21 87zM952 1440q9 51 52.5 85t97.5 34q53 0 82 -34t20 -85q-10 -54 -51 -87.5t-94 -33.5q-55 0 -86 34
t-21 87z" />
    <glyph glyph-name="Oslash.sc" horiz-adv-x="1353" 
d="M98 53l158 137q-105 166 -68 381q21 122 86.5 233t158 191t210 127t238.5 47q212 0 350 -135l153 137l70 -86l-158 -135q106 -167 68 -379q-28 -161 -129.5 -296.5t-251.5 -215t-313 -79.5q-203 0 -340 124l-160 -137zM444 571q-18 -109 23 -196l549 477q-74 61 -180 61
q-138 0 -252.5 -100.5t-139.5 -241.5zM539 289q68 -53 174 -53q139 0 254.5 98.5t140.5 236.5q17 107 -25 193z" />
    <glyph glyph-name="Ugrave.sc" horiz-adv-x="1196" 
d="M219 412l133 747h262l-133 -747q-15 -82 33.5 -135.5t124.5 -53.5t142 53.5t81 135.5l133 747h258l-133 -747q-23 -128 -103 -228t-191 -152t-232 -52q-90 0 -166.5 31t-129 85.5t-74.5 137t-5 178.5zM580 1559h247l138 -291h-181z" />
    <glyph glyph-name="Uacute.sc" horiz-adv-x="1196" 
d="M219 412l133 747h262l-133 -747q-15 -82 33.5 -135.5t124.5 -53.5t142 53.5t81 135.5l133 747h258l-133 -747q-23 -128 -103 -228t-191 -152t-232 -52q-90 0 -166.5 31t-129 85.5t-74.5 137t-5 178.5zM676 1268l244 291h245l-307 -291h-182z" />
    <glyph glyph-name="Ucircumflex.sc" horiz-adv-x="1196" 
d="M219 412l133 747h262l-133 -747q-15 -82 33.5 -135.5t124.5 -53.5t142 53.5t81 135.5l133 747h258l-133 -747q-23 -128 -103 -228t-191 -152t-232 -52q-90 0 -166.5 31t-129 85.5t-74.5 137t-5 178.5zM512 1274l242 293h239l140 -293h-181l-106 145l-152 -145h-182z" />
    <glyph glyph-name="Udieresis.sc" horiz-adv-x="1196" 
d="M219 412l133 747h262l-133 -747q-15 -82 33.5 -135.5t124.5 -53.5t142 53.5t81 135.5l133 747h258l-133 -747q-23 -128 -103 -228t-191 -152t-232 -52q-90 0 -166.5 31t-129 85.5t-74.5 137t-5 178.5zM578 1440q9 50 52.5 84.5t96.5 34.5t82 -34t20 -85
q-10 -54 -51 -87.5t-94 -33.5q-54 0 -85 34t-21 87zM872 1440q9 50 53 84.5t97 34.5t83 -34t21 -85q-10 -53 -52 -87t-95 -34q-54 0 -85.5 34t-21.5 87z" />
    <glyph glyph-name="Yacute.sc" horiz-adv-x="1177" 
d="M213 1159h307l197 -422l348 422h311l-567 -637l-90 -522h-262l90 524zM674 1268l241 291h248l-309 -291h-180z" />
    <glyph glyph-name="Thorn.sc" horiz-adv-x="1007" 
d="M160 0l205 1159h256l-35 -186h153q163 0 252.5 -104t59.5 -275q-20 -113 -86 -201t-160.5 -135t-200.5 -47h-153l-35 -211h-256zM489 428h144q53 0 102 44t62 114q13 76 -18.5 122t-84.5 46h-145z" />
    <glyph glyph-name="Amacron.sc" 
d="M14 0l635 1159h275l225 -1159h-272l-54 270h-387l-149 -270h-273zM559 496h219l-45 372zM582 1350l28 153h475l-28 -153h-475z" />
    <glyph glyph-name="Abreve.sc" 
d="M14 0l635 1159h275l225 -1159h-272l-54 270h-387l-149 -270h-273zM559 496h219l-45 372zM618 1528h154q-16 -86 62 -86q73 0 88 86h157q-17 -103 -93 -165.5t-179 -62.5q-111 0 -158 67t-31 161z" />
    <glyph glyph-name="Cacute.sc" horiz-adv-x="1226" 
d="M190 571q29 164 129.5 301t249.5 217t312 80q152 0 265 -68t177 -186l-236 -143q-38 73 -101.5 113.5t-147.5 40.5q-138 0 -249.5 -103t-137.5 -252q-27 -144 48.5 -246t213.5 -102q86 0 167.5 43.5t141.5 118.5l182 -145q-98 -121 -239.5 -190.5t-296.5 -69.5
q-163 0 -283 79.5t-171.5 215t-23.5 296.5zM791 1268l243 291h248l-309 -291h-182z" />
    <glyph glyph-name="Ccircumflex.sc" horiz-adv-x="1226" 
d="M190 571q29 164 129.5 301t249.5 217t312 80q152 0 265 -68t177 -186l-236 -143q-38 73 -101.5 113.5t-147.5 40.5q-138 0 -249.5 -103t-137.5 -252q-27 -144 48.5 -246t213.5 -102q86 0 167.5 43.5t141.5 118.5l182 -145q-98 -121 -239.5 -190.5t-296.5 -69.5
q-163 0 -283 79.5t-171.5 215t-23.5 296.5zM584 1274l239 293h240l139 -293h-180l-104 143l-154 -143h-180z" />
    <glyph glyph-name="Cdotaccent.sc" horiz-adv-x="1226" 
d="M190 571q29 164 129.5 301t249.5 217t312 80q152 0 265 -68t177 -186l-236 -143q-38 73 -101.5 113.5t-147.5 40.5q-138 0 -249.5 -103t-137.5 -252q-27 -144 48.5 -246t213.5 -102q86 0 167.5 43.5t141.5 118.5l182 -145q-98 -121 -239.5 -190.5t-296.5 -69.5
q-163 0 -283 79.5t-171.5 215t-23.5 296.5zM788 1450q11 56 55.5 92.5t102.5 36.5q56 0 89.5 -37t23.5 -92q-10 -57 -56.5 -94t-103.5 -37q-59 0 -90 36.5t-21 94.5z" />
    <glyph glyph-name="Ccaron.sc" horiz-adv-x="1226" 
d="M190 571q29 164 129.5 301t249.5 217t312 80q152 0 265 -68t177 -186l-236 -143q-38 73 -101.5 113.5t-147.5 40.5q-138 0 -249.5 -103t-137.5 -252q-27 -144 48.5 -246t213.5 -102q86 0 167.5 43.5t141.5 118.5l182 -145q-98 -121 -239.5 -190.5t-296.5 -69.5
q-163 0 -283 79.5t-171.5 215t-23.5 296.5zM618 1556h183l100 -143l156 143h182l-244 -290h-237z" />
    <glyph glyph-name="Dcaron.sc" horiz-adv-x="1245" 
d="M160 0l207 1167h460q99 0 179 -29t132.5 -81.5t85.5 -125.5t38 -161.5t-11 -189.5q-22 -124 -76.5 -230t-134 -184t-188 -122t-231.5 -44h-461zM467 244h195q125 0 212 97t113 239q14 95 0.5 171t-67.5 124.5t-138 48.5h-194zM567 1556h181l102 -143q67 59 158 143h182
l-244 -290h-241z" />
    <glyph glyph-name="Aogonek.sc" 
d="M14 0l635 1159h275l225 -1159h-158l-84 -164q-18 -51 13 -63q18 -8 36 0t27 28q4 7 7 19t4 20l1 8l138 7q-14 -102 -77 -161t-138 -59q-76 0 -121 52.5t-33 126.5q8 47 31 84q7 11 37 51.5t40 56.5l-49 264h-387q-49 -84 -149 -270h-273zM559 496h221l-47 370z" />
    <glyph glyph-name="Emacron.sc" horiz-adv-x="1021" 
d="M160 0l205 1159h739l-41 -229h-483l-45 -246h423l-38 -225h-424l-41 -230h497l-39 -229h-753zM502 1350l28 153h476l-29 -153h-475z" />
    <glyph glyph-name="Ebreve.sc" horiz-adv-x="1021" 
d="M160 0l205 1159h739l-41 -229h-483l-45 -246h423l-38 -225h-424l-41 -230h497l-39 -229h-753zM541 1528h153q-16 -86 64 -86q37 0 58 24t28 62h157q-17 -103 -92.5 -165.5t-177.5 -62.5q-111 0 -158.5 67t-31.5 161z" />
    <glyph glyph-name="Edotaccent.sc" horiz-adv-x="1021" 
d="M160 0l205 1159h739l-41 -229h-483l-45 -246h423l-38 -225h-424l-41 -230h497l-39 -229h-753zM639 1450q11 56 56.5 92.5t103.5 36.5q56 0 88 -37t22 -92q-10 -58 -55.5 -94.5t-101.5 -36.5q-59 0 -91 36.5t-22 94.5z" />
    <glyph glyph-name="Ecaron.sc" horiz-adv-x="1021" 
d="M160 0l205 1159h739l-41 -229h-483l-45 -246h423l-38 -225h-424l-41 -230h497l-39 -229h-753zM469 1556h178l105 -143l155 143h180l-241 -290h-242z" />
    <glyph glyph-name="Gcircumflex.sc" horiz-adv-x="1312" 
d="M190 571q29 164 132 301t254 217t315 80q131 0 236.5 -51.5t168.5 -142.5l-215 -162q-90 115 -233 115q-141 0 -257 -104.5t-142 -252.5q-26 -144 53 -249t219 -105q97 0 190 50.5t111 131.5h-307l37 211h604q-55 -315 -235.5 -472.5t-442.5 -157.5q-164 0 -286.5 79.5
t-176 215t-25.5 296.5zM578 1274l241 293h238l141 -293h-182l-105 143l-151 -143h-182z" />
    <glyph glyph-name="Gbreve.sc" horiz-adv-x="1312" 
d="M190 571q29 164 132 301t254 217t315 80q131 0 236.5 -51.5t168.5 -142.5l-215 -162q-90 115 -233 115q-141 0 -257 -104.5t-142 -252.5q-26 -144 53 -249t219 -105q97 0 190 50.5t111 131.5h-307l37 211h604q-55 -315 -235.5 -472.5t-442.5 -157.5q-164 0 -286.5 79.5
t-176 215t-25.5 296.5zM700 1528h154q-13 -86 61 -86q38 0 60 24t29 62h157q-17 -103 -93 -165.5t-179 -62.5q-111 0 -158 67t-31 161z" />
    <glyph glyph-name="Eogonek.sc" horiz-adv-x="1021" 
d="M160 0l205 1159h739l-41 -229h-483l-45 -246h423l-38 -225h-424l-41 -230h497l-41 -225l-96 -168q-18 -51 12 -63q18 -8 36.5 0t27.5 28q4 7 7 19t4 20l1 8l137 7q-14 -102 -77 -161t-138 -59q-76 0 -120.5 52.5t-32.5 126.5q9 50 30 84l82 102h-624z" />
    <glyph glyph-name="Dcroat.sc" horiz-adv-x="1255" 
d="M104 479l31 162h156l92 518h457q98 0 177.5 -29t131.5 -81t84.5 -125t37.5 -161t-11 -188q-46 -253 -213.5 -414t-411.5 -161h-457l82 479h-156zM475 236h199q127 0 214 97.5t113 241.5q26 148 -25.5 248.5t-178.5 100.5h-199l-49 -283h203l-31 -162h-203z" />
    <glyph glyph-name="Gdotaccent.sc" horiz-adv-x="1312" 
d="M190 571q29 164 132 301t254 217t315 80q131 0 236.5 -51.5t168.5 -142.5l-215 -162h-8q-36 53 -95 84t-130 31q-141 0 -257 -104.5t-142 -252.5q-26 -144 53 -249t219 -105q97 0 190 50.5t111 131.5h-307l37 211h604q-55 -315 -235.5 -472.5t-442.5 -157.5
q-164 0 -286.5 79.5t-176 215t-25.5 296.5zM801 1450q11 56 55 92.5t102 36.5q56 0 89.5 -37t23.5 -92q-10 -57 -56.5 -94t-103.5 -37q-59 0 -89.5 36.5t-20.5 94.5z" />
    <glyph glyph-name="Hcircumflex.sc" horiz-adv-x="1228" 
d="M160 0l205 1159h256l-84 -467h393l84 467h260l-205 -1159h-260l80 461h-393l-80 -461h-256zM530 1274l240 293h240l139 -293h-180l-105 143l-153 -143h-181z" />
    <glyph glyph-name="Hbar.sc" horiz-adv-x="1251" 
d="M170 0l152 862h-119l24 133h119l29 164h258l-29 -164h393l29 164h260l-29 -164h121l-24 -133h-121l-152 -862h-260l80 461h-393l-80 -461h-258zM549 692h393l31 170h-393z" />
    <glyph glyph-name="Itilde.sc" horiz-adv-x="550" 
d="M156 -16l211 1192h231l-211 -1192h-231zM258 1309q27 116 89 171.5t126 55.5q31 0 69 -34t64 -34q5 0 13.5 5.5t19.5 22t16 40.5h138q-13 -62 -38.5 -108t-56 -70.5t-60 -35.5t-58.5 -11t-68.5 33.5t-65.5 33.5q-11 0 -26.5 -17.5t-22.5 -51.5h-139z" />
    <glyph glyph-name="Imacron.sc" horiz-adv-x="575" 
d="M160 0l205 1159h256l-205 -1159h-256zM289 1350l28 153h476l-29 -153h-475z" />
    <glyph glyph-name="Iogonek.sc" horiz-adv-x="575" 
d="M47 -186q7 41 31 84l80 110l207 1151h256l-205 -1159h-129l-94 -164q-22 -50 10 -63q18 -8 36 0t27 28l15 47l137 7q-14 -102 -77 -161t-138 -59q-76 0 -122 52.5t-34 126.5z" />
    <glyph glyph-name="IJ.sc" horiz-adv-x="1153" 
d="M160 0l205 1159h256l-205 -1159h-256zM369 -362l63 233q59 -21 150 -21q64 0 102 42.5t49 109.5l207 1157h258l-207 -1157q-15 -84 -48 -153t-86.5 -124.5t-134.5 -86.5t-183 -31q-61 0 -170 31z" />
    <glyph glyph-name="Jcircumflex.sc" horiz-adv-x="552" 
d="M-199 -354l58 207q50 -15 139 -15q66 0 106.5 46t53.5 118l204 1145h234l-205 -1145q-14 -81 -46 -148t-83.5 -121t-128.5 -84t-174 -30q-52 0 -158 27zM193 1274l239 293h240l141 -293h-182l-105 143l-153 -143h-180z" />
    <glyph glyph-name="Lacute.sc" horiz-adv-x="876" 
d="M160 0l205 1159h258l-166 -930h428l-39 -229h-686zM381 1268l240 291h249l-309 -291h-180z" />
    <glyph glyph-name="Lcaron.sc" horiz-adv-x="905" 
d="M160 0l205 1159h258l-166 -930h428l-39 -229h-686zM647 760q117 135 166 270q28 78 37 131h205q-38 -155 -113 -274.5t-151 -175.5z" />
    <glyph glyph-name="Ldot.sc" horiz-adv-x="878" 
d="M160 0l205 1159h258l-166 -930h428l-39 -229h-686zM625 520q9 49 51.5 83t95.5 34q51 0 80 -34t20 -83q-9 -53 -50 -87t-93 -34q-53 0 -83 34t-21 87z" />
    <glyph glyph-name="Nacute.sc" horiz-adv-x="1191" 
d="M160 0l205 1159h233l262 -663l119 663h258l-205 -1159h-227l-273 674l-116 -674h-256zM707 1268l243 291h246l-309 -291h-180z" />
    <glyph glyph-name="Ncaron.sc" horiz-adv-x="1191" 
d="M160 0l205 1159h233l262 -663l119 663h258l-205 -1159h-227l-273 674l-116 -674h-256zM549 1556h178l104 -143l156 143h180l-241 -290h-242z" />
    <glyph glyph-name="Omacron.sc" horiz-adv-x="1355" 
d="M190 571q22 122 87.5 233t158 191t209.5 127t238 47q163 0 284.5 -80t174.5 -217t24 -301q-28 -161 -130 -296.5t-252.5 -215t-313.5 -79.5q-161 0 -281.5 79.5t-173.5 215t-25 296.5zM446 571q-25 -139 53.5 -237t215.5 -98q139 0 254.5 98.5t140.5 236.5
q25 141 -55 241.5t-219 100.5q-138 0 -251.5 -100.5t-138.5 -241.5zM678 1350l27 153h475l-27 -153h-475z" />
    <glyph glyph-name="Obreve.sc" horiz-adv-x="1355" 
d="M190 571q22 122 87.5 233t158 191t209.5 127t238 47q163 0 284.5 -80t174.5 -217t24 -301q-28 -161 -130 -296.5t-252.5 -215t-313.5 -79.5q-161 0 -281.5 79.5t-173.5 215t-25 296.5zM446 571q-25 -139 53.5 -237t215.5 -98q139 0 254.5 98.5t140.5 236.5
q25 141 -55 241.5t-219 100.5q-138 0 -251.5 -100.5t-138.5 -241.5zM715 1528h153q-13 -86 62 -86q73 0 88 86h158q-17 -103 -93 -165.5t-180 -62.5q-110 0 -157 67t-31 161z" />
    <glyph glyph-name="Ohungarumlaut.sc" horiz-adv-x="1355" 
d="M190 571q22 122 87.5 233t158 191t209.5 127t238 47q163 0 284.5 -80t174.5 -217t24 -301q-28 -161 -130 -296.5t-252.5 -215t-313.5 -79.5q-161 0 -281.5 79.5t-173.5 215t-25 296.5zM446 571q-25 -139 53.5 -237t215.5 -98q139 0 254.5 98.5t140.5 236.5
q25 141 -55 241.5t-219 100.5q-138 0 -251.5 -100.5t-138.5 -241.5zM684 1266l244 290h202l-264 -290h-182zM930 1266l266 290h205l-281 -290h-190z" />
    <glyph glyph-name="Racute.sc" horiz-adv-x="1126" 
d="M160 0l205 1159h477q76 0 137 -21.5t98.5 -58.5t62 -86t27 -104t-5.5 -113q-23 -129 -114 -231.5t-234 -136.5l217 -408h-313l-187 397h-43l-69 -397h-258zM526 623h199q65 0 110.5 47t55.5 106t-16 106.5t-87 47.5h-206zM627 1268l243 291h248l-309 -291h-182z" />
    <glyph glyph-name="Rcaron.sc" horiz-adv-x="1126" 
d="M160 0l205 1159h477q76 0 137 -21.5t98.5 -58.5t62 -86t27 -104t-5.5 -113q-23 -129 -114 -231.5t-234 -136.5l217 -408h-313l-187 397h-43l-69 -397h-258zM518 1556h182l101 -143l157 143h183l-242 -290h-242zM526 623h199q65 0 110.5 47t55.5 106t-16 106.5t-87 47.5
h-206z" />
    <glyph glyph-name="Sacute.sc" horiz-adv-x="1024" 
d="M154 346h258q-6 -59 29 -97t110 -38q72 0 122 30t60 83q7 43 -13.5 72t-96.5 50l-134 41q-280 86 -237 334q29 156 160 253t301 97q174 0 266.5 -98t62.5 -266h-256q11 59 -18.5 94t-95.5 35q-62 0 -109.5 -30.5t-54.5 -76.5q-11 -77 98 -112l131 -41q72 -21 124.5 -54
t79.5 -69t42.5 -77t14.5 -78.5t-5 -73.5q-15 -85 -63.5 -152.5t-117 -108.5t-146 -62t-156.5 -21q-189 0 -287 102.5t-69 263.5zM616 1268l244 291h246l-307 -291h-183z" />
    <glyph glyph-name="Scircumflex.sc" horiz-adv-x="1024" 
d="M154 346h258q-6 -59 29 -97t110 -38q72 0 122 30t60 83q7 43 -13.5 72t-96.5 50l-134 41q-280 86 -237 334q29 156 160 253t301 97q174 0 266.5 -98t62.5 -266h-256q11 59 -18.5 94t-95.5 35q-62 0 -109.5 -30.5t-54.5 -76.5q-11 -77 98 -112l131 -41q72 -21 124.5 -54
t79.5 -69t42.5 -77t14.5 -78.5t-5 -73.5q-15 -85 -63.5 -152.5t-117 -108.5t-146 -62t-156.5 -21q-189 0 -287 102.5t-69 263.5zM432 1274l240 293h241l138 -293h-179l-106 143l-154 -143h-180z" />
    <glyph glyph-name="Scedilla.sc" horiz-adv-x="1021" 
d="M158 348h256q-9 -58 26.5 -97.5t110.5 -39.5q72 0 122 30t60 83q8 41 -14 70.5t-96 51.5l-129 39q-283 90 -240 336q27 153 159 250.5t300 97.5q173 0 265 -97.5t62 -264.5h-254q11 57 -20 92t-98 35q-61 0 -107 -30t-55 -77q-16 -77 100 -110l129 -43q71 -24 124 -57.5
t80 -69.5t43 -76t15 -76.5t-6 -70.5q-49 -249 -399 -351q19 -48 29 -75q11 -32 2 -84q-12 -74 -75.5 -126.5t-139.5 -52.5q-75 0 -118 59t-22 161l138 -7q-7 -29 -7 -47q0 -20 17 -28t35 0q38 16 34 63l-28 148q-164 15 -245.5 114.5t-53.5 249.5z" />
    <glyph glyph-name="Utilde.sc" horiz-adv-x="1196" 
d="M219 412l133 747h262l-133 -747q-15 -82 33.5 -135.5t124.5 -53.5t142 53.5t81 135.5l133 747h258l-133 -747q-23 -128 -103 -228t-191 -152t-232 -52q-90 0 -166.5 31t-129 85.5t-74.5 137t-5 178.5zM582 1309q19 80 58 133.5t78 73.5t79 20q31 0 70 -34t65 -34
q5 0 13.5 5.5t18.5 22t15 40.5h137q-12 -62 -37.5 -108t-56.5 -70.5t-60.5 -35.5t-58.5 -11t-67 33.5t-64 33.5q-11 0 -27 -17.5t-24 -51.5h-139z" />
    <glyph glyph-name="Umacron.sc" horiz-adv-x="1196" 
d="M219 412l133 747h262l-133 -747q-15 -82 33.5 -135.5t124.5 -53.5t142 53.5t81 135.5l133 747h258l-133 -747q-23 -128 -103 -228t-191 -152t-232 -52q-90 0 -166.5 31t-129 85.5t-74.5 137t-5 178.5zM600 1350l27 153h477l-27 -153h-477z" />
    <glyph glyph-name="Ubreve.sc" horiz-adv-x="1196" 
d="M219 412l133 747h262l-133 -747q-15 -82 33.5 -135.5t124.5 -53.5t142 53.5t81 135.5l133 747h258l-133 -747q-23 -128 -103 -228t-191 -152t-232 -52q-90 0 -166.5 31t-129 85.5t-74.5 137t-5 178.5zM637 1528h154q-13 -86 59 -86q39 0 62 24.5t28 61.5h158
q-17 -103 -94.5 -165.5t-180.5 -62.5q-110 0 -156 67t-30 161z" />
    <glyph glyph-name="Uring.sc" horiz-adv-x="1196" 
d="M219 412l133 747h262l-133 -747q-15 -82 33.5 -135.5t124.5 -53.5t142 53.5t81 135.5l133 747h258l-133 -747q-23 -128 -103 -228t-191 -152t-232 -52q-90 0 -166.5 31t-129 85.5t-74.5 137t-5 178.5zM651 1475q17 90 86.5 150.5t155.5 60.5q90 0 140.5 -61t33.5 -150
q-15 -88 -87 -147.5t-161 -59.5q-86 0 -134.5 59.5t-33.5 147.5zM772 1475q-7 -36 14 -61t56 -25q38 0 67 24.5t37 61.5t-14 63.5t-60 26.5q-34 0 -63 -26.5t-37 -63.5z" />
    <glyph glyph-name="Uhungarumlaut.sc" horiz-adv-x="1196" 
d="M219 412l133 747h262l-133 -747q-15 -82 33.5 -135.5t124.5 -53.5t142 53.5t81 135.5l133 747h258l-133 -747q-23 -128 -103 -228t-191 -152t-232 -52q-90 0 -166.5 31t-129 85.5t-74.5 137t-5 178.5zM561 1266l244 290h203l-265 -290h-182zM807 1266l266 290h205
l-281 -290h-190z" />
    <glyph glyph-name="Uogonek.sc" horiz-adv-x="1196" 
d="M219 416l133 743h262l-133 -743q-15 -82 33.5 -135.5t124.5 -53.5t142 53.5t81 135.5l133 743h258l-133 -743q-33 -179 -168.5 -296.5t-306.5 -133.5l-84 -150q-22 -50 10 -63q18 -8 36.5 0t27.5 28l14 47l137 7q-14 -102 -77 -161t-138 -59q-76 0 -121.5 52.5
t-33.5 126.5q8 43 30 84l68 94q-156 27 -240.5 141.5t-54.5 282.5z" />
    <glyph glyph-name="Wcircumflex.sc" horiz-adv-x="1554" 
d="M233 1159h279l92 -702l242 540h211l51 -538l346 700h279l-600 -1159h-201l-53 582l-256 -582h-203zM694 1274l240 293h240l141 -293h-182l-105 143l-156 -143h-178z" />
    <glyph glyph-name="Ycircumflex.sc" horiz-adv-x="1177" 
d="M213 1159h307l197 -422l348 422h311l-567 -637l-90 -522h-262l90 524zM504 1274l239 293h240l139 -293h-180l-104 143l-154 -143h-180z" />
    <glyph glyph-name="Tcaron.sc" horiz-adv-x="1003" 
d="M205 926l41 233h921l-41 -233h-325l-164 -926h-270l163 926h-325zM469 1556h178l105 -143l155 143h180l-241 -290h-242z" />
    <glyph glyph-name="Tbar.sc" horiz-adv-x="964" 
d="M207 924l41 231h874l-41 -231h-307l-49 -271h158l-27 -153h-158l-86 -500h-258l86 500h-159l26 153h160l49 271h-309z" />
    <glyph glyph-name="Zacute.sc" horiz-adv-x="1056" 
d="M96 0l33 195l651 737h-497l41 227h831l-35 -192l-653 -738h522l-39 -229h-854zM618 1268l244 291h248l-311 -291h-181z" />
    <glyph glyph-name="Zdotaccent.sc" horiz-adv-x="1056" 
d="M96 0l33 195l651 737h-497l41 227h831l-35 -192l-653 -738h522l-39 -229h-854zM672 1450q10 55 55 92t102 37t90 -37t23 -92q-10 -58 -56 -94.5t-104 -36.5t-89 36.5t-21 94.5z" />
    <glyph glyph-name="Wgrave.sc" horiz-adv-x="1554" 
d="M233 1159h279l92 -702l242 540h211l51 -538l346 700h279l-600 -1159h-201l-53 582l-256 -582h-203zM733 1559h246l141 -291h-182z" />
    <glyph glyph-name="Wacute.sc" horiz-adv-x="1554" 
d="M233 1159h279l92 -702l242 540h211l51 -538l346 700h279l-600 -1159h-201l-53 582l-256 -582h-203zM879 1268l243 291h248l-309 -291h-182z" />
    <glyph glyph-name="Wdieresis.sc" horiz-adv-x="1554" 
d="M233 1159h279l92 -702l242 540h211l51 -538l346 700h279l-600 -1159h-201l-53 582l-256 -582h-203zM758 1440q9 51 52 85t97 34q52 0 83 -34.5t22 -84.5q-10 -53 -53 -87t-95 -34q-55 0 -85.5 34t-20.5 87zM1053 1440q9 51 52 85t97 34q52 0 83 -34.5t22 -84.5
q-10 -53 -53 -87t-95 -34q-55 0 -85.5 34t-20.5 87z" />
    <glyph glyph-name="Aringacute.sc" 
d="M14 0l635 1159h275l225 -1159h-272l-54 270h-387l-149 -270h-273zM559 496h219l-45 372zM631 1458q13 69 66.5 126t119.5 79l170 203h244l-244 -230q38 -29 56 -76t8 -102q-15 -86 -89 -146.5t-163 -60.5q-100 0 -150 88q-30 55 -18 119zM754 1458q-6 -35 14 -60.5
t55 -25.5q38 0 68.5 25t36.5 61q7 39 -14 64.5t-60 25.5q-36 0 -64.5 -25.5t-35.5 -64.5z" />
    <glyph glyph-name="AEacute.sc" horiz-adv-x="1630" 
d="M-6 0l938 1159h778l-41 -227h-481l-45 -248h422l-39 -225h-422l-41 -230h498l-39 -229h-756l45 262h-297l-211 -262h-309zM707 512h149l49 287zM997 1268l242 291h248l-311 -291h-179z" />
    <glyph glyph-name="Oslashacute.sc" horiz-adv-x="1353" 
d="M98 53l158 137q-105 166 -68 381q21 122 86.5 233t158 191t210 127t238.5 47q212 0 350 -135l153 137l70 -86l-158 -135q106 -167 68 -379q-28 -161 -129.5 -296.5t-251.5 -215t-313 -79.5q-203 0 -340 124l-160 -137zM444 571q-18 -109 23 -196l549 477q-74 61 -180 61
q-138 0 -252.5 -100.5t-139.5 -241.5zM539 289q68 -53 174 -53q139 0 254.5 98.5t140.5 236.5q17 107 -25 193zM811 1268l240 291h247l-309 -291h-178z" />
    <glyph glyph-name="Ibreve.sc" horiz-adv-x="575" 
d="M160 0l205 1159h256l-205 -1159h-256zM319 1528h154q-16 -86 62 -86q73 0 88 86h157q-17 -103 -93 -165.5t-179 -62.5q-111 0 -158 67t-31 161z" />
    <glyph glyph-name="Eng.sc" horiz-adv-x="1193" 
d="M160 0l205 1159h235l256 -682l123 682h260l-203 -1130q-14 -84 -47 -155t-86.5 -128t-134 -89t-180.5 -32q-16 0 -32.5 1.5t-27 2.5t-30.5 5.5t-25.5 6t-30 8t-28.5 7.5l71 250q72 -25 152 -25q54 3 91 46t52 104l-245 643l-117 -674h-258z" />
    <glyph glyph-name="Ygrave.sc" horiz-adv-x="1177" 
d="M213 1159h307l197 -422l348 422h311l-567 -637l-90 -522h-262l90 524zM561 1559h248l139 -291h-182z" />
    <glyph glyph-name="Gcommaaccent.sc" horiz-adv-x="1312" 
d="M190 571q29 164 132 301t254 217t315 80q131 0 236.5 -51.5t168.5 -142.5l-215 -162q-90 115 -233 115q-141 0 -257 -104.5t-142 -252.5q-26 -144 53 -249t219 -105q97 0 190 50.5t111 131.5h-307l37 211h604q-55 -315 -235.5 -472.5t-442.5 -157.5q-164 0 -286.5 79.5
t-176 215t-25.5 296.5zM457 -397q56 59 80.5 127t46.5 190h184q-42 -247 -217 -375z" />
    <glyph glyph-name="Kcommaaccent.sc" horiz-adv-x="1081" 
d="M160 0l205 1159h260l-64 -358l326 358h303l-541 -573l441 -586h-336l-269 379l-65 -379h-260zM354 -397q56 59 80.5 127t46.5 190h185q-45 -249 -217 -375z" />
    <glyph glyph-name="Lcommaaccent.sc" horiz-adv-x="876" 
d="M160 0l205 1159h258l-166 -930h428l-39 -229h-686zM250 -397q56 59 80.5 127t46.5 190h184q-45 -249 -217 -375z" />
    <glyph glyph-name="Ncommaaccent.sc" horiz-adv-x="1191" 
d="M160 0l205 1159h233l264 -653l117 653h258l-205 -1159h-227l-275 664l-114 -664h-256zM377 -397q56 59 80.5 127t46.5 190h184q-45 -249 -217 -375z" />
    <glyph glyph-name="Rcommaaccent.sc" horiz-adv-x="1126" 
d="M160 0l205 1159h477q76 0 137 -21.5t98.5 -58.5t62 -86t27 -104t-5.5 -113q-23 -129 -114 -231.5t-234 -136.5l217 -408h-313l-187 397h-43l-69 -397h-258zM354 -397q56 59 80.5 127t46.5 190h185q-45 -249 -217 -375zM526 623h199q65 0 110.5 47t55.5 106t-16 106.5
t-87 47.5h-206z" />
    <glyph glyph-name="Tcommaaccent.sc" horiz-adv-x="964" 
d="M207 926l41 233h878l-41 -233h-307l-164 -926h-262l164 926h-309zM242 -397q56 59 80.5 127t46.5 190h184q-45 -249 -217 -375z" />
    <glyph glyph-name="Scommaaccent.sc" horiz-adv-x="1024" 
d="M154 346h258q-6 -59 29 -97t110 -38q72 0 122 30t60 83q7 43 -13.5 72t-96.5 50l-134 41q-280 86 -237 334q29 156 160 253t301 97q174 0 266.5 -98t62.5 -266h-256q11 59 -18.5 94t-95.5 35q-62 0 -109.5 -30.5t-54.5 -76.5q-11 -77 98 -112l131 -41q72 -21 124.5 -54
t79.5 -69t42.5 -77t14.5 -78.5t-5 -73.5q-15 -85 -63.5 -152.5t-117 -108.5t-146 -62t-156.5 -21q-189 0 -287 102.5t-69 263.5zM287 -397q55 59 79 127t46 190h184q-42 -247 -217 -375z" />
    <glyph glyph-name="Idotaccent.sc" horiz-adv-x="575" 
d="M160 0l205 1159h256l-205 -1159h-256zM387 1432q12 62 63 102.5t113 40.5q63 0 99 -40.5t24 -102.5q-12 -63 -62 -104.5t-112 -41.5q-63 0 -100 42t-25 104z" />
    <glyph glyph-name="zero.numr" horiz-adv-x="718" 
d="M236 952q16 89 42.5 158.5t69 127t106.5 88t146 30.5t135 -31.5t73 -86t22.5 -128.5t-15.5 -158q-16 -89 -41 -157t-66 -125.5t-104 -88t-145 -30.5q-294 0 -223 401zM399 952q-37 -241 84 -241q126 0 168 241q42 244 -80 244q-126 0 -172 -244z" />
    <glyph glyph-name="one.numr" horiz-adv-x="442" 
d="M229 1067l27 143l324 142l-142 -789h-164l101 559z" />
    <glyph glyph-name="two.numr" horiz-adv-x="651" 
d="M160 563l14 88l387 379q49 49 57 90q6 34 -15.5 56t-67.5 22q-44 0 -79.5 -30t-49.5 -78l-150 26q40 112 123 176t192 64q105 0 168 -67t45 -169q-16 -103 -116 -196q-66 -61 -217 -205h241l-26 -156h-506z" />
    <glyph glyph-name="three.numr" horiz-adv-x="649" 
d="M158 717l155 71q12 -30 39.5 -50t63.5 -25q42 -3 80.5 23t48.5 59q11 32 4 59q-11 50 -92 47h-82l26 141h82q17 0 31 4.5t23 12t16 15.5t11 17.5t6 16.5l4 14l1 6q5 26 -12 51t-55 25q-58 0 -90 -45l-117 82q43 56 114.5 87.5t147.5 27.5q99 -6 153.5 -69.5t37.5 -147.5
q-9 -48 -43.5 -88t-83.5 -66q59 -23 86.5 -85t9.5 -126q-28 -100 -129 -164.5t-217 -56.5q-79 6 -138 51t-81 113z" />
    <glyph glyph-name="four.numr" horiz-adv-x="706" 
d="M147 737l476 604h172l-84 -464h98l-25 -140h-98l-31 -174h-166l31 174h-373zM397 877h148l45 243z" />
    <glyph glyph-name="five.numr" horiz-adv-x="698" 
d="M172 709q1 0 78 44t78 44q17 -36 51 -59t70 -23q68 0 118 36t58 87q10 62 -23 94.5t-96 32.5q-46 0 -98 -19t-89 -65l-81 47l137 413h454l-28 -151h-324l-45 -129q55 41 152 41q110 0 168 -69.5t36 -194.5q-22 -127 -122.5 -207t-245.5 -80q-80 0 -147.5 44t-100.5 114z
" />
    <glyph glyph-name="six.numr" horiz-adv-x="694" 
d="M217 821q14 159 62 279q106 264 346 256q51 -2 88.5 -13.5t71.5 -45.5t51 -91l-164 -65q-19 61 -82 61q-79 0 -124.5 -66.5t-57.5 -158.5q15 28 64.5 58t107.5 30q44 0 82.5 -16.5t67.5 -47.5t41 -82.5t1 -115.5q-20 -113 -110 -182.5t-216 -69.5q-112 0 -175.5 73.5
t-53.5 196.5zM397 811q-8 -43 16.5 -72.5t67.5 -29.5t79.5 30t43.5 72q8 43 -16.5 73.5t-67.5 30.5t-79.5 -30.5t-43.5 -73.5z" />
    <glyph glyph-name="seven.numr" horiz-adv-x="643" 
d="M199 563l387 627h-330l27 151h585l-483 -778h-186z" />
    <glyph glyph-name="eight.numr" horiz-adv-x="708" 
d="M203 819q20 124 145 191q-47 57 -33 129q17 91 98 154t179 63q99 0 159.5 -63.5t43.5 -153.5q-15 -81 -82 -129q100 -70 80 -191q-20 -110 -120.5 -189t-221.5 -79q-122 0 -195 79t-53 189zM367 823q-9 -49 24 -83.5t86 -34.5t98 34.5t54 83.5q8 45 -21 80t-76 35h-26
q-49 0 -90 -35t-49 -80zM473 1135q-5 -32 11.5 -54t54.5 -22t63.5 22.5t30.5 53.5t-13 52t-55 21t-62 -21t-30 -52z" />
    <glyph glyph-name="nine.numr" horiz-adv-x="694" 
d="M193 702l163 66q20 -63 80 -63q54 0 95 36t61 84.5t29 106.5q-16 -28 -64.5 -58t-107.5 -30t-107 27.5t-74.5 89t-11.5 145.5q20 112 110 181t216 69q112 0 176.5 -74t54.5 -197q-7 -64 -19.5 -124t-33.5 -123t-53.5 -114t-74 -92t-100.5 -62t-129 -19q-79 3 -132.5 36
t-77.5 115zM424 1096q-7 -42 19 -72.5t69 -30.5t77 30t42 73t-16.5 73.5t-67.5 30.5t-79.5 -30.5t-43.5 -73.5z" />
    <glyph glyph-name="zero.dnom" horiz-adv-x="718" 
d="M137 389q70 404 365 404q82 0 134.5 -31.5t72.5 -86t22.5 -128.5t-14.5 -158q-16 -88 -41.5 -156.5t-67 -126t-105 -88t-145.5 -30.5q-292 0 -221 401zM301 389q-11 -67 -10.5 -121t24.5 -87.5t70 -33.5q122 0 168 242q23 100 4 172t-86 72q-124 0 -170 -244z" />
    <glyph glyph-name="one.dnom" horiz-adv-x="442" 
d="M131 504l27 143l321 141l-139 -788h-164l100 559z" />
    <glyph glyph-name="two.dnom" horiz-adv-x="651" 
d="M61 0l15 88l387 379q47 47 55 90q6 34 -16 56t-68 22q-44 0 -79.5 -30.5t-49.5 -78.5l-147 27q39 111 122.5 175.5t192.5 64.5q105 0 168 -67t43 -169q-20 -106 -117 -197q-174 -164 -215 -204h242l-27 -156h-506z" />
    <glyph glyph-name="three.dnom" horiz-adv-x="651" 
d="M59 154l158 71q12 -31 39.5 -50.5t62.5 -24.5q43 -3 82 22.5t48 58.5q12 25 4 60q-11 50 -93 47h-81l22 141h82q23 0 41.5 8.5t28 20t16 25t8.5 21.5t2 11q2 28 -14 52t-53 24q-54 0 -95 -45q1 1 -27 21.5t-56 40.5l-29 20q43 56 114 87.5t148 27.5q99 -6 153 -70
t35 -148q-18 -98 -127 -153q59 -23 87 -85t10 -126q-26 -99 -128 -164t-218 -57q-79 6 -138.5 51t-81.5 113z" />
    <glyph glyph-name="four.dnom" horiz-adv-x="704" 
d="M49 174l473 604h172l-82 -465h99l-25 -139h-98l-31 -174h-166l31 174h-373zM299 313h147l43 244z" />
    <glyph glyph-name="five.dnom" horiz-adv-x="696" 
d="M72 145q1 0 77.5 44t77.5 44q18 -36 50.5 -58.5t68.5 -22.5q68 0 119 36t59 86q10 62 -24 94.5t-97 32.5q-45 0 -97 -19t-89 -65l-84 48l139 413h455l-27 -151h-323l-47 -129q55 41 151 41q110 0 169.5 -70t37.5 -195q-22 -126 -123.5 -206t-247.5 -80q-80 0 -146 43.5
t-99 113.5z" />
    <glyph glyph-name="six.dnom" horiz-adv-x="694" 
d="M117 258q14 162 61 279q106 264 348 256q79 -3 132.5 -35.5t76.5 -114.5l-164 -65q-19 61 -79 61q-79 0 -126 -66.5t-59 -158.5q15 28 65.5 58t108.5 30q59 0 106.5 -27.5t73.5 -88.5t11 -146q-20 -113 -110 -182.5t-216 -69.5q-112 0 -176.5 73.5t-52.5 196.5zM297 248
q-7 -43 18 -73t68 -30t78 30t43 73q7 43 -18 73.5t-68 30.5t-78 -30.5t-43 -73.5z" />
    <glyph glyph-name="seven.dnom" horiz-adv-x="645" 
d="M100 0l387 627h-329l24 151h586l-481 -778h-187z" />
    <glyph glyph-name="eight.dnom" horiz-adv-x="708" 
d="M102 256q20 121 148 190q-49 53 -35 129q17 91 99 154.5t180 63.5q99 0 158 -64t42 -154q-15 -80 -80 -129q98 -68 78 -190q-20 -110 -120.5 -189t-221.5 -79q-122 0 -195 79t-53 189zM266 260q-9 -49 24.5 -84t86.5 -35t97.5 35t53.5 84q8 45 -21.5 80t-76.5 35h-27
q-49 0 -89 -35t-48 -80zM375 571q-5 -32 11 -53.5t54 -21.5t64 22t31 53t-14 52.5t-56 21.5t-61 -21.5t-29 -52.5z" />
    <glyph glyph-name="nine.dnom" horiz-adv-x="696" 
d="M92 139l166 66q17 -64 78 -64q79 0 125.5 68t58.5 160q-13 -28 -62 -58t-108 -30q-95 0 -156 69t-38 193q20 112 110.5 181t216.5 69q112 0 178 -74.5t54 -196.5q-7 -64 -19.5 -124t-34 -123t-54 -114t-74.5 -92t-101 -62t-129 -19q-78 3 -132.5 36t-78.5 115zM324 532
q-7 -42 19 -72t69 -30t76.5 29.5t41.5 72.5t-15.5 74t-65.5 31q-43 0 -80.5 -31t-44.5 -74z" />
    <glyph glyph-name="l.alt1" horiz-adv-x="647" 
d="M195 416l188 1061h287l-191 -1067q-5 -36 -4.5 -69.5t26 -58t74.5 -24.5h105l-43 -258h-154q-131 0 -204.5 51.5t-89 144t5.5 220.5z" />
    <glyph glyph-name="a.alt1" horiz-adv-x="1103" 
d="M113 289q22 125 135 202.5t325 77.5q48 0 114 -12.5t104 -38.5q19 98 -18 155.5t-140 57.5q-141 0 -252 -94l-123 160q46 51 102 87.5t100 54t100 27t83 10.5t68 1q92 0 166 -24t128 -72t75.5 -128.5t2.5 -185.5l-98 -567h-283l15 96q-61 -59 -140.5 -87.5t-156.5 -28.5
q-163 0 -246.5 85.5t-60.5 223.5zM403 291q-8 -40 19.5 -68t85.5 -28q28 0 58.5 5.5t67.5 19.5t70.5 44t53.5 72q-51 55 -174 55q-84 0 -128 -29t-53 -71z" />
    <glyph glyph-name="y.alt1" horiz-adv-x="1042" 
d="M-39 -453l43 248q78 -14 105 -14q28 0 52 8.5t40 19.5t35.5 36t30 41.5t32.5 52.5l86 143l-205 874h301l117 -538l305 538h303l-669 -1126q-105 -169 -202 -238t-247 -69q-68 0 -127 24z" />
    <glyph glyph-name="lslash.alt1" horiz-adv-x="706" 
d="M98 471l37 195l176 98l125 713h287l-96 -535l217 123l-33 -195l-217 -122l-59 -338q-5 -36 -4.5 -69.5t26 -58t74.5 -24.5h104l-43 -258h-153q-194 0 -261 107.5t-30 308.5l28 153z" />
    <glyph glyph-name="lacute.alt1" horiz-adv-x="647" 
d="M195 416l188 1061h287l-191 -1067q-5 -36 -4.5 -69.5t26 -58t74.5 -24.5h105l-43 -258h-154q-131 0 -204.5 51.5t-89 144t5.5 220.5zM401 1579l287 344h283l-365 -344h-205z" />
    <glyph glyph-name="lcommaaccent.alt1" horiz-adv-x="647" 
d="M139 -516q83 95 125 180.5t66 220.5h239q-81 -314 -303 -473zM193 416l188 1061h287l-191 -1067q-27 -152 96 -152h105l-41 -258h-154q-194 0 -260 107.5t-30 308.5z" />
    <glyph glyph-name="lcaron.alt1" horiz-adv-x="657" 
d="M195 416l188 1061h287l-191 -1067q-5 -36 -4.5 -69.5t26 -58t74.5 -24.5h105l-43 -258h-154q-131 0 -204.5 51.5t-89 144t5.5 220.5zM645 1001q87 96 150.5 219.5t87.5 256.5h239q-50 -187 -138.5 -329.5t-178.5 -205.5z" />
    <glyph glyph-name="aacute.alt1" horiz-adv-x="1103" 
d="M113 289q22 125 135 202.5t325 77.5q48 0 114 -12.5t104 -38.5q19 98 -18 155.5t-140 57.5q-141 0 -252 -94l-123 160q46 51 102 87.5t100 54t100 27t83 10.5t68 1q92 0 166 -24t128 -72t75.5 -128.5t2.5 -185.5l-98 -567h-283l15 96q-61 -59 -140.5 -87.5t-156.5 -28.5
q-163 0 -246.5 85.5t-60.5 223.5zM403 291q-8 -40 19.5 -68t85.5 -28q28 0 58.5 5.5t67.5 19.5t70.5 44t53.5 72q-51 55 -174 55q-84 0 -128 -29t-53 -71zM575 1104l289 344h283l-367 -344h-205z" />
    <glyph glyph-name="agrave.alt1" horiz-adv-x="1103" 
d="M113 289q22 125 135 202.5t325 77.5q48 0 114 -12.5t104 -38.5q19 98 -18 155.5t-140 57.5q-141 0 -252 -94l-123 160q46 51 102 87.5t100 54t100 27t83 10.5t68 1q92 0 166 -24t128 -72t75.5 -128.5t2.5 -185.5l-98 -567h-283l15 96q-61 -59 -140.5 -87.5t-156.5 -28.5
q-163 0 -246.5 85.5t-60.5 223.5zM399 1448h283l162 -344h-205zM403 291q-8 -40 19.5 -68t85.5 -28q28 0 58.5 5.5t67.5 19.5t70.5 44t53.5 72q-51 55 -174 55q-84 0 -128 -29t-53 -71z" />
    <glyph glyph-name="acircumflex.alt1" horiz-adv-x="1103" 
d="M113 289q22 125 135 202.5t325 77.5q48 0 114 -12.5t104 -38.5q19 98 -18 155.5t-140 57.5q-141 0 -252 -94l-123 160q46 51 102 87.5t100 54t100 27t83 10.5t68 1q92 0 166 -24t128 -72t75.5 -128.5t2.5 -185.5l-98 -567h-283l15 96q-61 -59 -140.5 -87.5t-156.5 -28.5
q-163 0 -246.5 85.5t-60.5 223.5zM365 1112l284 344h283l164 -344h-205l-129 182l-193 -182h-204zM403 291q-8 -40 19.5 -68t85.5 -28q28 0 58.5 5.5t67.5 19.5t70.5 44t53.5 72q-51 55 -174 55q-84 0 -128 -29t-53 -71z" />
    <glyph glyph-name="adieresis.alt1" horiz-adv-x="1103" 
d="M113 289q22 125 135 202.5t325 77.5q48 0 114 -12.5t104 -38.5q19 98 -18 155.5t-140 57.5q-141 0 -252 -94l-123 160q46 51 102 87.5t100 54t100 27t83 10.5t68 1q92 0 166 -24t128 -72t75.5 -128.5t2.5 -185.5l-98 -567h-283l15 96q-61 -59 -140.5 -87.5t-156.5 -28.5
q-163 0 -246.5 85.5t-60.5 223.5zM403 291q-8 -40 19.5 -68t85.5 -28q28 0 58.5 5.5t67.5 19.5t70.5 44t53.5 72q-51 55 -174 55q-84 0 -128 -29t-53 -71zM440 1307q10 58 62 98.5t114 40.5q60 0 94.5 -40.5t24.5 -98.5q-10 -60 -60 -101t-110 -41q-62 0 -98.5 41t-26.5 101
zM803 1307q10 58 62 98.5t114 40.5q60 0 94.5 -40.5t24.5 -98.5q-10 -60 -60 -101t-110 -41q-62 0 -98.5 41t-26.5 101z" />
    <glyph glyph-name="atilde.alt1" horiz-adv-x="1103" 
d="M113 289q22 125 135 202.5t325 77.5q48 0 114 -12.5t104 -38.5q19 98 -18 155.5t-140 57.5q-141 0 -252 -94l-123 160q46 51 102 87.5t100 54t100 27t83 10.5t68 1q92 0 166 -24t128 -72t75.5 -128.5t2.5 -185.5l-98 -567h-283l15 96q-61 -59 -140.5 -87.5t-156.5 -28.5
q-163 0 -246.5 85.5t-60.5 223.5zM403 291q-8 -40 19.5 -68t85.5 -28q28 0 58.5 5.5t67.5 19.5t70.5 44t53.5 72q-51 55 -174 55q-84 0 -128 -29t-53 -71zM420 1153q31 137 104 201.5t150 64.5q29 0 55 -13t41 -29t33.5 -29t34.5 -13t37 20.5t30 63.5h154
q-12 -58 -34.5 -104.5t-49 -75t-57 -48t-58 -27t-53.5 -7.5q-34 0 -65.5 21t-56.5 42t-44 21q-15 0 -37 -22t-31 -66h-153z" />
    <glyph glyph-name="aring.alt1" horiz-adv-x="1103" 
d="M113 289q22 125 135 202.5t325 77.5q48 0 114 -12.5t104 -38.5q19 98 -18 155.5t-140 57.5q-141 0 -252 -94l-123 160q46 51 102 87.5t100 54t100 27t83 10.5t68 1q92 0 166 -24t128 -72t75.5 -128.5t2.5 -185.5l-98 -567h-283l15 96q-61 -59 -140.5 -87.5t-156.5 -28.5
q-163 0 -246.5 85.5t-60.5 223.5zM403 291q-8 -40 19.5 -68t85.5 -28q28 0 58.5 5.5t67.5 19.5t70.5 44t53.5 72q-51 55 -174 55q-84 0 -128 -29t-53 -71zM526 1350q19 106 103.5 179t187.5 73q104 0 164 -73t41 -179q-19 -103 -105 -174.5t-190 -71.5q-103 0 -161.5 71.5
t-39.5 174.5zM659 1350q-8 -47 19 -80t74 -33q50 0 90 33t47 80q9 51 -18.5 84.5t-77.5 33.5q-48 0 -86.5 -33.5t-47.5 -84.5z" />
    <glyph glyph-name="amacron.alt1" horiz-adv-x="1103" 
d="M113 289q22 125 135 202.5t325 77.5q48 0 114 -12.5t104 -38.5q19 98 -18 155.5t-140 57.5q-141 0 -252 -94l-123 160q46 51 102 87.5t100 54t100 27t83 10.5t68 1q92 0 166 -24t128 -72t75.5 -128.5t2.5 -185.5l-98 -567h-283l15 96q-61 -59 -140.5 -87.5t-156.5 -28.5
q-163 0 -246.5 85.5t-60.5 223.5zM403 291q-8 -40 19.5 -68t85.5 -28q28 0 58.5 5.5t67.5 19.5t70.5 44t53.5 72q-51 55 -174 55q-84 0 -128 -29t-53 -71zM471 1202l31 174h569l-31 -174h-569z" />
    <glyph glyph-name="abreve.alt1" horiz-adv-x="1101" 
d="M111 289q22 125 135 202.5t325 77.5q48 0 113.5 -12.5t103.5 -38.5q19 98 -17.5 155.5t-139.5 57.5q-141 0 -252 -94l-123 160q46 51 102 87.5t100 54t100 27t83 10.5t68 1q92 0 166 -24t128 -72t75.5 -128.5t2.5 -185.5l-98 -567h-283l15 96q-61 -59 -140.5 -87.5
t-156.5 -28.5q-163 0 -246.5 85.5t-60.5 223.5zM401 291q-8 -40 19.5 -68t85.5 -28q28 0 58.5 5.5t67.5 19.5t70.5 44t53.5 72q-51 55 -174 55q-84 0 -128 -29t-53 -71zM518 1411h174q-19 -108 82 -108q51 0 80 30.5t37 77.5h178q-22 -121 -112 -194.5t-212 -73.5
q-90 0 -146.5 39.5t-74.5 98.5t-6 130z" />
    <glyph glyph-name="aogonek.alt1" horiz-adv-x="1103" 
d="M113 289q22 125 135 202.5t325 77.5q48 0 114 -12.5t104 -38.5q19 98 -18 155.5t-140 57.5q-141 0 -252 -94l-123 160q46 51 102 87.5t100 54t100 27t83 10.5t68 1q92 0 166 -24t128 -72t75.5 -128.5t2.5 -185.5l-98 -567h-139l-115 -207q-14 -26 -10.5 -51t24.5 -35
q24 -6 50 4.5t39 34.5q4 12 7 25t4 21l1 7l160 8q-7 -48 -15 -70.5t-24 -49.5q-37 -62 -97.5 -97.5t-121.5 -35.5q-89 0 -142.5 62t-38.5 148q1 3 3.5 17t4 20.5t5.5 18.5t10 23t14 22l98 135l15 96q-61 -59 -140.5 -87.5t-156.5 -28.5q-163 0 -246.5 85.5t-60.5 223.5z
M403 291q-8 -40 19.5 -68t85.5 -28q28 0 58.5 5.5t67.5 19.5t70.5 44t53.5 72q-51 55 -174 55q-84 0 -128 -29t-53 -71z" />
    <glyph glyph-name="yacute.alt1" horiz-adv-x="1042" 
d="M-39 -453l43 248q78 -14 105 -14q28 0 52 8.5t40 19.5t35.5 36t30 41.5t32.5 52.5l86 143l-205 874h301l117 -538l305 538h303l-669 -1126q-105 -169 -202 -238t-247 -69q-68 0 -127 24zM594 1104l287 344h282l-364 -344h-205z" />
    <glyph glyph-name="ydieresis.alt1" horiz-adv-x="1042" 
d="M-39 -453l43 248q78 -14 105 -14q28 0 52 8.5t40 19.5t35.5 36t30 41.5t32.5 52.5l86 143l-205 874h301l117 -538l305 538h303l-669 -1126q-105 -169 -202 -238t-247 -69q-68 0 -127 24zM434 1307q10 58 62 98.5t114 40.5q60 0 94.5 -40.5t24.5 -98.5q-10 -60 -60 -101
t-110 -41q-62 0 -98.5 41t-26.5 101zM797 1307q10 58 62 98.5t114 40.5q60 0 94.5 -40.5t24.5 -98.5q-10 -60 -60 -101t-110 -41q-62 0 -98.5 41t-26.5 101z" />
    <glyph glyph-name="ae.alt1" horiz-adv-x="1779" 
d="M111 289q11 60 43.5 111t89 93t147 65.5t205.5 23.5q41 0 98.5 -14.5t96.5 -41.5q16 89 -20.5 147t-125.5 58q-148 0 -246 -96l-143 162q46 51 102 87.5t100 54t100 27t83 10.5t68 1q104 0 187.5 -31.5t131.5 -93.5q162 125 367 125q208 0 323 -137t76 -359
q-6 -39 -18 -88h-701q-4 -82 51.5 -125t155.5 -43q69 0 135 28.5t105 82.5l184 -137q-83 -113 -215 -166t-274 -53q-33 0 -53 1t-61.5 4.5t-71.5 13.5t-64.5 26t-60 43.5t-40.5 64.5q-128 -153 -448 -153q-163 0 -246.5 85.5t-60.5 223.5zM403 301q-7 -31 21 -57.5t86 -26.5
q27 0 55.5 4t70 15.5t74.5 39.5t48 70q-37 25 -97.5 38t-97.5 13q-140 0 -160 -96zM1112 578h414q5 79 -48 114t-126 35q-33 0 -65 -6.5t-66.5 -22t-63 -46.5t-45.5 -74z" />
    <glyph glyph-name="aeacute.alt1" horiz-adv-x="1777" 
d="M111 289q11 60 43.5 111t89 93t147 65.5t205.5 23.5q41 0 98.5 -14.5t96.5 -41.5q16 89 -20.5 147t-125.5 58q-148 0 -246 -96l-143 162q46 51 102 87.5t100 54t100 27t83 10.5t68 1q104 0 187.5 -31.5t131.5 -93.5q162 125 367 125q208 0 323 -137t76 -359
q-6 -39 -18 -88h-701q-4 -82 51.5 -125t155.5 -43q69 0 135 28.5t105 82.5l184 -137q-83 -113 -215 -166t-274 -53q-33 0 -53 1t-61.5 4.5t-71.5 13.5t-64.5 26t-60 43.5t-40.5 64.5q-128 -153 -448 -153q-163 0 -246.5 85.5t-60.5 223.5zM403 301q-7 -31 21 -57.5t86 -26.5
q27 0 55.5 4t70 15.5t74.5 39.5t48 70q-37 25 -97.5 38t-97.5 13q-140 0 -160 -96zM975 1104l289 344h282l-366 -344h-205zM1112 578h414q5 79 -48 114t-126 35q-33 0 -65 -6.5t-66.5 -22t-63 -46.5t-45.5 -74z" />
    <glyph glyph-name="ycircumflex.alt1" horiz-adv-x="1042" 
d="M-39 -453l43 248q78 -14 105 -14q28 0 52 8.5t40 19.5t35.5 36t30 41.5t32.5 52.5l86 143l-205 874h301l117 -538l305 538h303l-669 -1126q-105 -169 -202 -238t-247 -69q-68 0 -127 24zM358 1112l285 344h283l164 -344h-205l-131 182l-191 -182h-205z" />
    <glyph glyph-name="ldot.alt1" horiz-adv-x="827" 
d="M195 416l188 1061h287l-191 -1067q-5 -36 -4.5 -69.5t26 -58t74.5 -24.5h105l-43 -258h-154q-131 0 -204.5 51.5t-89 144t5.5 220.5zM604 629q12 64 65 107.5t119 43.5q67 0 105.5 -43.5t26.5 -107.5q-12 -67 -66 -110.5t-121 -43.5t-104 43.5t-25 110.5z" />
    <glyph glyph-name="t.alt1" horiz-adv-x="800" 
d="M172 731l41 225h174l37 201l303 92l-53 -293h196l-41 -225h-196l-60 -342q-27 -131 101 -131h84l-43 -258h-133q-196 0 -262 98.5t-31 296.5l57 336h-174z" />
    </font>
</defs>
</svg>
