<?xml version="1.0" standalone="no"?>
<!DOCTYPE svg PUBLIC "-//W3C//DTD SVG 1.1//EN" "http://www.w3.org/Graphics/SVG/1.1/DTD/svg11.dtd" >
<svg xmlns="http://www.w3.org/2000/svg" xmlns:xlink="http://www.w3.org/1999/xlink" version="1.1">
<metadata>
Created by FontForge 20170731 at Wed Apr 25 19:10:19 2012
 By Aleksey,,,
(C) 2012. Olivier Gourvat - Mostardesign Studio. wf-rip
</metadata>
<defs>
<font id="SofiaPro-MediumItalic" horiz-adv-x="1187" >
  <font-face 
    font-family="Sofia Pro Medium"
    font-weight="500"
    font-style="italic"
    font-stretch="normal"
    units-per-em="2048"
    panose-1="2 11 0 0 0 0 0 0 0 0"
    ascent="1536"
    descent="-512"
    x-height="956"
    cap-height="1411"
    bbox="-358 -530 2396 2245"
    underline-thickness="102"
    underline-position="-306"
    slope="-12"
    unicode-range="U+0020-FB04"
  />
<missing-glyph horiz-adv-x="1300" 
d="M164 0l239 1362h973l-239 -1362h-973zM530 268q-7 -38 16 -63t62 -25q37 0 69.5 25t39.5 63q7 37 -16.5 62.5t-61.5 25.5q-39 0 -70.5 -25t-38.5 -63zM532 883h127q15 76 67.5 123t117.5 47t106 -42t29 -108q-10 -58 -66 -102q-46 -36 -75 -43q-96 -28 -154.5 -79
t-75.5 -147l-14 -77h127l12 77q7 45 37 67t84 36q93 28 162.5 98.5t87.5 169.5q22 123 -49.5 200t-190.5 77q-117 0 -212.5 -82t-119.5 -215z" />
    <glyph glyph-name="uniFB00" unicode="ff" horiz-adv-x="1470" 
d="M188 782l31 174h180l17 88q38 203 154 318t307 115h104l-35 -203h-104q-50 0 -88 -18t-61.5 -52t-38 -72t-23.5 -88l-17 -88h545l17 88q38 204 153.5 318.5t306.5 114.5h105l-35 -203h-104q-50 0 -88 -18t-61.5 -52t-38 -72t-23.5 -88l-17 -88h215l-30 -174h-216
l-137 -782h-213l137 782h-546l-138 -782h-213l138 782h-183z" />
    <glyph glyph-name="uniFB01" unicode="fi" horiz-adv-x="1310" 
d="M188 782l31 174h180l17 88q38 203 154 318t307 115h104l-35 -203h-104q-50 0 -88 -18t-61.5 -52t-38 -72t-23.5 -88l-17 -88h510h209l-168 -956h-209l138 782h-510l-138 -782h-213l138 782h-183zM1155 1343q9 56 58.5 95t107.5 39t91 -38.5t24 -95.5q-9 -56 -57 -94.5
t-107 -38.5q-58 0 -92 38t-25 95z" />
    <glyph glyph-name="uniFB02" unicode="fl" horiz-adv-x="1288" 
d="M188 782l31 174h180l17 88q38 203 154 318t307 115h524l-260 -1477h-211l225 1274h-313q-50 0 -88 -18t-61.5 -52t-38 -72t-23.5 -88l-17 -88h215l-30 -174h-215l-138 -782h-213l138 782h-183z" />
    <glyph glyph-name="uniFB03" unicode="ffi" horiz-adv-x="2070" 
d="M188 782l31 174h180l17 88q38 203 154 318t307 115h104l-35 -203h-104q-50 0 -88 -18t-61.5 -52t-38 -72t-23.5 -88l-17 -88h545l17 88q38 204 153.5 318.5t306.5 114.5h105l-35 -203h-104q-50 0 -88 -18t-61.5 -52t-38 -72t-23.5 -88l-17 -88h719l-168 -956h-209
l137 782h-510l-137 -782h-213l137 782h-546l-138 -782h-213l138 782h-183zM1915 1343q9 56 58.5 95t107.5 39t90.5 -38.5t23.5 -95.5q-9 -56 -56.5 -94.5t-106.5 -38.5q-57 0 -91.5 38t-25.5 95z" />
    <glyph glyph-name="uniFB04" unicode="ffl" horiz-adv-x="2048" 
d="M188 782l31 174h180l17 88q38 203 154 318t307 115h104l-35 -203h-104q-50 0 -88 -18t-61.5 -52t-38 -72t-23.5 -88l-17 -88h545l17 88q38 204 153.5 318.5t306.5 114.5h525l-260 -1477h-211l225 1274h-313q-50 0 -88 -18t-61.5 -52t-38 -72t-23.5 -88l-17 -88h215
l-30 -174h-216l-137 -782h-213l137 782h-546l-138 -782h-213l138 782h-183z" />
    <glyph glyph-name="f_f_j" unicode="ffj" horiz-adv-x="2056" 
d="M188 782l31 174h180l17 88q38 203 154 318t307 115h104l-35 -203h-104q-50 0 -88 -18t-61.5 -52t-38 -72t-23.5 -88l-17 -88h545l17 88q38 204 153.5 318.5t306.5 114.5h105l-35 -203h-104q-50 0 -88 -18t-61.5 -52t-38 -72t-23.5 -88l-17 -88h703l-181 -1017
q-73 -412 -419 -412h-140l35 197h115q165 0 196 215l152 843h-492l-137 -782h-213l137 782h-546l-138 -782h-213l138 782h-183zM1898 1343q9 56 58.5 95t107.5 39q59 0 92.5 -38.5t24.5 -95.5q-9 -56 -58 -94.5t-108 -38.5q-57 0 -91.5 38t-25.5 95z" />
    <glyph glyph-name="f_j" unicode="fj" horiz-adv-x="1296" 
d="M188 782l31 174h180l17 88q38 203 154 318t307 115h104l-35 -203h-104q-50 0 -88 -18t-61.5 -52t-38 -72t-23.5 -88l-17 -88h703l-180 -1017q-73 -412 -420 -412h-139l34 197h115q166 0 197 215l151 843h-491l-138 -782h-213l138 782h-183zM1139 1343q9 56 58.5 95
t107.5 39t91.5 -38.5t24.5 -95.5q-9 -56 -58 -94.5t-108 -38.5q-57 0 -91 38t-25 95z" />
    <glyph glyph-name=".notdef" horiz-adv-x="1300" 
d="M164 0l239 1362h973l-239 -1362h-973zM530 268q-7 -38 16 -63t62 -25q37 0 69.5 25t39.5 63q7 37 -16.5 62.5t-61.5 25.5q-39 0 -70.5 -25t-38.5 -63zM532 883h127q15 76 67.5 123t117.5 47t106 -42t29 -108q-10 -58 -66 -102q-46 -36 -75 -43q-96 -28 -154.5 -79
t-75.5 -147l-14 -77h127l12 77q7 45 37 67t84 36q93 28 162.5 98.5t87.5 169.5q22 123 -49.5 200t-190.5 77q-117 0 -212.5 -82t-119.5 -215z" />
    <glyph glyph-name=".null" horiz-adv-x="0" 
 />
    <glyph glyph-name="nonmarkingreturn" horiz-adv-x="682" 
 />
    <glyph glyph-name="space" unicode=" " horiz-adv-x="520" 
 />
    <glyph glyph-name="exclam" unicode="!" horiz-adv-x="548" 
d="M150 119q10 59 59 99t108 40q61 0 97 -40t26 -99t-59.5 -98t-110.5 -39q-60 0 -95 39t-25 98zM254 379l152 1032h227l-211 -1032h-168z" />
    <glyph glyph-name="quotedbl" unicode="&#x22;" horiz-adv-x="729" 
d="M301 817l92 594h160l-117 -594h-135zM580 817l92 594h159l-116 -594h-135z" />
    <glyph glyph-name="numbersign" unicode="#" horiz-adv-x="1380" 
d="M135 344l78 178h219l160 355h-215l82 178h217l162 356h190l-162 -356h217l162 356h191l-162 -356h219l-84 -178h-221l-162 -355h221l-80 -178h-221l-162 -344h-186l158 344h-215l-162 -344h-186l159 344h-217zM621 522h215l161 355h-217z" />
    <glyph glyph-name="dollar" unicode="$" horiz-adv-x="1155" 
d="M162 410h217q-13 -91 53 -161.5t186 -70.5q117 0 195.5 55t106.5 138q39 175 -183 229l-172 45q-332 94 -280 379q19 108 91 196.5t173.5 139.5t216.5 63l39 209h133l-39 -211q166 -22 250.5 -132t54.5 -279h-217q19 96 -40 154.5t-169 58.5q-99 0 -179 -54.5t-97 -140.5
q-25 -136 153 -184l174 -47q198 -54 273 -168.5t31 -270.5q-43 -156 -175.5 -259.5t-312.5 -116.5l-41 -228h-133l41 230q-184 21 -281 143t-69 283z" />
    <glyph glyph-name="percent" unicode="%" horiz-adv-x="1400" 
d="M268 1098q22 115 114.5 194.5t207.5 79.5q114 0 180.5 -80t44.5 -194q-22 -115 -115.5 -194t-207.5 -79q-116 0 -181 79t-43 194zM285 0l909 1368h137l-911 -1368h-135zM418 1098q-9 -53 19.5 -88t82.5 -35q52 0 94.5 35.5t51.5 87.5t-21.5 88.5t-81.5 36.5
q-54 0 -95 -36t-50 -89zM821 252q20 114 113.5 194t208.5 80q114 0 179.5 -80t45.5 -194q-20 -115 -114.5 -193.5t-209.5 -78.5t-179 78t-44 194zM971 252q-10 -54 18.5 -88.5t81.5 -34.5t96.5 35t53.5 88q9 51 -22 88t-83 37t-94 -36.5t-51 -88.5z" />
    <glyph glyph-name="ampersand" unicode="&#x26;" horiz-adv-x="1363" 
d="M184 420q22 120 95.5 216.5t185.5 151.5q-49 41 -69 114t-5 157q28 149 155.5 254t287.5 108q112 1 196.5 -52t126.5 -144l-192 -107q-53 101 -154 101q-80 0 -137.5 -48t-69.5 -118q-8 -29 -1 -63t21 -63t46 -49t75 -20h267l32 178h197l-33 -178h176l-28 -170h-176
l-47 -262q-13 -79 -10.5 -136t44 -88.5t127.5 -31.5l-32 -190q-267 0 -316 157q-63 -74 -165.5 -115.5t-209.5 -41.5q-203 0 -312 125.5t-75 314.5zM397 426q-15 -108 44.5 -176t176.5 -68q135 0 220 89.5t112 242.5l31 174h-270q-122 0 -210.5 -81t-103.5 -181z" />
    <glyph glyph-name="quotesingle" unicode="'" horiz-adv-x="450" 
d="M301 817l92 594h160l-117 -594h-135z" />
    <glyph glyph-name="parenleft" unicode="(" horiz-adv-x="751" 
d="M176 473q78 434 285 694t469 260l-33 -192q-171 0 -320.5 -213.5t-209.5 -548.5q-38 -228 -19 -396.5t92.5 -265t186.5 -96.5l-35 -192q-173 0 -285.5 117t-146 328t15.5 505z" />
    <glyph glyph-name="parenright" unicode=")" horiz-adv-x="751" 
d="M-8 -477l28 192q170 0 320 212t209 546q38 228 19 397t-92 267t-185 98l35 192q172 0 284 -118t145 -330t-16 -506q-38 -215 -112.5 -393.5t-172 -300.5t-216.5 -189t-246 -67z" />
    <glyph glyph-name="asterisk" unicode="*" horiz-adv-x="966" 
d="M297 1098l86 159l235 -100l31 275h172l-65 -273l276 98l21 -159l-275 -72l135 -219l-153 -94l-109 227l-198 -231l-113 100l213 213z" />
    <glyph glyph-name="plus" unicode="+" horiz-adv-x="1054" 
d="M182 442l33 187h328l59 327h186l-59 -327h328l-33 -187h-328l-57 -329h-186l57 329h-328z" />
    <glyph glyph-name="comma" unicode="," horiz-adv-x="530" 
d="M-14 -213q186 218 223 471h221q-42 -186 -130.5 -320t-182.5 -200z" />
    <glyph glyph-name="hyphen" unicode="-" horiz-adv-x="985" 
d="M203 389l35 191h714l-34 -191h-715z" />
    <glyph glyph-name="period" unicode="." horiz-adv-x="544" 
d="M150 117q10 59 58 99t107 40q61 0 97 -40t26 -99t-60.5 -98t-111.5 -39q-59 0 -92.5 39t-23.5 98z" />
    <glyph glyph-name="slash" unicode="/" horiz-adv-x="1028" 
d="M63 0l941 1411h208l-940 -1411h-209z" />
    <glyph glyph-name="zero" unicode="0" horiz-adv-x="1236" 
d="M248 666q22 121 52.5 219t80.5 188t114.5 150.5t157 96.5t205.5 36t193 -36t123.5 -96.5t62 -150.5t14 -188.5t-25.5 -218.5q-22 -120 -52.5 -217.5t-80.5 -187t-115 -150t-157.5 -96t-205.5 -35.5t-193 35.5t-123 96t-61.5 150t-14 187t25.5 217.5zM457 666
q-12 -69 -17 -127.5t-3 -114.5t16 -98.5t38.5 -75t65 -49.5t94.5 -17q65 0 118.5 25t92 68t69 106t50.5 131t35 152q19 106 20.5 188t-16.5 150.5t-67.5 105.5t-129.5 37q-81 0 -144 -37t-105.5 -105.5t-70 -150.5t-46.5 -188z" />
    <glyph glyph-name="one" unicode="1" horiz-adv-x="704" 
d="M258 987l33 195l463 170l-240 -1352h-209l187 1067z" />
    <glyph glyph-name="two" unicode="2" horiz-adv-x="1089" 
d="M119 0l16 100l662 656q111 108 127 202q15 85 -38.5 139t-148.5 54q-88 0 -161.5 -56.5t-102.5 -148.5l-192 43q58 169 193.5 269t301.5 100q180 0 284.5 -112.5t72.5 -287.5q-32 -179 -207 -344q-86 -84 -200.5 -195t-219.5 -214h485l-35 -205h-837z" />
    <glyph glyph-name="three" unicode="3" horiz-adv-x="1101" 
d="M121 250l205 98q15 -63 83 -113t138 -51q124 0 197.5 57t89.5 148q15 87 -37.5 156.5t-163.5 68.5h-150l35 195h150q74 -1 125.5 45.5t72.5 106.5q9 32 11 63.5t-17.5 62.5t-58.5 48q-29 14 -90 14q-117 3 -207 -105l-139 117q73 96 189 150t239 47q162 -9 249 -117
t62 -254q-13 -78 -71 -149t-138 -115q92 -37 132.5 -137.5t19.5 -212.5q-33 -182 -182.5 -287.5t-354.5 -105.5q-151 0 -253 75t-136 195z" />
    <glyph glyph-name="four" unicode="4" horiz-adv-x="1210" 
d="M92 281l899 1056h180l-155 -866h186l-31 -190h-186l-49 -281h-209l49 281h-684zM457 471h350l96 522z" />
    <glyph glyph-name="five" unicode="5" horiz-adv-x="1165" 
d="M141 276q24 11 100.5 52.5t96.5 50.5q23 -89 88.5 -142t153.5 -53q148 0 240 72.5t112 183.5q21 119 -44.5 183.5t-180.5 64.5q-85 0 -164.5 -27t-180.5 -94l-108 92l233 678h732l-33 -198h-561l-123 -338q46 33 121.5 54.5t138.5 21.5q195 0 303.5 -115.5t73.5 -321.5
q-37 -207 -200.5 -333.5t-395.5 -126.5q-140 0 -249.5 80.5t-152.5 215.5z" />
    <glyph glyph-name="six" unicode="6" horiz-adv-x="1148" 
d="M213 440q10 95 25.5 183.5t43 183t63 174t87 152t114 121.5t145.5 77t179 25q49 -2 89 -9.5t81 -25.5t72.5 -46t58 -73t43.5 -104l-202 -82q-22 72 -72 107.5t-113 35.5q-139 0 -244 -129t-124 -319q115 151 313 151q174 0 270.5 -130t61.5 -326q-40 -184 -191 -305
t-342 -121q-181 0 -280.5 125.5t-77.5 334.5zM428 432q-19 -102 36.5 -172t151.5 -72q97 -5 179.5 62.5t99.5 165.5q17 101 -32.5 170.5t-145.5 72.5q-98 3 -185 -65t-104 -162z" />
    <glyph glyph-name="seven" unicode="7" horiz-adv-x="1089" 
d="M117 0l794 1135h-600l37 202h946l-934 -1337h-243z" />
    <glyph glyph-name="eight" unicode="8" horiz-adv-x="1167" 
d="M182 424q20 110 90.5 201.5t173.5 148.5q-81 91 -57 234q25 146 150 248t282 102t248 -102t66 -248q-12 -68 -51 -128.5t-95 -105.5q85 -57 122 -149t17 -201q-34 -186 -193 -315t-357 -129q-131 0 -230 59t-143.5 161t-22.5 224zM393 426q-19 -101 45 -172.5t174 -71.5
t199.5 71t108.5 173q17 98 -44.5 170t-168.5 72h-23q-104 0 -188.5 -72.5t-102.5 -169.5zM594 1006q-11 -68 28 -112t113 -44q71 1 125.5 46.5t65.5 109.5q11 62 -29 105.5t-111 43.5q-72 0 -127.5 -43.5t-64.5 -105.5z" />
    <glyph glyph-name="nine" unicode="9" horiz-adv-x="1148" 
d="M164 238l207 81q22 -73 71.5 -108t112.5 -35q138 0 242 129t123 320q-49 -72 -131.5 -112t-180.5 -40q-173 0 -268.5 130.5t-60.5 326.5q38 184 188.5 305t341.5 121q181 0 280.5 -126t77.5 -335q-10 -95 -25.5 -183t-42.5 -183t-62.5 -174.5t-87 -151.5t-114 -121.5
t-146 -77t-179.5 -24.5q-61 2 -110 14.5t-96.5 40t-83 79t-56.5 124.5zM487 920q-19 -100 32 -170.5t147 -73.5q97 -3 183 65t103 162q19 101 -36 171t-150 73q-98 3 -179 -63t-100 -164z" />
    <glyph glyph-name="colon" unicode=":" horiz-adv-x="559" 
d="M156 117q10 60 59 99.5t109 39.5q59 0 94.5 -40t25.5 -99t-60 -98t-110 -39q-61 0 -94.5 38.5t-23.5 98.5zM283 838q10 60 59.5 99.5t110.5 39.5q59 0 93.5 -39t24.5 -100q-10 -59 -59.5 -99.5t-108.5 -40.5q-60 0 -95 40t-25 100z" />
    <glyph glyph-name="semicolon" unicode=";" horiz-adv-x="585" 
d="M4 -213q189 213 227 471h228q-40 -185 -129 -319t-183 -201zM305 838q10 60 60.5 99.5t111.5 39.5q60 0 94.5 -39.5t24.5 -99.5q-10 -59 -59.5 -99.5t-108.5 -40.5q-61 0 -97 40.5t-26 99.5z" />
    <glyph glyph-name="less" unicode="&#x3c;" horiz-adv-x="1257" 
d="M168 471l35 191l1104 395l-35 -205l-819 -285l716 -288l-36 -205z" />
    <glyph glyph-name="equal" unicode="=" horiz-adv-x="1241" 
d="M190 246l33 182h942l-32 -182h-943zM262 645l31 182h942l-31 -182h-942z" />
    <glyph glyph-name="greater" unicode="&#x3e;" horiz-adv-x="1257" 
d="M145 74l35 205l821 288l-718 285l36 205l965 -395l-35 -191z" />
    <glyph glyph-name="question" unicode="?" horiz-adv-x="997" 
d="M262 999q34 192 173 310t313 118q87 0 159 -28t121.5 -78.5t69.5 -126.5t4 -166q-27 -144 -127 -246t-234 -141q-73 -20 -111.5 -54t-51.5 -102l-23 -104h-205l19 104q12 68 33.5 117t46.5 78.5t64.5 55t75 41t92 43t101.5 54.5q44 27 72.5 69t36.5 85q15 84 -39 137.5
t-141 53.5q-86 0 -157 -60.5t-89 -159.5h-203zM264 119q10 59 59.5 99t108.5 40q61 0 97 -40t26 -99t-59.5 -98t-110.5 -39q-60 0 -95.5 39t-25.5 98z" />
    <glyph glyph-name="at" unicode="@" horiz-adv-x="1984" 
d="M188 518q32 183 130.5 349t237.5 287t316.5 192t360.5 71q185 0 342.5 -65.5t263 -179t151.5 -275.5t13 -344q-14 -76 -40 -153.5t-69.5 -156.5t-98 -139.5t-129.5 -98.5t-159 -38q-59 0 -106.5 15.5t-84.5 48.5t-50.5 93t0.5 142l47 262q19 108 -44 183t-169 75
t-195 -75t-108 -183q-19 -106 44 -181t169 -75q98 0 207 88l-31 -180q-106 -61 -205 -61q-170 0 -268.5 119.5t-69.5 289.5q31 172 172 292t311 120q80 0 150 -30.5t115 -82.5q102 -120 79 -280l-53 -295q-24 -131 117 -131q55 0 103.5 30t81.5 75t59.5 105.5t41.5 114
t25 107.5q27 151 -11 284.5t-125.5 226.5t-218 146.5t-284.5 53.5q-202 0 -388 -100t-312.5 -271.5t-163.5 -374.5q-19 -125 -5 -235t66.5 -202.5t129 -159t182 -103.5t227.5 -37h51l-26 -156h-52q-183 0 -335 70t-248.5 189.5t-136 284.5t-7.5 349z" />
    <glyph glyph-name="A" unicode="A" horiz-adv-x="1325" 
d="M12 0l781 1411h235l285 -1411h-230l-75 352h-570l-194 -352h-232zM547 547h422l-105 592z" />
    <glyph glyph-name="B" unicode="B" horiz-adv-x="1288" 
d="M184 0l248 1411h541q180 0 268 -100.5t57 -272.5q-15 -93 -72.5 -171t-158.5 -115q75 -18 125.5 -74t67.5 -125.5t4 -138.5q-30 -174 -166.5 -294t-329.5 -120h-584zM436 199h355q94 0 162.5 65t82.5 152q9 54 -6 105.5t-58.5 87.5t-107.5 36h-348zM549 831h313
q83 0 139 57.5t70 141.5q15 86 -26.5 134t-129.5 48h-299z" />
    <glyph glyph-name="C" unicode="C" horiz-adv-x="1400" 
d="M219 702q27 148 106 282t191 231t254 154.5t289 57.5q166 0 295.5 -67t204.5 -186l-189 -132q-58 82 -147.5 129.5t-200.5 47.5q-209 0 -378 -151t-208 -366q-25 -141 18.5 -259t145.5 -186.5t240 -68.5q114 0 220.5 49t190.5 136l146 -133q-114 -122 -269.5 -191
t-324.5 -69q-147 0 -269 57t-200 154t-110 230.5t-5 280.5z" />
    <glyph glyph-name="D" unicode="D" horiz-adv-x="1472" 
d="M184 0l248 1411h549q196 0 325 -94t175 -253.5t10 -361.5q-27 -150 -93 -278t-162 -222.5t-226 -148t-277 -53.5h-549zM434 201h332q134 0 242 67.5t174 179t92 254.5t0 256t-110 181.5t-218 68.5h-332z" />
    <glyph glyph-name="E" unicode="E" horiz-adv-x="1161" 
d="M184 0l248 1411h850l-35 -201h-633l-73 -417h553l-37 -199h-553l-70 -395h653l-32 -199h-871z" />
    <glyph glyph-name="F" unicode="F" horiz-adv-x="1079" 
d="M184 0l248 1411h838l-35 -201h-621l-73 -417h491l-37 -199h-491l-103 -594h-217z" />
    <glyph glyph-name="G" unicode="G" horiz-adv-x="1546" 
d="M219 702q27 148 106 282t191 231t254.5 154.5t290.5 57.5q144 0 262.5 -52t194.5 -146l-187 -142q-52 63 -132 98.5t-175 35.5q-209 0 -379 -152t-209 -367q-25 -141 19 -260t146.5 -188.5t240.5 -69.5q175 0 312.5 95.5t172.5 250.5h-395l31 187h645
q-63 -366 -276 -551.5t-527 -185.5q-148 0 -270.5 57t-200.5 154t-110 230.5t-5 280.5z" />
    <glyph glyph-name="H" unicode="H" horiz-adv-x="1443" 
d="M184 0l248 1411h217l-106 -610h637l106 610h221l-247 -1411h-222l105 602h-637l-105 -602h-217z" />
    <glyph glyph-name="I" unicode="I" horiz-adv-x="585" 
d="M184 0l248 1411h217l-248 -1411h-217z" />
    <glyph glyph-name="J" unicode="J" horiz-adv-x="587" 
d="M-287 -481l56 202q21 -8 71.5 -13t69.5 -5q113 0 178 70.5t86 183.5l258 1454h219l-258 -1454q-18 -97 -56.5 -178t-100 -146.5t-154.5 -102t-209 -36.5q-54 0 -160 25z" />
    <glyph glyph-name="K" unicode="K" horiz-adv-x="1193" 
d="M184 0l248 1411h219l-102 -573l534 573h256l-665 -702l543 -709h-287l-426 571l-101 -571h-219z" />
    <glyph glyph-name="L" unicode="L" horiz-adv-x="1021" 
d="M184 0l248 1411h217l-215 -1212h565l-32 -199h-783z" />
    <glyph glyph-name="M" unicode="M" horiz-adv-x="1898" 
d="M104 0l420 1411h193l303 -1005l655 1005h195l-76 -1411h-217l55 1008l-563 -850h-184l-267 850l-296 -1008h-218z" />
    <glyph glyph-name="N" unicode="N" horiz-adv-x="1394" 
d="M184 0l248 1411h209l424 -1001l176 1001h217l-248 -1411h-202l-430 1010l-177 -1010h-217z" />
    <glyph glyph-name="O" unicode="O" horiz-adv-x="1622" 
d="M219 702q35 198 158 364.5t304 263.5t378 97q148 0 271.5 -57.5t202 -154.5t111 -231t5.5 -282q-36 -197 -160 -363t-306 -262.5t-380 -96.5q-148 0 -270 57t-199.5 154t-109.5 230.5t-5 280.5zM436 702q-25 -140 19 -256.5t146 -184.5t239 -68q138 0 265 68t213.5 184.5
t111.5 256.5t-19.5 257.5t-147.5 186t-241 68.5q-137 0 -263.5 -68.5t-212.5 -186t-110 -257.5z" />
    <glyph glyph-name="P" unicode="P" horiz-adv-x="1243" 
d="M184 0l248 1411h567q89 0 157.5 -25t109.5 -68t66 -100t26.5 -122t-8.5 -133q-16 -88 -54.5 -165t-99.5 -141t-152.5 -101.5t-201.5 -37.5h-348l-91 -518h-219zM528 717h336q110 0 180 72.5t89 173.5q10 45 3 89t-24.5 79t-56.5 57t-94 22h-345z" />
    <glyph glyph-name="Q" unicode="Q" horiz-adv-x="1626" 
d="M219 702q27 148 106 282t191 231t254.5 154.5t290.5 57.5q199 0 348 -97t214.5 -263.5t29.5 -364.5q-33 -188 -150 -349t-286 -259l102 -231l-180 -101l-115 250q-97 -32 -219 -32q-148 0 -270.5 57t-200.5 154t-110 230.5t-5 280.5zM436 702q-35 -199 66.5 -341.5
t292.5 -161.5q81 -7 147 4l-98 221l180 100l109 -248q117 68 196.5 180t104.5 246q25 141 -19.5 259.5t-148 188t-242.5 69.5q-138 0 -265 -69.5t-213 -188t-110 -259.5z" />
    <glyph glyph-name="R" unicode="R" horiz-adv-x="1273" 
d="M184 0l248 1411h551q88 0 156.5 -25t109 -68t65.5 -100t26.5 -122t-7.5 -133q-14 -80 -47.5 -152t-86.5 -133t-131.5 -101.5t-174.5 -50.5l278 -526h-264l-262 518h-151l-91 -518h-219zM528 717h316q110 0 177.5 72t86.5 174q10 45 3.5 89t-23 79t-55 57t-93.5 22h-324z
" />
    <glyph glyph-name="S" unicode="S" horiz-adv-x="1175" 
d="M172 410h217q-13 -91 53 -161.5t187 -70.5q118 0 195 55t104 138q44 174 -183 229l-170 45q-332 94 -280 379q21 118 101.5 211t194.5 142.5t238 49.5q97 0 176 -29t131.5 -82t73.5 -132t4 -174h-217q19 96 -40 154.5t-169 58.5q-100 0 -180.5 -55t-95.5 -140
q-29 -134 154 -184l174 -47q197 -56 272.5 -170t28.5 -269q-45 -167 -195.5 -272.5t-351.5 -105.5q-143 0 -247.5 59.5t-149.5 158t-25 212.5z" />
    <glyph glyph-name="T" unicode="T" horiz-adv-x="1167" 
d="M270 1208l35 203h1053l-35 -203h-416l-213 -1208h-221l213 1208h-416z" />
    <glyph glyph-name="U" unicode="U" horiz-adv-x="1386" 
d="M252 489l166 922h221l-166 -922q-23 -133 52 -217t200 -84t227.5 84t126.5 217l164 922h221l-164 -922q-27 -150 -119.5 -267.5t-222 -179.5t-270.5 -62q-106 0 -195 36.5t-149 101.5t-85.5 161.5t-6.5 209.5z" />
    <glyph glyph-name="V" unicode="V" horiz-adv-x="1159" 
d="M299 1411h227l115 -1049l489 1049h226l-674 -1411h-203z" />
    <glyph glyph-name="W" unicode="W" horiz-adv-x="1837" 
d="M270 1411h234l149 -1051l396 859h170l88 -859l522 1051h233l-725 -1411h-182l-90 846l-383 -846h-182z" />
    <glyph glyph-name="X" unicode="X" horiz-adv-x="1277" 
d="M18 0l623 756l-324 655h263l223 -479l395 479h260l-555 -655l359 -756h-261l-262 578l-463 -578h-258z" />
    <glyph glyph-name="Y" unicode="Y" horiz-adv-x="1298" 
d="M248 1411h260l291 -561l491 561h260l-678 -766l-112 -645h-223l114 647z" />
    <glyph glyph-name="Z" unicode="Z" horiz-adv-x="1181" 
d="M84 0l29 180l905 1030h-692l34 201h971l-31 -182l-909 -1028h725l-33 -201h-999z" />
    <glyph glyph-name="bracketleft" unicode="[" horiz-adv-x="671" 
d="M80 -465l334 1876h426l-31 -180h-227l-271 -1516h228l-33 -180h-426z" />
    <glyph glyph-name="backslash" unicode="\" horiz-adv-x="1028" 
d="M311 1411h209l445 -1411h-209z" />
    <glyph glyph-name="bracketright" unicode="]" horiz-adv-x="671" 
d="M-2 -465l29 180h227l270 1516h-227l31 180h426l-334 -1876h-422z" />
    <glyph glyph-name="underscore" unicode="_" horiz-adv-x="1452" 
d="M92 -236l29 177h1182l-29 -177h-1182z" />
    <glyph glyph-name="grave" unicode="`" horiz-adv-x="1069" 
d="M516 1430h238l147 -324h-184z" />
    <glyph glyph-name="a" unicode="a" horiz-adv-x="1249" 
d="M170 479q26 148 114 263t208.5 175t250.5 60q95 0 179 -39.5t116 -116.5l23 135h209l-168 -956h-209l22 137q-59 -74 -156 -115.5t-192 -41.5q-97 0 -178.5 35.5t-137 99t-78 158.5t-3.5 206zM387 481q-23 -130 48 -213.5t194 -83.5q122 0 222 80.5t124 216.5
q23 133 -51.5 212t-190.5 79q-123 0 -222.5 -81t-123.5 -210z" />
    <glyph glyph-name="b" unicode="b" horiz-adv-x="1245" 
d="M147 0l261 1477h210l-114 -658q55 76 149 117t199 41q201 0 314 -138t73 -362q-39 -220 -203.5 -358.5t-363.5 -138.5q-100 0 -180.5 42.5t-110.5 116.5l-23 -139h-211zM442 481q-24 -135 48 -216t194 -81t219.5 83.5t120.5 213.5q24 129 -44.5 210t-191.5 81
q-116 0 -218.5 -79t-127.5 -212z" />
    <glyph glyph-name="c" unicode="c" horiz-adv-x="1052" 
d="M168 481q26 147 117 261.5t217 174.5t264 60q114 0 206 -43.5t146 -122.5l-188 -131q-67 92 -199 92q-124 0 -227 -80.5t-127 -210.5q-23 -130 51 -214.5t197 -84.5q63 0 125 25t106 69l143 -129q-82 -80 -188 -123.5t-221 -43.5q-102 0 -188.5 36t-145 100.5t-83 159
t-5.5 205.5z" />
    <glyph glyph-name="d" unicode="d" horiz-adv-x="1245" 
d="M170 477q27 149 113 264.5t204 175.5t248 60q105 0 186.5 -41t112.5 -117l115 658h209l-260 -1477h-209l20 139q-57 -75 -153 -117t-197 -42q-96 0 -176.5 36t-134.5 99.5t-75.5 157.5t-2.5 204zM387 481q-23 -130 45.5 -213.5t190.5 -83.5t221 81t123 216
q13 68 -2.5 124.5t-51 92t-84 55t-102.5 19.5q-122 0 -219 -80.5t-121 -210.5z" />
    <glyph glyph-name="e" unicode="e" horiz-adv-x="1132" 
d="M168 481q39 222 205 359t375 137q208 0 319 -136t72 -360q-9 -51 -17 -78h-760q-4 -109 65.5 -174t186.5 -65q82 0 160.5 36.5t124.5 100.5q42 -23 160 -76q-84 -121 -215 -183t-273 -62q-208 0 -325 139t-78 362zM391 557h555q3 111 -59 173.5t-170 62.5
q-112 0 -201.5 -63.5t-124.5 -172.5z" />
    <glyph glyph-name="f" unicode="f" horiz-adv-x="710" 
d="M188 782l31 174h182l17 88q35 203 151.5 318t307.5 115h104l-35 -203h-104q-173 0 -211 -230l-17 -88h215l-30 -174h-215l-138 -782h-213l138 782h-183z" />
    <glyph glyph-name="g" unicode="g" horiz-adv-x="1249" 
d="M94 -209q20 8 95.5 44t95.5 44q24 -73 91.5 -116.5t147.5 -43.5q153 0 253 91.5t134 285.5q3 26 9 49q-53 -77 -153.5 -121t-201.5 -44q-97 0 -178 35t-136 98t-77.5 157t-3.5 205q39 222 206 362t367 140q100 0 182.5 -43t112.5 -119l25 141h207l-146 -815
q-110 -618 -635 -618q-140 0 -245.5 70.5t-149.5 197.5zM387 477q-24 -132 46.5 -213.5t193.5 -81.5q115 0 218.5 81t127.5 214q25 137 -45.5 216t-194.5 79q-122 0 -222.5 -83.5t-123.5 -211.5z" />
    <glyph glyph-name="h" unicode="h" horiz-adv-x="1183" 
d="M147 0l261 1477h210l-116 -666q51 81 148 123.5t184 42.5q183 0 264.5 -114t44.5 -318l-94 -545h-211l92 532q20 109 -30 173.5t-142 64.5q-48 0 -95 -14t-92 -43t-77.5 -80.5t-44.5 -118.5l-91 -514h-211z" />
    <glyph glyph-name="i" unicode="i" horiz-adv-x="503" 
d="M147 0l168 956h209l-168 -956h-209zM348 1343q9 56 57.5 95t106.5 39q59 0 92.5 -38.5t24.5 -95.5q-9 -56 -57 -94.5t-107 -38.5q-57 0 -91.5 38t-25.5 95z" />
    <glyph glyph-name="j" unicode="j" horiz-adv-x="507" 
d="M-209 -473l35 197h115q161 0 192 215l182 1017h213l-180 -1017q-73 -412 -418 -412h-139zM350 1343q9 56 57.5 95t106.5 39q59 0 93.5 -38.5t25.5 -95.5q-9 -56 -58 -94.5t-108 -38.5q-57 0 -91.5 38t-25.5 95z" />
    <glyph glyph-name="k" unicode="k" horiz-adv-x="1036" 
d="M147 0l261 1477h208l-147 -836l358 315h283l-481 -415l405 -541h-270l-330 444l-78 -444h-209z" />
    <glyph glyph-name="l" unicode="l" horiz-adv-x="505" 
d="M147 0l261 1477h210l-260 -1477h-211z" />
    <glyph glyph-name="m" unicode="m" horiz-adv-x="1787" 
d="M147 0l168 956h211l-24 -143q30 47 76 81.5t93.5 51t87 24t72.5 7.5q218 0 267 -191q137 191 356 191q177 0 252.5 -111t40.5 -315l-96 -551h-211l92 532q20 111 -24.5 174.5t-137.5 63.5q-104 0 -179 -70t-95 -186l-90 -514h-211l92 537q18 108 -25 170.5t-129 62.5
q-102 0 -181.5 -63t-102.5 -193l-91 -514h-211z" />
    <glyph glyph-name="n" unicode="n" horiz-adv-x="1153" 
d="M147 0l168 956h211l-24 -143q52 78 143 121t178 43q174 0 249 -109t40 -311l-96 -557h-211l92 532q20 113 -23.5 175.5t-136.5 62.5q-49 0 -93.5 -14t-84.5 -43t-69 -80t-41 -119l-91 -514h-211z" />
    <glyph glyph-name="o" unicode="o" horiz-adv-x="1171" 
d="M168 481q39 221 208 358.5t378 137.5q102 0 186.5 -35.5t142 -98.5t80.5 -157t4 -205q-26 -147 -115 -263t-213.5 -177t-260.5 -61q-101 0 -185.5 36t-141 100.5t-79.5 159t-4 205.5zM377 481q-24 -132 45.5 -214.5t191.5 -82.5q123 0 220.5 82.5t121.5 214.5
q23 129 -46.5 209t-192.5 80q-122 0 -219.5 -80t-120.5 -209z" />
    <glyph glyph-name="p" unicode="p" horiz-adv-x="1241" 
d="M61 -465l254 1421h211l-24 -141q57 75 153 118.5t195 43.5q129 0 225.5 -61.5t141 -176.5t18.5 -262q-27 -148 -112.5 -263t-203 -174.5t-247.5 -59.5q-102 0 -181.5 40.5t-109.5 116.5l-109 -602h-211zM442 473q-12 -68 3 -124.5t49.5 -92t82.5 -55t103 -19.5
q123 0 220 81t120 210q24 131 -44 215t-190 84t-221 -82t-123 -217z" />
    <glyph glyph-name="q" unicode="q" horiz-adv-x="1241" 
d="M170 477q26 146 112 261.5t205 177t248 61.5q100 0 182.5 -44t110.5 -118l23 141h211l-254 -1421h-211l108 602q-55 -76 -149.5 -116.5t-196.5 -40.5q-97 0 -177.5 35.5t-134.5 98.5t-75.5 157.5t-1.5 205.5zM387 473q-23 -130 44.5 -210.5t189.5 -80.5q74 0 144.5 32.5
t126 100.5t71.5 158q24 136 -45 217.5t-191 81.5t-219 -83.5t-121 -215.5z" />
    <glyph glyph-name="r" unicode="r" horiz-adv-x="817" 
d="M147 0l168 956h211l-39 -219q113 240 306 240q50 0 95 -11t66 -26l-67 -195q-60 33 -137 33q-130 0 -213 -116.5t-119 -317.5l-60 -344h-211z" />
    <glyph glyph-name="s" unicode="s" horiz-adv-x="909" 
d="M129 293h195q-3 -63 39 -100t124 -37q74 0 128 30.5t63 83.5q7 43 -25 71.5t-88 41.5l-123 31q-142 40 -190.5 116.5t-18.5 194.5q28 105 140.5 178.5t244.5 73.5q66 0 122.5 -16t100.5 -48.5t65.5 -88.5t13.5 -130h-201q1 51 -34 77t-89 26q-41 0 -83 -15t-62 -39
q-30 -35 -23 -86q7 -45 104 -73l140 -37q57 -15 98 -39.5t62 -53t33.5 -61.5t10.5 -64t-4 -61q-24 -135 -143.5 -211.5t-288.5 -76.5q-91 0 -166.5 35.5t-117.5 108.5t-27 169z" />
    <glyph glyph-name="t" unicode="t" horiz-adv-x="688" 
d="M188 782l31 174h172l62 363h211l-62 -363h203l-31 -174h-203l-137 -782h-211l137 782h-172z" />
    <glyph glyph-name="u" unicode="u" horiz-adv-x="1150" 
d="M207 399l98 557h211l-94 -532q-21 -115 23.5 -177.5t134.5 -62.5q38 0 74 8.5t71 28t63 48.5t49 73.5t31 99.5l93 514h210l-167 -956h-211l22 139q-52 -77 -141 -118t-172 -41q-176 0 -254.5 109t-40.5 310z" />
    <glyph glyph-name="v" unicode="v" horiz-adv-x="1046" 
d="M195 956h223l151 -688l394 688h225l-567 -956h-195z" />
    <glyph glyph-name="w" unicode="w" horiz-adv-x="1601" 
d="M199 956h225l106 -645l336 645h197l106 -645l338 645h226l-519 -956h-174l-125 678l-352 -678h-172z" />
    <glyph glyph-name="x" unicode="x" horiz-adv-x="1036" 
d="M18 0l471 522l-237 434h250l137 -264l231 264h250l-389 -434l285 -522h-248l-188 350l-316 -350h-246z" />
    <glyph glyph-name="y" unicode="y" horiz-adv-x="1038" 
d="M113 -467l299 512l-217 911h225l149 -655l385 655h226l-846 -1423h-221z" />
    <glyph glyph-name="z" unicode="z" horiz-adv-x="1032" 
d="M84 0l29 168l645 590h-508l35 198h815l-31 -168l-653 -589h549l-33 -199h-848z" />
    <glyph glyph-name="braceleft" unicode="{" horiz-adv-x="817" 
d="M143 401l29 152q49 0 93 36t52 81l64 356q30 180 166.5 290.5t308.5 110.5h141l-26 -157h-148q-87 0 -159 -64t-89 -157l-57 -322q-15 -87 -60.5 -155.5t-121.5 -94.5q69 -23 89.5 -92.5t4.5 -157.5l-55 -305q-17 -92 33 -159.5t135 -67.5h147l-31 -160h-141
q-83 0 -151.5 29t-114 80.5t-64 128t-2.5 166.5l62 348q8 43 -24 78.5t-81 35.5z" />
    <glyph glyph-name="bar" unicode="|" horiz-adv-x="464" 
d="M121 -246l334 1878h133l-334 -1878h-133z" />
    <glyph glyph-name="braceright" unicode="}" horiz-adv-x="817" 
d="M-10 -465l26 160h148q84 0 156.5 67t89.5 160l55 305q15 86 60.5 156.5t119.5 93.5q-65 26 -86 95t-6 155l57 322q17 93 -32 157t-136 64h-147l29 157h141q172 0 269.5 -110.5t64.5 -290.5l-64 -356q-8 -45 24 -81t81 -36l-27 -152q-49 0 -93 -35.5t-52 -78.5l-62 -348
q-21 -120 -93 -213t-173 -142t-213 -49h-137z" />
    <glyph glyph-name="exclamdown" unicode="&#xa1;" horiz-adv-x="509" 
d="M53 -465l219 1045h168l-159 -1045h-228zM258 840q10 59 60 98t110 39q61 0 96 -39t25 -98t-59.5 -99.5t-110.5 -40.5q-59 0 -95 40.5t-26 99.5z" />
    <glyph glyph-name="cent" unicode="&#xa2;" horiz-adv-x="1091" 
d="M180 481q23 129 97.5 235t179.5 169.5t225 83.5l39 217h133l-37 -211q101 -6 182 -49t131 -115l-188 -131q-31 44 -83.5 68t-115.5 24q-124 0 -227 -80.5t-127 -210.5q-23 -130 51 -214.5t197 -84.5q63 0 125 25t106 69l146 -129q-155 -149 -373 -165l-41 -226h-133
l41 232q-174 30 -268 163.5t-60 329.5z" />
    <glyph glyph-name="sterling" unicode="&#xa3;" horiz-adv-x="1316" 
d="M94 0l33 201h197l69 383h-160l21 125h160l45 245q39 217 174 345t334 128q85 0 155.5 -30t118 -85t66 -138.5t0.5 -184.5h-211q19 112 -35 171t-148 50q-83 -3 -151.5 -58t-83.5 -138l-55 -305h292l-20 -125h-293l-70 -383h406q65 0 87 12q23 14 28 41l16 102h209
l-16 -104q-18 -109 -87.5 -180.5t-168.5 -71.5h-912z" />
    <glyph glyph-name="currency" unicode="&#xa4;" horiz-adv-x="1257" 
d="M201 330l170 145q-47 90 -25 219q20 116 107 221l-123 146l141 119l121 -146q109 66 229 66t211 -66l168 146l98 -119l-170 -148q47 -96 27 -219q-21 -124 -104 -219l118 -145l-141 -121l-119 147q-112 -67 -233 -67q-120 0 -209 67l-168 -147zM541 694
q-17 -88 33.5 -149.5t138.5 -61.5t161.5 61.5t90.5 149.5q15 88 -37 150.5t-140 62.5t-160 -62.5t-87 -150.5z" />
    <glyph glyph-name="yen" unicode="&#xa5;" horiz-adv-x="1437" 
d="M285 219l22 133h357l28 168h-356l24 133h353l-398 758h260l291 -561l492 561h260l-672 -758h357l-25 -133h-363l-28 -168h362l-22 -133h-363l-37 -219h-223l37 219h-356z" />
    <glyph glyph-name="brokenbar" unicode="&#xa6;" horiz-adv-x="468" 
d="M123 -246l139 793h133l-139 -793h-133zM313 838l144 794h133l-144 -794h-133z" />
    <glyph glyph-name="section" unicode="&#xa7;" horiz-adv-x="1067" 
d="M123 -27l194 56q14 -74 66 -114t121 -40q90 0 162.5 58.5t89.5 152.5l69 379q18 96 -35.5 153.5t-146.5 57.5q-57 0 -113 -19l33 199q57 14 115 14q84 0 153.5 -28.5t117 -80t66.5 -128.5t3 -168l-68 -379q-21 -120 -94.5 -214t-176 -142.5t-214.5 -48.5
q-135 0 -230 77.5t-112 214.5zM240 643l69 379q33 181 172.5 293t311.5 112q135 0 230.5 -77.5t113.5 -214.5l-195 -56q-17 74 -67.5 114t-118.5 40q-90 0 -162.5 -58.5t-89.5 -152.5l-70 -379q-18 -96 35.5 -153.5t146.5 -57.5q57 0 113 19l-35 -199q-57 -14 -114 -14
q-84 0 -153.5 28.5t-117 80t-66.5 128.5t-3 168z" />
    <glyph glyph-name="dieresis" unicode="&#xa8;" horiz-adv-x="1105" 
d="M471 1274q9 53 54.5 89t101.5 36q53 0 84 -36t22 -89t-53.5 -90t-97.5 -37q-56 0 -88 36.5t-23 90.5zM821 1274q9 53 54.5 89t101.5 36q54 0 85.5 -35.5t22.5 -89.5t-54 -90.5t-99 -36.5q-56 0 -88 36.5t-23 90.5z" />
    <glyph glyph-name="copyright" unicode="&#xa9;" horiz-adv-x="1652" 
d="M233 702q36 197 159.5 363.5t305 264t377.5 97.5t344.5 -97.5t214.5 -264.5t31 -363q-27 -147 -107 -280.5t-193 -230.5t-256 -154t-290 -57t-269.5 57t-200.5 154t-110.5 230.5t-5.5 280.5zM358 702q-22 -122 5 -232t92 -190t166 -127t223 -47q162 0 311.5 79.5
t251.5 216.5t131 300q29 162 -25.5 300t-177 218t-284.5 80q-121 0 -238.5 -47.5t-210 -127.5t-157.5 -190.5t-87 -232.5zM584 692q28 154 153.5 261.5t280.5 107.5q151 0 258 -135l-113 -97q-81 95 -170 95q-96 0 -174.5 -68t-95.5 -164q-17 -97 37.5 -165t150.5 -68
q87 0 207 98l76 -102q-155 -133 -307 -133q-155 0 -243 108t-60 262z" />
    <glyph glyph-name="ordfeminine" unicode="&#xaa;" horiz-adv-x="987" 
d="M244 438l18 105h645l-18 -105h-645zM289 1001q29 156 146 253.5t259 97.5q70 0 127.5 -29t79.5 -84l17 98h135l-119 -673h-135l18 100q-40 -53 -109.5 -84t-138.5 -31q-142 0 -225 98.5t-55 253.5zM432 1004q-17 -96 32.5 -158t139.5 -62t164 60t92 160
q18 98 -38.5 155.5t-141.5 57.5q-91 0 -161 -59t-87 -154z" />
    <glyph glyph-name="guillemotleft" unicode="&#xab;" horiz-adv-x="1011" 
d="M174 477l358 424h179l-359 -424l209 -424h-178zM537 477l358 424h176l-358 -424l209 -424h-177z" />
    <glyph glyph-name="logicalnot" unicode="&#xac;" horiz-adv-x="1308" 
d="M244 547l32 194h1002l-86 -508h-197l54 314h-805z" />
    <glyph glyph-name="registered" unicode="&#xae;" horiz-adv-x="1652" 
d="M233 702q36 197 159.5 363.5t305 264t377.5 97.5t344.5 -97.5t214.5 -264.5t31 -363q-27 -147 -107 -280.5t-193 -230.5t-256 -154t-290 -57t-269.5 57t-200.5 154t-110.5 230.5t-5.5 280.5zM358 702q-22 -122 5 -232t92 -190t166 -127t223 -47q162 0 311.5 79.5
t251.5 216.5t131 300q29 162 -25.5 300t-177 218t-284.5 80q-121 0 -238.5 -47.5t-210 -127.5t-157.5 -190.5t-87 -232.5zM639 338l127 723h281q111 0 158.5 -70t31.5 -168q-13 -79 -64.5 -141.5t-134.5 -83.5l142 -260h-172l-138 250h-47l-43 -250h-141zM846 727h135
q45 0 78 28.5t39 67.5q6 41 -14 70t-62 29h-139z" />
    <glyph glyph-name="macron" unicode="&#xaf;" horiz-adv-x="1019" 
d="M453 1171l28 166h529l-29 -166h-528z" />
    <glyph glyph-name="degree" unicode="&#xb0;" horiz-adv-x="755" 
d="M303 1137q20 113 115 193.5t207 80.5q114 0 181.5 -81t47.5 -193q-20 -114 -116 -195.5t-210 -81.5q-113 0 -179 81.5t-46 195.5zM446 1137q-9 -55 23 -94t86 -39q56 0 101.5 39t54.5 94q9 54 -22.5 92.5t-86.5 38.5q-54 0 -100.5 -38.5t-55.5 -92.5z" />
    <glyph glyph-name="plusminus" unicode="&#xb1;" horiz-adv-x="1105" 
d="M137 0l29 178h831l-28 -178h-832zM238 575l32 185h322l53 293h186l-53 -293h324l-33 -185h-324l-53 -296h-186l53 296h-321z" />
    <glyph glyph-name="uni00B2" unicode="&#xb2;" horiz-adv-x="649" 
d="M223 883l10 65l392 387q61 58 73 117q9 49 -21.5 81t-84.5 32q-51 0 -94.5 -34.5t-65.5 -92.5l-113 28q35 102 117.5 164t179.5 62q107 0 168.5 -68t42.5 -172q-19 -106 -120 -207q-57 -55 -242 -233h285l-25 -129h-502z" />
    <glyph glyph-name="uni00B3" unicode="&#xb3;" horiz-adv-x="653" 
d="M227 1038q71 34 117 60q14 -41 47 -70t76 -33q60 -5 115 31t65 88q11 51 -21 92t-96 41h-90l21 117h90q52 0 87.5 38.5t37.5 82.5q2 36 -22.5 60t-65.5 24q-76 8 -135 -64q-6 5 -40 32.5t-44 37.5q45 57 112.5 88t141.5 27q98 -4 150.5 -69t33.5 -151q-6 -47 -40.5 -90
t-82.5 -67q58 -23 82 -85.5t6 -129.5q-28 -101 -126 -167.5t-208 -58.5q-78 6 -134 51.5t-77 114.5z" />
    <glyph glyph-name="acute" unicode="&#xb4;" horiz-adv-x="1069" 
d="M459 1106l262 324h237l-315 -324h-184z" />
    <glyph glyph-name="uni00B5" unicode="&#xb5;" horiz-adv-x="1144" 
d="M102 -334l230 1290h211l-97 -542q-20 -108 21 -168t125 -60q100 0 183 63t106 191l92 516h211l-168 -956h-211l18 121q-52 -68 -132.5 -103.5t-155.5 -35.5q-119 0 -168 59l-37 -246l-23 -129h-205z" />
    <glyph glyph-name="paragraph" unicode="&#xb6;" horiz-adv-x="1366" 
d="M242 967q21 121 98 223t189.5 161.5t234.5 59.5h160l-246 -1391q-2 -11 -4.5 -33.5t-4.5 -32t-8 -24t-15.5 -20.5t-27.5 -11t-43 -5h-102l115 628q-175 11 -276.5 139.5t-69.5 305.5zM424 -381l29 164h196q42 0 80.5 28t44.5 66l273 1534h210q116 0 186 -83.5t48 -197.5
l-33 -174h-172l29 170q8 42 -13.5 73.5t-60.5 31.5h-51l-236 -1331q-19 -107 -117.5 -192t-211.5 -89h-23h-178z" />
    <glyph glyph-name="periodcentered" unicode="&#xb7;" horiz-adv-x="561" 
d="M233 563q10 59 59.5 99t108.5 40q61 0 97 -40t26 -99t-60.5 -99t-111.5 -40q-59 0 -94 40t-25 99z" />
    <glyph glyph-name="cedilla" unicode="&#xb8;" horiz-adv-x="1073" 
d="M297 -172l135 -8q-1 -3 -2 -8t-3 -19t1 -20q7 -29 32.5 -41t57.5 -4q32 13 47.5 42t9.5 60l-45 250h109l68 -193q10 -25 0 -90q-14 -80 -85 -143.5t-161 -63.5q-83 0 -133.5 67t-30.5 171z" />
    <glyph glyph-name="uni00B9" unicode="&#xb9;" horiz-adv-x="428" 
d="M299 1423l23 123l296 144l-143 -807h-133l107 608z" />
    <glyph glyph-name="ordmasculine" unicode="&#xba;" horiz-adv-x="970" 
d="M229 438l19 105h670l-19 -105h-670zM305 1004q27 154 147 251t267 97t232.5 -97t58.5 -251q-27 -156 -148 -255.5t-268 -99.5q-146 0 -231 99.5t-58 255.5zM442 1004q-18 -98 33.5 -159t142.5 -61q90 0 163 61t91 159q17 94 -35.5 153.5t-142.5 59.5q-91 0 -163 -59
t-89 -154z" />
    <glyph glyph-name="guillemotright" unicode="&#xbb;" horiz-adv-x="1011" 
d="M106 53l357 424l-205 424h176l205 -424l-356 -424h-177zM467 53l356 424l-205 424h179l204 -424l-356 -424h-178z" />
    <glyph glyph-name="onequarter" unicode="&#xbc;" horiz-adv-x="1538" 
d="M190 -20l1170 1388h145l-1169 -1388h-146zM279 1081l20 123l295 144l-141 -807h-134l109 608zM836 164l538 635h111l-92 -514h110l-20 -121h-111l-26 -164h-134l27 164h-403zM1069 285h191l53 293z" />
    <glyph glyph-name="onehalf" unicode="&#xbd;" horiz-adv-x="1638" 
d="M190 -20l1170 1388h145l-1169 -1388h-146zM279 1081l20 123l295 144l-141 -807h-134l109 608zM1034 0l8 66l392 387q68 68 75 116q7 49 -23.5 81t-84.5 32q-52 0 -97 -34.5t-63 -92.5l-113 29q33 102 116 163.5t181 61.5q107 0 169 -68t44 -172q-16 -101 -125 -207
q-56 -55 -241 -233h284l-20 -129h-502z" />
    <glyph glyph-name="threequarters" unicode="&#xbe;" horiz-adv-x="1658" 
d="M205 692q50 24 123 62q12 -38 51 -64t82 -28q58 -2 104 30t56 82t-15 89.5t-86 39.5h-106l22 123h94q40 0 69 26t42 58q14 45 -9.5 78t-78.5 33q-63 0 -123 -66q-10 9 -44 38t-44 38q45 58 115.5 90.5t144.5 28.5q98 -4 151 -70t35 -154q-18 -92 -114 -155
q111 -54 82 -201q-24 -111 -118 -176.5t-208 -63.5q-76 2 -140.5 47t-84.5 115zM317 -20l1170 1388h145l-1169 -1388h-146zM958 164l537 635h111l-93 -514h111l-18 -121h-111l-29 -164h-133l29 164h-404zM1190 285h190l54 293z" />
    <glyph glyph-name="questiondown" unicode="&#xbf;" horiz-adv-x="974" 
d="M53 -70q25 143 126 245.5t235 141.5q73 20 111.5 54t49.5 102l23 105h205l-19 -105q-12 -68 -33 -117t-45.5 -78.5t-64 -55t-74.5 -41t-91.5 -43t-102.5 -54.5q-44 -27 -73.5 -69t-37.5 -85q-15 -84 40.5 -137t143.5 -53q86 0 156 60t88 159h203q-23 -128 -96 -226.5
t-175 -150t-216 -51.5q-179 0 -281.5 109.5t-71.5 289.5zM600 840q10 59 59.5 98t110.5 39q60 0 95.5 -39t25.5 -98t-60.5 -99.5t-109.5 -40.5q-61 0 -96 40.5t-25 99.5z" />
    <glyph glyph-name="Agrave" unicode="&#xc0;" horiz-adv-x="1325" 
d="M12 0l781 1411h235l285 -1411h-230l-75 352h-570l-194 -352h-232zM547 547h422l-105 592zM651 1884h238l147 -323h-184z" />
    <glyph glyph-name="Aacute" unicode="&#xc1;" horiz-adv-x="1325" 
d="M12 0l781 1411h235l285 -1411h-230l-75 352h-570l-194 -352h-232zM547 547h422l-105 592zM842 1561l262 323h237l-315 -323h-184z" />
    <glyph glyph-name="Acircumflex" unicode="&#xc2;" horiz-adv-x="1325" 
d="M12 0l781 1411h235l285 -1411h-230l-75 352h-570l-194 -352h-232zM547 547h422l-105 592zM606 1563l281 323h213l170 -323h-178l-125 180l-185 -180h-176z" />
    <glyph glyph-name="Atilde" unicode="&#xc3;" horiz-adv-x="1325" 
d="M12 0l781 1411h235l285 -1411h-230l-75 352h-570l-194 -352h-232zM547 547h422l-105 592zM664 1591q30 128 95 187t136 59q32 0 58.5 -13t41.5 -29t32.5 -29t33.5 -13q20 0 41.5 20t30.5 64h131q-15 -66 -42.5 -114.5t-60 -75t-65 -38.5t-64.5 -12q-30 0 -56.5 13t-41 29
t-32.5 29t-34 13q-19 0 -40.5 -22t-30.5 -68h-133z" />
    <glyph glyph-name="Adieresis" unicode="&#xc4;" horiz-adv-x="1325" 
d="M12 0l781 1411h235l285 -1411h-230l-75 352h-570l-194 -352h-232zM547 547h422l-105 592zM659 1729q9 53 54.5 88.5t101.5 35.5q53 0 84.5 -35.5t22.5 -88.5t-54 -90t-98 -37q-56 0 -88 36.5t-23 90.5zM1010 1729q9 53 54 88.5t101 35.5q55 0 86.5 -35.5t22.5 -88.5
t-54 -90t-100 -37q-56 0 -87.5 36.5t-22.5 90.5z" />
    <glyph glyph-name="Aring" unicode="&#xc5;" horiz-adv-x="1325" 
d="M12 0l781 1411h235l285 -1411h-230l-75 352h-570l-194 -352h-232zM547 547h422l-105 592zM748 1761q17 96 94 162t170 66q95 0 148 -65.5t36 -162.5q-15 -92 -93 -156.5t-173 -64.5q-92 0 -144.5 64t-37.5 157zM862 1761q-8 -43 18 -74.5t70 -31.5q46 0 84.5 31.5
t46.5 74.5q9 47 -17.5 80t-72.5 33q-44 0 -82 -33t-47 -80z" />
    <glyph glyph-name="AE" unicode="&#xc6;" horiz-adv-x="1906" 
d="M-14 0l1138 1411h904l-37 -207h-629l-72 -407h551l-37 -207h-551l-67 -383h651l-38 -207h-865l59 346h-471l-280 -346h-256zM686 555h344l100 557z" />
    <glyph glyph-name="Ccedilla" unicode="&#xc7;" horiz-adv-x="1402" 
d="M221 702q26 148 105.5 282t192 231t255 154.5t289.5 57.5q166 0 294.5 -67t203.5 -186l-189 -132q-58 82 -147.5 129.5t-200.5 47.5q-209 0 -378 -151t-208 -366q-25 -141 18.5 -259t145.5 -186.5t240 -68.5q115 0 222 49t191 136l144 -133q-106 -112 -245.5 -180
t-293.5 -78l33 -95q9 -28 0 -90q-14 -80 -86 -143.5t-162 -63.5q-83 0 -133.5 67t-30.5 171l135 -8q-1 -3 -1.5 -8t-1.5 -19t1 -20q7 -29 32 -41t56 -4q33 13 48.5 41.5t9.5 60.5l-27 154q-177 17 -306 116.5t-184 258t-22 343.5z" />
    <glyph glyph-name="Egrave" unicode="&#xc8;" horiz-adv-x="1161" 
d="M184 0l248 1411h850l-35 -201h-633l-73 -417h553l-37 -199h-553l-70 -395h653l-32 -199h-871zM657 1884h238l147 -323h-184z" />
    <glyph glyph-name="Eacute" unicode="&#xc9;" horiz-adv-x="1161" 
d="M184 0l248 1411h850l-35 -201h-633l-73 -417h553l-37 -199h-553l-70 -395h653l-32 -199h-871zM717 1561l262 323h238l-316 -323h-184z" />
    <glyph glyph-name="Ecircumflex" unicode="&#xca;" horiz-adv-x="1161" 
d="M184 0l248 1411h850l-35 -201h-633l-73 -417h553l-37 -199h-553l-70 -395h653l-32 -199h-871zM522 1563l281 323h213l170 -323h-178l-125 180l-185 -180h-176z" />
    <glyph glyph-name="Edieresis" unicode="&#xcb;" horiz-adv-x="1161" 
d="M184 0l248 1411h850l-35 -201h-633l-73 -417h553l-37 -199h-553l-70 -395h653l-32 -199h-871zM596 1729q9 53 54.5 88.5t101.5 35.5q53 0 84 -35.5t22 -88.5t-53.5 -90t-97.5 -37q-56 0 -88 36.5t-23 90.5zM946 1729q9 53 54.5 88.5t101.5 35.5q54 0 85.5 -35t22.5 -89
t-54 -90.5t-99 -36.5q-56 0 -88 36.5t-23 90.5z" />
    <glyph glyph-name="Igrave" unicode="&#xcc;" horiz-adv-x="585" 
d="M184 0l248 1411h217l-248 -1411h-217zM279 1884h237l148 -323h-185z" />
    <glyph glyph-name="Iacute" unicode="&#xcd;" horiz-adv-x="585" 
d="M184 0l248 1411h217l-248 -1411h-217zM465 1561l262 323h238l-316 -323h-184z" />
    <glyph glyph-name="Icircumflex" unicode="&#xce;" horiz-adv-x="585" 
d="M184 0l248 1411h217l-248 -1411h-217zM238 1563l280 323h213l170 -323h-178l-125 180l-184 -180h-176z" />
    <glyph glyph-name="Idieresis" unicode="&#xcf;" horiz-adv-x="585" 
d="M184 0l248 1411h217l-248 -1411h-217zM291 1729q9 53 54 88.5t101 35.5q53 0 84.5 -35.5t22.5 -88.5t-54 -90t-98 -37q-56 0 -87.5 36.5t-22.5 90.5zM641 1729q9 53 54.5 88.5t101.5 35.5q54 0 85.5 -35t22.5 -89t-54 -90.5t-99 -36.5q-56 0 -88 36.5t-23 90.5z" />
    <glyph glyph-name="Eth" unicode="&#xd0;" horiz-adv-x="1480" 
d="M121 623l29 155h190l111 633h542q196 0 324.5 -94t173 -253.5t8.5 -361.5q-27 -150 -92 -278t-160.5 -222.5t-224.5 -148t-277 -53.5h-542l108 623h-190zM459 209h323q133 0 239.5 66t171 175.5t89.5 251.5t-1 253.5t-109 179t-216 67.5h-323l-74 -424h315l-28 -155h-316
z" />
    <glyph glyph-name="Ntilde" unicode="&#xd1;" horiz-adv-x="1394" 
d="M184 0l248 1411h209l424 -1001l176 1001h217l-248 -1411h-202l-430 1010l-177 -1010h-217zM698 1591q30 128 95 187t137 59q32 0 58.5 -13t41.5 -29t32.5 -29t33.5 -13q19 0 40.5 20t30.5 64h131q-15 -66 -42.5 -114.5t-60 -75t-64.5 -38.5t-64 -12q-30 0 -56.5 13
t-41 29t-32.5 29t-34 13q-19 0 -41 -22t-31 -68h-133z" />
    <glyph glyph-name="Ograve" unicode="&#xd2;" horiz-adv-x="1622" 
d="M219 702q35 198 158 364.5t304 263.5t378 97q148 0 271.5 -57.5t202 -154.5t111 -231t5.5 -282q-36 -197 -160 -363t-306 -262.5t-380 -96.5q-148 0 -270 57t-199.5 154t-109.5 230.5t-5 280.5zM436 702q-25 -140 19 -256.5t146 -184.5t239 -68q138 0 265 68t213.5 184.5
t111.5 256.5t-19.5 257.5t-147.5 186t-241 68.5q-137 0 -263.5 -68.5t-212.5 -186t-110 -257.5zM788 1884h238l145 -323h-184z" />
    <glyph glyph-name="Oacute" unicode="&#xd3;" horiz-adv-x="1622" 
d="M219 702q35 198 158 364.5t304 263.5t378 97q148 0 271.5 -57.5t202 -154.5t111 -231t5.5 -282q-36 -197 -160 -363t-306 -262.5t-380 -96.5q-148 0 -270 57t-199.5 154t-109.5 230.5t-5 280.5zM436 702q-25 -140 19 -256.5t146 -184.5t239 -68q138 0 265 68t213.5 184.5
t111.5 256.5t-19.5 257.5t-147.5 186t-241 68.5q-137 0 -263.5 -68.5t-212.5 -186t-110 -257.5zM985 1561l264 323h238l-318 -323h-184z" />
    <glyph glyph-name="Ocircumflex" unicode="&#xd4;" horiz-adv-x="1622" 
d="M219 702q35 198 158 364.5t304 263.5t378 97q148 0 271.5 -57.5t202 -154.5t111 -231t5.5 -282q-36 -197 -160 -363t-306 -262.5t-380 -96.5q-148 0 -270 57t-199.5 154t-109.5 230.5t-5 280.5zM436 702q-25 -140 19 -256.5t146 -184.5t239 -68q138 0 265 68t213.5 184.5
t111.5 256.5t-19.5 257.5t-147.5 186t-241 68.5q-137 0 -263.5 -68.5t-212.5 -186t-110 -257.5zM754 1563l282 323h213l168 -323h-178l-123 180l-186 -180h-176z" />
    <glyph glyph-name="Otilde" unicode="&#xd5;" horiz-adv-x="1622" 
d="M219 702q35 198 158 364.5t304 263.5t378 97q148 0 271.5 -57.5t202 -154.5t111 -231t5.5 -282q-36 -197 -160 -363t-306 -262.5t-380 -96.5q-148 0 -270 57t-199.5 154t-109.5 230.5t-5 280.5zM436 702q-25 -140 19 -256.5t146 -184.5t239 -68q138 0 265 68t213.5 184.5
t111.5 256.5t-19.5 257.5t-147.5 186t-241 68.5q-137 0 -263.5 -68.5t-212.5 -186t-110 -257.5zM813 1591q19 88 60 145.5t83.5 79t87.5 21.5q32 0 58.5 -13t41.5 -29t32.5 -29t33.5 -13q19 0 40 20t32 64h131q-31 -126 -95.5 -183t-135.5 -57q-30 0 -56.5 13t-42 29
t-33.5 29t-34 13q-19 0 -40.5 -22t-29.5 -68h-133z" />
    <glyph glyph-name="Odieresis" unicode="&#xd6;" horiz-adv-x="1622" 
d="M219 702q35 198 158 364.5t304 263.5t378 97q148 0 271.5 -57.5t202 -154.5t111 -231t5.5 -282q-36 -197 -160 -363t-306 -262.5t-380 -96.5q-148 0 -270 57t-199.5 154t-109.5 230.5t-5 280.5zM436 702q-25 -140 19 -256.5t146 -184.5t239 -68q138 0 265 68t213.5 184.5
t111.5 256.5t-19.5 257.5t-147.5 186t-241 68.5q-137 0 -263.5 -68.5t-212.5 -186t-110 -257.5zM807 1729q9 53 55 88.5t103 35.5q53 0 83 -35t21 -89t-52.5 -90.5t-96.5 -36.5q-56 0 -89 36.5t-24 90.5zM1157 1729q9 53 55 88.5t103 35.5q54 0 84.5 -35t21.5 -89t-53 -90.5
t-98 -36.5q-56 0 -89 36.5t-24 90.5z" />
    <glyph glyph-name="multiply" unicode="&#xd7;" horiz-adv-x="1013" 
d="M178 301l297 250l-207 250l154 129l205 -248l297 252l106 -133l-295 -250l205 -250l-154 -133l-206 252l-293 -248z" />
    <glyph glyph-name="Oslash" unicode="&#xd8;" horiz-adv-x="1617" 
d="M109 63l196 168q-138 199 -88 471q27 148 106 282t190.5 231t253.5 154.5t290 57.5q129 0 239.5 -43.5t190.5 -121.5l190 165l80 -94l-192 -168q128 -203 82 -463q-36 -197 -160 -363t-306 -262.5t-380 -96.5q-207 0 -357 106q-4 3 -63 49l-193 -168zM434 702
q-30 -179 45 -315l828 719q-111 108 -287 108q-137 0 -263.5 -68.5t-212.5 -186t-110 -257.5zM559 291q112 -98 279 -98q138 0 264.5 68t213 184.5t111.5 256.5q30 172 -45 306z" />
    <glyph glyph-name="Ugrave" unicode="&#xd9;" horiz-adv-x="1386" 
d="M252 489l166 922h221l-166 -922q-23 -133 52 -217t200 -84t227.5 84t126.5 217l164 922h221l-164 -922q-27 -150 -119.5 -267.5t-222 -179.5t-270.5 -62q-106 0 -195 36.5t-149 101.5t-85.5 161.5t-6.5 209.5zM702 1884h238l147 -323h-184z" />
    <glyph glyph-name="Uacute" unicode="&#xda;" horiz-adv-x="1386" 
d="M252 489l166 922h221l-166 -922q-23 -133 52 -217t200 -84t227.5 84t126.5 217l164 922h221l-164 -922q-27 -150 -119.5 -267.5t-222 -179.5t-270.5 -62q-106 0 -195 36.5t-149 101.5t-85.5 161.5t-6.5 209.5zM827 1561l263 323h237l-315 -323h-185z" />
    <glyph glyph-name="Ucircumflex" unicode="&#xdb;" horiz-adv-x="1386" 
d="M252 489l166 922h221l-166 -922q-23 -133 52 -217t200 -84t227.5 84t126.5 217l164 922h221l-164 -922q-27 -150 -119.5 -267.5t-222 -179.5t-270.5 -62q-106 0 -195 36.5t-149 101.5t-85.5 161.5t-6.5 209.5zM635 1563l280 323h213l170 -323h-178l-123 180l-186 -180
h-176z" />
    <glyph glyph-name="Udieresis" unicode="&#xdc;" horiz-adv-x="1386" 
d="M252 489l166 922h221l-166 -922q-23 -133 52 -217t200 -84t227.5 84t126.5 217l164 922h221l-164 -922q-27 -150 -119.5 -267.5t-222 -179.5t-270.5 -62q-106 0 -195 36.5t-149 101.5t-85.5 161.5t-6.5 209.5zM688 1729q9 53 55 88.5t103 35.5q53 0 83 -35t21 -89
t-52.5 -90.5t-96.5 -36.5q-56 0 -89 36.5t-24 90.5zM1038 1729q9 53 55 88.5t103 35.5q54 0 85 -35t22 -89t-53.5 -90.5t-98.5 -36.5q-56 0 -89 36.5t-24 90.5z" />
    <glyph glyph-name="Yacute" unicode="&#xdd;" horiz-adv-x="1298" 
d="M248 1411h260l291 -561l491 561h260l-678 -766l-112 -645h-223l114 647zM786 1561l263 323h237l-315 -323h-185z" />
    <glyph glyph-name="Thorn" unicode="&#xde;" horiz-adv-x="1171" 
d="M184 0l248 1411h217l-43 -246h266q187 0 292 -121.5t69 -318.5q-36 -200 -183.5 -324.5t-334.5 -124.5h-266l-48 -276h-217zM483 477h262q94 0 172.5 69t98.5 177q20 110 -38.5 177t-156.5 67h-250z" />
    <glyph glyph-name="germandbls" unicode="&#xdf;" horiz-adv-x="1157" 
d="M147 0l179 1004q34 198 167 310.5t314 112.5q172 0 271.5 -98.5t72.5 -249.5q-16 -85 -59 -141.5t-115 -103.5q95 -51 144 -157.5t28 -230.5q-34 -198 -190.5 -332t-364.5 -134q-78 -3 -164 26l51 199q80 -27 146 -27q116 0 209 82t112 191q18 102 -45.5 186t-181.5 84
h-72l33 176h63q72 0 130.5 51t70.5 121t-33 114t-127 46q-102 0 -174 -72.5t-90 -175.5l-172 -981h-203z" />
    <glyph glyph-name="agrave" unicode="&#xe0;" horiz-adv-x="1249" 
d="M170 479q26 148 114 263t208.5 175t250.5 60q95 0 179 -39.5t116 -116.5l23 135h209l-168 -956h-209l22 137q-59 -74 -156 -115.5t-192 -41.5q-97 0 -178.5 35.5t-137 99t-78 158.5t-3.5 206zM387 481q-23 -130 48 -213.5t194 -83.5q122 0 222 80.5t124 216.5
q23 133 -51.5 212t-190.5 79q-123 0 -222.5 -81t-123.5 -210zM578 1430h237l148 -324h-185z" />
    <glyph glyph-name="aacute" unicode="&#xe1;" horiz-adv-x="1249" 
d="M170 479q26 148 114 263t208.5 175t250.5 60q95 0 179 -39.5t116 -116.5l23 135h209l-168 -956h-209l22 137q-59 -74 -156 -115.5t-192 -41.5q-97 0 -178.5 35.5t-137 99t-78 158.5t-3.5 206zM387 481q-23 -130 48 -213.5t194 -83.5q122 0 222 80.5t124 216.5
q23 133 -51.5 212t-190.5 79q-123 0 -222.5 -81t-123.5 -210zM672 1106l262 324h237l-315 -324h-184z" />
    <glyph glyph-name="acircumflex" unicode="&#xe2;" horiz-adv-x="1249" 
d="M170 479q26 148 114 263t208.5 175t250.5 60q95 0 179 -39.5t116 -116.5l23 135h209l-168 -956h-209l22 137q-59 -74 -156 -115.5t-192 -41.5q-97 0 -178.5 35.5t-137 99t-78 158.5t-3.5 206zM387 481q-23 -130 48 -213.5t194 -83.5q122 0 222 80.5t124 216.5
q23 133 -51.5 212t-190.5 79q-123 0 -222.5 -81t-123.5 -210zM487 1108l283 324h213l168 -324h-178l-121 180l-188 -180h-177z" />
    <glyph glyph-name="atilde" unicode="&#xe3;" horiz-adv-x="1249" 
d="M170 479q26 148 114 263t208.5 175t250.5 60q95 0 179 -39.5t116 -116.5l23 135h209l-168 -956h-209l22 137q-59 -74 -156 -115.5t-192 -41.5q-97 0 -178.5 35.5t-137 99t-78 158.5t-3.5 206zM387 481q-23 -130 48 -213.5t194 -83.5q122 0 222 80.5t124 216.5
q23 133 -51.5 212t-190.5 79q-123 0 -222.5 -81t-123.5 -210zM547 1137q30 128 95.5 186.5t137.5 58.5q32 0 58 -13t40 -29t31 -29t33 -13q20 0 42.5 20t33.5 64h131q-31 -126 -95.5 -182.5t-135.5 -56.5q-30 0 -56.5 13t-42 29t-33.5 29t-34 13q-20 0 -42 -22t-30 -68h-133
z" />
    <glyph glyph-name="adieresis" unicode="&#xe4;" horiz-adv-x="1249" 
d="M170 479q26 148 114 263t208.5 175t250.5 60q95 0 179 -39.5t116 -116.5l23 135h209l-168 -956h-209l22 137q-59 -74 -156 -115.5t-192 -41.5q-97 0 -178.5 35.5t-137 99t-78 158.5t-3.5 206zM387 481q-23 -130 48 -213.5t194 -83.5q122 0 222 80.5t124 216.5
q23 133 -51.5 212t-190.5 79q-123 0 -222.5 -81t-123.5 -210zM543 1274q9 53 55 89t102 36q53 0 83.5 -35.5t21.5 -89.5q-9 -53 -53 -90t-97 -37q-56 0 -88.5 36.5t-23.5 90.5zM893 1274q9 53 55.5 89t102.5 36q54 0 84.5 -35.5t21.5 -89.5t-53 -90.5t-98 -36.5
q-56 0 -89 36.5t-24 90.5z" />
    <glyph glyph-name="aring" unicode="&#xe5;" horiz-adv-x="1249" 
d="M170 479q26 148 114 263t208.5 175t250.5 60q95 0 179 -39.5t116 -116.5l23 135h209l-168 -956h-209l22 137q-59 -74 -156 -115.5t-192 -41.5q-97 0 -178.5 35.5t-137 99t-78 158.5t-3.5 206zM387 481q-23 -130 48 -213.5t194 -83.5q122 0 222 80.5t124 216.5
q23 133 -51.5 212t-190.5 79q-123 0 -222.5 -81t-123.5 -210zM629 1307q19 97 94.5 162t167.5 65q96 0 150.5 -65.5t35.5 -161.5q-17 -93 -94 -157.5t-172 -64.5q-92 0 -145.5 65t-36.5 157zM745 1307q-8 -43 17 -75t69 -32q46 0 86.5 32t47.5 75q9 47 -19.5 79.5
t-75.5 32.5q-44 0 -80 -32.5t-45 -79.5z" />
    <glyph glyph-name="ae" unicode="&#xe6;" horiz-adv-x="1984" 
d="M170 479q26 148 114 263t208.5 175t250.5 60q95 0 179 -39.5t116 -116.5l23 135h203l-19 -106q159 127 357 127q208 0 319 -136t72 -360q-6 -35 -19 -78h-757q-4 -110 64.5 -174.5t186.5 -64.5q82 0 160.5 36.5t124.5 100.5q42 -23 160 -76q-84 -121 -215 -183t-273 -62
q-98 0 -178.5 33.5t-130.5 95.5l-20 -109h-203l22 137q-59 -74 -156 -115.5t-192 -41.5q-97 0 -178.5 35.5t-137 99t-78 158.5t-3.5 206zM387 481q-23 -130 48 -213.5t194 -83.5q122 0 222 80.5t124 216.5q23 133 -51.5 212t-190.5 79q-123 0 -222.5 -81t-123.5 -210z
M1245 557h553q4 109 -57.5 172.5t-169.5 63.5q-112 0 -202.5 -64t-123.5 -172z" />
    <glyph glyph-name="ccedilla" unicode="&#xe7;" horiz-adv-x="1054" 
d="M170 481q26 147 117 261.5t217 174.5t264 60q114 0 206 -43.5t146 -122.5l-188 -131q-67 92 -199 92q-124 0 -227 -80.5t-127 -210.5q-23 -130 51 -214.5t197 -84.5q63 0 125 25t106 69l143 -129q-144 -141 -348 -163l35 -97q10 -24 0 -90q-14 -80 -86 -143.5t-162 -63.5
q-83 0 -133.5 67t-30.5 171l136 -8q-1 -3 -1.5 -8t-1.5 -19t1 -20q7 -29 32 -41t56 -4q33 13 48 41.5t9 60.5l-27 154q-91 11 -165 51t-123 103t-68.5 152t-1.5 191z" />
    <glyph glyph-name="egrave" unicode="&#xe8;" horiz-adv-x="1132" 
d="M168 481q39 222 205 359t375 137q208 0 319 -136t72 -360q-9 -51 -17 -78h-760q-4 -109 65.5 -174t186.5 -65q82 0 160.5 36.5t124.5 100.5q42 -23 160 -76q-84 -121 -215 -183t-273 -62q-208 0 -325 139t-78 362zM391 557h555q3 111 -59 173.5t-170 62.5
q-112 0 -201.5 -63.5t-124.5 -172.5zM498 1430h237l148 -324h-185z" />
    <glyph glyph-name="eacute" unicode="&#xe9;" horiz-adv-x="1132" 
d="M168 481q39 222 205 359t375 137q208 0 319 -136t72 -360q-9 -51 -17 -78h-760q-4 -109 65.5 -174t186.5 -65q82 0 160.5 36.5t124.5 100.5q42 -23 160 -76q-84 -121 -215 -183t-273 -62q-208 0 -325 139t-78 362zM391 557h555q3 111 -59 173.5t-170 62.5
q-112 0 -201.5 -63.5t-124.5 -172.5zM637 1106l262 324h238l-316 -324h-184z" />
    <glyph glyph-name="ecircumflex" unicode="&#xea;" horiz-adv-x="1132" 
d="M168 481q39 222 205 359t375 137q208 0 319 -136t72 -360q-9 -51 -17 -78h-760q-4 -109 65.5 -174t186.5 -65q82 0 160.5 36.5t124.5 100.5q42 -23 160 -76q-84 -121 -215 -183t-273 -62q-208 0 -325 139t-78 362zM391 557h555q3 111 -59 173.5t-170 62.5
q-112 0 -201.5 -63.5t-124.5 -172.5zM432 1108l283 324h213l168 -324h-178l-121 180l-189 -180h-176z" />
    <glyph glyph-name="edieresis" unicode="&#xeb;" horiz-adv-x="1132" 
d="M168 481q39 222 205 359t375 137q208 0 319 -136t72 -360q-9 -51 -17 -78h-760q-4 -109 65.5 -174t186.5 -65q82 0 160.5 36.5t124.5 100.5q42 -23 160 -76q-84 -121 -215 -183t-273 -62q-208 0 -325 139t-78 362zM391 557h555q3 111 -59 173.5t-170 62.5
q-112 0 -201.5 -63.5t-124.5 -172.5zM487 1274q9 53 55.5 89t102.5 36q53 0 83.5 -35.5t21.5 -89.5q-9 -53 -53 -90t-97 -37q-56 0 -89 36.5t-24 90.5zM838 1274q9 53 55 89t102 36q54 0 85 -35.5t22 -89.5t-53.5 -90.5t-98.5 -36.5q-56 0 -88.5 36.5t-23.5 90.5z" />
    <glyph glyph-name="igrave" unicode="&#xec;" horiz-adv-x="503" 
d="M147 0l168 956h209l-168 -956h-209zM160 1430h237l148 -324h-185z" />
    <glyph glyph-name="iacute" unicode="&#xed;" horiz-adv-x="503" 
d="M147 0l168 956h209l-168 -956h-209zM348 1106l262 324h238l-316 -324h-184z" />
    <glyph glyph-name="icircumflex" unicode="&#xee;" horiz-adv-x="503" 
d="M94 1108l283 324h213l168 -324h-178l-123 180l-187 -180h-176zM147 0l168 956h209l-168 -956h-209z" />
    <glyph glyph-name="idieresis" unicode="&#xef;" horiz-adv-x="503" 
d="M147 0l168 956h209l-168 -956h-209zM150 1274q9 53 54 89t101 36q53 0 84.5 -36t22.5 -89t-54 -90t-98 -37q-56 0 -87.5 36.5t-22.5 90.5zM500 1274q9 53 54 89t101 36q54 0 86 -35.5t23 -89.5q-9 -53 -54 -90t-100 -37q-56 0 -87.5 36.5t-22.5 90.5z" />
    <glyph glyph-name="eth" unicode="&#xf0;" horiz-adv-x="1171" 
d="M168 481q39 213 199.5 351.5t351.5 138.5q43 0 78 -15l-113 164l-192 -100l-48 96l181 96l-117 199h229l64 -104l160 79l55 -86l-154 -86l262 -434q71 -124 41 -299q-26 -147 -114 -262.5t-211.5 -177t-259.5 -61.5q-101 0 -186 36.5t-142 101t-80 159t-4 204.5zM371 481
q-23 -132 48 -215.5t195 -83.5t226 83.5t125 215.5q23 131 -48.5 212t-195.5 81q-125 0 -226 -81t-124 -212z" />
    <glyph glyph-name="ntilde" unicode="&#xf1;" horiz-adv-x="1153" 
d="M147 0l168 956h211l-24 -143q52 78 143 121t178 43q174 0 249 -109t40 -311l-96 -557h-211l92 532q20 113 -23.5 175.5t-136.5 62.5q-49 0 -93.5 -14t-84.5 -43t-69 -80t-41 -119l-91 -514h-211zM502 1137q31 128 96 186.5t137 58.5q32 0 58.5 -13t40.5 -29t31.5 -29
t33.5 -13q20 0 42.5 20t31.5 64h131q-20 -86 -61.5 -142.5t-84 -76.5t-86.5 -20q-30 0 -56 13t-41 29t-32.5 29t-33.5 13q-19 0 -42 -22t-32 -68h-133z" />
    <glyph glyph-name="ograve" unicode="&#xf2;" horiz-adv-x="1171" 
d="M168 481q39 221 208 358.5t378 137.5q102 0 186.5 -35.5t142 -98.5t80.5 -157t4 -205q-26 -147 -115 -263t-213.5 -177t-260.5 -61q-101 0 -185.5 36t-141 100.5t-79.5 159t-4 205.5zM377 481q-24 -132 45.5 -214.5t191.5 -82.5q123 0 220.5 82.5t121.5 214.5
q23 129 -46.5 209t-192.5 80q-122 0 -219.5 -80t-120.5 -209zM473 1430h238l147 -324h-184z" />
    <glyph glyph-name="oacute" unicode="&#xf3;" horiz-adv-x="1171" 
d="M168 481q39 221 208 358.5t378 137.5q102 0 186.5 -35.5t142 -98.5t80.5 -157t4 -205q-26 -147 -115 -263t-213.5 -177t-260.5 -61q-101 0 -185.5 36t-141 100.5t-79.5 159t-4 205.5zM377 481q-24 -132 45.5 -214.5t191.5 -82.5q123 0 220.5 82.5t121.5 214.5
q23 129 -46.5 209t-192.5 80q-122 0 -219.5 -80t-120.5 -209zM678 1106l262 324h238l-316 -324h-184z" />
    <glyph glyph-name="ocircumflex" unicode="&#xf4;" horiz-adv-x="1171" 
d="M168 481q39 221 208 358.5t378 137.5q102 0 186.5 -35.5t142 -98.5t80.5 -157t4 -205q-26 -147 -115 -263t-213.5 -177t-260.5 -61q-101 0 -185.5 36t-141 100.5t-79.5 159t-4 205.5zM377 481q-24 -132 45.5 -214.5t191.5 -82.5q123 0 220.5 82.5t121.5 214.5
q23 129 -46.5 209t-192.5 80q-122 0 -219.5 -80t-120.5 -209zM446 1108l283 324h213l168 -324h-178l-121 180l-188 -180h-177z" />
    <glyph glyph-name="otilde" unicode="&#xf5;" horiz-adv-x="1171" 
d="M168 481q39 221 208 358.5t378 137.5q102 0 186.5 -35.5t142 -98.5t80.5 -157t4 -205q-26 -147 -115 -263t-213.5 -177t-260.5 -61q-101 0 -185.5 36t-141 100.5t-79.5 159t-4 205.5zM377 481q-24 -132 45.5 -214.5t191.5 -82.5q123 0 220.5 82.5t121.5 214.5
q23 129 -46.5 209t-192.5 80q-122 0 -219.5 -80t-120.5 -209zM506 1137q30 128 95.5 186.5t137.5 58.5q32 0 58 -13t40 -29t31 -29t33 -13q20 0 42.5 20t33.5 64h131q-31 -126 -95.5 -182.5t-135.5 -56.5q-30 0 -56.5 13t-42 29t-33.5 29t-34 13q-19 0 -41.5 -22t-30.5 -68
h-133z" />
    <glyph glyph-name="odieresis" unicode="&#xf6;" horiz-adv-x="1171" 
d="M168 481q39 221 208 358.5t378 137.5q102 0 186.5 -35.5t142 -98.5t80.5 -157t4 -205q-26 -147 -115 -263t-213.5 -177t-260.5 -61q-101 0 -185.5 36t-141 100.5t-79.5 159t-4 205.5zM377 481q-24 -132 45.5 -214.5t191.5 -82.5q123 0 220.5 82.5t121.5 214.5
q23 129 -46.5 209t-192.5 80q-122 0 -219.5 -80t-120.5 -209zM502 1274q9 53 55 89t102 36q53 0 83.5 -35.5t21.5 -89.5q-9 -53 -53 -90t-97 -37q-56 0 -88.5 36.5t-23.5 90.5zM852 1274q9 53 55.5 89t102.5 36q54 0 84.5 -35.5t21.5 -89.5t-53 -90.5t-98 -36.5
q-56 0 -89 36.5t-24 90.5z" />
    <glyph glyph-name="divide" unicode="&#xf7;" horiz-adv-x="1122" 
d="M197 428l28 176h877l-29 -176h-876zM446 172q9 57 58.5 96t107.5 39t92 -38.5t25 -96.5q-9 -57 -58.5 -96t-107.5 -39t-92 38.5t-25 96.5zM571 868q9 57 57.5 95t106.5 38t93 -37.5t26 -95.5q-9 -57 -58.5 -96t-107.5 -39t-92 38.5t-25 96.5z" />
    <glyph glyph-name="oslash" unicode="&#xf8;" horiz-adv-x="1171" 
d="M84 45l135 117q-85 134 -51 319q27 147 116 261.5t212.5 174.5t259.5 60q166 0 291 -98l122 106l80 -94l-123 -107q72 -130 43 -303q-26 -147 -115 -263t-213.5 -177t-260.5 -61q-169 0 -277 88l-139 -119zM379 481q-19 -103 16 -166l475 412q-61 43 -151 43
q-122 0 -219.5 -80t-120.5 -209zM477 221q58 -37 139 -37q123 0 221 82.5t121 214.5q14 77 -10 148z" />
    <glyph glyph-name="ugrave" unicode="&#xf9;" horiz-adv-x="1150" 
d="M207 399l98 557h211l-94 -532q-21 -115 23.5 -177.5t134.5 -62.5q38 0 74 8.5t71 28t63 48.5t49 73.5t31 99.5l93 514h210l-167 -956h-211l22 139q-52 -77 -141 -118t-172 -41q-176 0 -254.5 109t-40.5 310zM502 1430h237l148 -324h-185z" />
    <glyph glyph-name="uacute" unicode="&#xfa;" horiz-adv-x="1150" 
d="M207 399l98 557h211l-94 -532q-21 -115 23.5 -177.5t134.5 -62.5q38 0 74 8.5t71 28t63 48.5t49 73.5t31 99.5l93 514h210l-167 -956h-211l22 139q-52 -77 -141 -118t-172 -41q-176 0 -254.5 109t-40.5 310zM631 1106l262 324h237l-315 -324h-184z" />
    <glyph glyph-name="ucircumflex" unicode="&#xfb;" horiz-adv-x="1150" 
d="M207 399l98 557h211l-94 -532q-21 -115 23.5 -177.5t134.5 -62.5q38 0 74 8.5t71 28t63 48.5t49 73.5t31 99.5l93 514h210l-167 -956h-211l22 139q-52 -77 -141 -118t-172 -41q-176 0 -254.5 109t-40.5 310zM432 1108l283 324h213l168 -324h-178l-123 180l-187 -180h-176
z" />
    <glyph glyph-name="udieresis" unicode="&#xfc;" horiz-adv-x="1150" 
d="M207 399l98 557h211l-94 -532q-21 -115 23.5 -177.5t134.5 -62.5q38 0 74 8.5t71 28t63 48.5t49 73.5t31 99.5l93 514h210l-167 -956h-211l22 139q-52 -77 -141 -118t-172 -41q-176 0 -254.5 109t-40.5 310zM487 1274q9 53 54.5 89t101.5 36q53 0 84.5 -36t22.5 -89
t-54 -90t-98 -37q-56 0 -88 36.5t-23 90.5zM838 1274q9 53 54 89t101 36q54 0 86 -35.5t23 -89.5q-9 -53 -54 -90t-100 -37q-56 0 -87.5 36.5t-22.5 90.5z" />
    <glyph glyph-name="yacute" unicode="&#xfd;" horiz-adv-x="1038" 
d="M113 -467l299 512l-217 911h225l149 -655l385 655h226l-846 -1423h-221zM553 1106l262 324h238l-316 -324h-184z" />
    <glyph glyph-name="thorn" unicode="&#xfe;" horiz-adv-x="1230" 
d="M66 -444l344 1919h211l-117 -637q58 67 147.5 103t182.5 36q204 0 317.5 -138t73.5 -362q-39 -221 -202.5 -359t-367.5 -138q-92 0 -168.5 37t-109.5 104l-101 -565h-210zM442 479q-24 -135 47 -215t193 -80q120 0 214.5 83t117.5 212q24 130 -42.5 210.5t-187.5 80.5
q-114 0 -215.5 -79t-126.5 -212z" />
    <glyph glyph-name="ydieresis" unicode="&#xff;" horiz-adv-x="1038" 
d="M113 -467l299 512l-217 911h225l149 -655l385 655h226l-846 -1423h-221zM444 1294q9 53 54.5 89t101.5 36q53 0 84.5 -36t22.5 -89t-53 -90t-97 -37q-56 0 -89 36.5t-24 90.5zM795 1294q9 53 54 89t101 36q54 0 86 -35.5t23 -89.5t-53.5 -90.5t-98.5 -36.5
q-56 0 -88.5 36.5t-23.5 90.5z" />
    <glyph glyph-name="Amacron" unicode="&#x100;" horiz-adv-x="1325" 
d="M12 0l781 1411h235l285 -1411h-230l-75 352h-570l-194 -352h-232zM547 547h422l-105 592zM684 1626l29 166h528l-29 -166h-528z" />
    <glyph glyph-name="amacron" unicode="&#x101;" horiz-adv-x="1249" 
d="M170 479q26 148 114 263t208.5 175t250.5 60q95 0 179 -39.5t116 -116.5l23 135h209l-168 -956h-209l22 137q-59 -74 -156 -115.5t-192 -41.5q-97 0 -178.5 35.5t-137 99t-78 158.5t-3.5 206zM387 481q-23 -130 48 -213.5t194 -83.5q122 0 222 80.5t124 216.5
q23 133 -51.5 212t-190.5 79q-123 0 -222.5 -81t-123.5 -210zM567 1171l29 166h528l-28 -166h-529z" />
    <glyph glyph-name="Abreve" unicode="&#x102;" horiz-adv-x="1325" 
d="M12 0l781 1411h235l285 -1411h-230l-75 352h-570l-194 -352h-232zM547 547h422l-105 592zM717 1835h157q-9 -54 14.5 -85.5t76.5 -31.5q51 0 87 35.5t44 81.5h159q-22 -121 -107.5 -191.5t-207.5 -70.5q-90 0 -145.5 38t-72.5 95.5t-5 128.5z" />
    <glyph glyph-name="abreve" unicode="&#x103;" horiz-adv-x="1249" 
d="M170 479q26 148 114 263t208.5 175t250.5 60q95 0 179 -39.5t116 -116.5l23 135h209l-168 -956h-209l22 137q-59 -74 -156 -115.5t-192 -41.5q-97 0 -178.5 35.5t-137 99t-78 158.5t-3.5 206zM387 481q-23 -130 48 -213.5t194 -83.5q122 0 222 80.5t124 216.5
q23 133 -51.5 212t-190.5 79q-123 0 -222.5 -81t-123.5 -210zM600 1380h158q-11 -53 13 -84.5t77 -31.5q51 0 86 34.5t45 81.5h160q-23 -121 -109.5 -191.5t-208.5 -70.5q-133 0 -187 76t-34 186z" />
    <glyph glyph-name="Aogonek" unicode="&#x104;" horiz-adv-x="1325" 
d="M12 0l781 1411h235l285 -1411h-107l-92 -170q-18 -30 -13 -59.5t32 -42.5q29 -8 58 4t46 41q4 8 8 19.5t6 19.5l2 8l138 8q-18 -104 -92.5 -171t-157.5 -67q-90 0 -139 63.5t-35 143.5q7 47 32 90l84 113l-75 352h-570l-194 -352h-232zM547 547h422l-105 592z" />
    <glyph glyph-name="aogonek" unicode="&#x105;" horiz-adv-x="1249" 
d="M170 479q26 148 114 263t208.5 175t250.5 60q95 0 179 -39.5t116 -116.5l23 135h209l-168 -956h-86l-92 -170q-18 -31 -12.5 -60t32.5 -42q29 -8 58.5 4.5t46.5 40.5q4 8 7.5 19.5t5.5 19.5l1 8l139 8q-20 -104 -93.5 -171t-156.5 -67q-90 0 -140 63.5t-36 143.5
q5 37 33 90l84 113l22 137q-59 -74 -156 -115.5t-192 -41.5q-97 0 -178.5 35.5t-137 99t-78 158.5t-3.5 206zM387 481q-23 -130 48 -213.5t194 -83.5q122 0 222 80.5t124 216.5q23 133 -51.5 212t-190.5 79q-123 0 -222.5 -81t-123.5 -210z" />
    <glyph glyph-name="Cacute" unicode="&#x106;" horiz-adv-x="1400" 
d="M219 702q27 148 106 282t191 231t254 154.5t289 57.5q166 0 295.5 -67t204.5 -186l-189 -132q-58 82 -147.5 129.5t-200.5 47.5q-209 0 -378 -151t-208 -366q-25 -141 18.5 -259t145.5 -186.5t240 -68.5q114 0 220.5 49t190.5 136l146 -133q-114 -122 -269.5 -191
t-324.5 -69q-147 0 -269 57t-200 154t-110 230.5t-5 280.5zM942 1561l264 323h238l-318 -323h-184z" />
    <glyph glyph-name="cacute" unicode="&#x107;" horiz-adv-x="1052" 
d="M168 481q26 147 117 261.5t217 174.5t264 60q114 0 206 -43.5t146 -122.5l-188 -131q-67 92 -199 92q-124 0 -227 -80.5t-127 -210.5q-23 -130 51 -214.5t197 -84.5q63 0 125 25t106 69l143 -129q-82 -80 -188 -123.5t-221 -43.5q-102 0 -188.5 36t-145 100.5t-83 159
t-5.5 205.5zM637 1106l262 324h238l-316 -324h-184z" />
    <glyph glyph-name="Ccircumflex" unicode="&#x108;" horiz-adv-x="1400" 
d="M219 702q27 148 106 282t191 231t254 154.5t289 57.5q166 0 295.5 -67t204.5 -186l-189 -132q-58 82 -147.5 129.5t-200.5 47.5q-209 0 -378 -151t-208 -366q-25 -141 18.5 -259t145.5 -186.5t240 -68.5q114 0 220.5 49t190.5 136l146 -133q-114 -122 -269.5 -191
t-324.5 -69q-147 0 -269 57t-200 154t-110 230.5t-5 280.5zM737 1563l283 323h213l168 -323h-178l-123 180l-187 -180h-176z" />
    <glyph glyph-name="ccircumflex" unicode="&#x109;" horiz-adv-x="1052" 
d="M168 481q26 147 117 261.5t217 174.5t264 60q114 0 206 -43.5t146 -122.5l-188 -131q-67 92 -199 92q-124 0 -227 -80.5t-127 -210.5q-23 -130 51 -214.5t197 -84.5q63 0 125 25t106 69l143 -129q-82 -80 -188 -123.5t-221 -43.5q-102 0 -188.5 36t-145 100.5t-83 159
t-5.5 205.5zM430 1108l283 324h213l168 -324h-179l-120 180l-189 -180h-176z" />
    <glyph glyph-name="Cdotaccent" unicode="&#x10a;" horiz-adv-x="1400" 
d="M219 702q27 148 106 282t191 231t254 154.5t289 57.5q166 0 295.5 -67t204.5 -186l-189 -132q-58 82 -147.5 129.5t-200.5 47.5q-209 0 -378 -151t-208 -366q-25 -141 18.5 -259t145.5 -186.5t240 -68.5q114 0 220.5 49t190.5 136l146 -133q-114 -122 -269.5 -191
t-324.5 -69q-147 0 -269 57t-200 154t-110 230.5t-5 280.5zM893 1745q9 55 56 92t104 37t89 -37t23 -92t-55 -92t-104 -37q-56 0 -89 37t-24 92z" />
    <glyph glyph-name="cdotaccent" unicode="&#x10b;" horiz-adv-x="1052" 
d="M168 481q26 147 117 261.5t217 174.5t264 60q114 0 206 -43.5t146 -122.5l-188 -131q-67 92 -199 92q-124 0 -227 -80.5t-127 -210.5q-23 -130 51 -214.5t197 -84.5q63 0 125 25t106 69l143 -129q-82 -80 -188 -123.5t-221 -43.5q-102 0 -188.5 36t-145 100.5t-83 159
t-5.5 205.5zM608 1290q9 55 54.5 92t101.5 37q58 0 92 -37t25 -92t-55.5 -92t-104.5 -37q-56 0 -89 37t-24 92z" />
    <glyph glyph-name="Ccaron" unicode="&#x10c;" horiz-adv-x="1400" 
d="M219 702q27 148 106 282t191 231t254 154.5t289 57.5q166 0 295.5 -67t204.5 -186l-189 -132q-58 82 -147.5 129.5t-200.5 47.5q-209 0 -378 -151t-208 -366q-25 -141 18.5 -259t145.5 -186.5t240 -68.5q114 0 220.5 49t190.5 136l146 -133q-114 -122 -269.5 -191
t-324.5 -69q-147 0 -269 57t-200 154t-110 230.5t-5 280.5zM780 1882h176l121 -178l189 178h178l-285 -321h-213z" />
    <glyph glyph-name="ccaron" unicode="&#x10d;" horiz-adv-x="1052" 
d="M168 481q26 147 117 261.5t217 174.5t264 60q114 0 206 -43.5t146 -122.5l-188 -131q-67 92 -199 92q-124 0 -227 -80.5t-127 -210.5q-23 -130 51 -214.5t197 -84.5q63 0 125 25t106 69l143 -129q-82 -80 -188 -123.5t-221 -43.5q-102 0 -188.5 36t-145 100.5t-83 159
t-5.5 205.5zM485 1427h177l122 -178l187 178h178l-283 -321h-213z" />
    <glyph glyph-name="Dcaron" unicode="&#x10e;" horiz-adv-x="1472" 
d="M184 0l248 1411h549q196 0 325 -94t175 -253.5t10 -361.5q-27 -150 -93 -278t-162 -222.5t-226 -148t-277 -53.5h-549zM434 201h332q134 0 242 67.5t174 179t92 254.5t0 256t-110 181.5t-218 68.5h-332zM731 1882h176l121 -178l189 178h178l-283 -321h-213z" />
    <glyph glyph-name="dcaron" unicode="&#x10f;" horiz-adv-x="1320" 
d="M170 477q27 149 113 264.5t204 175.5t248 60q105 0 186.5 -41t112.5 -117l115 658h209l-260 -1477h-209l20 139q-57 -75 -153 -117t-197 -42q-96 0 -176.5 36t-134.5 99.5t-75.5 157.5t-2.5 204zM387 481q-23 -130 45.5 -213.5t190.5 -83.5t221 81t123 216
q13 68 -2.5 124.5t-51 92t-84 55t-102.5 19.5q-122 0 -219 -80.5t-121 -210.5zM1343 954q186 211 226 457h186q-39 -163 -131.5 -301.5t-177.5 -200.5z" />
    <glyph glyph-name="Dcroat" unicode="&#x110;" horiz-adv-x="1480" 
d="M121 623l29 155h190l111 633h542q196 0 324.5 -94t173 -253.5t8.5 -361.5q-27 -150 -92 -278t-160.5 -222.5t-224.5 -148t-277 -53.5h-542l108 623h-190zM459 209h323q133 0 239.5 66t171 175.5t89.5 251.5t-1 253.5t-109 179t-216 67.5h-323l-74 -424h315l-28 -155h-316
z" />
    <glyph glyph-name="dcroat" unicode="&#x111;" horiz-adv-x="1245" 
d="M170 477q27 149 113 264.5t204 175.5t248 60q105 0 186.5 -41t112.5 -117l56 324h-308l27 139h307l33 195h209l-33 -195h156l-27 -139h-156l-200 -1143h-209l20 139q-57 -75 -153 -117t-197 -42q-96 0 -176.5 36t-134.5 99.5t-75.5 157.5t-2.5 204zM387 481
q-23 -130 45.5 -213.5t190.5 -83.5t221 81t123 216q13 68 -2.5 124.5t-51 92t-84 55t-102.5 19.5q-122 0 -219 -80.5t-121 -210.5z" />
    <glyph glyph-name="Emacron" unicode="&#x112;" horiz-adv-x="1161" 
d="M184 0l248 1411h850l-35 -201h-633l-73 -417h553l-37 -199h-553l-70 -395h653l-32 -199h-871zM627 1626l28 166h529l-29 -166h-528z" />
    <glyph glyph-name="emacron" unicode="&#x113;" horiz-adv-x="1132" 
d="M168 481q39 222 205 359t375 137q208 0 319 -136t72 -360q-9 -51 -17 -78h-760q-4 -109 65.5 -174t186.5 -65q82 0 160.5 36.5t124.5 100.5q42 -23 160 -76q-84 -121 -215 -183t-273 -62q-208 0 -325 139t-78 362zM391 557h555q3 111 -59 173.5t-170 62.5
q-112 0 -201.5 -63.5t-124.5 -172.5zM514 1171l27 166h528l-27 -166h-528z" />
    <glyph glyph-name="Ebreve" unicode="&#x114;" horiz-adv-x="1161" 
d="M184 0l248 1411h850l-35 -201h-633l-73 -417h553l-37 -199h-553l-70 -395h653l-32 -199h-871zM633 1835h158q-9 -54 14 -85.5t76 -31.5q51 0 87 35.5t44 81.5h159q-22 -121 -107.5 -191.5t-207.5 -70.5q-90 0 -145.5 38t-72.5 95.5t-5 128.5z" />
    <glyph glyph-name="ebreve" unicode="&#x115;" horiz-adv-x="1132" 
d="M168 481q39 222 205 359t375 137q208 0 319 -136t72 -360q-9 -51 -17 -78h-760q-4 -109 65.5 -174t186.5 -65q82 0 160.5 36.5t124.5 100.5q42 -23 160 -76q-84 -121 -215 -183t-273 -62q-208 0 -325 139t-78 362zM391 557h555q3 111 -59 173.5t-170 62.5
q-112 0 -201.5 -63.5t-124.5 -172.5zM545 1380h157q-11 -53 13.5 -84.5t77.5 -31.5q51 0 86 34.5t45 81.5h159q-23 -121 -109 -191.5t-208 -70.5q-133 0 -187 76t-34 186z" />
    <glyph glyph-name="Edotaccent" unicode="&#x116;" horiz-adv-x="1161" 
d="M184 0l248 1411h850l-35 -201h-633l-73 -417h553l-37 -199h-553l-70 -395h653l-32 -199h-871zM791 1745q9 55 55 92t102 37q57 0 90.5 -37t24.5 -92t-56.5 -92t-105.5 -37q-56 0 -87.5 37t-22.5 92z" />
    <glyph glyph-name="edotaccent" unicode="&#x117;" horiz-adv-x="1132" 
d="M168 481q39 222 205 359t375 137q208 0 319 -136t72 -360q-9 -51 -17 -78h-760q-4 -109 65.5 -174t186.5 -65q82 0 160.5 36.5t124.5 100.5q42 -23 160 -76q-84 -121 -215 -183t-273 -62q-208 0 -325 139t-78 362zM391 557h555q3 111 -59 173.5t-170 62.5
q-112 0 -201.5 -63.5t-124.5 -172.5zM662 1290q9 55 54 92t101 37q58 0 92 -37t25 -92t-55.5 -92t-104.5 -37q-56 0 -88.5 37t-23.5 92z" />
    <glyph glyph-name="Eogonek" unicode="&#x118;" horiz-adv-x="1161" 
d="M184 0l248 1411h850l-35 -201h-633l-73 -417h553l-37 -199h-553l-70 -395h653l-34 -193l-95 -176q-18 -31 -12 -60t33 -42q29 -8 58 4t46 41q4 8 8.5 19.5t6.5 19.5l2 8l137 8q-18 -104 -92.5 -171t-157.5 -67q-90 0 -139 63.5t-35 143.5q7 45 33 90l84 113h-746z" />
    <glyph glyph-name="eogonek" unicode="&#x119;" horiz-adv-x="1134" 
d="M168 481q39 222 205 359t375 137q208 0 319 -136t72 -360q-9 -51 -17 -78h-760q-4 -109 65.5 -174t186.5 -65q82 0 160.5 36.5t124.5 100.5q42 -23 160 -76q-14 -19 -50 -53.5t-72 -69.5t-85.5 -107.5t-91.5 -164.5q-15 -30 -10.5 -59.5t30.5 -42.5q29 -8 58.5 4.5
t46.5 40.5q4 8 7.5 20t5.5 19l1 8l139 8q-20 -104 -93.5 -171t-156.5 -67q-90 0 -140 63.5t-36 143.5q7 46 35 90l80 113q-73 -20 -156 -20q-208 0 -325 139t-78 362zM391 557h555q3 111 -59 173.5t-170 62.5q-112 0 -201.5 -63.5t-124.5 -172.5z" />
    <glyph glyph-name="Ecaron" unicode="&#x11a;" horiz-adv-x="1161" 
d="M184 0l248 1411h850l-35 -201h-633l-73 -417h553l-37 -199h-553l-70 -395h653l-32 -199h-871zM606 1882h176l121 -178l189 178h178l-283 -321h-213z" />
    <glyph glyph-name="ecaron" unicode="&#x11b;" horiz-adv-x="1132" 
d="M168 481q39 222 205 359t375 137q208 0 319 -136t72 -360q-9 -51 -17 -78h-760q-4 -109 65.5 -174t186.5 -65q82 0 160.5 36.5t124.5 100.5q42 -23 160 -76q-84 -121 -215 -183t-273 -62q-208 0 -325 139t-78 362zM391 557h555q3 111 -59 173.5t-170 62.5
q-112 0 -201.5 -63.5t-124.5 -172.5zM489 1427h177l122 -178l187 178h178l-283 -321h-213z" />
    <glyph glyph-name="Gcircumflex" unicode="&#x11c;" horiz-adv-x="1546" 
d="M219 702q27 148 106 282t191 231t254.5 154.5t290.5 57.5q144 0 262.5 -52t194.5 -146l-187 -142q-52 63 -132 98.5t-175 35.5q-209 0 -379 -152t-209 -367q-25 -141 19 -260t146.5 -188.5t240.5 -69.5q175 0 312.5 95.5t172.5 250.5h-395l31 187h645
q-63 -366 -276 -551.5t-527 -185.5q-148 0 -270.5 57t-200.5 154t-110 230.5t-5 280.5zM725 1563l283 323h213l168 -323h-179l-123 180l-186 -180h-176z" />
    <glyph glyph-name="gcircumflex" unicode="&#x11d;" horiz-adv-x="1249" 
d="M94 -209q20 8 95.5 44t95.5 44q24 -73 91.5 -116.5t147.5 -43.5q153 0 253 91.5t134 285.5q3 26 9 49q-53 -77 -153.5 -121t-201.5 -44q-97 0 -178 35t-136 98t-77.5 157t-3.5 205q39 222 206 362t367 140q100 0 182.5 -43t112.5 -119l25 141h207l-146 -815
q-110 -618 -635 -618q-140 0 -245.5 70.5t-149.5 197.5zM387 477q-24 -132 46.5 -213.5t193.5 -81.5q115 0 218.5 81t127.5 214q25 137 -45.5 216t-194.5 79q-122 0 -222.5 -83.5t-123.5 -211.5zM457 1108l282 324h213l168 -324h-178l-123 180l-186 -180h-176z" />
    <glyph glyph-name="Gbreve" unicode="&#x11e;" horiz-adv-x="1546" 
d="M219 702q27 148 106 282t191 231t254.5 154.5t290.5 57.5q144 0 262.5 -52t194.5 -146l-187 -142q-52 63 -132 98.5t-175 35.5q-209 0 -379 -152t-209 -367q-25 -141 19 -260t146.5 -188.5t240.5 -69.5q175 0 312.5 95.5t172.5 250.5h-395l31 187h645
q-63 -366 -276 -551.5t-527 -185.5q-148 0 -270.5 57t-200.5 154t-110 230.5t-5 280.5zM836 1835h157q-9 -54 14 -85.5t76 -31.5q51 0 86 35t45 82h160q-23 -121 -109 -191.5t-208 -70.5q-133 0 -187 76t-34 186z" />
    <glyph glyph-name="gbreve" unicode="&#x11f;" horiz-adv-x="1249" 
d="M94 -209q20 8 95.5 44t95.5 44q24 -73 91.5 -116.5t147.5 -43.5q153 0 253 91.5t134 285.5q3 26 9 49q-53 -77 -153.5 -121t-201.5 -44q-97 0 -178 35t-136 98t-77.5 157t-3.5 205q39 222 206 362t367 140q100 0 182.5 -43t112.5 -119l25 141h207l-146 -815
q-110 -618 -635 -618q-140 0 -245.5 70.5t-149.5 197.5zM387 477q-24 -132 46.5 -213.5t193.5 -81.5q115 0 218.5 81t127.5 214q25 137 -45.5 216t-194.5 79q-122 0 -222.5 -83.5t-123.5 -211.5zM539 1380h157q-9 -54 14 -85t76 -31q51 0 87.5 35t44.5 81h159
q-22 -121 -107.5 -191.5t-207.5 -70.5q-90 0 -145.5 38t-72.5 95.5t-5 128.5z" />
    <glyph glyph-name="Gdotaccent" unicode="&#x120;" horiz-adv-x="1546" 
d="M219 702q27 148 106 282t191 231t254.5 154.5t290.5 57.5q144 0 262.5 -52t194.5 -146l-187 -142q-52 63 -132 98.5t-175 35.5q-209 0 -379 -152t-209 -367q-25 -141 19 -260t146.5 -188.5t240.5 -69.5q175 0 312.5 95.5t172.5 250.5h-395l31 187h645
q-63 -366 -276 -551.5t-527 -185.5q-148 0 -270.5 57t-200.5 154t-110 230.5t-5 280.5zM952 1745q9 55 56 92t104 37t89.5 -37t23.5 -92t-55.5 -92t-104.5 -37q-56 0 -89 37t-24 92z" />
    <glyph glyph-name="gdotaccent" unicode="&#x121;" horiz-adv-x="1249" 
d="M94 -209q20 8 95.5 44t95.5 44q24 -73 91.5 -116.5t147.5 -43.5q153 0 253 91.5t134 285.5q3 26 9 49q-53 -77 -153.5 -121t-201.5 -44q-97 0 -178 35t-136 98t-77.5 157t-3.5 205q39 222 206 362t367 140q100 0 182.5 -43t112.5 -119l25 141h207l-146 -815
q-110 -618 -635 -618q-140 0 -245.5 70.5t-149.5 197.5zM387 477q-24 -132 46.5 -213.5t193.5 -81.5q115 0 218.5 81t127.5 214q25 137 -45.5 216t-194.5 79q-122 0 -222.5 -83.5t-123.5 -211.5zM655 1290q9 55 55.5 92t102.5 37q57 0 90.5 -37t24.5 -92t-55.5 -92
t-104.5 -37q-56 0 -89 37t-24 92z" />
    <glyph glyph-name="Gcommaaccent" unicode="&#x122;" horiz-adv-x="1546" 
d="M219 702q27 148 106 282t191 231t254.5 154.5t290.5 57.5q144 0 262.5 -52t194.5 -146l-187 -142q-52 63 -132 98.5t-175 35.5q-209 0 -379 -152t-209 -367q-25 -141 19 -260t146.5 -188.5t240.5 -69.5q175 0 312.5 95.5t172.5 250.5h-395l31 187h645
q-63 -366 -276 -551.5t-527 -185.5q-148 0 -270.5 57t-200.5 154t-110 230.5t-5 280.5zM545 -483q79 86 115 162.5t49 203.5h198q-57 -280 -250 -413z" />
    <glyph glyph-name="gcommaaccent" unicode="&#x123;" horiz-adv-x="1249" 
d="M94 -209q20 8 95.5 44t95.5 44q24 -73 91.5 -116.5t147.5 -43.5q153 0 253 91.5t134 285.5q3 26 9 49q-53 -77 -153.5 -121t-201.5 -44q-97 0 -178 35t-136 98t-77.5 157t-3.5 205q39 222 206 362t367 140q100 0 182.5 -43t112.5 -119l25 141h207l-146 -815
q-110 -618 -635 -618q-140 0 -245.5 70.5t-149.5 197.5zM387 477q-24 -132 46.5 -213.5t193.5 -81.5q115 0 218.5 81t127.5 214q25 137 -45.5 216t-194.5 79q-122 0 -222.5 -83.5t-123.5 -211.5zM668 1137q53 276 247 415l115 -47q-80 -89 -116.5 -165.5t-49.5 -202.5h-196z
" />
    <glyph glyph-name="Hcircumflex" unicode="&#x124;" horiz-adv-x="1443" 
d="M184 0l248 1411h217l-106 -610h637l106 610h221l-247 -1411h-222l105 602h-637l-105 -602h-217zM666 1563l280 323h213l170 -323h-178l-125 180l-184 -180h-176z" />
    <glyph glyph-name="hcircumflex" unicode="&#x125;" horiz-adv-x="1183" 
d="M147 0l261 1477h210l-116 -666q51 81 148 123.5t184 42.5q183 0 264.5 -114t44.5 -318l-94 -545h-211l92 532q20 109 -30 173.5t-142 64.5q-48 0 -95 -14t-92 -43t-77.5 -80.5t-44.5 -118.5l-91 -514h-211zM201 1573l280 323h213l170 -323h-178l-125 180l-184 -180h-176z
" />
    <glyph glyph-name="Hbar" unicode="&#x126;" horiz-adv-x="1443" 
d="M184 0l248 1411h217l-106 -610h637l106 610h221l-247 -1411h-222l105 602h-637l-105 -602h-217zM743 1626l29 166h528l-28 -166h-529z" />
    <glyph glyph-name="hbar" unicode="&#x127;" horiz-adv-x="1183" 
d="M147 0l201 1143h-153l26 139h154l33 195h210l-32 -195h307l-27 -139h-307l-57 -332q51 81 148 123.5t184 42.5q183 0 263.5 -113.5t45.5 -318.5l-94 -545h-211l92 532q20 109 -30 173.5t-142 64.5q-48 0 -95 -14t-92 -43t-77.5 -80.5t-44.5 -118.5l-91 -514h-211z" />
    <glyph glyph-name="Itilde" unicode="&#x128;" horiz-adv-x="585" 
d="M184 0l248 1411h217l-248 -1411h-217zM295 1591q30 128 95 187t136 59q32 0 58.5 -13t41.5 -29t32.5 -29t33.5 -13q20 0 41.5 20t30.5 64h131q-15 -66 -42.5 -114.5t-60 -75t-64.5 -38.5t-64 -12q-30 0 -56.5 13t-41 29t-32.5 29t-34 13q-19 0 -41 -22t-31 -68h-133z" />
    <glyph glyph-name="itilde" unicode="&#x129;" horiz-adv-x="503" 
d="M147 0l168 956h209l-168 -956h-209zM152 1137q31 128 96 186.5t137 58.5q32 0 58.5 -13t40.5 -29t31.5 -29t33.5 -13q20 0 42.5 20t31.5 64h131q-20 -86 -61.5 -142.5t-84 -76.5t-86.5 -20q-30 0 -56.5 13t-41 29t-32.5 29t-34 13q-19 0 -41.5 -22t-31.5 -68h-133z" />
    <glyph glyph-name="Imacron" unicode="&#x12a;" horiz-adv-x="585" 
d="M184 0l248 1411h217l-248 -1411h-217zM315 1626l29 166h528l-28 -166h-529z" />
    <glyph glyph-name="imacron" unicode="&#x12b;" horiz-adv-x="503" 
d="M147 0l168 956h209l-168 -956h-209zM174 1171l29 166h528l-29 -166h-528z" />
    <glyph glyph-name="Ibreve" unicode="&#x12c;" horiz-adv-x="585" 
d="M184 0l248 1411h217l-248 -1411h-217zM348 1835h158q-9 -54 14 -85.5t76 -31.5q51 0 87 35.5t44 81.5h160q-22 -121 -108 -191.5t-208 -70.5q-90 0 -145.5 38t-72.5 95.5t-5 128.5z" />
    <glyph glyph-name="ibreve" unicode="&#x12d;" horiz-adv-x="503" 
d="M147 0l168 956h209l-168 -956h-209zM207 1380h158q-9 -54 14 -85t76 -31q51 0 87 35t44 81h159q-22 -121 -108.5 -191.5t-208.5 -70.5q-133 0 -187 76t-34 186z" />
    <glyph glyph-name="Iogonek" unicode="&#x12e;" horiz-adv-x="585" 
d="M68 -203q6 39 32 90l84 113l248 1411h217l-248 -1411h-94l-92 -170q-18 -31 -12 -60t33 -42q28 -8 56.5 4t45.5 41q4 8 8 19.5t6 19.5l2 8l140 8q-20 -104 -93.5 -171t-156.5 -67q-90 0 -140 63.5t-36 143.5z" />
    <glyph glyph-name="iogonek" unicode="&#x12f;" horiz-adv-x="503" 
d="M31 -203q6 39 32 90l84 113l168 956h209l-168 -956h-86l-92 -170q-18 -31 -12 -60t33 -42q28 -8 56.5 4t45.5 41q4 8 8 19.5t6 19.5l2 8l140 8q-20 -104 -93.5 -171t-156.5 -67q-90 0 -140 63.5t-36 143.5zM348 1343q9 56 58.5 95t107.5 39t91 -38.5t24 -95.5
q-9 -56 -57 -94.5t-107 -38.5q-57 0 -91.5 38t-25.5 95z" />
    <glyph glyph-name="Idotaccent" unicode="&#x130;" horiz-adv-x="585" 
d="M184 0l248 1411h217l-248 -1411h-217zM467 1745q9 55 55.5 92t102.5 37q57 0 90 -37t24 -92t-56 -92t-105 -37q-56 0 -88 37t-23 92z" />
    <glyph glyph-name="dotlessi" unicode="&#x131;" horiz-adv-x="503" 
d="M147 0l168 956h209l-168 -956h-209z" />
    <glyph glyph-name="IJ" unicode="&#x132;" horiz-adv-x="1173" 
d="M184 0l248 1411h217l-248 -1411h-217zM295 -481l55 202q21 -8 72.5 -13t71.5 -5q115 0 180 70.5t86 183.5l258 1454h219l-258 -1454q-14 -77 -40.5 -144t-70.5 -126.5t-101.5 -101.5t-137 -66.5t-174.5 -24.5q-54 0 -160 25z" />
    <glyph glyph-name="ij" unicode="&#x133;" horiz-adv-x="1011" 
d="M147 0l168 956h209l-168 -956h-209zM291 -473l35 197h114q164 0 199 215l180 1017h213l-180 -1017q-73 -412 -422 -412h-139zM348 1343q9 56 57.5 95t106.5 39q59 0 92.5 -38.5t24.5 -95.5q-9 -56 -57 -94.5t-107 -38.5q-57 0 -91.5 38t-25.5 95zM854 1343q9 56 57.5 95
t106.5 39q59 0 93.5 -38.5t25.5 -95.5q-9 -56 -58 -94.5t-108 -38.5q-57 0 -91.5 38t-25.5 95z" />
    <glyph glyph-name="Jcircumflex" unicode="&#x134;" horiz-adv-x="587" 
d="M-287 -481l56 202q21 -8 71.5 -13t69.5 -5q113 0 178 70.5t86 183.5l258 1454h219l-258 -1454q-18 -97 -56.5 -178t-100 -146.5t-154.5 -102t-209 -36.5q-54 0 -160 25zM229 1563l281 323h213l170 -323h-178l-125 180l-184 -180h-177z" />
    <glyph glyph-name="jcircumflex" unicode="&#x135;" horiz-adv-x="507" 
d="M-209 -473l35 197h115q161 0 192 215l182 1017h213l-180 -1017q-73 -412 -418 -412h-139zM131 1108l283 324h213l168 -324h-179l-122 180l-187 -180h-176z" />
    <glyph glyph-name="Kcommaaccent" unicode="&#x136;" horiz-adv-x="1193" 
d="M184 0l248 1411h219l-102 -573l534 573h256l-665 -702l543 -709h-287l-426 571l-101 -571h-219zM375 -483q79 86 115 162.5t49 203.5h198q-53 -277 -248 -413z" />
    <glyph glyph-name="kcommaaccent" unicode="&#x137;" horiz-adv-x="1036" 
d="M147 0l261 1477h208l-147 -836l358 315h283l-481 -415l405 -541h-270l-330 444l-78 -444h-209zM291 -483q79 86 115 162.5t49 203.5h198q-54 -278 -247 -413z" />
    <glyph glyph-name="kgreenlandic" unicode="&#x138;" horiz-adv-x="1007" 
d="M147 0l168 956h209l-65 -368l360 368h264l-477 -473l398 -483h-281l-303 367l-64 -367h-209z" />
    <glyph glyph-name="Lacute" unicode="&#x139;" horiz-adv-x="1021" 
d="M184 0l248 1411h217l-215 -1212h565l-32 -199h-783zM483 1561l262 323h238l-315 -323h-185z" />
    <glyph glyph-name="lacute" unicode="&#x13a;" horiz-adv-x="505" 
d="M147 0l261 1477h210l-260 -1477h-211zM440 1577l262 324h238l-315 -324h-185z" />
    <glyph glyph-name="Lcommaaccent" unicode="&#x13b;" horiz-adv-x="1021" 
d="M184 0l248 1411h217l-215 -1212h565l-32 -199h-783zM276 -483q79 86 115 162.5t49 203.5h199q-53 -277 -248 -413z" />
    <glyph glyph-name="lcommaaccent" unicode="&#x13c;" horiz-adv-x="505" 
d="M-25 -483q77 87 112 163.5t48 202.5h199q-54 -278 -250 -413zM147 0l261 1477h210l-260 -1477h-211z" />
    <glyph glyph-name="Lcaron" unicode="&#x13d;" horiz-adv-x="1024" 
d="M184 0l248 1411h217l-215 -1212h565l-32 -199h-783zM719 1024q80 90 121.5 176.5t54.5 210.5h199q-30 -157 -98 -264t-154 -166z" />
    <glyph glyph-name="lcaron" unicode="&#x13e;" horiz-adv-x="505" 
d="M147 0l261 1477h210l-260 -1477h-211zM629 1090q79 89 120.5 175.5t55.5 211.5h199q-31 -156 -99.5 -263t-152.5 -167z" />
    <glyph glyph-name="Ldot" unicode="&#x13f;" horiz-adv-x="1021" 
d="M184 0l248 1411h217l-215 -1212h565l-32 -199h-783zM651 563q10 59 59.5 99t108.5 40q61 0 97 -40t26 -99t-61.5 -99t-112.5 -40q-59 0 -93 40t-24 99z" />
    <glyph glyph-name="ldot" unicode="&#x140;" horiz-adv-x="792" 
d="M147 0l261 1477h210l-260 -1477h-211zM582 563q10 59 59.5 99t108.5 40q61 0 96.5 -40t25.5 -99t-61.5 -99t-112.5 -40q-59 0 -92.5 39.5t-23.5 99.5z" />
    <glyph glyph-name="Lslash" unicode="&#x141;" horiz-adv-x="1034" 
d="M158 567l26 150l154 86l106 608h218l-82 -473l227 131l-25 -151l-231 -130l-102 -581h561l-35 -207h-778l112 653z" />
    <glyph glyph-name="lslash" unicode="&#x142;" horiz-adv-x="546" 
d="M125 541l27 147l163 94l123 695h209l-100 -564l182 105l-27 -146l-182 -104l-133 -768h-209l109 635z" />
    <glyph glyph-name="Nacute" unicode="&#x143;" horiz-adv-x="1394" 
d="M184 0l248 1411h209l424 -1001l176 1001h217l-248 -1411h-202l-430 1010l-177 -1010h-217zM823 1561l262 323h238l-315 -323h-185z" />
    <glyph glyph-name="nacute" unicode="&#x144;" horiz-adv-x="1153" 
d="M147 0l168 956h211l-24 -143q52 78 143 121t178 43q174 0 249 -109t40 -311l-96 -557h-211l92 532q20 113 -23.5 175.5t-136.5 62.5q-49 0 -93.5 -14t-84.5 -43t-69 -80t-41 -119l-91 -514h-211zM627 1106l262 324h237l-315 -324h-184z" />
    <glyph glyph-name="Ncommaaccent" unicode="&#x145;" horiz-adv-x="1394" 
d="M184 0l248 1411h209l424 -1001l176 1001h217l-248 -1411h-202l-430 1010l-177 -1010h-217zM422 -483q79 86 115 162.5t49 203.5h198q-54 -278 -247 -413z" />
    <glyph glyph-name="ncommaaccent" unicode="&#x146;" horiz-adv-x="1153" 
d="M147 0l168 956h211l-24 -143q52 78 143 121t178 43q174 0 249 -109t40 -311l-96 -557h-211l92 532q20 113 -23.5 175.5t-136.5 62.5q-49 0 -93.5 -14t-84.5 -43t-69 -80t-41 -119l-91 -514h-211zM344 -483q30 32 50 65.5t31 57t20 72.5t11.5 73t10.5 98h199
q-53 -277 -248 -413z" />
    <glyph glyph-name="Ncaron" unicode="&#x147;" horiz-adv-x="1394" 
d="M184 0l248 1411h209l424 -1001l176 1001h217l-248 -1411h-202l-430 1010l-177 -1010h-217zM696 1882h176l121 -178l189 178h178l-283 -321h-213z" />
    <glyph glyph-name="ncaron" unicode="&#x148;" horiz-adv-x="1153" 
d="M147 0l168 956h211l-24 -143q52 78 143 121t178 43q174 0 249 -109t40 -311l-96 -557h-211l92 532q20 113 -23.5 175.5t-136.5 62.5q-49 0 -93.5 -14t-84.5 -43t-69 -80t-41 -119l-91 -514h-211zM502 1427h176l121 -178l188 178h178l-282 -321h-213z" />
    <glyph glyph-name="napostrophe" unicode="&#x149;" horiz-adv-x="1153" 
d="M41 1001q113 126 139 224q7 29 15 129h206q-42 -259 -231 -393zM147 0l166 956h211l-22 -143q54 79 144.5 121.5t176.5 42.5q174 0 249 -109t40 -311l-96 -557h-211l92 532q20 113 -22.5 175.5t-135.5 62.5q-106 0 -187 -62t-106 -194l-88 -514h-211z" />
    <glyph glyph-name="Eng" unicode="&#x14a;" horiz-adv-x="1392" 
d="M184 0l248 1411h209l420 -1001l176 1001h219l-248 -1399q-15 -85 -39.5 -154.5t-66.5 -133t-98.5 -107t-138 -69t-181.5 -25.5q-75 0 -166 26l60 218q146 -49 247 -9q136 43 162 215q8 48 -8 90l-401 941l-177 -1004h-217z" />
    <glyph glyph-name="eng" unicode="&#x14b;" horiz-adv-x="1150" 
d="M147 0l168 956h211l-24 -143q52 78 143 121t178 43q174 0 250 -109t39 -311l-94 -520q-18 -100 -54 -181.5t-95 -148.5t-151 -104t-210 -37q-59 0 -137 20l53 205q24 -8 65 -15t54 -7q112 0 175.5 68t86.5 177l92 518q20 113 -23.5 175.5t-136.5 62.5q-49 0 -93.5 -14
t-84.5 -43t-69 -80t-41 -119l-91 -514h-211z" />
    <glyph glyph-name="Omacron" unicode="&#x14c;" horiz-adv-x="1622" 
d="M219 702q35 198 158 364.5t304 263.5t378 97q148 0 271.5 -57.5t202 -154.5t111 -231t5.5 -282q-36 -197 -160 -363t-306 -262.5t-380 -96.5q-148 0 -270 57t-199.5 154t-109.5 230.5t-5 280.5zM436 702q-25 -140 19 -256.5t146 -184.5t239 -68q138 0 265 68t213.5 184.5
t111.5 256.5t-19.5 257.5t-147.5 186t-241 68.5q-137 0 -263.5 -68.5t-212.5 -186t-110 -257.5zM834 1626l26 166h529l-27 -166h-528z" />
    <glyph glyph-name="omacron" unicode="&#x14d;" horiz-adv-x="1171" 
d="M168 481q39 221 208 358.5t378 137.5q102 0 186.5 -35.5t142 -98.5t80.5 -157t4 -205q-26 -147 -115 -263t-213.5 -177t-260.5 -61q-101 0 -185.5 36t-141 100.5t-79.5 159t-4 205.5zM377 481q-24 -132 45.5 -214.5t191.5 -82.5q123 0 220.5 82.5t121.5 214.5
q23 129 -46.5 209t-192.5 80q-122 0 -219.5 -80t-120.5 -209zM528 1171l27 166h528l-26 -166h-529z" />
    <glyph glyph-name="Obreve" unicode="&#x14e;" horiz-adv-x="1622" 
d="M219 702q35 198 158 364.5t304 263.5t378 97q148 0 271.5 -57.5t202 -154.5t111 -231t5.5 -282q-36 -197 -160 -363t-306 -262.5t-380 -96.5q-148 0 -270 57t-199.5 154t-109.5 230.5t-5 280.5zM436 702q-25 -140 19 -256.5t146 -184.5t239 -68q138 0 265 68t213.5 184.5
t111.5 256.5t-19.5 257.5t-147.5 186t-241 68.5q-137 0 -263.5 -68.5t-212.5 -186t-110 -257.5zM864 1835h158q-9 -54 14 -85.5t76 -31.5q51 0 86 35t45 82h160q-23 -121 -109.5 -191.5t-208.5 -70.5q-133 0 -187 76t-34 186z" />
    <glyph glyph-name="obreve" unicode="&#x14f;" horiz-adv-x="1171" 
d="M168 481q39 221 208 358.5t378 137.5q102 0 186.5 -35.5t142 -98.5t80.5 -157t4 -205q-26 -147 -115 -263t-213.5 -177t-260.5 -61q-101 0 -185.5 36t-141 100.5t-79.5 159t-4 205.5zM377 481q-24 -132 45.5 -214.5t191.5 -82.5q123 0 220.5 82.5t121.5 214.5
q23 129 -46.5 209t-192.5 80q-122 0 -219.5 -80t-120.5 -209zM559 1380h158q-11 -53 13 -84.5t77 -31.5q51 0 86 34.5t45 81.5h160q-23 -121 -109.5 -191.5t-208.5 -70.5q-133 0 -187 76t-34 186z" />
    <glyph glyph-name="Ohungarumlaut" unicode="&#x150;" horiz-adv-x="1622" 
d="M219 702q35 198 158 364.5t304 263.5t378 97q148 0 271.5 -57.5t202 -154.5t111 -231t5.5 -282q-36 -197 -160 -363t-306 -262.5t-380 -96.5q-148 0 -270 57t-199.5 154t-109.5 230.5t-5 280.5zM436 702q-25 -140 19 -256.5t146 -184.5t239 -68q138 0 265 68t213.5 184.5
t111.5 256.5t-19.5 257.5t-147.5 186t-241 68.5q-137 0 -263.5 -68.5t-212.5 -186t-110 -257.5zM860 1561l238 321h198l-258 -321h-178zM1139 1561l260 321h203l-285 -321h-178z" />
    <glyph glyph-name="ohungarumlaut" unicode="&#x151;" horiz-adv-x="1171" 
d="M168 481q39 221 208 358.5t378 137.5q102 0 186.5 -35.5t142 -98.5t80.5 -157t4 -205q-26 -147 -115 -263t-213.5 -177t-260.5 -61q-101 0 -185.5 36t-141 100.5t-79.5 159t-4 205.5zM377 481q-24 -132 45.5 -214.5t191.5 -82.5q123 0 220.5 82.5t121.5 214.5
q23 129 -46.5 209t-192.5 80q-122 0 -219.5 -80t-120.5 -209zM528 1106l236 321h199l-256 -321h-179zM807 1106l258 321h203l-283 -321h-178z" />
    <glyph glyph-name="OE" unicode="&#x152;" horiz-adv-x="2275" 
d="M219 702q27 148 106 282t190 231t253 154.5t289 57.5q146 0 264.5 -59t189.5 -164l39 207h846l-39 -207h-628l-70 -407h551l-37 -207h-551l-68 -383h652l-35 -207h-868l32 201q-110 -104 -249 -162.5t-285 -58.5q-147 0 -269 57t-199 154t-109 230.5t-5 280.5zM436 702
q-25 -139 18.5 -254.5t145.5 -183t240 -67.5q107 0 206.5 41.5t176 112t129.5 166t71 202.5q20 133 -25.5 246t-146 179t-233.5 66q-209 0 -376 -147.5t-206 -360.5z" />
    <glyph glyph-name="oe" unicode="&#x153;" horiz-adv-x="1923" 
d="M168 481q39 221 208 357.5t378 136.5q120 0 215 -47.5t149 -134.5q84 88 193 136t229 48q208 0 315.5 -131.5t75.5 -349.5q-8 -56 -18 -93h-758q-4 -109 64.5 -174t185.5 -65q83 0 160.5 36t126.5 101q48 -26 159 -76q-84 -121 -214.5 -183t-272.5 -62
q-120 0 -213.5 48.5t-144.5 137.5q-85 -88 -197 -137t-231 -49q-101 0 -185.5 36t-141 100.5t-79.5 159t-4 205.5zM377 481q-24 -132 45.5 -214.5t191.5 -82.5q123 0 220.5 82.5t121.5 214.5q23 129 -46.5 209t-192.5 80q-122 0 -219.5 -80t-120.5 -209zM1182 557h555
q3 110 -58.5 173t-169.5 63q-112 0 -201.5 -63.5t-125.5 -172.5z" />
    <glyph glyph-name="Racute" unicode="&#x154;" horiz-adv-x="1273" 
d="M184 0l248 1411h551q88 0 156.5 -25t109 -68t65.5 -100t26.5 -122t-7.5 -133q-14 -80 -47.5 -152t-86.5 -133t-131.5 -101.5t-174.5 -50.5l278 -526h-264l-262 518h-151l-91 -518h-219zM528 717h316q110 0 177.5 72t86.5 174q10 45 3.5 89t-23 79t-55 57t-93.5 22h-324z
M748 1561l262 323h237l-315 -323h-184z" />
    <glyph glyph-name="racute" unicode="&#x155;" horiz-adv-x="817" 
d="M147 0l168 956h211l-39 -219q113 240 306 240q50 0 95 -11t66 -26l-67 -195q-60 33 -137 33q-130 0 -213 -116.5t-119 -317.5l-60 -344h-211zM365 1106l262 324h237l-315 -324h-184z" />
    <glyph glyph-name="Rcommaaccent" unicode="&#x156;" horiz-adv-x="1273" 
d="M184 0l248 1411h551q88 0 156.5 -25t109 -68t65.5 -100t26.5 -122t-7.5 -133q-14 -80 -47.5 -152t-86.5 -133t-131.5 -101.5t-174.5 -50.5l278 -526h-264l-262 518h-151l-91 -518h-219zM395 -483q79 86 115 162.5t49 203.5h199q-53 -277 -248 -413zM528 717h316
q110 0 177.5 72t86.5 174q10 45 3.5 89t-23 79t-55 57t-93.5 22h-324z" />
    <glyph glyph-name="rcommaaccent" unicode="&#x157;" horiz-adv-x="817" 
d="M-25 -483q77 87 112 163.5t48 202.5h199q-54 -278 -250 -413zM147 0l168 956h211l-39 -219q113 240 306 240q50 0 95 -11t66 -26l-67 -195q-60 33 -137 33q-130 0 -213 -116.5t-119 -317.5l-60 -344h-211z" />
    <glyph glyph-name="Rcaron" unicode="&#x158;" horiz-adv-x="1273" 
d="M184 0l248 1411h551q88 0 156.5 -25t109 -68t65.5 -100t26.5 -122t-7.5 -133q-14 -80 -47.5 -152t-86.5 -133t-131.5 -101.5t-174.5 -50.5l278 -526h-264l-262 518h-151l-91 -518h-219zM528 717h316q110 0 177.5 72t86.5 174q10 45 3.5 89t-23 79t-55 57t-93.5 22h-324z
M633 1882h176l121 -178l188 178h178l-282 -321h-213z" />
    <glyph glyph-name="rcaron" unicode="&#x159;" horiz-adv-x="817" 
d="M147 0l168 956h211l-39 -219q113 240 306 240q50 0 95 -11t66 -26l-67 -195q-60 33 -137 33q-130 0 -213 -116.5t-119 -317.5l-60 -344h-211zM346 1427h176l121 -178l188 178h179l-283 -321h-213z" />
    <glyph glyph-name="Sacute" unicode="&#x15a;" horiz-adv-x="1175" 
d="M172 410h217q-13 -91 53 -161.5t187 -70.5q118 0 195 55t104 138q44 174 -183 229l-170 45q-332 94 -280 379q21 118 101.5 211t194.5 142.5t238 49.5q97 0 176 -29t131.5 -82t73.5 -132t4 -174h-217q19 96 -40 154.5t-169 58.5q-100 0 -180.5 -55t-95.5 -140
q-29 -134 154 -184l174 -47q197 -56 272.5 -170t28.5 -269q-45 -167 -195.5 -272.5t-351.5 -105.5q-143 0 -247.5 59.5t-149.5 158t-25 212.5zM733 1561l262 323h238l-315 -323h-185z" />
    <glyph glyph-name="sacute" unicode="&#x15b;" horiz-adv-x="909" 
d="M129 293h195q-3 -63 39 -100t124 -37q74 0 128 30.5t63 83.5q7 43 -25 71.5t-88 41.5l-123 31q-142 40 -190.5 116.5t-18.5 194.5q28 105 140.5 178.5t244.5 73.5q66 0 122.5 -16t100.5 -48.5t65.5 -88.5t13.5 -130h-201q1 51 -34 77t-89 26q-41 0 -83 -15t-62 -39
q-30 -35 -23 -86q7 -45 104 -73l140 -37q57 -15 98 -39.5t62 -53t33.5 -61.5t11 -64t-4.5 -61q-24 -135 -143.5 -211.5t-288.5 -76.5q-91 0 -166.5 35.5t-117.5 108.5t-27 169zM508 1106l264 324h238l-318 -324h-184z" />
    <glyph glyph-name="Scircumflex" unicode="&#x15c;" horiz-adv-x="1175" 
d="M172 410h217q-13 -91 53 -161.5t187 -70.5q118 0 195 55t104 138q44 174 -183 229l-170 45q-332 94 -280 379q21 118 101.5 211t194.5 142.5t238 49.5q97 0 176 -29t131.5 -82t73.5 -132t4 -174h-217q19 96 -40 154.5t-169 58.5q-100 0 -180.5 -55t-95.5 -140
q-29 -134 154 -184l174 -47q197 -56 272.5 -170t28.5 -269q-45 -167 -195.5 -272.5t-351.5 -105.5q-143 0 -247.5 59.5t-149.5 158t-25 212.5zM537 1563l280 323h213l170 -323h-178l-123 180l-186 -180h-176z" />
    <glyph glyph-name="scircumflex" unicode="&#x15d;" horiz-adv-x="909" 
d="M129 293h195q-3 -63 39 -100t124 -37q74 0 128 30.5t63 83.5q7 43 -25 71.5t-88 41.5l-123 31q-142 40 -190.5 116.5t-18.5 194.5q28 105 140.5 178.5t244.5 73.5q66 0 122.5 -16t100.5 -48.5t65.5 -88.5t13.5 -130h-201q1 51 -34 77t-89 26q-41 0 -83 -15t-62 -39
q-30 -35 -23 -86q7 -45 104 -73l140 -37q57 -15 98 -39.5t62 -53t33.5 -61.5t11 -64t-4.5 -61q-24 -135 -143.5 -211.5t-288.5 -76.5q-91 0 -166.5 35.5t-117.5 108.5t-27 169zM315 1108l285 324h213l166 -324h-178l-121 180l-188 -180h-177z" />
    <glyph glyph-name="Scedilla" unicode="&#x15e;" horiz-adv-x="1175" 
d="M172 410h217q-13 -91 53 -161.5t187 -70.5q118 0 195 55t104 138q44 174 -183 229l-170 45q-332 94 -280 379q21 118 101.5 211t194.5 142.5t238 49.5q97 0 176 -29t131.5 -82t73.5 -132t4 -174h-217q19 96 -40 154.5t-169 58.5q-99 0 -179 -54.5t-97 -140.5
q-25 -135 154 -184l174 -47q198 -54 273 -168.5t30 -270.5q-40 -146 -163.5 -246.5t-289.5 -123.5l37 -101q9 -28 0 -90q-14 -80 -86 -143.5t-162 -63.5q-83 0 -133.5 67t-30.5 171l136 -8q-1 -3 -1.5 -8t-1.5 -19t1 -20q7 -29 32 -41t56 -4q33 13 48 41.5t9 60.5l-29 150
q-201 9 -312 134.5t-81 295.5z" />
    <glyph glyph-name="scedilla" unicode="&#x15f;" horiz-adv-x="913" 
d="M131 293h195q-3 -63 39 -100t124 -37q75 0 129.5 31t63.5 83q7 43 -26 71.5t-89 41.5l-123 31q-141 40 -189.5 116t-18.5 195q28 105 140.5 178.5t244.5 73.5q66 0 122 -16t100.5 -48.5t65.5 -88.5t13 -130h-201q1 51 -34 77t-89 26q-41 0 -83 -15t-62 -39
q-30 -35 -23 -86q7 -45 105 -73l139 -37q57 -15 98 -39.5t62 -53t33.5 -61.5t11 -64t-4.5 -61q-18 -111 -105 -183t-214 -95l37 -103q9 -28 0 -90q-14 -80 -86 -143.5t-162 -63.5q-83 0 -132.5 67t-31.5 171l135 -8q-1 -3 -1.5 -8t-1.5 -19t1 -20q7 -29 32 -41t56 -4
q33 13 48.5 41.5t9.5 60.5l-29 150q-89 3 -161 39t-112.5 108t-25.5 166z" />
    <glyph glyph-name="Scaron" unicode="&#x160;" horiz-adv-x="1175" 
d="M172 410h217q-13 -91 53 -161.5t187 -70.5q118 0 195 55t104 138q44 174 -183 229l-170 45q-332 94 -280 379q21 118 101.5 211t194.5 142.5t238 49.5q97 0 176 -29t131.5 -82t73.5 -132t4 -174h-217q19 96 -40 154.5t-169 58.5q-100 0 -180.5 -55t-95.5 -140
q-29 -134 154 -184l174 -47q197 -56 272.5 -170t28.5 -269q-45 -167 -195.5 -272.5t-351.5 -105.5q-143 0 -247.5 59.5t-149.5 158t-25 212.5zM592 1882h176l123 -178l186 178h178l-282 -321h-213z" />
    <glyph glyph-name="scaron" unicode="&#x161;" horiz-adv-x="909" 
d="M129 293h195q-3 -63 39 -100t124 -37q74 0 128 30.5t63 83.5q7 43 -25 71.5t-88 41.5l-123 31q-142 40 -190.5 116.5t-18.5 194.5q28 105 140.5 178.5t244.5 73.5q66 0 122.5 -16t100.5 -48.5t65.5 -88.5t13.5 -130h-201q1 51 -34 77t-89 26q-41 0 -83 -15t-62 -39
q-30 -35 -23 -86q7 -45 104 -73l140 -37q57 -15 98 -39.5t62 -53t33.5 -61.5t11 -64t-4.5 -61q-24 -135 -143.5 -211.5t-288.5 -76.5q-91 0 -166.5 35.5t-117.5 108.5t-27 169zM375 1427h176l121 -178l188 178h178l-284 -321h-213z" />
    <glyph glyph-name="Tcommaaccent" unicode="&#x162;" horiz-adv-x="1167" 
d="M270 1208l35 203h1053l-35 -203h-416l-213 -1208h-221l213 1208h-416zM285 -483q80 87 116.5 163.5t47.5 202.5h198q-53 -277 -248 -413z" />
    <glyph glyph-name="tcommaaccent" unicode="&#x163;" horiz-adv-x="688" 
d="M45 -483q79 86 115 162.5t49 203.5h199q-54 -278 -250 -413zM188 782l31 174h172l64 363h211l-64 -363h203l-31 -174h-203l-137 -782h-211l137 782h-172z" />
    <glyph glyph-name="Tcaron" unicode="&#x164;" horiz-adv-x="1167" 
d="M270 1208l35 203h1053l-35 -203h-416l-213 -1208h-221l213 1208h-416zM584 1882h176l123 -178l186 178h178l-282 -321h-213z" />
    <glyph glyph-name="tcaron" unicode="&#x165;" horiz-adv-x="688" 
d="M188 782l31 174h172l62 363h211l-62 -363h203l-31 -174h-203l-137 -782h-211l137 782h-172zM715 1124q79 88 115.5 165t50.5 204h198q-53 -277 -250 -416z" />
    <glyph glyph-name="Tbar" unicode="&#x166;" horiz-adv-x="1140" 
d="M258 1223l33 188h1055l-33 -188h-432l-68 -383h272l-24 -135h-273l-122 -705h-191l123 705h-270l24 135h271l67 383h-432z" />
    <glyph glyph-name="tbar" unicode="&#x167;" horiz-adv-x="692" 
d="M168 440l25 133h133l36 209h-174l31 174h174l64 363h209l-64 -363h203l-31 -174h-203l-36 -209h153l-24 -133h-154l-76 -440h-209l76 440h-133z" />
    <glyph glyph-name="Utilde" unicode="&#x168;" horiz-adv-x="1386" 
d="M252 489l166 922h221l-166 -922q-23 -133 52 -217t200 -84t227.5 84t126.5 217l164 922h221l-164 -922q-27 -150 -119.5 -267.5t-222 -179.5t-270.5 -62q-106 0 -195 36.5t-149 101.5t-85.5 161.5t-6.5 209.5zM694 1591q15 67 41.5 116.5t59.5 76.5t65.5 40t65.5 13
q32 0 58.5 -13t41.5 -29t32.5 -29t33.5 -13q19 0 39.5 20t31.5 64h131q-31 -126 -95.5 -183t-135.5 -57q-30 0 -56.5 13t-42 29t-33.5 29t-34 13q-19 0 -40.5 -22t-29.5 -68h-133z" />
    <glyph glyph-name="utilde" unicode="&#x169;" horiz-adv-x="1150" 
d="M207 399l98 557h211l-94 -532q-21 -115 23.5 -177.5t134.5 -62.5q38 0 74 8.5t71 28t63 48.5t49 73.5t31 99.5l93 514h210l-167 -956h-211l22 139q-52 -77 -141 -118t-172 -41q-176 0 -254.5 109t-40.5 310zM489 1137q31 128 96.5 186.5t137.5 58.5q32 0 58.5 -13
t40.5 -29t31.5 -29t33.5 -13q20 0 42.5 20t31.5 64h131q-20 -86 -61.5 -142.5t-84 -76.5t-86.5 -20q-30 0 -56.5 13t-41 29t-32.5 29t-34 13q-19 0 -41.5 -22t-31.5 -68h-134z" />
    <glyph glyph-name="Umacron" unicode="&#x16a;" horiz-adv-x="1386" 
d="M252 489l166 922h221l-166 -922q-23 -133 52 -217t200 -84t227.5 84t126.5 217l164 922h221l-164 -922q-27 -150 -119.5 -267.5t-222 -179.5t-270.5 -62q-106 0 -195 36.5t-149 101.5t-85.5 161.5t-6.5 209.5zM715 1626l26 166h529l-27 -166h-528z" />
    <glyph glyph-name="umacron" unicode="&#x16b;" horiz-adv-x="1150" 
d="M207 399l98 557h211l-94 -532q-21 -115 23.5 -177.5t134.5 -62.5q38 0 74 8.5t71 28t63 48.5t49 73.5t31 99.5l93 514h210l-167 -956h-211l22 139q-52 -77 -141 -118t-172 -41q-176 0 -254.5 109t-40.5 310zM512 1171l29 166h528l-29 -166h-528z" />
    <glyph glyph-name="Ubreve" unicode="&#x16c;" horiz-adv-x="1386" 
d="M252 489l166 922h221l-166 -922q-23 -133 52 -217t200 -84t227.5 84t126.5 217l164 922h221l-164 -922q-27 -150 -119.5 -267.5t-222 -179.5t-270.5 -62q-106 0 -195 36.5t-149 101.5t-85.5 161.5t-6.5 209.5zM748 1835h157q-11 -53 13 -85t77 -32q51 0 86 35t45 82h160
q-23 -121 -109 -191.5t-208 -70.5q-133 0 -187 76t-34 186z" />
    <glyph glyph-name="ubreve" unicode="&#x16d;" horiz-adv-x="1150" 
d="M207 399l98 557h211l-94 -532q-21 -115 23.5 -177.5t134.5 -62.5q38 0 74 8.5t71 28t63 48.5t49 73.5t31 99.5l93 514h210l-167 -956h-211l22 139q-52 -77 -141 -118t-172 -41q-176 0 -254.5 109t-40.5 310zM543 1380h157q-9 -53 14.5 -84.5t76.5 -31.5q51 0 87 35t44 81
h159q-22 -121 -107.5 -191.5t-207.5 -70.5q-133 0 -188 76t-35 186z" />
    <glyph glyph-name="Uring" unicode="&#x16e;" horiz-adv-x="1386" 
d="M252 489l166 922h221l-166 -922q-23 -133 52 -217t200 -84t227.5 84t126.5 217l164 922h221l-164 -922q-27 -150 -119.5 -267.5t-222 -179.5t-270.5 -62q-106 0 -195 36.5t-149 101.5t-85.5 161.5t-6.5 209.5zM778 1761q17 96 94 162t170 66q95 0 148.5 -65.5
t36.5 -162.5q-15 -92 -94 -156.5t-175 -64.5q-92 0 -143.5 64t-36.5 157zM893 1761q-8 -43 17 -74.5t69 -31.5q46 0 86 31.5t47 74.5q9 47 -17.5 80t-72.5 33q-44 0 -82 -33t-47 -80z" />
    <glyph glyph-name="uring" unicode="&#x16f;" horiz-adv-x="1150" 
d="M207 399l98 557h211l-94 -532q-21 -115 23.5 -177.5t134.5 -62.5q38 0 74 8.5t71 28t63 48.5t49 73.5t31 99.5l93 514h210l-167 -956h-211l22 139q-52 -77 -141 -118t-172 -41q-176 0 -254.5 109t-40.5 310zM573 1307q19 96 94.5 161.5t168.5 65.5q96 0 150.5 -65.5
t35.5 -161.5q-17 -93 -94 -157.5t-172 -64.5q-92 0 -146 65t-37 157zM688 1307q-8 -43 18 -75t70 -32q46 0 84.5 32t46.5 75q9 47 -18.5 79.5t-73.5 32.5q-44 0 -81 -32.5t-46 -79.5z" />
    <glyph glyph-name="Uhungarumlaut" unicode="&#x170;" horiz-adv-x="1386" 
d="M252 489l166 922h221l-166 -922q-23 -133 52 -217t200 -84t227.5 84t126.5 217l164 922h221l-164 -922q-27 -150 -119.5 -267.5t-222 -179.5t-270.5 -62q-106 0 -195 36.5t-149 101.5t-85.5 161.5t-6.5 209.5zM688 1561l236 321h198l-256 -321h-178zM967 1561l258 321
h202l-282 -321h-178z" />
    <glyph glyph-name="uhungarumlaut" unicode="&#x171;" horiz-adv-x="1150" 
d="M207 399l98 557h211l-94 -532q-21 -115 23.5 -177.5t134.5 -62.5q38 0 74 8.5t71 28t63 48.5t49 73.5t31 99.5l93 514h210l-167 -956h-211l22 139q-52 -77 -141 -118t-172 -41q-176 0 -254.5 109t-40.5 310zM485 1106l236 321h199l-256 -321h-179zM764 1106l258 321h203
l-283 -321h-178z" />
    <glyph glyph-name="Uogonek" unicode="&#x172;" horiz-adv-x="1390" 
d="M256 489l162 922h223l-164 -922q-24 -133 50.5 -217t199.5 -84t228.5 84t127.5 217l164 922h217l-161 -922q-25 -139 -107.5 -251.5t-197.5 -176.5t-244 -77l-84 -154q-18 -31 -12.5 -60t32.5 -42q29 -8 58.5 4.5t46.5 40.5q4 8 7.5 20t5.5 19l1 8l139 8
q-20 -104 -93.5 -171t-156.5 -67q-90 0 -139 63.5t-35 143.5q8 54 33 90l68 97q-192 21 -299 158.5t-70 346.5z" />
    <glyph glyph-name="uogonek" unicode="&#x173;" horiz-adv-x="1150" 
d="M207 399l98 557h211l-94 -532q-21 -115 23.5 -177.5t134.5 -62.5q38 0 74 8.5t71 28t63 48.5t49 73.5t31 99.5l93 514h210l-167 -956h-86l-93 -170q-18 -30 -13 -59.5t32 -42.5q30 -8 58.5 4t45.5 41q4 8 8.5 19.5t6.5 19.5l2 8l139 8q-20 -104 -93.5 -171t-156.5 -67
q-90 0 -140 63.5t-36 143.5q7 45 33 90l84 113h-2l22 139q-52 -77 -141 -118t-172 -41q-176 0 -254.5 109t-40.5 310z" />
    <glyph glyph-name="Wcircumflex" unicode="&#x174;" horiz-adv-x="1837" 
d="M270 1411h234l149 -1051l396 859h170l88 -859l522 1051h233l-725 -1411h-182l-90 846l-383 -846h-182zM862 1563l281 323h213l170 -323h-178l-125 180l-185 -180h-176z" />
    <glyph glyph-name="wcircumflex" unicode="&#x175;" horiz-adv-x="1601" 
d="M199 956h225l106 -645l336 645h197l106 -645l338 645h226l-519 -956h-174l-125 678l-352 -678h-172zM659 1108l283 324h213l168 -324h-178l-123 180l-186 -180h-177z" />
    <glyph glyph-name="Ycircumflex" unicode="&#x176;" horiz-adv-x="1298" 
d="M248 1411h260l291 -561l491 561h260l-678 -766l-112 -645h-223l114 647zM596 1563l281 323h213l170 -323h-179l-125 180l-184 -180h-176z" />
    <glyph glyph-name="ycircumflex" unicode="&#x177;" horiz-adv-x="1038" 
d="M113 -467l299 512l-217 911h225l149 -655l385 655h226l-846 -1423h-221zM387 1108l283 324h213l168 -324h-179l-122 180l-187 -180h-176z" />
    <glyph glyph-name="Ydieresis" unicode="&#x178;" horiz-adv-x="1298" 
d="M248 1411h260l291 -561l491 561h260l-678 -766l-112 -645h-223l114 647zM649 1729q9 53 54.5 88.5t101.5 35.5q53 0 84 -35.5t22 -88.5t-53.5 -90t-97.5 -37q-56 0 -88 36.5t-23 90.5zM999 1729q9 53 54.5 88.5t101.5 35.5q55 0 86.5 -35.5t22.5 -88.5t-54 -90t-100 -37
q-56 0 -88 36.5t-23 90.5z" />
    <glyph glyph-name="Zacute" unicode="&#x179;" horiz-adv-x="1181" 
d="M84 0l29 180l905 1030h-692l34 201h971l-31 -182l-909 -1028h725l-33 -201h-999zM739 1561l262 323h238l-315 -323h-185z" />
    <glyph glyph-name="zacute" unicode="&#x17a;" horiz-adv-x="1032" 
d="M84 0l29 168l645 590h-508l35 198h815l-31 -168l-653 -589h549l-33 -199h-848zM559 1106l262 324h238l-316 -324h-184z" />
    <glyph glyph-name="Zdotaccent" unicode="&#x17b;" horiz-adv-x="1181" 
d="M84 0l29 180l905 1030h-692l34 201h971l-31 -182l-909 -1028h725l-33 -201h-999zM756 1745q9 55 55 92t102 37q57 0 90.5 -37t24.5 -92t-56.5 -92t-105.5 -37q-56 0 -87.5 37t-22.5 92z" />
    <glyph glyph-name="zdotaccent" unicode="&#x17c;" horiz-adv-x="1032" 
d="M84 0l29 168l645 590h-508l35 198h815l-31 -168l-653 -589h549l-33 -199h-848zM600 1290q9 55 55.5 92t102.5 37q57 0 90 -37t24 -92t-55 -92t-104 -37q-56 0 -89 37t-24 92z" />
    <glyph glyph-name="Zcaron" unicode="&#x17d;" horiz-adv-x="1181" 
d="M84 0l29 180l905 1030h-692l34 201h971l-31 -182l-909 -1028h725l-33 -201h-999zM584 1882h176l121 -178l188 178h178l-282 -321h-213z" />
    <glyph glyph-name="zcaron" unicode="&#x17e;" horiz-adv-x="1032" 
d="M84 0l29 168l645 590h-508l35 198h815l-31 -168l-653 -589h549l-33 -199h-848zM428 1427h176l121 -178l188 178h179l-283 -321h-213z" />
    <glyph glyph-name="longs" unicode="&#x17f;" horiz-adv-x="634" 
d="M188 782l31 174h182l17 88q35 203 151.5 318t307.5 115h104l-35 -203h-104q-173 0 -211 -230l-185 -1044h-213l138 782h-183z" />
    <glyph glyph-name="florin" unicode="&#x192;" horiz-adv-x="1269" 
d="M-2 -379l70 193h116q48 0 88.5 19t70 53.5t49.5 70.5t38 82l287 731h-178l73 186h176l31 78q79 200 215 307t346 107h82l-73 -199h-115q-46 0 -84.5 -17t-65 -44t-49 -64.5t-38 -74t-30.5 -76.5q-4 -12 -6 -17h213l-71 -186h-215q-33 -84 -92.5 -243.5t-110 -288.5
t-100.5 -242q-78 -179 -209 -281t-316 -102q-24 0 -102 8z" />
    <glyph glyph-name="Aringacute" unicode="&#x1fa;" horiz-adv-x="1325" 
d="M12 0l781 1411h235l285 -1411h-230l-75 352h-570l-194 -352h-232zM547 547h422l-105 592zM752 1778q14 75 66.5 134t127.5 81l203 252h240l-267 -273q48 -30 69 -81t9 -113q-17 -93 -94 -157.5t-172 -64.5q-92 0 -145.5 65t-36.5 157zM866 1776q-7 -44 19 -75.5t69 -31.5
q47 0 85 31.5t46 75.5q7 47 -20 78.5t-74 31.5q-44 0 -81 -32t-44 -78z" />
    <glyph glyph-name="aringacute" unicode="&#x1fb;" horiz-adv-x="1249" 
d="M170 479q26 148 114 263t208.5 175t250.5 60q95 0 179 -39.5t116 -116.5l23 135h209l-168 -956h-209l22 137q-59 -74 -156 -115.5t-192 -41.5q-97 0 -178.5 35.5t-137 99t-78 158.5t-3.5 206zM387 481q-23 -130 48 -213.5t194 -83.5q122 0 222 80.5t124 216.5
q23 133 -51.5 212t-190.5 79q-123 0 -222.5 -81t-123.5 -210zM590 1309q13 75 66.5 134t127.5 81l203 252h240l-264 -273q45 -30 65 -81t10 -113q-17 -93 -95 -157.5t-173 -64.5q-92 0 -143.5 64.5t-36.5 157.5zM705 1307q-7 -44 18 -75.5t68 -31.5q47 0 86.5 31.5
t46.5 75.5q9 47 -19 78.5t-76 31.5q-43 0 -79 -31.5t-45 -78.5z" />
    <glyph glyph-name="AEacute" unicode="&#x1fc;" horiz-adv-x="1906" 
d="M-14 0l1138 1411h904l-37 -207h-629l-72 -407h551l-37 -207h-551l-67 -383h651l-35 -207h-868l-412 346l-280 -346h-256zM686 555h344l100 557zM1198 1561l262 323h238l-316 -323h-184z" />
    <glyph glyph-name="aeacute" unicode="&#x1fd;" horiz-adv-x="1984" 
d="M170 479q26 148 114 263t208.5 175t250.5 60q95 0 179 -39.5t116 -116.5l23 135h203l-19 -106q159 127 357 127q208 0 319 -136t72 -360q-6 -35 -19 -78h-757q-4 -110 64.5 -174.5t186.5 -64.5q82 0 160.5 36.5t124.5 100.5q42 -23 160 -76q-84 -121 -215 -183t-273 -62
q-98 0 -178.5 33.5t-130.5 95.5l-20 -109h-203l22 137q-59 -74 -156 -115.5t-192 -41.5q-97 0 -178.5 35.5t-137 99t-78 158.5t-3.5 206zM387 481q-23 -130 48 -213.5t194 -83.5q122 0 222 80.5t124 216.5q23 133 -51.5 212t-190.5 79q-123 0 -222.5 -81t-123.5 -210z
M1085 1106l263 324h237l-315 -324h-185zM1245 557h553q4 109 -57.5 172.5t-169.5 63.5q-112 0 -202.5 -64t-123.5 -172z" />
    <glyph glyph-name="Oslashacute" unicode="&#x1fe;" horiz-adv-x="1617" 
d="M109 63l196 168q-138 199 -88 471q27 148 106 282t190.5 231t253.5 154.5t290 57.5q129 0 239.5 -43.5t190.5 -121.5l190 165l80 -94l-192 -168q128 -203 82 -463q-36 -197 -160 -363t-306 -262.5t-380 -96.5q-207 0 -357 106q-4 3 -63 49l-193 -168zM434 702
q-30 -179 45 -315l828 719q-111 108 -287 108q-137 0 -263.5 -68.5t-212.5 -186t-110 -257.5zM559 291q112 -98 279 -98q138 0 264.5 68t213 184.5t111.5 256.5q30 172 -45 306zM987 1561l262 323h238l-316 -323h-184z" />
    <glyph glyph-name="oslashacute" unicode="&#x1ff;" horiz-adv-x="1171" 
d="M84 45l135 117q-85 134 -51 319q27 147 116 261.5t212.5 174.5t259.5 60q166 0 291 -98l122 106l80 -94l-123 -107q72 -130 43 -303q-26 -147 -115 -263t-213.5 -177t-260.5 -61q-169 0 -277 88l-139 -119zM379 481q-19 -103 16 -166l475 412q-61 43 -151 43
q-122 0 -219.5 -80t-120.5 -209zM477 221q58 -37 139 -37q123 0 221 82.5t121 214.5q14 77 -10 148zM690 1106l262 324h238l-316 -324h-184z" />
    <glyph glyph-name="Scommaaccent" unicode="&#x218;" horiz-adv-x="1175" 
d="M172 410h217q-13 -91 53 -161.5t187 -70.5q118 0 195 55t104 138q44 174 -183 229l-170 45q-332 94 -280 379q21 118 101.5 211t194.5 142.5t238 49.5q97 0 176 -29t131.5 -82t73.5 -132t4 -174h-217q19 96 -40 154.5t-169 58.5q-100 0 -180.5 -55t-95.5 -140
q-29 -134 154 -184l174 -47q197 -56 272.5 -170t28.5 -269q-45 -167 -195.5 -272.5t-351.5 -105.5q-143 0 -247.5 59.5t-149.5 158t-25 212.5zM309 -483q79 86 115 162.5t49 203.5h199q-56 -277 -250 -413z" />
    <glyph glyph-name="scommaaccent" unicode="&#x219;" horiz-adv-x="909" 
d="M129 293h195q-3 -63 39 -100t124 -37q74 0 128 30.5t63 83.5q7 43 -25 71.5t-88 41.5l-123 31q-142 40 -190.5 116.5t-18.5 194.5q28 105 140.5 178.5t244.5 73.5q66 0 122.5 -16t100.5 -48.5t65.5 -88.5t13.5 -130h-201q1 51 -34 77t-89 26q-41 0 -83 -15t-62 -39
q-30 -35 -23 -86q7 -45 104 -73l140 -37q57 -15 98 -39.5t62 -53t33.5 -61.5t11 -64t-4.5 -61q-24 -135 -143.5 -211.5t-288.5 -76.5q-91 0 -166.5 35.5t-117.5 108.5t-27 169zM184 -483q79 86 115 162.5t49 203.5h199q-54 -278 -250 -413z" />
    <glyph glyph-name="circumflex" unicode="&#x2c6;" horiz-adv-x="1093" 
d="M410 1108l282 324h213l168 -324h-178l-123 180l-186 -180h-176z" />
    <glyph glyph-name="caron" unicode="&#x2c7;" horiz-adv-x="1093" 
d="M467 1427h176l123 -178l186 178h178l-282 -321h-213z" />
    <glyph glyph-name="breve" unicode="&#x2d8;" horiz-adv-x="989" 
d="M469 1380h158q-11 -53 13 -84.5t77 -31.5q51 0 86 34.5t45 81.5h160q-23 -121 -109.5 -191.5t-208.5 -70.5q-133 0 -187 76t-34 186z" />
    <glyph glyph-name="dotaccent" unicode="&#x2d9;" horiz-adv-x="1091" 
d="M637 1290q9 55 55.5 92t102.5 37q57 0 90 -37t24 -92t-55 -92t-104 -37q-56 0 -89 37t-24 92z" />
    <glyph glyph-name="ring" unicode="&#x2da;" horiz-adv-x="1103" 
d="M557 1307q19 97 94.5 162t167.5 65q96 0 151 -65.5t36 -161.5q-17 -93 -94.5 -157.5t-172.5 -64.5q-92 0 -145.5 65t-36.5 157zM672 1307q-8 -43 18 -75t70 -32q46 0 84.5 32t46.5 75q9 47 -18.5 79.5t-73.5 32.5q-44 0 -81 -32.5t-46 -79.5z" />
    <glyph glyph-name="ogonek" unicode="&#x2db;" horiz-adv-x="1073" 
d="M289 -203q5 37 33 90l141 193h108l-135 -250q-18 -31 -12 -60t33 -42q28 -8 56.5 4t45.5 41q4 8 8 19.5t6 19.5l2 8l140 8q-20 -104 -93.5 -171t-156.5 -67q-90 0 -140 63.5t-36 143.5z" />
    <glyph glyph-name="tilde" unicode="&#x2dc;" horiz-adv-x="884" 
d="M362 1137q30 128 96 186.5t138 58.5q32 0 58.5 -13t40.5 -29t31.5 -29t33.5 -13q20 0 41.5 20t32.5 64h131q-31 -126 -96 -182.5t-136 -56.5q-30 0 -56.5 13t-42 29t-33.5 29t-34 13q-19 0 -41 -22t-30 -68h-134z" />
    <glyph glyph-name="hungarumlaut" unicode="&#x2dd;" horiz-adv-x="1009" 
d="M358 1106l236 321h199l-256 -321h-179zM637 1106l258 321h203l-283 -321h-178z" />
    <glyph glyph-name="Wgrave" unicode="&#x1e80;" horiz-adv-x="1837" 
d="M270 1411h234l149 -1051l396 859h170l88 -859l522 1051h233l-725 -1411h-182l-90 846l-383 -846h-182zM856 1884h238l147 -323h-184z" />
    <glyph glyph-name="wgrave" unicode="&#x1e81;" horiz-adv-x="1601" 
d="M199 956h225l106 -645l336 645h197l106 -645l338 645h226l-519 -956h-174l-125 678l-352 -678h-172zM686 1430h238l147 -324h-184z" />
    <glyph glyph-name="Wacute" unicode="&#x1e82;" horiz-adv-x="1837" 
d="M270 1411h234l149 -1051l396 859h170l88 -859l522 1051h233l-725 -1411h-182l-90 846l-383 -846h-182zM1110 1561l262 323h238l-316 -323h-184z" />
    <glyph glyph-name="wacute" unicode="&#x1e83;" horiz-adv-x="1601" 
d="M199 956h225l106 -645l336 645h197l106 -645l338 645h226l-519 -956h-174l-125 678l-352 -678h-172zM901 1106l262 324h238l-316 -324h-184z" />
    <glyph glyph-name="Wdieresis" unicode="&#x1e84;" horiz-adv-x="1837" 
d="M270 1411h234l149 -1051l396 859h170l88 -859l522 1051h233l-725 -1411h-182l-90 846l-383 -846h-182zM915 1729q9 53 54.5 88.5t101.5 35.5q53 0 84.5 -35.5t22.5 -88.5t-54 -90t-98 -37q-56 0 -88 36.5t-23 90.5zM1266 1729q9 53 54 88.5t101 35.5q55 0 86.5 -35.5
t22.5 -88.5t-54 -90t-100 -37q-56 0 -87.5 36.5t-22.5 90.5z" />
    <glyph glyph-name="wdieresis" unicode="&#x1e85;" horiz-adv-x="1601" 
d="M199 956h225l106 -645l336 645h197l106 -645l338 645h226l-519 -956h-174l-125 678l-352 -678h-172zM715 1274q9 53 54 89t101 36q53 0 84.5 -36t22.5 -89t-54 -90t-98 -37q-56 0 -87.5 36.5t-22.5 90.5zM1065 1274q9 53 54.5 89t101.5 36q54 0 85.5 -35.5t22.5 -89.5
t-54 -90.5t-99 -36.5q-56 0 -88 36.5t-23 90.5z" />
    <glyph glyph-name="Ygrave" unicode="&#x1ef2;" horiz-adv-x="1298" 
d="M248 1411h260l291 -561l491 561h260l-678 -766l-112 -645h-223l114 647zM662 1884h237l148 -323h-185z" />
    <glyph glyph-name="ygrave" unicode="&#x1ef3;" horiz-adv-x="1038" 
d="M113 -467l299 512l-217 911h225l149 -655l385 655h226l-846 -1423h-221zM483 1430h238l147 -324h-184z" />
    <glyph glyph-name="uni2009" unicode="&#x2009;" horiz-adv-x="28" 
 />
    <glyph glyph-name="endash" unicode="&#x2013;" horiz-adv-x="1230" 
d="M203 387l33 184h960l-33 -184h-960z" />
    <glyph glyph-name="emdash" unicode="&#x2014;" horiz-adv-x="1654" 
d="M203 387l33 184h1384l-33 -184h-1384z" />
    <glyph glyph-name="quoteleft" unicode="&#x2018;" horiz-adv-x="520" 
d="M285 954q38 163 131 301.5t180 200.5l100 -45q-182 -206 -225 -457h-186z" />
    <glyph glyph-name="quoteright" unicode="&#x2019;" horiz-adv-x="509" 
d="M258 954q185 210 225 457h187q-39 -163 -132.5 -301.5t-179.5 -200.5z" />
    <glyph glyph-name="quotesinglbase" unicode="&#x201a;" horiz-adv-x="501" 
d="M14 -119q186 211 228 457h186q-39 -164 -133.5 -302.5t-181.5 -199.5z" />
    <glyph glyph-name="quotedblleft" unicode="&#x201c;" horiz-adv-x="835" 
d="M285 956q38 163 132 301.5t181 200.5l98 -45q-182 -206 -225 -457h-186zM602 956q38 162 131.5 300.5t179.5 201.5l99 -45q-181 -210 -224 -457h-186z" />
    <glyph glyph-name="quotedblright" unicode="&#x201d;" horiz-adv-x="825" 
d="M258 954q183 212 225 457h185q-36 -164 -129 -301.5t-181 -200.5zM573 954q186 211 226 457h186q-38 -164 -130.5 -301.5t-178.5 -200.5z" />
    <glyph glyph-name="quotedblbase" unicode="&#x201e;" horiz-adv-x="817" 
d="M14 -119q183 213 228 457h184q-38 -164 -131.5 -302.5t-181.5 -199.5zM330 -119q184 209 227 457h186q-39 -163 -133 -301.5t-180 -200.5z" />
    <glyph glyph-name="dagger" unicode="&#x2020;" horiz-adv-x="849" 
d="M240 874l30 158h240l63 359h199l-63 -359h239l-30 -158h-240l-199 -1107h-198l198 1107h-239z" />
    <glyph glyph-name="daggerdbl" unicode="&#x2021;" horiz-adv-x="907" 
d="M154 225l26 156h240l86 493h-240l31 158h240l63 359h199l-64 -359h240l-31 -158h-239l-87 -493h240l-27 -156h-239l-84 -458h-199l84 458h-239z" />
    <glyph glyph-name="bullet" unicode="&#x2022;" horiz-adv-x="946" 
d="M246 489q23 126 129 211.5t235 85.5t205 -85.5t53 -211.5q-23 -129 -129 -214t-235 -85t-205 85t-53 214z" />
    <glyph glyph-name="ellipsis" unicode="&#x2026;" horiz-adv-x="1540" 
d="M150 117q10 59 58 99t107 40q61 0 97 -40t26 -99t-60.5 -98t-111.5 -39q-59 0 -92.5 39t-23.5 98zM647 117q10 60 58 99.5t108 39.5q61 0 97 -40t26 -99t-60.5 -98t-111.5 -39q-60 0 -93.5 38.5t-23.5 98.5zM1143 117q10 60 59 99.5t109 39.5t96.5 -40t26.5 -99t-61 -98
t-111 -39q-61 0 -95 39t-24 98z" />
    <glyph glyph-name="perthousand" unicode="&#x2030;" horiz-adv-x="2039" 
d="M272 1098q22 115 114.5 194.5t207.5 79.5q114 0 180.5 -80t44.5 -194q-22 -115 -115.5 -194t-207.5 -79q-116 0 -181 79t-43 194zM289 0l909 1368h137l-911 -1368h-135zM422 1098q-9 -53 19.5 -88t82.5 -35q52 0 94.5 35.5t51.5 87.5t-21.5 88.5t-81.5 36.5
q-54 0 -95 -36t-50 -89zM825 252q20 114 113.5 194t208.5 80q114 0 179.5 -80t45.5 -194q-20 -115 -114 -193.5t-209 -78.5t-179.5 78t-44.5 194zM975 252q-10 -54 18.5 -88.5t81.5 -34.5t96.5 35t53.5 88q9 51 -22 88t-83 37t-94 -36.5t-51 -88.5zM1462 252
q20 114 113.5 194t208.5 80q114 0 179.5 -80t45.5 -194q-20 -115 -114 -193.5t-209 -78.5t-179.5 78t-44.5 194zM1612 252q-10 -54 18.5 -88.5t81.5 -34.5t96.5 35t53.5 88q9 51 -22 88t-83 37t-94 -36.5t-51 -88.5z" />
    <glyph glyph-name="guilsinglleft" unicode="&#x2039;" horiz-adv-x="651" 
d="M174 477l358 424h179l-359 -424l209 -424h-178z" />
    <glyph glyph-name="guilsinglright" unicode="&#x203a;" horiz-adv-x="651" 
d="M106 53l357 424l-205 424h178l205 -424l-356 -424h-179z" />
    <glyph glyph-name="fraction" unicode="&#x2044;" horiz-adv-x="368" 
d="M-358 -20l1165 1388h145l-1165 -1388h-145z" />
    <glyph glyph-name="uni2070" unicode="&#x2070;" horiz-adv-x="739" 
d="M303 1280q16 92 42.5 162t68.5 129t106 90t148 31q68 0 116 -21.5t74 -57.5t36.5 -89.5t8 -112t-15.5 -131.5q-16 -90 -41.5 -159.5t-67.5 -128t-107 -89.5t-149 -31q-67 0 -115 21t-73.5 57t-36.5 89.5t-8.5 111.5t14.5 129zM434 1280q-12 -79 -12 -141t30 -100t91 -38
q164 0 213 279q12 79 11.5 141.5t-31.5 101t-93 38.5q-160 0 -209 -281z" />
    <glyph glyph-name="uni2074" unicode="&#x2074;" horiz-adv-x="727" 
d="M211 1047l539 634h110l-90 -514h111l-23 -120h-110l-31 -164h-133l30 164h-403zM446 1167h191l49 293z" />
    <glyph glyph-name="uni2075" unicode="&#x2075;" horiz-adv-x="696" 
d="M233 1036q9 6 36.5 22.5t51 31t35.5 22.5q13 -53 54 -83t94 -30q78 0 134 43t67 105q11 65 -27.5 100t-99.5 35q-102 0 -228 -72l-43 47l146 422h424l-23 -125h-315l-66 -178q65 29 139 29q114 0 179 -68t43 -190q-22 -124 -119 -200.5t-234 -76.5q-85 0 -153 44.5
t-95 121.5z" />
    <glyph glyph-name="uni2076" unicode="&#x2076;" horiz-adv-x="690" 
d="M283 1143q7 60 18 114t30 121t49 120t70 98.5t98 70t128 23.5q49 -2 86.5 -15t71.5 -50t51 -97l-127 -49q-28 86 -107 86q-78 0 -135.5 -74t-75.5 -186q31 44 79 69t102 25q105 0 163 -80t35 -195q-25 -113 -116 -186t-203 -70q-110 3 -169.5 77.5t-47.5 197.5zM422 1139
q-12 -57 19 -97.5t87 -42.5q55 -1 101.5 37t58.5 94q13 58 -16 98t-84 42q-58 1 -106 -36.5t-60 -94.5z" />
    <glyph glyph-name="uni2077" unicode="&#x2077;" horiz-adv-x="665" 
d="M225 883l469 669h-350l23 129h569l-559 -798h-152z" />
    <glyph glyph-name="uni2078" unicode="&#x2078;" horiz-adv-x="700" 
d="M268 1135q25 140 152 208q-45 62 -31 136q17 90 91.5 151.5t168.5 61.5q95 0 149.5 -62t39.5 -151q-12 -77 -84 -136q46 -34 69 -88.5t11 -119.5q-20 -110 -116 -186.5t-214 -76.5q-120 0 -188 76.5t-48 186.5zM399 1137q-9 -58 27 -98t100 -40q63 0 115 40.5t61 97.5
t-26.5 100t-95.5 43h-13q-59 0 -109 -43.5t-59 -99.5zM520 1479q-6 -38 15.5 -65.5t62.5 -27.5q41 3 72 30.5t37 62.5t-17 60.5t-63 25.5t-70.5 -25t-36.5 -61z" />
    <glyph glyph-name="uni2079" unicode="&#x2079;" horiz-adv-x="690" 
d="M254 1030l131 51q11 -43 39.5 -64.5t64.5 -21.5q77 0 134.5 73.5t76.5 184.5q-30 -43 -77.5 -68.5t-100.5 -25.5q-105 0 -164 80.5t-34 196.5q24 112 113.5 185t203.5 69q108 -3 168.5 -77t48.5 -198q-7 -57 -18 -112t-30 -121t-49.5 -119.5t-70.5 -99t-98 -70.5
t-127 -23q-78 3 -132.5 38.5t-78.5 121.5zM455 1430q-13 -58 16.5 -99t83.5 -41q58 -1 105 35.5t61 93.5q10 58 -22.5 99t-88.5 41q-55 1 -99 -36t-56 -93z" />
    <glyph glyph-name="uni2080" unicode="&#x2080;" horiz-adv-x="737" 
d="M92 96q16 92 42.5 162t68.5 129t106 90t148 31q68 0 116 -21.5t74 -57.5t36.5 -89.5t8 -112t-15.5 -131.5q-16 -90 -41.5 -159.5t-67.5 -127.5t-107 -89t-149 -31q-67 0 -114.5 21t-73.5 57t-37 89t-8.5 111t14.5 129zM223 96q-12 -79 -11.5 -140.5t31 -99.5t91.5 -38
q90 0 139 74.5t72 203.5q12 79 12 141.5t-31 101t-92 38.5q-162 0 -211 -281z" />
    <glyph glyph-name="uni2081" unicode="&#x2081;" horiz-adv-x="428" 
d="M88 240l23 122l297 144l-144 -807h-133l107 608z" />
    <glyph glyph-name="uni2082" unicode="&#x2082;" horiz-adv-x="659" 
d="M18 -301l13 65l389 388q66 62 74 116q9 49 -22 81t-85 32q-51 0 -94.5 -34.5t-65.5 -92.5l-112 29q35 102 117 163.5t180 61.5q107 0 168.5 -68t42.5 -172q-19 -105 -121 -207q-46 -45 -110 -106t-132 -127h285l-25 -129h-502z" />
    <glyph glyph-name="uni2083" unicode="&#x2083;" horiz-adv-x="653" 
d="M16 -145q76 36 119 59q12 -41 45 -69.5t76 -32.5q60 -5 114 30.5t66 87.5q11 51 -21 92t-96 41h-90l21 117h90q52 0 87 38.5t38 82.5q2 36 -22.5 60t-65.5 24q-77 8 -135 -63q-8 8 -41.5 34t-42.5 35q47 57 114.5 88t139.5 27q98 -4 150.5 -68.5t33.5 -150.5
q-6 -47 -40.5 -90.5t-82.5 -67.5q59 -23 85 -86t7 -129q-28 -101 -127.5 -167t-210.5 -58q-77 6 -133 51t-78 115z" />
    <glyph glyph-name="uni2084" unicode="&#x2084;" horiz-adv-x="727" 
d="M2 -137l537 635h110l-90 -514h111l-23 -121h-110l-31 -164h-133l30 164h-401zM236 -16h190l49 292z" />
    <glyph glyph-name="uni2085" unicode="&#x2085;" horiz-adv-x="694" 
d="M25 -147q4 2 55 33t67 42q15 -53 55.5 -82.5t92.5 -29.5q78 0 134 42.5t67 104.5q11 65 -27.5 100t-99.5 35q-104 0 -228 -71l-43 47l146 422h424l-23 -125h-315l-66 -178q66 28 139 28q114 0 179 -68t43 -190q-22 -124 -119 -200t-234 -76q-84 0 -152 44.5t-95 121.5z
" />
    <glyph glyph-name="uni2086" unicode="&#x2086;" horiz-adv-x="690" 
d="M72 -41q6 50 14.5 96.5t24 104t35.5 105t51 94t68 78.5t88.5 51t111.5 18q77 -3 131 -38.5t80 -123.5l-129 -49q-28 86 -107 86q-78 0 -135.5 -74t-75.5 -186q31 44 79 69t102 25q105 0 163 -79.5t35 -194.5q-25 -113 -116 -186t-203 -70q-110 3 -169.5 77t-47.5 197z
M211 -45q-10 -57 21 -97t85 -42q55 -1 101.5 37t58.5 94q12 58 -17 97.5t-83 41.5q-57 2 -105.5 -36t-60.5 -95z" />
    <glyph glyph-name="uni2087" unicode="&#x2087;" horiz-adv-x="649" 
d="M14 -301l469 670h-350l23 129h569l-559 -799h-152z" />
    <glyph glyph-name="uni2088" unicode="&#x2088;" horiz-adv-x="700" 
d="M57 -49q25 139 152 209q-43 58 -31 135q15 90 90 151.5t170 61.5t149.5 -62t39.5 -151q-12 -76 -84 -135q48 -33 70 -88t10 -121q-20 -110 -115.5 -186t-214.5 -76q-120 0 -188 76t-48 186zM190 -47q-9 -58 26 -97.5t99 -39.5t117 40t62 97q9 56 -27.5 99.5t-97.5 43.5
h-13q-59 0 -108 -43t-58 -100zM309 295q-8 -37 15 -64.5t65 -27.5q40 3 69.5 30t37.5 62q7 35 -16.5 60.5t-63.5 25.5t-70.5 -25t-36.5 -61z" />
    <glyph glyph-name="uni2089" unicode="&#x2089;" horiz-adv-x="690" 
d="M45 -154l129 52q11 -43 40 -64.5t65 -21.5q77 0 134 73.5t76 184.5q-30 -43 -77.5 -69t-100.5 -26q-105 0 -164 80.5t-34 196.5q24 111 114 184.5t203 69.5q109 -3 169.5 -76.5t51.5 -198.5q-7 -49 -15.5 -95t-25 -103t-37 -104.5t-51.5 -94.5t-68.5 -79t-89 -51
t-110.5 -17q-78 3 -131.5 38t-77.5 121zM244 246q-13 -58 17.5 -99t84.5 -41q57 -1 103.5 36t60.5 94q10 58 -22.5 98.5t-88.5 40.5q-55 1 -99 -36t-56 -93z" />
    <glyph glyph-name="colonmonetary" unicode="&#x20a1;" horiz-adv-x="1437" 
d="M178 -115l158 297q-84 101 -117 235t-6 285q34 189 148 349.5t282.5 259.5t355.5 112l121 226l99 -37l-105 -189q89 -6 162 -32l96 182l94 -35l-98 -188q119 -67 184 -176l-188 -132q-57 72 -109 103l-503 -948q40 -9 84 -9q114 0 220.5 49t190.5 136l144 -133
q-112 -121 -268 -190.5t-326 -69.5q-77 0 -152 16l-121 -221l-94 37l115 217q-73 31 -131 80l-138 -259zM430 702q-27 -160 33 -286l418 782q-167 -43 -293 -181t-158 -315zM526 319q51 -61 125 -94l516 967q-65 24 -161 27z" />
    <glyph glyph-name="lira" unicode="&#x20a4;" horiz-adv-x="1323" 
d="M100 0l33 201h197l49 262h-160l19 115h159l23 124h-160l21 115h159l25 141q37 215 174 342t334 127q85 0 155.5 -30t118 -85t66 -138.5t0.5 -184.5h-211q19 112 -34.5 171t-147.5 50q-83 -3 -152 -58t-84 -138l-35 -197h293l-20 -115h-293l-23 -124h293l-18 -115h-293
l-49 -262h469q19 0 33.5 15t17.5 38l16 102h209l-16 -104q-18 -109 -87 -180.5t-169 -71.5h-912z" />
    <glyph glyph-name="uni20A6" unicode="&#x20a6;" horiz-adv-x="1546" 
d="M205 512l18 113h142l28 151h-141l20 113h142l90 522h188l226 -522h321l90 522h191l-90 -522h167l-20 -113h-168l-29 -151h168l-18 -113h-168l-90 -512h-182l-220 512h-333l-91 -512h-190l90 512h-141zM555 625h264l-61 151h-174zM604 889h105l-76 174zM965 776l63 -151
h162l29 151h-254zM1077 512l64 -156l30 156h-94z" />
    <glyph glyph-name="peseta" unicode="&#x20a7;" horiz-adv-x="1519" 
d="M250 817l20 113h164l17 100h-164l20 113h164l47 268h563q148 0 232 -74.5t106 -193.5h213l-20 -113h-185q-4 -56 -8 -84l-2 -16h178l-20 -113h-195q-58 -132 -171.5 -210.5t-284.5 -78.5h-371l-90 -528h-193l144 817h-164zM586 707h358q158 0 234 110h-572zM627 930h600
l2 16q4 27 4 84h-590zM664 1143h540q-46 90 -157 90h-369z" />
    <glyph glyph-name="uni20A8" unicode="&#x20a8;" horiz-adv-x="1400" 
d="M223 518l35 199h416q106 0 171.5 65.5t88.5 163.5h-635q18 86 20 115h623q-6 68 -49 108.5t-123 40.5h-424q16 70 33 201h1173l-20 -115h-438q83 -96 80 -235h317l-21 -115h-309q-16 -79 -51 -151t-88 -133.5t-130.5 -98.5t-168.5 -37l278 -526h-264l-262 518h-252z" />
    <glyph glyph-name="uni20A9" unicode="&#x20a9;" horiz-adv-x="2002" 
d="M217 561l19 113h239l-33 205h-170l19 112h131l-66 420h205l60 -420h413l107 230h145l25 -230h413l211 420h205l-219 -420h135l-18 -112h-172l-107 -205h242l-19 -113h-278l-289 -561h-166l-61 561h-180l-256 -561h-166l-92 561h-277zM637 879l29 -205h223l94 205h-346z
M684 561l35 -254l119 254h-154zM1057 674h119l-23 205h-2zM1323 879l23 -205h221l102 205h-346zM1358 561l26 -254l129 254h-155z" />
    <glyph glyph-name="afii57636" unicode="&#x20aa;" horiz-adv-x="1644" 
d="M193 0l194 1102h451q66 0 143 -17q143 -32 210 -142.5t40 -262.5l-57 -318h-207l55 304q18 97 -38 162t-163 65h-262l-156 -893h-210zM604 422l58 317h208l-53 -305q-18 -96 36.5 -160.5t162.5 -64.5h260l160 893h211l-195 -1102h-451q-85 0 -145 14q-143 32 -211 144
t-41 264z" />
    <glyph glyph-name="Euro" unicode="&#x20ac;" horiz-adv-x="1679" 
d="M190 512l21 117h969l-21 -117h-516q30 -145 139 -234.5t267 -89.5q114 0 220.5 49t190.5 136l144 -133q-112 -122 -267 -191t-325 -69q-247 0 -410 149.5t-184 382.5h-228zM231 750l21 116h221q98 244 319 402.5t476 158.5q166 0 295 -67t202 -186l-188 -132
q-56 81 -145.5 129t-200.5 48q-166 0 -312.5 -98.5t-222.5 -254.5h525l-21 -116h-969z" />
    <glyph glyph-name="afii61289" unicode="&#x2113;" horiz-adv-x="804" 
d="M199 330l145 815q27 154 108.5 243t237.5 89q76 0 127 -26t73 -71.5t28 -106.5t-9 -132l-78 -436q-16 -88 -43.5 -147.5t-76.5 -102.5t-123.5 -62.5t-181.5 -19.5l-9 -43q-14 -71 7 -102.5t90 -32.5l194 -5l-33 -190h-227q-288 0 -229 330zM442 571h86q43 0 68.5 40
t34.5 96l78 426q13 59 0 103t-56 44q-88 0 -112 -147z" />
    <glyph glyph-name="afii61352" unicode="&#x2116;" horiz-adv-x="1990" 
d="M190 0l248 1411h211l422 -1001l176 1001h219l-247 -1411h-205l-428 1010l-176 -1010h-220zM1479 682l18 106h520l-18 -106h-520zM1550 1145q20 113 113 191.5t205 78.5q113 0 178 -79t45 -191t-112 -190t-205 -78t-178.5 78t-45.5 190zM1694 1145q-9 -53 21.5 -90
t82.5 -37q54 0 98.5 37t53.5 90t-21.5 91t-83.5 38q-52 0 -97 -38t-54 -91z" />
    <glyph glyph-name="trademark" unicode="&#x2122;" horiz-adv-x="1728" 
d="M356 1282l21 129h747l152 -530l338 530h127l-45 -774h-142l31 524l-278 -440h-117l-123 440l-156 -524h-143l193 645h-218l-116 -645h-148l117 645h-240z" />
    <glyph glyph-name="estimated" unicode="&#x212e;" horiz-adv-x="1341" 
d="M225 573q21 122 80 230.5t144.5 189t201.5 127.5t244 47q102 0 186 -31t140 -86t92.5 -130t43 -163t-8.5 -186h-879l-70 -395q110 -129 287 -129q82 0 153 20t129 59t101.5 80.5t93.5 100.5l56 -39q-55 -67 -107.5 -116t-118.5 -89.5t-146 -61.5t-173 -21
q-98 0 -180.5 31t-138.5 85t-93 129t-44.5 163t7.5 185zM481 639h633l57 334q-49 55 -126 91t-162 36q-199 0 -344 -127z" />
    <glyph glyph-name="minus" unicode="&#x2212;" horiz-adv-x="1146" 
d="M227 451l31 178h848l-31 -178h-848z" />
    <glyph glyph-name="notequal" unicode="&#x2260;" horiz-adv-x="1210" 
d="M174 246l33 182h354l146 217h-461l30 182h549l150 220h145l-149 -220h248l-31 -182h-338l-143 -217h442l-33 -182h-532l-148 -223h-143l147 223h-266z" />
    <glyph glyph-name="lessequal" unicode="&#x2264;" horiz-adv-x="1339" 
d="M139 0l29 178h1038l-28 -178h-1039zM260 682l35 190l1104 396l-37 -205l-819 -285l717 -289l-35 -204z" />
    <glyph glyph-name="greaterequal" unicode="&#x2265;" horiz-adv-x="1339" 
d="M162 0l28 178h1039l-29 -178h-1038zM213 285l35 204l819 289l-717 285l37 205l965 -396l-35 -190z" />
    <glyph glyph-name="uniE000" unicode="&#xe000;" horiz-adv-x="952" 
d="M0 0v952h952v-952h-952z" />
    <glyph glyph-name="uniF6C3" unicode="&#xf6c3;" horiz-adv-x="567" 
d="M55 -483q79 86 115 162.5t49 203.5h199q-54 -278 -250 -413z" />
    <glyph glyph-name="uniF6DD" unicode="&#xf6dd;" horiz-adv-x="2365" 
d="M150 0l247 1411h551q88 0 156.5 -25t109 -68t65.5 -100t26.5 -122t-7.5 -133q-14 -80 -47.5 -152t-86.5 -133t-131.5 -101.5t-174.5 -50.5l279 -526h-265l-262 518h-151l-90 -518h-219zM494 717h315q110 0 177.5 72t86.5 174q10 45 3.5 89t-23 79t-55 57t-93.5 22h-323z
M1202 -465l254 1421h211l-25 -141q57 75 153.5 118.5t195.5 43.5q129 0 225.5 -61.5t141 -176.5t18.5 -262q-27 -148 -112.5 -263t-203.5 -174.5t-248 -59.5q-102 0 -181 40.5t-109 116.5l-109 -602h-211zM1583 473q-12 -68 3 -124.5t49.5 -92t82.5 -55t103 -19.5
q123 0 220 81t120 210q24 131 -44 215t-190 84t-221 -82t-123 -217z" />
    <glyph glyph-name="uniF8FF" unicode="&#xf8ff;" horiz-adv-x="1734" 
d="M139 1407h1407l25 -1407h-1407zM315 1219l13 -773h166l-154 154l-6 365l530 -519l516 519l6 -365l-149 -154h172l-12 773l-537 -539zM332 270l2 -108h18l-2 76l29 -76h20l21 76l2 -76h18l-2 108h-28l-19 -73l-29 73h-30zM453 217q0 -23 14 -39t39 -16q22 0 33.5 15.5
t11.5 37.5q0 23 -12.5 39t-34.5 16q-25 0 -38 -15.5t-13 -37.5zM469 215q0 12 10.5 23.5t24.5 11.5q12 0 18 -11t6 -24q0 -12 -6 -22.5t-18 -10.5q-14 0 -24.5 11.5t-10.5 21.5zM551 203q0 -19 13.5 -30t33.5 -11q43 0 43 35q0 22 -31 28q-21 3 -26.5 5t-5.5 8q0 12 18 12
q20 0 20 -12h19q0 32 -39 32q-15 0 -27 -9t-12 -23q0 -11 8 -17t25 -14q26 0 26 -10t-4 -12.5t-16 -2.5q-18 0 -18 21h-27zM641 250h35l2 -88h16l-2 88h31v20h-82v-20zM707 162h24l6 26h45l9 -26h22h18l-2 45h27q8 0 13 -6t5 -13t1.5 -15.5t1.5 -10.5h26q-8 8 -8 26
q0 19 -14 27q14 7 14 18q0 37 -27 37h-57l2 -108l-45 108h-18zM743 207l13 37h6l14 -37h-33zM829 221v29h27q18 0 18 -12q0 -17 -18 -17h-27zM909 270l2 -108h41q23 0 36 16.5t13 40.5t-13.5 37.5t-37.5 13.5h-41zM934 182v68h8q21 0 28 -8t7 -27q0 -13 -9 -23t-18 -10h-16z
M1008 270l2 -108h82l-2 20h-58v25h51v18h-51v25h51v20h-75zM1090 203q0 -20 13 -30.5t34 -10.5q19 0 31 10t12 25q0 21 -31 28q-23 3 -29 5t-6 8q0 12 14 12q25 0 25 -12h21q0 32 -39 32q-16 0 -30.5 -9t-14.5 -23q0 -16 38 -31q25 0 25 -10q0 -15 -18 -15q-10 0 -18.5 5.5
t-8.5 15.5h-18zM1188 270l2 -108h14l-2 108h-14zM1217 215q0 -22 14 -37.5t39 -15.5q18 0 22 14l11 -14h12l-2 59h-45v-18h24q-9 -21 -24 -21q-14 0 -23.5 11.5t-9.5 21.5q0 12 9.5 23.5t23.5 11.5q6 0 12 -6t6 -15h27q-4 20 -17 30.5t-28 10.5q-24 0 -37.5 -16t-13.5 -39z
M1325 270l2 -108h16l-2 67l48 -67h26l-2 108h-27v-67l-45 67h-16z" />
    <glyph glyph-name="NULL" horiz-adv-x="0" 
 />
    <glyph glyph-name="published" horiz-adv-x="1652" 
d="M233 702q36 197 159.5 363.5t305 264t377.5 97.5t344.5 -97.5t214.5 -264.5t31 -363q-27 -147 -107 -280.5t-193 -230.5t-256 -154t-290 -57t-269.5 57t-200.5 154t-110.5 230.5t-5.5 280.5zM358 702q-22 -122 5 -232t92 -190t166 -127t223 -47q162 0 311.5 79.5
t251.5 216.5t131 300q29 162 -25.5 300t-177 218t-284.5 80q-121 0 -238.5 -47.5t-210 -127.5t-157.5 -190.5t-87 -232.5zM668 324l129 723h278q113 0 161.5 -70.5t29.5 -167.5q-16 -90 -89 -163t-186 -73h-137l-45 -249h-141zM877 713h133q45 0 74.5 28t35.5 68
q8 41 -9.5 69.5t-59.5 28.5h-138z" />
    <glyph glyph-name="frenchfranc" horiz-adv-x="1495" 
d="M195 0l247 1411h822l-35 -205h-608l-60 -323h582l-39 -228q110 240 303 240q48 0 95.5 -11t70.5 -26l-72 -196q-56 32 -133 32q-129 0 -215.5 -125t-122.5 -327l-41 -242h-209l119 680h-373l-118 -680h-213z" />
    <glyph glyph-name="parenleft.case" horiz-adv-x="751" 
d="M217 700q78 435 284 695t468 260l-33 -193q-171 0 -319.5 -213.5t-208.5 -548.5q-38 -228 -19 -396t92.5 -264.5t186.5 -96.5l-35 -193q-173 0 -285.5 117t-146 328t15.5 505z" />
    <glyph glyph-name="parenright.case" horiz-adv-x="751" 
d="M29 -250l32 193q170 0 320 211.5t209 545.5q38 228 18.5 397t-93 267t-185.5 98l35 193q172 0 284.5 -118.5t146 -330.5t-15.5 -506q-51 -287 -163 -503t-264 -331.5t-324 -115.5z" />
    <glyph glyph-name="hyphen.case" horiz-adv-x="985" 
d="M242 616l34 191h715l-35 -191h-714z" />
    <glyph glyph-name="at.case" horiz-adv-x="1984" 
d="M221 702q32 183 130.5 349.5t237.5 287t316.5 192t360.5 71.5q185 0 342.5 -66t262.5 -179t150.5 -275t12.5 -345q-14 -76 -40 -153.5t-69.5 -156t-98 -139t-129.5 -98.5t-159 -38q-47 0 -86.5 9.5t-74 30.5t-55 55.5t-29 85t4.5 118.5l45 262q20 108 -43 183t-170 75
q-106 0 -195 -75t-108 -183q-19 -105 45 -180.5t170 -75.5q95 0 207 88l-32 -180q-105 -62 -203 -62q-170 0 -269.5 120t-70.5 290q31 171 172.5 291t312.5 120q81 0 150.5 -29.5t115.5 -82.5q100 -118 76 -281l-51 -295q-24 -131 117 -131q55 0 103.5 30t81.5 75
t59.5 105.5t41.5 114t25 107.5q20 124 1.5 232t-76 196.5t-140.5 151t-193 97t-233 34.5q-202 0 -388 -100t-312 -271.5t-162 -374.5q-19 -125 -5 -235t66.5 -202.5t129 -159t182 -103.5t227.5 -37h51l-29 -155h-51q-183 0 -335 70t-248 189t-135 284t-7 349z" />
    <glyph glyph-name="bracketleft.case" horiz-adv-x="671" 
d="M123 -238l334 1876h426l-33 -180h-227l-271 -1515h228l-31 -181h-426z" />
    <glyph glyph-name="bracketright.case" horiz-adv-x="671" 
d="M37 -238l31 181h227l270 1515h-227l33 180h426l-334 -1876h-426z" />
    <glyph glyph-name="braceleft.case" horiz-adv-x="817" 
d="M184 629l27 151q49 0 93 36t52 81l66 356q30 180 165.5 291t307.5 111h141l-24 -158h-148q-86 0 -157.5 -63.5t-88.5 -157.5l-59 -322q-15 -85 -61 -154t-121 -95q68 -23 88.5 -93t5.5 -157l-55 -305q-17 -92 32 -160t134 -68h147l-27 -160h-141q-171 0 -268.5 112
t-65.5 292l62 348q8 43 -24 79t-81 36z" />
    <glyph glyph-name="braceright.case" horiz-adv-x="817" 
d="M29 -238l26 160h148q84 0 157.5 67.5t90.5 160.5l55 305q15 88 60 157.5t120 92.5q-66 26 -86.5 94t-5.5 155l57 322q17 93 -32 157t-136 64h-147l26 158h142q172 0 270.5 -111t65.5 -291l-64 -356q-9 -45 22.5 -81t80.5 -36l-25 -151q-49 0 -93 -36t-52 -79l-64 -348
q-33 -181 -168.5 -292.5t-306.5 -111.5h-141z" />
    <glyph glyph-name="exclamdown.case" horiz-adv-x="546" 
d="M156 -2l213 1032h168l-154 -1032h-227zM356 1290q10 59 60 98t110 39q61 0 96 -39t25 -98t-59.5 -99t-110.5 -40q-59 0 -95 40t-26 99z" />
    <glyph glyph-name="guillemotleft.case" horiz-adv-x="1058" 
d="M233 705l359 423h178l-358 -423l209 -424h-179zM596 705l358 423h176l-358 -423l209 -424h-176z" />
    <glyph glyph-name="periodcentered.case" horiz-adv-x="544" 
d="M266 791q10 59 59.5 99t108.5 40q61 0 97 -40t26 -99t-60.5 -99.5t-111.5 -40.5q-59 0 -94 40.5t-25 99.5z" />
    <glyph glyph-name="guillemotright.case" horiz-adv-x="1058" 
d="M176 281l356 424l-204 423h176l205 -423l-357 -424h-176zM537 281l356 424l-205 423h178l205 -423l-356 -424h-178z" />
    <glyph glyph-name="questiondown.case" horiz-adv-x="995" 
d="M143 379q27 144 127 246t234 141q73 20 111 54t51 102l22 106h205l-19 -106q-12 -68 -33.5 -117t-46 -78.5t-64 -55.5t-74.5 -41.5t-91.5 -43t-101.5 -54.5q-44 -27 -73.5 -68.5t-37.5 -84.5q-15 -84 40 -137.5t143 -53.5q86 0 156.5 60.5t88.5 159.5h203
q-23 -128 -96 -226.5t-175 -150t-216 -51.5q-179 0 -282.5 110t-70.5 289zM690 1290q10 59 59.5 98t110.5 39q60 0 95.5 -39t25.5 -98t-60 -99t-110 -40q-61 0 -96 40t-25 99z" />
    <glyph glyph-name="endash.case" horiz-adv-x="1222" 
d="M238 614l32 185h961l-33 -185h-960z" />
    <glyph glyph-name="emdash.case" horiz-adv-x="1646" 
d="M238 614l32 185h1385l-33 -185h-1384z" />
    <glyph glyph-name="bullet.case" horiz-adv-x="950" 
d="M289 717q23 126 129 211.5t235 85.5t205 -85.5t53 -211.5q-23 -129 -129 -214t-235 -85t-205 85t-53 214z" />
    <glyph glyph-name="guilsinglleft.case" horiz-adv-x="698" 
d="M233 705l359 423h178l-358 -423l209 -424h-179z" />
    <glyph glyph-name="guilsinglright.case" horiz-adv-x="698" 
d="M176 281l356 424l-204 423h178l205 -423l-357 -424h-178z" />
    <glyph glyph-name="cent.case" horiz-adv-x="1091" 
d="M223 723q23 129 97 234.5t178.5 169t224.5 83.5l39 217h133l-37 -210q101 -6 182 -49t131 -115l-188 -131q-31 44 -83.5 68t-115.5 24q-124 0 -226.5 -80.5t-125.5 -210.5q-23 -131 50 -215t196 -84q63 0 125 25t106 69l146 -129q-157 -150 -373 -166l-41 -225h-133
l41 231q-174 30 -267 164t-59 330z" />
    <glyph glyph-name="zero.tnum" 
d="M223 666q22 121 52.5 219t80.5 188t115 150.5t157.5 96.5t205.5 36t193 -36t123 -96.5t61.5 -150.5t14 -188.5t-25.5 -218.5q-22 -120 -52.5 -217.5t-80.5 -187t-114.5 -150t-157 -96t-205.5 -35.5q-95 0 -166.5 24t-116 70t-71.5 106.5t-34.5 139.5t-2 163t23.5 183z
M432 666q-12 -69 -17 -127.5t-3 -114.5t16 -98.5t38.5 -75t65.5 -49.5t95 -17q65 0 118.5 25.5t92 68t69 105.5t50 131t34.5 152q19 106 20.5 187.5t-16 150.5t-67 106t-129.5 37q-81 0 -144 -37t-106 -105.5t-70.5 -150.5t-46.5 -188z" />
    <glyph glyph-name="one.tnum" 
d="M500 987l32 195l463 170l-239 -1352h-209l186 1067z" />
    <glyph glyph-name="two.tnum" 
d="M168 0l16 100l662 656q111 108 127 202q15 85 -38.5 139t-148.5 54q-88 0 -161.5 -56.5t-102.5 -148.5l-192 43q58 169 193.5 269t301.5 100q180 0 284.5 -112.5t72.5 -287.5q-32 -179 -207 -344q-86 -84 -200.5 -195t-219.5 -214h485l-34 -205h-838z" />
    <glyph glyph-name="three.tnum" 
d="M164 250l205 98q15 -63 83 -113t138 -51q124 0 197.5 57t89.5 148q15 87 -37.5 156.5t-163.5 68.5h-150l35 195h150q74 -1 125.5 45.5t72.5 106.5q9 32 11 63.5t-17.5 62.5t-58.5 48q-29 14 -90 14q-117 3 -207 -105l-139 117q73 96 189 150t239 47q162 -9 249 -117
t62 -254q-13 -78 -71 -149t-138 -115q92 -37 132.5 -137.5t19.5 -212.5q-33 -182 -182.5 -287.5t-354.5 -105.5q-151 0 -253 75t-136 195z" />
    <glyph glyph-name="four.tnum" 
d="M80 281l899 1056h180l-155 -866h186l-31 -190h-186l-49 -281h-209l49 281h-684zM444 471h351l96 522z" />
    <glyph glyph-name="five.tnum" 
d="M152 276q24 11 100 52.5t96 50.5q23 -89 88.5 -142t153.5 -53q148 0 240 72.5t112 183.5q21 119 -44.5 183.5t-180.5 64.5q-84 0 -163.5 -27t-180.5 -94l-109 92l234 678h731l-33 -198h-561l-123 -338q46 33 121.5 54.5t138.5 21.5q195 0 303.5 -115.5t73.5 -321.5
q-37 -207 -200.5 -333.5t-395.5 -126.5q-140 0 -249 80.5t-152 215.5z" />
    <glyph glyph-name="six.tnum" 
d="M231 440q12 112 32.5 214.5t54.5 211t85.5 195.5t119 156t161.5 105.5t205 33.5q49 -2 89 -9.5t81 -25.5t72.5 -46t58 -73t43.5 -104l-203 -82q-22 73 -71.5 108t-112.5 35q-139 0 -244.5 -129t-124.5 -319q115 151 314 151q173 0 269.5 -130t61.5 -326
q-40 -184 -190.5 -305t-341.5 -121q-181 0 -281 125.5t-78 334.5zM446 432q-19 -102 37 -172t152 -72q97 -5 179 62.5t99 165.5q17 101 -32.5 170.5t-145.5 72.5q-98 3 -185 -65t-104 -162z" />
    <glyph glyph-name="seven.tnum" 
d="M166 0l795 1135h-601l37 202h946l-933 -1337h-244z" />
    <glyph glyph-name="eight.tnum" 
d="M193 424q20 110 90.5 201.5t173.5 148.5q-82 92 -58 234q25 146 150 248t282 102t248 -102t66 -248q-12 -68 -51 -128.5t-95 -105.5q86 -58 123 -149.5t17 -200.5q-34 -186 -193.5 -315t-357.5 -129q-199 0 -314 129t-81 315zM403 426q-19 -101 45.5 -172.5t174.5 -71.5
t199 71t108 173q17 98 -44.5 170t-168.5 72h-23q-104 0 -188.5 -72.5t-102.5 -169.5zM604 1006q-11 -68 28 -112t113 -44q71 1 125.5 46.5t65.5 109.5q11 62 -28.5 105.5t-110.5 43.5q-72 0 -128 -43.5t-65 -105.5z" />
    <glyph glyph-name="nine.tnum" 
d="M182 238l207 81q22 -73 71.5 -108t112.5 -35q138 0 242 129t123 320q-50 -72 -131.5 -112t-179.5 -40q-173 0 -269 130.5t-61 326.5q38 184 188.5 305t341.5 121q181 0 281 -126t78 -335q-10 -95 -25.5 -183t-43 -183t-63 -174.5t-87 -151.5t-114 -121.5t-146 -77
t-179.5 -24.5q-61 2 -110 14.5t-96.5 40t-83 79t-56.5 124.5zM506 920q-19 -101 31.5 -171t146.5 -73q97 -3 183.5 65t103.5 162q18 101 -37 171t-150 73q-98 3 -178.5 -63t-99.5 -164z" />
    <glyph glyph-name="zero.taboldstyle" 
d="M178 512q28 158 120.5 280.5t218 186t259.5 63.5q102 0 187 -37.5t141.5 -105t79.5 -168t2 -219.5q-42 -235 -216 -383.5t-384 -148.5q-100 0 -184 38.5t-141 106.5t-80.5 168.5t-2.5 218.5zM381 512q-25 -145 47 -236.5t195 -91.5q124 0 228 91.5t130 236.5
q25 145 -47.5 234.5t-196.5 89.5q-80 0 -154.5 -38.5t-129.5 -114t-72 -171.5z" />
    <glyph glyph-name="one.taboldstyle" 
d="M401 584l37 215l549 258l-184 -1057h-211l127 729z" />
    <glyph glyph-name="two.taboldstyle" 
d="M193 0l16 104l571 508q86 72 94 125q9 50 -28.5 84.5t-106.5 34.5q-66 0 -118 -38.5t-72 -106.5l-197 32q41 144 159 230t269 86q162 0 251.5 -91t64.5 -227q-8 -45 -26.5 -84t-52.5 -78.5t-59 -64.5t-75 -70l-289 -243h407l-32 -201h-776z" />
    <glyph glyph-name="six.taboldstyle" 
d="M231 440q12 112 32.5 214.5t54.5 211t85.5 195.5t119 156t161.5 105.5t205 33.5q49 -2 89 -9.5t81 -25.5t72.5 -46t58 -73t43.5 -104l-203 -82q-22 73 -71.5 108t-112.5 35q-139 0 -244.5 -129t-124.5 -319q115 151 314 151q173 0 269.5 -130t61.5 -326
q-40 -184 -190.5 -305t-341.5 -121q-181 0 -281 125.5t-78 334.5zM446 432q-19 -102 37 -172t152 -72q97 -5 179 62.5t99 165.5q17 101 -32.5 170.5t-145.5 72.5q-98 3 -185 -65t-104 -162z" />
    <glyph glyph-name="eight.taboldstyle" 
d="M193 424q20 110 90.5 201.5t173.5 148.5q-82 92 -58 234q25 146 150 248t282 102t248 -102t66 -248q-12 -68 -51 -128.5t-95 -105.5q86 -58 123 -149.5t17 -200.5q-34 -186 -193.5 -315t-357.5 -129q-199 0 -314 129t-81 315zM403 426q-19 -101 45.5 -172.5t174.5 -71.5
t199 71t108 173q17 98 -44.5 170t-168.5 72h-23q-104 0 -188.5 -72.5t-102.5 -169.5zM604 1006q-11 -68 28 -112t113 -44q71 1 125.5 46.5t65.5 109.5q11 62 -28.5 105.5t-110.5 43.5q-72 0 -128 -43.5t-65 -105.5z" />
    <glyph glyph-name="three.taboldstyle" 
d="M102 -131l201 98q17 -64 84.5 -113.5t136.5 -50.5q123 0 196 56.5t91 148.5q17 86 -35 156t-162 69h-149l33 195h149q74 -1 126 45.5t75 106.5q7 32 8 63t-19 62.5t-59 48.5q-31 14 -90 14q-117 3 -207 -104l-139 116q74 96 190.5 150t239.5 47q163 -9 249.5 -117
t59.5 -254q-13 -78 -70 -149t-137 -115q92 -37 133 -137.5t21 -212.5q-31 -181 -182.5 -287t-356.5 -106q-152 0 -253.5 75t-133.5 195z" />
    <glyph glyph-name="four.taboldstyle" 
d="M14 -102l901 1056h179l-154 -866h188l-34 -190h-189l-49 -283h-209l49 283h-682zM383 88h348l92 522z" />
    <glyph glyph-name="five.taboldstyle" 
d="M86 -104q24 11 100.5 52t96.5 50q25 -90 88.5 -142.5t150.5 -52.5q148 0 239 72.5t113 183.5q22 119 -43.5 183.5t-181.5 64.5q-85 0 -163.5 -27t-178.5 -94l-110 93l235 677h731l-35 -198h-561l-123 -338q50 33 125 54.5t138 21.5q94 0 170.5 -28.5t128.5 -82.5t73 -138
t2 -188q-37 -207 -200 -333.5t-394 -126.5q-140 0 -249 81t-152 216z" />
    <glyph glyph-name="seven.taboldstyle" 
d="M96 -383l797 1135h-600l37 202h946l-936 -1337h-244z" />
    <glyph glyph-name="nine.taboldstyle" 
d="M125 -141l203 82q24 -73 73 -108.5t111 -35.5q139 0 244.5 129.5t122.5 319.5q-49 -72 -131.5 -112t-180.5 -40q-174 0 -269.5 130.5t-59.5 326.5q38 184 188.5 305t341.5 121q181 0 280.5 -126t77.5 -335q-9 -95 -24.5 -183.5t-42.5 -183t-62.5 -174t-87.5 -151.5
t-114.5 -121.5t-146 -77t-179.5 -24.5q-61 2 -110 14.5t-96.5 40t-82.5 79t-55 124.5zM446 541q-17 -101 33 -171t144 -73q98 -3 184.5 65t103.5 162q19 102 -36.5 172t-151.5 72q-97 5 -178.5 -62t-98.5 -165z" />
    <glyph glyph-name="zero.oldstyle" horiz-adv-x="1216" 
d="M193 512q28 158 120.5 280.5t218 186t259.5 63.5q102 0 186.5 -37.5t141.5 -105t79.5 -168t1.5 -219.5q-42 -235 -216 -383.5t-384 -148.5q-100 0 -184 38.5t-141 106.5t-80 168.5t-2 218.5zM395 512q-25 -145 47 -236.5t195 -91.5q124 0 228 91.5t130 236.5
q25 145 -47 234.5t-196 89.5q-123 0 -227.5 -90t-129.5 -234z" />
    <glyph glyph-name="one.oldstyle" horiz-adv-x="757" 
d="M186 584l37 215l549 258l-184 -1057h-209l127 729z" />
    <glyph glyph-name="two.oldstyle" horiz-adv-x="995" 
d="M98 0l17 104l571 508q87 76 94 125q9 50 -28.5 84.5t-106.5 34.5q-67 0 -119 -38.5t-73 -106.5l-197 32q41 144 159.5 230t270.5 86q161 0 250.5 -91t64.5 -227q-8 -45 -26.5 -84t-52.5 -78.5t-59 -64.5t-75 -70l-288 -243h405l-33 -201h-774z" />
    <glyph glyph-name="three.oldstyle" horiz-adv-x="1056" 
d="M37 -131l201 98q17 -64 84.5 -113.5t136.5 -50.5q123 0 195.5 56.5t90.5 148.5q17 86 -35 156t-161 69h-150l33 195h150q74 -1 125.5 45.5t74.5 106.5q35 128 -69 174q-31 14 -90 14q-117 3 -207 -104l-140 116q74 96 191 150t240 47q163 -9 249.5 -117t59.5 -254
q-13 -78 -70 -149t-137 -115q92 -37 133 -137.5t21 -212.5q-31 -181 -182.5 -287t-356.5 -106q-152 0 -253.5 75t-133.5 195z" />
    <glyph glyph-name="four.oldstyle" horiz-adv-x="1185" 
d="M14 -102l901 1056h181l-154 -866h186l-34 -190h-187l-49 -283h-209l49 283h-684zM383 88h350l92 522z" />
    <glyph glyph-name="five.oldstyle" horiz-adv-x="1134" 
d="M59 -104q24 11 100.5 52t96.5 50q25 -90 89 -142.5t151 -52.5q148 0 239 72.5t113 183.5q22 119 -43.5 183.5t-181.5 64.5q-85 0 -163.5 -27t-178.5 -94l-111 93l236 677h731l-35 -198h-561l-123 -338q50 33 125 54.5t137 21.5q94 0 170.5 -28.5t129 -82.5t73.5 -138
t2 -188q-37 -207 -200 -333.5t-394 -126.5q-140 0 -249.5 81t-152.5 216z" />
    <glyph glyph-name="six.oldstyle" horiz-adv-x="1148" 
d="M213 440q10 95 25.5 183.5t43 183t63 174t87 152t114 121.5t145.5 77t179 25q49 -2 89 -9.5t81 -25.5t72.5 -46t58 -73t43.5 -104l-202 -82q-22 72 -72 107.5t-113 35.5q-139 0 -244 -129t-124 -319q115 151 313 151q174 0 270.5 -130t61.5 -326q-40 -184 -191 -305
t-342 -121q-181 0 -280.5 125.5t-77.5 334.5zM428 432q-19 -102 36.5 -172t151.5 -72q97 -5 179.5 62.5t99.5 165.5q17 101 -32.5 170.5t-145.5 72.5q-98 3 -185 -65t-104 -162z" />
    <glyph glyph-name="seven.oldstyle" horiz-adv-x="1046" 
d="M27 -381l796 1135h-600l37 202h946l-936 -1337h-243z" />
    <glyph glyph-name="eight.oldstyle" horiz-adv-x="1167" 
d="M182 424q20 110 90.5 201.5t173.5 148.5q-81 91 -57 234q25 146 150 248t282 102t248 -102t66 -248q-12 -68 -51 -128.5t-95 -105.5q85 -57 122 -149t17 -201q-34 -186 -193 -315t-357 -129q-131 0 -230 59t-143.5 161t-22.5 224zM393 426q-19 -101 45 -172.5t174 -71.5
t199.5 71t108.5 173q17 98 -44.5 170t-168.5 72h-23q-104 0 -188.5 -72.5t-102.5 -169.5zM594 1006q-11 -68 28 -112t113 -44q71 1 125.5 46.5t65.5 109.5q11 62 -29 105.5t-111 43.5q-72 0 -127.5 -43.5t-64.5 -105.5z" />
    <glyph glyph-name="nine.oldstyle" horiz-adv-x="1105" 
d="M84 -141l203 82q24 -73 73 -108.5t111 -35.5q139 0 244.5 129.5t122.5 319.5q-49 -72 -131.5 -112t-180.5 -40q-174 0 -269.5 130.5t-59.5 326.5q38 184 188.5 305t341.5 121q181 0 280.5 -126t77.5 -335q-9 -95 -24.5 -183.5t-42.5 -183t-62.5 -174t-87.5 -151.5
t-114.5 -121.5t-146 -77t-179.5 -24.5q-61 2 -110 14.5t-96.5 40t-82.5 79t-55 124.5zM406 541q-17 -101 32.5 -171t143.5 -73q98 -3 184.5 65t103.5 162q19 102 -36.5 172t-151.5 72q-97 4 -178 -62.5t-98 -164.5z" />
    <glyph glyph-name="Lslash.sc" horiz-adv-x="886" 
d="M154 469l22 137l127 74l90 506h195l-70 -387l193 108l-27 -137l-190 -108l-84 -478h469l-31 -184h-664l95 541z" />
    <glyph glyph-name="Zcaron.sc" horiz-adv-x="1042" 
d="M94 0l27 160l743 848h-571l33 178h821l-29 -158l-749 -848h598l-29 -180h-844zM510 1595h162l100 -143l154 143h161l-245 -278h-185z" />
    <glyph glyph-name="exclam.sc" horiz-adv-x="563" 
d="M180 92q9 49 49 82t88 33q51 0 79.5 -33t19.5 -82t-49 -80.5t-91 -31.5q-48 0 -76.5 31.5t-19.5 80.5zM256 311l127 879h215l-182 -879h-160z" />
    <glyph glyph-name="ampersand.sc" horiz-adv-x="1185" 
d="M170 354q19 101 78.5 181.5t152.5 130.5q-79 67 -53 213q22 126 130.5 217.5t242.5 91.5q98 0 169.5 -46t106.5 -124l-174 -98q-47 88 -123 88q-64 0 -111.5 -38.5t-56.5 -95.5q-9 -53 19.5 -100t95.5 -47h213l27 145h178l-27 -147h146l-27 -152h-145l-39 -213
q-11 -63 -8.5 -109t38 -71.5t107.5 -25.5l-29 -172q-106 0 -177 31t-97 91q-54 -57 -138.5 -90.5t-168.5 -33.5q-172 0 -265 107t-65 267zM360 369q-17 -87 34.5 -147t146.5 -60q216 0 272 299l21 112h-205q-102 0 -176.5 -60t-92.5 -144z" />
    <glyph glyph-name="question.sc" horiz-adv-x="874" 
d="M231 834q29 165 146.5 263.5t267.5 98.5q152 0 239 -92.5t60 -243.5q-21 -121 -106 -209.5t-197 -120.5q-35 -10 -56 -20.5t-35.5 -22.5t-24.5 -38t-16.5 -50.5t-16.5 -76.5h-183q6 41 15 86q24 123 91.5 190.5t184.5 103.5q63 19 107 61.5t53 96.5q10 66 -34 109
t-112 43q-69 0 -129 -49.5t-73 -128.5h-181zM233 100q10 54 54 89.5t96 35.5q55 0 84.5 -35t19.5 -90q-9 -52 -51.5 -86t-97.5 -34q-52 0 -83 34t-22 86z" />
    <glyph glyph-name="A.sc" horiz-adv-x="1167" 
d="M33 0l657 1186h205l240 -1186h-205l-62 293h-467l-161 -293h-207zM498 467h336l-86 467z" />
    <glyph glyph-name="B.sc" horiz-adv-x="1130" 
d="M176 0l209 1186h457q154 0 227 -85t47 -231q-13 -75 -56.5 -138t-121.5 -97q88 -28 128 -112t24 -173q-27 -148 -142 -249t-278 -101h-494zM401 178h289q74 0 129 52.5t68 123.5q13 68 -25 125.5t-112 57.5h-285zM496 707h254q65 0 110 45t58 112q12 67 -23 106.5
t-107 39.5h-239z" />
    <glyph glyph-name="C.sc" horiz-adv-x="1220" 
d="M203 588q30 167 134 306.5t257 220.5t319 81q138 0 247 -57.5t175 -159.5l-168 -117q-110 150 -284 150q-173 0 -314.5 -123.5t-173.5 -300.5q-31 -176 66.5 -299t269.5 -123q93 0 182 41.5t160 114.5l129 -119q-98 -103 -232 -163t-274 -60q-166 0 -290 81.5t-178.5 221
t-24.5 305.5z" />
    <glyph glyph-name="D.sc" horiz-adv-x="1280" 
d="M176 0l209 1186h461q167 0 276 -79t147 -213t7 -304q-23 -126 -78 -234t-135.5 -187t-190.5 -124t-235 -45h-461zM397 180h269q164 0 273.5 115t141.5 295q18 87 8 163t-41 132.5t-91.5 89.5t-143.5 33h-268z" />
    <glyph glyph-name="E.sc" horiz-adv-x="1021" 
d="M176 0l209 1186h721l-33 -176h-526l-60 -336h461l-30 -178h-461l-58 -318h541l-29 -178h-735z" />
    <glyph glyph-name="F.sc" horiz-adv-x="952" 
d="M176 0l209 1186h711l-33 -176h-516l-60 -336h408l-31 -178h-407l-86 -496h-195z" />
    <glyph glyph-name="G.sc" horiz-adv-x="1333" 
d="M201 588q23 125 89 237.5t160 193.5t214 129t245 48q121 0 220 -44.5t165 -125.5l-159 -127h-2q-45 55 -111 85t-143 30q-113 0 -217 -57t-176 -155t-93 -214q-20 -115 16 -213t120 -155.5t196 -57.5q93 0 175 32.5t141.5 96t78.5 147.5h-329l28 166h549
q-54 -310 -233 -467t-443 -157q-167 0 -290.5 81.5t-177 221t-23.5 305.5z" />
    <glyph glyph-name="H.sc" horiz-adv-x="1259" 
d="M176 0l209 1186h195l-91 -508h517l90 508h196l-209 -1186h-196l88 502h-516l-88 -502h-195z" />
    <glyph glyph-name="I.sc" horiz-adv-x="546" 
d="M176 0l209 1186h195l-209 -1186h-195z" />
    <glyph glyph-name="J.sc" horiz-adv-x="544" 
d="M-219 -399l47 182q49 -16 127 -16q91 0 144.5 56.5t68.5 145.5l215 1217h192l-215 -1217q-14 -82 -47 -150.5t-85 -123.5t-130.5 -86t-175.5 -31q-38 0 -141 23z" />
    <glyph glyph-name="K.sc" horiz-adv-x="1056" 
d="M176 0l209 1186h195l-82 -463l434 463h227l-561 -592l459 -594h-256l-348 467l-82 -467h-195z" />
    <glyph glyph-name="L.sc" horiz-adv-x="878" 
d="M176 0l209 1186h195l-181 -1008h469l-28 -178h-664z" />
    <glyph glyph-name="M.sc" horiz-adv-x="1636" 
d="M109 0l352 1186h170l246 -826l544 826h170l-63 -1186h-195l45 823l-458 -692h-162l-215 692l-244 -823h-190z" />
    <glyph glyph-name="N.sc" horiz-adv-x="1220" 
d="M176 0l209 1186h184l346 -815l146 815h192l-209 -1186h-180l-350 825l-143 -825h-195z" />
    <glyph glyph-name="O.sc" horiz-adv-x="1398" 
d="M201 588q30 167 133 306.5t255 220.5t318 81q125 0 229 -48t170 -129t93 -193.5t4 -237.5q-30 -166 -134.5 -305.5t-258 -221t-320.5 -81.5q-166 0 -289 81.5t-176.5 221t-23.5 305.5zM393 588q-32 -173 65 -296.5t267 -123.5q171 0 311 123t172 297q21 115 -16 211.5
t-121 152.5t-197 56q-170 0 -309.5 -122.5t-171.5 -297.5z" />
    <glyph glyph-name="P.sc" horiz-adv-x="1089" 
d="M176 0l209 1186h479q75 0 133.5 -21t93.5 -57.5t56.5 -84.5t22.5 -102.5t-7 -111.5q-14 -76 -47 -142t-85.5 -120t-130.5 -85.5t-171 -31.5h-283l-73 -430h-197zM479 608h273q89 0 145.5 59.5t71.5 141.5q15 80 -20 140.5t-120 60.5h-280z" />
    <glyph glyph-name="Q.sc" horiz-adv-x="1402" 
d="M201 588q23 125 89 237.5t160 193.5t214 129t245 48q126 0 230 -48t170.5 -129t93.5 -193.5t4 -237.5q-29 -156 -125 -289.5t-235 -218.5l83 -193l-163 -92l-95 209q-98 -24 -180 -24q-167 0 -290.5 81.5t-177 221t-23.5 305.5zM393 588q-29 -163 58 -278.5t245 -137.5
q57 0 103 4q-9 22 -28 61.5t-26 57.5l-28 63l164 93l90 -207q92 56 156.5 147t82.5 197q31 178 -64.5 301t-266.5 123q-172 0 -313.5 -123.5t-172.5 -300.5z" />
    <glyph glyph-name="R.sc" horiz-adv-x="1120" 
d="M176 0l209 1186h465q74 0 132.5 -21t93.5 -57.5t56.5 -84.5t23 -102.5t-6.5 -111.5q-25 -142 -118.5 -246t-246.5 -123l234 -440h-236l-219 430h-117l-73 -430h-197zM479 608h254q90 0 145 59t70 142q10 51 1 95t-44.5 75t-93.5 31h-262z" />
    <glyph glyph-name="S.sc" horiz-adv-x="1030" 
d="M166 350h194q-15 -77 38.5 -134.5t152.5 -57.5q96 0 160 44t84 109q23 72 -21.5 119t-126.5 68l-143 39q-278 75 -236 321q26 148 157.5 243t293.5 95q170 0 261.5 -97t61.5 -261h-192q14 80 -31 129t-133 49q-81 0 -148 -44.5t-77 -111.5q-19 -107 123 -147l145 -39
q161 -43 225 -142t31 -231q-40 -139 -170.5 -230t-296.5 -91q-182 0 -281 108.5t-71 261.5z" />
    <glyph glyph-name="T.sc" horiz-adv-x="983" 
d="M223 1008l31 178h889l-31 -178h-346l-176 -1008h-197l176 1008h-346z" />
    <glyph glyph-name="U.sc" horiz-adv-x="1212" 
d="M236 410l135 774h196l-135 -774q-20 -107 40.5 -175.5t162.5 -68.5q103 0 188 68.5t105 175.5l135 774h192l-135 -774q-23 -127 -101.5 -226.5t-188.5 -151.5t-230 -52q-183 0 -290.5 119.5t-73.5 310.5z" />
    <glyph glyph-name="V.sc" horiz-adv-x="1019" 
d="M270 1186h201l96 -854l400 854h200l-567 -1186h-178z" />
    <glyph glyph-name="W.sc" horiz-adv-x="1593" 
d="M252 1186h207l121 -860l323 700h150l71 -700l428 860h209l-612 -1186h-160l-71 686l-312 -686h-162z" />
    <glyph glyph-name="X.sc" horiz-adv-x="1130" 
d="M37 0l524 637l-272 549h231l185 -391l325 391h230l-467 -551l303 -635h-234l-215 473l-379 -473h-231z" />
    <glyph glyph-name="Y.sc" horiz-adv-x="1155" 
d="M233 1186h230l239 -463l406 463h235l-573 -643l-94 -543h-199l94 543z" />
    <glyph glyph-name="Z.sc" horiz-adv-x="1042" 
d="M94 0l27 160l743 848h-571l33 178h821l-29 -158l-749 -848h598l-29 -180h-844z" />
    <glyph glyph-name="Scaron.sc" horiz-adv-x="1030" 
d="M166 350h194q-15 -77 38.5 -134.5t152.5 -57.5q96 0 160 44t84 109q23 72 -21.5 118t-128.5 69l-141 39q-71 20 -121 49.5t-73.5 62.5t-37 70t-10.5 71.5t6 67.5q26 148 157.5 243t293.5 95q170 0 261.5 -97t61.5 -261h-192q14 80 -31 129t-133 49q-81 0 -148 -44.5
t-77 -111.5q-19 -107 123 -147l145 -39q161 -43 225 -142t31 -231q-40 -139 -170.5 -230t-296.5 -91q-182 0 -281 108.5t-71 261.5zM508 1595h162l100 -143l154 143h161l-247 -278h-183z" />
    <glyph glyph-name="OE.sc" horiz-adv-x="1949" 
d="M203 588q30 167 133 306.5t255 220.5t318 81q118 0 216 -46.5t159 -127.5l29 164h719l-33 -185h-524l-60 -327h459l-31 -182h-459l-53 -308h541l-33 -184h-735l24 154q-90 -80 -204.5 -127t-231.5 -47q-166 0 -289 81.5t-176.5 221t-23.5 305.5zM395 588
q-31 -172 66 -293t268 -121q170 0 309 127t170 301q19 164 -75.5 283t-255.5 119q-171 0 -311 -121.5t-171 -294.5z" />
    <glyph glyph-name="Ydieresis.sc" horiz-adv-x="1155" 
d="M233 1186h230l239 -463l406 463h235l-573 -643l-94 -543h-199l94 543zM573 1462q7 46 48.5 78.5t89.5 32.5q47 0 74 -32t20 -79q-9 -49 -47 -79.5t-86 -30.5q-49 0 -78.5 31t-20.5 79zM866 1462q7 46 48.5 78.5t89.5 32.5q47 0 74 -32t20 -79q-9 -49 -47 -79.5t-86 -30.5
q-49 0 -78.5 31t-20.5 79z" />
    <glyph glyph-name="exclamdown.sc" horiz-adv-x="563" 
d="M174 0l182 879h160l-127 -879h-215zM358 1098q7 48 48 80t90 32q51 0 78.5 -31t19.5 -81q-7 -49 -46.5 -82t-90.5 -33q-48 0 -77 33t-22 82z" />
    <glyph glyph-name="questiondown.sc" horiz-adv-x="870" 
d="M133 315q21 121 106 209.5t197 120.5q80 22 104 57.5t48 151.5h182q-3 -15 -8 -43.5t-8 -42.5q-24 -124 -91.5 -191.5t-185.5 -103.5q-63 -19 -107 -61.5t-53 -96.5q-10 -65 35.5 -108t114.5 -43t127.5 49.5t71.5 128.5h180q-29 -165 -146.5 -263.5t-267.5 -98.5
q-152 0 -239 92t-60 243zM590 1075q9 52 52 86.5t97 34.5q52 0 83 -34.5t22 -86.5q-10 -54 -54 -89.5t-96 -35.5q-55 0 -84.5 35t-19.5 90z" />
    <glyph glyph-name="Agrave.sc" horiz-adv-x="1167" 
d="M33 0l657 1186h205l240 -1186h-205l-62 293h-467l-161 -293h-207zM498 467h336l-86 467zM549 1597h215l129 -278h-168z" />
    <glyph glyph-name="Aacute.sc" horiz-adv-x="1167" 
d="M33 0l657 1186h205l240 -1186h-205l-62 293h-467l-161 -293h-207zM498 467h336l-86 467zM731 1309l227 278h213l-272 -278h-168z" />
    <glyph glyph-name="Acircumflex.sc" horiz-adv-x="1167" 
d="M33 0l657 1186h205l240 -1186h-205l-62 293h-467l-161 -293h-207zM498 467h336l-86 467zM518 1319l248 280h182l148 -280h-164l-98 147l-156 -147h-160z" />
    <glyph glyph-name="Atilde.sc" horiz-adv-x="1167" 
d="M33 0l657 1186h205l240 -1186h-205l-62 293h-467l-161 -293h-207zM498 467h336l-86 467zM573 1343q26 108 79.5 161t111.5 55q35 0 79 -35t68 -35q14 0 30.5 17.5t23.5 52.5h120q-24 -112 -80.5 -162.5t-117.5 -50.5q-29 0 -55 18t-47 35.5t-37 17.5q-13 0 -28.5 -18.5
t-23.5 -55.5h-123z" />
    <glyph glyph-name="Adieresis.sc" horiz-adv-x="1167" 
d="M33 0l657 1186h205l240 -1186h-205l-62 293h-467l-161 -293h-207zM498 467h336l-86 467zM565 1462q7 46 48 78.5t89 32.5q47 0 74.5 -32t20.5 -79q-9 -49 -48 -79.5t-87 -30.5q-49 0 -77.5 31t-19.5 79zM858 1462q7 47 47 79t88 32q49 0 77 -32t20 -79
q-9 -49 -48.5 -79.5t-89.5 -30.5q-48 0 -75.5 30.5t-18.5 79.5z" />
    <glyph glyph-name="Aring.sc" horiz-adv-x="1167" 
d="M33 0l657 1186h205l240 -1186h-205l-62 293h-467l-161 -293h-207zM498 467h336l-86 467zM643 1491q15 83 80 137.5t145 54.5q84 0 129.5 -54.5t30.5 -137.5q-14 -80 -80 -135.5t-149 -55.5q-79 0 -124.5 55.5t-31.5 135.5zM752 1491q-6 -33 14 -57.5t53 -24.5q37 0 67 24
t36 58q6 36 -15 61t-57 25q-33 0 -62.5 -25.5t-35.5 -60.5z" />
    <glyph glyph-name="AE.sc" horiz-adv-x="1656" 
d="M14 0l961 1186h764l-35 -185h-524l-58 -327h457l-31 -182h-456l-56 -308h541l-31 -184h-735l49 289h-381l-233 -289h-232zM625 475h268l78 432z" />
    <glyph glyph-name="Ccedilla.sc" horiz-adv-x="1222" 
d="M203 588q30 167 134 307t257 221.5t319 81.5q138 0 247 -57.5t175 -159.5l-168 -119q-103 150 -284 150q-173 0 -314.5 -123.5t-173.5 -300.5q-31 -176 66.5 -299t269.5 -123q92 0 181.5 42t162.5 114l129 -117q-199 -202 -461 -223q4 -11 11.5 -32t11 -31t8.5 -31t4 -32
t-2 -34q-12 -70 -75 -124t-140 -54q-73 0 -115.5 59.5t-25.5 151.5l127 -9q-6 -29 -6 -43q0 -19 21 -31t44 -3q25 10 37.5 32.5t9.5 46.5l-26 136q-149 17 -255.5 101t-151.5 216.5t-17 286.5z" />
    <glyph glyph-name="Egrave.sc" horiz-adv-x="1021" 
d="M176 0l209 1186h721l-33 -176h-526l-60 -336h461l-30 -178h-461l-58 -318h541l-29 -178h-735zM543 1597h215l129 -278h-168z" />
    <glyph glyph-name="Eacute.sc" horiz-adv-x="1021" 
d="M176 0l209 1186h721l-33 -176h-526l-60 -336h461l-30 -178h-461l-58 -318h541l-29 -178h-735zM612 1319l228 278h215l-275 -278h-168z" />
    <glyph glyph-name="Ecircumflex.sc" horiz-adv-x="1021" 
d="M176 0l209 1186h721l-33 -176h-526l-60 -336h461l-30 -178h-461l-58 -318h541l-29 -178h-735zM453 1319l247 280h185l145 -280h-162l-98 147l-156 -147h-161z" />
    <glyph glyph-name="Edieresis.sc" horiz-adv-x="1021" 
d="M176 0l209 1186h721l-33 -176h-526l-60 -336h461l-30 -178h-461l-58 -318h541l-29 -178h-735zM510 1462q7 47 48 79t91 32q46 0 73.5 -32t20.5 -79q-9 -48 -48.5 -79t-86.5 -31q-50 0 -78.5 30.5t-19.5 79.5zM803 1462q7 46 48 78.5t89 32.5q47 0 74 -32t20 -79
q-9 -49 -48 -79.5t-87 -30.5t-76.5 31t-19.5 79z" />
    <glyph glyph-name="Igrave.sc" horiz-adv-x="546" 
d="M176 0l209 1186h195l-209 -1186h-195zM254 1599h215l133 -274h-170z" />
    <glyph glyph-name="Iacute.sc" horiz-adv-x="546" 
d="M176 0l209 1186h195l-209 -1186h-195zM410 1325l231 274h215l-276 -274h-170z" />
    <glyph glyph-name="Icircumflex.sc" horiz-adv-x="546" 
d="M176 0l209 1186h195l-209 -1186h-195zM215 1319l248 280h184l146 -280h-162l-99 147l-155 -147h-162z" />
    <glyph glyph-name="Idieresis.sc" horiz-adv-x="546" 
d="M176 0l209 1186h195l-209 -1186h-195zM270 1462q7 47 48.5 79t91.5 32q46 0 73.5 -32t20.5 -79q-9 -48 -48.5 -79t-86.5 -31q-50 0 -79 30.5t-20 79.5zM563 1462q7 46 48 78.5t89 32.5q47 0 74.5 -32t20.5 -79q-9 -48 -48.5 -79t-87.5 -31t-76.5 31t-19.5 79z" />
    <glyph glyph-name="Eth.sc" horiz-adv-x="1282" 
d="M121 522l24 133h160l92 531h457q166 0 274 -79t145.5 -213t6.5 -304q-23 -126 -77.5 -234t-135 -187t-189 -124t-233.5 -45h-457l93 522h-160zM414 186h264q161 0 269 113t140 291q22 116 0.5 207.5t-90 146.5t-176.5 55h-264l-59 -344h264l-25 -133h-264z" />
    <glyph glyph-name="Ntilde.sc" horiz-adv-x="1220" 
d="M176 0l209 1186h184l346 -815l146 815h192l-209 -1186h-180l-350 825l-143 -825h-195zM610 1343q26 108 79 160.5t112 55.5q35 0 79 -35t68 -35q14 0 30 17.5t23 52.5h121q-24 -112 -80.5 -162.5t-117.5 -50.5q-29 0 -55.5 18t-47.5 35.5t-37 17.5q-13 0 -28 -18.5
t-23 -55.5h-123z" />
    <glyph glyph-name="Ograve.sc" horiz-adv-x="1398" 
d="M201 588q30 167 133 306.5t255 220.5t318 81q125 0 229 -48t170 -129t93 -193.5t4 -237.5q-30 -166 -134.5 -305.5t-258 -221t-320.5 -81.5q-166 0 -289 81.5t-176.5 221t-23.5 305.5zM393 588q-32 -173 65 -296.5t267 -123.5q171 0 311 123t172 297q21 115 -16 211.5
t-121 152.5t-197 56q-170 0 -309.5 -122.5t-171.5 -297.5zM672 1597h213l129 -278h-168z" />
    <glyph glyph-name="Oacute.sc" horiz-adv-x="1398" 
d="M201 588q30 167 133 306.5t255 220.5t318 81q125 0 229 -48t170 -129t93 -193.5t4 -237.5q-30 -166 -134.5 -305.5t-258 -221t-320.5 -81.5q-166 0 -289 81.5t-176.5 221t-23.5 305.5zM393 588q-32 -173 65 -296.5t267 -123.5q171 0 311 123t172 297q21 115 -16 211.5
t-121 152.5t-197 56q-170 0 -309.5 -122.5t-171.5 -297.5zM842 1319l229 278h213l-274 -278h-168z" />
    <glyph glyph-name="Ocircumflex.sc" horiz-adv-x="1398" 
d="M201 588q30 167 133 306.5t255 220.5t318 81q125 0 229 -48t170 -129t93 -193.5t4 -237.5q-30 -166 -134.5 -305.5t-258 -221t-320.5 -81.5q-166 0 -289 81.5t-176.5 221t-23.5 305.5zM393 588q-32 -173 65 -296.5t267 -123.5q171 0 311 123t172 297q21 115 -16 211.5
t-121 152.5t-197 56q-170 0 -309.5 -122.5t-171.5 -297.5zM641 1319l250 280h182l144 -280h-160l-101 147l-153 -147h-162z" />
    <glyph glyph-name="Otilde.sc" horiz-adv-x="1398" 
d="M201 588q30 167 133 306.5t255 220.5t318 81q125 0 229 -48t170 -129t93 -193.5t4 -237.5q-30 -166 -134.5 -305.5t-258 -221t-320.5 -81.5q-166 0 -289 81.5t-176.5 221t-23.5 305.5zM393 588q-32 -173 65 -296.5t267 -123.5q171 0 311 123t172 297q21 115 -16 211.5
t-121 152.5t-197 56q-170 0 -309.5 -122.5t-171.5 -297.5zM694 1343q26 108 79 160.5t112 55.5q35 0 79 -35t68 -35q14 0 30 17.5t23 52.5h121q-24 -112 -80.5 -162.5t-117.5 -50.5q-29 0 -55.5 18t-47.5 35.5t-37 17.5q-13 0 -28 -18.5t-23 -55.5h-123z" />
    <glyph glyph-name="Odieresis.sc" horiz-adv-x="1398" 
d="M201 588q30 167 133 306.5t255 220.5t318 81q125 0 229 -48t170 -129t93 -193.5t4 -237.5q-30 -166 -134.5 -305.5t-258 -221t-320.5 -81.5q-166 0 -289 81.5t-176.5 221t-23.5 305.5zM393 588q-32 -173 65 -296.5t267 -123.5q171 0 311 123t172 297q21 115 -16 211.5
t-121 152.5t-197 56q-170 0 -309.5 -122.5t-171.5 -297.5zM694 1462q7 47 47 79t90 32q46 0 73 -32t20 -79q-9 -49 -46.5 -79.5t-84.5 -30.5q-50 0 -79 30.5t-20 79.5zM987 1462q7 47 46 79t89 32q49 0 76 -31.5t19 -79.5q-9 -49 -46.5 -79.5t-87.5 -30.5t-77.5 30.5
t-18.5 79.5z" />
    <glyph glyph-name="Oslash.sc" horiz-adv-x="1398" 
d="M109 55l163 142q-110 166 -69 391q30 167 132.5 306.5t254 220.5t317.5 81q216 0 357 -135l161 137l74 -86l-162 -137q106 -183 68 -387q-29 -166 -133.5 -305.5t-258.5 -221t-321 -81.5q-214 0 -346 126l-164 -139zM395 588q-27 -146 35 -256l678 592q-94 84 -234 84
q-111 0 -214 -56t-173.5 -152.5t-91.5 -211.5zM498 246q97 -78 227 -78q171 0 311 123t172 297q24 140 -32 248z" />
    <glyph glyph-name="Ugrave.sc" horiz-adv-x="1212" 
d="M236 410l137 776h196l-137 -776q-20 -107 40.5 -175.5t162.5 -68.5q103 0 188 68.5t105 175.5l137 776h192l-137 -776q-23 -127 -101.5 -226.5t-188.5 -151.5t-230 -52q-183 0 -290.5 119.5t-73.5 310.5zM623 1597h215l127 -278h-168z" />
    <glyph glyph-name="Uacute.sc" horiz-adv-x="1212" 
d="M236 410l137 776h196l-137 -776q-20 -107 40.5 -175.5t162.5 -68.5q103 0 188 68.5t105 175.5l137 776h192l-137 -776q-23 -127 -101.5 -226.5t-188.5 -151.5t-230 -52q-183 0 -290.5 119.5t-73.5 310.5zM700 1319l232 278h213l-277 -278h-168z" />
    <glyph glyph-name="Ucircumflex.sc" horiz-adv-x="1212" 
d="M236 410l137 776h196l-137 -776q-20 -107 40.5 -175.5t162.5 -68.5q103 0 188 68.5t105 175.5l137 776h192l-137 -776q-23 -127 -101.5 -226.5t-188.5 -151.5t-230 -52q-183 0 -290.5 119.5t-73.5 310.5zM549 1319l250 280h182l143 -280h-161l-97 147l-155 -147h-162z
" />
    <glyph glyph-name="Udieresis.sc" horiz-adv-x="1212" 
d="M236 410l137 776h196l-137 -776q-20 -107 40.5 -175.5t162.5 -68.5q103 0 188 68.5t105 175.5l137 776h192l-137 -776q-23 -127 -101.5 -226.5t-188.5 -151.5t-230 -52q-183 0 -290.5 119.5t-73.5 310.5zM602 1462q7 46 48 78.5t89 32.5q47 0 73.5 -32t18.5 -79
q-9 -49 -46 -79.5t-85 -30.5q-49 0 -78 31t-20 79zM893 1462q7 46 48 78.5t89 32.5q49 0 76.5 -31.5t19.5 -79.5q-9 -49 -47 -79.5t-88 -30.5q-49 0 -78 31t-20 79z" />
    <glyph glyph-name="Yacute.sc" horiz-adv-x="1155" 
d="M233 1186h230l239 -463l406 463h235l-573 -643l-94 -543h-199l94 543zM686 1319l227 278h215l-274 -278h-168z" />
    <glyph glyph-name="Thorn.sc" horiz-adv-x="1026" 
d="M176 0l209 1186h193l-37 -205h213q160 0 248.5 -102.5t58.5 -270.5q-29 -167 -153.5 -272t-284.5 -105h-213l-41 -231h-193zM440 410h211q75 0 137.5 55t77.5 141q16 90 -29 142t-126 57h-201z" />
    <glyph glyph-name="Amacron.sc" horiz-adv-x="1167" 
d="M33 0l657 1186h205l240 -1186h-205l-62 293h-467l-161 -293h-207zM498 467h336l-86 467zM590 1370l26 152h453l-27 -152h-452z" />
    <glyph glyph-name="Abreve.sc" horiz-adv-x="1167" 
d="M33 0l657 1186h205l240 -1186h-205l-62 293h-467l-161 -293h-207zM498 467h336l-86 467zM621 1556h141q-8 -44 10 -70t59 -26q40 0 68 29t35 67h145q-20 -105 -94.5 -167t-177.5 -62q-77 0 -123.5 33.5t-60 83.5t-2.5 112z" />
    <glyph glyph-name="Cacute.sc" horiz-adv-x="1220" 
d="M203 588q30 167 134 306.5t257 220.5t319 81q138 0 247 -57.5t175 -159.5l-168 -117q-110 150 -284 150q-173 0 -314.5 -123.5t-173.5 -300.5q-31 -176 66.5 -299t269.5 -123q93 0 182 41.5t160 114.5l129 -119q-98 -103 -232 -163t-274 -60q-166 0 -290 81.5t-178.5 221
t-24.5 305.5zM807 1319l231 278h213l-276 -278h-168z" />
    <glyph glyph-name="Ccircumflex.sc" horiz-adv-x="1220" 
d="M203 588q30 167 134 306.5t257 220.5t319 81q138 0 247 -57.5t175 -159.5l-168 -117q-110 150 -284 150q-173 0 -314.5 -123.5t-173.5 -300.5q-31 -176 66.5 -299t269.5 -123q93 0 182 41.5t160 114.5l129 -119q-98 -103 -232 -163t-274 -60q-166 0 -290 81.5t-178.5 221
t-24.5 305.5zM641 1319l250 280h182l146 -280h-162l-101 147l-155 -147h-160z" />
    <glyph glyph-name="Cdotaccent.sc" horiz-adv-x="1220" 
d="M203 588q30 167 134 306.5t257 220.5t319 81q138 0 247 -57.5t175 -159.5l-168 -117q-110 150 -284 150q-173 0 -314.5 -123.5t-173.5 -300.5q-31 -176 66.5 -299t269.5 -123q93 0 182 41.5t160 114.5l129 -119q-98 -103 -232 -163t-274 -60q-166 0 -290 81.5t-178.5 221
t-24.5 305.5zM819 1477q9 49 49 80.5t90 31.5t79 -31.5t20 -80.5t-48 -81t-89 -32t-80 32t-21 81z" />
    <glyph glyph-name="Ccaron.sc" horiz-adv-x="1220" 
d="M203 588q30 167 134 306.5t257 220.5t319 81q138 0 247 -57.5t175 -159.5l-168 -117q-110 150 -284 150q-173 0 -314.5 -123.5t-173.5 -300.5q-31 -176 66.5 -299t269.5 -123q93 0 182 41.5t160 114.5l129 -119q-98 -103 -232 -163t-274 -60q-166 0 -290 81.5t-178.5 221
t-24.5 305.5zM664 1595h161l101 -143l153 143h162l-248 -278h-182z" />
    <glyph glyph-name="Dcaron.sc" horiz-adv-x="1280" 
d="M176 0l209 1186h461q167 0 276 -79t147 -213t7 -304q-23 -126 -78 -234t-135.5 -187t-190.5 -124t-235 -45h-461zM397 180h269q164 0 273.5 115t141.5 295q18 87 8 163t-41 132.5t-91.5 89.5t-143.5 33h-268zM643 1595h162l102 -143l152 143h162l-246 -278h-182z" />
    <glyph glyph-name="Aogonek.sc" horiz-adv-x="1167" 
d="M33 0l657 1186h205l240 -1186h-101l-80 -150q-12 -25 -8.5 -47t23.5 -32q31 -11 60.5 16t31.5 61l127 9q-18 -95 -80 -153t-135 -58q-77 0 -120 54t-32 124q4 23 16.5 50.5t22 42t34.5 49t30 42.5l-56 285h-467l-161 -293h-207zM498 467h338l-88 467z" />
    <glyph glyph-name="Emacron.sc" horiz-adv-x="1021" 
d="M176 0l209 1186h721l-33 -176h-526l-60 -336h461l-30 -178h-461l-58 -318h541l-29 -178h-735zM549 1370l26 152h453l-27 -152h-452z" />
    <glyph glyph-name="Ebreve.sc" horiz-adv-x="1021" 
d="M176 0l209 1186h721l-33 -176h-526l-60 -336h461l-30 -178h-461l-58 -318h541l-29 -178h-735zM553 1556h143q-8 -44 11 -70t61 -26q39 0 66 29t34 67h146q-20 -106 -93.5 -167.5t-177.5 -61.5q-113 0 -159.5 66.5t-30.5 162.5z" />
    <glyph glyph-name="Edotaccent.sc" horiz-adv-x="1021" 
d="M176 0l209 1186h721l-33 -176h-526l-60 -336h461l-30 -178h-461l-58 -318h541l-29 -178h-735zM684 1477q9 49 48 80.5t89 31.5q52 0 82 -31.5t21 -80.5t-49.5 -81t-92.5 -32q-50 0 -78.5 32t-19.5 81z" />
    <glyph glyph-name="Ecaron.sc" horiz-adv-x="1021" 
d="M176 0l209 1186h721l-33 -176h-526l-60 -336h461l-30 -178h-461l-58 -318h541l-29 -178h-735zM524 1595h162l102 -143l152 143h162l-246 -278h-182z" />
    <glyph glyph-name="Gcircumflex.sc" horiz-adv-x="1333" 
d="M201 588q23 125 89 237.5t160 193.5t214 129t245 48q121 0 220 -44.5t165 -125.5l-159 -127h-2q-45 55 -111 85t-143 30q-113 0 -217 -57t-176 -155t-93 -214q-20 -115 16 -213t120 -155.5t196 -57.5q93 0 175 32.5t141.5 96t78.5 147.5h-329l28 166h549
q-54 -310 -233 -467t-443 -157q-167 0 -290.5 81.5t-177 221t-23.5 305.5zM637 1319l250 280h182l145 -280h-163l-99 147l-155 -147h-160z" />
    <glyph glyph-name="Gbreve.sc" horiz-adv-x="1333" 
d="M201 588q23 125 89 237.5t160 193.5t214 129t245 48q121 0 220 -44.5t165 -125.5l-159 -127h-2q-45 55 -111 85t-143 30q-113 0 -217 -57t-176 -155t-93 -214q-20 -115 16 -213t120 -155.5t196 -57.5q93 0 175 32.5t141.5 96t78.5 147.5h-329l28 166h549
q-54 -310 -233 -467t-443 -157q-167 0 -290.5 81.5t-177 221t-23.5 305.5zM739 1556h142q-8 -44 10 -70t59 -26q40 0 68 29t35 67h145q-20 -105 -94.5 -167t-177.5 -62q-77 0 -124 33.5t-60.5 83.5t-2.5 112z" />
    <glyph glyph-name="Eogonek.sc" horiz-adv-x="1021" 
d="M176 0l209 1186h721l-33 -176h-526l-60 -336h461l-30 -178h-461l-58 -318h541l-31 -176l-80 -139q-14 -22 -10 -45.5t25 -32.5q31 -13 63 17t27 61l129 6q-15 -90 -78.5 -149.5t-138.5 -59.5q-77 0 -118.5 54t-29.5 124q9 51 27 76l70 86h-619z" />
    <glyph glyph-name="Dcroat.sc" horiz-adv-x="1282" 
d="M119 518l26 144h160l92 524h457q166 0 274 -79t145.5 -213t6.5 -304q-23 -126 -77.5 -234t-135 -187t-189 -124t-233.5 -45h-457l91 518h-160zM414 186h264q161 0 269 113t140 291q22 116 0.5 207.5t-90 146.5t-176.5 55h-264l-59 -337h264l-27 -144h-264z" />
    <glyph glyph-name="Gdotaccent.sc" horiz-adv-x="1333" 
d="M201 588q23 125 89 237.5t160 193.5t214 129t245 48q121 0 220 -44.5t165 -125.5l-159 -127h-2q-45 55 -111 85t-143 30q-113 0 -217 -57t-176 -155t-93 -214q-20 -115 16 -213t120 -155.5t196 -57.5q93 0 175 32.5t141.5 96t78.5 147.5h-329l28 166h549
q-54 -310 -233 -467t-443 -157q-167 0 -290.5 81.5t-177 221t-23.5 305.5zM819 1477q9 49 50 80.5t92 31.5t79 -31.5t19 -80.5t-47.5 -81t-89.5 -32t-81.5 32t-21.5 81z" />
    <glyph glyph-name="Hcircumflex.sc" horiz-adv-x="1259" 
d="M176 0l209 1186h195l-91 -508h517l90 508h196l-209 -1186h-196l88 502h-516l-88 -502h-195zM573 1319l248 280h183l145 -280h-162l-98 147l-156 -147h-160z" />
    <glyph glyph-name="Hbar.sc" horiz-adv-x="1273" 
d="M184 0l154 870h-117l21 115h116l35 201h195l-35 -201h518l35 201h192l-34 -201h120l-20 -115h-121l-153 -870h-193l86 500h-518l-86 -500h-195zM498 680h518l35 190h-519z" />
    <glyph glyph-name="Itilde.sc" horiz-adv-x="546" 
d="M176 0l209 1186h195l-209 -1186h-195zM272 1343q26 108 79 160.5t112 55.5q35 0 79 -35t68 -35q14 0 30.5 17.5t23.5 52.5h120q-24 -112 -80.5 -162.5t-117.5 -50.5q-29 0 -55.5 18t-47.5 35.5t-37 17.5q-13 0 -28 -18.5t-23 -55.5h-123z" />
    <glyph glyph-name="Imacron.sc" horiz-adv-x="546" 
d="M176 0l209 1186h195l-209 -1186h-195zM289 1370l26 152h453l-27 -152h-452z" />
    <glyph glyph-name="Iogonek.sc" horiz-adv-x="546" 
d="M68 -176q6 36 28 76l80 110l209 1176h195l-209 -1186h-88l-78 -150q-28 -58 12 -79q32 -11 60.5 15.5t31.5 61.5l127 9q-18 -93 -79.5 -152t-135.5 -59q-76 0 -120.5 54.5t-32.5 123.5z" />
    <glyph glyph-name="IJ.sc" horiz-adv-x="1091" 
d="M176 0l209 1186h195l-209 -1186h-195zM324 -399l49 182q47 -16 125 -16q94 0 148 56.5t69 145.5l217 1217h192l-217 -1217q-14 -82 -46.5 -150.5t-84.5 -123.5t-131 -86t-178 -31q-39 0 -143 23z" />
    <glyph glyph-name="Jcircumflex.sc" horiz-adv-x="538" 
d="M-219 -397l49 176q20 -8 63.5 -12.5t61.5 -4.5q91 0 144 58t69 149l213 1215h186l-213 -1215q-14 -81 -46.5 -149t-84 -122.5t-129 -85t-174.5 -30.5q-49 0 -139 21zM201 1319l250 280h184l141 -280h-160l-100 147l-154 -147h-161z" />
    <glyph glyph-name="Lacute.sc" horiz-adv-x="878" 
d="M176 0l209 1186h195l-181 -1008h469l-28 -178h-664zM410 1303l227 280h215l-274 -280h-168z" />
    <glyph glyph-name="Lcaron.sc" horiz-adv-x="882" 
d="M176 0l209 1186h195l-181 -1008h469l-28 -178h-664zM633 860q53 62 85 117.5t46 122.5q9 38 12 80h178q-24 -128 -80 -216.5t-126 -136.5z" />
    <glyph glyph-name="Ldot.sc" horiz-adv-x="878" 
d="M176 0l209 1186h195l-181 -1008h469l-28 -178h-664zM582 471q7 44 45.5 75.5t83.5 31.5q46 0 73 -31.5t19 -75.5q-9 -45 -47 -75.5t-84 -30.5q-45 0 -72 30.5t-18 75.5z" />
    <glyph glyph-name="Nacute.sc" horiz-adv-x="1220" 
d="M176 0l209 1186h184l346 -815l146 815h192l-209 -1186h-180l-350 825l-143 -825h-195zM711 1319l227 278h215l-274 -278h-168z" />
    <glyph glyph-name="Ncaron.sc" horiz-adv-x="1220" 
d="M176 0l209 1186h184l346 -815l146 815h192l-209 -1186h-180l-350 825l-143 -825h-195zM598 1595h162l102 -143l152 143h160l-244 -278h-185z" />
    <glyph glyph-name="Omacron.sc" horiz-adv-x="1398" 
d="M201 588q30 167 133 306.5t255 220.5t318 81q125 0 229 -48t170 -129t93 -193.5t4 -237.5q-30 -166 -134.5 -305.5t-258 -221t-320.5 -81.5q-166 0 -289 81.5t-176.5 221t-23.5 305.5zM393 588q-32 -173 65 -296.5t267 -123.5q171 0 311 123t172 297q21 115 -16 211.5
t-121 152.5t-197 56q-170 0 -309.5 -122.5t-171.5 -297.5zM713 1370l26 152h453l-27 -152h-452z" />
    <glyph glyph-name="Obreve.sc" horiz-adv-x="1398" 
d="M201 588q30 167 133 306.5t255 220.5t318 81q125 0 229 -48t170 -129t93 -193.5t4 -237.5q-30 -166 -134.5 -305.5t-258 -221t-320.5 -81.5q-166 0 -289 81.5t-176.5 221t-23.5 305.5zM393 588q-32 -173 65 -296.5t267 -123.5q171 0 311 123t172 297q21 115 -16 211.5
t-121 152.5t-197 56q-170 0 -309.5 -122.5t-171.5 -297.5zM741 1556h142q-8 -43 11 -69.5t60 -26.5q40 0 68 29t35 67h145q-20 -105 -93.5 -167t-178.5 -62q-113 0 -159 66.5t-30 162.5z" />
    <glyph glyph-name="Ohungarumlaut.sc" horiz-adv-x="1398" 
d="M201 588q30 167 133 306.5t255 220.5t318 81q125 0 229 -48t170 -129t93 -193.5t4 -237.5q-30 -166 -134.5 -305.5t-258 -221t-320.5 -81.5q-166 0 -289 81.5t-176.5 221t-23.5 305.5zM393 588q-32 -173 65 -296.5t267 -123.5q171 0 311 123t172 297q21 115 -16 211.5
t-121 152.5t-197 56q-170 0 -309.5 -122.5t-171.5 -297.5zM717 1317l207 278h182l-225 -278h-164zM948 1317l228 278h182l-246 -278h-164z" />
    <glyph glyph-name="Racute.sc" horiz-adv-x="1120" 
d="M176 0l209 1186h465q74 0 132.5 -21t93.5 -57.5t56.5 -84.5t23 -102.5t-6.5 -111.5q-25 -142 -118.5 -246t-246.5 -123l234 -440h-236l-219 430h-117l-73 -430h-197zM479 608h254q90 0 145 59t70 142q10 51 1 95t-44.5 75t-93.5 31h-262zM608 1319l230 278h211l-273 -278
h-168z" />
    <glyph glyph-name="Rcaron.sc" horiz-adv-x="1120" 
d="M176 0l209 1186h465q74 0 132.5 -21t93.5 -57.5t56.5 -84.5t23 -102.5t-6.5 -111.5q-25 -142 -118.5 -246t-246.5 -123l234 -440h-236l-219 430h-117l-73 -430h-197zM479 608h254q90 0 145 59t70 142q10 51 1 95t-44.5 75t-93.5 31h-262zM547 1595h164l102 -143l152 143
h161l-245 -278h-185z" />
    <glyph glyph-name="Sacute.sc" horiz-adv-x="1030" 
d="M166 350h194q-15 -77 38.5 -134.5t152.5 -57.5q96 0 160 44t84 109q23 72 -21.5 118t-128.5 69l-141 39q-71 20 -121 49.5t-73.5 62.5t-37 70t-10.5 71.5t6 67.5q26 148 157.5 243t293.5 95q170 0 261.5 -97t61.5 -261h-192q14 80 -31 129t-133 49q-81 0 -148 -44.5
t-77 -111.5q-19 -107 123 -147l145 -39q161 -43 225 -142t31 -231q-40 -139 -170.5 -230t-296.5 -91q-182 0 -281 108.5t-71 261.5zM610 1319l230 278h215l-277 -278h-168z" />
    <glyph glyph-name="Scircumflex.sc" horiz-adv-x="1030" 
d="M166 350h194q-15 -77 38.5 -134.5t152.5 -57.5q96 0 160 44t84 109q23 72 -21.5 118t-128.5 69l-141 39q-71 20 -121 49.5t-73.5 62.5t-37 70t-10.5 71.5t6 67.5q26 148 157.5 243t293.5 95q170 0 261.5 -97t61.5 -261h-192q14 80 -31 129t-133 49q-81 0 -148 -44.5
t-77 -111.5q-19 -107 123 -147l145 -39q161 -43 225 -142t31 -231q-40 -139 -170.5 -230t-296.5 -91q-182 0 -281 108.5t-71 261.5zM449 1319l249 280h185l141 -280h-160l-98 147l-156 -147h-161z" />
    <glyph glyph-name="Scedilla.sc" horiz-adv-x="1028" 
d="M166 350h194q-14 -75 39.5 -133.5t151.5 -58.5q96 0 157.5 42.5t86.5 110.5q23 72 -22 118.5t-126 68.5l-143 39q-278 75 -236 321q26 147 158 242.5t293 95.5q168 0 259 -97.5t62 -260.5h-192q14 80 -30.5 128t-131.5 48q-81 0 -148.5 -43t-78.5 -113q-20 -107 125 -145
l143 -39q145 -40 210 -123t54 -191q-13 -135 -117 -238.5t-251 -129.5q2 -8 7.5 -23.5t8.5 -24.5t7 -23t6 -25t4 -24t1.5 -25.5t-2.5 -24.5q-12 -70 -74 -124t-139 -54q-74 0 -116 59t-25 152l127 -9q-14 -32 5.5 -60.5t53.5 -16.5q24 10 37 32.5t8 46.5l-30 132
q-116 3 -199.5 54.5t-118.5 135t-18 180.5z" />
    <glyph glyph-name="Utilde.sc" horiz-adv-x="1212" 
d="M236 410l137 774h194l-135 -774q-20 -107 40.5 -175.5t162.5 -68.5q103 0 188 68.5t105 175.5l135 774h194l-137 -774q-23 -127 -101.5 -226.5t-188.5 -151.5t-230 -52q-183 0 -290.5 119.5t-73.5 310.5zM602 1343q26 108 79 160.5t112 55.5q35 0 80 -35t69 -35
q13 0 28.5 17t22.5 53h121q-24 -112 -81 -162.5t-118 -50.5q-29 0 -55 18t-47 35.5t-37 17.5q-13 0 -28 -18.5t-23 -55.5h-123z" />
    <glyph glyph-name="Umacron.sc" horiz-adv-x="1212" 
d="M236 410l137 774h194l-135 -774q-20 -107 40.5 -175.5t162.5 -68.5q103 0 188 68.5t105 175.5l135 774h194l-137 -774q-23 -127 -101.5 -226.5t-188.5 -151.5t-230 -52q-183 0 -290.5 119.5t-73.5 310.5zM625 1370l24 152h453l-25 -152h-452z" />
    <glyph glyph-name="Ubreve.sc" horiz-adv-x="1212" 
d="M236 410l137 774h194l-135 -774q-20 -107 40.5 -175.5t162.5 -68.5q103 0 188 68.5t105 175.5l135 774h194l-137 -774q-23 -127 -101.5 -226.5t-188.5 -151.5t-230 -52q-183 0 -290.5 119.5t-73.5 310.5zM651 1556h144q-8 -44 10 -70t59 -26q39 0 67 29t34 67h147
q-20 -105 -94.5 -167t-177.5 -62q-77 0 -124.5 33.5t-61.5 83.5t-3 112z" />
    <glyph glyph-name="Uring.sc" horiz-adv-x="1212" 
d="M236 410l137 774h194l-135 -774q-20 -107 40.5 -175.5t162.5 -68.5q103 0 188 68.5t105 175.5l135 774h194l-137 -774q-23 -127 -101.5 -226.5t-188.5 -151.5t-230 -52q-183 0 -290.5 119.5t-73.5 310.5zM678 1491q15 83 79 137.5t144 54.5q84 0 130.5 -54.5t31.5 -137.5
q-14 -80 -81.5 -135.5t-150.5 -55.5q-79 0 -123 55.5t-30 135.5zM786 1491q-6 -34 14 -58t52 -24q36 0 67 24.5t37 57.5q6 35 -16 60.5t-57 25.5q-33 0 -62 -25.5t-35 -60.5z" />
    <glyph glyph-name="Uhungarumlaut.sc" horiz-adv-x="1212" 
d="M236 410l137 774h194l-135 -774q-20 -107 40.5 -175.5t162.5 -68.5q103 0 188 68.5t105 175.5l135 774h194l-137 -774q-23 -127 -101.5 -226.5t-188.5 -151.5t-230 -52q-183 0 -290.5 119.5t-73.5 310.5z" />
    <glyph glyph-name="Uogonek.sc" horiz-adv-x="1212" 
d="M236 408l137 774h196l-137 -774q-18 -106 42 -175t161 -69q103 0 189 69t104 175l137 774h192l-137 -774q-21 -117 -89.5 -210.5t-163.5 -148t-203 -67.5q-10 -19 -35.5 -65t-38.5 -71q-28 -58 10 -79q35 -11 63.5 15.5t30.5 61.5l129 9q-18 -96 -80.5 -153.5
t-134.5 -57.5q-76 0 -120.5 53.5t-32.5 124.5q0 8 8 20q9 36 26 68l58 76q-164 18 -253.5 134t-57.5 290z" />
    <glyph glyph-name="Wcircumflex.sc" horiz-adv-x="1593" 
d="M252 1186h207l121 -860l323 700h150l71 -700l428 860h209l-612 -1186h-160l-71 686l-312 -686h-162zM739 1319l248 280h182l148 -280h-162l-98 147l-156 -147h-162z" />
    <glyph glyph-name="Ycircumflex.sc" horiz-adv-x="1155" 
d="M233 1186h230l239 -463l406 463h235l-573 -643l-94 -543h-199l94 543zM522 1319l246 280h184l146 -280h-162l-100 147l-154 -147h-160z" />
    <glyph glyph-name="Tcaron.sc" horiz-adv-x="985" 
d="M223 1026l31 170h899l-31 -170h-364l-180 -1026h-172l180 1026h-363zM485 1595h162l101 -143l153 143h162l-248 -278h-182z" />
    <glyph glyph-name="Tbar.sc" horiz-adv-x="962" 
d="M213 1026l31 170h899l-31 -170h-364l-56 -309h230l-21 -117h-229l-105 -600h-172l105 600h-226l21 117h225l55 309h-362z" />
    <glyph glyph-name="Zacute.sc" horiz-adv-x="1042" 
d="M94 0l27 160l743 848h-571l33 178h821l-29 -158l-749 -848h598l-29 -180h-844zM623 1319l229 278h215l-276 -278h-168z" />
    <glyph glyph-name="Zdotaccent.sc" horiz-adv-x="1042" 
d="M94 0l27 160l743 848h-571l33 178h821l-29 -158l-749 -848h598l-29 -180h-844zM662 1477q9 49 49 80.5t90 31.5q52 0 80.5 -31.5t19.5 -80.5t-48.5 -81t-90.5 -32q-50 0 -79.5 32t-20.5 81z" />
    <glyph glyph-name="Wgrave.sc" horiz-adv-x="1593" 
d="M252 1186h207l121 -860l323 700h150l71 -700l428 860h209l-612 -1186h-160l-71 686l-312 -686h-162zM721 1597h215l131 -278h-168z" />
    <glyph glyph-name="Wacute.sc" horiz-adv-x="1593" 
d="M252 1186h207l121 -860l323 700h150l71 -700l428 860h209l-612 -1186h-160l-71 686l-312 -686h-162zM989 1319l230 278h215l-277 -278h-168z" />
    <glyph glyph-name="Wdieresis.sc" horiz-adv-x="1593" 
d="M252 1186h207l121 -860l323 700h150l71 -700l428 860h209l-612 -1186h-160l-71 686l-312 -686h-162zM793 1462q7 46 48 78.5t89 32.5q47 0 74 -32t20 -79q-9 -49 -47 -79.5t-86 -30.5q-49 0 -78 31t-20 79zM1083 1462q7 47 48.5 79t91.5 32q47 0 74 -32t20 -79
q-9 -49 -47 -79.5t-86 -30.5q-51 0 -80.5 31t-20.5 79z" />
    <glyph glyph-name="Aringacute.sc" horiz-adv-x="1167" 
d="M33 0l657 1186h205l240 -1186h-205l-62 293h-467l-161 -293h-207zM498 467h336l-86 467zM645 1487q10 65 55.5 115t108.5 69q31 43 97 122t73 87h215l-225 -229q36 -25 53 -69.5t8 -94.5q-14 -80 -81 -135.5t-150 -55.5q-79 0 -123.5 55.5t-30.5 135.5zM754 1487
q-6 -34 13.5 -58t51.5 -24q38 0 68.5 24t36.5 58q6 36 -15 61t-59 25q-33 0 -61.5 -25.5t-34.5 -60.5z" />
    <glyph glyph-name="AEacute.sc" horiz-adv-x="1656" 
d="M14 0l961 1186h764l-35 -185h-524l-58 -327h457l-31 -182h-456l-56 -308h541l-31 -184h-735l49 289h-381l-233 -289h-232zM625 475h268l78 432zM1034 1319l230 278h213l-275 -278h-168z" />
    <glyph glyph-name="Oslashacute.sc" horiz-adv-x="1398" 
d="M109 55l163 142q-110 166 -69 391q30 167 132.5 306.5t254 220.5t317.5 81q216 0 357 -135l161 137l74 -86l-162 -137q106 -183 68 -387q-29 -166 -133.5 -305.5t-258.5 -221t-321 -81.5q-214 0 -346 126l-164 -139zM395 588q-27 -146 35 -256l678 592q-94 84 -234 84
q-111 0 -214 -56t-173.5 -152.5t-91.5 -211.5zM498 246q97 -78 227 -78q171 0 311 123t172 297q24 140 -32 248zM834 1319l229 278h215l-279 -278h-165z" />
    <glyph glyph-name="Ibreve.sc" horiz-adv-x="546" 
d="M176 0l209 1186h195l-209 -1186h-195zM317 1556h144q-8 -44 10 -70t59 -26q39 0 67 29t34 67h147q-20 -105 -94.5 -167t-177.5 -62q-77 0 -124.5 33.5t-61.5 83.5t-3 112z" />
    <glyph glyph-name="Eng.sc" horiz-adv-x="1216" 
d="M176 0l209 1186h182l342 -819l146 819h194l-209 -1170q-74 -428 -446 -428q-57 0 -143 23l51 190q63 -11 96 -16q54 -3 98 12q59 19 96 69.5t50 115.5q7 33 -6 71l-324 766l-145 -819h-191z" />
    <glyph glyph-name="Ygrave.sc" horiz-adv-x="1155" 
d="M233 1186h230l239 -463l406 463h235l-573 -643l-94 -543h-199l94 543zM571 1597h213l131 -278h-167z" />
    <glyph glyph-name="Gcommaaccent.sc" horiz-adv-x="1333" 
d="M201 588q23 125 89 237.5t160 193.5t214 129t245 48q121 0 220 -44.5t165 -125.5l-159 -127h-2q-45 55 -111 85t-143 30q-113 0 -217 -57t-176 -155t-93 -214q-20 -115 16 -213t120 -155.5t196 -57.5q93 0 175 32.5t141.5 96t78.5 147.5h-329l28 166h549
q-54 -310 -233 -467t-443 -157q-167 0 -290.5 81.5t-177 221t-23.5 305.5zM446 -410q66 74 98 145t36 167h170q-36 -233 -203 -353z" />
    <glyph glyph-name="Kcommaaccent.sc" horiz-adv-x="1056" 
d="M176 0l209 1186h195l-82 -463l434 463h227l-561 -592l459 -594h-256l-348 467l-82 -467h-195zM315 -410q67 73 99.5 144.5t36.5 167.5h170q-39 -235 -203 -353z" />
    <glyph glyph-name="Lcommaaccent.sc" horiz-adv-x="878" 
d="M176 0l209 1186h195l-181 -1008h469l-28 -178h-664zM258 -410q67 73 99 144t36 168h170q-39 -235 -203 -353z" />
    <glyph glyph-name="Ncommaaccent.sc" horiz-adv-x="1220" 
d="M176 0l209 1186h184l346 -813l146 813h192l-209 -1186h-180l-350 823l-143 -823h-195zM362 -410q67 73 99.5 144.5t36.5 167.5h170q-39 -235 -203 -353z" />
    <glyph glyph-name="Rcommaaccent.sc" horiz-adv-x="1120" 
d="M176 0l209 1186h465q74 0 132.5 -21t93.5 -57.5t56.5 -84.5t23 -102.5t-6.5 -111.5q-25 -142 -118.5 -246t-246.5 -123l234 -440h-236l-219 430h-117l-73 -430h-197zM311 -410q67 73 99 144t36 168h170q-39 -236 -202 -353zM479 608h254q90 0 145 59t70 142q10 51 1 95
t-44.5 75t-93.5 31h-262z" />
    <glyph glyph-name="Tcommaaccent.sc" horiz-adv-x="983" 
d="M223 1008l31 178h889l-31 -178h-346l-176 -1008h-197l176 1008h-346zM252 -410q66 74 98 145t35 167h170q-36 -236 -203 -353z" />
    <glyph glyph-name="Scommaaccent.sc" horiz-adv-x="1030" 
d="M166 350h194q-15 -77 38.5 -134.5t152.5 -57.5q96 0 160 44t84 109q23 72 -21.5 118t-128.5 69l-141 39q-71 20 -121 49.5t-73.5 62.5t-37 70t-10.5 71.5t6 67.5q26 148 157.5 243t293.5 95q170 0 261.5 -97t61.5 -261h-192q14 80 -31 129t-133 49q-81 0 -148 -44.5
t-77 -111.5q-19 -107 123 -147l145 -39q161 -43 225 -142t31 -231q-40 -139 -170.5 -230t-296.5 -91q-182 0 -281 108.5t-71 261.5zM287 -410q66 73 97.5 144.5t35.5 167.5h170q-36 -236 -203 -353z" />
    <glyph glyph-name="Idotaccent.sc" horiz-adv-x="546" 
d="M176 0l209 1186h195l-209 -1186h-195zM416 1477q9 49 49 80.5t90 31.5q52 0 80.5 -31.5t19.5 -80.5t-48.5 -81t-90.5 -32q-50 0 -79.5 32t-20.5 81z" />
    <glyph glyph-name="zero.numr" horiz-adv-x="739" 
d="M244 936q17 93 43 163t68 129.5t105.5 90.5t147.5 31q68 0 116 -21.5t74.5 -57.5t37 -90t8 -113t-16.5 -132q-16 -90 -42 -159t-68 -127.5t-107 -90t-149 -31.5t-137.5 32.5t-73 88t-22 129.5t15.5 158zM375 936q-12 -78 -12 -140t30 -100.5t90 -38.5q163 0 213 279
q12 80 11.5 143t-31 101.5t-92.5 38.5q-160 0 -209 -283z" />
    <glyph glyph-name="one.numr" horiz-adv-x="428" 
d="M240 1081l20 123l297 144l-141 -807h-133l106 608z" />
    <glyph glyph-name="two.numr" horiz-adv-x="651" 
d="M164 541l8 63l393 389q66 66 74 117q9 49 -22.5 81t-86.5 32q-51 0 -95 -34.5t-64 -92.5l-113 28q35 102 118 164t181 62q107 0 168.5 -68t42.5 -172q-16 -104 -123 -207q-63 -62 -127.5 -123.5t-114.5 -109.5h285l-22 -129h-502z" />
    <glyph glyph-name="three.numr" horiz-adv-x="653" 
d="M164 692q50 24 123 62q12 -38 51 -64t82 -28q57 -2 102.5 29.5t57.5 82.5q10 50 -15 89.5t-86 39.5h-106l22 123h94q40 0 69 26t42 58q14 45 -9.5 78t-78.5 33q-63 0 -123 -66q-10 9 -44 38t-44 38q45 58 115.5 90.5t144.5 28.5q98 -4 151.5 -70t35.5 -154
q-15 -89 -115 -155q111 -54 82 -201q-24 -111 -118 -176.5t-208 -63.5q-76 2 -140.5 47t-84.5 115z" />
    <glyph glyph-name="four.numr" horiz-adv-x="731" 
d="M154 705l538 632h111l-92 -512h110l-20 -120h-111l-28 -164h-134l29 164h-403zM387 825h191l51 291z" />
    <glyph glyph-name="five.numr" horiz-adv-x="692" 
d="M174 694q12 9 60 38t61 38q15 -53 56 -83t93 -30q77 0 132.5 42.5t66.5 103.5q11 66 -28.5 101.5t-100.5 35.5q-100 0 -223 -72l-43 47l143 422h424l-22 -125h-316l-63 -180q61 31 137 31q114 0 178.5 -68.5t42.5 -191.5q-22 -124 -118.5 -199.5t-233.5 -75.5
q-85 0 -152.5 44.5t-93.5 121.5z" />
    <glyph glyph-name="six.numr" horiz-adv-x="692" 
d="M223 801q7 59 17.5 114t29.5 121t49 119.5t70 98.5t98 69.5t127 22.5q78 -3 132.5 -38t78.5 -122l-129 -49q-13 43 -41.5 64.5t-64.5 21.5q-78 0 -135.5 -74t-75.5 -186q31 44 78 69t100 25q106 0 165.5 -80.5t35.5 -196.5q-25 -111 -116 -184t-204 -70q-109 3 -168.5 77
t-46.5 198zM360 797q-12 -58 20.5 -98t88.5 -42q55 -1 100.5 36.5t57.5 94.5t-17.5 97.5t-83.5 42.5q-58 1 -106 -36.5t-60 -94.5z" />
    <glyph glyph-name="seven.numr" horiz-adv-x="649" 
d="M160 541l467 669h-351l23 127h569l-557 -796h-151z" />
    <glyph glyph-name="eight.numr" horiz-adv-x="700" 
d="M207 793q25 139 151 208q-44 61 -30 136q17 90 92 151.5t170 61.5t149 -62t37 -151q-16 -83 -84 -136q47 -33 70.5 -88.5t11.5 -119.5q-20 -110 -117 -187.5t-215 -77.5q-120 0 -187.5 77t-47.5 188zM338 795q-11 -57 27 -97.5t102 -40.5q63 0 114 40.5t62 97.5
q11 56 -25.5 99.5t-97.5 43.5h-12q-59 0 -110 -44t-60 -99zM459 1137q-6 -38 16 -65.5t64 -27.5q40 3 70 30.5t36 62.5q6 34 -17.5 60t-62.5 26q-40 0 -70 -25.5t-36 -60.5z" />
    <glyph glyph-name="nine.numr" horiz-adv-x="692" 
d="M195 688l129 51q25 -88 104 -88q77 0 134.5 73.5t76.5 186.5q-30 -43 -77.5 -68.5t-100.5 -25.5q-105 0 -163.5 80.5t-35.5 196.5q23 111 114 184t204 70q109 -3 169 -77t50 -198q-6 -57 -17.5 -112t-31 -121t-50.5 -120t-71.5 -99.5t-98.5 -70t-127 -22.5
q-77 3 -130.5 38t-77.5 122zM393 1085q-12 -57 17.5 -98t83.5 -41q58 0 104.5 37t60.5 94q10 58 -20 98t-86 42q-56 3 -102 -35.5t-58 -96.5z" />
    <glyph glyph-name="zero.dnom" horiz-adv-x="739" 
d="M147 397q16 92 42.5 162t68.5 129t106 90t148 31q68 0 116 -21.5t74 -57.5t36.5 -89.5t8 -112t-15.5 -131.5q-16 -91 -42 -160t-67.5 -127t-106 -89t-148.5 -31t-137.5 32t-74.5 87t-23.5 129.5t15.5 158.5zM279 397q-13 -79 -13 -140.5t30 -99.5t91 -38q62 0 106 39
t67.5 97t39.5 142q53 281 -111 281q-88 0 -136.5 -75t-73.5 -206z" />
    <glyph glyph-name="one.dnom" horiz-adv-x="428" 
d="M143 541l21 123l297 143l-142 -807h-133l105 608z" />
    <glyph glyph-name="two.dnom" horiz-adv-x="653" 
d="M72 0l8 66l391 387q69 69 76 116q7 49 -24 81t-85 32q-51 0 -95 -34.5t-64 -92.5l-113 29q33 102 116 163.5t181 61.5q107 0 169 -68t44 -172q-16 -101 -125 -207q-46 -45 -110 -106t-132 -127h285l-21 -129h-501z" />
    <glyph glyph-name="three.dnom" horiz-adv-x="653" 
d="M68 152q6 3 57.5 28.5t67.5 34.5q10 -39 49 -66.5t82 -27.5q58 0 103.5 31.5t57.5 80.5q10 51 -15.5 90t-86.5 39h-107l23 123h94q40 0 70 26t43 58q13 45 -10 78t-78 33q-65 0 -125 -66q-11 11 -46.5 42t-39.5 34q45 58 115 90.5t143 28.5q99 -4 152.5 -69.5
t35.5 -153.5q-15 -90 -114 -156q52 -26 75 -77t9 -122q-24 -113 -119 -177.5t-209 -61.5q-76 2 -140.5 47t-86.5 113z" />
    <glyph glyph-name="four.dnom" horiz-adv-x="731" 
d="M59 164l539 635h111l-93 -514h111l-20 -121h-111l-29 -164h-133l29 164h-404zM293 285h190l52 293z" />
    <glyph glyph-name="five.dnom" horiz-adv-x="692" 
d="M76 154q10 6 60 35.5t65 39.5q13 -52 54.5 -82t94.5 -30q78 0 133 42.5t64 104.5q10 65 -28 100t-99 35q-104 0 -223 -71l-47 47l147 422h424l-23 -125h-315l-66 -178q63 28 140 28q113 0 177 -68t42 -190q-22 -125 -118 -200.5t-232 -75.5q-84 0 -152.5 44.5
t-97.5 121.5z" />
    <glyph glyph-name="six.dnom" horiz-adv-x="692" 
d="M123 260q7 51 15.5 97t24.5 103.5t36 105t51 94t68 78.5t88.5 51t111.5 18q78 -3 132 -38.5t77 -123.5l-129 -49q-11 43 -39.5 64.5t-64.5 21.5q-78 0 -135.5 -74t-75.5 -186q29 44 76.5 69t101.5 25q105 0 164.5 -79.5t36.5 -194.5q-25 -113 -115.5 -186t-204.5 -70
q-110 3 -169.5 76.5t-49.5 197.5zM262 256q-10 -57 22 -97t89 -42q54 -1 98.5 37t56.5 94q12 58 -16.5 97.5t-81.5 41.5q-58 1 -106 -36.5t-62 -94.5z" />
    <glyph glyph-name="seven.dnom" horiz-adv-x="647" 
d="M66 0l466 670h-350l23 129h569l-557 -799h-151z" />
    <glyph glyph-name="eight.dnom" horiz-adv-x="700" 
d="M111 252q25 140 151 209q-45 57 -33 135q15 89 91.5 151t171.5 62t148 -61.5t38 -151.5q-12 -74 -82 -135q47 -33 69.5 -88t10.5 -121q-20 -110 -115.5 -186t-214.5 -76q-120 0 -187.5 76t-47.5 186zM242 254q-11 -57 27 -97t102 -40q63 0 113 40t61 97q11 56 -25.5 99.5
t-97.5 43.5h-12q-59 0 -108 -43t-60 -100zM360 596q-6 -38 16 -65t64 -27q40 3 70.5 30t36.5 62q6 36 -16.5 61t-61.5 25q-41 0 -72 -25t-37 -61z" />
    <glyph glyph-name="nine.dnom" horiz-adv-x="690" 
d="M98 147l131 52q11 -43 40 -64.5t65 -21.5q77 0 134 73.5t75 184.5q-28 -43 -76 -69t-102 -26q-105 0 -163.5 80.5t-33.5 196.5q24 111 114 184.5t203 69.5q109 -3 169.5 -77t50.5 -198q-6 -57 -17.5 -112t-31 -120.5t-50.5 -119.5t-71.5 -99t-98.5 -70t-127 -23
q-169 8 -211 159zM297 547q-12 -58 18 -98.5t84 -40.5q58 -1 105 35.5t61 93.5q9 59 -22 99t-86 40q-57 1 -102.5 -36t-57.5 -93z" />
    <glyph glyph-name="l.alt1" horiz-adv-x="589" 
d="M209 412l190 1065h213l-190 -1065q-8 -42 -8 -75.5t9.5 -67.5t40.5 -53t81 -19h78l-35 -197h-103q-349 0 -276 412z" />
    <glyph glyph-name="a.alt1" horiz-adv-x="1099" 
d="M127 283q24 136 139.5 221.5t327.5 85.5q131 0 252 -62l8 43q19 95 -36 155t-169 60q-75 0 -156 -35.5t-137 -95.5l-98 129q94 105 210 149t228 44q207 0 304.5 -104.5t62.5 -301.5l-100 -571h-209l16 104q-121 -124 -332 -124q-166 0 -251.5 81t-59.5 222zM334 283
q-8 -49 27.5 -80t117.5 -31q49 0 103 9.5t118.5 39.5t100.5 76l14 72q-126 55 -248 55q-62 0 -108.5 -14t-71 -37t-37 -45t-16.5 -45z" />
    <glyph glyph-name="y.alt1" horiz-adv-x="1038" 
d="M-51 -461l33 182q43 -8 116 -8t121.5 46t110.5 151l84 133l-217 913h225l149 -659l383 659h228l-672 -1126q-107 -170 -202 -238.5t-242 -68.5q-51 0 -117 16z" />
    <glyph glyph-name="lslash.alt1" horiz-adv-x="616" 
d="M123 541l27 147l143 82l127 707h213l-103 -572l197 113l-27 -146l-196 -112l-62 -348q-8 -42 -8 -75.5t9.5 -67.5t40.5 -53t81 -19h78l-33 -197h-102q-352 0 -279 412l37 213z" />
    <glyph glyph-name="lacute.alt1" horiz-adv-x="589" 
d="M209 412l190 1065h213l-190 -1065q-8 -42 -8 -75.5t9.5 -67.5t40.5 -53t81 -19h78l-35 -197h-103q-349 0 -276 412zM430 1577l262 324h238l-316 -324h-184z" />
    <glyph glyph-name="lcommaaccent.alt1" horiz-adv-x="589" 
d="M139 -483q79 86 115 162.5t49 203.5h199q-54 -278 -250 -413zM207 412l190 1065h213l-190 -1065q-8 -42 -8 -75.5t9.5 -67.5t40.5 -53t81 -19h78l-33 -197h-103q-351 0 -278 412z" />
    <glyph glyph-name="lcaron.alt1" horiz-adv-x="589" 
d="M209 412l190 1065h213l-190 -1065q-8 -42 -8 -75.5t9.5 -67.5t40.5 -53t81 -19h78l-35 -197h-103q-349 0 -276 412zM621 1090q78 89 120 175t58 212h198q-31 -156 -99.5 -263t-152.5 -167z" />
    <glyph glyph-name="aacute.alt1" horiz-adv-x="1099" 
d="M127 283q24 136 139.5 221.5t327.5 85.5q131 0 252 -62l8 43q19 95 -36 155t-169 60q-75 0 -156 -35.5t-137 -95.5l-98 129q94 105 210 149t228 44q207 0 304.5 -104.5t62.5 -301.5l-100 -571h-209l16 104q-121 -124 -332 -124q-166 0 -251.5 81t-59.5 222zM334 283
q-8 -49 27.5 -80t117.5 -31q49 0 103 9.5t118.5 39.5t100.5 76l14 72q-126 55 -248 55q-62 0 -108.5 -14t-71 -37t-37 -45t-16.5 -45zM616 1106l265 324h237l-317 -324h-185z" />
    <glyph glyph-name="agrave.alt1" horiz-adv-x="1099" 
d="M127 283q24 136 139.5 221.5t327.5 85.5q131 0 252 -62l8 43q19 95 -36 155t-169 60q-75 0 -156 -35.5t-137 -95.5l-98 129q94 105 210 149t228 44q207 0 304.5 -104.5t62.5 -301.5l-100 -571h-209l16 104q-121 -124 -332 -124q-166 0 -251.5 81t-59.5 222zM334 283
q-8 -49 27.5 -80t117.5 -31q49 0 103 9.5t118.5 39.5t100.5 76l14 72q-126 55 -248 55q-62 0 -108.5 -14t-71 -37t-37 -45t-16.5 -45zM442 1430h238l145 -324h-184z" />
    <glyph glyph-name="acircumflex.alt1" horiz-adv-x="1099" 
d="M127 283q24 136 139.5 221.5t327.5 85.5q131 0 252 -62l8 43q19 95 -36 155t-169 60q-75 0 -156 -35.5t-137 -95.5l-98 129q94 105 210 149t228 44q207 0 304.5 -104.5t62.5 -301.5l-100 -571h-209l16 104q-121 -124 -332 -124q-166 0 -251.5 81t-59.5 222zM334 283
q-8 -49 27.5 -80t117.5 -31q49 0 103 9.5t118.5 39.5t100.5 76l14 72q-126 55 -248 55q-62 0 -108.5 -14t-71 -37t-37 -45t-16.5 -45zM393 1108l285 324h213l166 -324h-178l-121 180l-189 -180h-176z" />
    <glyph glyph-name="adieresis.alt1" horiz-adv-x="1099" 
d="M127 283q24 136 139.5 221.5t327.5 85.5q131 0 252 -62l8 43q19 95 -36 155t-169 60q-75 0 -156 -35.5t-137 -95.5l-98 129q94 105 210 149t228 44q207 0 304.5 -104.5t62.5 -301.5l-100 -571h-209l16 104q-121 -124 -332 -124q-166 0 -251.5 81t-59.5 222zM334 283
q-8 -49 27.5 -80t117.5 -31q49 0 103 9.5t118.5 39.5t100.5 76l14 72q-126 55 -248 55q-62 0 -108.5 -14t-71 -37t-37 -45t-16.5 -45zM446 1274q9 53 54.5 89t101.5 36q53 0 84.5 -36t22.5 -89t-54 -90t-98 -37q-56 0 -88 36.5t-23 90.5zM797 1274q9 53 54 89t101 36
q54 0 86 -35.5t23 -89.5q-9 -53 -54 -90t-100 -37q-56 0 -87.5 36.5t-22.5 90.5z" />
    <glyph glyph-name="atilde.alt1" horiz-adv-x="1099" 
d="M127 283q24 136 139.5 221.5t327.5 85.5q131 0 252 -62l8 43q19 95 -36 155t-169 60q-75 0 -156 -35.5t-137 -95.5l-98 129q94 105 210 149t228 44q207 0 304.5 -104.5t62.5 -301.5l-100 -571h-209l16 104q-121 -124 -332 -124q-166 0 -251.5 81t-59.5 222zM334 283
q-8 -49 27.5 -80t117.5 -31q49 0 103 9.5t118.5 39.5t100.5 76l14 72q-126 55 -248 55q-62 0 -108.5 -14t-71 -37t-37 -45t-16.5 -45zM453 1137q31 128 96 186.5t137 58.5q32 0 58.5 -13t40.5 -29t31.5 -29t33.5 -13q20 0 42.5 20t31.5 64h131q-20 -86 -61.5 -142.5
t-84 -76.5t-86.5 -20q-30 0 -56.5 13t-42 29t-33.5 29t-34 13q-19 0 -40.5 -22t-30.5 -68h-133z" />
    <glyph glyph-name="aring.alt1" horiz-adv-x="1099" 
d="M127 283q24 136 139.5 221.5t327.5 85.5q131 0 252 -62l8 43q19 95 -36 155t-169 60q-75 0 -156 -35.5t-137 -95.5l-98 129q94 105 210 149t228 44q207 0 304.5 -104.5t62.5 -301.5l-100 -571h-209l16 104q-121 -124 -332 -124q-166 0 -251.5 81t-59.5 222zM334 283
q-8 -49 27.5 -80t117.5 -31q49 0 103 9.5t118.5 39.5t100.5 76l14 72q-126 55 -248 55q-62 0 -108.5 -14t-71 -37t-37 -45t-16.5 -45zM545 1307q19 97 94.5 162t167.5 65q96 0 150.5 -65.5t35.5 -161.5q-17 -93 -94 -157.5t-172 -64.5q-92 0 -145.5 65t-36.5 157zM659 1307
q-8 -43 18.5 -75t70.5 -32q46 0 84.5 32t46.5 75q9 47 -19 79.5t-74 32.5q-44 0 -81 -32.5t-46 -79.5z" />
    <glyph glyph-name="amacron.alt1" horiz-adv-x="1099" 
d="M127 283q24 136 139.5 221.5t327.5 85.5q131 0 252 -62l8 43q19 95 -36 155t-169 60q-75 0 -156 -35.5t-137 -95.5l-98 129q94 105 210 149t228 44q207 0 304.5 -104.5t62.5 -301.5l-100 -571h-209l16 104q-121 -124 -332 -124q-166 0 -251.5 81t-59.5 222zM334 283
q-8 -49 27.5 -80t117.5 -31q49 0 103 9.5t118.5 39.5t100.5 76l14 72q-126 55 -248 55q-62 0 -108.5 -14t-71 -37t-37 -45t-16.5 -45zM471 1171l27 166h528l-27 -166h-528z" />
    <glyph glyph-name="abreve.alt1" horiz-adv-x="1099" 
d="M127 283q24 136 139.5 221.5t327.5 85.5q131 0 252 -62l8 43q19 95 -36 155t-169 60q-75 0 -156 -35.5t-137 -95.5l-98 129q94 105 210 149t228 44q207 0 304.5 -104.5t62.5 -301.5l-100 -571h-209l16 104q-121 -124 -332 -124q-166 0 -251.5 81t-59.5 222zM334 283
q-8 -49 27.5 -80t117.5 -31q49 0 103 9.5t118.5 39.5t100.5 76l14 72q-126 55 -248 55q-62 0 -108.5 -14t-71 -37t-37 -45t-16.5 -45zM506 1380h158q-9 -54 14 -85t76 -31q51 0 87 35t44 81h159q-23 -121 -109 -191.5t-208 -70.5q-133 0 -187 76t-34 186z" />
    <glyph glyph-name="aogonek.alt1" horiz-adv-x="1099" 
d="M127 283q24 136 139.5 221.5t327.5 85.5q131 0 252 -62l8 43q19 95 -36 155t-169 60q-75 0 -156 -35.5t-137 -95.5l-98 129q94 105 210 149t228 44q207 0 304.5 -104.5t62.5 -301.5l-100 -571h-86l-93 -170q-18 -31 -12 -60t33 -42q29 -8 58 4t46 41q4 8 8 19.5t5 19.5
l2 8l139 8q-20 -104 -93.5 -171t-156.5 -67q-90 0 -139 63.5t-35 143.5q7 45 33 90l84 113h-2l16 104q-121 -124 -332 -124q-166 0 -251.5 81t-59.5 222zM334 283q-8 -49 27.5 -80t117.5 -31q49 0 103 9.5t118.5 39.5t100.5 76l14 72q-126 55 -248 55q-62 0 -108.5 -14
t-71 -37t-37 -45t-16.5 -45z" />
    <glyph glyph-name="yacute.alt1" horiz-adv-x="1038" 
d="M-51 -461l33 182q43 -8 116 -8q72 0 119 45t113 152l84 133l-217 913h225l149 -659l383 659h228l-672 -1126q-107 -170 -202 -238.5t-242 -68.5q-51 0 -117 16zM606 1106l262 324h238l-315 -324h-185z" />
    <glyph glyph-name="ydieresis.alt1" horiz-adv-x="1038" 
d="M-51 -461l33 182q43 -8 116 -8q72 0 119 45t113 152l84 133l-217 913h225l149 -659l383 659h228l-672 -1126q-107 -170 -202 -238.5t-242 -68.5q-51 0 -117 16zM442 1294q9 53 54.5 89t101.5 36q53 0 84.5 -36t22.5 -89t-53 -90t-97 -37q-56 0 -89 36.5t-24 90.5z
M793 1294q9 53 54 89t101 36q54 0 86 -35.5t23 -89.5t-53.5 -90.5t-98.5 -36.5q-56 0 -88.5 36.5t-23.5 90.5z" />
    <glyph glyph-name="ae.alt1" horiz-adv-x="1800" 
d="M127 283q24 136 139.5 221.5t327.5 85.5q131 0 252 -62l8 43q19 95 -36 155t-169 60q-72 0 -155 -36t-138 -95l-98 129q94 105 210 149t228 44q250 0 334 -146q168 146 385 146q208 0 319 -136t72 -360q-10 -59 -16 -78h-760q-3 -109 66.5 -174t185.5 -65
q82 0 160.5 36.5t124.5 100.5q17 -9 159 -76q-84 -121 -214.5 -183t-272.5 -62q-162 0 -268 83l-8 -63h-209l16 104q-121 -124 -332 -124q-166 0 -251.5 81t-59.5 222zM334 283q-8 -49 27.5 -80t117.5 -31q49 0 103 9.5t118.5 39.5t100.5 76l14 72q-107 37 -250 37
q-208 0 -231 -123zM1059 557h555q4 111 -58.5 173.5t-171.5 62.5q-112 0 -201 -63.5t-124 -172.5z" />
    <glyph glyph-name="aeacute.alt1" horiz-adv-x="1800" 
d="M127 283q24 136 139.5 221.5t327.5 85.5q131 0 252 -62l8 43q19 95 -36 155t-169 60q-72 0 -155 -36t-138 -95l-98 129q94 105 210 149t228 44q250 0 334 -146q168 146 385 146q208 0 319 -136t72 -360q-10 -59 -16 -78h-760q-3 -109 66.5 -174t185.5 -65
q82 0 160.5 36.5t124.5 100.5q17 -9 159 -76q-84 -121 -214.5 -183t-272.5 -62q-162 0 -268 83l-8 -63h-209l16 104q-121 -124 -332 -124q-166 0 -251.5 81t-59.5 222zM334 283q-8 -49 27.5 -80t117.5 -31q49 0 103 9.5t118.5 39.5t100.5 76l14 72q-107 37 -250 37
q-208 0 -231 -123zM987 1106l264 324h238l-318 -324h-184zM1059 557h555q4 111 -58.5 173.5t-171.5 62.5q-112 0 -201 -63.5t-124 -172.5z" />
    <glyph glyph-name="ycircumflex.alt1" horiz-adv-x="1038" 
d="M-51 -461l33 182q43 -8 116 -8q72 0 119 45t113 152l84 133l-217 913h225l149 -659l383 659h228l-672 -1126q-107 -170 -202 -238.5t-242 -68.5q-51 0 -117 16zM379 1108l283 324h212l168 -324h-178l-123 180l-186 -180h-176z" />
    <glyph glyph-name="ldot.alt1" horiz-adv-x="753" 
d="M209 412l190 1065h213l-190 -1065q-8 -42 -8 -75.5t9.5 -67.5t40.5 -53t81 -19h78l-35 -197h-103q-349 0 -276 412zM571 563q10 59 59.5 99t108.5 40q61 0 97 -40t26 -99t-60.5 -99t-111.5 -40q-59 0 -94 40t-25 99z" />
    <glyph glyph-name="t.alt1" horiz-adv-x="739" 
d="M188 782l31 174h172l41 230l225 74l-53 -304h201l-31 -174h-201l-73 -405q-9 -37 -8 -69.5t12 -57t42.5 -39t82.5 -14.5h67l-32 -197h-93q-188 0 -252 94t-30 283l71 405h-172z" />
    <glyph glyph-name="tcaron.alt1" horiz-adv-x="739" 
d="M188 782l31 174h172l41 230l225 74l-53 -304h201l-31 -174h-201l-73 -405q-9 -37 -8 -69.5t12 -57t42.5 -39t82.5 -14.5h67l-32 -197h-93q-188 0 -252 94t-30 283l71 405h-172zM715 1124q79 88 115.5 165t50.5 204h198q-53 -277 -250 -416z" />
    <glyph glyph-name="tbar.alt1" horiz-adv-x="743" 
d="M166 440l24 133h138l37 209h-172l30 174h172l41 230l226 74l-54 -304h201l-31 -174h-200l-37 -209h145l-24 -133h-146l-12 -63q-9 -37 -7.5 -69.5t12.5 -57t42 -39t82 -14.5h67l-32 -197h-93q-188 0 -251 93.5t-31 283.5l10 63h-137z" />
    <glyph glyph-name="tcommaaccent.alt1" horiz-adv-x="739" 
d="M188 782l31 174h172l41 230l225 74l-53 -304h201l-31 -174h-201l-73 -405q-9 -37 -8 -69.5t12 -57t42.5 -39t82.5 -14.5h67l-32 -197h-93q-188 0 -252 94t-30 283l71 405h-172zM246 -483q79 86 115 162.5t49 203.5h198q-54 -278 -250 -413z" />
    <glyph glyph-name="T.sc.alt1" horiz-adv-x="983" 
d="M223 1008l31 178h889l-31 -178h-346l-176 -1008h-197l176 1008h-346z" />
    <glyph glyph-name="Tcaron.sc.alt1" horiz-adv-x="985" 
d="M223 1026l31 170h899l-31 -170h-364l-180 -1026h-172l180 1026h-363zM485 1595h162l101 -143l153 143h162l-248 -278h-182z" />
    <glyph glyph-name="Tbar.sc.alt1" horiz-adv-x="962" 
d="M213 1026l31 170h899l-31 -170h-364l-56 -309h230l-21 -117h-229l-105 -600h-172l105 600h-226l21 117h225l55 309h-362z" />
    <glyph glyph-name="Tcommaaccent.sc.alt1" horiz-adv-x="983" 
d="M223 1008l31 178h889l-31 -178h-346l-176 -1008h-197l176 1008h-346zM252 -410q66 74 98 145t35 167h170q-36 -236 -203 -353z" />
    </font>
</defs>
</svg>
